<svg width="60" height="60" viewBox="0 0 60 60" fill="none" xmlns="http://www.w3.org/2000/svg">
<rect width="60" height="60" rx="10" fill="#FFE1DC"/>
<path d="M41.6143 47.5038C41.2662 46.4098 41.5261 45.1688 42.3939 44.3005C43.5657 43.1281 45.4289 43.0693 46.6742 44.119" stroke="#380000" stroke-width="1.5" stroke-linecap="round" stroke-linejoin="round"/>
<path d="M8.49609 28.2795C9.03052 24.7623 10.4279 21.5297 12.4626 18.8022" stroke="#380000" stroke-width="1.5" stroke-linecap="round" stroke-linejoin="round"/>
<path d="M26.7925 52.63C23.1349 52.1591 19.7714 50.766 16.9375 48.6812" stroke="#380000" stroke-width="1.5" stroke-linecap="round" stroke-linejoin="round"/>
<path d="M42.1166 48.6812C39.5425 50.5746 36.5272 51.8991 33.252 52.4779" stroke="#380000" stroke-width="1.5" stroke-linecap="round" stroke-linejoin="round"/>
<path d="M50.5825 34.5977C50.0726 38.1296 48.6949 41.3769 46.6699 44.124" stroke="#380000" stroke-width="1.5" stroke-linecap="round" stroke-linejoin="round"/>
<path d="M46.6367 18.8564C48.647 21.5691 50.0247 24.7773 50.5591 28.2601" stroke="#380000" stroke-width="1.5" stroke-linecap="round" stroke-linejoin="round"/>
<path d="M27.1133 9.11424C27.5496 7.88298 28.7215 7 30.0992 7C31.8496 7 33.2666 8.41767 33.2666 10.1689C33.2666 10.2915 33.2616 10.4142 33.2469 10.5368L33.3156 10.5662C36.532 11.1451 39.4983 12.4401 42.038 14.2895" stroke="#380000" stroke-width="1.5" stroke-linecap="round" stroke-linejoin="round"/>
<path d="M32.8145 11.5914C32.3095 12.6657 31.2161 13.4113 29.9462 13.4113C28.2498 13.4113 26.8623 12.0771 26.7838 10.3994H26.7936C23.1262 10.8703 19.7529 12.2733 16.9141 14.3679" stroke="#380000" stroke-width="1.5" stroke-linecap="round" stroke-linejoin="round"/>
<path d="M27.1562 51.3988C27.6907 50.403 28.7399 49.7212 29.951 49.7212C31.4807 49.7212 32.7555 50.8053 33.0497 52.2475C33.0644 52.3211 33.0791 52.3996 33.0889 52.478" stroke="#380000" stroke-width="1.5" stroke-linecap="round" stroke-linejoin="round"/>
<path d="M32.9875 53.7827C32.6001 55.0924 31.3891 56.0539 29.9525 56.0539C28.2021 56.0539 26.7852 54.6362 26.7852 52.885C26.7852 52.7967 26.7852 52.7133 26.795 52.625" stroke="#380000" stroke-width="1.5" stroke-linecap="round" stroke-linejoin="round"/>
<path d="M49.6617 34.3478C49.4999 34.2791 49.3431 34.1957 49.1862 34.0976C47.7104 33.1558 47.2789 31.1985 48.2154 29.7269C48.7204 28.9371 49.5147 28.4466 50.3727 28.3043C50.4315 28.2945 50.4855 28.2847 50.5443 28.2798" stroke="#380000" stroke-width="1.5" stroke-linecap="round" stroke-linejoin="round"/>
<path d="M51.445 28.3091C51.8421 28.3778 52.2294 28.5249 52.5874 28.7555C54.0632 29.6973 54.4946 31.6546 53.5582 33.1262C52.8962 34.1662 51.7293 34.6861 50.582 34.5782" stroke="#380000" stroke-width="1.5" stroke-linecap="round" stroke-linejoin="round"/>
<path d="M12.3351 44.0604C10.3739 41.3771 9.02562 38.2131 8.49609 34.7793" stroke="#380000" stroke-width="1.5" stroke-linecap="round" stroke-linejoin="round"/>
<path d="M9.77104 28.7012C10.7026 29.2506 11.3302 30.266 11.3302 31.4286C11.3302 33.067 10.0897 34.4111 8.49626 34.5779C8.48155 34.5779 8.47174 34.5779 8.45703 34.5779" stroke="#380000" stroke-width="1.5" stroke-linecap="round" stroke-linejoin="round"/>
<path d="M6.84353 34.3086C5.75506 33.8083 5 32.7095 5 31.4292C5 29.6779 6.41697 28.2603 8.16734 28.2603C8.28011 28.2603 8.38798 28.2652 8.49584 28.275" stroke="#380000" stroke-width="1.5" stroke-linecap="round" stroke-linejoin="round"/>
<path d="M42.9883 13.5784C44.214 12.8033 45.8516 12.9505 46.9156 14.0199C48.1511 15.256 48.1511 17.2623 46.9156 18.4985C46.8126 18.6015 46.6999 18.6996 46.5871 18.7879" stroke="#380000" stroke-width="1.5" stroke-linecap="round" stroke-linejoin="round"/>
<path d="M45.4589 19.3766C44.3999 19.6611 43.2232 19.3913 42.3945 18.5574C41.2522 17.4144 41.1639 15.6141 42.1347 14.373" stroke="#380000" stroke-width="1.5" stroke-linecap="round" stroke-linejoin="round"/>
<path d="M13.5449 43.4964C14.6138 43.1874 15.815 43.4572 16.6583 44.3009C17.7762 45.4193 17.8841 47.1657 16.9819 48.4018C16.9329 48.4705 16.879 48.5343 16.825 48.598" stroke="#380000" stroke-width="1.5" stroke-linecap="round" stroke-linejoin="round"/>
<path d="M15.6146 49.4764C14.4722 49.9424 13.114 49.7069 12.1874 48.7798C11.1038 47.6957 10.9714 46.0279 11.7804 44.7966C11.8981 44.62 12.0305 44.4532 12.1874 44.3012C12.2511 44.2374 12.3197 44.1736 12.3884 44.1147" stroke="#380000" stroke-width="1.5" stroke-linecap="round" stroke-linejoin="round"/>
<path d="M47.4306 45.061C48.0631 46.258 47.8767 47.7737 46.8667 48.7793C45.6312 50.0155 43.6258 50.0155 42.3903 48.7793C42.3363 48.7254 42.2873 48.6714 42.2383 48.6175" stroke="#380000" stroke-width="1.5" stroke-linecap="round" stroke-linejoin="round"/>
<path d="M17.464 15.4272C17.5473 15.7069 17.5914 16.0061 17.5914 16.3151C17.5914 18.0664 16.1745 19.484 14.4241 19.484C13.6837 19.484 13.0022 19.2289 12.4629 18.8022" stroke="#380000" stroke-width="1.5" stroke-linecap="round" stroke-linejoin="round"/>
<path d="M11.5353 17.6153C11.3588 17.218 11.2559 16.7814 11.2559 16.3154C11.2559 14.5642 12.6728 13.1465 14.4232 13.1465C15.4381 13.1465 16.3403 13.6223 16.9188 14.363" stroke="#380000" stroke-width="1.5" stroke-linecap="round" stroke-linejoin="round"/>
<path d="M41.7358 27.333C39.9589 22.3056 35.1634 18.7095 29.5312 18.7095" stroke="#FF2000" stroke-width="1.5" stroke-linecap="round" stroke-linejoin="round" stroke-dasharray="2 3"/>
<path d="M33.4512 44.0038C38.6875 42.343 42.4798 37.4417 42.4798 31.6582" stroke="#FF2000" stroke-width="1.5" stroke-linecap="round" stroke-linejoin="round" stroke-dasharray="2 3"/>
<path d="M17.2031 35.6055C18.8721 40.8264 23.762 44.607 29.5337 44.607" stroke="#FF2000" stroke-width="1.5" stroke-linecap="round" stroke-linejoin="round" stroke-dasharray="2 3"/>
<path d="M25.443 19.3662C20.2967 21.0765 16.5898 25.9328 16.5898 31.6578" stroke="#FF2000" stroke-width="1.5" stroke-linecap="round" stroke-linejoin="round" stroke-dasharray="2 3"/>
<path d="M31.3139 16.3242L28.8262 18.8131L31.3139 21.3021" stroke="#FF2000" stroke-width="1.5" stroke-linecap="round" stroke-linejoin="round"/>
<path d="M28.8262 47.0736L31.3139 44.5846L28.8262 42.0957" stroke="#FF2000" stroke-width="1.5" stroke-linecap="round" stroke-linejoin="round"/>
<path d="M14.2676 30.4517L16.7553 32.9451L19.243 30.4517" stroke="#FF2000" stroke-width="1.5" stroke-linecap="round" stroke-linejoin="round"/>
<path d="M45.0014 32.9451L42.5137 30.4517L40.0215 32.9451" stroke="#FF2000" stroke-width="1.5" stroke-linecap="round" stroke-linejoin="round"/>
</svg>
