<svg width="27" height="27" viewBox="0 0 27 27" fill="none" xmlns="http://www.w3.org/2000/svg">
<path d="M13.4664 26.0494C20.4155 26.0494 26.0489 20.416 26.0489 13.4669C26.0489 6.51769 20.4155 0.884277 13.4664 0.884277C6.5172 0.884277 0.883789 6.51769 0.883789 13.4669C0.883789 20.416 6.5172 26.0494 13.4664 26.0494Z" stroke="#7A5554" stroke-width="1.5" stroke-linecap="round" stroke-linejoin="round"/>
<path d="M7.67903 14.0473L6.31686 15.7942C5.9082 16.3418 5.89423 17.0869 6.27844 17.6519L6.3448 17.7489C6.73599 18.3243 7.4555 18.5877 8.1296 18.404L10.3685 17.7871L7.67903 14.0473ZM7.67903 14.0473C7.67903 14.0473 13.7425 10.2417 13.4491 6.98372C13.1557 3.72574 17.2806 9.60398 17.2806 9.60398C17.2806 9.60398 21.5767 14.9138 19.3693 14.387C18.6778 14.2206 17.9548 14.1929 17.2702 14.3835C16.1315 14.6954 14.3747 15.3817 12.3244 16.8755C12.527 17.7524 14.9964 19.1215 15.7927 19.2532L14.455 21C14.455 21 11.4477 19.4126 10.4523 17.9118" stroke="#FF3E00" stroke-width="1.5" stroke-linecap="round" stroke-linejoin="round"/>
</svg>
