<svg width="30" height="25" viewBox="0 0 30 25" fill="none" xmlns="http://www.w3.org/2000/svg">
<path d="M25.0625 12.5057V20.4963" stroke="#7A5554" stroke-width="1.5" stroke-linecap="round" stroke-linejoin="round"/>
<path d="M25.0717 20.6416L5.53104 20.687L2.69904 23.3827C2.0609 23.9902 1.00598 23.5354 1.00958 22.6543L1.0786 5.75032C1.08535 4.09827 2.42651 2.76257 4.07858 2.76257H16.8541" stroke="#7A5554" stroke-width="1.5" stroke-linecap="round" stroke-linejoin="round"/>
<path d="M4.51465 9.19141H12.4871" stroke="#FF3E00" stroke-width="1.5" stroke-linecap="round" stroke-linejoin="round"/>
<path d="M4.51465 14.2581H12.5143" stroke="#FF3E00" stroke-width="1.5" stroke-linecap="round" stroke-linejoin="round"/>
<path d="M19.7143 13.0323L16.0641 14.4488C15.9551 14.4942 15.8371 14.3943 15.8643 14.2763L16.7542 10.2991L24.9536 1.67292C25.7164 0.828461 26.9967 0.773979 27.8321 1.53672C28.6674 2.30854 28.7219 3.59793 27.9592 4.44239L19.7143 13.0323Z" stroke="#7A5554" stroke-width="1.5" stroke-miterlimit="10" stroke-linejoin="round"/>
<path d="M17.0166 10.0449L19.8315 12.7145" stroke="#7A5554" stroke-width="1.5" stroke-miterlimit="10" stroke-linejoin="round"/>
</svg>
