<svg width="25" height="29" viewBox="0 0 25 29" fill="none" xmlns="http://www.w3.org/2000/svg">
<path d="M1 24.6418V4.11202C1 2.67009 2.17009 1.5 3.61202 1.5H24V28.0576H3.61202" stroke="#7A5554" stroke-width="1.5" stroke-miterlimit="10"/>
<path d="M23.4803 24.6772H7.39453" stroke="#7A5554" stroke-width="1.5" stroke-miterlimit="10" stroke-linecap="round"/>
<path d="M15.6099 6.67676H9.38118C8.85245 6.67676 8.42383 7.10538 8.42383 7.63411V13.8628C8.42383 14.3915 8.85245 14.8201 9.38118 14.8201H15.6099C16.1386 14.8201 16.5672 14.3915 16.5672 13.8628V7.63411C16.5672 7.10538 16.1386 6.67676 15.6099 6.67676Z" stroke="#FF3E00" stroke-width="1.5" stroke-miterlimit="10" stroke-linecap="round"/>
<path d="M4.38027 28.0575C2.51285 28.0575 1 26.5329 1 24.6773C1 22.8098 2.52467 21.297 4.38027 21.297H23.9409" stroke="#7A5554" stroke-width="1.5" stroke-miterlimit="10"/>
</svg>
