<?xml version="1.0" encoding="UTF-8"?><svg id="a" xmlns="http://www.w3.org/2000/svg" width="26" height="26" viewBox="0 0 26 26"><path d="M21.62,8.14l.76-.66c.67-.67.67-1.76,0-2.43l-1.44-1.44c-.67-.67-1.76-.67-2.43,0l-.66.74-2.09-.87-.03-1.03c0-.94-.77-1.72-1.72-1.72h-2.03c-.94,0-1.72.77-1.72,1.72v.99l-2.09.86-.7-.7c-.67-.67-1.76-.67-2.43,0l-1.44,1.44c-.67.67-.67,1.76,0,2.43l.7.7-.86,2.09h-.99c-.94,0-1.72.77-1.72,1.72v2.03c0,.94.77,1.72,1.72,1.72h.99l.86,2.09-.7.7c-.67.67-.67,1.76,0,2.43l1.44,1.44c.67.67,1.76.67,2.43,0l.7-.7,2.09.86v.99c0,.94.77,1.72,1.72,1.72h2.03c.94,0,1.72-.77,1.72-1.72v-1.02s2.09-.86,2.09-.86l.7.73c.67.67,1.76.67,2.43,0l1.44-1.44c.67-.67.67-1.76,0-2.43l-.73-.75.86-2.09,1.02.06c.94,0,1.72-.77,1.72-1.72v-2.03c0-.94-.77-1.72-1.72-1.72l-1.05-.03-.87-2.09Z" style="fill:none; fill-rule:evenodd; stroke:#7a5554; stroke-linecap:round; stroke-linejoin:round; stroke-width:1.5px;"/><path d="M13,6.58c-3.54,0-6.42,2.88-6.42,6.42s2.88,6.42,6.42,6.42,6.42-2.88,6.42-6.42-2.88-6.42-6.42-6.42Z" style="fill:none; fill-rule:evenodd; stroke:#7a5554; stroke-linecap:round; stroke-linejoin:round; stroke-width:1.5px;"/><polyline points="10.48 12.45 12.02 14.49 15.52 11.51" style="fill:none; stroke:#ff3e00; stroke-linecap:round; stroke-linejoin:round; stroke-width:1.5px;"/></svg>