<svg width="25" height="28" viewBox="0 0 25 28" fill="none" xmlns="http://www.w3.org/2000/svg">
<path d="M7.87013 10.7242H4.12116C2.39739 10.7242 1 9.34891 1 7.65236L1 3.96256C1 2.26601 2.39739 0.890676 4.12116 0.890676H7.87013C9.5939 0.890676 10.9913 2.26601 10.9913 3.96256V7.65236C10.9913 9.34891 9.5939 10.7242 7.87013 10.7242Z" stroke="#FF3E00" stroke-width="1.5" stroke-miterlimit="10" stroke-linecap="round"/>
<path d="M20.5791 10.7242H16.8301C15.1064 10.7242 13.709 9.34891 13.709 7.65236V3.96256C13.709 2.26601 15.1064 0.890676 16.8301 0.890676H20.5791C22.3029 0.890676 23.7003 2.26601 23.7003 3.96256V7.65236C23.7003 9.34891 22.3029 10.7242 20.5791 10.7242Z" stroke="#7A5554" stroke-width="1.5" stroke-miterlimit="10" stroke-linecap="round"/>
<path d="M8.91505 26.406H5.16608C3.44231 26.406 2.04492 25.0307 2.04492 23.3341L2.04492 19.6443C2.04492 17.9478 3.44231 16.5724 5.16608 16.5724H8.91505C10.6388 16.5724 12.0362 17.9478 12.0362 19.6443V23.3341C12.0362 25.0307 10.6388 26.406 8.91505 26.406Z" stroke="#7A5554" stroke-width="1.5" stroke-miterlimit="10" stroke-linecap="round"/>
<path d="M19.8174 25.3605V17.9809" stroke="#FF3E00" stroke-width="1.5" stroke-miterlimit="10" stroke-linecap="round"/>
<path d="M15.6348 25.3605V22.2241" stroke="#FF3E00" stroke-width="1.5" stroke-miterlimit="10" stroke-linecap="round"/>
<path d="M23.999 21.1173L23.999 17.9809" stroke="#FF3E00" stroke-width="1.5" stroke-miterlimit="10" stroke-linecap="round"/>
<path d="M2.0459 13.8606L24.0004 13.8606" stroke="#7A5554" stroke-width="1.5" stroke-miterlimit="10" stroke-linecap="round"/>
</svg>
