<svg width="27" height="28" viewBox="0 0 27 28" fill="none" xmlns="http://www.w3.org/2000/svg">
<path d="M25.9942 26.5407C25.9905 26.5444 25.9854 26.5465 25.9801 26.5465H2.76744C1.7907 26.5465 1 25.9302 1 25.1744V12.1861C1 11.4302 1.7907 10.814 2.76744 10.814H11.1194C11.7007 10.814 12.2533 11.0669 12.6332 11.5069L14.3784 13.528C14.7584 13.968 15.3109 14.2209 15.8922 14.2209H24C25.1046 14.2209 26 15.1164 26 16.2209V26.5267C26 26.5319 25.9979 26.537 25.9942 26.5407V26.5407Z" stroke="#7A5554" stroke-width="1.5" stroke-linecap="round" stroke-linejoin="round"/>
<path d="M8 6H18" stroke="#FF3E00" stroke-width="1.5" stroke-linecap="round" stroke-linejoin="round"/>
<path d="M7 18.4187H19.3488" stroke="#FF3E00" stroke-width="1.5" stroke-linecap="round" stroke-linejoin="round"/>
<path d="M4 10.6163V3C4 1.89543 4.89543 1 6 1H21.5465C22.6511 1 23.5465 1.89543 23.5465 3V14.1047" stroke="#7A5554" stroke-width="1.5" stroke-linecap="round" stroke-linejoin="round"/>
<path d="M10 22H18" stroke="#FF3E00" stroke-width="1.5" stroke-linecap="round" stroke-linejoin="round"/>
</svg>
