<svg width="27" height="28" viewBox="0 0 27 28" fill="none" xmlns="http://www.w3.org/2000/svg">
<path d="M25.9942 26.5407C25.9905 26.5444 25.9854 26.5465 25.9801 26.5465H2.76744C1.7907 26.5465 1 25.9302 1 25.1744V10.1861C1 9.43024 1.7907 8.81396 2.76744 8.81396H11.1194C11.7007 8.81396 12.2533 9.06688 12.6332 9.50686L14.3784 11.528C14.7584 11.968 15.3109 12.2209 15.8922 12.2209H24C25.1046 12.2209 26 13.1164 26 14.2209V26.5267C26 26.5319 25.9979 26.537 25.9942 26.5407V26.5407Z" stroke="#7A5554" stroke-width="1.5" stroke-linecap="round" stroke-linejoin="round"/>
<path d="M7.32617 5H19.675" stroke="#FF3E00" stroke-width="1.5" stroke-linecap="round" stroke-linejoin="round"/>
<path d="M3.7207 8.61628V3C3.7207 1.89543 4.61613 1 5.7207 1H21.2672C22.3718 1 23.2672 1.89543 23.2672 3V12.1047" stroke="#7A5554" stroke-width="1.5" stroke-linecap="round" stroke-linejoin="round"/>
<path d="M21.1601 24L18 17L12.746 21.9476L9 19L6 24H21.1601Z" stroke="#7A5554" stroke-width="1.5" stroke-linecap="round" stroke-linejoin="round"/>
<path d="M12.1397 18.2795C13.3215 18.2795 14.2795 17.3215 14.2795 16.1397C14.2795 14.958 13.3215 14 12.1397 14C10.958 14 10 14.958 10 16.1397C10 17.3215 10.958 18.2795 12.1397 18.2795Z" stroke="#FF3E00" stroke-width="1.5" stroke-linecap="round" stroke-linejoin="round"/>
</svg>
