<svg width="28" height="26" viewBox="0 0 28 26" fill="none" xmlns="http://www.w3.org/2000/svg">
<path d="M19.835 1H2.35644C1.6073 1 1 1.6073 1 2.35644V23.6436C1 24.3927 1.6073 25 2.35644 25H19.835C20.5841 25 21.1914 24.3927 21.1914 23.6436V2.35644C21.1914 1.6073 20.5841 1 19.835 1Z" stroke="#7A5554" stroke-width="1.5" stroke-miterlimit="10" stroke-linejoin="round"/>
<path d="M21.1885 3.53052H22.355C23.1342 3.53052 23.7657 4.03692 23.7657 4.66089V22.8553" stroke="#7A5554" stroke-width="1.5" stroke-miterlimit="10" stroke-linejoin="round"/>
<path d="M23.7236 5.37683H24.8902C25.6694 5.37683 26.3009 5.88324 26.3009 6.5072V22.7951" stroke="#7A5554" stroke-width="1.5" stroke-miterlimit="10" stroke-linejoin="round"/>
<path d="M10.0597 4.74829H4.0327C3.69319 4.74829 3.41797 5.02351 3.41797 5.36302V11.39C3.41797 11.7295 3.69319 12.0047 4.0327 12.0047H10.0597C10.3992 12.0047 10.6744 11.7295 10.6744 11.39V5.36302C10.6744 5.02351 10.3992 4.74829 10.0597 4.74829Z" stroke="#7A5554" stroke-width="1.5" stroke-linecap="round" stroke-linejoin="round"/>
<path d="M13.0938 6.62244H18.7377" stroke="#FF3E00" stroke-width="1.5" stroke-linecap="round" stroke-linejoin="round"/>
<path d="M13.1816 11.0247H18.8255" stroke="#FF3E00" stroke-width="1.5" stroke-linecap="round" stroke-linejoin="round"/>
<path d="M3.41797 16.3192H18.7371" stroke="#FF3E00" stroke-width="1.5" stroke-linecap="round" stroke-linejoin="round"/>
<path d="M3.41797 20.3506H18.7371" stroke="#FF3E00" stroke-width="1.5" stroke-linecap="round" stroke-linejoin="round"/>
</svg>
