<svg width="27" height="27" viewBox="0 0 27 27" fill="none" xmlns="http://www.w3.org/2000/svg">
<path d="M13.5 26C20.4036 26 26 20.4036 26 13.5C26 6.59644 20.4036 1 13.5 1C6.59644 1 1 6.59644 1 13.5C1 20.4036 6.59644 26 13.5 26Z" stroke="#7A5554" stroke-width="1.5" stroke-linecap="round" stroke-linejoin="round"/>
<path d="M17.3997 19.6467C17.3308 19.9678 17.3308 20.3577 17.0786 20.5871C16.918 20.7247 16.7345 20.8165 16.551 20.8853C15.4501 21.344 14.3721 21.688 13.1795 21.4128C11.8721 21.0917 11.207 19.9908 11.4593 18.4541C11.6428 17.3761 11.9409 16.2981 12.1932 15.2201C12.3997 14.3486 12.629 13.4999 12.7437 12.6054C12.8813 11.4128 12.3767 10.977 11.2987 11.1834C10.9776 11.2522 10.6795 11.3669 10.3125 11.4587C10.3813 11.1605 10.4042 10.9082 10.496 10.6559C10.5189 10.5412 10.6336 10.4265 10.7253 10.3807C12.0786 9.92196 13.8446 9.00453 15.1978 9.9449C15.8859 10.4265 16.2758 11.2522 16.2529 12.1238C16.207 13.4541 15.7483 14.6697 15.4501 15.9541C15.2896 16.711 15.0831 17.4908 14.9455 18.2477C14.762 19.211 15.1061 19.9449 16.0923 19.922C16.551 19.922 16.9639 19.6238 17.3997 19.6238V19.6467Z" fill="#FF3E00"/>
<path d="M13.867 8.79823C14.9564 8.79823 15.8395 7.91512 15.8395 6.82575C15.8395 5.73638 14.9564 4.85327 13.867 4.85327C12.7776 4.85327 11.8945 5.73638 11.8945 6.82575C11.8945 7.91512 12.7776 8.79823 13.867 8.79823Z" fill="#FF3E00"/>
</svg>
