<svg width="28" height="29" viewBox="0 0 28 29" fill="none" xmlns="http://www.w3.org/2000/svg">
<path d="M26.3529 10.0819V26C26.3529 27.1046 25.4575 28 24.3529 28H3C1.89543 28 1 27.1046 1 26V5.35693C1 4.25236 1.89543 3.35693 3 3.35693H24.3529C25.4575 3.35693 26.3529 4.25236 26.3529 5.35693V10.7553" stroke="#7A5554" stroke-width="1.5" stroke-linecap="round" stroke-linejoin="round"/>
<path d="M1.53711 10.0819H26.3531" stroke="#7A5554" stroke-width="1.5" stroke-linecap="round" stroke-linejoin="round"/>
<path d="M6.52344 1V5.57736" stroke="#7A5554" stroke-width="1.5" stroke-linecap="round" stroke-linejoin="round"/>
<path d="M19.7461 1V5.57736" stroke="#7A5554" stroke-width="1.5" stroke-linecap="round" stroke-linejoin="round"/>
<path d="M13.3494 15L14.6985 17.7251L17.7042 18.1622L15.5295 20.2829L16.0421 23.2779L13.3494 21.8641L10.6621 23.2779L11.1747 20.2829L9 18.1622L12.0057 17.7251L13.3494 15Z" fill="white" stroke="#FF3E00" stroke-width="1.5" stroke-linecap="round" stroke-linejoin="round"/>
</svg>
