<?xml version="1.0" encoding="UTF-8"?><svg id="a" xmlns="http://www.w3.org/2000/svg" width="29" height="29" viewBox="0 0 29 29"><path d="M11.96,18.74c.85,1.6,3.61,3.32,3.61,3.32l1.49-1.63c-.78-.21-3.11-1.81-3.23-2.71,2.18-1.31,3.99-1.84,5.16-2.05.7-.13,1.42-.03,2.09.2,2.15.73-1.64-4.99-1.64-4.99,0,0-3.57-6.28-3.57-2.98,0,3.3-6.4,6.56-6.4,6.56l2.33,4-2.29.41c-.69.12-1.38-.21-1.72-.82l-.06-.1c-.33-.6-.25-1.35.21-1.86l.64-.72.8-.83" style="fill:none; stroke:#ff3e00; stroke-linecap:round; stroke-linejoin:round; stroke-width:1.5px;"/><path d="M11.18,26.29c-4.99-1.39-8.75-5.86-8.99-11.31C1.88,8.18,7.14,2.42,13.94,2.11" style="fill:none; stroke:#7a5554; stroke-linecap:round; stroke-linejoin:round; stroke-width:1.5px;"/><path d="M17.67,2.51c5.06,1.35,8.89,5.85,9.14,11.35.31,6.8-4.95,12.56-11.75,12.87" style="fill:none; stroke:#7a5554; stroke-linecap:round; stroke-linejoin:round; stroke-width:1.5px;"/><polyline points="12.91 .61 15.04 2 13.66 4.13" style="fill:none; stroke:#7a5554; stroke-linecap:round; stroke-linejoin:round; stroke-width:1.5px;"/><polyline points="15.87 24.8 14.2 26.71 16.11 28.39" style="fill:none; stroke:#7a5554; stroke-linecap:round; stroke-linejoin:round; stroke-width:1.5px;"/></svg>