<svg width="25" height="31" viewBox="0 0 25 31" fill="none" xmlns="http://www.w3.org/2000/svg">
<path d="M22.4492 20.4592C22.4492 20.4592 24.2114 20.1121 24.1135 21.2424C22.7162 26.2976 18.0881 30.0001 12.5879 30.0001C7.08765 30.0001 2.32611 26.1819 1 21.0199L1.0801 20.9754C1.1602 21.0021 4.83593 21.7319 5.01393 21.7586C5.58353 21.8387 6.01964 22.168 6.42014 22.5329C7.06985 23.1203 7.69285 23.7344 8.33365 24.3218C8.86766 24.8202 9.43726 25.2919 10.1404 25.55C10.9948 25.8704 11.7335 25.6212 12.2319 24.8558C12.3298 24.7045 12.4099 24.5443 12.4989 24.3841C12.8193 24.4998 13.1308 24.6422 13.4512 24.7312C14.3946 24.9982 15.2134 24.5354 15.4982 23.592C15.5516 23.4229 15.5872 23.2449 15.6317 23.0847C15.9966 23.2182 16.3437 23.3784 16.7086 23.4674C17.5452 23.6721 18.1949 23.3339 18.5331 22.5596C18.6043 22.3905 18.6577 22.2214 18.7111 22.1057C19.1472 22.1502 19.5566 22.2392 19.966 22.2214C21.1497 22.1769 21.8529 21.2958 21.6393 20.1744C21.5325 19.6137 21.2121 19.1865 20.7492 18.8572C20.0639 18.3588 19.3786 17.8604 18.6933 17.3531C17.5007 16.463 16.317 15.5641 15.1066 14.6919C13.9496 13.8642 13.3355 13.882 12.1607 14.6919C11.3419 15.2526 10.5231 15.8133 9.70426 16.374C9.33936 16.6233 8.95666 16.6411 8.55616 16.4808C7.97765 16.2494 7.81745 15.6264 8.27135 15.1992C9.58856 13.9443 10.9147 12.6983 12.2675 11.4879C13.0418 10.7937 13.9407 10.7403 14.8574 11.2298C15.0532 11.3366 15.249 11.4345 15.4359 11.5502C16.2992 12.0931 17.1625 12.6538 18.0347 13.1878C18.8357 13.6773 19.6634 14.1401 20.6335 14.1757C21.6393 14.2113 22.6539 14.1935 23.6596 14.1935L23.891 14.1134C22.2623 9.4409 17.8211 6.08557 12.5879 6.08557C7.08765 6.08557 2.45071 9.7969 1.0623 14.8521L6.79394 14.06" stroke="#7A5554" stroke-width="1.5" stroke-linecap="round" stroke-linejoin="round"/>
<path d="M12.5079 24.393L11.0127 23.0046" stroke="#7A5554" stroke-width="1.5" stroke-linecap="round" stroke-linejoin="round"/>
<path d="M15.7739 23.2449L14.7949 22.248" stroke="#7A5554" stroke-width="1.5" stroke-linecap="round" stroke-linejoin="round"/>
<path d="M18.7819 22.2392L18.1855 21.5984" stroke="#7A5554" stroke-width="1.5" stroke-linecap="round" stroke-linejoin="round"/>
<path d="M12.3855 1L13.7346 3.72512L16.7403 4.16221L14.5656 6.28295L15.0783 9.27788L12.3855 7.86405L9.69818 9.27788L10.2108 6.28295L8.03613 4.16221L11.0419 3.72512L12.3855 1Z" fill="white" stroke="#FF3E00" stroke-width="1.5" stroke-linecap="round" stroke-linejoin="round"/>
</svg>
