<svg width="30" height="31" viewBox="0 0 30 31" fill="none" xmlns="http://www.w3.org/2000/svg">
<path d="M22.3424 27.5378C20.1677 28.9264 17.5849 29.7317 14.8131 29.7317C7.08385 29.7317 0.814453 23.465 0.814453 15.733C0.814453 13.7582 1.22255 11.8821 1.95932 10.1785" stroke="#7A5554" stroke-width="1.5" stroke-linecap="round" stroke-linejoin="round"/>
<path d="M7.48926 3.79958C9.62014 2.48763 12.129 1.73169 14.8159 1.73169C22.5479 1.73169 28.8173 8.00109 28.8173 15.7331C28.8173 17.5928 28.4557 19.3704 27.7957 20.9918" stroke="#7A5554" stroke-width="1.5" stroke-linecap="round" stroke-linejoin="round"/>
<path d="M27.1187 24.9577C28.2215 24.9577 29.1154 24.0638 29.1154 22.961C29.1154 21.8583 28.2215 20.9644 27.1187 20.9644C26.016 20.9644 25.1221 21.8583 25.1221 22.961C25.1221 24.0638 26.016 24.9577 27.1187 24.9577Z" stroke="#FF3E00" stroke-width="1.5" stroke-linecap="round" stroke-linejoin="round"/>
<path d="M2.86679 10.4058C3.96953 10.4058 4.86347 9.51189 4.86347 8.40915C4.86347 7.30642 3.96953 6.41248 2.86679 6.41248C1.76406 6.41248 0.870117 7.30642 0.870117 8.40915C0.870117 9.51189 1.76406 10.4058 2.86679 10.4058Z" stroke="#FF3E00" stroke-width="1.5" stroke-linecap="round" stroke-linejoin="round"/>
<path d="M15.0247 20.3508C17.5236 20.3508 19.5494 18.325 19.5494 15.8261C19.5494 13.3272 17.5236 11.3014 15.0247 11.3014C12.5258 11.3014 10.5 13.3272 10.5 15.8261C10.5 18.325 12.5258 20.3508 15.0247 20.3508Z" stroke="#FF3E00" stroke-width="1.5" stroke-linecap="round" stroke-linejoin="round"/>
<path d="M21.9873 13.1202C21.7271 12.5039 21.4149 11.8493 20.9328 11.307L21.7792 9.91013C21.9271 9.61433 21.8832 9.25005 21.6285 9.05011L20.0947 7.85046C19.84 7.65052 19.4757 7.69434 19.2237 7.91072L18.0706 9.06928C17.3257 8.65297 16.6546 8.4585 15.9945 8.35442L15.57 6.78776C15.507 6.65629 15.444 6.52482 15.3427 6.44539C15.1893 6.32488 14.9948 6.25641 14.8661 6.3194L13.1707 6.52756C12.864 6.56591 12.6284 6.81241 12.6065 7.12191C12.5791 7.49988 12.5216 8.07505 12.4038 8.83921C12.2997 9.4993 11.1329 9.41165 10.5906 9.8937L9.11436 9.16789C8.67066 8.94877 8.13383 9.10489 7.87637 9.52668L7.13412 10.7346C6.93418 10.9893 6.978 11.3535 7.19438 11.6055L8.35294 12.7586C8.10644 13.3886 7.91197 14.0596 7.76681 14.7717L6.20015 15.1963C5.88791 15.2812 5.64688 15.5879 5.69071 15.9522L5.83313 17.8749C5.87695 18.2392 6.13441 18.4391 6.4576 18.4446L8.12013 18.4255C8.38033 19.0417 8.69257 19.6963 9.17462 20.2386L8.32829 21.6355C8.18039 21.9313 8.22421 22.2956 8.47893 22.4955L10.0127 23.6951C10.2675 23.8951 10.6317 23.8513 10.8837 23.6349L12.0368 22.4763C12.6667 22.7228 13.3378 22.9173 14.0499 23.0625L14.4334 24.6784C14.5183 24.9907 14.825 25.2317 15.1373 25.1468L17.0901 24.8619C17.4544 24.8181 17.6543 24.5606 17.6598 24.2375L17.6434 22.731" stroke="#7A5554" stroke-width="1.5" stroke-linecap="round" stroke-linejoin="round"/>
<path d="M17.4922 22.6051C17.599 21.945 18.7658 22.0409 19.3108 21.5615L20.7049 22.4133C21.0008 22.564 21.365 22.5202 21.565 22.2654L22.7728 20.7371C22.9728 20.4824 22.9317 20.1181 22.7181 19.8661L21.565 18.7076C21.8142 18.0776 22.0142 17.4066 22.1621 16.6972L23.7315 16.2836C24.0464 16.2015 24.2875 15.8947 24.2436 15.5304L24.1094 13.605C24.0656 13.2407 23.8109 13.038 23.4877 13.0298L21.8252 13.0407" stroke="#7A5554" stroke-width="1.5" stroke-linecap="round" stroke-linejoin="round"/>
</svg>
