<svg width="25" height="25" viewBox="0 0 25 25" fill="none" xmlns="http://www.w3.org/2000/svg">
<path d="M24.0087 6.71489V2.75566C24.0087 1.6443 23.1057 0.75 22.003 0.75H3.00566C1.90298 0.75 1 1.65298 1 2.75566V21.7443C1 22.8557 1.90298 23.75 3.00566 23.75H21.9943C23.1057 23.75 24 22.847 24 21.7443V6.71489" stroke="#7A5554" stroke-width="1.5" stroke-linecap="round" stroke-linejoin="round"/>
<path d="M1.46875 6.71484H24.0086" stroke="#7A5554" stroke-width="1.5" stroke-linecap="round" stroke-linejoin="round"/>
<path d="M11.0277 5.01312C11.5839 5.01312 12.0349 4.5622 12.0349 4.00595C12.0349 3.44971 11.5839 2.99878 11.0277 2.99878C10.4714 2.99878 10.0205 3.44971 10.0205 4.00595C10.0205 4.5622 10.4714 5.01312 11.0277 5.01312Z" fill="#FF3E00"/>
<path d="M4.681 5.01312C5.23725 5.01312 5.68817 4.5622 5.68817 4.00595C5.68817 3.44971 5.23725 2.99878 4.681 2.99878C4.12475 2.99878 3.67383 3.44971 3.67383 4.00595C3.67383 4.5622 4.12475 5.01312 4.681 5.01312Z" fill="#FF3E00"/>
<path d="M7.85971 5.01312C8.41596 5.01312 8.86688 4.5622 8.86688 4.00595C8.86688 3.44971 8.41596 2.99878 7.85971 2.99878C7.30347 2.99878 6.85254 3.44971 6.85254 4.00595C6.85254 4.5622 7.30347 5.01312 7.85971 5.01312Z" fill="#FF3E00"/>
<path d="M9.03125 10.1359V19.539L16.3246 14.8678L9.03125 10.1359Z" stroke="#FF3E00" stroke-width="1.5" stroke-linecap="round" stroke-linejoin="round"/>
</svg>
