<?xml version="1.0" encoding="UTF-8"?><svg id="a" xmlns="http://www.w3.org/2000/svg" width="26" height="26" viewBox="0 0 26 26"><path d="M17.9,19.04c-.4.32-1.27.83-2.68.66-1.36-.16-3.49-1.01-5.91-4.13-3.92-5.05-2.58-8.29-1.33-9.3.55-.44,1.04-.65,1.42-.6.33.04.56.27.7.7l.89,2.7c.11.34.04.54-.27.73l-.65.46c-.53.37-.62.9-.26,1.56.19.34.7,1.25,1.44,2.2.74.95,1.48,1.67,1.77,1.93.56.51,1.08.54,1.55.11l.6-.55c.21-.21.36-.22.45-.21.09.01.19.05.3.12l2.38,1.51c.32.21.5.45.51.72.02.41-.3.9-.91,1.39Z" style="fill:none; stroke:#ff3e00; stroke-linecap:round; stroke-miterlimit:10; stroke-width:1.5px;"/><path d="M2.51,22.05l-.33,2.68,4.95-1.06c1.74.96,3.74,1.51,5.88,1.51,6.73,0,12.18-5.45,12.18-12.18S19.73.82,13,.82.82,6.27.82,13c0,2.46.73,4.74,1.99,6.66l-.3,2.4Z" style="fill:none; stroke:#7a5554; stroke-linecap:round; stroke-linejoin:round; stroke-width:1.5px;"/></svg>