<svg width="152" height="126" viewBox="0 0 152 126" fill="none" xmlns="http://www.w3.org/2000/svg">
<rect width="144.9" height="117.3" fill="#A30000"/>
<g style="mix-blend-mode:soft-light">
<path d="M47.0498 83.1571C70.3359 83.1571 89.213 65.2133 89.213 43.0786C89.213 20.9438 70.3359 3 47.0498 3C23.7638 3 4.88672 20.9438 4.88672 43.0786C4.88672 65.2133 23.7638 83.1571 47.0498 83.1571Z" stroke="white" stroke-width="2.66618" stroke-linecap="round" stroke-linejoin="round"/>
</g>
<g style="mix-blend-mode:soft-light">
<ellipse cx="41.995" cy="47.0172" rx="39.995" ry="38.0177" fill="#D9D9D9" fill-opacity="0.4"/>
</g>
<g style="mix-blend-mode:soft-light">
<path d="M33.5234 53.1878C33.5234 55.9485 34.7979 58.2026 37.3678 59.9603C39.9273 61.708 43.3016 62.5918 47.4803 62.5918C51.3874 62.5918 54.5423 61.7676 56.9555 60.1092C59.3687 58.4509 60.5701 56.2662 60.5701 53.5453C60.5701 51.7877 60.1627 50.2882 59.3687 49.0668C58.5643 47.8454 57.2689 46.7927 55.4721 45.899C53.6752 45.0053 51.2411 44.2307 48.1698 43.5753C43.5314 42.6618 39.2692 40.8544 37.4514 39.4146C35.6337 37.9846 34.7248 36.0085 34.7248 33.506C34.7248 31.0036 35.8844 28.8984 38.1931 27.2599C40.5019 25.6214 43.5001 24.8071 47.2087 24.8071C51.2307 24.8071 54.4587 25.6909 56.8928 27.4684C59.3269 29.246 60.5492 31.6392 60.5492 34.648" stroke="white" stroke-width="2.66618" stroke-linecap="round" stroke-linejoin="round"/>
</g>
<g style="mix-blend-mode:soft-light">
<path d="M47.0508 72.6018V68.2722V62.7808" stroke="white" stroke-width="2.66618" stroke-linecap="round" stroke-linejoin="round"/>
</g>
<g style="mix-blend-mode:soft-light">
<path d="M47.0508 24.5787V20.3385V13.5562" stroke="white" stroke-width="2.66618" stroke-linecap="round" stroke-linejoin="round"/>
</g>
<g style="mix-blend-mode:soft-light">
<path d="M102.971 110.434C115.568 117.109 131.473 112.814 138.496 100.84C145.519 88.8651 141 73.7462 128.403 67.0704C115.806 60.3947 99.9005 64.6901 92.8775 76.6645C85.8546 88.639 90.3734 103.758 102.971 110.434Z" stroke="white" stroke-width="2.66618" stroke-linecap="round" stroke-linejoin="round"/>
</g>
<g style="mix-blend-mode:soft-light">
<ellipse cx="24.4868" cy="23.843" rx="24.4868" ry="23.843" transform="matrix(0.883596 0.468251 -0.505906 0.862589 102.125 57.4023)" fill="#D9D9D9" fill-opacity="0.4"/>
</g>
<g style="mix-blend-mode:soft-light">
<path d="M105.148 90.3426C104.272 91.836 104.246 93.4209 105.079 95.1085C105.909 96.7877 107.454 98.2332 109.714 99.4311C111.828 100.551 113.796 101.01 115.628 100.805C117.46 100.599 118.803 99.7618 119.666 98.2898C120.224 97.339 120.479 96.411 120.437 95.5226C120.389 94.6313 120.022 93.6905 119.334 92.6918C118.646 91.6932 117.574 90.5764 116.121 89.3413C113.901 87.5174 112.169 85.3177 111.643 84.0176C111.113 82.7229 111.248 81.3934 112.042 80.0396C112.836 78.6858 114.131 77.8794 115.9 77.6549C117.669 77.4304 119.549 77.8494 121.556 78.9126C123.732 80.0657 125.197 81.4692 125.95 83.1286C126.703 84.788 126.605 86.4331 125.65 88.0608" stroke="white" stroke-width="2.66618" stroke-linecap="round" stroke-linejoin="round"/>
</g>
<g style="mix-blend-mode:soft-light">
<path d="M106.314 104.724L107.687 102.381L109.43 99.4106" stroke="white" stroke-width="2.66618" stroke-linecap="round" stroke-linejoin="round"/>
</g>
<g style="mix-blend-mode:soft-light">
<path d="M121.55 78.7452L122.895 76.4513L125.047 72.7822" stroke="white" stroke-width="2.66618" stroke-linecap="round" stroke-linejoin="round"/>
</g>
</svg>
