<svg width="145" height="118" viewBox="0 0 145 118" fill="none" xmlns="http://www.w3.org/2000/svg">
<rect width="144.9" height="117.3" fill="#FE7E54"/>
<g style="mix-blend-mode:soft-light" opacity="0.5">
<path d="M112.018 116.247H131V10.2588H76.0529V33.3933H25.0117V116.247H41.9491" fill="#D9D9D9"/>
</g>
<g style="mix-blend-mode:soft-light" clip-path="url(#clip0_6690_7786)">
<path d="M102.527 108.222H121.591V3.14307H66.4081V26.0791H15.1484V108.222H32.1584" stroke="white" stroke-width="3" stroke-linecap="round" stroke-linejoin="round"/>
<path d="M48.5547 108.222H85.0111H86.7581" stroke="white" stroke-width="3" stroke-linecap="round" stroke-linejoin="round"/>
<path d="M32.8954 55.9341H48.6641V40.2522H32.8954V55.9341Z" stroke="white" stroke-width="3" stroke-linecap="round" stroke-linejoin="round"/>
<path d="M32.8954 83.2134H48.6641V67.5315H32.8954V83.2134Z" stroke="white" stroke-width="3" stroke-linecap="round" stroke-linejoin="round"/>
<path d="M86.7743 83.1372H102.543V67.4554H86.7743V83.1372Z" stroke="white" stroke-width="3" stroke-linecap="round" stroke-linejoin="round"/>
<path d="M86.7743 55.0806H102.543V39.3987H86.7743V55.0806Z" stroke="white" stroke-width="3" stroke-linecap="round" stroke-linejoin="round"/>
<path d="M86.7743 27.1914L102.543 27.1914V11.5096L86.7743 11.5096V27.1914Z" stroke="white" stroke-width="3" stroke-linecap="round" stroke-linejoin="round"/>
<path d="M48.6632 108.222V95.146H32.8945V108.222" stroke="white" stroke-width="3" stroke-linecap="round" stroke-linejoin="round"/>
<path d="M86.7617 108.222V95.146H102.53V108.222" stroke="white" stroke-width="3" stroke-linecap="round" stroke-linejoin="round"/>
<path d="M66.4102 26.0791V107.963" stroke="white" stroke-width="3" stroke-linecap="round" stroke-linejoin="round"/>
</g>
<defs>
<clipPath id="clip0_6690_7786">
<rect width="108.742" height="107.365" fill="white" transform="translate(14 2)"/>
</clipPath>
</defs>
</svg>
