<svg width="55" height="57" viewBox="0 0 55 57" fill="none" xmlns="http://www.w3.org/2000/svg">
<path d="M28.9629 16.4314L28.2269 13.6807C27.7094 11.7469 25.7791 10.4412 23.8229 10.8753C22.8532 11.0901 22.0255 11.6689 21.4971 12.498C20.9481 13.3506 20.7833 14.404 21.042 15.3709L26.1228 34.3592C25.4288 34.6699 24.5361 35.2393 23.8577 36.2426C22.7335 37.8832 22.5398 40.0967 23.2669 42.8141C24.4155 47.1068 28.4299 50.0254 28.8281 50.3119C30.7552 51.672 32.9421 52.6679 35.3475 53.0783C40.5719 53.976 46.8575 51.6957 49.3475 46.9474C50.0617 45.5772 50.4178 44.0706 50.5416 42.5637C50.5631 42.3436 50.5762 42.1257 50.581 41.91C50.7363 38.2509 50.0062 34.5875 49.4324 31.0073C49.4235 30.974 49.4168 30.949 49.4078 30.9156C48.8904 28.9818 46.8707 27.843 44.9035 28.3693C44.3367 28.521 43.8306 28.7993 43.4096 29.1621C42.886 27.2388 40.8685 26.1083 38.9097 26.6324C38.3345 26.7863 37.8284 27.0647 37.4157 27.4252C36.9005 25.4997 34.8808 24.3608 32.9136 24.8872C32.3385 25.0411 31.8407 25.3172 31.4197 25.68L30.4673 22.1207" stroke="#FE7E54" stroke-width="3" stroke-linecap="round" stroke-linejoin="round"/>
<path d="M20.2382 20.981L10.5441 23.5749C6.75141 24.5897 2.85261 22.3369 1.8378 18.5442C0.822997 14.7516 3.0758 10.8528 6.86845 9.83798L36.7679 1.83773C40.5605 0.822923 44.4593 3.07573 45.4741 6.86838C46.4889 10.661 44.2361 14.5598 40.4435 15.5746L31.5829 17.9455C30.4326 18.2533 29.2492 17.5695 28.9414 16.4192" stroke="#FE7E54" stroke-width="3" stroke-linecap="round" stroke-linejoin="round"/>
</svg>
