<svg width="52" height="51" viewBox="0 0 52 51" fill="none" xmlns="http://www.w3.org/2000/svg">
<path d="M26.4637 37.3627C32.6946 37.3627 37.7458 32.3571 37.7458 26.1823C37.7458 20.0076 32.6946 15.002 26.4637 15.002C20.2328 15.002 15.1816 20.0076 15.1816 26.1823C15.1816 32.3571 20.2328 37.3627 26.4637 37.3627Z" stroke="#380000" stroke-width="1.5" stroke-linecap="round" stroke-linejoin="round"/>
<path d="M26.4766 10.8545V15.0022" stroke="#380000" stroke-width="1.5" stroke-linecap="round" stroke-linejoin="round"/>
<path d="M26.4766 37.4785V41.6263" stroke="#380000" stroke-width="1.5" stroke-linecap="round" stroke-linejoin="round"/>
<path d="M42.0019 26.2407H37.8164" stroke="#380000" stroke-width="1.5" stroke-linecap="round" stroke-linejoin="round"/>
<path d="M15.1366 26.2407H10.9512" stroke="#380000" stroke-width="1.5" stroke-linecap="round" stroke-linejoin="round"/>
<path d="M37.4559 15.3613L34.498 18.2926" stroke="#380000" stroke-width="1.5" stroke-linecap="round" stroke-linejoin="round"/>
<path d="M18.4579 34.1885L15.5 37.1197" stroke="#380000" stroke-width="1.5" stroke-linecap="round" stroke-linejoin="round"/>
<path d="M37.4559 37.1197L34.498 34.1885" stroke="#380000" stroke-width="1.5" stroke-linecap="round" stroke-linejoin="round"/>
<path d="M18.4579 18.2926L15.5 15.3613" stroke="#380000" stroke-width="1.5" stroke-linecap="round" stroke-linejoin="round"/>
<path d="M29.533 27.1232C31.2069 27.613 32.362 28.9468 32.4501 30.3922V30.4989C32.4501 30.9597 32.0732 31.338 31.6033 31.338H21.3448C20.8798 31.338 20.498 30.9645 20.498 30.4989V30.3922C20.5959 28.748 22.0838 27.2444 24.1492 26.9679L24.2667 26.9485C24.7806 26.8709 25.2798 27.0067 25.7888 27.1038C26.107 27.162 26.0776 27.1717 26.4202 27.1717M26.4202 27.1765C28.2115 27.1765 29.1072 25.2655 29.1072 23.2866C29.1072 21.8509 28.9017 21.0361 28.2801 20.488C27.727 20.0078 27.2767 19.8623 26.3517 19.872C25.1134 19.8914 23.5962 20.4201 23.5962 22.8064C23.5962 23.9753 23.9779 24.9745 24.4086 25.7263" stroke="#380000" stroke-width="1.5" stroke-linecap="round" stroke-linejoin="round"/>
<path d="M26 8C27.6569 8 29 6.433 29 4.5C29 2.567 27.6569 1 26 1C24.3431 1 23 2.567 23 4.5C23 6.433 24.3431 8 26 8Z" stroke="#FF3E00" stroke-width="1.5" stroke-linecap="round" stroke-linejoin="round"/>
<path d="M11 44C12.6569 44 14 42.6569 14 41C14 39.3431 12.6569 38 11 38C9.34315 38 8 39.3431 8 41C8 42.6569 9.34315 44 11 44Z" stroke="#FF3E00" stroke-width="1.5" stroke-linecap="round" stroke-linejoin="round"/>
<path d="M29 45H24V50H29V45Z" stroke="#FF3E00" stroke-width="1.5" stroke-linecap="round" stroke-linejoin="round"/>
<path d="M44 8H39V13H44V8Z" stroke="#FF3E00" stroke-width="1.5" stroke-linecap="round" stroke-linejoin="round"/>
<path d="M51 28L47.4967 23L44 28H51Z" stroke="#FF3E00" stroke-width="1.5" stroke-linecap="round" stroke-linejoin="round"/>
<path d="M43.2467 38H39.7533L38 41L39.7533 44H43.2467L45 41L43.2467 38Z" stroke="#FF3E00" stroke-width="1.5" stroke-linecap="round" stroke-linejoin="round"/>
<path d="M6.24669 23H2.74669L1 26L2.74669 29H6.24669L8 26L6.24669 23Z" stroke="#FF3E00" stroke-width="1.5" stroke-linecap="round" stroke-linejoin="round"/>
<path d="M14 13L10.9972 8L8 13H14Z" stroke="#FF3E00" stroke-width="1.5" stroke-linecap="round" stroke-linejoin="round"/>
</svg>
