<svg id="efjySJP1k6h1" xmlns="http://www.w3.org/2000/svg" xmlns:xlink="http://www.w3.org/1999/xlink" viewBox="0 0 600 450" shape-rendering="geometricPrecision" text-rendering="geometricPrecision" project-id="124a83e30bfc492395b1cdd681476d9b" export-id="50b5cb0badef49f18859bdd2bd2bb7f8" cached="false" style="background-color:transparent">
<style><![CDATA[
#efjySJP1k6h4 {animation: efjySJP1k6h4_c_o 3370ms linear infinite normal forwards}@keyframes efjySJP1k6h4_c_o { 0% {opacity: 0} 65.341246% {opacity: 0;animation-timing-function: cubic-bezier(0.167,0.167,0.667,1)} 75.252226% {opacity: 1;animation-timing-function: step-end} 100% {opacity: 0.998639}} #efjySJP1k6h32 {animation: efjySJP1k6h32_c_o 3370ms linear infinite normal forwards}@keyframes efjySJP1k6h32_c_o { 0% {opacity: 0} 47.240356% {opacity: 0;animation-timing-function: step-end} 47.537092% {opacity: 1;animation-timing-function: step-end} 100% {opacity: 0.997116}} #efjySJP1k6h33 {animation: efjySJP1k6h33_s_da 3370ms linear infinite normal forwards}@keyframes efjySJP1k6h33_s_da { 0% {stroke-dasharray: 0, 0, 0, 123.82} 47.537092% {stroke-dasharray: 0, 0, 0, 123.82} 60.385757% {stroke-dasharray: 0, 0, 123.82, 0} 100% {stroke-dasharray: 0, 0, 123.82, 0}} #efjySJP1k6h34_to {animation: efjySJP1k6h34_to__to 3370ms linear infinite normal forwards}@keyframes efjySJP1k6h34_to__to { 0% {transform: translate(318.583px,105.583px)} 47.537092% {transform: translate(318.583px,105.583px)} 53.738872% {transform: translate(378.295px,105.583px)} 60.385757% {transform: translate(378.295px,169.688px)} 100% {transform: translate(378.295px,169.688px)}} #efjySJP1k6h34 {animation: efjySJP1k6h34_c_o 3370ms linear infinite normal forwards}@keyframes efjySJP1k6h34_c_o { 0% {opacity: 0} 47.240356% {opacity: 0;animation-timing-function: step-end} 47.537092% {opacity: 1;animation-timing-function: step-end} 100% {opacity: 0.997116}} #efjySJP1k6h36_ts {animation: efjySJP1k6h36_ts__ts 3370ms linear infinite normal forwards}@keyframes efjySJP1k6h36_ts__ts { 0% {transform: translate(438.806px,166.616px) scale(0,0)} 56.439169% {transform: translate(438.806px,166.616px) scale(0,0);animation-timing-function: cubic-bezier(0.167,0.167,0,1)} 72.284866% {transform: translate(438.806px,166.616px) scale(1,1)} 100% {transform: translate(438.806px,166.616px) scale(1,1)}} #efjySJP1k6h36 {animation: efjySJP1k6h36_c_o 3370ms linear infinite normal forwards}@keyframes efjySJP1k6h36_c_o { 0% {opacity: 0} 56.142433% {opacity: 0;animation-timing-function: step-end} 56.439169% {opacity: 1;animation-timing-function: step-end} 100% {opacity: 0.997606}} #efjySJP1k6h47_ts {animation: efjySJP1k6h47_ts__ts 3370ms linear infinite normal forwards}@keyframes efjySJP1k6h47_ts__ts { 0% {transform: translate(392.819px,237.676px) scale(0,0)} 62.373887% {transform: translate(392.819px,237.676px) scale(0,0);animation-timing-function: cubic-bezier(0.167,0.167,0,1)} 78.219585% {transform: translate(392.819px,237.676px) scale(1,1)} 100% {transform: translate(392.819px,237.676px) scale(1,1)}} #efjySJP1k6h47 {animation: efjySJP1k6h47_c_o 3370ms linear infinite normal forwards}@keyframes efjySJP1k6h47_c_o { 0% {opacity: 0} 62.077151% {opacity: 0;animation-timing-function: step-end} 62.373887% {opacity: 1;animation-timing-function: step-end} 100% {opacity: 0.997932}} #efjySJP1k6h125_ts {animation: efjySJP1k6h125_ts__ts 3370ms linear infinite normal forwards}@keyframes efjySJP1k6h125_ts__ts { 0% {transform: translate(160.498px,237.113px) scale(0,0)} 58.4273% {transform: translate(160.498px,237.113px) scale(0,0);animation-timing-function: cubic-bezier(0.167,0.167,0,1)} 74.272997% {transform: translate(160.498px,237.113px) scale(1,1)} 100% {transform: translate(160.498px,237.113px) scale(1,1)}} #efjySJP1k6h125 {animation: efjySJP1k6h125_c_o 3370ms linear infinite normal forwards}@keyframes efjySJP1k6h125_c_o { 0% {opacity: 0} 58.130564% {opacity: 0;animation-timing-function: step-end} 58.4273% {opacity: 1;animation-timing-function: step-end} 100% {opacity: 0.997715}} #efjySJP1k6h232_to {animation: efjySJP1k6h232_to__to 3370ms linear infinite normal forwards}@keyframes efjySJP1k6h232_to__to { 0% {offset-distance: 0%} 47.537092% {offset-distance: 0%;animation-timing-function: cubic-bezier(0.167,0.167,0,1)} 60.385757% {offset-distance: 100%} 100% {offset-distance: 100%}} #efjySJP1k6h233 {animation: efjySJP1k6h233_c_o 3370ms linear infinite normal forwards}@keyframes efjySJP1k6h233_c_o { 0% {opacity: 0} 47.240356% {opacity: 0;animation-timing-function: step-end} 47.537092% {opacity: 1;animation-timing-function: step-end} 100% {opacity: 0.997116}} #efjySJP1k6h236_to {animation: efjySJP1k6h236_to__to 3370ms linear infinite normal forwards}@keyframes efjySJP1k6h236_to__to { 0% {offset-distance: 0%} 47.537092% {offset-distance: 0%;animation-timing-function: cubic-bezier(0.167,0.167,0,1)} 60.385757% {offset-distance: 100%} 100% {offset-distance: 100%}} #efjySJP1k6h236 {animation: efjySJP1k6h236_c_o 3370ms linear infinite normal forwards}@keyframes efjySJP1k6h236_c_o { 0% {opacity: 0} 47.240356% {opacity: 0;animation-timing-function: step-end} 47.537092% {opacity: 1;animation-timing-function: step-end} 100% {opacity: 0.997116}} #efjySJP1k6h239_ts {animation: efjySJP1k6h239_ts__ts 3370ms linear infinite normal forwards}@keyframes efjySJP1k6h239_ts__ts { 0% {transform: translate(279.011318px,156.620998px) scale(1,1)} 41.543027% {transform: translate(279.011318px,156.620998px) scale(1,1)} 44.510386% {transform: translate(279.011318px,156.620998px) scale(0.9,0.9)} 47.477745% {transform: translate(279.011318px,156.620998px) scale(1,1)} 100% {transform: translate(279.011318px,156.620998px) scale(1,1)}} #efjySJP1k6h314_to {animation: efjySJP1k6h314_to__to 3370ms linear infinite normal forwards}@keyframes efjySJP1k6h314_to__to { 0% {offset-distance: 0%} 19.792285% {offset-distance: 0%;animation-timing-function: cubic-bezier(0.167,0.167,0,1)} 39.614243% {offset-distance: 100%} 100% {offset-distance: 100%}} #efjySJP1k6h314_ts {animation: efjySJP1k6h314_ts__ts 3370ms linear infinite normal forwards}@keyframes efjySJP1k6h314_ts__ts { 0% {transform: scale(1,1)} 40.593472% {transform: scale(1,1);animation-timing-function: cubic-bezier(0.333,0,0.667,1)} 42.581602% {transform: scale(0.5,0.5);animation-timing-function: cubic-bezier(0.333,0,0.667,1)} 44.569733% {transform: scale(1,1)} 100% {transform: scale(1,1)}} #efjySJP1k6h314 {animation: efjySJP1k6h314_c_o 3370ms linear infinite normal forwards}@keyframes efjySJP1k6h314_c_o { 0% {opacity: 0} 19.495549% {opacity: 0;animation-timing-function: step-end} 19.792285% {opacity: 1;animation-timing-function: step-end} 100% {opacity: 0.995586}}
]]></style>
<g transform="translate(329 225)"><path d="M245.648,-176.5c0,0-491.296,0-491.296,0-5.993,0-10.852,4.516-10.852,10.086c0,0,0,332.828,0,332.828c0,5.57,4.859,10.086,10.852,10.086c0,0,491.296,0,491.296,0c5.993,0,10.852-4.516,10.852-10.086c0,0,0-332.828,0-332.828c0-5.57-4.859-10.086-10.852-10.086Z" fill="#f6f5f5" stroke-width="0"/></g><g id="efjySJP1k6h4" transform="translate(467.479 173.727)" opacity="0"><g transform="translate(3.696 4.874)"><path d="M-3.435,-4.301c0,0,2.422,0,2.422,0c.666,0,1.281.11,1.846.322.565.211,1.03.504,1.413.887.384.383.676.837.888,1.362.212.524.313,1.11.313,1.745c0,.636-.101,1.211-.313,1.745-.212.535-.504.978-.878,1.351-.373.373-.847.665-1.403.877-.555.212-1.17.313-1.846.313c0,0-2.454,0-2.454,0s0-8.602,0-8.602.012,0,.012,0Z" stroke-width="0"/><path d="M-1.024,3.645c.556,0,1.07-.089,1.534-.271.465-.182.868-.434,1.191-.746.323-.313.575-.707.757-1.151s.272-.937.272-1.462c0-.524-.09-1.028-.272-1.482s-.434-.837-.757-1.16-.716-.565-1.181-.746c-.464-.182-.968-.273-1.523-.273c0,0-1.746,0-1.746,0s0,7.302,0,7.302s1.736,0,1.736,0-.011-.011-.011-.011Z" fill="#f6f5f5" stroke-width="0"/></g><g transform="translate(9.288 5.071)"><path d="M-0.278,-3.096c-.08-.051-.141-.111-.191-.192-.051-.081-.071-.171-.071-.262c0-.152.051-.273.151-.384.101-.11.233-.161.384-.161s.272.051.383.161c.111.111.162.232.162.384c0,.151-.051.272-.162.373s-.232.151-.383.151c-.101,0-.192-.02-.273-.07Z" stroke-width="0"/><path d="M-0.338,-1.785c0,0,.636,0,.636,0s0,5.88,0,5.88-.636,0-.636,0s0-5.88,0-5.88Z" stroke-width="0"/></g><g transform="translate(14.121 4.738)"><path d="M2.881,-4.478c0,0,0,8.915,0,8.915s-.625,0-.625,0s0-1.119,0-1.119-.02,0-.02,0c-.152.242-.343.454-.555.625-.212.172-.465.313-.757.404-.293.09-.596.141-.919.141-.393,0-.767-.071-1.12-.212s-.656-.343-.918-.595-.464-.565-.616-.938c-.151-.373-.232-.777-.232-1.21c0-.434.071-.827.212-1.2.141-.374.333-.696.585-.969.253-.272.545-.484.909-.645.363-.162.736-.232,1.15-.232.464,0,.888.111,1.282.323.393.211.706.514.948.887c0,0,.031,0,.031,0s0-4.185,0-4.185.635,0,.635,0s.01.01.01.01Z" stroke-width="0"/><path d="M0.893,3.711c.273-.111.505-.272.707-.474s.363-.444.484-.746c.121-.303.182-.615.182-.958s-.051-.656-.162-.958c-.111-.303-.262-.565-.454-.777-.191-.212-.424-.393-.696-.524-.272-.132-.575-.192-.888-.192s-.606.06-.878.171-.515.283-.727.484c-.212.202-.373.464-.494.777s-.182.646-.182,1.009c0,.433.091.837.283,1.19s.454.635.807.837.737.302,1.181.302c.293,0,.575-.06.848-.171c0,0-.011.03-.011.03Z" fill="#f6f5f5" stroke-width="0"/></g><g transform="translate(34.027 6.241)"><path d="M-1.231,2.753c-.373-.162-.696-.373-.949-.635-.252-.262-.454-.586-.595-.949s-.212-.755-.212-1.159c0-.403.071-.808.212-1.171s.343-.686.595-.958c.253-.272.576-.484.949-.645.373-.162.787-.231,1.231-.231.555,0,1.07.12,1.524.372s.807.606,1.07,1.06c.262.454.393.978.393,1.573s-.131,1.099-.393,1.552c-.263.454-.616.808-1.07,1.06-.454.253-.959.373-1.524.373-.444,0-.848-.08-1.231-.231c0,0,0-.011,0-.011Z" stroke-width="0"/><path d="M1.171,2.087c.353-.202.636-.483.847-.846.212-.363.313-.778.313-1.242c0-.353-.06-.676-.181-.978-.121-.303-.293-.554-.495-.766-.202-.211-.454-.374-.747-.485-.292-.111-.585-.17-.918-.17-.454,0-.868.11-1.221.321-.353.212-.636.506-.828.869-.191.363-.282.765-.282,1.209s.101.838.293,1.201c.191.363.464.656.827.868.363.211.767.321,1.221.321.434,0,.818-.1,1.181-.302c0,0-.01,0-.01,0Z" fill="#f6f5f5" stroke-width="0"/></g><g transform="translate(39.673 5.192)"><path d="M-0.671,3.6c-.222-.293-.333-.715-.333-1.28c0,0,0-3.631,0-3.631s-.777,0-.777,0s0-.595,0-.595.777,0,.777,0s0-2.058,0-2.058.636-.08.636-.08s0,2.138,0,2.138s2.149,0,2.149,0s0,.595,0,.595-2.149,0-2.149,0s0,3.47,0,3.47c0,.433.06.756.182.958.121.202.343.302.676.302.353,0,.726-.111,1.11-.332c0,0,.161.574.161.574-.414.253-.868.383-1.352.383-.515,0-.878-.14-1.1-.433c0,0,.02-.011.02-.011Z" stroke-width="0"/></g><g transform="translate(48.942 6.241)"><path d="M-1.231,2.753c-.373-.162-.696-.373-.949-.635-.252-.262-.454-.586-.595-.949s-.212-.755-.212-1.159c0-.403.071-.808.212-1.171s.343-.686.595-.958c.253-.272.576-.484.949-.645.373-.162.787-.231,1.231-.231.555,0,1.07.12,1.524.372s.807.606,1.07,1.06c.262.454.393.978.393,1.573s-.131,1.099-.393,1.552c-.263.454-.616.808-1.07,1.06-.454.253-.959.373-1.524.373-.444,0-.847-.08-1.231-.231c0,0,0-.011,0-.011Z" stroke-width="0"/><path d="M1.171,2.087c.353-.202.636-.483.847-.846.212-.363.313-.778.313-1.242c0-.353-.06-.676-.181-.978-.121-.303-.293-.554-.495-.766-.202-.211-.454-.374-.747-.485-.292-.111-.585-.17-.918-.17-.454,0-.868.11-1.221.321-.353.212-.636.506-.827.869-.192.363-.283.765-.283,1.209s.101.838.293,1.201c.191.363.464.656.827.868.363.211.767.321,1.221.321.434,0,.818-.1,1.181-.302c0,0-.01,0-.01,0Z" fill="#f6f5f5" stroke-width="0"/></g><g transform="translate(56.38 7.4)"><path d="M1.494,-3.762c.433.273.777.636,1.019,1.1s.363.978.363,1.543c0,.433-.081.836-.232,1.209s-.353.687-.616.939c-.262.252-.565.454-.918.595s-.727.212-1.12.212c-.484,0-.918-.101-1.292-.303-.373-.201-.686-.484-.918-.847c0,0-.02,0-.02,0s0,3.479,0,3.479-.636,0-.636,0s0-8.27,0-8.27.636,0,.636,0s0,1.16,0,1.16.02,0,.02,0c.242-.383.565-.686.959-.897.393-.212.817-.323,1.281-.323.545,0,1.04.131,1.474.403Z" stroke-width="0"/><path d="M1.14,0.917c.343-.202.616-.483.808-.836.191-.353.282-.756.282-1.19c0-.363-.06-.696-.181-1.009-.122-.312-.283-.565-.495-.777s-.454-.372-.727-.483c-.272-.111-.575-.172-.877-.172-.424,0-.798.111-1.141.333s-.595.514-.787.888c-.192.373-.283.786-.283,1.23c0,.272.041.534.112.777.07.242.181.464.322.645.142.182.303.352.485.493.181.141.383.243.605.314.222.07.454.111.687.111.444,0,.837-.101,1.18-.303c0,0,.01-.021.01-.021Z" fill="#f6f5f5" stroke-width="0"/></g><g transform="translate(63.161 6.251)"><path d="M2.684,0.132c0,0-4.732,0-4.732,0c.03.666.252,1.209.666,1.623.413.413.917.625,1.532.625.384,0,.738-.081,1.051-.232s.585-.373.797-.645c0,0,.454.393.454.393-.262.343-.586.615-.969.807-.384.191-.828.292-1.333.292-.403,0-.776-.07-1.129-.222-.353-.151-.656-.353-.908-.605s-.455-.575-.596-.948c-.142-.373-.221-.775-.221-1.219s.07-.837.211-1.21c.142-.374.343-.696.585-.948.242-.253.535-.464.878-.616.343-.151.697-.222,1.081-.222.524,0,.989.12,1.392.373.404.252.717.585.939,1.008.222.424.322.919.322,1.453c0,.172.001.283-.02.313c0,0,0-.02,0-.02Z" stroke-width="0"/><path d="M-0.888,-2.179c-.303.162-.555.384-.757.686-.202.303-.333.647-.383,1.03c0,0,4.087,0,4.087,0-.041-.383-.152-.726-.323-1.019-.172-.292-.394-.525-.676-.687-.283-.161-.607-.242-.97-.242s-.685.081-.988.242c0,0,.01-.01.01-.01Z" fill="#f6f5f5" stroke-width="0"/></g><g transform="translate(69.872 6.21)"><path d="M1.938,-2.39c.353.393.524,1.018.524,1.855c0,0,0,3.49,0,3.49s-.635,0-.635,0s0-3.409,0-3.409c0-.303-.031-.565-.081-.787-.051-.222-.121-.413-.212-.554-.091-.142-.202-.263-.323-.353-.121-.091-.262-.152-.404-.182-.141-.03-.302-.05-.474-.05-.646,0-1.171.222-1.564.665-.394.444-.596,1.029-.596,1.765c0,0,0,2.915,0,2.915s-.635,0-.635,0s0-5.88,0-5.88.635,0,.635,0s0,1.15,0,1.15.021,0,.021,0c.252-.383.575-.676.968-.888.394-.211.838-.312,1.312-.312.616,0,1.1.201,1.454.595c0,0,.01-.02.01-.02Z" stroke-width="0"/></g><g transform="translate(26.622 6.21)"><path d="M1.938,-2.39c.353.393.524,1.018.524,1.855c0,0,0,3.49,0,3.49s-.635,0-.635,0s0-3.409,0-3.409c0-.303-.031-.565-.081-.787-.051-.222-.121-.413-.212-.554-.091-.142-.202-.263-.323-.353-.121-.091-.262-.152-.404-.182-.141-.03-.302-.05-.474-.05-.646,0-1.171.222-1.564.665-.394.444-.596,1.029-.596,1.765c0,0,0,2.915,0,2.915s-.635,0-.635,0s0-5.88,0-5.88.635,0,.635,0s0,1.15,0,1.15.021,0,.021,0c.252-.383.575-.676.968-.888.394-.211.838-.312,1.312-.312.616,0,1.1.201,1.454.595c0,0,.01-.02.01-.02Z" stroke-width="0"/></g></g><g id="efjySJP1k6h32" transform="translate(421.294 187.139)" opacity="0"><path id="efjySJP1k6h33" d="M-29.856,-32.053c0,0,59.712,0,59.712,0s0,64.106,0,64.106" paint-order="stroke fill markers" fill="none" fill-rule="evenodd" stroke="#ea5027" stroke-width="1.333" stroke-linejoin="round" stroke-dasharray="0,0,0,123.82"/></g><g id="efjySJP1k6h34_to" transform="translate(318.583,105.583)"><g id="efjySJP1k6h34" transform="translate(72.25,48.25)" opacity="0"><path d="M0,5.154c2.846,0,5.157-2.31,5.157-5.154s-2.311-5.154-5.157-5.154-5.157,2.31-5.157,5.154s2.311,5.154,5.157,5.154Z" fill="#ea5027" stroke-width="0"/></g></g><g id="efjySJP1k6h36_ts" transform="translate(438.806,166.616) scale(0,0)"><g id="efjySJP1k6h36" transform="translate(0,0)" opacity="0"><g transform="translate(12.531 12.524)"><path d="M0,12.274C6.783,12.274,12.281,6.779,12.281,0s-5.498-12.274-12.281-12.274-12.281,5.495-12.281,12.274s5.498,12.274,12.281,12.274Z" fill="#fff" stroke-width="0"/></g><g transform="translate(12.526 12.529)"><path d="M-6.403,-4.695c0,0,12.806,0,12.806,0s0,9.39,0,9.39-12.806,0-12.806,0s0-8.402,0-8.402s6.408,4.176,6.408,4.176s5.692-4.307,5.692-4.307" paint-order="stroke fill markers" fill="none" fill-rule="evenodd" stroke="#4f4f4f" stroke-width="1.333" stroke-linecap="round" stroke-linejoin="round"/></g><g transform="translate(12.511 13.049)"><path d="M0,3.419C1.89,3.419,3.421,1.888,3.421,0c0-1.889-1.531-3.419-3.421-3.419-1.889,0-3.421,1.53-3.421,3.419c0,1.888,1.532,3.419,3.421,3.419Z" fill="#ea5027" stroke-width="0"/></g><g transform="translate(12.511 13.049)"><path d="M-1.645,1.623c0,0,3.29-3.246,3.29-3.246" paint-order="stroke fill markers" fill="none" fill-rule="evenodd" stroke="#fff" stroke-width="1.333" stroke-linecap="round" stroke-linejoin="round"/></g><g transform="translate(12.511 13.049)"><path d="M-1.665,-1.594c0,0,3.33,3.188,3.33,3.188" paint-order="stroke fill markers" fill="none" fill-rule="evenodd" stroke="#fff" stroke-width="1.333" stroke-linecap="round" stroke-linejoin="round"/></g></g></g><g id="efjySJP1k6h47_ts" transform="translate(392.819,237.676) scale(0,0)"><g id="efjySJP1k6h47" transform="translate(0,0)" opacity="0"><g transform="translate(87.721 45.246)"><path d="M78.941,-44.014c0,0-157.882,0-157.882,0-4.168,0-7.548,3.379-7.548,7.544c0,0,0,72.94,0,72.94c0,4.165,3.38,7.544,7.548,7.544c0,0,157.882,0,157.882,0c4.168,0,7.548-3.379,7.548-7.544c0,0,0-72.94,0-72.94c0-4.165-3.38-7.544-7.548-7.544Z" fill="#fff" stroke-width="0"/></g><g transform="translate(87.721 45.246)"><path d="M78.941,-44.014c0,0-157.882,0-157.882,0-4.168,0-7.548,3.379-7.548,7.544c0,0,0,72.94,0,72.94c0,4.165,3.38,7.544,7.548,7.544c0,0,157.882,0,157.882,0c4.168,0,7.548-3.379,7.548-7.544c0,0,0-72.94,0-72.94c0-4.165-3.38-7.544-7.548-7.544Z" paint-order="stroke fill markers" fill="none" fill-rule="evenodd" stroke="#d6d6d6" stroke-width="0.493" stroke-miterlimit="10"/></g><g transform="translate(153.331 24.929)"><path d="M-9.627,-3.818c0,0,5.187,0,5.187,0s0,1.019,0,1.019-4.097,0-4.097,0s0,2.39,0,2.39s3.814,0,3.814,0s0,1.019,0,1.019-3.814,0-3.814,0s0,2.572,0,2.572s4.299,0,4.299,0s0,1.019,0,1.019-5.389,0-5.389,0s0-8.029,0-8.029s0,.01,0,.01Z" fill="#767676" stroke-width="0"/><path d="M2.442,4.211c0,0-1.019,0-1.019,0s0-.767,0-.767-.02,0-.02,0c-.202.282-.464.504-.818.666-.343.161-.696.242-1.059.242-.414,0-.797-.071-1.13-.212s-.616-.343-.868-.605c-.232-.262-.414-.555-.545-.898s-.192-.716-.192-1.109c0-.394.061-.767.192-1.11.131-.353.313-.645.545-.897.242-.262.524-.454.868-.605.343-.142.716-.212,1.13-.212.383,0,.747.08,1.09.252.343.161.605.373.777.656c0,0,.02,0,.02,0s0-3.964,0-3.964s1.019,0,1.019,0s0,8.573,0,8.573.01-.01.01-.01Z" fill="#767676" stroke-width="0"/><path d="M-0.353,3.394c.272,0,.515-.041.737-.131.222-.101.403-.222.555-.384.151-.161.272-.363.353-.585.081-.232.121-.484.121-.756s-.04-.525-.121-.746c-.081-.232-.202-.434-.353-.585-.152-.162-.333-.293-.555-.384-.222-.101-.465-.151-.737-.151-.273,0-.515.05-.737.151-.222.091-.403.222-.555.384-.151.161-.272.353-.353.585-.081.221-.121.474-.121.746s.04.524.121.756c.081.222.202.424.353.585.152.162.333.283.555.384.222.09.464.131.737.131Z" transform="translate(-.08968 0)" fill="#fff" stroke-width="0"/><path d="M4.067,-1.165c0,0,1.019,0,1.019,0s0,5.376,0,5.376-1.019,0-1.019,0s0-5.376,0-5.376Z" fill="#767676" stroke-width="0"/><path d="M3.825,-3.091c0-.202.07-.374.212-.525.151-.151.333-.222.535-.222.201,0,.383.071.524.222.152.141.232.323.232.525c0,.201-.08.383-.232.534-.141.141-.323.212-.524.212-.202,0-.384-.071-.535-.212-.142-.151-.212-.333-.212-.534Z" fill="#767676" stroke-width="0"/><path d="M9.587,-0.288c0,0-1.463,0-1.463,0s0,2.441,0,2.441c0,.151,0,.303.01.454c0,.141.03.272.081.393.05.111.131.212.232.283.101.07.252.101.454.101.121,0,.242-.011.373-.031s.242-.06.353-.121c0,0,0,.928,0,.928-.121.071-.282.111-.474.131-.192.031-.333.041-.444.041-.394,0-.696-.051-.918-.162-.212-.111-.374-.252-.475-.433-.101-.172-.161-.364-.181-.575-.02-.222-.02-.434-.02-.656c0,0,0-2.804,0-2.804s-1.181,0-1.181,0s0-.887,0-.887s1.181,0,1.181,0s0-1.503,0-1.503s1.019,0,1.019,0s0,1.503,0,1.503s1.463,0,1.463,0s0,.887,0,.887-.01.01-.01.01Z" fill="#767676" stroke-width="0"/></g><g transform="translate(27.217 26.316)"><path d="M14.542,-0.001C14.542,8.028,8.033,14.534,0,14.534s-14.542-6.506-14.542-14.535c0-8.028,6.509-14.533,14.542-14.533s14.542,6.505,14.542,14.533Z" paint-order="stroke fill markers" fill="none" fill-rule="evenodd" stroke="#4f4f4f" stroke-width="1.333" stroke-linecap="round" stroke-linejoin="round"/></g><g transform="translate(28.206 23.446)"><path d="M-8.406,-2.365c0,0,7.417,6.495,7.417,6.495s9.395-8.26,9.395-8.26" paint-order="stroke fill markers" fill="none" fill-rule="evenodd" stroke="#4f4f4f" stroke-width="1.333" stroke-linecap="round" stroke-linejoin="round"/></g><g><path d="M27.217,11.792c0,0,0,3.116,0,3.116" paint-order="stroke fill markers" fill="none" fill-rule="evenodd" stroke="#4f4f4f" stroke-width="1.333" stroke-linecap="round" stroke-linejoin="round"/></g><g><path d="M27.217,37.056c0,0,0,3.127,0,3.127" paint-order="stroke fill markers" fill="none" fill-rule="evenodd" stroke="#4f4f4f" stroke-width="1.333" stroke-linecap="round" stroke-linejoin="round"/></g><g><path d="M41.426,25.982c0,0-3.128,0-3.128,0" paint-order="stroke fill markers" fill="none" fill-rule="evenodd" stroke="#4f4f4f" stroke-width="1.333" stroke-linecap="round" stroke-linejoin="round"/></g><g><path d="M16.137,25.982c0,0-3.129,0-3.129,0" paint-order="stroke fill markers" fill="none" fill-rule="evenodd" stroke="#4f4f4f" stroke-width="1.333" stroke-linecap="round" stroke-linejoin="round"/></g><g transform="translate(56.205 25.201)"><path d="M5.687,-4.302c0,0-2.766,8.604-2.766,8.604s-.706,0-.706,0-2.2-7.585-2.2-7.585-.01,0-.01,0-2.219,7.585-2.219,7.585-.707,0-.707,0-2.766-8.604-2.766-8.604.718,0,.718,0s2.39,7.475,2.39,7.475.021,0,.021,0s2.18-7.475,2.18-7.475.776,0,.776,0s2.16,7.495,2.16,7.495.021,0,.021,0s2.381-7.495,2.381-7.495.727,0,.727,0Z" stroke-width="0"/></g><g transform="translate(65.05 26.552)"><path d="M2.876,-2.939c0,0,0,5.88,0,5.88s-.605,0-.605,0s0-1.13,0-1.13-.021,0-.021,0c-.232.373-.544.666-.928.878-.383.212-.817.312-1.312.312-.393,0-.767-.07-1.12-.211-.353-.142-.656-.343-.918-.595-.263-.253-.465-.565-.616-.938-.151-.374-.232-.777-.232-1.211c0-.564.121-1.079.363-1.543s.575-.828,1.02-1.1c.444-.272.928-.404,1.473-.404.464,0,.888.111,1.282.323.393.212.706.515.948.888c0,0,.02,0,.02,0s0-1.149,0-1.149.636,0,.636,0s.01,0,.01,0Z" stroke-width="0"/><path d="M0.898,2.225c.273-.111.505-.272.707-.474.201-.202.363-.444.484-.747.121-.302.182-.615.182-.958c0-.454-.091-.858-.283-1.231s-.454-.666-.787-.888-.717-.333-1.14-.333c-.313,0-.606.061-.878.172-.273.111-.515.282-.727.484s-.373.465-.494.778c-.122.312-.182.645-.182,1.008c0,.434.091.837.282,1.19.192.353.455.636.808.837.353.202.736.303,1.181.303.292,0,.575-.06.847-.171c0,0,0,.03,0,.03Z" fill="#f6f5f5" stroke-width="0"/></g><g transform="translate(70.233 25.397)"><path d="M-0.277,-3.096c-.081-.051-.141-.111-.192-.192-.05-.08-.071-.171-.071-.262c0-.151.05-.272.151-.383s.233-.162.384-.162c.152,0,.273.051.384.162s.161.232.161.383-.05.272-.161.373-.232.152-.384.152c-.101,0-.191-.021-.272-.071Z" stroke-width="0"/><path d="M-0.328,-1.785c0,0,.636,0,.636,0s0,5.88,0,5.88-.636,0-.636,0s0-5.88,0-5.88Z" stroke-width="0"/></g><g transform="translate(73.674 25.519)"><path d="M-0.671,3.6c-.222-.292-.333-.715-.333-1.28c0,0,0-3.631,0-3.631s-.777,0-.777,0s0-.595,0-.595.777,0,.777,0s0-2.058,0-2.058.636-.08.636-.08s0,2.138,0,2.138s2.149,0,2.149,0s0,.595,0,.595-2.149,0-2.149,0s0,3.47,0,3.47c0,.434.061.756.182.958s.343.302.676.302c.353,0,.726-.11,1.11-.332c0,0,.16.574.16.574-.413.252-.867.383-1.351.383-.515,0-.878-.14-1.1-.433c0,0,.02-.011.02-.011Z" stroke-width="0"/></g><g transform="translate(82.645 25.383)"><path d="M1.095,-0.944c.333.121.625.293.868.505.242.211.444.505.595.838s.212.716.212,1.129c0,.515-.131.969-.384,1.382-.252.414-.595.716-1.029.938s-.908.333-1.433.333c-.575,0-1.1-.131-1.584-.383-.485-.253-.848-.606-1.11-1.039c0,0,.514-.363.514-.363.202.353.495.635.878.847.384.212.798.313,1.272.313.303,0,.595-.051.868-.152.272-.101.504-.242.706-.423.202-.182.353-.394.474-.646s.172-.514.172-.807c0-.312-.061-.605-.182-.857s-.282-.474-.474-.635c-.192-.162-.434-.294-.696-.385-.263-.09-.555-.131-.858-.131-.707,0-1.241.162-1.595.474c0,0-.423-.07-.423-.07s.232-4.105.232-4.105s4.309,0,4.309,0s0,.605,0,.605-3.704,0-3.704,0-.151,2.775-.151,2.775c.424-.202.908-.304,1.473-.304.384,0,.737.06,1.06.182c0,0-.01-.021-.01-.021Z" stroke-width="0"/></g><g transform="translate(92.868 25.065)"><path d="M2.882,-4.478c0,0,0,8.916,0,8.916s-.626,0-.626,0s0-1.12,0-1.12-.02,0-.02,0c-.151.242-.343.454-.555.625-.212.172-.464.313-.757.404s-.595.141-.918.141c-.394,0-.767-.071-1.121-.212-.353-.141-.655-.343-.918-.595-.262-.252-.464-.565-.615-.938-.152-.373-.234-.776-.234-1.21s.072-.827.213-1.2c.142-.373.333-.696.586-.968.252-.273.545-.485.908-.646s.737-.232,1.15-.232c.465,0,.888.111,1.282.323s.706.514.949.887c0,0,.03,0,.03,0s0-4.185,0-4.185.636,0,.636,0s.01.01.01.01Z" stroke-width="0"/><path d="M0.894,3.711c.272-.11.504-.272.706-.474.202-.201.363-.443.485-.746.121-.302.181-.615.181-.958s-.05-.656-.161-.958c-.111-.303-.263-.565-.454-.777-.192-.212-.424-.393-.697-.524-.272-.131-.575-.192-.888-.192s-.605.061-.878.172c-.272.111-.514.282-.726.484-.212.201-.374.464-.495.776-.121.313-.181.646-.181,1.009c0,.434.09.837.282,1.19s.454.635.807.837c.354.202.737.303,1.181.303.293,0,.575-.061.848-.172c0,0-.01.03-.01.03Z" fill="#f6f5f5" stroke-width="0"/></g><g transform="translate(100.179 26.552)"><path d="M2.876,-2.939c0,0,0,5.88,0,5.88s-.605,0-.605,0s0-1.13,0-1.13-.021,0-.021,0c-.232.373-.545.666-.928.878-.384.212-.817.312-1.312.312-.393,0-.767-.07-1.12-.211-.353-.142-.656-.343-.918-.595-.263-.253-.465-.565-.616-.938-.151-.374-.232-.777-.232-1.211c0-.564.121-1.079.363-1.543s.575-.828,1.019-1.1.929-.404,1.474-.404c.464,0,.888.111,1.281.323.394.212.707.515.949.888c0,0,.02,0,.02,0s0-1.149,0-1.149.636,0,.636,0s.01,0,.01,0Z" stroke-width="0"/><path d="M0.898,2.225c.273-.111.505-.272.707-.474.201-.202.363-.444.484-.747.121-.302.182-.615.182-.958c0-.454-.091-.858-.283-1.231s-.454-.666-.787-.888-.717-.333-1.14-.333c-.313,0-.606.061-.878.172-.273.111-.515.282-.727.484s-.373.465-.495.778c-.121.312-.181.645-.181,1.008c0,.434.091.837.282,1.19.192.353.455.636.808.837.353.202.736.303,1.18.303.293,0,.576-.06.848-.171c0,0,0,.03,0,.03Z" fill="#fff" stroke-width="0"/></g><g transform="translate(107.138 27.747)"><path d="M2.821,-4.135c0,0-3.421,8.27-3.421,8.27s-.698,0-.698,0s1.041-2.551,1.041-2.551-2.564-5.719-2.564-5.719.697,0,.697,0s2.18,4.942,2.18,4.942.029,0,.029,0s2.028-4.942,2.028-4.942.708,0,.708,0Z" stroke-width="0"/></g><g transform="translate(112.738 26.532)"><path d="M-2.154,2.194c0,0,.362-.505.362-.505.253.242.515.424.808.545.292.121.657.182,1.091.182s.756-.101,1.008-.293.364-.444.364-.736c0-.071-.001-.141-.021-.212s-.039-.121-.08-.181c-.04-.061-.082-.101-.122-.152-.04-.05-.101-.091-.182-.131-.08-.04-.151-.081-.201-.111-.051-.03-.142-.07-.253-.111-.111-.04-.2-.08-.271-.101-.071-.02-.173-.06-.314-.111-.071-.03-.131-.05-.172-.06-.211-.071-.402-.141-.543-.212-.142-.07-.304-.141-.466-.242-.161-.101-.292-.202-.383-.313s-.171-.242-.231-.403c-.061-.161-.092-.343-.092-.535c0-.433.171-.796.525-1.079.353-.282.787-.423,1.322-.423.736,0,1.393.242,1.948.716c0,0-.354.504-.354.504-.474-.413-1.029-.625-1.665-.625-.202,0-.382.03-.554.101-.172.07-.303.171-.414.312s-.162.303-.162.484c0,.091.01.172.04.242.03.071.051.142.081.192s.081.111.151.161c.071.051.131.101.182.132.05.03.131.07.232.121.101.05.192.08.252.1.061.021.163.061.284.101.03.01.05.02.06.02.626.222,1.029.384,1.2.464.404.202.666.464.787.777.061.171.091.363.091.575s-.04.423-.131.615-.211.363-.372.504c-.162.142-.375.263-.637.353-.263.091-.555.131-.878.131-.878,0-1.635-.282-2.261-.837c0,0-.029.041-.029.041Z" stroke-width="0"/></g><g transform="translate(48.294 54.233)"><path d="M-1.912,4.831c-.646-.273-1.222-.676-1.757-1.211c0,0,1.222-1.502,1.222-1.502.192.211.393.404.605.576.222.161.434.302.656.403s.435.182.657.232c.212.05.422.081.634.081.323,0,.597-.051.819-.142.222-.09.382-.221.493-.383.111-.161.162-.343.162-.565c0-.151-.02-.282-.071-.403-.05-.121-.111-.222-.192-.313-.08-.09-.2-.181-.362-.262-.161-.091-.324-.161-.495-.232-.172-.07-.393-.151-.665-.242-.253-.091-.476-.171-.667-.252-.192-.071-.404-.172-.626-.282-.222-.111-.424-.232-.585-.343-.162-.111-.333-.253-.495-.414-.161-.161-.293-.334-.394-.515-.1-.182-.181-.393-.252-.625-.07-.232-.091-.494-.091-.756c0-.545.142-1.039.434-1.483.293-.443.687-.796,1.191-1.048.505-.253,1.061-.384,1.666-.394c1.241-.01,2.391.414,3.45,1.291c0,0-1.169,1.532-1.169,1.532-.828-.676-1.565-1.007-2.241-1.007-.364,0-.656.09-.888.272-.233.181-.344.434-.354.756c0,.131.02.242.071.343.05.101.111.192.192.283.08.08.202.171.353.252.151.08.313.161.474.232.162.07.374.151.636.252.858.333,1.424.575,1.696.726.636.343,1.07.777,1.272,1.291.131.323.202.686.202,1.109c0,.424-.072.827-.223,1.191-.142.363-.343.655-.576.897-.232.242-.514.444-.837.605-.313.172-.646.283-.979.363-.333.081-.675.111-1.018.111-.676,0-1.342-.131-1.988-.403c0,0,.04-.021.04-.021Z" fill="#ea5027" stroke-width="0"/></g><g transform="translate(56.639 55.806)"><path d="M3.426,0.625c0,0-4.944,0-4.944,0c.111.424.333.747.646.989s.706.363,1.15.363c.686,0,1.241-.262,1.685-.797c0,0,1.232,1.14,1.232,1.14-.323.403-.737.726-1.252.968-.514.242-1.111.363-1.797.363s-1.301-.151-1.856-.444c-.555-.292-.979-.726-1.302-1.291s-.474-1.2-.474-1.916c0-.524.091-1.019.272-1.473.182-.453.423-.837.726-1.159.313-.313.677-.565,1.111-.747.434-.181.898-.272,1.393-.272.686,0,1.28.151,1.815.464.525.302.93.736,1.222,1.271.293.534.433,1.16.433,1.845c0,.333-.019.555-.049.676c0,0-.011.02-.011.02Z" fill="#ea5027" stroke-width="0"/><path d="M-0.923,-1.644c-.282.212-.474.514-.585.918c0,0,3.108,0,3.108,0-.101-.383-.273-.686-.536-.908-.262-.222-.584-.333-.988-.333-.403,0-.726.101-1.009.313c0,0,.01.01.01.01Z" fill="#fff" stroke-width="0"/></g><g transform="translate(64.995 55.771)"><path d="M1.842,-3.424c.303.111.575.282.807.514s.413.545.534.928c.122.383.182.847.182,1.382c0,0,0,4.185,0,4.185s-1.886,0-1.886,0s0-3.711,0-3.711c0-.646-.112-1.099-.334-1.371-.222-.262-.565-.394-1.019-.394-.495,0-.878.171-1.171.504s-.434.808-.434,1.423c0,0,0,3.549,0,3.549s-1.886,0-1.886,0s0-7.049,0-7.049s1.886,0,1.886,0s0,.907,0,.907.02,0,.02,0c.283-.333.626-.585,1.02-.767.393-.171.808-.261,1.242-.261.393,0,.737.05,1.039.161Z" fill="#ea5027" stroke-width="0"/></g><g transform="translate(73.462 54.087)"><path d="M3.689,-5.37c0,0,0,10.63,0,10.63s-1.797,0-1.797,0s0-.858,0-.858-.04,0-.04,0c-.514.645-1.231.968-2.159.968-.273,0-.546-.03-.809-.08-.262-.06-.503-.141-.725-.252s-.434-.242-.626-.403c-.192-.152-.364-.334-.515-.546-.152-.212-.283-.434-.384-.666-.101-.242-.182-.504-.242-.786-.061-.283-.081-.575-.081-.888c0-.524.082-1.018.253-1.472.172-.453.403-.848.696-1.16.292-.323.646-.574,1.059-.756.414-.181.849-.272,1.313-.272.888,0,1.595.302,2.13.918c0,0,.039,0,.039,0s0-4.377,0-4.377s1.888,0,1.888,0Z" fill="#ea5027" stroke-width="0"/><path d="M0.974,3.453c.283-.161.504-.382.676-.674.171-.293.252-.636.252-1.009c0-.565-.171-1.03-.524-1.413-.353-.373-.797-.565-1.332-.565s-.949.182-1.292.545-.514.838-.514,1.433.17,1.028.503,1.391c.333.353.768.536,1.303.536.343,0,.655-.082.937-.233c0,0-.009-.011-.009-.011Z" fill="#fff" stroke-width="0"/></g><g transform="translate(94.548 55.815)"><path d="M3.663,-3.519c0,0,0,7.049,0,7.049s-1.796,0-1.796,0s0-.857,0-.857-.041,0-.041,0c-.504.646-1.211.968-2.109.968-.484,0-.938-.09-1.352-.262-.414-.171-.777-.413-1.07-.726s-.535-.696-.706-1.15c-.172-.454-.252-.948-.252-1.482c0-.535.08-1.019.252-1.473.171-.454.403-.847.696-1.16.293-.323.646-.575,1.06-.756.413-.182.847-.273,1.312-.273.857,0,1.554.303,2.078.918c0,0,.031,0,.031,0s0-.796,0-.796s1.887,0,1.887,0s.01,0,.01,0Z" fill="#ea5027" stroke-width="0"/><path d="M1.333,1.423c.343-.353.513-.817.513-1.392s-.171-1.029-.504-1.412c-.333-.373-.757-.565-1.272-.565-.514,0-.948.181-1.291.545-.344.363-.515.837-.515,1.432s.171,1.028.504,1.392c.333.353.767.534,1.302.534.505,0,.929-.181,1.272-.534c0,0-.009,0-.009,0Z" fill="#fff" stroke-width="0"/></g><g transform="translate(101.093 54.031)"><path d="M-0.943,-5.315c0,0,1.886,0,1.886,0s0,10.63,0,10.63-1.886,0-1.886,0s0-10.63,0-10.63Z" fill="#ea5027" stroke-width="0"/></g><g transform="translate(107.127 55.806)"><path d="M3.426,0.625c0,0-4.945,0-4.945,0c.111.424.333.747.646.989s.706.363,1.15.363c.687,0,1.242-.262,1.686-.797c0,0,1.231,1.14,1.231,1.14-.323.403-.737.726-1.251.968-.515.242-1.111.363-1.797.363s-1.302-.151-1.857-.444c-.555-.292-.978-.726-1.301-1.291s-.475-1.2-.475-1.916c0-.524.091-1.019.273-1.473.181-.453.424-.837.726-1.159.313-.313.676-.565,1.11-.747.434-.181.899-.272,1.393-.272.686,0,1.282.151,1.817.464.524.302.928.736,1.221,1.271.292.534.434,1.16.434,1.845c0,.333-.021.555-.051.676c0,0-.01.02-.01.02Z" fill="#ea5027" stroke-width="0"/><path d="M-0.923,-1.644c-.283.212-.475.514-.586.918c0,0,3.108,0,3.108,0-.1-.383-.272-.686-.534-.908-.263-.222-.586-.333-.989-.333-.404,0-.727.101-1.01.313c0,0,.011.01.011.01Z" fill="#fff" stroke-width="0"/></g><g transform="translate(119.282 55.816)"><path d="M-1.251,3.469c-.394-.121-.737-.282-1.04-.504-.302-.212-.565-.474-.787-.777-.222-.302-.393-.635-.504-1.008s-.172-.767-.172-1.18c0-.525.091-1.009.272-1.463.182-.454.434-.837.757-1.16.323-.322.727-.574,1.191-.756.464-.181.979-.272,1.534-.272s1.039.091,1.514.272c.464.182.868.424,1.191.746.322.323.585.706.767,1.16.181.454.282.948.282,1.483c0,.706-.161,1.341-.484,1.896s-.767.978-1.332,1.291c-.566.302-1.221.454-1.938.454-.444,0-.858-.061-1.251-.172c0,0,0-.01,0-.01Z" fill="#ea5027" stroke-width="0"/><path d="M1.302,1.412c.353-.363.525-.827.525-1.392s-.172-1.039-.525-1.402c-.343-.363-.787-.545-1.312-.545s-.989.182-1.332.555-.515.837-.515,1.402.172,1.009.515,1.382.787.565,1.322.565.948-.182,1.302-.545c0,0,.02-.02.02-.02Z" fill="#fff" stroke-width="0"/></g><g transform="translate(126.417 53.965)"><path d="M-1.644,-0.106c0,0-.747,0-.747,0s0-1.563,0-1.563.747,0,.747,0s0-1.21,0-1.21c0-.545.09-.999.261-1.372.172-.373.435-.656.758-.837.333-.182.726-.283,1.19-.283.383,0,.738.051,1.05.152.313.101.575.222.776.353c0,0-.383,1.482-.383,1.482-.424-.212-.777-.312-1.06-.312-.474,0-.716.312-.716.948c0,0,0,1.069,0,1.069s1.575,0,1.575,0s0,1.563,0,1.563-1.575,0-1.575,0s0,5.487,0,5.487-1.886,0-1.886,0s0-5.487,0-5.487.01.01.01.01Z" fill="#ea5027" stroke-width="0"/></g><g transform="translate(131.442 53.965)"><path d="M-1.645,-0.106c0,0-.747,0-.747,0s0-1.563,0-1.563.747,0,.747,0s0-1.21,0-1.21c0-.545.091-.999.263-1.372.171-.373.434-.656.756-.837.333-.182.727-.283,1.191-.283.384,0,.737.051,1.05.152s.575.222.777.353c0,0-.384,1.482-.384,1.482-.424-.212-.777-.312-1.059-.312-.475,0-.717.312-.717.948c0,0,0,1.069,0,1.069s1.575,0,1.575,0s0,1.563,0,1.563-1.575,0-1.575,0s0,5.487,0,5.487-1.887,0-1.887,0s0-5.487,0-5.487.01.01.01.01Z" fill="#ea5027" stroke-width="0"/></g><g transform="translate(137.422 55.806)"><path d="M3.427,0.625c0,0-4.945,0-4.945,0c.111.424.333.747.646.989s.706.363,1.15.363c.687,0,1.242-.262,1.686-.797c0,0,1.231,1.14,1.231,1.14-.323.403-.737.726-1.252.968-.514.242-1.111.363-1.797.363s-1.302-.151-1.857-.444c-.555-.292-.979-.726-1.302-1.291-.322-.565-.474-1.2-.474-1.916c0-.524.091-1.019.273-1.473.181-.453.425-.837.727-1.159.313-.313.675-.565,1.109-.747.434-.181.899-.272,1.394-.272.686,0,1.281.151,1.815.464.525.302.929.736,1.221,1.271.293.534.435,1.16.435,1.845c0,.333-.02.555-.05.676c0,0-.01.02-.01.02Z" fill="#ea5027" stroke-width="0"/><path d="M-0.933,-1.644c-.282.212-.474.514-.585.918c0,0,3.107,0,3.107,0-.101-.383-.271-.686-.534-.908-.262-.222-.586-.333-.99-.333-.403,0-.725.101-1.008.313c0,0,.01.01.01.01Z" fill="#fff" stroke-width="0"/></g><g transform="translate(144.496 55.751)"><path d="M2.094,-3.566c0,0,0,2.067,0,2.067-.192-.01-.353-.019-.505-.019-.565,0-1.009.172-1.322.515-.312.343-.474.786-.474,1.321c0,0,0,3.267,0,3.267s-1.887,0-1.887,0s0-7.049,0-7.049s1.887,0,1.887,0s0,1.039,0,1.039.02,0,.02,0c.273-.374.586-.656.949-.858.363-.201.757-.302,1.181-.302c0,0,.151,0,.151,0s0,.019,0,.019Z" fill="#ea5027" stroke-width="0"/></g><text dx="0" dy="0" font-family="&quot;Averta-Bold&quot;" font-size="12" font-weight="400" transform="translate(82.797061 59.302192)" fill="#ea5027" stroke-width="0"><tspan y="0" font-weight="400" stroke-width="0"><![CDATA[
S
]]></tspan></text></g></g><g id="efjySJP1k6h125_ts" transform="translate(160.498,237.113) scale(0,0)"><g id="efjySJP1k6h125" transform="translate(0,0)" opacity="0" mask="url(#efjySJP1k6h229)"><g transform="translate(114.17 56.102)"><path d="M105.255,-54.735c0,0-210.51,0-210.51,0-4.168,0-7.548,3.379-7.548,7.544c0,0,0,94.382,0,94.382c0,4.165,3.38,7.544,7.548,7.544c0,0,210.51,0,210.51,0c4.167,0,7.548-3.379,7.548-7.544c0,0,0-94.382,0-94.382c0-4.165-3.381-7.544-7.548-7.544Z" fill="#fff" stroke-width="0"/></g><g transform="translate(114.17 56.102)"><path d="M105.255,-54.735c0,0-210.51,0-210.51,0-4.168,0-7.548,3.379-7.548,7.544c0,0,0,94.382,0,94.382c0,4.165,3.38,7.544,7.548,7.544c0,0,210.51,0,210.51,0c4.167,0,7.548-3.379,7.548-7.544c0,0,0-94.382,0-94.382c0-4.165-3.381-7.544-7.548-7.544Z" paint-order="stroke fill markers" fill="none" fill-rule="evenodd" stroke="#d6d6d6" stroke-width="0.547" stroke-miterlimit="10"/></g><g transform="translate(79.663 27.731)"><path d="M-28.382,-5.113c0,0,.777,0,.777,0s1.998,7.11,1.998,7.11.02,0,.02,0s2.028-7.11,2.028-7.11.949,0,.949,0s2.029,7.11,2.029,7.11.02,0,.02,0s1.998-7.11,1.998-7.11.767,0,.767,0-2.341,8.028-2.341,8.028-.919,0-.919,0-2.028-7.141-2.028-7.141-.02,0-.02,0-2.029,7.141-2.029,7.141-.918,0-.918,0-2.342-8.028-2.342-8.028.011,0,.011,0Z" stroke-width="0"/><path d="M-13.164,0.716c0,0,0,.686,0,.686c0,.202.019.394.019.565c0,.172.021.333.021.484.02.151.03.303.061.454c0,0-.636,0-.636,0-.04-.252-.071-.545-.071-.847c0,0-.02,0-.02,0-.192.343-.444.585-.737.746-.282.162-.657.242-1.101.242-.222,0-.453-.03-.665-.091-.222-.05-.413-.141-.585-.262-.171-.131-.323-.292-.434-.484-.111-.191-.161-.434-.161-.716c0-.403.101-.716.302-.948.202-.232.455-.403.747-.524.303-.121.616-.192.949-.222.343-.041.636-.061.898-.061c0,0,.796,0,.796,0s0-.323,0-.323c0-.453-.14-.776-.423-.978-.282-.192-.635-.292-1.059-.292-.606,0-1.141.201-1.595.595c0,0-.393-.464-.393-.464.252-.242.564-.424.927-.545.374-.131.728-.192,1.071-.192.636,0,1.14.152,1.524.454.373.293.565.777.565,1.443c0,0,0,1.28,0,1.28Z" stroke-width="0"/><path d="M-14.527,0.283c-.282,0-.566.02-.838.06-.263.041-.504.101-.726.192-.212.091-.383.212-.514.363-.132.151-.193.343-.193.565c0,.161.03.302.101.433.07.122.172.222.283.303.111.071.243.131.374.182.141.04.292.06.434.06.363,0,.666-.05.898-.161.232-.101.424-.242.555-.404.141-.171.242-.363.292-.575.051-.221.08-.433.08-.655c0,0,0-.353,0-.353s-.746,0-.746,0s0-.01,0-.01Z" fill="#fff" stroke-width="0"/><path d="M-11.247,-2.319c0,0,.686,0,.686,0s0,5.234,0,5.234-.686,0-.686,0s0-5.234,0-5.234Z" stroke-width="0"/><path d="M-11.418,-4.397c0-.141.049-.262.15-.363s.223-.151.364-.151c.142,0,.263.05.364.151.1.101.151.222.151.363s-.051.262-.151.363c-.101.101-.222.151-.364.151-.141,0-.263-.05-.364-.151s-.15-.222-.15-.363Z" stroke-width="0"/><path d="M-6.07,-1.714c0,0-1.493,0-1.493,0s0,3.409,0,3.409c0,.232.06.413.191.544.132.132.303.192.535.192.131,0,.263-.02.384-.05.141-.041.262-.081.383-.131c0,0,.061.615.061.615-.132.04-.273.09-.444.121-.162.04-.313.06-.444.06-.243,0-.454-.04-.626-.111-.172-.07-.313-.161-.424-.282s-.182-.262-.242-.424c-.051-.171-.071-.343-.071-.534c0,0,0-3.409,0-3.409s-1.13,0-1.13,0s0-.615,0-.615s1.13,0,1.13,0s0-1.503,0-1.503.686,0,.686,0s0,1.503,0,1.503s1.494,0,1.494,0s0,.615,0,.615.01,0,.01,0Z" stroke-width="0"/><path d="M-1.62,1.241c.152.383.353.686.615.898.262.201.627.302,1.081.302.293,0,.555-.05.787-.141.222-.091.414-.212.555-.373.151-.162.261-.343.342-.555.071-.212.112-.434.112-.686c0-.292-.06-.544-.192-.756-.121-.212-.282-.383-.484-.515-.202-.131-.424-.232-.676-.292-.252-.061-.506-.091-.758-.091c0,0-.293,0-.293,0s0-.676,0-.676.343,0,.343,0c.212,0,.425-.03.637-.08.222-.061.413-.152.574-.273.172-.121.314-.272.425-.464.101-.191.161-.433.161-.706c0-.433-.141-.786-.403-1.059-.262-.282-.626-.423-1.08-.423-.333,0-.635.091-.898.262-.262.161-.474.393-.626.676c0,0-.646-.363-.646-.363.222-.414.515-.716.899-.908.383-.192.807-.282,1.271-.282.303,0,.586.04.858.131.273.08.515.212.717.383.201.161.362.373.473.635.121.263.183.555.183.908c0,.444-.122.827-.364,1.17-.242.333-.595.565-1.069.696c0,0,0,.02,0,.02.252.041.484.131.696.262.212.121.393.273.545.454.151.182.272.384.353.615.081.232.121.475.121.727c0,.312-.05.615-.161.897-.101.283-.254.525-.466.737-.201.201-.464.363-.767.484-.312.121-.675.181-1.088.181-.606,0-1.121-.121-1.544-.373-.414-.262-.727-.656-.939-1.2c0,0,.737-.242.737-.242s-.031.02-.031.02Z" stroke-width="0"/><path d="M11.51,1.997c0,0-.021,0-.021,0-.111.182-.242.343-.393.474-.162.132-.333.242-.525.333-.182.081-.374.141-.576.182-.202.05-.404.07-.606.07-.403,0-.767-.07-1.11-.201-.343-.142-.634-.323-.877-.565-.242-.252-.434-.545-.565-.878-.131-.343-.202-.706-.202-1.109s.071-.767.202-1.099c.141-.343.323-.636.565-.878.243-.252.534-.444.877-.575.343-.141.707-.201,1.11-.201.202,0,.394.02.606.07.202.041.394.101.576.192.192.08.363.191.525.333.161.131.292.282.393.464c0,0,.021,0,.021,0s0-4.247,0-4.247.676,0,.676,0s0,8.573,0,8.573-.676,0-.676,0s0-.917,0-.917s0-.021,0-.021Z" stroke-width="0"/><path d="M11.579,0.293c0-.293-.06-.575-.171-.827-.111-.262-.273-.494-.465-.676-.201-.202-.423-.353-.686-.464-.262-.111-.555-.171-.868-.171-.312,0-.605.06-.857.171-.253.111-.474.272-.655.464-.182.192-.324.414-.425.676-.091.262-.131.534-.131.827c0,.292.04.575.131.837.101.252.243.484.425.676.181.191.402.343.655.454.262.111.545.171.857.171.313,0,.596-.06.868-.171.263-.111.495-.263.686-.454.202-.202.354-.424.465-.676.111-.262.171-.545.171-.837Z" fill="#fff" stroke-width="0"/><path d="M17.937,0.716c0,0,0,.686,0,.686c0,.202.011.394.021.565c0,.172.009.333.019.484.02.151.031.303.061.454c0,0-.636,0-.636,0-.04-.252-.071-.545-.071-.847c0,0-.019,0-.019,0-.202.343-.445.585-.737.746-.293.162-.655.242-1.099.242-.233,0-.456-.03-.668-.091-.222-.05-.413-.141-.585-.262-.171-.131-.322-.292-.433-.484-.101-.191-.162-.434-.162-.716c0-.403.102-.716.304-.948.201-.232.454-.403.746-.524.303-.121.616-.192.949-.222.343-.041.635-.061.897-.061c0,0,.797,0,.797,0s0-.323,0-.323c0-.453-.14-.776-.423-.978-.282-.192-.636-.292-1.05-.292-.606,0-1.14.201-1.605.595c0,0-.392-.464-.392-.464.252-.242.554-.424.927-.545.374-.131.727-.192,1.07-.192.636,0,1.14.152,1.524.454.373.293.565.777.565,1.443c0,0,0,1.28,0,1.28Z" stroke-width="0"/><path d="M16.575,0.283c-.293,0-.565.02-.837.06-.262.041-.506.101-.728.192-.212.091-.382.212-.513.363-.132.151-.193.343-.193.565c0,.161.031.302.102.433.07.122.17.222.281.303.111.071.244.131.375.182.141.04.281.06.433.06.363,0,.667-.05.899-.161.232-.101.424-.242.555-.404.141-.171.242-.363.293-.575.05-.221.079-.433.079-.655c0,0,0-.353,0-.353s-.746,0-.746,0s0-.01,0-.01Z" fill="#fff" stroke-width="0"/><path d="M21.217,4.539c-.132.343-.302.605-.534.807-.222.191-.526.292-.909.292-.111,0-.233-.01-.344-.03-.111-.01-.222-.04-.333-.071c0,0,.072-.635.072-.635.101.03.202.061.293.081.111.03.212.04.323.04.121,0,.231-.03.322-.081.1-.05.181-.121.252-.201.07-.081.122-.182.172-.283.051-.101.1-.201.131-.302c0,0,.474-1.211.474-1.211s-2.129-5.264-2.129-5.264.757,0,.757,0s1.735,4.407,1.735,4.407s1.685-4.407,1.685-4.407.727,0,.727,0-2.703,6.858-2.703,6.858.009,0,.009,0Z" stroke-width="0"/><path d="M25.002,1.574c.141.282.352.494.635.645.282.141.575.212.888.212.141,0,.282-.02.434-.071.141-.04.272-.111.383-.191.111-.081.202-.182.273-.293.07-.121.111-.252.111-.403c0-.242-.08-.424-.242-.545-.151-.121-.343-.212-.565-.282-.222-.071-.474-.121-.746-.172-.273-.05-.526-.131-.748-.232-.232-.1-.423-.252-.574-.433-.152-.182-.233-.434-.233-.767c0-.252.05-.484.161-.665.101-.192.242-.343.404-.464.171-.131.363-.222.575-.283.212-.06.424-.091.646-.091.434,0,.797.081,1.11.243.313.161.566.403.737.746c0,0-.616.363-.616.363-.131-.242-.293-.424-.485-.545-.191-.131-.444-.191-.746-.191-.121,0-.253.02-.384.06-.131.041-.242.091-.353.162-.111.07-.202.151-.272.262-.071.101-.1.222-.1.363c0,.232.079.403.221.524.161.111.354.202.576.273.222.06.473.111.746.161.272.04.524.121.746.232.232.101.414.242.565.444.162.191.244.464.244.817c0,.272-.052.514-.163.716-.101.191-.241.363-.423.494-.171.131-.374.242-.606.303-.222.07-.464.1-.717.1-.454,0-.866-.09-1.25-.262-.373-.171-.656-.444-.858-.807c0,0,.605-.403.605-.403s.021-.02.021-.02Z" stroke-width="0"/></g><g transform="translate(206.104 26.435)"><path d="M-9.627,-3.818c0,0,5.187,0,5.187,0s0,1.019,0,1.019-4.097,0-4.097,0s0,2.39,0,2.39s3.814,0,3.814,0s0,1.019,0,1.019-3.814,0-3.814,0s0,2.572,0,2.572s4.299,0,4.299,0s0,1.018,0,1.018-5.389,0-5.389,0s0-8.028,0-8.028s0,.01,0,.01Z" fill="#767676" stroke-width="0"/><path d="M2.432,4.21c0,0-1.019,0-1.019,0s0-.766,0-.766-.02,0-.02,0c-.202.282-.465.514-.818.666-.343.161-.696.242-1.059.242-.414,0-.798-.071-1.131-.212s-.625-.343-.868-.605c-.232-.262-.413-.555-.544-.898-.132-.343-.192-.706-.192-1.109c0-.404.06-.767.192-1.11.131-.353.312-.645.544-.897.243-.263.525-.454.868-.605.343-.142.717-.212,1.131-.212.383,0,.746.08,1.089.252.344.161.606.383.778.655c0,0,.02,0,.02,0s0-3.963,0-3.963s1.019,0,1.019,0s0,8.573,0,8.573.01-.011.01-.011Z" fill="#767676" stroke-width="0"/><path d="M-0.363,3.394c.272,0,.514-.051.736-.142.222-.101.404-.232.555-.383.152-.171.273-.363.354-.585.08-.232.121-.484.121-.756c0-.273-.041-.525-.121-.747-.081-.232-.202-.433-.354-.585-.151-.171-.333-.292-.555-.383-.222-.101-.464-.151-.736-.151-.273,0-.515.05-.737.151-.222.091-.404.222-.555.383-.151.162-.272.353-.353.585-.081.222-.121.474-.121.747c0,.272.04.524.121.756.081.222.202.424.353.585s.333.293.555.383c.222.091.464.142.737.142Z" fill="#fff" stroke-width="0"/><path d="M4.057,-1.165c0,0,1.019,0,1.019,0s0,5.375,0,5.375-1.019,0-1.019,0s0-5.375,0-5.375Z" fill="#767676" stroke-width="0"/><path d="M3.815,-3.092c0-.201.07-.383.212-.524.151-.151.333-.232.534-.232.202,0,.384.071.525.232.151.141.232.313.232.524c0,.212-.081.384-.232.535-.141.141-.313.212-.525.212s-.383-.071-.534-.212c-.142-.151-.212-.333-.212-.535Z" fill="#767676" stroke-width="0"/><path d="M9.587,-0.278c0,0-1.463,0-1.463,0s0,2.441,0,2.441c0,.151,0,.303.01.454c0,.141.03.272.081.393.05.111.131.212.232.283.111.07.252.101.454.101.121,0,.242-.011.373-.031s.242-.06.353-.121c0,0,0,.928,0,.928-.121.071-.282.111-.474.131-.192.031-.333.051-.444.051-.394,0-.696-.051-.918-.162-.212-.111-.374-.252-.475-.433-.101-.172-.161-.363-.181-.575-.01-.222-.02-.434-.02-.656c0,0,0-2.804,0-2.804s-1.181,0-1.181,0s0-.887,0-.887s1.181,0,1.181,0s0-1.503,0-1.503s1.019,0,1.019,0s0,1.503,0,1.503s1.463,0,1.463,0s0,.887,0,.887-.01,0-.01,0Z" fill="#767676" stroke-width="0"/></g><g transform="translate(35.043 39.178)"><path d="M-0.001,10.207C5.641,10.207,10.213,5.638,10.213,0s-4.572-10.207-10.214-10.207c-5.641,0-10.212,4.569-10.212,10.207s4.571,10.207,10.212,10.207Z" paint-order="stroke fill markers" fill="none" fill-rule="evenodd" stroke="#4f4f4f" stroke-width="1.333" stroke-linecap="round" stroke-linejoin="round"/></g><g transform="translate(35.799 37.106)"><path d="M5.813,-2.961c0,0-6.57,5.922-6.57,5.922s-5.056-3.954-5.056-3.954" paint-order="stroke fill markers" fill="none" fill-rule="evenodd" stroke="#4f4f4f" stroke-width="1.333" stroke-linecap="round" stroke-linejoin="round"/></g><g><path d="M35.043,28.962c0,0,0,2.199,0,2.199" paint-order="stroke fill markers" fill="none" fill-rule="evenodd" stroke="#4f4f4f" stroke-width="1.333" stroke-linecap="round" stroke-linejoin="round"/></g><g><path d="M35.043,46.722c0,0,0,2.199,0,2.199" paint-order="stroke fill markers" fill="none" fill-rule="evenodd" stroke="#4f4f4f" stroke-width="1.333" stroke-linecap="round" stroke-linejoin="round"/></g><g><path d="M25.062,38.946c0,0,2.2,0,2.2,0" paint-order="stroke fill markers" fill="none" fill-rule="evenodd" stroke="#4f4f4f" stroke-width="1.333" stroke-linecap="round" stroke-linejoin="round"/></g><g><path d="M42.833,38.946c0,0,2.2,0,2.2,0" paint-order="stroke fill markers" fill="none" fill-rule="evenodd" stroke="#4f4f4f" stroke-width="1.333" stroke-linecap="round" stroke-linejoin="round"/></g><g transform="translate(34.417 20.383)"><path d="M1.676,4.947c0,0,0-9.894,0-9.894s-3.352,0-3.352,0" paint-order="stroke fill markers" fill="none" fill-rule="evenodd" stroke="#4f4f4f" stroke-width="1.333" stroke-linecap="round" stroke-linejoin="round"/></g><g transform="translate(19.739 24.977)"><path d="M0.086,-9.541c0,0-2.836,0-2.836,0s0,19.082,0,19.082s5.5,0,5.5,0" paint-order="stroke fill markers" fill="none" fill-rule="evenodd" stroke="#4f4f4f" stroke-width="1.333" stroke-linecap="round" stroke-linejoin="round"/></g><g><path d="M30.259,15.436c0,0-7.771,0-7.771,0" paint-order="stroke fill markers" fill="none" fill-rule="evenodd" stroke="#4f4f4f" stroke-width="1.333" stroke-linecap="round" stroke-linejoin="round"/></g><g><path d="M31.49,13.541c0,0,0,3.378,0,3.378" paint-order="stroke fill markers" fill="none" fill-rule="evenodd" stroke="#4f4f4f" stroke-width="1.333" stroke-linecap="round" stroke-linejoin="round"/></g><g><path d="M21.187,13.52c0,0,0,3.38,0,3.38" paint-order="stroke fill markers" fill="none" fill-rule="evenodd" stroke="#4f4f4f" stroke-width="1.333" stroke-linecap="round" stroke-linejoin="round"/></g><g transform="translate(29.573 25.482)"><path d="M-1.534,1.533c0,0,3.068,0,3.068,0s0-3.066,0-3.066-3.068,0-3.068,0s0,3.066,0,3.066Z" paint-order="stroke fill markers" fill="none" fill-rule="evenodd" stroke="#4f4f4f" stroke-width="1.333" stroke-linecap="round" stroke-linejoin="round"/></g><g transform="translate(23.347 25.482)"><path d="M-1.534,1.533c0,0,3.068,0,3.068,0s0-3.066,0-3.066-3.068,0-3.068,0s0,3.066,0,3.066Z" paint-order="stroke fill markers" fill="none" fill-rule="evenodd" stroke="#4f4f4f" stroke-width="1.333" stroke-linecap="round" stroke-linejoin="round"/></g><g transform="translate(23.347 30.152)"><path d="M-1.534,1.533c0,0,3.068,0,3.068,0s0-3.066,0-3.066-3.068,0-3.068,0s0,3.066,0,3.066Z" paint-order="stroke fill markers" fill="none" fill-rule="evenodd" stroke="#4f4f4f" stroke-width="1.333" stroke-linecap="round" stroke-linejoin="round"/></g><g><path d="M19.007,21.528c0,0,16.419,0,16.419,0" paint-order="stroke fill markers" fill="none" fill-rule="evenodd" stroke="#4f4f4f" stroke-width="1.333" stroke-linecap="round" stroke-linejoin="round"/></g><g transform="translate(107.061 55.305)"><path d="M-49.857,5.628c-.706,0-1.403-.141-2.069-.424-.677-.282-1.281-.706-1.836-1.261c0,0,1.149-1.422,1.149-1.422.374.454.818.817,1.302,1.059.485.242.98.363,1.454.363.576,0,1.02-.11,1.332-.353.303-.232.455-.554.455-.968c0-.131-.022-.252-.052-.363s-.071-.202-.121-.292c-.05-.091-.121-.172-.222-.263-.101-.08-.202-.151-.293-.211-.101-.061-.231-.121-.392-.192-.162-.071-.324-.131-.455-.192-.142-.05-.323-.121-.545-.201-.263-.091-.504-.182-.696-.263-.201-.07-.424-.181-.657-.292-.232-.121-.444-.232-.615-.353-.172-.121-.343-.262-.515-.424-.181-.161-.313-.343-.414-.524-.1-.182-.191-.393-.262-.636-.071-.231-.101-.494-.101-.766c0-.545.152-1.059.454-1.523.303-.454.717-.817,1.231-1.089.515-.262,1.09-.404,1.696-.404c1.241,0,2.432.434,3.562,1.322c0,0-1.09,1.432-1.09,1.432-.888-.737-1.705-1.1-2.472-1.1-.424,0-.786.121-1.069.343-.282.222-.425.535-.425.918c0,.373.172.666.535.898.232.151.727.373,1.474.655.888.353,1.493.616,1.806.787.676.373,1.12.847,1.342,1.412.121.323.182.696.182,1.109c0,.414-.071.827-.222,1.18-.152.364-.343.666-.586.908-.242.252-.524.454-.847.625-.323.182-.656.303-.999.374-.343.08-.697.121-1.04.121c0,0,.021.01.021.01Z" fill="#ea5027" stroke-width="0"/><path d="M-37.576,1.735c0,.272-.01.494-.041.675c0,0-5.378,0-5.378,0c.101.525.353.938.726,1.231.374.302.839.454,1.384.454.757,0,1.372-.293,1.836-.868c0,0,1.181,1.009,1.181,1.009-.343.424-.768.766-1.293,1.019-.524.252-1.13.373-1.816.373s-1.361-.152-1.927-.464c-.575-.313-1.03-.757-1.353-1.342-.333-.585-.494-1.26-.494-2.007c0-.554.091-1.069.272-1.543.182-.474.425-.877.758-1.2.323-.323.705-.585,1.149-.766.445-.182.92-.283,1.424-.283.707,0,1.342.162,1.897.484.545.323.959.757,1.252,1.322.293.564.433,1.2.433,1.916c0,0-.01-.01-.01-.01Z" fill="#ea5027" stroke-width="0"/><path d="M-41.077,-0.444c-.474,0-.868.131-1.211.394-.343.262-.566.625-.687,1.089c0,0,3.693,0,3.693,0-.07-.293-.191-.555-.353-.777-.151-.222-.353-.393-.605-.514-.253-.121-.534-.192-.837-.192Z" fill="#fff" stroke-width="0"/><path d="M-31.632,-1.987c.837,0,1.503.262,1.988.777.484.514.727,1.311.727,2.37c0,0,0,4.347,0,4.347s-1.696,0-1.696,0s0-3.914,0-3.914c0-.383-.04-.706-.101-.978-.071-.262-.181-.474-.322-.625-.151-.151-.313-.262-.504-.343-.192-.071-.414-.101-.677-.101-.292,0-.546.051-.788.151-.232.101-.443.242-.604.424-.172.192-.304.434-.395.706-.091.292-.131.605-.131.958c0,0,0,3.712,0,3.712s-1.694,0-1.694,0s0-7.383,0-7.383s1.694,0,1.694,0s0,1.008,0,1.008.02,0,.02,0c.313-.363.676-.645,1.11-.837.434-.191.878-.292,1.373-.292c0,0,0,.02,0,.02Z" fill="#ea5027" stroke-width="0"/><path d="M-21.348,-5.638c0,0,1.694,0,1.694,0s0,11.135,0,11.135-1.614,0-1.614,0s0-.989,0-.989-.031,0-.031,0c-.565.737-1.362,1.11-2.401,1.11-.404,0-.788-.051-1.161-.172-.373-.111-.696-.282-.989-.504s-.545-.484-.757-.787c-.212-.302-.373-.655-.494-1.049-.121-.403-.172-.817-.172-1.27c0-.545.092-1.059.274-1.533.181-.474.423-.878.745-1.221.313-.333.688-.595,1.132-.787.434-.191.907-.292,1.412-.292.989,0,1.777.333,2.342.998c0,0,.039,0,.039,0s0-4.649,0-4.649-.019.01-.019.01Z" fill="#ea5027" stroke-width="0"/><path d="M-23.438,4.085c.605,0,1.12-.202,1.534-.616.414-.413.616-.948.616-1.613c0-.666-.202-1.2-.606-1.644-.404-.434-.918-.656-1.544-.656-.293,0-.574.061-.837.162-.262.111-.485.262-.677.453-.191.192-.353.434-.454.737-.111.292-.16.615-.16.958c0,.655.191,1.2.595,1.614.394.413.897.615,1.533.615c0,0,0-.01,0-.01Z" fill="#fff" stroke-width="0"/><path d="M2.558,-1.876c0,0,1.695,0,1.695,0s0,7.383,0,7.383-1.695,0-1.695,0s0-.958,0-.958-.02,0-.02,0c-.293.353-.636.625-1.03.806-.403.182-.817.273-1.251.273s-.797-.051-1.12-.162-.616-.282-.868-.514-.434-.545-.565-.928c-.131-.393-.202-.857-.202-1.392c0,0,0-4.488,0-4.488s1.695,0,1.695,0s0,4.034,0,4.034c0,.374.02.676.081.918.061.252.151.444.272.595.122.152.273.263.455.323.171.061.393.091.656.091.252,0,.484-.051.716-.151.222-.101.424-.263.606-.454.181-.192.322-.454.423-.757.101-.312.152-.665.152-1.049c0,0,0-3.53,0-3.53s0-.04,0-.04Z" fill="#ea5027" stroke-width="0"/><path d="M8.755,5.628c-1.181,0-2.17-.353-2.987-1.079c0,0,.857-1.271.857-1.271.292.302.615.524.958.665.343.142.737.212,1.181.212.313,0,.565-.07.757-.201.182-.132.282-.303.282-.525c0-.181-.111-.323-.322-.434-.212-.121-.596-.272-1.151-.464-.222-.07-.424-.151-.595-.221-.182-.071-.353-.152-.535-.263-.182-.101-.333-.211-.454-.343-.131-.121-.253-.262-.353-.413-.101-.151-.182-.333-.233-.535-.06-.191-.08-.413-.08-.655c0-.595.242-1.089.736-1.493.485-.403,1.121-.595,1.867-.595.979,0,1.848.313,2.615.928c0,0-.849,1.331-.849,1.331-.191-.181-.403-.322-.625-.443-.222-.122-.423-.212-.625-.263-.202-.05-.405-.08-.607-.08-.201,0-.383.06-.555.161-.171.111-.252.262-.252.474c0,.121.051.232.152.343.1.101.232.202.393.282.152.091.363.182.626.283.787.312,1.271.514,1.463.615.484.262.807.585.959.958.091.232.131.504.131.807c0,.323-.061.615-.172.877-.121.263-.282.505-.504.706-.222.212-.505.363-.868.484-.353.122-.757.172-1.221.172c0,0,.011-.02.011-.02Z" fill="#ea5027" stroke-width="0"/><path d="M15.394,5.628c-.656,0-1.16-.212-1.524-.626-.363-.413-.545-1.018-.545-1.835c0,0,0-3.601,0-3.601s-.898,0-.898,0s0-1.442,0-1.442.898,0,.898,0s0-2.451,0-2.451s1.696-.181,1.696-.181s0,2.632,0,2.632s2.169,0,2.169,0s0,1.442,0,1.442-2.169,0-2.169,0s0,3.45,0,3.45c0,.373.05.635.171.786.121.162.293.232.535.232.323,0,.697-.101,1.09-.323c0,0,.444,1.463.444,1.463-.262.151-.535.252-.807.323-.273.07-.626.111-1.06.111c0,0,0,.02,0,.02Z" fill="#ea5027" stroke-width="0"/><path d="M21.812,5.628c-.575,0-1.099-.101-1.583-.293-.484-.191-.899-.454-1.232-.786-.333-.343-.596-.737-.777-1.211-.192-.464-.283-.968-.283-1.502c0-.727.152-1.372.475-1.947.322-.575.778-1.029,1.373-1.362.595-.332,1.272-.504,2.039-.504.766,0,1.411.162,1.997.484.585.313,1.039.767,1.372,1.342.323.585.495,1.25.495,1.987c0,.736-.172,1.401-.495,1.976-.333.575-.787,1.029-1.382,1.342-.596.312-1.252.474-1.999.474Z" fill="#ea5027" stroke-width="0"/><path d="M21.812,4.085c.606,0,1.121-.202,1.534-.636.414-.423.626-.968.626-1.624c0-.655-.202-1.21-.616-1.644-.413-.423-.927-.635-1.532-.635-.606,0-1.162.222-1.566.646-.403.433-.595.978-.595,1.623c0,.646.202,1.18.605,1.614.404.434.93.646,1.556.646c0,0-.012.01-.012.01Z" fill="#fff" stroke-width="0"/><path d="M36.354,-1.987c.828,0,1.474.272,1.918.807.444.534.676,1.341.676,2.41c0,0,0,4.277,0,4.277s-1.696,0-1.696,0s0-3.853,0-3.853c0-1.402-.484-2.118-1.453-2.118-.494,0-.908.202-1.231.615-.323.404-.484.958-.484,1.664c0,0,0,3.682,0,3.682s-1.696,0-1.696,0s0-3.853,0-3.853c0-1.402-.494-2.118-1.473-2.118-.515,0-.949.202-1.282.615-.333.404-.494.958-.494,1.664c0,0,0,3.682,0,3.682s-1.696,0-1.696,0s0-7.383,0-7.383s1.696,0,1.696,0s0,1.018,0,1.018.021,0,.021,0c.293-.363.655-.645,1.049-.837.403-.191.817-.292,1.251-.292c1.029,0,1.756.413,2.2,1.23c0,0,.03,0,.03,0c.313-.403.686-.706,1.151-.907.454-.212.948-.323,1.503-.323c0,0,.01.02.01.02Z" fill="#ea5027" stroke-width="0"/><path d="M47.788,1.735c0,.272-.02.494-.04.675c0,0-5.379,0-5.379,0c.101.525.343.938.726,1.231.374.302.839.454,1.384.454.767,0,1.371-.293,1.836-.868c0,0,1.18,1.009,1.18,1.009-.343.424-.767.766-1.291,1.019-.525.252-1.131.373-1.817.373s-1.362-.152-1.927-.464c-.576-.313-1.03-.757-1.353-1.342-.333-.585-.494-1.26-.494-2.007c0-.554.091-1.069.272-1.543.182-.474.424-.877.757-1.2.323-.323.707-.585,1.151-.766.444-.182.918-.283,1.423-.283.706,0,1.342.162,1.897.484.545.323.959.757,1.251,1.322.293.564.434,1.2.434,1.916c0,0-.01-.01-.01-.01Z" fill="#ea5027" stroke-width="0"/><path d="M44.296,-0.444c-.474,0-.878.131-1.211.394-.343.262-.565.625-.686,1.089c0,0,3.694,0,3.694,0-.071-.293-.192-.555-.343-.777-.152-.222-.354-.393-.606-.514s-.535-.192-.838-.192c0,0-.01,0-.01,0Z" fill="#fff" stroke-width="0"/><path d="M53.561,-1.987c0,0,.201,0,.201,0s0,1.886,0,1.886c-.192-.02-.363-.02-.514-.02-.424,0-.788.101-1.09.282-.313.192-.545.444-.697.757-.151.322-.232.675-.232,1.079c0,0,0,3.5,0,3.5s-1.694,0-1.694,0s0-7.383,0-7.383s1.694,0,1.694,0s0,1.109,0,1.109.02,0,.02,0c.293-.393.626-.696,1.03-.897.403-.212.817-.323,1.271-.323c0,0,.011.01.011.01Z" fill="#ea5027" stroke-width="0"/><path d="M-31.85,4.055c-.726,0-1.361-.151-1.936-.474-.576-.313-1.021-.767-1.343-1.342-.323-.574-.484-1.24-.484-1.986c0-.747.161-1.402.484-1.977.322-.575.777-1.029,1.352-1.352.575-.322,1.241-.484,1.978-.484.595,0,1.17.121,1.725.353s1.01.575,1.373,1.019c0,0-1.151.998-1.151.998-.222-.262-.494-.464-.807-.615-.323-.151-.676-.222-1.06-.222-.433,0-.816.101-1.149.293-.333.191-.595.454-.767.796-.182.343-.273.737-.273,1.17c0,.434.091.848.273,1.19.182.343.443.616.776.807.333.192.717.283,1.14.283.152,0,.313,0,.465-.041.151-.03.302-.07.434-.121.131-.04.262-.1.373-.171.121-.071.222-.141.323-.222.101-.071.182-.161.262-.252c0,0,1.171,1.039,1.171,1.039-.343.383-.787.706-1.342.938-.555.242-1.171.363-1.847.363c0,0,.03.01.03.01Z" transform="translate(25.204 1.684)" fill="#ea5027" stroke-width="0"/></g><g transform="translate(125.514 75.033)"><path d="M-66.311,-3.449c0,0,1.694,0,1.694,0s0,7.383,0,7.383-1.614,0-1.614,0s0-.989,0-.989-.02,0-.02,0c-.565.737-1.342,1.11-2.351,1.11-.404,0-.788-.051-1.162-.172-.373-.111-.696-.282-.989-.504-.292-.222-.544-.484-.755-.787-.212-.302-.374-.655-.495-1.048-.121-.404-.171-.817-.171-1.271c0-.545.09-1.059.272-1.533s.423-.878.746-1.221c.313-.332.687-.595,1.131-.786.434-.192.907-.293,1.412-.293.959,0,1.725.333,2.28.999c0,0,.032,0,.032,0s0-.888,0-.888-.01,0-.01,0Z" fill="#ea5027" stroke-width="0"/><path d="M-68.34,2.512c.586,0,1.08-.202,1.484-.615.403-.414.614-.959.614-1.614c0-.656-.202-1.2-.595-1.644-.404-.444-.897-.666-1.493-.666-.292,0-.575.061-.837.162-.263.111-.485.262-.676.453-.192.192-.344.434-.455.737-.111.292-.162.615-.162.958c0,.655.192,1.2.595,1.614.394.413.9.615,1.535.615c0,0-.01,0-.01,0Z" fill="#fff" stroke-width="0"/><path d="M-58.421,-3.56c.333,0,.656.041.969.131.313.091.595.212.858.373.262.162.494.353.716.585.212.232.404.485.545.767.152.282.263.595.343.928.081.343.122.696.122,1.059c0,.454-.06.867-.181,1.271-.121.393-.283.746-.495,1.049-.212.302-.464.564-.757.786-.292.222-.616.383-.989.504-.374.122-.757.172-1.151.172-.999,0-1.775-.343-2.34-1.029c0,0-.02,0-.02,0s0,3.903,0,3.903-1.696,0-1.696,0s0-10.368,0-10.368s1.696,0,1.696,0s0,.898,0,.898.03,0,.03,0c.565-.666,1.352-1.009,2.341-1.009c0,0,.009-.02.009-.02Z" fill="#ea5027" stroke-width="0"/><path d="M-58.702,2.512c.625,0,1.129-.202,1.533-.615.393-.414.595-.959.595-1.614c0-.696-.211-1.251-.615-1.674-.403-.424-.908-.636-1.513-.636-.636,0-1.152.222-1.555.656-.404.444-.595.988-.595,1.644c0,.655.211,1.2.625,1.613.414.414.929.616,1.535.616c0,0-.01.01-.01.01Z" fill="#fff" stroke-width="0"/><path d="M-49.014,-3.56c.333,0,.656.041.968.131.313.091.595.212.857.373.263.162.496.353.718.585.212.232.403.485.545.767.151.282.261.595.352.928.081.343.122.696.122,1.059c0,.454-.062.867-.183,1.271-.121.393-.281.746-.493,1.049-.212.302-.465.564-.768.786-.293.222-.616.383-.989.504-.374.122-.757.172-1.151.172-.999,0-1.776-.343-2.331-1.029c0,0-.02,0-.02,0s0,3.903,0,3.903-1.694,0-1.694,0s0-10.368,0-10.368s1.694,0,1.694,0s0,.898,0,.898.03,0,.03,0c.565-.666,1.354-1.009,2.343-1.009c0,0,0-.02,0-.02Z" fill="#ea5027" stroke-width="0"/><path d="M-49.298,2.512c.616,0,1.13-.202,1.534-.615.393-.414.595-.959.595-1.614c0-.696-.201-1.251-.614-1.674-.404-.424-.91-.636-1.515-.636s-1.15.222-1.554.656c-.404.444-.595.988-.595,1.644c0,.655.212,1.2.616,1.613.414.414.928.616,1.533.616c0,0,0,.01,0,.01Z" fill="#fff" stroke-width="0"/><path d="M-36.936,0.162c0,.272-.009.494-.039.676c0,0-5.38,0-5.38,0c.101.524.343.938.727,1.23.373.303.838.454,1.383.454.767,0,1.372-.293,1.836-.868c0,0,1.18,1.009,1.18,1.009-.343.424-.766.767-1.291,1.019s-1.13.373-1.817.373c-.686,0-1.362-.151-1.927-.464-.575-.313-1.029-.757-1.351-1.341-.333-.585-.496-1.261-.496-2.008c0-.554.092-1.069.274-1.543.181-.474.423-.877.756-1.2.323-.323.706-.585,1.14-.766.444-.182.918-.283,1.423-.283.706,0,1.342.162,1.897.484.545.323.959.757,1.251,1.322.293.564.434,1.2.434,1.916c0,0,0-.01,0-.01Z" fill="#ea5027" stroke-width="0"/><path d="M-40.428,-2.017c-.474,0-.867.131-1.211.394-.343.262-.564.625-.685,1.089c0,0,3.694,0,3.694,0-.071-.293-.193-.555-.344-.777-.152-.222-.353-.393-.605-.514s-.536-.192-.838-.192c0,0-.011,0-.011,0Z" fill="#fff" stroke-width="0"/><path d="M-31.85,4.055c-.726,0-1.361-.151-1.936-.474-.576-.313-1.021-.767-1.343-1.342-.323-.574-.484-1.24-.484-1.986c0-.747.161-1.402.484-1.977.322-.575.777-1.029,1.352-1.352.575-.322,1.241-.484,1.978-.484.595,0,1.17.121,1.725.353s1.01.575,1.373,1.019c0,0-1.151.998-1.151.998-.222-.262-.494-.464-.807-.615-.323-.151-.676-.222-1.06-.222-.433,0-.816.101-1.149.293-.333.191-.595.454-.767.796-.182.343-.273.737-.273,1.17c0,.434.091.848.273,1.19.182.343.443.616.776.807.333.192.717.283,1.14.283.152,0,.313,0,.465-.041.151-.03.302-.07.434-.121.131-.04.262-.1.373-.171.121-.071.222-.141.323-.222.101-.071.182-.161.262-.252c0,0,1.171,1.039,1.171,1.039-.343.383-.787.706-1.342.938-.555.242-1.171.363-1.847.363c0,0,.03.01.03.01Z" fill="#ea5027" stroke-width="0"/><path d="M-31.85,4.055c-.726,0-1.361-.151-1.936-.474-.576-.313-1.021-.767-1.343-1.342-.323-.574-.484-1.24-.484-1.986c0-.747.161-1.402.484-1.977.322-.575.777-1.029,1.352-1.352.575-.322,1.241-.484,1.978-.484.595,0,1.17.121,1.725.353s1.01.575,1.373,1.019c0,0-1.151.998-1.151.998-.222-.262-.494-.464-.807-.615-.323-.151-.676-.222-1.06-.222-.433,0-.816.101-1.149.293-.333.191-.595.454-.767.796-.182.343-.273.737-.273,1.17c0,.434.091.848.273,1.19.182.343.443.616.776.807.333.192.717.283,1.14.283.152,0,.313,0,.465-.041.151-.03.302-.07.434-.121.131-.04.262-.1.373-.171.121-.071.222-.141.323-.222.101-.071.182-.161.262-.252c0,0,1.171,1.039,1.171,1.039-.343.383-.787.706-1.342.938-.555.242-1.171.363-1.847.363c0,0,.03.01.03.01Z" transform="translate(56 0)" fill="#ea5027" stroke-width="0"/><path d="M-26.158,-4.548c-.323,0-.595-.101-.817-.323s-.334-.484-.334-.797c0-.312.112-.565.334-.786.222-.222.484-.333.817-.333s.575.111.797.333c.222.221.343.484.343.786c0,.202-.05.394-.151.565-.101.172-.241.313-.423.414-.182.1-.364.151-.566.151c0,0,0-.01,0-.01Z" fill="#ea5027" stroke-width="0"/><path d="" fill="#ea5027" stroke-width="0"/><path d="M-27.016,-3.449c0,0,1.696,0,1.696,0s0,7.383,0,7.383-1.696,0-1.696,0s0-7.383,0-7.383Z" fill="#ea5027" stroke-width="0"/><path d="M-17.57,-3.449c0,0,1.695,0,1.695,0s0,7.383,0,7.383-1.613,0-1.613,0s0-.989,0-.989-.022,0-.022,0c-.565.737-1.342,1.11-2.351,1.11-.404,0-.787-.051-1.161-.172-.373-.111-.696-.282-.988-.504-.293-.222-.545-.484-.757-.787-.212-.302-.374-.655-.495-1.048-.121-.404-.17-.817-.17-1.271c0-.545.089-1.059.271-1.533s.424-.878.747-1.221c.313-.332.686-.595,1.13-.786.434-.192.908-.293,1.413-.293.959,0,1.726.333,2.281.999c0,0,.03,0,.03,0s0-.888,0-.888-.01,0-.01,0Z" fill="#ea5027" stroke-width="0"/><path d="M-19.609,2.512c.586,0,1.08-.202,1.484-.615.403-.414.615-.959.615-1.614c0-.656-.202-1.2-.595-1.644-.404-.444-.898-.666-1.494-.666-.292,0-.575.061-.837.162-.263.111-.485.262-.676.453-.192.192-.343.434-.454.737-.111.292-.162.615-.162.958c0,.655.192,1.2.595,1.614.394.413.899.615,1.534.615c0,0-.01,0-.01,0Z" fill="#fff" stroke-width="0"/><path d="M-11.546,4.055c-.645,0-1.16-.212-1.523-.625-.364-.414-.535-1.019-.535-1.836c0,0,0-3.601,0-3.601s-.897,0-.897,0s0-1.442,0-1.442.897,0,.897,0s0-2.451,0-2.451s1.695-.181,1.695-.181s0,2.632,0,2.632s2.171,0,2.171,0s0,1.442,0,1.442-2.171,0-2.171,0s0,3.45,0,3.45c0,.373.051.635.172.786.121.162.293.232.546.232.323,0,.695-.101,1.088-.322c0,0,.445,1.462.445,1.462-.263.151-.544.252-.817.323-.272.07-.627.111-1.06.111c0,0-.011.02-.011.02Z" fill="#ea5027" stroke-width="0"/><path d="M-7.316,-4.548c-.323,0-.597-.101-.819-.323s-.332-.484-.332-.797c0-.312.11-.565.332-.786.222-.222.486-.333.819-.333s.574.111.796.333c.222.221.343.484.343.786c0,.202-.05.394-.151.565-.101.172-.241.313-.423.414-.182.1-.363.151-.565.151c0,0,0-.01,0-.01Z" fill="#ea5027" stroke-width="0"/><path d="" fill="#ea5027" stroke-width="0"/><path d="M-8.174,-3.449c0,0,1.694,0,1.694,0s0,7.383,0,7.383-1.694,0-1.694,0s0-7.383,0-7.383Z" fill="#ea5027" stroke-width="0"/><path d="M-0.717,4.055c-.576,0-1.1-.101-1.585-.293-.484-.191-.898-.453-1.231-.786-.333-.343-.595-.737-.777-1.211-.192-.464-.282-.968-.282-1.502c0-.727.151-1.372.474-1.947s.777-1.029,1.372-1.361c.596-.333,1.272-.505,2.039-.505s1.414.162,1.999.484c.585.313,1.038.767,1.371,1.342.323.585.495,1.25.495,1.987c0,.736-.172,1.402-.495,1.976-.333.575-.787,1.029-1.382,1.342-.596.312-1.252.474-1.998.474Z" fill="#ea5027" stroke-width="0"/><path d="M-0.717,2.512c.605,0,1.121-.202,1.535-.636.413-.423.614-.968.614-1.623c0-.656-.201-1.211-.614-1.644-.414-.424-.93-.636-1.535-.636-.606,0-1.16.222-1.564.646-.403.433-.595.978-.595,1.623c0,.646.201,1.181.605,1.614.403.434.928.646,1.554.646c0,0,0,.01,0,.01Z" fill="#fff" stroke-width="0"/><path d="M9.112,-3.56c.837,0,1.503.262,1.988.777.484.514.726,1.311.726,2.37c0,0,0,4.347,0,4.347s-1.694,0-1.694,0s0-3.913,0-3.913c0-.384-.041-.706-.102-.979-.071-.262-.182-.474-.323-.625-.151-.151-.313-.262-.504-.343-.192-.071-.414-.101-.677-.101-.292,0-.543.051-.786.151-.232.101-.445.243-.606.424-.172.192-.303.434-.394.706-.091.293-.131.605-.131.958c0,0,0,3.712,0,3.712s-1.695,0-1.695,0s0-7.383,0-7.383s1.695,0,1.695,0s0,1.009,0,1.009.02,0,.02,0c.313-.363.677-.646,1.111-.838.434-.191.877-.292,1.372-.292c0,0,0,.02,0,.02Z" fill="#ea5027" stroke-width="0"/><path d="M32.374,4.055c-.575,0-1.101-.101-1.586-.293-.484-.191-.898-.453-1.231-.786-.333-.343-.595-.737-.777-1.211-.192-.464-.281-.968-.281-1.502c0-.727.151-1.372.474-1.947s.776-1.029,1.371-1.361c.596-.333,1.272-.505,2.039-.505s1.414.162,1.999.484c.585.313,1.038.767,1.371,1.342.323.585.496,1.25.496,1.987c0,.736-.173,1.402-.496,1.976-.333.575-.787,1.029-1.382,1.342-.596.312-1.25.474-1.997.474Z" fill="#ea5027" stroke-width="0"/><path d="M32.374,2.512c.605,0,1.12-.202,1.534-.636.413-.423.625-.968.625-1.623c0-.656-.203-1.211-.616-1.644-.414-.424-.929-.636-1.534-.636-.606,0-1.161.222-1.564.646-.404.433-.596.978-.596,1.623c0,.646.202,1.181.606,1.614.403.434.928.646,1.554.646c0,0-.009.01-.009.01Z" fill="#fff" stroke-width="0"/><path d="M42.939,-3.449c0,0,1.695,0,1.695,0s0,7.383,0,7.383-1.695,0-1.695,0s0-.958,0-.958-.021,0-.021,0c-.292.353-.635.625-1.029.807-.404.181-.817.272-1.251.272s-.798-.051-1.12-.162c-.323-.11-.616-.282-.868-.514-.253-.232-.434-.544-.565-.928-.132-.393-.202-.857-.202-1.392c0,0,0-4.488,0-4.488s1.695,0,1.695,0s0,4.035,0,4.035c0,.373.02.675.081.917.06.252.151.444.272.595.121.152.273.263.454.323.182.061.395.091.657.091.253,0,.484-.051.716-.151.222-.101.424-.263.605-.454.182-.192.323-.454.424-.757.101-.312.152-.665.152-1.049c0,0,0-3.53,0-3.53s0-.04,0-.04Z" fill="#ea5027" stroke-width="0"/><path d="M50.84,-3.56c.333,0,.656.041.969.131.313.091.595.212.858.373.262.162.494.353.716.585.212.232.404.485.545.767.152.282.263.595.343.928.081.343.121.696.121,1.059c0,.454-.06.867-.171,1.271-.121.393-.282.746-.494,1.049-.212.302-.465.564-.757.786-.293.222-.626.383-.989.504-.364.122-.757.172-1.151.172-.999,0-1.775-.343-2.34-1.029c0,0-.021,0-.021,0s0,3.903,0,3.903-1.696,0-1.696,0s0-10.368,0-10.368s1.696,0,1.696,0s0,.898,0,.898.03,0,.03,0c.565-.666,1.352-1.009,2.341-1.009c0,0,0-.02,0-.02Z" fill="#ea5027" stroke-width="0"/><path d="M50.559,2.512c.615,0,1.129-.202,1.533-.615.393-.414.596-.959.596-1.614c0-.696-.212-1.251-.616-1.674-.403-.424-.908-.636-1.513-.636-.636,0-1.152.222-1.555.656-.394.444-.596.988-.596,1.644c0,.655.202,1.2.616,1.613.414.414.929.616,1.535.616c0,0,0,.01,0,.01Z" fill="#fff" stroke-width="0"/><path d="M59.62,4.055c-.575,0-1.1-.101-1.584-.293-.485-.191-.899-.453-1.232-.786-.333-.343-.595-.737-.777-1.211-.191-.464-.282-.968-.282-1.502c0-.727.151-1.372.474-1.947s.777-1.029,1.362-1.361c.596-.333,1.272-.505,2.039-.505s1.413.162,2.008.484c.585.313,1.04.767,1.373,1.342.322.585.494,1.25.494,1.987c0,.736-.172,1.402-.494,1.976-.333.575-.788,1.029-1.383,1.342-.595.323-1.251.474-1.998.474Z" fill="#ea5027" stroke-width="0"/><path d="M59.62,2.512c.605,0,1.12-.202,1.534-.636.414-.423.625-.968.625-1.623c0-.656-.211-1.211-.615-1.644-.414-.424-.929-.636-1.534-.636-.606,0-1.161.222-1.554.646-.404.433-.596.978-.596,1.623c0,.646.202,1.181.606,1.614.404.434.929.646,1.555.646c0,0-.021.01-.021.01Z" fill="#fff" stroke-width="0"/><path d="M69.46,-3.56c.838,0,1.503.262,1.987.777.485.514.727,1.311.727,2.37c0,0,0,4.347,0,4.347s-1.696,0-1.696,0s0-3.913,0-3.913c0-.384-.039-.706-.1-.979-.07-.262-.182-.474-.324-.625-.151-.151-.312-.262-.504-.343-.192-.071-.414-.101-.676-.101-.293,0-.545.051-.787.151-.232.101-.444.243-.606.424-.171.192-.302.434-.392.706-.091.293-.133.605-.133.958c0,0,0,3.712,0,3.712s-1.695,0-1.695,0s0-7.383,0-7.383s1.695,0,1.695,0s0,1.009,0,1.009.021,0,.021,0c.312-.363.676-.646,1.11-.838.424-.191.879-.292,1.373-.292c0,0,0,.02,0,.02Z" fill="#ea5027" stroke-width="0"/></g><mask id="efjySJP1k6h229" mask-type="luminance" x="-150%" y="-150%" height="400%" width="400%"><path d="M238.894,-6.511c0,0-251.722,0-251.722,0s0,127.899,0,127.899s251.722,0,251.722,0s0-127.899,0-127.899Z" fill="#fff" fill-rule="evenodd" stroke="#fff" stroke-width="0"/></mask></g></g><g transform="translate(72.25 48.25)"><g id="efjySJP1k6h232_to" style="offset-path:path('M203.114,132.709C203.114,137.876,203.114,158.542,203.114,163.709');offset-rotate:0deg"><g transform="translate(-0.716,-9.471)"><g id="efjySJP1k6h233" transform="translate(.667 25.457)" opacity="0"><path d="M0,5.154c2.846,0,5.156-2.31,5.156-5.154s-2.31-5.154-5.156-5.154c-2.845,0-5.156,2.31-5.156,5.154s2.311,5.154,5.156,5.154Z" fill="#ea5027" stroke-width="0"/></g></g></g></g><g transform="translate(72.25 48.25)"><g id="efjySJP1k6h236_to" style="offset-path:path('M203.114,132.709C203.114,137.876,203.114,158.542,203.114,163.709');offset-rotate:0deg"><g id="efjySJP1k6h236" transform="translate(-0.716,-9.471)" opacity="0"><g><path d="M0.666,0.666c0,0,0,17.61,0,17.61" paint-order="stroke fill markers" fill="none" fill-rule="evenodd" stroke="#ea5027" stroke-width="1.333" stroke-miterlimit="10"/></g></g></g></g><g id="efjySJP1k6h239_ts" transform="translate(279.011318,156.620998) scale(1,1)"><g transform="translate(-263.319289,-43.155998)" mask="url(#efjySJP1k6h300)"><g transform="translate(262.943 45.483)"><path d="M105.254,-44.014c0,0-210.509,0-210.509,0-4.168,0-7.548,3.38-7.548,7.545c0,0,0,72.938,0,72.938c0,4.166,3.38,7.545,7.548,7.545c0,0,210.509,0,210.509,0c4.168,0,7.549-3.379,7.549-7.545c0,0,0-72.938,0-72.938c0-4.165-3.381-7.545-7.549-7.545Z" fill="#fff" stroke-width="0"/></g><g transform="translate(262.943 45.483)"><path d="M105.254,-44.014c0,0-210.509,0-210.509,0-4.168,0-7.548,3.38-7.548,7.545c0,0,0,72.938,0,72.938c0,4.166,3.38,7.545,7.548,7.545c0,0,210.509,0,210.509,0c4.168,0,7.549-3.379,7.549-7.545c0,0,0-72.938,0-72.938c0-4.165-3.381-7.545-7.549-7.545Z" paint-order="stroke fill markers" fill="none" fill-rule="evenodd" stroke="#d6d6d6" stroke-width="0.493" stroke-miterlimit="10"/></g><g transform="translate(354.866 25.166)"><path d="M-9.627,-3.817c0,0,5.187,0,5.187,0s0,1.019,0,1.019-4.097,0-4.097,0s0,2.39,0,2.39s3.814,0,3.814,0s0,1.019,0,1.019-3.814,0-3.814,0s0,2.571,0,2.571s4.299,0,4.299,0s0,1.019,0,1.019-5.389,0-5.389,0s0-8.028,0-8.028s0,.01,0,.01Z" fill="#767676" stroke-width="0"/><path d="M2.442,4.211c0,0-1.019,0-1.019,0s0-.766,0-.766-.02,0-.02,0c-.202.282-.464.504-.818.665-.343.162-.696.242-1.059.242-.414,0-.797-.07-1.13-.211-.333-.142-.616-.343-.868-.606-.232-.262-.414-.554-.545-.897s-.192-.716-.192-1.11c0-.393.061-.766.192-1.109.131-.353.313-.646.545-.898.242-.262.524-.454.868-.605.343-.141.716-.212,1.13-.212.383,0,.747.081,1.09.253.343.161.605.373.777.655c0,0,.02,0,.02,0s0-3.964,0-3.964s1.019,0,1.019,0s0,8.573,0,8.573.01-.01.01-.01Z" fill="#767676" stroke-width="0"/><path d="M-0.353,3.394c.272,0,.515-.04.737-.131.222-.101.403-.222.555-.383.151-.161.272-.363.353-.585.081-.232.121-.484.121-.757c0-.272-.04-.524-.121-.746-.081-.232-.202-.434-.353-.585-.152-.161-.333-.292-.555-.383-.222-.101-.465-.151-.737-.151-.273,0-.515.05-.737.151-.222.091-.403.222-.555.383-.151.162-.272.353-.353.585-.081.222-.121.474-.121.746c0,.273.04.525.121.757.081.222.202.424.353.585.152.161.333.282.555.383.222.091.464.131.737.131Z" fill="#fff" stroke-width="0"/><path d="M4.067,-1.164c0,0,1.019,0,1.019,0s0,5.376,0,5.376-1.019,0-1.019,0s0-5.376,0-5.376Z" fill="#767676" stroke-width="0"/><path d="M3.825,-3.091c0-.202.07-.373.212-.524.151-.152.333-.222.535-.222.201,0,.383.07.524.222.152.141.232.322.232.524s-.08.383-.232.535c-.141.141-.323.211-.524.211-.202,0-.384-.07-.535-.211-.142-.152-.212-.333-.212-.535Z" fill="#767676" stroke-width="0"/><path d="M9.587,-0.277c0,0-1.463,0-1.463,0s0,2.441,0,2.441c0,.151,0,.302.01.454c0,.141.03.272.081.393.05.111.131.212.232.282.101.071.252.101.454.101.121,0,.242-.01.373-.03s.242-.061.353-.121c0,0,0,.928,0,.928-.121.07-.282.111-.474.131-.192.03-.333.04-.444.04-.393,0-.696-.05-.918-.161-.212-.111-.374-.252-.475-.434-.1-.171-.161-.363-.181-.575-.02-.222-.02-.433-.02-.655c0,0,0-2.804,0-2.804s-1.181,0-1.181,0s0-.888,0-.888s1.181,0,1.181,0s0-1.502,0-1.502s1.019,0,1.019,0s0,1.502,0,1.502s1.463,0,1.463,0s0,.888,0,.888-.01.01-.01.01Z" fill="#767676" stroke-width="0"/></g><g transform="translate(176.125 26.553)"><path d="M14.542,0C14.542,8.028,8.033,14.533,0,14.533s-14.542-6.505-14.542-14.533s6.509-14.533,14.542-14.533s14.542,6.505,14.542,14.533Z" paint-order="stroke fill markers" fill="none" fill-rule="evenodd" stroke="#4f4f4f" stroke-width="1.333" stroke-linecap="round" stroke-linejoin="round"/></g><g transform="translate(177.114 23.684)"><path d="M-8.406,-2.365c0,0,7.417,6.495,7.417,6.495s9.395-8.26,9.395-8.26" paint-order="stroke fill markers" fill="none" fill-rule="evenodd" stroke="#4f4f4f" stroke-width="1.333" stroke-linecap="round" stroke-linejoin="round"/></g><g><path d="M176.125,12.03c0,0,0,3.116,0,3.116" paint-order="stroke fill markers" fill="none" fill-rule="evenodd" stroke="#4f4f4f" stroke-width="1.333" stroke-linecap="round" stroke-linejoin="round"/></g><g><path d="M176.125,37.295c0,0,0,3.126,0,3.126" paint-order="stroke fill markers" fill="none" fill-rule="evenodd" stroke="#4f4f4f" stroke-width="1.333" stroke-linecap="round" stroke-linejoin="round"/></g><g><path d="M190.334,26.22c0,0-3.128,0-3.128,0" paint-order="stroke fill markers" fill="none" fill-rule="evenodd" stroke="#4f4f4f" stroke-width="1.333" stroke-linecap="round" stroke-linejoin="round"/></g><g><path d="M165.044,26.22c0,0-3.128,0-3.128,0" paint-order="stroke fill markers" fill="none" fill-rule="evenodd" stroke="#4f4f4f" stroke-width="1.333" stroke-linecap="round" stroke-linejoin="round"/></g><g transform="translate(200.668 25.585)"><path d="M0.757,-3.359c0,0-1.817,1.363-1.817,1.363s-.333-.496-.333-.496s2.23-1.664,2.23-1.664.555,0,.555,0s0,8.312,0,8.312-.635,0-.635,0s0-7.515,0-7.515Z" stroke-width="0"/></g><g transform="translate(204.927 25.585)"><path d="M0.757,-3.359c0,0-1.817,1.363-1.817,1.363s-.333-.496-.333-.496s2.23-1.664,2.23-1.664.555,0,.555,0s0,8.312,0,8.312-.635,0-.635,0s0-7.515,0-7.515Z" stroke-width="0"/></g><g transform="translate(210.941 26.791)"><path d="M2.876,-2.94c0,0,0,5.879,0,5.879s-.605,0-.605,0s0-1.129,0-1.129-.021,0-.021,0c-.232.374-.545.666-.928.878s-.817.313-1.312.313c-.393,0-.767-.072-1.12-.213s-.656-.343-.918-.595c-.263-.252-.465-.564-.616-.937s-.232-.777-.232-1.211c0-.564.121-1.079.363-1.543s.575-.827,1.019-1.099c.445-.272.929-.404,1.474-.404.464,0,.888.111,1.281.323.394.212.707.515.949.888c0,0,.02,0,.02,0s0-1.15,0-1.15.636,0,.636,0s.01,0,.01,0Z" stroke-width="0"/><path d="M0.898,2.223c.273-.111.505-.272.707-.474.201-.202.363-.443.484-.745.121-.303.182-.616.182-.959c0-.453-.091-.858-.283-1.231s-.454-.666-.787-.888c-.333-.221-.717-.332-1.14-.332-.313,0-.606.061-.878.172-.273.111-.515.281-.727.483s-.373.465-.494.778c-.122.312-.182.645-.182,1.008c0,.434.091.837.282,1.19.192.353.455.636.808.838.353.201.736.302,1.18.302.293,0,.576-.061.848-.172c0,0,0,.03,0,.03Z" fill="#fff" stroke-width="0"/></g><g transform="translate(220.104 26.765)"><path d="M3.875,-2.34c.333.424.505,1.049.505,1.876c0,0,0,3.449,0,3.449s-.636,0-.636,0s0-3.247,0-3.247c0-.384-.03-.716-.101-.989-.071-.272-.162-.494-.293-.655-.131-.162-.282-.283-.464-.353-.182-.071-.394-.111-.646-.111-.262,0-.515.06-.747.171s-.434.273-.605.484c-.172.212-.313.464-.414.767-.101.302-.151.635-.151.998c0,0,0,2.925,0,2.925s-.636,0-.636,0s0-3.298,0-3.298c0-.726-.131-1.25-.383-1.573-.253-.323-.626-.484-1.09-.484-.555,0-1.03.222-1.403.665-.373.444-.555,1.029-.555,1.755c0,0,0,2.915,0,2.915s-.636,0-.636,0s0-5.88,0-5.88.636,0,.636,0s0,1.12,0,1.12.02,0,.02,0c.242-.374.545-.656.918-.868.374-.212.757-.312,1.171-.312.454,0,.828.111,1.13.322.303.212.525.535.676.958c0,0,.041,0,.041,0c.151-.272.343-.494.565-.685.222-.192.474-.333.747-.434.272-.101.565-.151.878-.151.656,0,1.15.211,1.493.625c0,0-.02.01-.02.01Z" stroke-width="0"/></g><g transform="translate(274.334345 54.208)"><path d="M-70.544,5.628c-.707,0-1.403-.141-2.069-.424-.676-.282-1.282-.696-1.837-1.26c0,0,1.151-1.423,1.151-1.423.373.454.817.817,1.301,1.059.485.243.979.364,1.454.364.575,0,1.019-.111,1.332-.343.302-.242.454-.555.454-.969c0-.131-.02-.252-.051-.363-.03-.111-.07-.211-.121-.292-.05-.091-.121-.172-.222-.262-.101-.081-.202-.152-.292-.212-.101-.061-.232-.121-.394-.192-.161-.07-.323-.131-.454-.191-.141-.051-.323-.121-.545-.202-.262-.091-.505-.182-.696-.262-.202-.071-.424-.182-.656-.293s-.444-.242-.616-.353c-.171-.121-.343-.262-.515-.423-.181-.162-.312-.343-.413-.525-.101-.181-.192-.403-.263-.635-.07-.242-.101-.495-.101-.767c0-.544.152-1.059.455-1.523.302-.454.716-.817,1.231-1.089.514-.262,1.09-.403,1.695-.403c1.241,0,2.432.433,3.562,1.321c0,0-1.089,1.432-1.089,1.432-.889-.736-1.706-1.099-2.473-1.099-.424,0-.787.121-1.07.343-.282.221-.423.534-.423.917c0,.373.171.666.534.898.233.151.727.373,1.474.656.888.353,1.493.615,1.806.786.676.373,1.12.847,1.342,1.412.121.323.182.696.182,1.11c0,.413-.071.827-.222,1.18-.151.363-.343.665-.595.907-.243.252-.525.454-.848.626-.323.181-.656.302-.999.373-.343.081-.696.121-1.04.121c0,0,.031,0,.031,0Z" fill="#ea5027" stroke-width="0"/><path d="M-58.263,1.735c0,.272-.01.494-.04.676c0,0-5.379,0-5.379,0c.101.524.343.937.726,1.23.374.303.838.454,1.383.454.757,0,1.372-.293,1.837-.878c0,0,1.18,1.009,1.18,1.009-.343.424-.767.766-1.291,1.019-.525.252-1.131.373-1.817.373s-1.362-.152-1.927-.464c-.575-.313-1.03-.757-1.353-1.342-.333-.585-.494-1.25-.494-2.007c0-.554.091-1.069.272-1.543.182-.474.424-.867.757-1.2.323-.323.707-.585,1.141-.766.444-.182.918-.283,1.423-.283.706,0,1.342.162,1.897.484.545.323.958.757,1.251,1.322.293.564.434,1.2.434,1.916Z" fill="#ea5027" stroke-width="0"/><path d="M-58.263,1.735c0,.272-.01.494-.04.676c0,0-5.379,0-5.379,0c.101.524.343.937.726,1.23.374.303.838.454,1.383.454.757,0,1.372-.293,1.837-.878c0,0,1.18,1.009,1.18,1.009-.343.424-.767.766-1.291,1.019-.525.252-1.131.373-1.817.373s-1.362-.152-1.927-.464c-.575-.313-1.03-.757-1.353-1.342-.333-.585-.494-1.25-.494-2.007c0-.554.091-1.069.272-1.543.182-.474.424-.867.757-1.2.323-.323.707-.585,1.141-.766.444-.182.918-.283,1.423-.283.706,0,1.342.162,1.897.484.545.323.958.757,1.251,1.322.293.564.434,1.2.434,1.916Z" transform="translate(102 0)" fill="#ea5027" stroke-width="0"/><path d="M-61.765,-0.444c-.474,0-.868.131-1.211.394-.343.262-.565.625-.686,1.089c0,0,3.694,0,3.694,0-.071-.293-.192-.555-.354-.777-.151-.222-.353-.393-.605-.514s-.535-.192-.838-.192Z" fill="#fff" stroke-width="0"/><path d="M-61.765,-0.444c-.474,0-.868.131-1.211.394-.343.262-.565.625-.686,1.089c0,0,3.694,0,3.694,0-.071-.293-.192-.555-.354-.777-.151-.222-.353-.393-.605-.514s-.535-.192-.838-.192Z" transform="translate(102 0)" fill="#fff" stroke-width="0"/><path d="M-52.319,-1.977c.838,0,1.504.262,1.988.777.484.514.727,1.311.727,2.37c0,0,0,4.347,0,4.347s-1.696,0-1.696,0s0-3.913,0-3.913c0-.384-.04-.706-.101-.979-.07-.262-.181-.474-.323-.625-.151-.151-.312-.262-.504-.343-.192-.07-.414-.101-.676-.101-.293,0-.545.051-.787.152-.233.1-.445.242-.606.423-.172.192-.303.434-.394.706-.09.293-.131.605-.131.958c0,0,0,3.712,0,3.712s-1.695,0-1.695,0s0-7.383,0-7.383s1.695,0,1.695,0s0,1.009,0,1.009.02,0,.02,0c.313-.363.677-.646,1.111-.837.433-.192.877-.293,1.372-.293c0,0,0,.02,0,.02Z" fill="#ea5027" stroke-width="0"/><path d="M-42.036,-5.628c0,0,1.696,0,1.696,0s0,11.135,0,11.135-1.615,0-1.615,0s0-.989,0-.989-.03,0-.03,0c-.565.737-1.363,1.11-2.402,1.11-.404,0-.787-.051-1.161-.172-.373-.111-.696-.282-.989-.504-.292-.222-.545-.484-.756-.787-.212-.302-.374-.645-.495-1.048-.121-.404-.171-.817-.171-1.271c0-.545.09-1.059.272-1.533s.434-.878.747-1.221c.313-.332.686-.595,1.13-.786.434-.192.908-.293,1.413-.293.989,0,1.776.333,2.331.999c0,0,.04,0,.04,0s0-4.65,0-4.65-.01.01-.01.01Z" fill="#ea5027" stroke-width="0"/><path d="M-44.125,4.095c.606,0,1.12-.212,1.534-.625.414-.414.616-.949.616-1.614c0-.666-.202-1.2-.606-1.644-.403-.434-.918-.656-1.544-.656-.292,0-.575.061-.837.162-.263.111-.485.262-.676.454-.192.191-.354.433-.455.736-.111.292-.161.615-.161.948c0,.655.192,1.2.595,1.614.394.413.899.625,1.534.625Z" fill="#fff" stroke-width="0"/><path d="M-21.954,-5.234c0,0,1.948,0,1.948,0s-3.411,10.751-3.411,10.751-1.705,0-1.705,0-2.2-8.079-2.2-8.079-.021,0-.021,0-2.25,8.079-2.25,8.079-1.705,0-1.705,0-3.411-10.751-3.411-10.751s1.947,0,1.947,0s2.311,7.755,2.311,7.755.02,0,.02,0s2.11-7.755,2.11-7.755s1.947,0,1.947,0s2.099,7.776,2.099,7.776.02,0,.02,0s2.311-7.776,2.311-7.776-.01,0-.01,0Z" fill="#ea5027" stroke-width="0"/><path d="M-12.68,1.735c0,.272-.01.494-.04.676c0,0-5.379,0-5.379,0c.101.524.343.937.727,1.23.373.303.838.454,1.382.454.767,0,1.372-.293,1.836-.878c0,0,1.182,1.009,1.182,1.009-.343.424-.767.766-1.292,1.019-.525.252-1.131.373-1.817.373-.687,0-1.362-.152-1.927-.464-.575-.313-1.029-.757-1.352-1.342-.333-.585-.495-1.25-.495-2.007c0-.554.091-1.069.273-1.543s.424-.867.757-1.2c.323-.323.706-.585,1.14-.766.444-.182.917-.283,1.422-.283.706,0,1.343.162,1.898.484.545.323.958.757,1.261,1.322.282.564.435,1.2.435,1.916c0,0-.011,0-.011,0Z" fill="#ea5027" stroke-width="0"/><path d="M-16.172,-0.444c-.474,0-.868.131-1.211.394-.343.262-.564.625-.685,1.089c0,0,3.693,0,3.693,0-.071-.293-.193-.555-.344-.777s-.352-.393-.605-.514c-.252-.121-.534-.192-.837-.192c0,0-.011,0-.011,0Z" fill="#fff" stroke-width="0"/><path d="" fill="#ea5027" stroke-width="0"/><path d="M-10.813,-5.618c0,0,1.696,0,1.696,0s0,11.135,0,11.135-1.696,0-1.696,0s0-11.135,0-11.135Z" fill="#ea5027" stroke-width="0"/><path d="M-3.466,5.628c-.727,0-1.372-.151-1.938-.474-.575-.313-1.019-.757-1.342-1.342-.323-.574-.484-1.24-.484-1.986c0-.747.161-1.402.484-1.977s.777-1.029,1.353-1.352c.575-.322,1.241-.484,1.978-.484.595,0,1.17.121,1.725.353s1.008.575,1.372,1.019c0,0-1.151.998-1.151.998-.222-.262-.494-.464-.807-.615-.323-.151-.676-.222-1.06-.222-.434,0-.816.101-1.139.293-.333.191-.595.454-.767.796-.182.343-.274.737-.274,1.18c0,.444.092.848.274,1.191.182.342.443.615.776.806.333.192.718.283,1.151.283.152,0,.313,0,.465-.041.151-.03.301-.07.433-.121.131-.04.263-.1.374-.171.121-.071.222-.141.323-.222.101-.07.182-.161.262-.252c0,0,1.171,1.039,1.171,1.039-.343.383-.788.706-1.343.938-.555.242-1.171.363-1.847.363c0,0,.011,0,.011,0Z" fill="#ea5027" stroke-width="0"/><path d="M4.698,5.628c-.575,0-1.1-.101-1.594-.293-.485-.191-.899-.453-1.232-.786-.333-.343-.596-.737-.778-1.211-.191-.464-.282-.968-.282-1.502c0-.727.151-1.372.474-1.947s.778-1.029,1.364-1.361c.595-.333,1.271-.505,2.038-.505s1.412.162,1.997.484c.585.313,1.041.767,1.374,1.342.323.585.493,1.25.493,1.987c0,.736-.17,1.402-.493,1.976-.333.575-.788,1.029-1.383,1.342-.595.312-1.262.474-1.999.474c0,0,.021,0,.021,0Z" fill="#ea5027" stroke-width="0"/><path d="M4.698,4.095c.606,0,1.12-.212,1.534-.636.414-.433.616-.968.616-1.623c0-.656-.202-1.211-.616-1.644-.414-.424-.928-.636-1.534-.636-.605,0-1.161.222-1.565.656s-.594.978-.594,1.624c0,.645.2,1.18.604,1.613.404.434.929.656,1.555.656c0,0,0-.01,0-.01Z" fill="#fff" stroke-width="0"/><path d="M19.25,-1.977c.828,0,1.473.273,1.917.807.444.535.677,1.342.677,2.421c0,0,0,4.276,0,4.276s-1.696,0-1.696,0s0-3.853,0-3.853c0-1.402-.484-2.118-1.453-2.118-.494,0-.908.212-1.231.616-.323.403-.485.958-.485,1.664c0,0,0,3.681,0,3.681s-1.695,0-1.695,0s0-3.853,0-3.853c0-1.402-.495-2.118-1.474-2.118-.515,0-.948.212-1.281.615-.333.404-.495.959-.495,1.665c0,0,0,3.681,0,3.681s-1.695,0-1.695,0s0-7.383,0-7.383s1.695,0,1.695,0s0,1.019,0,1.019.021,0,.021,0c.292-.363.646-.646,1.049-.837.404-.192.818-.293,1.252-.293c1.029,0,1.756.414,2.2,1.231c0,0,.03,0,.03,0c.313-.404.686-.706,1.14-.908.454-.212.958-.323,1.503-.323c0,0,.021.01.021.01Z" fill="#ea5027" stroke-width="0"/><path d="M30.684,1.735c0,.272-.02.494-.041.676c0,0-5.378,0-5.378,0c.101.524.343.937.726,1.23.374.303.838.454,1.383.454.767,0,1.372-.293,1.836-.878c0,0,1.181,1.009,1.181,1.009-.343.424-.767.766-1.292,1.019-.524.252-1.13.373-1.816.373s-1.363-.152-1.929-.464c-.575-.313-1.028-.757-1.351-1.342-.333-.585-.495-1.25-.495-2.007c0-.554.092-1.069.273-1.543.182-.474.424-.867.757-1.2.323-.323.706-.585,1.15-.766.445-.182.919-.283,1.423-.283.707,0,1.342.162,1.897.484.545.323.959.757,1.252,1.322.293.564.434,1.2.434,1.916c0,0-.01,0-.01,0Z" fill="#ea5027" stroke-width="0"/><path d="M27.182,-0.444c-.474,0-.868.131-1.211.394-.343.262-.566.625-.687,1.089c0,0,3.694,0,3.694,0-.07-.293-.191-.555-.343-.777-.151-.222-.353-.393-.605-.514-.253-.121-.535-.192-.838-.192c0,0-.01,0-.01,0Z" fill="#fff" stroke-width="0"/><path d="M54.581,-1.977c.827,0,1.472.273,1.916.807.444.535.677,1.342.677,2.421c0,0,0,4.276,0,4.276s-1.695,0-1.695,0s0-3.853,0-3.853c0-1.402-.485-2.118-1.454-2.118-.494,0-.908.212-1.231.616-.323.403-.484.958-.484,1.664c0,0,0,3.681,0,3.681s-1.695,0-1.695,0s0-3.853,0-3.853c0-1.402-.495-2.118-1.474-2.118-.514,0-.949.212-1.282.615-.333.404-.494.959-.494,1.665c0,0,0,3.681,0,3.681s-1.696,0-1.696,0s0-7.383,0-7.383s1.696,0,1.696,0s0,1.019,0,1.019.02,0,.02,0c.293-.363.646-.646,1.05-.837.403-.192.816-.293,1.26-.293c1.03,0,1.757.414,2.201,1.231c0,0,.03,0,.03,0c.313-.404.687-.706,1.151-.908.454-.212.959-.323,1.504-.323c0,0,0,.01,0,.01Z" fill="#ea5027" stroke-width="0"/><path d="M64.692,-1.866c0,0,1.696,0,1.696,0s0,7.383,0,7.383-1.615,0-1.615,0s0-.988,0-.988-.02,0-.02,0c-.565.736-1.342,1.109-2.352,1.109-.403,0-.787-.05-1.16-.172-.373-.11-.696-.282-.989-.504s-.545-.484-.757-.786c-.212-.303-.374-.646-.495-1.049-.121-.404-.172-.817-.172-1.271c0-.545.092-1.059.274-1.533.181-.474.423-.878.746-1.221.313-.332.687-.595,1.131-.786.433-.192.908-.293,1.412-.293.959,0,1.726.333,2.281.999c0,0,.03,0,.03,0s0-.888,0-.888-.01,0-.01,0Z" fill="#ea5027" stroke-width="0"/><path d="M62.654,4.095c.585,0,1.08-.212,1.483-.625.404-.414.616-.959.616-1.614c0-.656-.203-1.2-.597-1.644-.393-.444-.897-.666-1.492-.666-.293,0-.575.061-.838.162-.262.111-.484.262-.676.453-.192.192-.354.434-.465.737-.111.292-.162.615-.162.948c0,.655.193,1.2.597,1.613.393.414.898.626,1.534.626c0,0,0,.01,0,.01Z" fill="#fff" stroke-width="0"/><path d="M69.486,-2.965c-.323,0-.596-.101-.818-.323s-.333-.484-.333-.797c0-.312.111-.564.333-.786s.485-.333.818-.333.575.111.797.333.342.484.342.786c0,.202-.05.394-.151.565-.101.182-.242.313-.423.414-.182.101-.363.151-.565.151c0,0,0-.01,0-.01Z" fill="#ea5027" stroke-width="0"/><path d="" fill="#ea5027" stroke-width="0"/><path d="M68.628,-1.866c0,0,1.695,0,1.695,0s0,7.383,0,7.383-1.695,0-1.695,0s0-7.383,0-7.383Z" fill="#ea5027" stroke-width="0"/><path d="" fill="#ea5027" stroke-width="0"/><path d="M72.755,-5.618c0,0,1.696,0,1.696,0s0,11.135,0,11.135-1.696,0-1.696,0s0-11.135,0-11.135Z" fill="#ea5027" stroke-width="0"/></g><mask id="efjySJP1k6h300" mask-type="luminance" x="-150%" y="-150%" height="400%" width="400%"><path d="M148.079,-21.965c0,0-155.329,0-155.329,0s0,125.028,0,125.028s155.329,0,155.329,0s0-125.028,0-125.028Z" transform="matrix(3.962412 0 0 1 0 0)" fill="#fff" fill-rule="evenodd" stroke="#fff" stroke-width="0"/></mask></g></g><g transform="translate(12.000001 115)"><g transform="translate(141.845 41.622)"><path d="M-0.001,5.153c2.846,0,5.157-2.309,5.157-5.154c0-2.844-2.311-5.152-5.157-5.152s-5.156,2.308-5.156,5.152c0,2.845,2.31,5.154,5.156,5.154Z" fill="#ea5027" stroke-width="0"/></g><g><path d="M92.497,41.621c0,0,41.385,0,41.385,0" paint-order="stroke fill markers" fill="none" fill-rule="evenodd" stroke="#ea5027" stroke-width="1.333" stroke-linejoin="round"/></g></g><g transform="translate(12 115)"><g transform="translate(43.563 43.537)"><path d="M0,43.288c23.921,0,43.313-19.38,43.313-43.287c0-23.908-19.392-43.289-43.313-43.289s-43.313,19.381-43.313,43.289c0,23.907,19.392,43.287,43.313,43.287Z" fill="#500b19" stroke-width="0"/></g><g transform="translate(43.568 40.532)"><path d="M10.37,5.012c5.681,1.675,9.576,6.234,9.879,11.166c0,0,0,.373,0,.373c0,1.584-1.281,3.267-2.866,3.267c0,0-34.766,0-34.766,0-1.584,0-2.866-1.683-2.866-3.267c0,0,0-.373,0-.373.343-5.628,5.37-10.761,12.373-11.689c0,0,.403-.061.403-.061c1.736-.262,3.441.202,5.167.535c1.069.202.98.232,2.13.232" paint-order="stroke fill markers" fill="none" fill-rule="evenodd" stroke="#fff" stroke-width="1.333" stroke-miterlimit="10"/><path d="M-0.176,5.184c6.065,0,9.102-6.536,9.102-13.293c0-4.902-.697-7.694-2.806-9.56-1.867-1.634-3.411-2.15-6.539-2.099-4.198.06-9.334,1.867-9.334,10.036c0,3.994,1.292,7.413,2.765,9.975" paint-order="stroke fill markers" fill="none" fill-rule="evenodd" stroke="#fff" stroke-width="1.333" stroke-miterlimit="10"/></g></g><g transform="translate(72.25 48.25)"><g id="efjySJP1k6h314_to" style="offset-path:path('M316.578,210.926C311.125,200.378,289.315,158.187,283.862,147.639');offset-rotate:0deg"><g id="efjySJP1k6h314_ts" transform="scale(1,1)"><g id="efjySJP1k6h314" transform="translate(-5.698,-7.439)" opacity="0"><g transform="translate(5.755 7.444)"><path d="M-5.408,6.686c0,0-.097-13.372-.097-13.372c0-.327.375-.508.629-.302c0,0,10.127,8.294,10.127,8.294.254.218.145.629-.194.677c0,0-5.613.822-5.613.822s-4.199,4.147-4.199,4.147c-.242.242-.653.073-.653-.278c0,0,0,.012,0,.012Z" fill="#4f4f4f" stroke-width="0"/></g></g></g></g></g></svg>
