<svg id="evVkep4CKHM1" xmlns="http://www.w3.org/2000/svg" xmlns:xlink="http://www.w3.org/1999/xlink" viewBox="0 0 1050 720" shape-rendering="geometricPrecision" text-rendering="geometricPrecision" project-id="a540e8e133bc4aa5a5fededf58b6baf4" export-id="58ce46443aef40e88058b7d93ebc4819" cached="false" style="background-color:transparent">
<style><![CDATA[
#evVkep4CKHM290_ts {animation: evVkep4CKHM290_ts__ts 4972ms linear infinite normal forwards}@keyframes evVkep4CKHM290_ts__ts { 0% {transform: translate(614.423px,375.89px) scale(0,0)} 36.906677% {transform: translate(614.423px,375.89px) scale(0,0);animation-timing-function: cubic-bezier(0.167,0.167,0,1)} 46.983105% {transform: translate(614.423px,375.89px) scale(1,1)} 100% {transform: translate(614.423px,375.89px) scale(1,1)}} #evVkep4CKHM290 {animation: evVkep4CKHM290_c_o 4972ms linear infinite normal forwards}@keyframes evVkep4CKHM290_c_o { 0% {opacity: 1;animation-timing-function: step-end} 73.813355% {opacity: 0} 100% {opacity: 0}} #evVkep4CKHM351 {animation: evVkep4CKHM351_c_o 4972ms linear infinite normal forwards}@keyframes evVkep4CKHM351_c_o { 0% {opacity: 1;animation-timing-function: step-end} 73.813355% {opacity: 0} 100% {opacity: 0}} #evVkep4CKHM352_ts {animation: evVkep4CKHM352_ts__ts 4972ms linear infinite normal forwards}@keyframes evVkep4CKHM352_ts__ts { 0% {transform: translate(614.424px,555.656px) scale(0,0)} 37.590507% {transform: translate(614.424px,555.656px) scale(0,0);animation-timing-function: cubic-bezier(0.167,0.167,0,1)} 47.646822% {transform: translate(614.424px,555.656px) scale(1,1)} 100% {transform: translate(614.424px,555.656px) scale(1,1)}} #evVkep4CKHM382_ts {animation: evVkep4CKHM382_ts__ts 4972ms linear infinite normal forwards}@keyframes evVkep4CKHM382_ts__ts { 0% {transform: translate(614.423px,375.89px) scale(0,0)} 36.906677% {transform: translate(614.423px,375.89px) scale(0,0);animation-timing-function: cubic-bezier(0.167,0.167,0,1)} 46.983105% {transform: translate(614.423px,375.89px) scale(1,1)} 100% {transform: translate(614.423px,375.89px) scale(1,1)}} #evVkep4CKHM383 {animation: evVkep4CKHM383_c_o 4972ms linear infinite normal forwards}@keyframes evVkep4CKHM383_c_o { 0% {opacity: 0} 70.937249% {opacity: 0;animation-timing-function: step-end} 71.138375% {opacity: 1;animation-timing-function: step-end} 73.813355% {opacity: 0} 100% {opacity: 0}} #evVkep4CKHM385 {animation: evVkep4CKHM385_c_o 4972ms linear infinite normal forwards}@keyframes evVkep4CKHM385_c_o { 0% {opacity: 0} 70.937249% {opacity: 0;animation-timing-function: step-end} 71.138375% {opacity: 1;animation-timing-function: step-end} 73.813355% {opacity: 0} 100% {opacity: 0}} #evVkep4CKHM386_ts {animation: evVkep4CKHM386_ts__ts 4972ms linear infinite normal forwards}@keyframes evVkep4CKHM386_ts__ts { 0% {transform: translate(630.424px,572.656px) scale(0,0)} 37.590507% {transform: translate(630.424px,572.656px) scale(0,0);animation-timing-function: cubic-bezier(0.167,0.167,0,1)} 47.646822% {transform: translate(630.424px,572.656px) scale(1,1)} 100% {transform: translate(630.424px,572.656px) scale(1,1)}} #evVkep4CKHM416_ts {animation: evVkep4CKHM416_ts__ts 4972ms linear infinite normal forwards}@keyframes evVkep4CKHM416_ts__ts { 0% {transform: translate(614.423px,375.89px) scale(0,0)} 36.906677% {transform: translate(614.423px,375.89px) scale(0,0);animation-timing-function: cubic-bezier(0.167,0.167,0,1)} 46.983105% {transform: translate(614.423px,375.89px) scale(1,1)} 100% {transform: translate(614.423px,375.89px) scale(1,1)}} #evVkep4CKHM417 {animation: evVkep4CKHM417_c_o 4972ms linear infinite normal forwards}@keyframes evVkep4CKHM417_c_o { 0% {opacity: 1;animation-timing-function: step-end} 73.813355% {opacity: 0} 100% {opacity: 0}} #evVkep4CKHM444_to {animation: evVkep4CKHM444_to__to 4972ms linear infinite normal forwards}@keyframes evVkep4CKHM444_to__to { 0% {offset-distance: 0%} 13.415125% {offset-distance: 0%;animation-timing-function: cubic-bezier(0.333,0,0.667,1)} 33.547868% {offset-distance: 69.253615%} 49.658085% {offset-distance: 69.253615%;animation-timing-function: cubic-bezier(0.333,0,0.667,1)} 70.474658% {offset-distance: 100%} 100% {offset-distance: 100%}} #evVkep4CKHM444_ts {animation: evVkep4CKHM444_ts__ts 4972ms linear infinite normal forwards}@keyframes evVkep4CKHM444_ts__ts { 0% {transform: rotate(-38deg) scale(0.78,0.78)} 35.559131% {transform: rotate(-38deg) scale(0.78,0.78);animation-timing-function: cubic-bezier(0.333,0,0.667,1)} 36.906677% {transform: rotate(-38deg) scale(0.56,0.56);animation-timing-function: cubic-bezier(0.333,0,0.667,1)} 38.254224% {transform: rotate(-38deg) scale(0.78,0.78)} 100% {transform: rotate(-38deg) scale(0.78,0.78)}}
]]></style>
<g transform="translate(9.451 8.124)"><g transform="translate(515.609 380.767)"><path d="M513.092,-322.703c0,0,0,629.736,0,629.736c0,8.645-7.064,15.67-15.754,15.67c0,0-994.694,0-994.694,0-8.689,0-15.753-7.025-15.753-15.67c0,0,0-629.736,0-629.736s1026.218,0,1026.218,0" fill="#fbf6f4" stroke-width="0"/></g><g transform="translate(515.609 380.767)"><path d="M513.092,-322.703c0,0,0,629.736,0,629.736c0,8.645-7.064,15.67-15.754,15.67c0,0-994.694,0-994.694,0-8.689,0-15.753-7.025-15.753-15.67c0,0,0-629.736,0-629.736s1026.218,0,1026.218,0" paint-order="stroke fill markers" fill="none" fill-rule="evenodd" stroke="#ffdfdd" stroke-miterlimit="10"/></g><g transform="translate(515.488 31.352998)"><path d="M513.141,28.563c0,0-1026.135,2.59-1026.135,2.59s-.115-42.015-.115-42.015c-.033-9.783,7.909-17.734,17.737-17.75c0,0,990.578-2.508,990.578-2.508c9.812-.033,17.804,7.886,17.82,17.668c0,0,.115,42.015.115,42.015Z" fill="#5f0b22" stroke-width="0"/></g><g transform="translate(160.153 45.581)"><path d="M1.632,-1.533c-.248-.071-.532-.177-.798-.248s-.479-.16-.674-.248c-.178-.071-.337-.177-.444-.301-.071-.107-.124-.213-.124-.355c0-.23.107-.407.284-.567.213-.159.479-.23.851-.23.284,0,.586.053.905.177s.639.301.976.585c0,0,.248.212.248.212s1.508-2.976,1.508-2.976-.231-.124-.231-.124c-.621-.337-1.277-.585-1.951-.745-1.401-.354-2.75-.336-3.796.053-.568.213-1.029.479-1.401.869-.373.39-.692.815-.905,1.329-.213.513-.302,1.098-.302,1.736s.107,1.17.302,1.613c.213.407.479.797.816,1.045.337.284.71.479,1.135.674.39.159.798.301,1.206.443.355.124.639.23.87.301.23.071.407.177.532.283.124.071.213.177.248.284.053.106.071.23.071.354c0,.23-.106.443-.302.62-.212.177-.532.284-.975.284-.408,0-.852-.107-1.277-.284-.444-.212-.905-.478-1.331-.903c0,0-.248-.213-.248-.213s-1.614,3.048-1.614,3.048.177.124.177.124c1.366.939,2.838,1.4,4.435,1.4.763,0,1.454-.107,2.075-.301.621-.195,1.153-.514,1.561-.904.443-.39.763-.851.993-1.382.231-.532.337-1.134.337-1.79c0-.975-.248-1.79-.762-2.41-.532-.585-1.331-1.081-2.413-1.453c0,0,.018,0,.018,0Z" fill="#fff" stroke-width="0"/></g><g transform="translate(169.784 45.643)"><path d="M-4.434,-3.172c0,0,2.625,0,2.625,0s0,9.516,0,9.516s3.653,0,3.653,0s0-9.516,0-9.516s2.59,0,2.59,0s0-3.172,0-3.172-8.868,0-8.868,0s0,3.172,0,3.172Z" fill="#fff" stroke-width="0"/></g><g transform="translate(204.028 45.67)"><path d="M1.551,1.213c.746-.23,1.332-.62,1.739-1.151.48-.62.711-1.436.711-2.41c0-.532-.072-1.081-.25-1.542-.176-.478-.443-.921-.797-1.276-.356-.354-.799-.673-1.332-.868-.531-.213-1.151-.301-1.879-.301c0,0-5.181,0-5.181,0s0,12.67,0,12.67s3.674,0,3.674,0s0-4.076,0-4.076s2.606,4.076,2.606,4.076s4.596,0,4.596,0-3.903-5.122-3.903-5.122.016,0,.016,0Z" fill="#fff" stroke-width="0"/><path d="M-1.783,-3.429c0,0,.338,0,.338,0c.568,0,.993.106,1.276.337.248.212.409.513.409.921s-.126.691-.409.922c-.283.23-.708.336-1.276.336c0,0-.338,0-.338,0s0-2.516,0-2.516Z" fill="#5f0b22" stroke-width="0"/></g><g transform="translate(50.769 30.236)"><path d="M2.812,-7.682c0,0-2.804,7.461-2.804,7.461s-2.783-7.461-2.783-7.461-4.241,0-4.241,0-2.606,15.364-2.606,15.364s4.38,0,4.38,0s1.153-7.815,1.153-7.815s3.051,7.815,3.051,7.815s1.899,0,1.899,0s3.228-7.833,3.228-7.833s1.171,7.833,1.171,7.833s4.362,0,4.362,0-2.606-15.364-2.606-15.364-4.204,0-4.204,0Z" fill="#fff" stroke-width="0"/></g><g transform="translate(69.075 30.218)"><path d="M-2.298,-7.663c0,0-5.871,15.362-5.871,15.362s4.683,0,4.683,0s.905-2.586.905-2.586s5.162,0,5.162,0s.905,2.586.905,2.586s4.683,0,4.683,0-5.872-15.398-5.872-15.398-4.595.018-4.595.018s0,.018,0,.018Z" fill="#fff" stroke-width="0"/><path d="M1.375,1.674c0,0-2.751,0-2.751,0s1.384-3.915,1.384-3.915s1.367,3.915,1.367,3.915Z" fill="#5f0b22" stroke-width="0"/></g><g transform="translate(84.304 30.271)"><path d="M4.009,0.044c.586-.744.87-1.718.87-2.888c0-.673-.107-1.276-.337-1.878-.213-.585-.533-1.099-.976-1.542-.444-.443-.976-.797-1.614-1.045-.639-.248-1.401-.39-2.253-.39c0,0-6.28,0-6.28,0s0,15.398,0,15.398s4.382,0,4.382,0s0-5.156,0-5.156s3.299,5.103,3.299,5.103s5.481,0,5.481,0-4.771-6.202-4.771-6.202c.922-.283,1.667-.744,2.182-1.4c0,0,.017,0,.017,0Z" fill="#fff" stroke-width="0"/><path d="M-2.199,-4.226c0,0,.478,0,.478,0c.692,0,1.225.124,1.597.408.355.248.515.637.515,1.151s-.16.904-.515,1.152c-.354.284-.905.408-1.597.408c0,0-.478,0-.478,0s0-3.119,0-3.119Z" fill="#5f0b22" stroke-width="0"/></g><g transform="translate(98.751 30.235)"><path d="M6.821,-7.682c0,0-5.464,0-5.464,0s-4.328,5.635-4.328,5.635s0-5.635,0-5.635-4.382,0-4.382,0s0,15.364,0,15.364s4.382,0,4.382,0s0-5.937,0-5.937s4.666,5.937,4.666,5.937s5.658,0,5.658,0-6.669-8.062-6.669-8.062s6.137-7.302,6.137-7.302Z" fill="#fff" stroke-width="0"/></g><g transform="translate(111.117 30.235)"><path d="M-4.497,7.681c0,0,8.994,0,8.994,0s0-3.756,0-3.756-4.613,0-4.613,0s0-2.055,0-2.055s4.365,0,4.365,0s0-3.792,0-3.792-4.365,0-4.365,0s0-1.967,0-1.967s4.613,0,4.613,0s0-3.792,0-3.792-8.994,0-8.994,0s0,15.362,0,15.362Z" fill="#fff" stroke-width="0"/></g><g transform="translate(121.751 30.235)"><path d="M-5.357,-3.89c0,0,3.14,0,3.14,0s0,11.572,0,11.572s4.399,0,4.399,0s0-11.572,0-11.572s3.175,0,3.175,0s0-3.792,0-3.792-10.714,0-10.714,0s0,3.792,0,3.792Z" fill="#fff" stroke-width="0"/></g><g transform="translate(130.061 30.253)"><path d="M2.191,-7.699c0,0-4.381,0-4.381,0s0,15.398,0,15.398s4.381,0,4.381,0s0-15.398,0-15.398Z" fill="#fff" stroke-width="0"/></g><g transform="translate(140.721 30.235)"><path d="M3.326,0.93c0,0-6.759-8.612-6.759-8.612s-4.257,0-4.257,0s0,15.364,0,15.364s4.381,0,4.381,0s0-8.594,0-8.594s6.758,8.594,6.758,8.594s4.24,0,4.24,0s0-15.364,0-15.364-4.363,0-4.363,0s0,8.612,0,8.612Z" fill="#fff" stroke-width="0"/></g><g transform="translate(156.95 30.2)"><path d="M-0.115,-1.125c0,0,0,3.509,0,3.509s3.122,0,3.122,0c-.071.283-.16.514-.284.708-.16.284-.39.479-.621.674-.248.177-.532.301-.869.39-.337.088-.692.124-1.046.124-.621,0-1.154-.107-1.597-.302s-.816-.478-1.135-.85c-.302-.355-.532-.815-.692-1.311-.16-.514-.231-1.081-.231-1.684c0-.673.107-1.276.284-1.825.178-.549.444-.992.745-1.364.302-.355.692-.674,1.136-.851.443-.213.922-.301,1.454-.301.639,0,1.224.177,1.721.478.514.337.922.869,1.224,1.631c0,0,.106.23.106.23s4.151-1.719,4.151-1.719-.124-.248-.124-.248c-.71-1.453-1.668-2.534-2.892-3.225-1.206-.691-2.607-1.046-4.204-1.046-1.224,0-2.359.213-3.352.585-.994.39-1.88.939-2.59,1.666-.709.726-1.277,1.559-1.667,2.569-.391,1.01-.586,2.109-.586,3.278c0,1.17.213,2.304.586,3.296.372.993.94,1.879,1.667,2.57.71.708,1.561,1.275,2.537,1.665.975.39,2.075.585,3.263.585.87,0,1.685-.106,2.484-.337.798-.23,1.508-.531,2.181-.939.675-.407,1.26-.939,1.739-1.559s.869-1.329,1.153-2.126c.213-.568.337-1.205.408-1.843s.106-1.383.106-2.18c0,0,0-.248,0-.248s-8.177,0-8.177,0Z" fill="#fff" stroke-width="0"/></g><g transform="translate(185.634 40.433)"><path d="M19.273,-11.323c0,0-31.201,22.646-31.201,22.646s2.625-10.26,2.625-10.26s17.685-8.594,17.685-8.594-18.874,6.007-18.874,6.007-8.78-9.799-8.78-9.799s38.545,0,38.545,0Z" fill="#f00" stroke-width="0"/></g><g transform="translate(185.624 21.163)"><path d="M-5.96,6.033c0,0,5.96-12.066,5.96-12.066s5.96,12.066,5.96,12.066-11.92,0-11.92,0Z" fill="#fff" stroke-width="0"/></g><g transform="translate(191.575 45.129)"><path d="M3.698,-6.627c0,0,2.253,13.254,2.253,13.254s-11.902-6.255-11.902-6.255s9.649-6.999,9.649-6.999Z" fill="#fff" stroke-width="0"/></g></g><g transform="translate(360.305 26.639)"><g transform="translate(28.419 44.717)"><path d="M0,27.086C15.005,27.086,27.169,14.959,27.169,0c0-14.96-12.164-27.086-27.169-27.086s-27.169,12.126-27.169,27.086c0,14.959,12.164,27.086,27.169,27.086Z" fill="#fff" stroke-width="0"/></g><g transform="translate(28.419 44.717)"><path d="M0,27.086C15.005,27.086,27.169,14.959,27.169,0c0-14.96-12.164-27.086-27.169-27.086s-27.169,12.126-27.169,27.086c0,14.959,12.164,27.086,27.169,27.086Z" paint-order="stroke fill markers" fill="none" fill-rule="evenodd" stroke="#e4e4e4" stroke-width="0.5" stroke-miterlimit="10"/></g><g transform="translate(38.629 45.599)"><path d="M8.19,7.514c-.76-.363-1.555-.66-2.382-.891-.049-.016-2.581-.676-3.772-1.319c0,0-.099-.066-.099-.066-.248-.165-.415-.446-.415-.743c0,0,0-1.567,0-1.567s3.476.099,5.113-1.584c0,0-2.399-.676-1.984-5.031.412-4.355-.563-8.182-4.087-7.852c0,0-1.523-1.831-4.551-.66-1.043.413-3.822,1.402-3.674,7.44.167,6.038-2.135,6.087-2.135,6.087s1.208,1.716,5.213,1.666c0,0,0,1.501,0,1.501c0,.264-.131.495-.33.676c1.191.99,2.134,2.013,2.828,3.531.728,1.583.745,3.085.944,4.668c0,0,7.677,0,7.677,0c1.804-.033,3.26-1.485,3.26-3.283c0,0,0-.297,0-.297-.1-.989-.711-1.864-1.621-2.293c0,0,.015.017.015.017Z" fill="#460000" stroke-width="0"/></g><g transform="translate(22.25 44.618)"><path d="M13.237,11.564c-.645-2.045-1.755-3.332-3.426-4.602-.017-.017-.034-.05-.051-.066C8.174,5.79,4.898,4.52,3.176,3.629c0,0,.034-1.666.034-1.666c1.009-.445,1.636-2.771,1.786-3.447.347.198.845.066,1.391-1.897.48-1.634.199-2.161-.216-2.293c0,0-.132,0-.132,0c.066-.198.066-.347.066-.347c1.521-6.235-2.052-5.955-2.052-5.955-.282-1.22-2.101-2.491-3.789-2.161-1.671.347-5.178-.049-5.178-.049-.067.742.562,1.22.562,1.22-3.558,2.112-2.086,6.978-2.086,6.978-.562-.066-1.19.281-.545,2.31.43,1.484.843,1.897,1.19,1.963.151.874.927,3.183,1.771,3.711c0,0,0,1.666,0,1.666-2.564,1.337-6.618,3.217-8.85,5.048-.597.495-.928,1.237-.913,1.996c0,0,0,1.138,0,1.138c0,1.452,1.194,2.623,2.633,2.607c0,0,24.951-.066,24.951-.066s-.545-2.821-.545-2.821-.017,0-.017,0Z" fill="#fc4c00" stroke-width="0"/></g><g transform="translate(300.882 43.991)"><path d="M0,27.086C15.005,27.086,27.169,14.959,27.169,0c0-14.96-12.164-27.086-27.169-27.086s-27.169,12.126-27.169,27.086c0,14.959,12.164,27.086,27.169,27.086Z" fill="#fff" stroke-width="0"/></g><g transform="translate(300.882 43.991)"><path d="M0,27.086C15.005,27.086,27.169,14.959,27.169,0c0-14.96-12.164-27.086-27.169-27.086s-27.169,12.126-27.169,27.086c0,14.959,12.164,27.086,27.169,27.086Z" paint-order="stroke fill markers" fill="none" fill-rule="evenodd" stroke="#e4e4e4" stroke-width="0.5" stroke-miterlimit="10"/></g><g transform="translate(91.593 43.315)"><path d="M0,29.561C16.374,29.561,29.65,16.326,29.65,0s-13.276-29.561-29.65-29.561c-16.376,0-29.65,13.235-29.65,29.561s13.274,29.561,29.65,29.561Z" fill="#fc4c00" stroke-width="0"/></g><g transform="translate(164.624 36.964)"><path d="M0.001,35.714c19.784,0,35.821-15.99,35.821-35.714s-16.037-35.714-35.821-35.714-35.823,15.99-35.823,35.714s16.039,35.714,35.823,35.714Z" fill="#fff" stroke-width="0"/></g><g transform="translate(165.002 36.974)"><path d="M0.001,35.714c19.784,0,35.821-15.99,35.821-35.714s-16.037-35.714-35.821-35.714-35.823,15.99-35.823,35.714s16.039,35.714,35.823,35.714Z" paint-order="stroke fill markers" fill="none" fill-rule="evenodd" stroke="#e4e4e4" stroke-width="0.5" stroke-miterlimit="10"/></g><g transform="translate(237.71 42.919)"><path d="M0,29.561C16.376,29.561,29.65,16.326,29.65,0s-13.274-29.561-29.65-29.561c-16.375,0-29.65,13.235-29.65,29.561s13.275,29.561,29.65,29.561Z" fill="#fff" stroke-width="0"/></g><g transform="translate(237.71 42.919)"><path d="M0,29.561C16.376,29.561,29.65,16.326,29.65,0s-13.274-29.561-29.65-29.561c-16.375,0-29.65,13.235-29.65,29.561s13.275,29.561,29.65,29.561Z" paint-order="stroke fill markers" fill="none" fill-rule="evenodd" stroke="#e4e4e4" stroke-width="0.5" stroke-miterlimit="10"/></g><g transform="translate(88.812 37.368)"><path d="M16.132,-10.071c0,0-31.619,13.675-31.619,13.675-.63.281-.645,1.155-.051,1.485c0,0,9.135,4.982,9.135,4.982s22.535-20.142,22.535-20.142Z" fill="#fff" stroke-width="0"/></g><g transform="translate(95.364 43.15)"><path d="M-10.771,6.285c0,0,20.483-22.006,20.483-22.006.414-.445,1.142-.049,1.009.545c0,0-6.949,29.445-6.949,29.445-.182.759-1.043,1.122-1.72.726c0,0-6.354-3.778-6.354-3.778-.131-.082-.296-.049-.396.05c0,0-4.169,4.173-4.169,4.173-.73.726-1.97.215-1.987-.808c0,0,0-8.133,0-8.133s-.001-.165.065-.214c0,0,.018,0,.018,0Z" fill="#fff" stroke-width="0"/></g><g transform="translate(300.869 34.784)"><path d="M13.331,-2.526c0,0-26.674.07-26.674.07-.866.002-1.571.706-1.567,1.571c0,0,.005,1.848.005,1.848.002.865.709,1.565,1.575,1.563c0,0,26.673-.07,26.673-.07.867-.002,1.571-.706,1.567-1.571c0,0-.003-1.848-.003-1.848-.002-.865-.709-1.565-1.576-1.563Z" fill="#460000" stroke-width="0"/></g><g transform="translate(311.086 34.741)"><path d="M2.327,-5.203c0,0-4.682.013-4.682.013s.029,10.393.029,10.393s4.681-.013,4.681-.013-.028-10.393-.028-10.393Z" fill="#fff" stroke-width="0"/></g><g transform="translate(311.16 34.741)"><path d="M1.343,-5.2c0,0-2.714.007-2.714.007s.028,10.393.028,10.393s2.714-.008,2.714-.008-.028-10.392-.028-10.392Z" fill="#fc4c00" stroke-width="0"/></g><g transform="translate(300.88 45.176)"><path d="M13.331,-2.526c0,0-26.674.07-26.674.07-.866.002-1.571.706-1.567,1.571c0,0,.005,1.848.005,1.848.002.865.707,1.565,1.575,1.563c0,0,26.672-.07,26.672-.07.869-.003,1.572-.706,1.568-1.572c0,0-.003-1.847-.003-1.847-.002-.865-.709-1.565-1.576-1.563Z" fill="#460000" stroke-width="0"/></g><g transform="translate(300.624 45.095)"><path d="M2.327,-5.203c0,0-4.682.013-4.682.013s.027,10.393.027,10.393s4.683-.013,4.683-.013-.028-10.393-.028-10.393Z" fill="#fff" stroke-width="0"/></g><g transform="translate(300.616 45.177)"><path d="M1.343,-5.2c0,0-2.714.007-2.714.007s.028,10.393.028,10.393s2.714-.008,2.714-.008-.028-10.392-.028-10.392Z" fill="#fc4c00" stroke-width="0"/></g><g transform="translate(300.907 55.569)"><path d="M13.33,-2.526c0,0-26.673.07-26.673.07-.868.002-1.57.706-1.568,1.571c0,0,.007,1.848.007,1.848.002.865.706,1.565,1.574,1.563c0,0,26.672-.07,26.672-.07.869-.003,1.571-.706,1.569-1.571c0,0-.005-1.848-.005-1.848-.002-.865-.708-1.565-1.576-1.563Z" fill="#460000" stroke-width="0"/></g><g transform="translate(290.872 55.546)"><path d="M2.327,-5.203c0,0-4.682.013-4.682.013s.027,10.393.027,10.393s4.683-.013,4.683-.013-.028-10.393-.028-10.393Z" fill="#fff" stroke-width="0"/></g><g transform="translate(290.765 55.596)"><path d="M1.343,-5.2c0,0-2.714.007-2.714.007s.028,10.393.028,10.393s2.714-.008,2.714-.008-.028-10.392-.028-10.392Z" fill="#fc4c00" stroke-width="0"/></g><g transform="translate(174.761 16.27)"><path d="M-4.31,3.093c0,0,3.774-5.526,3.774-5.526s3.887-3.464,4.367-1.072c.479,2.391.115,3.447.115,3.447s-2.812,5.955-2.812,5.955-3.142-2.326-5.444-2.804Z" fill="#fff" stroke-width="0"/></g><g transform="translate(164.635 27.281)"><path d="M-18.108,12.949c-.315-1.336-.463-2.722-.463-4.107-.034-10.212,8.288-18.541,18.531-18.574c10.241-.033,18.597,8.263,18.631,18.474c0,1.254-.116,2.508-.364,3.745-.116.594-.281,1.171-.448,1.732c0,0,4.731,0,4.731,0c.068-.28.151-.561.2-.825.315-1.517.462-3.084.462-4.652-.032-12.734-10.455-23.061-23.212-23.028-12.758.033-23.132,10.427-23.098,23.145c0,1.732.197,3.447.578,5.113.032.115.067.231.101.346c0,0,4.747,0,4.747,0-.131-.462-.266-.907-.382-1.369c0,0-.014,0-.014,0Z" fill="#460000" stroke-width="0"/></g><g transform="translate(164.653 42.383)"><path d="M-17.15,0.899c0,0,34.267-.099,34.267-.099.231-.561.448-1.122.629-1.699c0,0-35.492.099-35.492.099.182.577.381,1.155.612,1.699c0,0-.016,0-.016,0Z" fill="#fff" stroke-width="0"/></g><g transform="translate(141.555 42.449)"><path d="M-1.05,-0.85c0,0,0,1.7,0,1.7s2.118,0,2.118,0c-.182-.561-.333-1.123-.482-1.7c0,0-1.654,0-1.654,0s.018,0,.018,0Z" fill="#fff" stroke-width="0"/></g><g transform="translate(188.064 42.317)"><path d="M1.415,-0.85c0,0-2.35,0-2.35,0-.133.577-.298,1.156-.48,1.7c0,0,2.83,0,2.83,0s0-1.7,0-1.7Z" fill="#fff" stroke-width="0"/></g><g transform="translate(144.838 42.441)"><path d="M2.068,-0.858c0,0-4.749,0-4.749,0c.15.594.298,1.155.48,1.716c0,0,4.882,0,4.882,0-.232-.561-.431-1.138-.613-1.716Z" fill="#fff" stroke-width="0"/></g><g transform="translate(184.451 42.326)"><path d="M-2.052,-0.842c-.182.577-.398,1.156-.628,1.7c0,0,4.88,0,4.88,0c.182-.577.33-1.139.48-1.716c0,0-4.732,0-4.732,0s0,.016,0,.016Z" fill="#fff" stroke-width="0"/></g><g transform="translate(164.666 51.203)"><path d="M0.051,3.406c-7.645.016-14.313-4.503-17.175-11.3c0,0-4.883,0-4.883,0C-18.912,1.575,-10.126,8.008,0.051,7.975c10.076-.033,18.91-6.615,21.956-15.984c0,0-4.882,0-4.882,0C14.297,-1.246,7.595,3.373,0.034,3.406c0,0,.017,0,.017,0Z" fill="#fff" stroke-width="0"/></g><g transform="translate(175.926 18.176)"><path d="M-6.486,2.837c0,0,5.94-8.726,5.94-8.726s7.032-.33,5.13,3.596C2.68,1.649,0.778,6.219,0.778,6.219s-3.524-3.283-7.247-3.382c0,0-.017,0-.017,0Z" fill="#fff" stroke-width="0"/></g><g transform="translate(169.342 28.056)"><path d="M-2.3,12.603c0,0,12.094-26.014,12.094-26.014.267-.528-.001-1.337-.547-1.601-.545-.263-1.339-.131-1.736.413c0,0-16.644,23.358-16.644,23.358s0,.132,0,.132c-.795,1.337-.928,2.805-.25,3.992.266.528.812,1.056,1.341,1.468.943.66,2.001.924,2.944.66c1.077-.396,2.136-1.204,2.798-2.408Z" fill="#f00" stroke-width="0"/></g><g transform="translate(225.676 53.109)"><path d="M1.701,-4.673c0,0-3.426.009-3.426.009-.576.001-1.041.468-1.039,1.042c0,0,.02,7.258.02,7.258.002.574.469,1.038,1.044,1.037c0,0,3.425-.009,3.425-.009.576-.002,1.041-.468,1.039-1.042c0,0-.018-7.259-.018-7.259-.002-.573-.469-1.038-1.045-1.036Z" fill="#460000" stroke-width="0"/></g><g transform="translate(236.569 48.602)"><path d="M1.689,-9.136c0,0-3.425.01-3.425.01-.576.002-1.041.467-1.041,1.041c0,0,.043,16.183.043,16.183.002.573.469,1.038,1.045,1.036c0,0,3.425-.008,3.425-.008.576-.001,1.041-.468,1.041-1.042c0,0-.043-16.182-.043-16.182-.002-.574-.469-1.039-1.045-1.038Z" fill="#460000" stroke-width="0"/></g><g transform="translate(247.473 42.94)"><path d="M1.673,-14.785c0,0-3.425.009-3.425.009-.576.001-1.041.468-1.039,1.042c0,0,.073,27.482.073,27.482c0,.574.469,1.038,1.045,1.037c0,0,3.425-.009,3.425-.009.576-.002,1.041-.468,1.039-1.042c0,0-.071-27.483-.071-27.483-.002-.573-.471-1.038-1.047-1.036Z" fill="#fc4c00" stroke-width="0"/></g></g><g transform="translate(34.999 294.233)"><g transform="translate(505 170.163)"><path d="M481.746,153.982c0,0-963.492,0-963.492,0-3.945,0-7.141-3.197-7.141-7.141c0,0,0-293.681,0-293.681c0-3.944,3.196-7.142,7.141-7.142c0,0,963.492,0,963.492,0c3.944,0,7.141,3.198,7.141,7.142c0,0,0,293.681,0,293.681c0,3.944-3.197,7.141-7.141,7.141Z" fill="#fefefe" stroke-width="0"/></g><g transform="translate(505 170.163)"><path d="M481.746,153.982c0,0-963.492,0-963.492,0-3.945,0-7.141-3.197-7.141-7.141c0,0,0-293.681,0-293.681c0-3.944,3.196-7.142,7.141-7.142c0,0,963.492,0,963.492,0c3.944,0,7.141,3.198,7.141,7.142c0,0,0,293.681,0,293.681c0,3.944-3.197,7.141-7.141,7.141Z" paint-order="stroke fill markers" fill="none" fill-rule="evenodd" stroke="#ffdfdd" stroke-miterlimit="10"/></g><g transform="translate(504.998 53.536)"><path d="M489.437,-30.358c0,0,0,60.717,0,60.717c0,3.863-3.132,6.996-6.996,6.996c0,0-964.877,0-964.877,0-3.848,0-6.996-3.149-6.996-6.996c0,0,0-60.717,0-60.717c0-3.848,3.148-6.996,6.996-6.996c0,0,964.877,0,964.877,0c3.864,0,6.996,3.132,6.996,6.996Z" fill="#ffe7e4" stroke-width="0"/></g><g transform="translate(148.466 58.793)"><path d="M-106.994,-10.173c0,0,0,20.346,0,20.346s213.988,0,213.988,0s0-19.073,0-19.073" paint-order="stroke fill markers" fill="none" fill-rule="evenodd" stroke="#5f0b22" stroke-width="0.75" stroke-linecap="round" stroke-linejoin="round"/></g><g transform="translate(54.851 55.32)"><path d="M-4.132,-6.072c0,0,4.249,0,4.249,0c.69,0,1.295.094,1.819.284.523.189.941.454,1.256.797.314.342.549.737.705,1.185s.235.947.235,1.498c0,.629-.104,1.184-.31,1.665-.206.482-.499.874-.881,1.177-.381.303-.828.53-1.342.68-.515.15-1.095.226-1.741.226c0,0-2.504,0-2.504,0s0,4.632,0,4.632-1.486,0-1.486,0s0-12.144,0-12.144Z" fill="#4c4c4c" stroke-width="0"/><path d="M-0.275,0.071c.495,0,.928-.06,1.301-.18.373-.119.67-.289.893-.509.222-.22.39-.473.502-.759.111-.287.166-.608.166-.965c0-.756-.232-1.339-.696-1.748-.465-.409-1.11-.613-1.934-.613c0,0-2.603,0-2.603,0s0,4.774,0,4.774s2.371,0,2.371,0Z" fill="#ffe7e4" stroke-width="0"/></g><g transform="translate(64.581 57.235)"><path d="M4.174,-4.164c0,0,0,8.321,0,8.321s-1.328,0-1.328,0s0-1.319,0-1.319-.024,0-.024,0c-.339.451-.759.801-1.257,1.052-.498.25-1.05.375-1.656.375-.568,0-1.103-.101-1.604-.304s-.932-.486-1.297-.847c-.364-.362-.652-.807-.863-1.336-.212-.528-.319-1.104-.319-1.727c0-.813.175-1.547.523-2.204s.833-1.173,1.456-1.548c.624-.376,1.322-.564,2.096-.564.573,0,1.105.114,1.597.342s.912.56,1.257.994c0,0,.032,0,.032,0s0-1.235,0-1.235s1.387,0,1.387,0Z" fill="#4c4c4c" stroke-width="0"/><path d="M1.111,2.784c.339-.142.636-.339.892-.593.256-.253.459-.564.609-.934s.227-.77.227-1.198c0-.423-.072-.822-.214-1.198-.142-.375-.335-.7-.579-.972-.245-.273-.54-.488-.885-.647s-.713-.238-1.102-.238c-.807,0-1.479.281-2.015.843-.537.562-.807,1.299-.807,2.212c0,.851.259,1.554.776,2.107.518.554,1.194.831,2.029.831.372,0,.729-.071,1.069-.213Z" fill="#ffe7e4" stroke-width="0"/></g><g transform="translate(73.54 57.181)"><path d="M2.233,-4.194c0,0,0,1.527,0,1.527-.2-.016-.385-.025-.552-.025-.517,0-.968.125-1.352.376-.384.25-.676.592-.876,1.026-.201.434-.301.929-.301,1.486c0,0,0,4.015,0,4.015s-1.385,0-1.385,0s0-8.322,0-8.322s1.385,0,1.385,0s0,1.453,0,1.453.034,0,.034,0c.311-.495.699-.878,1.164-1.148s.978-.405,1.54-.405c.161,0,.276.006.343.017Z" fill="#4c4c4c" stroke-width="0"/></g><g transform="translate(80.826 57.235)"><path d="M4.174,-4.164c0,0,0,8.321,0,8.321s-1.328,0-1.328,0s0-1.319,0-1.319-.024,0-.024,0c-.339.451-.759.801-1.257,1.052-.498.25-1.05.375-1.656.375-.568,0-1.103-.101-1.604-.304s-.932-.486-1.297-.847c-.364-.362-.652-.807-.863-1.336-.212-.528-.319-1.104-.319-1.727c0-.813.175-1.547.523-2.204s.833-1.173,1.456-1.548c.624-.376,1.322-.564,2.096-.564.573,0,1.105.114,1.597.342s.912.56,1.257.994c0,0,.032,0,.032,0s0-1.235,0-1.235s1.387,0,1.387,0Z" fill="#4c4c4c" stroke-width="0"/><path d="M1.111,2.784c.339-.142.636-.339.892-.593.256-.253.459-.564.609-.934s.227-.77.227-1.198c0-.423-.072-.822-.214-1.198-.142-.375-.335-.7-.579-.972-.245-.273-.54-.488-.885-.647s-.713-.238-1.102-.238c-.807,0-1.479.281-2.015.843-.537.562-.807,1.299-.807,2.212c0,.851.259,1.554.776,2.107.518.554,1.194.831,2.029.831.372,0,.729-.071,1.069-.213Z" fill="#ffe7e4" stroke-width="0"/></g><g transform="translate(91.13 58.922)"><path d="M4.119,-5.851c0,0,0,7.695,0,7.695c0,.612-.079,1.166-.238,1.658-.159.493-.398.923-.718,1.293-.32.369-.745.656-1.277.856-.531.2-1.15.3-1.857.3-1.269,0-2.398-.301-3.389-.902c0,0,.334-1.276.334-1.276.523.301,1.013.522,1.469.664s.963.211,1.519.211c.457,0,.866-.064,1.227-.192.362-.127.657-.302.885-.524.228-.223.401-.481.517-.773.117-.292.176-.611.176-.956c0,0,0-1.159,0-1.159s-.042,0-.042,0c-.696.846-1.636,1.268-2.821,1.268-.551,0-1.071-.098-1.561-.296-.489-.197-.917-.473-1.281-.826-.365-.354-.653-.791-.864-1.312-.212-.52-.317-1.083-.317-1.69c0-.773.171-1.476.513-2.107.342-.632.815-1.128,1.419-1.49s1.278-.542,2.024-.542c.562,0,1.092.107,1.59.321s.925.524,1.281.93c0,0,.034,0,.034,0s0-1.151,0-1.151s1.377,0,1.377,0Z" fill="#4c4c4c" stroke-width="0"/><path d="M2.024,0.204c.512-.542.768-1.234.768-2.074c0-.829-.265-1.503-.793-2.02-.529-.517-1.191-.776-1.987-.776-.79,0-1.441.267-1.953.801s-.767,1.205-.767,2.011c0,.346.045.671.137.977s.221.573.388.801c.167.229.363.427.589.594.225.167.475.292.751.375.275.084.56.125.855.125.829,0,1.5-.272,2.012-.814Z" fill="#ffe7e4" stroke-width="0"/></g><g transform="translate(100.034 57.181)"><path d="M2.233,-4.194c0,0,0,1.527,0,1.527-.2-.016-.385-.025-.552-.025-.517,0-.968.125-1.352.376-.384.25-.676.592-.876,1.026s-.301.929-.301,1.486c0,0,0,4.015,0,4.015s-1.385,0-1.385,0s0-8.322,0-8.322s1.385,0,1.385,0s0,1.453,0,1.453.034,0,.034,0c.311-.495.699-.878,1.164-1.148s.978-.405,1.54-.405c.161,0,.276.006.343.017Z" fill="#4c4c4c" stroke-width="0"/></g><g transform="translate(107.32 57.235)"><path d="M4.174,-4.164c0,0,0,8.321,0,8.321s-1.328,0-1.328,0s0-1.319,0-1.319-.024,0-.024,0c-.339.451-.759.801-1.257,1.052-.498.25-1.05.375-1.656.375-.568,0-1.103-.101-1.604-.304s-.932-.486-1.297-.847c-.364-.362-.652-.807-.863-1.336-.212-.528-.319-1.104-.319-1.727c0-.813.175-1.547.523-2.204s.833-1.173,1.456-1.548c.624-.376,1.322-.564,2.096-.564.573,0,1.105.114,1.597.342s.912.56,1.257.994c0,0,.032,0,.032,0s0-1.235,0-1.235s1.387,0,1.387,0Z" fill="#4c4c4c" stroke-width="0"/><path d="M1.111,2.784c.339-.142.636-.339.892-.593.256-.253.459-.564.609-.934s.227-.77.227-1.198c0-.423-.072-.822-.214-1.198-.142-.375-.335-.7-.579-.972-.245-.273-.54-.488-.885-.647s-.713-.238-1.102-.238c-.807,0-1.479.281-2.015.843-.537.562-.807,1.299-.807,2.212c0,.851.259,1.554.776,2.107.518.554,1.194.831,2.029.831.372,0,.729-.071,1.069-.213Z" fill="#ffe7e4" stroke-width="0"/></g><g transform="translate(118.216 58.871)"><path d="M2.182,-5.338c.624.376,1.109.892,1.457,1.549.348.656.522,1.391.522,2.203c0,.623-.106,1.199-.317,1.728-.212.529-.5.974-.864,1.335-.365.362-.798.644-1.298.847-.501.204-1.035.305-1.603.305-.579,0-1.11-.117-1.594-.35-.484-.234-.896-.565-1.235-.994c0,0-.034,0-.034,0s0,4.616,0,4.616-1.377,0-1.377,0s0-11.702,0-11.702s1.385,0,1.385,0s0,1.227,0,1.227.034,0,.034,0c.345-.428.761-.757,1.248-.985s1.014-.342,1.582-.342c.773,0,1.471.188,2.094.563Z" fill="#4c4c4c" stroke-width="0"/><path d="M1.974,0.53c.518-.554.776-1.256.776-2.107c0-.913-.268-1.65-.805-2.212s-1.209-.843-2.016-.843c-.512,0-.979.135-1.402.405-.423.269-.754.638-.993,1.106-.24.467-.359.982-.359,1.544c0,.428.075.827.225,1.197s.353.682.609.935c.257.253.551.451.885.593s.684.213,1.052.213c.834,0,1.51-.277,2.028-.831Z" fill="#ffe7e4" stroke-width="0"/></g><g transform="translate(128.247 55.103)"><path d="M2.947,-1.277c.537.57.805,1.428.805,2.575c0,0,0,5,0,5s-1.385,0-1.385,0s0-4.607,0-4.607c0-1.703-.679-2.554-2.037-2.554-.835,0-1.492.261-1.974.784-.481.524-.723,1.25-.723,2.179c0,0,0,4.19,0,4.19s-1.385,0-1.385,0s0-12.588,0-12.588s1.385,0,1.385,0s0,5.619,0,5.619.034,0,.034,0c.172-.234.371-.444.593-.627.223-.184.465-.336.727-.458.261-.123.538-.215.83-.276s.597-.092.914-.092c.94,0,1.679.284,2.216.855Z" fill="#4c4c4c" stroke-width="0"/></g><g transform="translate(298.125 59.684)"><path d="M-6.72,-8.609c0,0,8.556.001,8.556.031c2.173.182,3.861,1.968,3.921,4.148-.01,1.313-.648,2.542-1.716,3.305c1.68.891,2.736,2.632,2.75,4.533.022,2.986-2.622,5.201-5.467,5.201c0,0-8.048,0-8.048,0s-.09,0-.09,0s0-17.218,0-17.218.094,0,.094,0Z" paint-order="stroke fill markers" fill="none" fill-rule="evenodd" stroke="#3d3c3c" stroke-width="0.75" stroke-linecap="round" stroke-linejoin="round"/></g><g><path d="M291.453,58.53c0,0,10.664,0,10.664,0" paint-order="stroke fill markers" fill="none" fill-rule="evenodd" stroke="#3d3c3c" stroke-width="0.75" stroke-linecap="round" stroke-linejoin="round"/></g><g><path d="M340.506,51.076c0,0,10.874,0,10.874,0" paint-order="stroke fill markers" fill="none" fill-rule="evenodd" stroke="#3d3c3c" stroke-width="0.75" stroke-linecap="round" stroke-linejoin="round"/></g><g><path d="M336.882,68.292c0,0,11.78,0,11.78,0" paint-order="stroke fill markers" fill="none" fill-rule="evenodd" stroke="#3d3c3c" stroke-width="0.75" stroke-linecap="round" stroke-linejoin="round"/></g><g transform="translate(344.14 59.733)"><path d="M1.607,-8.151c0,0-3.214,16.302-3.214,16.302" paint-order="stroke fill markers" fill="none" fill-rule="evenodd" stroke="#3d3c3c" stroke-width="0.75" stroke-linecap="round" stroke-linejoin="round"/></g><g transform="translate(390.148 58.651)"><path d="M5.9,-7.589c0,0,0,8.278,0,8.278c0,2.522-1.572,4.842-3.976,5.606C-2.15,7.589,-5.9,4.582,-5.9,0.7c0,0,0-8.289,0-8.289" paint-order="stroke fill markers" fill="none" fill-rule="evenodd" stroke="#3d3c3c" stroke-width="0.75" stroke-linecap="round" stroke-linejoin="round"/></g><g><path d="M396.047,68.307c0,0-11.799,0-11.799,0" paint-order="stroke fill markers" fill="none" fill-rule="evenodd" stroke="#3d3c3c" stroke-width="0.75" stroke-linecap="round" stroke-linejoin="round"/></g><g transform="translate(436.186 60.707)"><path d="M7.158,3.342c0,0-3.837-6.684-3.837-6.684s-4.075,5.177-4.075,5.177-3.066-2.784-3.066-2.784-3.338,4.291-3.338,4.291s14.316,0,14.316,0Z" paint-order="stroke fill markers" fill="none" fill-rule="evenodd" stroke="#3d3c3c" stroke-width="0.75" stroke-linecap="round" stroke-linejoin="round"/></g><g transform="translate(434.71 56.29)"><path d="M1.94,0c0,1.071-.868,1.94-1.94,1.94-1.071,0-1.94-.869-1.94-1.94s.869-1.94,1.94-1.94c1.072,0,1.94.869,1.94,1.94Z" paint-order="stroke fill markers" fill="none" fill-rule="evenodd" stroke="#3d3c3c" stroke-width="0.75" stroke-linecap="round" stroke-linejoin="round"/></g><g transform="translate(436.164 59.684)"><path d="M9.069,9.069c0,0-18.138,0-18.138,0s0-18.138,0-18.138s18.138,0,18.138,0s0,18.138,0,18.138Z" paint-order="stroke fill markers" fill="none" fill-rule="evenodd" stroke="#3d3c3c" stroke-width="0.75" stroke-linecap="round" stroke-linejoin="round"/></g><g transform="translate(473.406 51.661)"><path d="M1.605,0c0,.886-.719,1.605-1.606,1.605-.886,0-1.604-.719-1.604-1.605s.718-1.605,1.604-1.605c.887,0,1.606.719,1.606,1.605Z" fill="#3d3c3c" stroke-width="0"/></g><g transform="translate(473.406 60.219)"><path d="M1.605,0c0,.886-.719,1.605-1.606,1.605-.886,0-1.604-.719-1.604-1.605s.718-1.605,1.604-1.605c.887,0,1.606.719,1.606,1.605Z" fill="#3d3c3c" stroke-width="0"/></g><g transform="translate(473.406 67.707)"><path d="M1.605,0c0,.886-.719,1.605-1.606,1.605-.886,0-1.604-.719-1.604-1.605s.718-1.605,1.604-1.605c.887,0,1.606.719,1.606,1.605Z" fill="#3d3c3c" stroke-width="0"/></g><g><path d="M477.841,51.661c0,0,14.719,0,14.719,0" paint-order="stroke fill markers" fill="none" fill-rule="evenodd" stroke="#3d3c3c" stroke-width="0.75" stroke-linecap="round" stroke-linejoin="round"/></g><g><path d="M477.841,67.707c0,0,14.719,0,14.719,0" paint-order="stroke fill markers" fill="none" fill-rule="evenodd" stroke="#3d3c3c" stroke-width="0.75" stroke-linecap="round" stroke-linejoin="round"/></g><g><path d="M477.841,60.219c0,0,14.719,0,14.719,0" paint-order="stroke fill markers" fill="none" fill-rule="evenodd" stroke="#3d3c3c" stroke-width="0.75" stroke-linecap="round" stroke-linejoin="round"/></g><g><path d="M524.2,52.312c0,0,13.753,0,13.753,0" paint-order="stroke fill markers" fill="none" fill-rule="evenodd" stroke="#3d3c3c" stroke-width="0.75" stroke-linecap="round" stroke-linejoin="round"/></g><g><path d="M524.2,67.304c0,0,13.753,0,13.753,0" paint-order="stroke fill markers" fill="none" fill-rule="evenodd" stroke="#3d3c3c" stroke-width="0.75" stroke-linecap="round" stroke-linejoin="round"/></g><g><path d="M524.2,60.308c0,0,13.753,0,13.753,0" paint-order="stroke fill markers" fill="none" fill-rule="evenodd" stroke="#3d3c3c" stroke-width="0.75" stroke-linecap="round" stroke-linejoin="round"/></g><g transform="translate(519.631 52.137)"><path d="M0.258,1.887c0,0,.462,0,.462,0s0-3.774,0-3.774-.381,0-.381,0-1.06.778-1.06.778.225.344.225.344.754-.566.754-.566s0,3.218,0,3.218Z" paint-order="stroke fill markers" fill="none" fill-rule="evenodd" stroke="#3d3c3c" stroke-width="0.1" stroke-miterlimit="10"/></g><g transform="translate(519.871 59.727)"><path d="M-0.484,1.48c0,0,0-.008,0-.008s.981-.995.981-.995c.231-.234.396-.451.496-.649.099-.198.148-.404.148-.62c0-.17-.031-.327-.095-.468-.063-.142-.148-.259-.254-.352-.105-.093-.227-.165-.365-.216s-.281-.076-.432-.076c-.191,0-.365.031-.522.094-.156.063-.287.145-.392.25-.104.105-.193.229-.267.372c0,0,.341.233.341.233.179-.345.449-.517.811-.517.207,0,.378.069.511.206.134.137.2.31.2.519c0,.092-.015.181-.043.268-.028.086-.071.173-.129.26-.057.087-.116.166-.177.237-.061.072-.137.155-.228.25c0,0-1.291,1.318-1.291,1.318s.005.318.005.318s2.376,0,2.376,0s0-.424,0-.424-1.674,0-1.674,0Z" paint-order="stroke fill markers" fill="none" fill-rule="evenodd" stroke="#3d3c3c" stroke-width="0.1" stroke-miterlimit="10"/></g><g transform="translate(519.855 66.745)"><path d="M0.613,-0.073c0,0,0-.004,0-.004.171-.083.305-.199.4-.349.096-.151.143-.321.143-.509c0-.204-.052-.38-.156-.532-.106-.151-.243-.265-.418-.341-.175-.077-.37-.115-.587-.115-.261,0-.489.056-.683.164-.193.108-.34.252-.44.435c0,0,.374.204.374.204.171-.247.417-.37.741-.37.2,0,.368.057.503.171.136.115.203.264.203.446c0,.082-.014.16-.04.231-.027.07-.067.134-.12.19-.053.057-.123.101-.213.133s-.193.047-.31.047c0,0-.367,0-.367,0s0,.404,0,.404.315,0,.315,0c.135,0,.258.018.365.054.107.035.193.083.26.147.066.062.116.135.151.215.034.081.052.166.052.256c0,.135-.034.254-.104.359-.069.104-.164.184-.282.24s-.248.083-.391.083c-.145,0-.277-.019-.392-.06s-.211-.099-.287-.172c-.077-.074-.14-.162-.187-.266c0,0-.399.183-.399.183.097.225.259.406.485.544.226.137.495.208.807.208.23,0,.438-.045.624-.132.184-.086.33-.21.436-.37.107-.161.161-.341.161-.545c0-.222-.057-.415-.172-.58s-.272-.288-.472-.369Z" paint-order="stroke fill markers" fill="none" fill-rule="evenodd" stroke="#3d3c3c" stroke-width="0.1" stroke-miterlimit="10"/></g><g transform="translate(586.285 62.369)"><path d="M0.895,4.294c0,0-1.968,0-1.968,0s0-1.054,0-1.054c0-.461.161-.804.269-1.028.109-.225.346-.522.71-.89c0,0,1.246-1.262,1.246-1.262.262-.287.393-.644.393-1.071c0-.426-.136-.781-.41-1.063-.273-.282-.626-.423-1.059-.423s-.794.135-1.085.406c-.29.27-.458.63-.504,1.08c0,0-2.065,0-2.065,0c.113-1.025.509-1.829,1.187-2.411.677-.581,1.523-.872,2.536-.872c1.014,0,1.838.279,2.476.838s.957,1.339.957,2.341c0,.692-.187,1.268-.563,1.728-.216.277-.381.473-.495.588-.115.115-.265.262-.453.441-.188.178-.348.334-.478.466-.132.133-.237.245-.317.337-.205.254-.377.611-.377,1.071c0,0,0,.778,0,.778Z" fill="#5f0b22" stroke-width="0"/></g><g transform="translate(586.196 69.079)"><path d="M0.984,0.984c0,0-1.968,0-1.968,0s0-1.968,0-1.968s1.968,0,1.968,0s0,1.968,0,1.968Z" fill="#5f0b22" stroke-width="0"/></g><g transform="translate(577.576 53.165)"><path d="M5.584,0c0,4.257-2.569,7.618-5.585,7.618-3.015,0-5.583-3.473-5.583-7.618s.67-7.618,5.583-7.618c4.914,0,5.585,3.361,5.585,7.618Z" paint-order="stroke fill markers" fill="none" fill-rule="evenodd" stroke="#5f0b22" stroke-width="0.75" stroke-linecap="round" stroke-linejoin="round"/></g><g transform="translate(573.217 64.731)"><path d="M7.843,4.54c0,0-13.895.116-13.895.116-1.007,0-1.791-.783-1.791-1.789c0,0,0-.224,0-.224.223-3.467,3.244-6.597,7.495-7.156c0,0,1.14-.144,2.375.075.327.058.66.141.981.259" paint-order="stroke fill markers" fill="none" fill-rule="evenodd" stroke="#5f0b22" stroke-width="0.75" stroke-linecap="round" stroke-linejoin="round"/></g></g><g transform="translate(50.564 156.941)"><g transform="translate(489.433 53.126)"><path d="M489.437,-46.131c0,0,0,92.261,0,92.261c0,3.864-3.132,6.996-6.996,6.996c0,0-964.877,0-964.877,0-3.848,0-6.996-3.148-6.996-6.996c0,0,0-92.261,0-92.261c0-3.848,3.148-6.996,6.996-6.996c0,0,964.877,0,964.877,0c3.864,0,6.996,3.132,6.996,6.996Z" fill="#ffe7e4" stroke-width="0"/></g><g transform="translate(584.032 93.602)"><path d="M0,-1.313c0,0,0,0,0,0-.725,0-1.313.588-1.313,1.313s.588,1.313,1.313,1.313s1.313-.588,1.313-1.313-.588-1.313-1.313-1.313Z" fill="#ebebeb" stroke-width="0"/></g><g><path d="M451.556,18.711c0,0,0,68.831,0,68.831" paint-order="stroke fill markers" fill="none" fill-rule="evenodd" stroke="#fff" stroke-miterlimit="10"/></g><g><path d="M335.815,18.711c0,0,0,68.831,0,68.831" paint-order="stroke fill markers" fill="none" fill-rule="evenodd" stroke="#fff" stroke-miterlimit="10"/></g><g transform="translate(509.227 47.381)"><path d="M19.949,5.004c0,0-39.899,0-39.899,0-.766,0-1.388-.622-1.388-1.389c0,0,0-7.23,0-7.23c0-.767.622-1.389,1.388-1.389c0,0,39.899,0,39.899,0c.767,0,1.389.622,1.389,1.389c0,0,0,7.23,0,7.23c0,.767-.622,1.389-1.389,1.389Z" paint-order="stroke fill markers" fill="none" fill-rule="evenodd" stroke="#5f0b22" stroke-miterlimit="10"/></g><g transform="translate(496.907 67.59)"><path d="M6.74,8.128c0,0-13.479,0-13.479,0-.767,0-1.39-.621-1.39-1.388c0,0,0-13.48,0-13.48c0-.767.623-1.388,1.39-1.388c0,0,13.479,0,13.479,0c.767,0,1.389.621,1.389,1.388c0,0,0,13.48,0,13.48c0,.767-.622,1.388-1.389,1.388Z" paint-order="stroke fill markers" fill="none" fill-rule="evenodd" stroke="#5f0b22" stroke-miterlimit="10"/></g><g transform="translate(509.227 54.354)"><path d="M25.329,27.434c0,0-50.658,0-50.658,0-1.163,0-2.105-.943-2.105-2.105c0,0,0-50.658,0-50.658c0-1.163.942-2.105,2.105-2.105c0,0,50.658,0,50.658,0c1.163,0,2.105.942,2.105,2.105c0,0,0,50.658,0,50.658c0,1.162-.942,2.105-2.105,2.105Z" paint-order="stroke fill markers" fill="none" fill-rule="evenodd" stroke="#5f0b22" stroke-miterlimit="10"/></g><g><path d="M482.237,35.76c0,0,53.945,0,53.945,0" paint-order="stroke fill markers" fill="none" fill-rule="evenodd" stroke="#5f0b22" stroke-miterlimit="10"/></g><g><path d="M509.322,61.268c0,0,21.812,0,21.812,0" paint-order="stroke fill markers" fill="none" fill-rule="evenodd" stroke="#5f0b22" stroke-miterlimit="10"/></g><g><path d="M509.322,67.59c0,0,21.812,0,21.812,0" paint-order="stroke fill markers" fill="none" fill-rule="evenodd" stroke="#5f0b22" stroke-miterlimit="10"/></g><g><path d="M509.322,73.912c0,0,21.812,0,21.812,0" paint-order="stroke fill markers" fill="none" fill-rule="evenodd" stroke="#5f0b22" stroke-miterlimit="10"/></g><g transform="translate(410.002 66.945)"><path d="M12.114,-8.076c0,0,0,21.536,0,21.536c0,1.487-1.205,2.692-2.692,2.692c0,0-18.844,0-18.844,0-1.487,0-2.692-1.205-2.692-2.692c0,0,0-26.92,0-26.92c0-1.487,1.205-2.692,2.692-2.692c0,0,18.844,0,18.844,0c1.487,0,2.692,1.205,2.692,2.692c0,0,0,5.384,0,5.384Z" paint-order="stroke fill markers" fill="none" fill-rule="evenodd" stroke="#5f0b22" stroke-linecap="round" stroke-linejoin="round"/></g><g><path d="M403.74,58.786c0,0,12.524,0,12.524,0" paint-order="stroke fill markers" fill="none" fill-rule="evenodd" stroke="#5f0b22" stroke-linecap="round" stroke-linejoin="round"/></g><g><path d="M403.74,66.945c0,0,12.524,0,12.524,0" paint-order="stroke fill markers" fill="none" fill-rule="evenodd" stroke="#5f0b22" stroke-linecap="round" stroke-linejoin="round"/></g><g><path d="M403.74,75.104c0,0,7.514,0,7.514,0" paint-order="stroke fill markers" fill="none" fill-rule="evenodd" stroke="#5f0b22" stroke-linecap="round" stroke-linejoin="round"/></g><g><path d="M366.22,45.112c0,0,26.283,0,26.283,0" paint-order="stroke fill markers" fill="none" fill-rule="evenodd" stroke="#5f0b22" stroke-linecap="round" stroke-linejoin="round"/></g><g transform="translate(389.446 45.112)"><path d="M-3.85,-8.553c0,0,6.649,6.65,6.649,6.65c1.051,1.051,1.051,2.756,0,3.807c0,0-6.649,6.649-6.649,6.649" paint-order="stroke fill markers" fill="none" fill-rule="evenodd" stroke="#5f0b22" stroke-linecap="round" stroke-linejoin="round"/></g><g transform="translate(382.486 67.501)"><path d="M9.483,16.291c0,0-16.274,0-16.274,0-1.486,0-2.692-1.205-2.692-2.692c0,0,0-29.89,0-29.89" paint-order="stroke fill markers" fill="none" fill-rule="evenodd" stroke="#5f0b22" stroke-linecap="round" stroke-linejoin="round"/></g><g transform="translate(394.504 35.149)"><path d="M-21.5,3.317c0,0,0-10.858,0-10.858c0-1.487,1.205-2.692,2.692-2.692c0,0,37.616,0,37.616,0c1.487,0,2.692,1.205,2.692,2.692c0,0,0,17.774,0,17.774" paint-order="stroke fill markers" fill="none" fill-rule="evenodd" stroke="#5f0b22" stroke-linecap="round" stroke-linejoin="round"/></g><g transform="translate(39.407 51.97)"><path d="M-4.802,-7.293c0,0,9.173,0,9.173,0s0,2.226,0,2.226-6.697,0-6.697,0s0,4.02,0,4.02s5.414,0,5.414,0s0,2.225,0,2.225-5.414,0-5.414,0s0,3.89,0,3.89s7.128,0,7.128,0s0,2.225,0,2.225-9.604,0-9.604,0s0-14.586,0-14.586Z" fill="#4c4c4c" stroke-width="0"/></g><g transform="translate(54.577 54.186)"><path d="M6.883,-4c.608.725.911,1.819.911,3.283c0,0,0,5.805,0,5.805s-2.295,0-2.295,0s0-5.223,0-5.223c0-1.912-.656-2.867-1.966-2.867-.668,0-1.223.275-1.668.827-.444.551-.667,1.304-.667,2.26c0,0,0,5.003,0,5.003s-2.296,0-2.296,0s0-5.223,0-5.223c0-1.912-.665-2.867-1.995-2.867-.702,0-1.278.275-1.729.827-.451.551-.677,1.304-.677,2.26c0,0,0,4.993,0,4.993s-2.295,0-2.295,0s0-10.015,0-10.015s2.295,0,2.295,0s0,1.383,0,1.383.03,0,.03,0c.408-.494.884-.874,1.429-1.138s1.111-.396,1.699-.396c1.397,0,2.392.555,2.987,1.664c0,0,.042,0,.042,0c.421-.541.938-.953,1.552-1.238.615-.284,1.293-.426,2.036-.426c1.129,0,1.999.363,2.607,1.088Z" fill="#4c4c4c" stroke-width="0"/></g><g transform="translate(69.716 54.261)"><path d="M5.133,-5.013c0,0,0,10.016,0,10.016s-2.196,0-2.196,0s0-1.344,0-1.344-.03,0-.03,0c-.762,1.002-1.825,1.505-3.188,1.505-.548,0-1.071-.079-1.569-.232-.498-.154-.946-.381-1.343-.682-.398-.301-.742-.657-1.033-1.067-.291-.411-.514-.885-.672-1.423-.156-.538-.235-1.111-.235-1.719c0-.742.124-1.437.371-2.085.247-.649.585-1.201,1.012-1.656.428-.454.939-.811,1.534-1.071.595-.261,1.233-.393,1.915-.393c1.303,0,2.336.452,3.098,1.354c0,0,.04,0,.04,0s0-1.203,0-1.203s2.296,0,2.296,0Z" fill="#4c4c4c" stroke-width="0"/><path d="M2.1,2.23c.551-.564.827-1.292.827-2.18c0-.889-.269-1.632-.807-2.23s-1.215-.898-2.03-.898c-.401,0-.777.074-1.128.221-.351.148-.656.353-.917.617s-.466.595-.616.992c-.151.398-.226.83-.226,1.298c0,.888.267,1.616.802,2.18.534.565,1.226.848,2.075.848.795,0,1.469-.283,2.02-.848Z" fill="#ffe7e4" stroke-width="0"/></g><g transform="translate(79.052 51.985)"><path d="M-1.098,-4.677c-.301-.297-.451-.656-.451-1.077s.15-.781.451-1.078.668-.446,1.103-.446c.421,0,.784.15,1.087.451.305.301.457.658.457,1.073c0,.274-.07.528-.211.762-.14.234-.329.419-.566.556-.238.137-.493.205-.767.205-.435,0-.802-.148-1.103-.446Z" fill="#4c4c4c" stroke-width="0"/><path d="M-1.158,-2.737c0,0,2.296,0,2.296,0s0,10.015,0,10.015-2.296,0-2.296,0s0-10.015,0-10.015Z" fill="#4c4c4c" stroke-width="0"/></g><g transform="translate(84.625 51.705)"><path d="M-1.148,-7.559c0,0,2.296,0,2.296,0s0,15.118,0,15.118-2.296,0-2.296,0s0-15.118,0-15.118Z" fill="#4c4c4c" stroke-width="0"/></g><g transform="translate(100.582 51.955)"><path d="M-1.479,7.137c-.729-.201-1.402-.506-2.02-.917s-1.154-.905-1.609-1.483c-.454-.578-.808-1.266-1.062-2.065s-.381-1.667-.381-2.603c0-.835.101-1.628.305-2.38s.513-1.438.928-2.06c.414-.621.912-1.162,1.493-1.62.582-.457,1.268-.812,2.06-1.066s1.65-.382,2.572-.382c1.056,0,2.087.231,3.092.692c1.006.462,1.89,1.162,2.652,2.105c0,0-1.824,1.544-1.824,1.544-.488-.609-1.075-1.092-1.76-1.453s-1.405-.541-2.16-.541c-.936,0-1.765.212-2.486.64-.722.428-1.283,1.033-1.685,1.815-.401.781-.601,1.684-.601,2.706c0,.983.204,1.857.611,2.622.408.765.975,1.358,1.7,1.779s1.545.633,2.461.633c.789,0,1.517-.18,2.185-.537.669-.358,1.247-.84,1.735-1.448c0,0,1.824,1.554,1.824,1.554-.668.842-1.488,1.513-2.461,2.014-.972.501-2.067.753-3.283.753-.795,0-1.557-.101-2.286-.302Z" fill="#4c4c4c" stroke-width="0"/></g><g transform="translate(113.952 54.261)"><path d="M-2.151,4.772c-.662-.261-1.218-.621-1.669-1.078-.451-.458-.804-1.004-1.058-1.638-.253-.636-.38-1.318-.38-2.047c0-.982.215-1.864.646-2.646s1.049-1.398,1.855-1.849c.805-.451,1.726-.677,2.762-.677c1.015,0,1.921.215,2.717.646.795.431,1.416,1.042,1.864,1.831s.672,1.687.672,2.695c0,1.003-.224,1.897-.672,2.682-.448.786-1.071,1.395-1.87,1.826-.798.431-1.702.646-2.711.646-.776,0-1.494-.131-2.156-.391Z" fill="#4c4c4c" stroke-width="0"/><path d="M2.08,2.21c.561-.578.842-1.312.842-2.201c0-.908-.278-1.649-.832-2.224-.555-.575-1.25-.862-2.085-.862-.869,0-1.574.294-2.115.882-.542.588-.812,1.322-.812,2.204c0,.869.275,1.599.826,2.187.552.588,1.252.881,2.101.881.822,0,1.513-.289,2.075-.867Z" fill="#ffe7e4" stroke-width="0"/></g><g transform="translate(126.285 54.186)"><path d="M3.705,-4.04c.651.698.977,1.772.977,3.223c0,0,0,5.905,0,5.905s-2.296,0-2.296,0s0-5.314,0-5.314c0-.521-.047-.962-.141-1.323-.093-.361-.236-.646-.43-.857s-.42-.363-.677-.456c-.258-.094-.566-.14-.927-.14-.387,0-.742.066-1.063.2-.32.134-.595.327-.822.581-.228.254-.403.575-.527.963-.124.387-.184.822-.184,1.303c0,0,0,5.033,0,5.033s-2.297,0-2.297,0s0-10.015,0-10.015s2.297,0,2.297,0s0,1.373,0,1.373.028,0,.028,0c.422-.495.924-.872,1.505-1.133.582-.26,1.2-.391,1.855-.391c1.15,0,2.05.349,2.702,1.048Z" fill="#4c4c4c" stroke-width="0"/></g><g transform="translate(136.031 52.547)"><path d="M-1.323,6.035c-.491-.562-.737-1.39-.737-2.486c0,0,0-4.892,0-4.892s-1.223,0-1.223,0s0-1.955,0-1.955s1.223,0,1.223,0s0-3.329,0-3.329s2.296-.25,2.296-.25s0,3.579,0,3.579s2.947,0,2.947,0s0,1.955,0,1.955-2.947,0-2.947,0s0,4.681,0,4.681c0,.502.079.859.235,1.073.158.214.4.321.727.321.448,0,.943-.144,1.484-.431c0,0,.601,1.984.601,1.984-.36.194-.726.341-1.097.442-.371.1-.854.15-1.449.15-.882,0-1.569-.28-2.06-.842Z" fill="#4c4c4c" stroke-width="0"/></g><g transform="translate(145.078 54.261)"><path d="M4.812,0.792c0,0-7.299,0-7.299,0c.147.709.476,1.267.988,1.675.511.407,1.134.611,1.87.611c1.035,0,1.867-.395,2.496-1.183c0,0,1.604,1.373,1.604,1.373-.455.582-1.038,1.043-1.75,1.384-.711.34-1.535.511-2.471.511-.969,0-1.841-.211-2.616-.631-.775-.421-1.387-1.028-1.835-1.82s-.671-1.699-.671-2.722c0-.755.123-1.454.37-2.095.248-.642.589-1.186,1.023-1.634s.952-.797,1.554-1.048c.601-.25,1.246-.376,1.935-.376.969,0,1.824.217,2.566.652s1.31,1.033,1.704,1.794c.394.762.592,1.628.592,2.597c0,.367-.02.672-.06.912Z" fill="#4c4c4c" stroke-width="0"/><path d="M-1.514,-2.551c-.461.351-.772.847-.933,1.489c0,0,5.013,0,5.013,0-.1-.408-.256-.76-.466-1.058-.211-.298-.485-.532-.822-.702s-.72-.255-1.148-.255c-.635,0-1.183.175-1.644.526Z" fill="#ffe7e4" stroke-width="0"/></g><g transform="translate(157.005 54.186)"><path d="M3.705,-4.04c.651.698.977,1.772.977,3.223c0,0,0,5.905,0,5.905s-2.296,0-2.296,0s0-5.314,0-5.314c0-.521-.047-.962-.141-1.323-.093-.361-.236-.646-.43-.857s-.42-.363-.677-.456c-.258-.094-.566-.14-.927-.14-.387,0-.742.066-1.063.2-.32.134-.595.327-.822.581-.228.254-.403.575-.527.963-.124.387-.184.822-.184,1.303c0,0,0,5.033,0,5.033s-2.297,0-2.297,0s0-10.015,0-10.015s2.297,0,2.297,0s0,1.373,0,1.373.028,0,.028,0c.422-.495.924-.872,1.505-1.133.582-.26,1.2-.391,1.855-.391c1.15,0,2.05.349,2.702,1.048Z" fill="#4c4c4c" stroke-width="0"/></g><g transform="translate(166.751 52.547)"><path d="M-1.323,6.035c-.491-.562-.737-1.39-.737-2.486c0,0,0-4.892,0-4.892s-1.223,0-1.223,0s0-1.955,0-1.955s1.223,0,1.223,0s0-3.329,0-3.329s2.296-.25,2.296-.25s0,3.579,0,3.579s2.947,0,2.947,0s0,1.955,0,1.955-2.947,0-2.947,0s0,4.681,0,4.681c0,.502.079.859.235,1.073.158.214.4.321.727.321.448,0,.943-.144,1.484-.431c0,0,.601,1.984.601,1.984-.36.194-.726.341-1.097.442-.371.1-.854.15-1.449.15-.882,0-1.569-.28-2.06-.842Z" fill="#4c4c4c" stroke-width="0"/></g></g><g transform="translate(325.601 210.067)"><path d="M57.424,52.961c0,0-114.847,0-114.847,0-.001,0-.001,0-.001,0s0-105.922,0-105.922s114.848,0,114.848,0s0,105.922,0,105.922Z" fill="#5f0b22" stroke-width="0"/></g><g transform="translate(50.5 157.234)"><g><path d="M278.094,54.38c0,0,14.375,0,14.375,0" paint-order="stroke fill markers" fill="none" fill-rule="evenodd" stroke="#fff" stroke-linecap="round" stroke-linejoin="round"/></g><g><path d="M278.094,61.833c0,0,14.375,0,14.375,0" paint-order="stroke fill markers" fill="none" fill-rule="evenodd" stroke="#fff" stroke-linecap="round" stroke-linejoin="round"/></g><g transform="translate(275.037 53.126)"><path d="M20.968,29.853c0,0-41.936,0-41.936,0-1.301,0-2.355-1.054-2.355-2.355c0,0,0-54.997,0-54.997c0-1.3,1.054-2.354,2.355-2.354c0,0,41.936,0,41.936,0c1.301,0,2.355,1.054,2.355,2.354c0,0,0,54.997,0,54.997c0,1.301-1.054,2.355-2.355,2.355Z" paint-order="stroke fill markers" fill="none" fill-rule="evenodd" stroke="#fff" stroke-linecap="round" stroke-linejoin="round"/></g><g transform="translate(265.891 46.007)"><path d="M8.333,1.19c0,0,0-2.38,0-2.38s-16.666,0-16.666,0s0,2.38,0,2.38" paint-order="stroke fill markers" fill="none" fill-rule="evenodd" stroke="#fff" stroke-linecap="round" stroke-linejoin="round"/></g><g><path d="M265.865,44.817c0,0,0,19.046,0,19.046" paint-order="stroke fill markers" fill="none" fill-rule="evenodd" stroke="#fff" stroke-linecap="round" stroke-linejoin="round"/></g><g><path d="M262.32,63.863c0,0,7.142,0,7.142,0" paint-order="stroke fill markers" fill="none" fill-rule="evenodd" stroke="#fff" stroke-linecap="round" stroke-linejoin="round"/></g><g><path d="M257.558,30.399c0,0,34.958,0,34.958,0" paint-order="stroke fill markers" fill="none" fill-rule="evenodd" stroke="#fff" stroke-linecap="round" stroke-linejoin="round"/></g><g><path d="M257.558,37.006c0,0,34.958,0,34.958,0" paint-order="stroke fill markers" fill="none" fill-rule="evenodd" stroke="#fff" stroke-linecap="round" stroke-linejoin="round"/></g><g><path d="M257.558,69.247c0,0,34.958,0,34.958,0" paint-order="stroke fill markers" fill="none" fill-rule="evenodd" stroke="#fff" stroke-linecap="round" stroke-linejoin="round"/></g><g><path d="M257.558,75.853c0,0,34.958,0,34.958,0" paint-order="stroke fill markers" fill="none" fill-rule="evenodd" stroke="#fff" stroke-linecap="round" stroke-linejoin="round"/></g><g><path d="M278.094,46.928c0,0,14.375,0,14.375,0" paint-order="stroke fill markers" fill="none" fill-rule="evenodd" stroke="#fff" stroke-linecap="round" stroke-linejoin="round"/></g></g><g id="evVkep4CKHM290_ts" transform="translate(614.423,375.89) scale(0,0)"><g id="evVkep4CKHM290" transform="translate(0,0)"><g transform="translate(69.722 81.213)"><path d="M51.392,64.871c0,0-102.783,0-102.783,0-1.495,0-2.717-1.223-2.717-2.717c0,0,0-124.308,0-124.308c0-1.494,1.222-2.717,2.717-2.717c0,0,102.783,0,102.783,0c1.495,0,2.716,1.223,2.716,2.717c0,0,0,124.308,0,124.308c0,1.494-1.221,2.717-2.716,2.717Z" fill="#fff" stroke-width="0"/></g><g transform="translate(69.722 81.213)"><path d="M51.392,64.871c0,0-102.783,0-102.783,0-1.495,0-2.717-1.223-2.717-2.717c0,0,0-124.308,0-124.308c0-1.494,1.222-2.717,2.717-2.717c0,0,102.783,0,102.783,0c1.495,0,2.716,1.223,2.716,2.717c0,0,0,124.308,0,124.308c0,1.494-1.221,2.717-2.716,2.717Z" paint-order="stroke fill markers" fill="none" fill-rule="evenodd" stroke="#e5e4e3" stroke-miterlimit="10"/></g><g transform="translate(26.196 67.063)"><path d="M-1.492,-6.675c0,0,2.984,0,2.984,0s0,.978,0,.978-1.88,0-1.88,0s0,11.393,0,11.393s1.88,0,1.88,0s0,.979,0,.979-2.984,0-2.984,0s0-13.35,0-13.35Z" fill="#4c4c4c" stroke-width="0"/></g><g transform="translate(30.945 67.063)"><path d="M-1.492,-6.675c0,0,2.984,0,2.984,0s0,.978,0,.978-1.881,0-1.881,0s0,11.393,0,11.393s1.881,0,1.881,0s0,.979,0,.979-2.984,0-2.984,0s0-13.35,0-13.35Z" fill="#4c4c4c" stroke-width="0"/></g><g transform="translate(37.896 66.099)"><path d="M-3.35,-5.428c0,0,1.328,0,1.328,0s0,9.633,0,9.633s5.372,0,5.372,0s0,1.223,0,1.223-6.7,0-6.7,0s0-10.856,0-10.856Z" fill="#4c4c4c" stroke-width="0"/></g><g transform="translate(46.157 67.812)"><path d="M3.73,-3.723c0,0,0,7.44,0,7.44s-1.186,0-1.186,0s0-1.179,0-1.179-.023,0-.023,0c-.302.402-.677.716-1.123.94-.444.224-.938.334-1.48.334-.508,0-.986-.091-1.433-.272-.448-.181-.835-.433-1.16-.756-.326-.323-.584-.722-.772-1.194-.19-.472-.283-.988-.283-1.544c0-.727.155-1.383.465-1.97.311-.587.745-1.049,1.302-1.385.558-.335,1.183-.503,1.874-.503.513,0,.988.101,1.428.305s.815.501,1.124.889c0,0,.03,0,.03,0s0-1.105,0-1.105s1.237,0,1.237,0Z" fill="#4c4c4c" stroke-width="0"/><path d="M0.993,2.488c.304-.127.569-.303.799-.528.228-.227.409-.505.543-.836.135-.331.202-.688.202-1.072c0-.377-.064-.734-.191-1.07-.126-.336-.299-.626-.518-.869-.219-.244-.482-.436-.791-.578s-.637-.213-.985-.213c-.721,0-1.322.251-1.802.754-.48.502-.719,1.161-.719,1.976c0,.762.232,1.39.693,1.885.463.495,1.067.741,1.813.741.333,0,.652-.063.956-.19Z" fill="#fefefe" stroke-width="0"/></g><g transform="translate(54.303 67.812)"><path d="M-2.794,2.738c0,0,.641-.939.641-.939.313.294.649.515,1.005.664.355.149.778.224,1.271.224.433,0,.775-.095,1.029-.285.254-.188.381-.424.381-.708c0-.074-.008-.144-.022-.21-.015-.064-.045-.124-.09-.182-.045-.056-.087-.107-.127-.15-.039-.042-.103-.088-.191-.138-.086-.049-.161-.089-.223-.122-.062-.032-.154-.072-.278-.119-.125-.048-.227-.085-.304-.112s-.196-.07-.355-.131c-.079-.024-.138-.044-.178-.06-.279-.093-.514-.183-.706-.268-.191-.084-.391-.192-.6-.324s-.376-.273-.5-.422c-.124-.15-.228-.333-.31-.552s-.123-.46-.123-.724c0-.567.234-1.041.701-1.421.468-.381,1.055-.571,1.761-.571.96,0,1.814.306,2.56.917c0,0-.642.978-.642.978-.597-.517-1.255-.776-1.976-.776-.299,0-.565.079-.796.242-.232.162-.347.373-.347.631c0,.139.033.266.101.38.067.115.171.219.313.314.142.094.285.176.429.243.144.066.334.145.567.234.796.309,1.277.502,1.441.581.511.254.847.566,1.006.934.1.229.15.499.15.812c0,.294-.056.57-.168.826-.111.256-.276.481-.492.678-.217.197-.498.352-.844.463-.346.113-.734.167-1.167.167-1.14,0-2.111-.357-2.917-1.074Z" fill="#4c4c4c" stroke-width="0"/></g><g transform="translate(60.454 66.518)"><path d="M-1.392,2.794c0,0,0-4.148,0-4.148s-.947,0-.947,0s0-1.076,0-1.076.947,0,.947,0s0-2.543,0-2.543s1.239-.134,1.239-.134s0,2.677,0,2.677s2.462,0,2.462,0s0,1.076,0,1.076-2.462,0-2.462,0s0,3.961,0,3.961c0,.468.067.807.201,1.019.134.211.371.316.709.316.393,0,.811-.126,1.253-.379c0,0,.329,1.082.329,1.082-.159.088-.311.165-.456.227-.143.062-.335.116-.574.164-.238.047-.495.071-.768.071-1.288,0-1.933-.771-1.933-2.313Z" fill="#4c4c4c" stroke-width="0"/></g><g transform="translate(69.042 66.099)"><path d="M4.395,-5.428c0,0,0,10.856,0,10.856s-1.351,0-1.351,0-6.081-8.558-6.081-8.558-.03,0-.03,0s0,8.558,0,8.558-1.328,0-1.328,0s0-10.856,0-10.856s1.313,0,1.313,0s6.119,8.647,6.119,8.647.03,0,.03,0s0-8.647,0-8.647s1.328,0,1.328,0Z" fill="#4c4c4c" stroke-width="0"/></g><g transform="translate(79.271 67.812)"><path d="M3.731,-3.723c0,0,0,7.44,0,7.44s-1.186,0-1.186,0s0-1.179,0-1.179-.023,0-.023,0c-.303.402-.677.716-1.123.94-.445.224-.938.334-1.481.334-.507,0-.985-.091-1.433-.272-.447-.181-.834-.433-1.16-.756-.325-.323-.583-.722-.772-1.194s-.284-.988-.284-1.544c0-.727.156-1.383.467-1.97s.744-1.049,1.302-1.385c.557-.335,1.182-.503,1.873-.503.512,0,.988.101,1.429.305.44.204.814.501,1.123.889c0,0,.029,0,.029,0s0-1.105,0-1.105s1.239,0,1.239,0Z" fill="#4c4c4c" stroke-width="0"/><path d="M0.993,2.488c.303-.127.569-.303.798-.528.228-.227.41-.505.545-.836.134-.331.201-.688.201-1.072c0-.377-.064-.734-.19-1.07-.127-.336-.3-.626-.519-.869-.219-.244-.482-.436-.791-.578-.308-.142-.637-.213-.984-.213-.722,0-1.323.251-1.802.754-.481.502-.721,1.161-.721,1.976c0,.762.232,1.39.694,1.885.463.495,1.067.741,1.814.741.333,0,.651-.063.955-.19Z" fill="#fefefe" stroke-width="0"/></g><g transform="translate(91.002 67.764)"><path d="M5.066,-2.989c.437.518.657,1.316.657,2.396c0,0,0,4.357,0,4.357s-1.231,0-1.231,0s0-4.022,0-4.022c0-.826-.141-1.427-.422-1.805-.28-.378-.72-.568-1.317-.568-.596,0-1.094.246-1.492.739s-.597,1.147-.597,1.963c0,0,0,3.693,0,3.693s-1.231,0-1.231,0s0-4.037,0-4.037c0-.542-.067-.989-.202-1.343-.134-.353-.33-.61-.589-.772s-.585-.243-.977-.243c-.622,0-1.137.246-1.545.736-.408.489-.612,1.144-.612,1.966c0,0,0,3.693,0,3.693s-1.231,0-1.231,0s0-7.44,0-7.44s1.231,0,1.231,0s0,1.269,0,1.269.023,0,.023,0c.303-.433.674-.767,1.111-1.003.438-.236.901-.354,1.388-.354c1.18,0,1.963.482,2.35,1.447c0,0,.031,0,.031,0c.302-.463.689-.819,1.16-1.071.47-.251.986-.376,1.548-.376.86,0,1.51.257,1.947.775Z" fill="#4c4c4c" stroke-width="0"/></g><g transform="translate(101.972 67.812)"><path d="M3.473,0.388c0,0-5.716,0-5.716,0c.08.691.346,1.245.799,1.66.452.416,1.013.623,1.679.623.442,0,.841-.091,1.194-.273.353-.18.653-.423.902-.727c0,0,.866.739.866.739-.333.433-.755.775-1.265,1.026-.51.252-1.09.376-1.742.376-.523,0-1.011-.092-1.466-.279-.455-.186-.847-.445-1.176-.773-.328-.328-.587-.731-.775-1.208-.19-.478-.283-.995-.283-1.552c0-.552.091-1.066.275-1.542.185-.475.435-.877.75-1.208.316-.33.692-.59,1.131-.779.437-.19.905-.283,1.402-.283.682,0,1.286.159,1.814.477.527.318.933.756,1.219,1.315.287.56.429,1.194.429,1.901c0,.188-.012.357-.037.507Z" fill="#4c4c4c" stroke-width="0"/><path d="M-1.403,-2.124c-.426.366-.695.86-.81,1.482c0,0,4.493,0,4.493,0-.1-.617-.34-1.109-.721-1.477-.38-.368-.861-.552-1.443-.552-.587,0-1.093.182-1.519.547Z" fill="#fefefe" stroke-width="0"/></g><g transform="translate(108.394 67.062)"><path d="M-1.492,6.674c0,0,0-.977,0-.977s1.88,0,1.88,0s0-11.394,0-11.394-1.88,0-1.88,0s0-.977,0-.977s2.984,0,2.984,0s0,13.348,0,13.348-2.984,0-2.984,0Z" fill="#4c4c4c" stroke-width="0"/></g><g transform="translate(113.144 67.062)"><path d="M-1.492,6.674c0,0,0-.977,0-.977s1.88,0,1.88,0s0-11.394,0-11.394-1.88,0-1.88,0s0-.977,0-.977s2.984,0,2.984,0s0,13.348,0,13.348-2.984,0-2.984,0Z" fill="#4c4c4c" stroke-width="0"/></g><g transform="translate(26.195 128.428)"><path d="M-1.492,-6.675c0,0,2.984,0,2.984,0s0,.978,0,.978-1.881,0-1.881,0s0,11.393,0,11.393s1.881,0,1.881,0s0,.979,0,.979-2.984,0-2.984,0s0-13.35,0-13.35Z" fill="#4c4c4c" stroke-width="0"/></g><g transform="translate(30.945 128.428)"><path d="M-1.492,-6.675c0,0,2.984,0,2.984,0s0,.978,0,.978-1.88,0-1.88,0s0,11.393,0,11.393s1.88,0,1.88,0s0,.979,0,.979-2.984,0-2.984,0s0-13.35,0-13.35Z" fill="#4c4c4c" stroke-width="0"/></g><g transform="translate(39.884 127.465)"><path d="M5.339,-5.428c0,0,0,10.856,0,10.856s-1.328,0-1.328,0s0-8.319,0-8.319-.023,0-.023,0-3.537,6.133-3.537,6.133-.902,0-.902,0-3.537-6.133-3.537-6.133-.023,0-.023,0s0,8.319,0,8.319-1.328,0-1.328,0s0-10.856,0-10.856s1.336,0,1.336,0s3.985,7.021,3.985,7.021.045,0,.045,0s3.976-7.021,3.976-7.021s1.336,0,1.336,0Z" fill="#4c4c4c" stroke-width="0"/></g><g transform="translate(51.142 129.178)"><path d="M-1.563,3.518c-.482-.198-.889-.466-1.22-.807s-.59-.743-.776-1.208c-.187-.466-.28-.964-.28-1.496s.093-1.034.28-1.504c.186-.47.445-.875.776-1.216s.738-.609,1.22-.807c.482-.196,1.007-.292,1.573-.292.727,0,1.382.158,1.964.476s1.038.77,1.369,1.354c.331.585.496,1.248.496,1.989c0,.735-.165,1.394-.496,1.976s-.787,1.033-1.369,1.351-1.237.478-1.964.478c-.566,0-1.091-.098-1.573-.294Z" fill="#4c4c4c" stroke-width="0"/><path d="M1.31,2.334c.393-.224.704-.539.933-.947.228-.408.341-.868.341-1.38c0-.518-.113-.982-.341-1.392-.229-.411-.54-.727-.93-.952-.391-.224-.825-.335-1.303-.335-.507,0-.959.119-1.356.358-.399.239-.705.562-.919.97-.214.407-.322.858-.322,1.351c0,.487.11.933.327,1.339.216.405.523.727.921.967.398.238.847.358,1.349.358.473,0,.906-.112,1.3-.337Z" fill="#fefefe" stroke-width="0"/></g><g transform="translate(60.615 127.315)"><path d="M1.963,-1.447c.556.336.991.798,1.301,1.385.312.587.467,1.242.467,1.968c0,.557-.095,1.074-.284,1.545-.189.473-.446.871-.772,1.195-.326.323-.712.575-1.161.756-.447.181-.925.272-1.432.272-.542,0-1.035-.11-1.481-.332-.445-.221-.819-.535-1.123-.942c0,0-.022,0-.022,0s0,1.178,0,1.178-1.187,0-1.187,0s0-11.252,0-11.252s1.238,0,1.238,0s0,4.916,0,4.916.031,0,.031,0c.308-.387.682-.683,1.123-.887.44-.204.916-.306,1.428-.306.692,0,1.316.169,1.874.504Z" fill="#4c4c4c" stroke-width="0"/><path d="M1.776,3.798c.463-.495.693-1.122.693-1.884c0-.815-.239-1.474-.719-1.976-.48-.503-1.08-.754-1.802-.754-.468,0-.892.121-1.273.362-.379.241-.677.57-.891.988s-.32.878-.32,1.38c0,.384.066.74.201,1.072.133.331.315.608.545.834.228.226.494.403.797.53.304.127.623.19.956.19.746,0,1.35-.247,1.813-.742Z" fill="#fefefe" stroke-width="0"/></g><g transform="translate(66.981 127.614)"><path d="M-0.627,-3.794c-.169-.169-.253-.373-.253-.613c0-.243.084-.45.253-.619s.378-.253.627-.253c.159,0,.306.039.44.116s.242.182.321.317c.08.134.119.28.119.439c0,.24-.085.444-.257.613s-.38.254-.623.254c-.249,0-.458-.085-.627-.254Z" fill="#4c4c4c" stroke-width="0"/><path d="M-0.627,-2.16c0,0,1.231,0,1.231,0s0,7.439,0,7.439-1.231,0-1.231,0s0-7.439,0-7.439Z" fill="#4c4c4c" stroke-width="0"/></g><g transform="translate(70.787 127.267)"><path d="M-0.615,-5.626c0,0,1.23,0,1.23,0s0,11.252,0,11.252-1.23,0-1.23,0s0-11.252,0-11.252Z" fill="#4c4c4c" stroke-width="0"/></g><g transform="translate(76.919 129.178)"><path d="M3.473,0.388c0,0-5.716,0-5.716,0c.079.691.347,1.245.799,1.66.453.416,1.012.623,1.678.623.443,0,.841-.091,1.194-.273.353-.18.654-.423.902-.727c0,0,.868.739.868.739-.334.433-.756.775-1.266,1.026-.511.252-1.091.376-1.743.376-.522,0-1.01-.092-1.465-.279-.455-.186-.848-.445-1.176-.773s-.587-.731-.776-1.208c-.189-.478-.282-.995-.282-1.552c0-.552.091-1.066.275-1.542.185-.475.435-.877.75-1.208.316-.33.693-.59,1.131-.779.437-.19.904-.283,1.401-.283.682,0,1.286.159,1.814.477.527.318.933.756,1.219,1.315.287.56.43,1.194.43,1.901c0,.188-.012.357-.037.507Z" fill="#4c4c4c" stroke-width="0"/><path d="M-1.403,-2.124c-.425.366-.696.86-.811,1.482c0,0,4.494,0,4.494,0-.1-.617-.721-1.477-.721-1.477s-.862-.552-1.444-.552c-.587,0-1.092.182-1.518.547Z" fill="#fefefe" stroke-width="0"/></g><g transform="translate(86.892 127.465)"><path d="M4.395,-5.428c0,0,0,10.856,0,10.856s-1.352,0-1.352,0-6.08-8.558-6.08-8.558-.03,0-.03,0s0,8.558,0,8.558-1.328,0-1.328,0s0-10.856,0-10.856s1.313,0,1.313,0s6.119,8.647,6.119,8.647.03,0,.03,0s0-8.647,0-8.647s1.328,0,1.328,0Z" fill="#4c4c4c" stroke-width="0"/></g><g transform="translate(97.214 129.178)"><path d="M-1.563,3.518c-.482-.198-.889-.466-1.22-.807-.33-.341-.589-.743-.775-1.208-.187-.466-.281-.964-.281-1.496s.094-1.034.281-1.504c.186-.47.445-.875.775-1.216.331-.341.738-.609,1.22-.807.482-.196,1.007-.292,1.574-.292.726,0,1.381.158,1.963.476s1.038.77,1.369,1.354c.331.585.496,1.248.496,1.989c0,.735-.165,1.394-.496,1.976s-.787,1.033-1.369,1.351-1.237.478-1.963.478c-.567,0-1.092-.098-1.574-.294Z" fill="#4c4c4c" stroke-width="0"/><path d="M1.31,2.334c0,0,.704-.539.933-.947.228-.408.342-.868.342-1.38c0-.518-.114-.982-.342-1.392-.229-.411-.539-.727-.93-.952-.391-.224-.824-.335-1.302-.335-.508,0-.96.119-1.357.358-.399.239-.705.562-.919.97-.214.407-.32.858-.32,1.351c0,.487.109.933.325,1.339.216.405.522.727.921.967.397.238.847.358,1.35.358.472,0,.906-.112,1.299-.337Z" fill="#fefefe" stroke-width="0"/></g><g transform="translate(103.666 128.427)"><path d="M-1.492,6.674c0,0,0-.977,0-.977s1.88,0,1.88,0s0-11.394,0-11.394-1.88,0-1.88,0s0-.977,0-.977s2.984,0,2.984,0s0,13.348,0,13.348-2.984,0-2.984,0Z" fill="#4c4c4c" stroke-width="0"/></g><g transform="translate(108.415 128.427)"><path d="M-1.492,6.674c0,0,0-.977,0-.977s1.88,0,1.88,0s0-11.394,0-11.394-1.88,0-1.88,0s0-.977,0-.977s2.984,0,2.984,0s0,13.348,0,13.348-2.984,0-2.984,0Z" fill="#4c4c4c" stroke-width="0"/></g><g id="evVkep4CKHM351" transform="translate(-598.380895-537.161135)"><g id="evVkep4CKHM352_ts" transform="translate(614.424,555.656) scale(0,0)"><g transform="translate(-15.614,-16.342)"><g transform="translate(113.255 36.379)"><path d="M-1.492,6.674c0,0,0-.977,0-.977s1.88,0,1.88,0s0-11.394,0-11.394-1.88,0-1.88,0s0-.977,0-.977s2.984,0,2.984,0s0,13.348,0,13.348-2.984,0-2.984,0Z" fill="#4c4c4c" stroke-width="0"/></g><g transform="translate(26.195 36.379)"><path d="M-1.492,-6.675c0,0,2.984,0,2.984,0s0,.978,0,.978-1.881,0-1.881,0s0,11.393,0,11.393s1.881,0,1.881,0s0,.979,0,.979-2.984,0-2.984,0s0-13.35,0-13.35Z" fill="#4c4c4c" stroke-width="0"/></g><g transform="translate(30.945 36.379)"><path d="M-1.492,-6.675c0,0,2.984,0,2.984,0s0,.978,0,.978-1.88,0-1.88,0s0,11.393,0,11.393s1.88,0,1.88,0s0,.979,0,.979-2.984,0-2.984,0s0-13.35,0-13.35Z" fill="#4c4c4c" stroke-width="0"/></g><g transform="translate(38.008 35.416)"><path d="M-3.462,-5.428c0,0,6.924,0,6.924,0s0,1.224,0,1.224-5.597,0-5.597,0s0,3.812,0,3.812s4.753,0,4.753,0s0,1.224,0,1.224-4.753,0-4.753,0s0,4.596,0,4.596-1.327,0-1.327,0s0-10.856,0-10.856Z" fill="#4c4c4c" stroke-width="0"/></g><g transform="translate(43.732 35.566)"><path d="M-0.626,-3.795c-.17-.169-.254-.373-.254-.612c0-.244.084-.45.254-.618.169-.169.378-.253.626-.253.159,0,.307.038.44.115.135.077.241.181.321.316.079.134.119.28.119.44c0,.239-.085.443-.257.612-.171.169-.379.254-.623.254-.248,0-.457-.085-.626-.254Z" fill="#4c4c4c" stroke-width="0"/><path d="M-0.626,-2.161c0,0,1.23,0,1.23,0s0,7.439,0,7.439-1.23,0-1.23,0s0-7.439,0-7.439Z" fill="#4c4c4c" stroke-width="0"/></g><g transform="translate(48.807 37.08)"><path d="M1.996,-3.75c0,0,0,1.366,0,1.366-.18-.014-.344-.022-.493-.022-.462,0-.865.112-1.208.336-.344.223-.605.53-.784.918-.179.387-.269.83-.269,1.328c0,0,0,3.588,0,3.588s-1.238,0-1.238,0s0-7.44,0-7.44s1.238,0,1.238,0s0,1.3,0,1.3.03,0,.03,0c.279-.443.625-.785,1.041-1.026.415-.242.874-.362,1.376-.362.145,0,.247.004.307.014Z" fill="#4c4c4c" stroke-width="0"/></g><g transform="translate(54.414 37.128)"><path d="M-2.794,2.738c0,0,.641-.939.641-.939.313.294.649.515,1.005.664.355.149.778.224,1.271.224.433,0,.775-.095,1.029-.285.254-.188.381-.424.381-.708c0-.074-.008-.144-.022-.21-.015-.064-.045-.124-.09-.182-.045-.056-.087-.107-.127-.15-.039-.042-.103-.088-.191-.138-.086-.049-.161-.089-.223-.122-.062-.032-.154-.072-.278-.119-.125-.048-.227-.085-.304-.112s-.196-.07-.355-.131c-.079-.024-.138-.044-.178-.06-.279-.093-.514-.183-.706-.268-.191-.084-.391-.192-.6-.324s-.376-.273-.5-.422c-.124-.15-.228-.333-.31-.552s-.123-.46-.123-.724c0-.567.234-1.041.701-1.421.468-.381,1.055-.571,1.761-.571.96,0,1.814.306,2.56.917c0,0-.642.978-.642.978-.597-.517-1.255-.776-1.976-.776-.299,0-.565.079-.796.242-.232.162-.347.373-.347.631c0,.139.033.266.101.38.067.115.171.219.313.314.142.094.285.176.429.243.144.066.334.145.567.234.796.309,1.277.502,1.441.581.511.254.847.566,1.006.934.1.229.15.499.15.812c0,.294-.056.57-.168.826-.111.256-.276.481-.492.678-.217.197-.498.352-.844.463-.346.113-.734.167-1.167.167-1.14,0-2.111-.357-2.917-1.074Z" fill="#4c4c4c" stroke-width="0"/></g><g transform="translate(60.565 35.834)"><path d="M-1.392,2.794c0,0,0-4.148,0-4.148s-.947,0-.947,0s0-1.076,0-1.076.947,0,.947,0s0-2.543,0-2.543s1.239-.134,1.239-.134s0,2.677,0,2.677s2.462,0,2.462,0s0,1.076,0,1.076-2.462,0-2.462,0s0,3.961,0,3.961c0,.468.067.807.201,1.019.134.211.371.316.709.316.393,0,.811-.126,1.253-.379c0,0,.329,1.082.329,1.082-.159.088-.311.165-.456.227-.143.062-.335.116-.574.164-.238.047-.495.071-.768.071-1.288,0-1.933-.771-1.933-2.313Z" fill="#4c4c4c" stroke-width="0"/></g><g transform="translate(69.153 35.416)"><path d="M4.395,-5.428c0,0,0,10.856,0,10.856s-1.351,0-1.351,0-6.081-8.558-6.081-8.558-.03,0-.03,0s0,8.558,0,8.558-1.328,0-1.328,0s0-10.856,0-10.856s1.313,0,1.313,0s6.119,8.647,6.119,8.647.03,0,.03,0s0-8.647,0-8.647s1.328,0,1.328,0Z" fill="#4c4c4c" stroke-width="0"/></g><g transform="translate(79.382 37.128)"><path d="M3.731,-3.723c0,0,0,7.44,0,7.44s-1.186,0-1.186,0s0-1.179,0-1.179-.023,0-.023,0c-.303.402-.677.716-1.123.94-.445.224-.938.334-1.481.334-.507,0-.985-.091-1.433-.272-.447-.181-.834-.433-1.16-.756-.325-.323-.583-.722-.772-1.194s-.284-.988-.284-1.544c0-.727.156-1.383.467-1.97s.744-1.049,1.302-1.385c.557-.335,1.182-.503,1.873-.503.512,0,.988.101,1.429.305.44.204.814.501,1.123.889c0,0,.029,0,.029,0s0-1.105,0-1.105s1.239,0,1.239,0Z" fill="#4c4c4c" stroke-width="0"/><path d="M0.993,2.488c.303-.127.569-.303.798-.528.228-.227.41-.505.545-.836.134-.331.201-.688.201-1.072c0-.377-.064-.734-.19-1.07-.127-.336-.3-.626-.519-.869-.219-.244-.482-.436-.791-.578-.308-.142-.637-.213-.984-.213-.722,0-1.323.251-1.802.754-.481.502-.721,1.161-.721,1.976c0,.762.232,1.39.694,1.885.463.495,1.067.741,1.814.741.333,0,.651-.063.955-.19Z" fill="#fff" stroke-width="0"/></g><g transform="translate(91.113 37.08)"><path d="M5.066,-2.989c.437.518.657,1.316.657,2.396c0,0,0,4.357,0,4.357s-1.231,0-1.231,0s0-4.022,0-4.022c0-.826-.141-1.427-.422-1.805-.28-.378-.72-.568-1.317-.568-.596,0-1.094.246-1.492.739s-.597,1.147-.597,1.963c0,0,0,3.693,0,3.693s-1.231,0-1.231,0s0-4.037,0-4.037c0-.542-.067-.989-.202-1.343-.134-.353-.33-.61-.589-.772s-.585-.243-.977-.243c-.622,0-1.137.246-1.545.736-.408.489-.612,1.144-.612,1.966c0,0,0,3.693,0,3.693s-1.231,0-1.231,0s0-7.44,0-7.44s1.231,0,1.231,0s0,1.269,0,1.269.023,0,.023,0c.303-.433.674-.767,1.111-1.003.438-.236.901-.354,1.388-.354c1.18,0,1.963.482,2.35,1.447c0,0,.031,0,.031,0c.302-.463.689-.819,1.16-1.071.47-.251.986-.376,1.548-.376.86,0,1.51.257,1.947.775Z" fill="#4c4c4c" stroke-width="0"/></g><g transform="translate(102.083 37.129)"><path d="M3.473,0.388c0,0-5.716,0-5.716,0c.08.691.346,1.245.799,1.66.452.416,1.013.623,1.679.623.442,0,.841-.091,1.194-.273.353-.18.653-.423.902-.727c0,0,.866.739.866.739-.333.433-.755.775-1.265,1.026-.51.252-1.09.376-1.742.376-.523,0-1.011-.092-1.466-.279-.455-.186-.847-.445-1.176-.773-.328-.328-.587-.731-.775-1.208-.19-.478-.283-.995-.283-1.552c0-.552.091-1.066.275-1.542.185-.475.435-.877.75-1.208.316-.33.692-.59,1.131-.779.437-.19.905-.283,1.402-.283.682,0,1.286.159,1.814.477.527.318.933.756,1.219,1.315.287.56.429,1.194.429,1.901c0,.188-.012.357-.037.507Z" fill="#4c4c4c" stroke-width="0"/><path d="M-1.403,-2.124c-.426.366-.695.86-.81,1.482c0,0,4.493,0,4.493,0-.1-.617-.34-1.109-.721-1.477-.38-.368-.861-.552-1.443-.552-.587,0-1.093.182-1.519.547Z" fill="#fefefe" stroke-width="0"/></g><g transform="translate(108.505 36.379)"><path d="M-1.492,6.674c0,0,0-.977,0-.977s1.88,0,1.88,0s0-11.394,0-11.394-1.88,0-1.88,0s0-.977,0-.977s2.984,0,2.984,0s0,13.348,0,13.348-2.984,0-2.984,0Z" fill="#4c4c4c" stroke-width="0"/></g></g></g></g></g></g><g id="evVkep4CKHM382_ts" transform="translate(614.423,375.89) scale(0,0)"><g transform="translate(0,0)"><g id="evVkep4CKHM383" transform="translate(69.722 36.895)" opacity="0"><path d="M53.04,11.525c0,0-106.079,0-106.079,0-.001,0-.001,0-.001,0s0-23.05,0-23.05s106.08,0,106.08,0s0,23.05,0,23.05Z" fill="#5f0b22" stroke-width="0"/></g></g></g><g id="evVkep4CKHM385" transform="translate(-.001-179.767)" opacity="0"><g id="evVkep4CKHM386_ts" transform="translate(630.424,572.656) scale(0,0)"><g transform="translate(-15.614,-16.342)"><g transform="translate(113.255 36.379)"><path d="M-1.492,6.674c0,0,0-.977,0-.977s1.88,0,1.88,0s0-11.394,0-11.394-1.88,0-1.88,0s0-.977,0-.977s2.984,0,2.984,0s0,13.348,0,13.348-2.984,0-2.984,0Z" fill="#fff" stroke-width="0"/></g><g transform="translate(26.195 36.379)"><path d="M-1.492,-6.675c0,0,2.984,0,2.984,0s0,.978,0,.978-1.881,0-1.881,0s0,11.393,0,11.393s1.881,0,1.881,0s0,.979,0,.979-2.984,0-2.984,0s0-13.35,0-13.35Z" fill="#fff" stroke-width="0"/></g><g transform="translate(30.945 36.379)"><path d="M-1.492,-6.675c0,0,2.984,0,2.984,0s0,.978,0,.978-1.88,0-1.88,0s0,11.393,0,11.393s1.88,0,1.88,0s0,.979,0,.979-2.984,0-2.984,0s0-13.35,0-13.35Z" fill="#fff" stroke-width="0"/></g><g transform="translate(38.008 35.416)"><path d="M-3.462,-5.428c0,0,6.924,0,6.924,0s0,1.224,0,1.224-5.597,0-5.597,0s0,3.812,0,3.812s4.753,0,4.753,0s0,1.224,0,1.224-4.753,0-4.753,0s0,4.596,0,4.596-1.327,0-1.327,0s0-10.856,0-10.856Z" fill="#fff" stroke-width="0"/></g><g transform="translate(43.732 35.566)"><path d="M-0.626,-3.795c-.17-.169-.254-.373-.254-.612c0-.244.084-.45.254-.618.169-.169.378-.253.626-.253.159,0,.307.038.44.115.135.077.241.181.321.316.079.134.119.28.119.44c0,.239-.085.443-.257.612-.171.169-.379.254-.623.254-.248,0-.457-.085-.626-.254Z" fill="#fff" stroke-width="0"/><path d="M-0.626,-2.161c0,0,1.23,0,1.23,0s0,7.439,0,7.439-1.23,0-1.23,0s0-7.439,0-7.439Z" fill="#fff" stroke-width="0"/></g><g transform="translate(48.807 37.08)"><path d="M1.996,-3.75c0,0,0,1.366,0,1.366-.18-.014-.344-.022-.493-.022-.462,0-.865.112-1.208.336-.344.223-.605.53-.784.918-.179.387-.269.83-.269,1.328c0,0,0,3.588,0,3.588s-1.238,0-1.238,0s0-7.44,0-7.44s1.238,0,1.238,0s0,1.3,0,1.3.03,0,.03,0c.279-.443.625-.785,1.041-1.026.415-.242.874-.362,1.376-.362.145,0,.247.004.307.014Z" fill="#fff" stroke-width="0"/></g><g transform="translate(54.414 37.128)"><path d="M-2.794,2.738c0,0,.641-.939.641-.939.313.294.649.515,1.005.664.355.149.778.224,1.271.224.433,0,.775-.095,1.029-.285.254-.188.381-.424.381-.708c0-.074-.008-.144-.022-.21-.015-.064-.045-.124-.09-.182-.045-.056-.087-.107-.127-.15-.039-.042-.103-.088-.191-.138-.086-.049-.161-.089-.223-.122-.062-.032-.154-.072-.278-.119-.125-.048-.227-.085-.304-.112s-.196-.07-.355-.131c-.079-.024-.138-.044-.178-.06-.279-.093-.514-.183-.706-.268-.191-.084-.391-.192-.6-.324s-.376-.273-.5-.422c-.124-.15-.228-.333-.31-.552s-.123-.46-.123-.724c0-.567.234-1.041.701-1.421.468-.381,1.055-.571,1.761-.571.96,0,1.814.306,2.56.917c0,0-.642.978-.642.978-.597-.517-1.255-.776-1.976-.776-.299,0-.565.079-.796.242-.232.162-.347.373-.347.631c0,.139.033.266.101.38.067.115.171.219.313.314.142.094.285.176.429.243.144.066.334.145.567.234.796.309,1.277.502,1.441.581.511.254.847.566,1.006.934.1.229.15.499.15.812c0,.294-.056.57-.168.826-.111.256-.276.481-.492.678-.217.197-.498.352-.844.463-.346.113-.734.167-1.167.167-1.14,0-2.111-.357-2.917-1.074Z" fill="#fff" stroke-width="0"/></g><g transform="translate(60.565 35.834)"><path d="M-1.392,2.794c0,0,0-4.148,0-4.148s-.947,0-.947,0s0-1.076,0-1.076.947,0,.947,0s0-2.543,0-2.543s1.239-.134,1.239-.134s0,2.677,0,2.677s2.462,0,2.462,0s0,1.076,0,1.076-2.462,0-2.462,0s0,3.961,0,3.961c0,.468.067.807.201,1.019.134.211.371.316.709.316.393,0,.811-.126,1.253-.379c0,0,.329,1.082.329,1.082-.159.088-.311.165-.456.227-.143.062-.335.116-.574.164-.238.047-.495.071-.768.071-1.288,0-1.933-.771-1.933-2.313Z" fill="#fff" stroke-width="0"/></g><g transform="translate(69.153 35.416)"><path d="M4.395,-5.428c0,0,0,10.856,0,10.856s-1.351,0-1.351,0-6.081-8.558-6.081-8.558-.03,0-.03,0s0,8.558,0,8.558-1.328,0-1.328,0s0-10.856,0-10.856s1.313,0,1.313,0s6.119,8.647,6.119,8.647.03,0,.03,0s0-8.647,0-8.647s1.328,0,1.328,0Z" fill="#fff" stroke-width="0"/></g><g transform="translate(79.382 37.128)"><path d="M3.731,-3.723c0,0,0,7.44,0,7.44s-1.186,0-1.186,0s0-1.179,0-1.179-.023,0-.023,0c-.303.402-.677.716-1.123.94-.445.224-.938.334-1.481.334-.507,0-.985-.091-1.433-.272-.447-.181-.834-.433-1.16-.756-.325-.323-.583-.722-.772-1.194s-.284-.988-.284-1.544c0-.727.156-1.383.467-1.97s.744-1.049,1.302-1.385c.557-.335,1.182-.503,1.873-.503.512,0,.988.101,1.429.305.44.204.814.501,1.123.889c0,0,.029,0,.029,0s0-1.105,0-1.105s1.239,0,1.239,0Z" fill="#fff" stroke-width="0"/><path d="M0.993,2.488c.303-.127.569-.303.798-.528.228-.227.41-.505.545-.836.134-.331.201-.688.201-1.072c0-.377-.064-.734-.19-1.07-.127-.336-.3-.626-.519-.869-.219-.244-.482-.436-.791-.578-.308-.142-.637-.213-.984-.213-.722,0-1.323.251-1.802.754-.481.502-.721,1.161-.721,1.976c0,.762.232,1.39.694,1.885.463.495,1.067.741,1.814.741.333,0,.651-.063.955-.19Z" fill="#5f0b22" stroke-width="0"/></g><g transform="translate(91.113 37.08)"><path d="M5.066,-2.989c.437.518.657,1.316.657,2.396c0,0,0,4.357,0,4.357s-1.231,0-1.231,0s0-4.022,0-4.022c0-.826-.141-1.427-.422-1.805-.28-.378-.72-.568-1.317-.568-.596,0-1.094.246-1.492.739s-.597,1.147-.597,1.963c0,0,0,3.693,0,3.693s-1.231,0-1.231,0s0-4.037,0-4.037c0-.542-.067-.989-.202-1.343-.134-.353-.33-.61-.589-.772s-.585-.243-.977-.243c-.622,0-1.137.246-1.545.736-.408.489-.612,1.144-.612,1.966c0,0,0,3.693,0,3.693s-1.231,0-1.231,0s0-7.44,0-7.44s1.231,0,1.231,0s0,1.269,0,1.269.023,0,.023,0c.303-.433.674-.767,1.111-1.003.438-.236.901-.354,1.388-.354c1.18,0,1.963.482,2.35,1.447c0,0,.031,0,.031,0c.302-.463.689-.819,1.16-1.071.47-.251.986-.376,1.548-.376.86,0,1.51.257,1.947.775Z" fill="#fff" stroke-width="0"/></g><g transform="translate(102.083 37.129)"><path d="M3.473,0.388c0,0-5.716,0-5.716,0c.08.691.346,1.245.799,1.66.452.416,1.013.623,1.679.623.442,0,.841-.091,1.194-.273.353-.18.653-.423.902-.727c0,0,.866.739.866.739-.333.433-.755.775-1.265,1.026-.51.252-1.09.376-1.742.376-.523,0-1.011-.092-1.466-.279-.455-.186-.847-.445-1.176-.773-.328-.328-.587-.731-.775-1.208-.19-.478-.283-.995-.283-1.552c0-.552.091-1.066.275-1.542.185-.475.435-.877.75-1.208.316-.33.692-.59,1.131-.779.437-.19.905-.283,1.402-.283.682,0,1.286.159,1.814.477.527.318.933.756,1.219,1.315.287.56.429,1.194.429,1.901c0,.188-.012.357-.037.507Z" fill="#fff" stroke-width="0"/><path d="M-1.403,-2.124c-.426.366-.695.86-.81,1.482c0,0,4.493,0,4.493,0-.1-.617-.34-1.109-.721-1.477-.38-.368-.861-.552-1.443-.552-.587,0-1.093.182-1.519.547Z" fill="#5f0b22" stroke-width="0"/></g><g transform="translate(108.505 36.379)"><path d="M-1.492,6.674c0,0,0-.977,0-.977s1.88,0,1.88,0s0-11.394,0-11.394-1.88,0-1.88,0s0-.977,0-.977s2.984,0,2.984,0s0,13.348,0,13.348-2.984,0-2.984,0Z" fill="#fff" stroke-width="0"/></g></g></g></g><g id="evVkep4CKHM416_ts" transform="translate(614.423,375.89) scale(0,0)"><g transform="translate(0,0)"><g id="evVkep4CKHM417" transform="translate(24.164 89.756)"><g transform="translate(1.742 7.037)"><path d="M-1.492,-6.675c0,0,2.984,0,2.984,0s0,.978,0,.978-1.881,0-1.881,0s0,11.393,0,11.393s1.881,0,1.881,0s0,.979,0,.979-2.984,0-2.984,0s0-13.35,0-13.35Z" fill="#4c4c4c" stroke-width="0"/></g><g transform="translate(6.492 7.037)"><path d="M-1.492,-6.675c0,0,2.984,0,2.984,0s0,.978,0,.978-1.88,0-1.88,0s0,11.393,0,11.393s1.88,0,1.88,0s0,.979,0,.979-2.984,0-2.984,0s0-13.35,0-13.35Z" fill="#4c4c4c" stroke-width="0"/></g><g transform="translate(13.574 6.074)"><path d="M-3.481,-5.428c0,0,6.641,0,6.641,0s0,1.224,0,1.224-5.305,0-5.305,0s0,3.633,0,3.633s4.357,0,4.357,0s0,1.224,0,1.224-4.357,0-4.357,0s0,3.552,0,3.552s5.626,0,5.626,0s0,1.223,0,1.223-6.962,0-6.962,0s0-10.856,0-10.856Z" fill="#4c4c4c" stroke-width="0"/></g><g transform="translate(24.748 7.739)"><path d="M5.066,-2.989c.438.518.657,1.316.657,2.396c0,0,0,4.357,0,4.357s-1.231,0-1.231,0s0-4.022,0-4.022c0-.826-.141-1.427-.422-1.805-.28-.378-.72-.568-1.317-.568-.596,0-1.094.246-1.492.739s-.597,1.147-.597,1.963c0,0,0,3.693,0,3.693s-1.231,0-1.231,0s0-4.037,0-4.037c0-.542-.067-.989-.202-1.343-.134-.353-.33-.61-.589-.772s-.585-.243-.977-.243c-.622,0-1.137.246-1.545.736-.408.489-.612,1.144-.612,1.966c0,0,0,3.693,0,3.693s-1.231,0-1.231,0s0-7.44,0-7.44s1.231,0,1.231,0s0,1.269,0,1.269.023,0,.023,0c.303-.433.674-.767,1.111-1.003.438-.236.901-.354,1.388-.354c1.18,0,1.963.482,2.35,1.447c0,0,.031,0,.031,0c.302-.463.689-.819,1.16-1.071.47-.251.986-.376,1.548-.376.86,0,1.51.257,1.947.775Z" fill="#4c4c4c" stroke-width="0"/></g><g transform="translate(35.953 7.786)"><path d="M3.731,-3.723c0,0,0,7.44,0,7.44s-1.186,0-1.186,0s0-1.179,0-1.179-.023,0-.023,0c-.303.402-.677.716-1.123.94-.445.224-.938.334-1.481.334-.507,0-.985-.091-1.433-.272-.447-.181-.834-.433-1.16-.756-.325-.323-.583-.722-.772-1.194s-.284-.988-.284-1.544c0-.727.156-1.383.467-1.97s.744-1.049,1.302-1.385c.557-.335,1.182-.503,1.873-.503.512,0,.988.101,1.429.305.44.204.814.501,1.123.889c0,0,.029,0,.029,0s0-1.105,0-1.105s1.239,0,1.239,0Z" fill="#4c4c4c" stroke-width="0"/><path d="M0.993,2.488c.303-.127.569-.303.798-.528.228-.227.41-.505.545-.836.134-.331.201-.688.201-1.072c0-.377-.064-.734-.19-1.07-.127-.336-.3-.626-.519-.869-.219-.244-.482-.436-.791-.578-.308-.142-.637-.213-.984-.213-.722,0-1.323.251-1.802.754-.481.502-.721,1.161-.721,1.976c0,.762.232,1.39.694,1.885.463.495,1.067.741,1.814.741.333,0,.651-.063.955-.19Z" fill="#fefefe" stroke-width="0"/></g><g transform="translate(42.692 6.224)"><path d="M-0.626,-3.794c-.169-.169-.254-.373-.254-.612c0-.243.085-.451.254-.62s.377-.253.626-.253c.159,0,.307.038.442.115.133.077.24.184.319.318.08.134.119.281.119.44c0,.239-.084.443-.256.612s-.381.254-.624.254c-.249,0-.457-.085-.626-.254Z" fill="#4c4c4c" stroke-width="0"/><path d="M-0.626,-2.16c0,0,1.23,0,1.23,0s0,7.439,0,7.439-1.23,0-1.23,0s0-7.439,0-7.439Z" fill="#4c4c4c" stroke-width="0"/></g><g transform="translate(46.498 5.876)"><path d="M-0.615,-5.626c0,0,1.23,0,1.23,0s0,11.252,0,11.252-1.23,0-1.23,0s0-11.252,0-11.252Z" fill="#4c4c4c" stroke-width="0"/></g><g transform="translate(50.525 6.074)"><path d="M-0.668,-5.428c0,0,1.336,0,1.336,0s0,10.856,0,10.856-1.336,0-1.336,0s0-10.856,0-10.856Z" fill="#4c4c4c" stroke-width="0"/></g><g transform="translate(58.465 6.075)"><path d="M-4.44,-5.428c0,0,3.246,0,3.246,0c.846,0,1.621.133,2.328.402.706.269,1.301.642,1.783,1.12.483.478.857,1.052,1.123,1.724.266.671.4,1.405.4,2.201c0,1.616-.504,2.922-1.512,3.917-1.007.995-2.366,1.492-4.077,1.492c0,0-3.291,0-3.291,0s0-10.856,0-10.856Z" fill="#4c4c4c" stroke-width="0"/><path d="M-1.231,4.219c.428,0,.834-.047,1.22-.142.385-.094.736-.228,1.051-.403.317-.174.601-.388.855-.642.254-.252.467-.534.638-.842.172-.309.303-.647.395-1.015.093-.368.139-.754.139-1.156c0-.821-.177-1.553-.53-2.195-.353-.641-.852-1.142-1.497-1.502-.643-.362-1.38-.541-2.211-.541c0,0-1.941,0-1.941,0s0,8.438,0,8.438s1.881,0,1.881,0Z" fill="#fefefe" stroke-width="0"/></g><g transform="translate(65.695 7.037)"><path d="M-1.492,6.674c0,0,0-.977,0-.977s1.88,0,1.88,0s0-11.394,0-11.394-1.88,0-1.88,0s0-.977,0-.977s2.984,0,2.984,0s0,13.348,0,13.348-2.984,0-2.984,0Z" fill="#4c4c4c" stroke-width="0"/></g><g transform="translate(70.445 7.037)"><path d="M-1.492,6.674c0,0,0-.977,0-.977s1.88,0,1.88,0s0-11.394,0-11.394-1.88,0-1.88,0s0-.977,0-.977s2.984,0,2.984,0s0,13.348,0,13.348-2.984,0-2.984,0Z" fill="#4c4c4c" stroke-width="0"/></g></g></g></g><g transform="translate(9.451 8.124)"><g id="evVkep4CKHM444_to" style="offset-path:path('M396.928,247.363C432.928,265.696,576.928,339.03,612.928,357.363L612.928,357.363C629.511,364.196,695.845,391.53,712.428,398.363');offset-rotate:0deg"><g id="evVkep4CKHM444_ts" transform="rotate(-38) scale(0.78,0.78)"><g transform="translate(-13.067,-13.226)"><g transform="translate(13.067 13.226)"><path d="M-12.817,12.975c0,0,12.816-25.95,12.816-25.95s12.818,25.95,12.818,25.95-12.818-7.444-12.818-7.444-12.816,7.444-12.816,7.444Z" fill="#a03653" stroke-width="0"/></g></g></g></g></g><text dx="0" dy="0" font-family="&quot;Averta-Regular&quot;" font-size="16" font-weight="400" transform="translate(80.999 430.233)" fill="#4c4c4c" stroke="#000" stroke-width="0"><tspan x="0" y="0" font-family="&quot;Averta-Regular&quot;" font-size="16" font-weight="400" font-style="normal" fill="#4c4c4c" stroke="#000" stroke-width="0"><![CDATA[
Dear,
]]></tspan><tspan x="0" y="50" font-family="&quot;Averta-Regular&quot;" font-size="16" font-weight="400" font-style="normal" fill="#4c4c4c" stroke="#000" stroke-width="0"><![CDATA[
Were thrilled to introduce [Product Name], designed to 
]]></tspan><tspan x="0" y="75" font-family="&quot;Averta-Regular&quot;" font-size="16" font-weight="400" font-style="normal" fill="#4c4c4c" stroke="#000" stroke-width="0"><![CDATA[
briefly describe the key benefit or purpose, 
]]></tspan><tspan x="0" y="100" font-family="&quot;Averta-Regular&quot;" font-size="16" font-weight="400" font-style="normal" fill="#4c4c4c" stroke="#000" stroke-width="0"><![CDATA[
e.g., "simplify your workflow" or "enhance your email campaigns".
]]></tspan></text><text dx="0" dy="0" font-family="&quot;Averta-Regular&quot;" font-size="16" font-weight="400" transform="translate(80.999 430.233)" fill="#4c4c4c" stroke="#000" stroke-width="0"><tspan x="0" y="0" font-family="&quot;Averta-Regular&quot;" font-size="16" font-weight="400" font-style="normal" fill="#4c4c4c" stroke="#000" stroke-width="0"><![CDATA[
Dear [[First Name]],
]]></tspan><tspan x="0" y="50" font-family="&quot;Averta-Regular&quot;" font-size="16" font-weight="400" font-style="normal" fill="#4c4c4c" stroke="#000" stroke-width="0"><![CDATA[
Were thrilled to introduce [Product Name], designed to 
]]></tspan><tspan x="0" y="75" font-family="&quot;Averta-Regular&quot;" font-size="16" font-weight="400" font-style="normal" fill="#4c4c4c" stroke="#000" stroke-width="0"><![CDATA[
briefly describe the key benefit or purpose, 
]]></tspan><tspan x="0" y="100" font-family="&quot;Averta-Regular&quot;" font-size="16" font-weight="400" font-style="normal" fill="#4c4c4c" stroke="#000" stroke-width="0"><![CDATA[
e.g., "simplify your workflow" or "enhance your email campaigns".
]]></tspan></text></svg>
