<svg width="633" height="455" viewBox="0 0 633 455" fill="none" xmlns="http://www.w3.org/2000/svg">
<path d="M8.52149 413.11C3.81938 413.11 0 409.302 0 404.614V71.7548H541.338V404.614C541.338 409.302 537.518 413.11 532.816 413.11H8.52149Z" fill="white"/>
<path d="M541.329 72.1905V404.832C541.329 409.398 537.606 413.11 533.026 413.11H8.73999C4.16024 413.11 0.437 409.398 0.437 404.832V72.1905H541.338M541.766 71.7548H0V404.832C0 409.642 3.91552 413.545 8.73999 413.545H533.035C537.859 413.545 541.775 409.642 541.775 404.832V71.7548H541.766Z" fill="white"/>
<path d="M542.089 74.5258L0.0612341 75.8938L5.4427e-05 53.7003C-0.0174256 48.5332 4.17777 44.3332 9.36933 44.3245L532.615 43.0001C537.798 42.9826 542.019 47.1651 542.028 52.3323L542.089 74.5258Z" fill="#460000"/>
<g filter="url(#filter0_d_3416_8310)">
<path d="M215.914 90.5584C223.839 90.5584 230.265 84.1526 230.265 76.2507C230.265 68.3487 223.839 61.943 215.914 61.943C207.988 61.943 201.562 68.3487 201.562 76.2507C201.562 84.1526 207.988 90.5584 215.914 90.5584Z" fill="white"/>
<path d="M215.914 90.5584C223.839 90.5584 230.265 84.1526 230.265 76.2507C230.265 68.3487 223.839 61.943 215.914 61.943C207.988 61.943 201.562 68.3487 201.562 76.2507C201.562 84.1526 207.988 90.5584 215.914 90.5584Z" stroke="#E4E4E4" stroke-width="0.5" stroke-miterlimit="10"/>
</g>
<path d="M225.632 80.6863C225.23 80.4946 224.811 80.3378 224.374 80.2158C224.347 80.2071 223.01 79.8585 222.381 79.5187L222.329 79.4838C222.197 79.3967 222.11 79.2486 222.11 79.0917V78.2639C222.11 78.2639 223.945 78.3162 224.811 77.4274C224.811 77.4274 223.543 77.0702 223.762 74.7698C223.98 72.4694 223.465 70.4478 221.603 70.6221C221.603 70.6221 220.799 69.6549 219.2 70.2736C218.649 70.4914 217.181 71.0142 217.259 74.2034C217.347 77.3926 216.132 77.4187 216.132 77.4187C216.132 77.4187 216.77 78.3249 218.885 78.2988V79.0917C218.885 79.2311 218.815 79.3531 218.71 79.449C219.339 79.9718 219.838 80.512 220.205 81.3137C220.589 82.1502 220.598 82.9431 220.703 83.7796H224.758C225.711 83.7622 226.48 82.9954 226.48 82.0456V81.8888C226.428 81.366 226.104 80.9042 225.623 80.6776L225.632 80.6863Z" fill="#460000"/>
<path d="M219.645 82.307C219.304 81.2266 218.718 80.5469 217.836 79.8759C217.827 79.8672 217.818 79.8498 217.809 79.8411C216.97 79.2573 215.24 78.5863 214.331 78.1158L214.348 77.2357C214.882 77.0005 215.214 75.7718 215.292 75.4146C215.476 75.5192 215.738 75.4494 216.026 74.4125C216.28 73.5499 216.131 73.271 215.913 73.2013H215.843C215.878 73.0968 215.878 73.0184 215.878 73.0184C216.682 69.7246 214.794 69.8727 214.794 69.8727C214.646 69.2279 213.684 68.557 212.793 68.7313C211.91 68.9143 210.057 68.7051 210.057 68.7051C210.022 69.0972 210.354 69.3499 210.354 69.3499C208.475 70.4653 209.253 73.0358 209.253 73.0358C208.956 73.0009 208.624 73.1839 208.965 74.2557C209.192 75.0399 209.41 75.2577 209.594 75.2926C209.672 75.7544 210.083 76.9743 210.529 77.2532V78.1332C209.174 78.839 207.033 79.8324 205.853 80.7996C205.538 81.061 205.364 81.4531 205.372 81.8539V82.4552C205.372 83.222 206.002 83.8406 206.762 83.8319L219.942 83.7971L219.654 82.307H219.645Z" fill="#FF0000"/>
<g filter="url(#filter1_d_3416_8310)">
<path d="M359.835 90.1752C367.761 90.1752 374.187 83.7694 374.187 75.8675C374.187 67.9655 367.761 61.5598 359.835 61.5598C351.91 61.5598 345.484 67.9655 345.484 75.8675C345.484 83.7694 351.91 90.1752 359.835 90.1752Z" fill="white"/>
<path d="M359.835 90.1752C367.761 90.1752 374.187 83.7694 374.187 75.8675C374.187 67.9655 367.761 61.5598 359.835 61.5598C351.91 61.5598 345.484 67.9655 345.484 75.8675C345.484 83.7694 351.91 90.1752 359.835 90.1752Z" stroke="#E4E4E4" stroke-width="0.5" stroke-miterlimit="10"/>
</g>
<g filter="url(#filter2_d_3416_8310)">
<path d="M249.282 91.125C257.932 91.125 264.944 84.134 264.944 75.5102C264.944 66.8864 257.932 59.8955 249.282 59.8955C240.633 59.8955 233.62 66.8864 233.62 75.5102C233.62 84.134 240.633 91.125 249.282 91.125Z" fill="white"/>
<path d="M249.282 91.125C257.932 91.125 264.944 84.134 264.944 75.5102C264.944 66.8864 257.932 59.8955 249.282 59.8955C240.633 59.8955 233.62 66.8864 233.62 75.5102C233.62 84.134 240.633 91.125 249.282 91.125Z" stroke="#E4E4E4" stroke-width="0.5" stroke-miterlimit="10"/>
</g>
<g filter="url(#filter3_d_3416_8310)">
<path d="M287.861 91.0203C298.312 91.0203 306.783 82.5742 306.783 72.1554C306.783 61.7366 298.312 53.2905 287.861 53.2905C277.411 53.2905 268.939 61.7366 268.939 72.1554C268.939 82.5742 277.411 91.0203 287.861 91.0203Z" fill="white"/>
<path d="M287.861 91.0203C298.312 91.0203 306.783 82.5742 306.783 72.1554C306.783 61.7366 298.312 53.2905 287.861 53.2905C277.411 53.2905 268.939 61.7366 268.939 72.1554C268.939 82.5742 277.411 91.0203 287.861 91.0203Z" stroke="#E4E4E4" stroke-width="0.5" stroke-miterlimit="10"/>
</g>
<g filter="url(#filter4_d_3416_8310)">
<path d="M326.466 90.9159C335.116 90.9159 342.128 83.9249 342.128 75.3012C342.128 66.6774 335.116 59.6864 326.466 59.6864C317.816 59.6864 310.804 66.6774 310.804 75.3012C310.804 83.9249 317.816 90.9159 326.466 90.9159Z" fill="#FF0000"/>
</g>
<path d="M256.336 67.0493L239.634 74.2728C239.301 74.421 239.293 74.8828 239.607 75.0571L244.432 77.6886L256.336 67.0493Z" fill="#FF0000"/>
<path d="M245.585 78.7431L256.406 67.1192C256.624 66.8839 257.009 67.093 256.939 67.4067L253.268 82.9605C253.172 83.3613 252.717 83.553 252.359 83.3439L249.003 81.3485C248.933 81.3049 248.845 81.3223 248.793 81.3746L246.591 83.5791C246.206 83.9625 245.55 83.6924 245.542 83.1522V78.8564C245.542 78.8564 245.542 78.7692 245.577 78.7431H245.585Z" fill="#460000"/>
<path d="M321.006 78.2157L319.197 78.2204C318.893 78.2212 318.647 78.4676 318.648 78.7708L318.658 82.6048C318.659 82.908 318.906 83.1531 319.21 83.1523L321.019 83.1476C321.323 83.1468 321.569 82.9003 321.568 82.5972L321.558 78.7632C321.558 78.46 321.31 78.2149 321.006 78.2157Z" fill="white"/>
<path d="M326.755 73.4776L324.945 73.4823C324.641 73.4831 324.395 73.7295 324.396 74.0327L324.419 82.5807C324.419 82.8839 324.667 83.129 324.971 83.1282L326.78 83.1235C327.084 83.1227 327.33 82.8763 327.329 82.5731L327.307 74.0251C327.306 73.7219 327.059 73.4768 326.755 73.4776Z" fill="white"/>
<path d="M332.506 67.5027L330.697 67.5074C330.393 67.5082 330.147 67.7546 330.148 68.0578L330.186 82.5746C330.187 82.8778 330.434 83.1229 330.738 83.1221L332.547 83.1174C332.851 83.1166 333.097 82.8702 333.096 82.567L333.058 68.0502C333.058 67.747 332.81 67.5019 332.506 67.5027Z" fill="white"/>
<path d="M366.87 69.6697L352.781 69.7066C352.322 69.7078 351.952 70.0794 351.953 70.5366L351.955 71.5125C351.957 71.9696 352.329 72.3393 352.788 72.3381L366.877 72.3012C367.335 72.3 367.706 71.9284 367.705 71.4712L367.702 70.4953C367.701 70.0382 367.328 69.6685 366.87 69.6697Z" fill="#460000"/>
<path d="M366.456 68.233L363.982 68.2395L363.997 73.729L366.47 73.7226L366.456 68.233Z" fill="white"/>
<path d="M365.976 68.2343L364.542 68.238L364.557 73.7276L365.99 73.7238L365.976 68.2343Z" fill="#FF0000"/>
<path d="M366.876 75.1595L352.787 75.1963C352.328 75.1975 351.958 75.5691 351.959 76.0263L351.961 77.0022C351.962 77.4594 352.335 77.829 352.794 77.8278L366.883 77.791C367.341 77.7897 367.712 77.4182 367.711 76.961L367.708 75.9851C367.707 75.5279 367.334 75.1583 366.876 75.1595Z" fill="#460000"/>
<path d="M360.929 73.7026L358.456 73.709L358.47 79.1986L360.943 79.1921L360.929 73.7026Z" fill="white"/>
<path d="M360.404 73.7474L358.971 73.7512L358.985 79.2407L360.419 79.237L360.404 73.7474Z" fill="#FF0000"/>
<path d="M366.891 80.6486L352.802 80.6855C352.344 80.6867 351.973 81.0583 351.974 81.5154L351.977 82.4914C351.978 82.9485 352.351 83.3182 352.809 83.317L366.898 83.2801C367.356 83.2789 367.727 82.9073 367.726 82.4501L367.723 81.4742C367.722 81.017 367.35 80.6474 366.891 80.6486Z" fill="#460000"/>
<path d="M355.777 79.223L353.303 79.2295L353.318 84.719L355.791 84.7126L355.777 79.223Z" fill="white"/>
<path d="M355.201 79.2503L353.767 79.2541L353.782 84.7436L355.215 84.7399L355.201 79.2503Z" fill="#FF0000"/>
<path d="M290.938 62.8577L292.931 59.9386C292.931 59.9386 294.985 58.1088 295.238 59.3722C295.492 60.6357 295.299 61.1934 295.299 61.1934L293.813 64.339C293.813 64.339 292.153 63.1104 290.938 62.8577Z" fill="white"/>
<path d="M278.3 73.8808C278.134 73.175 278.055 72.4431 278.055 71.7112C278.038 66.3174 282.434 61.9171 287.844 61.8997C293.254 61.8822 297.668 66.2652 297.685 71.6589C297.685 72.3211 297.624 72.9833 297.493 73.6369C297.432 73.9505 297.344 74.2555 297.257 74.5518H299.756C299.791 74.4036 299.835 74.2555 299.861 74.1161C300.027 73.3144 300.106 72.4867 300.106 71.6589C300.089 64.932 294.582 59.4773 287.844 59.4947C281.105 59.5121 275.625 65.0017 275.643 71.7199C275.643 72.6348 275.748 73.541 275.949 74.4211C275.966 74.4821 275.984 74.5431 276.001 74.6041H278.51C278.44 74.3601 278.37 74.1248 278.309 73.8808H278.3Z" fill="#460000"/>
<path d="M278.815 75.4929L296.916 75.4407C297.038 75.1444 297.152 74.8481 297.248 74.5432L278.5 74.5954C278.597 74.9004 278.702 75.2054 278.824 75.4929H278.815Z" fill="white"/>
<path d="M275.119 74.6041V75.5016H276.237C276.141 75.2053 276.063 74.909 275.984 74.6041H275.11H275.119Z" fill="white"/>
<path d="M300.989 74.5347H299.748C299.678 74.8396 299.591 75.1446 299.494 75.4322H300.989V74.5347Z" fill="white"/>
<path d="M278.5 74.5953H275.992C276.07 74.909 276.149 75.2052 276.245 75.5015H278.823C278.701 75.2052 278.596 74.9003 278.5 74.5953Z" fill="white"/>
<path d="M297.249 74.5434C297.152 74.8484 297.039 75.1533 296.917 75.4409H299.495C299.591 75.1359 299.67 74.8396 299.748 74.5347H297.249V74.5434Z" fill="white"/>
<path d="M287.886 81.4613C283.848 81.47 280.326 79.0825 278.814 75.4925H276.236C277.87 80.4941 282.511 83.8924 287.886 83.875C293.209 83.8575 297.876 80.3808 299.484 75.4315H296.906C295.411 79.0041 291.872 81.4439 287.878 81.4613H287.886Z" fill="#FF0000"/>
<path d="M290.404 63.7291L293.541 59.1196C293.541 59.1196 297.256 58.9454 296.251 61.0192C295.246 63.1017 294.241 65.5154 294.241 65.5154C294.241 65.5154 292.379 63.7814 290.413 63.7291H290.404Z" fill="white"/>
<path d="M289.137 74.1072L295.526 60.3659C295.666 60.0871 295.526 59.6601 295.237 59.5207C294.949 59.3813 294.529 59.451 294.32 59.7385L285.527 72.077V72.1467C285.108 72.8525 285.038 73.628 285.396 74.2554C285.536 74.5342 285.824 74.813 286.104 75.0309C286.602 75.3794 287.162 75.5188 287.66 75.3794C288.228 75.1703 288.787 74.7433 289.137 74.1072Z" fill="#FF0000"/>
<path d="M122.977 105.433H33.1284C29.5399 105.433 26.6309 106.68 26.6309 108.217C26.6309 109.755 29.5399 111.001 33.1284 111.001H122.977C126.566 111.001 129.475 109.755 129.475 108.217C129.475 106.68 126.566 105.433 122.977 105.433Z" fill="#FFE1DC"/>
<path d="M238.167 105.433H148.318C144.73 105.433 141.821 106.68 141.821 108.217C141.821 109.755 144.73 111.001 148.318 111.001H238.167C241.756 111.001 244.665 109.755 244.665 108.217C244.665 106.68 241.756 105.433 238.167 105.433Z" fill="#FFE1DC"/>
<path d="M353.335 105.433H263.486C259.898 105.433 256.989 106.68 256.989 108.217C256.989 109.755 259.898 111.001 263.486 111.001H353.335C356.924 111.001 359.833 109.755 359.833 108.217C359.833 106.68 356.924 105.433 353.335 105.433Z" fill="#FFE1DC"/>
<path d="M468.503 105.433H378.654C375.066 105.433 372.156 106.68 372.156 108.217C372.156 109.755 375.066 111.001 378.654 111.001H468.503C472.092 111.001 475.001 109.755 475.001 108.217C475.001 106.68 472.092 105.433 468.503 105.433Z" fill="#FFE1DC"/>
<path d="M84.2014 66.1178C84.0702 66.0804 83.9203 66.0242 83.7798 65.9868C83.6392 65.9493 83.5268 65.9025 83.4237 65.8557C83.33 65.8183 83.2457 65.7621 83.1895 65.6966C83.152 65.6404 83.1239 65.5843 83.1239 65.5094C83.1239 65.3877 83.1801 65.2941 83.2738 65.2099C83.3862 65.1256 83.5268 65.0882 83.7235 65.0882C83.8735 65.0882 84.0327 65.1163 84.2014 65.1818C84.37 65.2473 84.5387 65.3409 84.7167 65.4907L84.8479 65.603L85.6443 64.0305L85.5225 63.965C85.1946 63.7872 84.8479 63.6561 84.4918 63.5719C83.7516 63.3847 83.0395 63.394 82.4867 63.6C82.1869 63.7123 81.9433 63.8527 81.7465 64.0586C81.5498 64.2645 81.3811 64.4892 81.2687 64.7606C81.1563 65.032 81.1094 65.3409 81.1094 65.6779C81.1094 66.0148 81.1656 66.2956 81.2687 66.5296C81.3811 66.7449 81.5217 66.9508 81.6997 67.0819C81.8777 67.2316 82.0745 67.3346 82.2993 67.4376C82.5055 67.5218 82.721 67.5967 82.9365 67.6715C83.1239 67.7371 83.2738 67.7932 83.3956 67.8307C83.5174 67.8681 83.6111 67.9243 83.6767 67.9804C83.7423 68.0179 83.7891 68.074 83.8079 68.1302C83.836 68.1863 83.8454 68.2519 83.8454 68.3174C83.8454 68.4391 83.7891 68.5514 83.6861 68.645C83.5736 68.7386 83.405 68.7947 83.1707 68.7947C82.9552 68.7947 82.721 68.7386 82.4961 68.645C82.2619 68.5327 82.0183 68.3923 81.7934 68.1676L81.6622 68.0553L80.8096 69.6652L80.9033 69.7307C81.6247 70.2268 82.4024 70.4702 83.2457 70.4702C83.6486 70.4702 84.014 70.414 84.3419 70.3111C84.6699 70.2081 84.951 70.0396 85.1665 69.8337C85.4007 69.6278 85.5694 69.3844 85.6912 69.1036C85.813 68.8228 85.8692 68.5046 85.8692 68.1583C85.8692 67.6435 85.738 67.2129 85.4663 66.8853C85.1852 66.5764 84.7636 66.3144 84.192 66.1178H84.2014Z" fill="white"/>
<path d="M86.0859 65.2846H87.4726V70.3109H89.4028V65.2846H90.7708V63.6092H86.0859V65.2846Z" fill="white"/>
<path d="M107.336 67.6152C107.73 67.4936 108.039 67.2876 108.254 67.0068C108.507 66.6792 108.629 66.2487 108.629 65.7339C108.629 65.4531 108.592 65.1629 108.498 64.9196C108.404 64.6669 108.264 64.4329 108.076 64.2457C107.889 64.0585 107.655 63.89 107.374 63.787C107.093 63.6747 106.765 63.6279 106.38 63.6279H103.645V70.3203H105.584V68.1675L106.961 70.3203H109.388L107.327 67.6152H107.336ZM105.575 65.1629H105.753C106.053 65.1629 106.277 65.2191 106.427 65.3408C106.559 65.4531 106.643 65.6122 106.643 65.8275C106.643 66.0428 106.577 66.1925 106.427 66.3142C106.277 66.4359 106.053 66.492 105.753 66.492H105.575V65.1629Z" fill="white"/>
<path d="M27.0467 54.7639L25.5663 58.7045L24.0952 54.7639H21.8559L20.4785 62.879H22.7928L23.4019 58.7513L25.0134 62.879H26.016L27.7213 58.7419L28.3397 62.879H30.6446L29.2673 54.7639H27.0467Z" fill="white"/>
<path d="M34.0164 54.7642L30.915 62.8793H33.3886L33.8665 61.5127H36.5931L37.0709 62.8793H39.5445L36.4432 54.7455L34.0164 54.7548V54.7642ZM35.9559 59.6969H34.5036L35.2345 57.6284L35.9559 59.6969Z" fill="white"/>
<path d="M45.3923 58.8633C45.7015 58.4702 45.8514 57.9554 45.8514 57.3376C45.8514 56.982 45.7952 56.6637 45.6734 56.3455C45.5609 56.0366 45.3923 55.7652 45.158 55.5312C44.9238 55.2972 44.6427 55.11 44.3054 54.9789C43.9681 54.8479 43.5652 54.773 43.1155 54.773H39.7986V62.9068H42.1129V60.1831L43.8557 62.8787H46.7509L44.2304 59.6028C44.7177 59.453 45.1112 59.2096 45.3829 58.8633H45.3923ZM42.1129 56.6076H42.3659C42.7313 56.6076 43.0124 56.6731 43.2091 56.8228C43.3965 56.9539 43.4809 57.1598 43.4809 57.4312C43.4809 57.7027 43.3965 57.9086 43.2091 58.0396C43.0218 58.1894 42.7313 58.2549 42.3659 58.2549H42.1129V56.6076Z" fill="white"/>
<path d="M54.5091 54.7639H51.6232L49.337 57.7404V54.7639H47.0227V62.879H49.337V59.7434L51.8012 62.879H54.7902L51.2672 58.6202L54.5091 54.7639Z" fill="white"/>
<path d="M55.063 62.879H59.8134V60.8947H57.3773V59.8089H59.6822V57.8059H57.3773V56.7669H59.8134V54.7639H55.063V62.879Z" fill="white"/>
<path d="M60.2256 56.7669H61.884V62.879H64.2077V56.7669H65.8849V54.7639H60.2256V56.7669Z" fill="white"/>
<path d="M68.6009 54.7639H66.2866V62.8977H68.6009V54.7639Z" fill="white"/>
<path d="M74.8317 59.3129L71.2619 54.7639H69.0132V62.879H71.3275V58.3394L74.8973 62.879H77.1367V54.7639H74.8317V59.3129Z" fill="white"/>
<path d="M81.5885 58.2082V60.0614H83.2376C83.2001 60.2112 83.1532 60.3329 83.0876 60.4358C83.0033 60.5856 82.8815 60.6885 82.7597 60.7915C82.6285 60.8851 82.4786 60.9506 82.3006 60.9974C82.1226 61.0442 81.9352 61.0629 81.7478 61.0629C81.4198 61.0629 81.1387 61.0068 80.9045 60.9038C80.6703 60.8009 80.4735 60.6511 80.3048 60.4545C80.1456 60.2673 80.0238 60.024 79.9394 59.7619C79.8551 59.4905 79.8176 59.1909 79.8176 58.8727C79.8176 58.517 79.8738 58.1988 79.9675 57.9086C80.0612 57.6185 80.2018 57.3845 80.3611 57.1879C80.5204 57.0007 80.7265 56.8322 80.9607 56.7386C81.195 56.6263 81.4479 56.5795 81.729 56.5795C82.0663 56.5795 82.3755 56.6731 82.6379 56.8322C82.9096 57.0101 83.1251 57.2909 83.2844 57.6934L83.3406 57.815L85.5331 56.9071L85.4675 56.7761C85.0928 56.0086 84.5868 55.4376 83.9403 55.0726C83.3031 54.7075 82.5629 54.5203 81.7197 54.5203C81.0732 54.5203 80.4735 54.6326 79.9488 54.8292C79.4241 55.0351 78.9556 55.3253 78.5808 55.709C78.206 56.0928 77.9062 56.5327 77.7001 57.0662C77.4939 57.5998 77.3909 58.1801 77.3909 58.7978C77.3909 59.4156 77.5033 60.0146 77.7001 60.5388C77.8968 61.0629 78.1967 61.5309 78.5808 61.896C78.9556 62.2704 79.4054 62.5699 79.9207 62.7758C80.436 62.9817 81.0169 63.0847 81.6447 63.0847C82.1038 63.0847 82.5348 63.0285 82.9565 62.9069C83.3781 62.7852 83.7529 62.6261 84.1089 62.4108C84.465 62.1955 84.7742 61.9147 85.0272 61.5871C85.2802 61.2595 85.4863 60.8851 85.6362 60.4639C85.7486 60.1644 85.8142 59.8274 85.8517 59.4905C85.8892 59.1535 85.9079 58.7604 85.9079 58.3392V58.2082H81.5885Z" fill="white"/>
<path d="M106.98 58.2269L90.4989 70.1889L91.8856 64.7695L101.227 60.2299L91.2579 63.403L86.6199 58.2269H106.98Z" fill="white"/>
<path d="M93.646 57.2163L96.7942 50.8422L99.9424 57.2163H93.646Z" fill="white"/>
<path d="M101.891 63.1878L103.081 70.1891L96.7942 66.885L101.891 63.1878Z" fill="white"/>
<g clip-path="url(#clip0_3416_8310)">
<path d="M488.429 160H50.5709C43.0759 160 37 166.082 37 173.585V246.415C37 253.918 43.0759 260 50.5709 260H488.429C495.924 260 502 253.918 502 246.415V173.585C502 166.082 495.924 160 488.429 160Z" fill="#FF3E00"/>
<path d="M88.8809 205.969V203.706C95.1724 198.935 97.6542 196.846 97.6542 194.489C97.6542 192.787 96.1682 192.028 94.6902 192.028C92.7933 192.028 91.3627 192.78 90.3194 193.951L88.6675 192.099C90.0981 190.351 92.3823 189.496 94.6665 189.496C97.8043 189.496 100.523 191.245 100.523 194.481C100.523 197.495 97.7806 200.177 93.4493 203.461H100.618V205.969H88.8809Z" fill="white"/>
<path d="M102.705 203.635L104.262 201.76C105.305 202.978 107.005 203.73 108.735 203.73C110.877 203.73 112.11 202.733 112.11 201.245C112.11 199.639 110.846 198.935 108.514 198.935C107.834 198.935 106.91 198.959 106.665 198.983V196.403C106.933 196.427 107.882 196.427 108.514 196.427C110.435 196.427 111.865 195.77 111.865 194.283C111.865 192.795 110.379 192.02 108.585 192.02C106.91 192.02 105.55 192.629 104.38 193.824L102.926 192.052C104.191 190.564 106.159 189.496 108.854 189.496C112.355 189.496 114.687 191.15 114.687 193.848C114.687 196.039 112.838 197.305 111.186 197.566C112.743 197.732 114.956 198.998 114.956 201.506C114.956 204.284 112.6 206.254 108.83 206.254C105.961 206.254 103.827 205.083 102.705 203.627V203.635Z" fill="white"/>
<path d="M85.4901 232.063V224.554H75.9344V232.063H73.9031V215.701H75.9344V222.742H85.4901V215.701H87.5214V232.063H85.4901Z" fill="white"/>
<path d="M90.5881 226.121C90.5881 222.687 92.8407 219.918 96.4449 219.918C100.049 219.918 102.302 222.687 102.302 226.121C102.302 229.555 100.049 232.355 96.4449 232.355C92.8407 232.355 90.5881 229.562 90.5881 226.121ZM100.365 226.121C100.365 223.715 98.9662 221.556 96.4449 221.556C93.9236 221.556 92.5246 223.715 92.5246 226.121C92.5246 228.526 93.9236 230.71 96.4449 230.71C98.9662 230.71 100.365 228.55 100.365 226.121Z" fill="white"/>
<path d="M113.28 232.063V230.393C112.371 231.422 110.83 232.355 109.067 232.355C106.593 232.355 105.289 231.129 105.289 228.581V220.218H107.131V228.02C107.131 230.108 108.182 230.718 109.802 230.718C111.225 230.718 112.6 229.887 113.28 228.93V220.218H115.122V232.071H113.28V232.063Z" fill="white"/>
<path d="M118.789 232.063V220.21H120.631V222.101C121.587 220.875 122.962 219.941 124.575 219.941V221.832C124.353 221.809 124.132 221.785 123.863 221.785C122.709 221.785 121.168 222.719 120.631 223.676V232.063H118.789Z" fill="white"/>
<path d="M125.871 230.488L126.804 229.167C127.586 230.077 129.08 230.86 130.7 230.86C132.51 230.86 133.522 230.006 133.522 228.827C133.522 225.955 126.195 227.719 126.195 223.328C126.195 221.461 127.76 219.918 130.582 219.918C132.613 219.918 134.036 220.677 134.968 221.635L134.115 222.908C133.403 222.054 132.131 221.413 130.59 221.413C129.048 221.413 127.966 222.22 127.966 223.28C127.966 225.852 135.292 224.166 135.292 228.779C135.292 230.765 133.696 232.363 130.661 232.363C128.701 232.363 127.08 231.746 125.879 230.496L125.871 230.488Z" fill="white"/>
<path d="M244.421 203.753L246.049 201.783C247.116 203.049 248.602 203.73 250.396 203.73C252.459 203.73 253.724 202.464 253.724 200.858C253.724 199.133 252.459 197.986 250.468 197.986C249.108 197.986 247.962 198.397 246.919 199.37L244.903 198.785V189.733H255.526V192.241H247.749V196.91C248.547 196.158 249.859 195.525 251.416 195.525C254.159 195.525 256.617 197.424 256.617 200.755C256.617 204.086 254.04 206.254 250.42 206.254C247.654 206.254 245.733 205.28 244.421 203.746V203.753Z" fill="white"/>
<path d="M258.632 201.783C258.632 199.742 260.308 198.255 262.276 197.598C260.45 197.012 258.901 195.802 258.901 193.753C258.901 190.738 261.984 189.496 264.853 189.496C267.722 189.496 270.804 190.738 270.804 193.753C270.804 195.794 269.247 197.012 267.429 197.598C269.397 198.255 271.073 199.742 271.073 201.783C271.073 204.703 268.156 206.262 264.853 206.262C261.549 206.262 258.632 204.703 258.632 201.783ZM268.188 201.419C268.188 199.742 265.856 199.014 264.861 198.864C263.841 199.006 261.533 199.742 261.533 201.419C261.533 202.852 263.019 203.73 264.861 203.73C266.702 203.73 268.188 202.852 268.188 201.419ZM267.919 194.196C267.919 192.811 266.607 192.028 264.861 192.028C263.114 192.028 261.802 192.803 261.802 194.196C261.802 195.707 263.888 196.285 264.861 196.459C265.856 196.285 267.919 195.707 267.919 194.196Z" fill="white"/>
<path d="M231.071 232.063V218.304L225.531 232.063H224.701L219.137 218.304V232.063H217.105V215.701H220.022L225.12 228.312L230.194 215.701H233.111V232.063H231.079H231.071Z" fill="white"/>
<path d="M236.533 217.291C236.533 216.603 237.094 216.041 237.782 216.041C238.469 216.041 239.007 216.603 239.007 217.291C239.007 217.979 238.469 218.517 237.782 218.517C237.094 218.517 236.533 217.979 236.533 217.291ZM236.849 232.063V220.21H238.691V232.063H236.849Z" fill="white"/>
<path d="M250.373 232.063V224.309C250.373 222.196 249.29 221.563 247.701 221.563C246.255 221.563 244.903 222.45 244.2 223.407V232.071H242.358V220.218H244.2V221.935C245.03 220.93 246.65 219.926 248.436 219.926C250.886 219.926 252.183 221.176 252.183 223.755V232.071H250.373V232.063Z" fill="white"/>
<path d="M263.872 232.063V230.393C262.963 231.422 261.422 232.355 259.66 232.355C257.186 232.355 255.882 231.129 255.882 228.581V220.218H257.723V228.02C257.723 230.108 258.774 230.718 260.395 230.718C261.817 230.718 263.193 229.887 263.872 228.93V220.218H265.714V232.071H263.872V232.063Z" fill="white"/>
<path d="M269.753 229.586V221.832H267.793V220.21H269.753V216.974H271.618V220.21H274.021V221.832H271.618V229.191C271.618 230.077 272.013 230.71 272.796 230.71C273.333 230.71 273.8 230.464 274.045 230.195L274.582 231.596C274.116 232.039 273.452 232.355 272.401 232.355C270.638 232.355 269.753 231.351 269.753 229.586Z" fill="white"/>
<path d="M275.902 226.121C275.902 222.687 278.352 219.918 281.735 219.918C285.316 219.918 287.418 222.711 287.418 226.271V226.738H277.862C278.012 228.969 279.554 230.836 282.099 230.836C283.474 230.836 284.818 230.298 285.774 229.317L286.659 230.52C285.458 231.699 283.861 232.363 281.956 232.363C278.431 232.363 275.902 229.839 275.902 226.129V226.121ZM281.711 221.437C279.19 221.437 277.933 223.573 277.839 225.361H285.608C285.584 223.621 284.407 221.437 281.711 221.437Z" fill="white"/>
<path d="M289.378 230.488L290.311 229.167C291.093 230.077 292.587 230.86 294.207 230.86C296.017 230.86 297.029 230.006 297.029 228.827C297.029 225.955 289.702 227.719 289.702 223.328C289.702 221.461 291.267 219.918 294.089 219.918C296.12 219.918 297.543 220.677 298.476 221.635L297.614 222.908C296.903 222.054 295.63 221.413 294.089 221.413C292.548 221.413 291.465 222.22 291.465 223.28C291.465 225.852 298.792 224.166 298.792 228.779C298.792 230.765 297.203 232.363 294.16 232.363C292.2 232.363 290.58 231.746 289.378 230.496V230.488Z" fill="white"/>
<path d="M413.097 205.969V193.412L410.45 196.182L408.798 194.457L413.461 189.741H415.943V205.969H413.097Z" fill="white"/>
<path d="M418.685 197.867C418.685 193.199 421.143 189.496 425.83 189.496C427.822 189.496 429.379 190.2 430.47 191.3L429.158 193.444C428.304 192.566 427.356 192.036 425.83 192.036C423.111 192.036 421.554 194.544 421.554 197.384V197.843C422.305 196.751 424.013 195.557 425.902 195.557C428.818 195.557 431.347 197.361 431.347 200.81C431.347 203.801 428.992 206.262 425.372 206.262C420.606 206.262 418.685 202.393 418.685 197.867ZM428.454 200.905C428.454 198.911 426.897 198.009 425.151 198.009C423.767 198.009 422.408 198.737 421.602 199.908C421.744 201.657 422.724 203.73 425.198 203.73C427.34 203.73 428.454 202.195 428.454 200.905Z" fill="white"/>
<path d="M374.614 229.752L375.839 228.186C376.89 229.412 378.66 230.544 380.96 230.544C383.877 230.544 384.81 228.977 384.81 227.695C384.81 223.478 375.127 225.828 375.127 219.989C375.127 217.291 377.53 215.424 380.763 215.424C383.237 215.424 385.173 216.278 386.548 217.726L385.323 219.221C384.098 217.845 382.383 217.259 380.597 217.259C378.66 217.259 377.238 218.312 377.238 219.862C377.238 223.541 386.92 221.429 386.92 227.545C386.92 229.903 385.3 232.355 380.889 232.355C378.068 232.355 375.965 231.279 374.614 229.752Z" fill="white"/>
<path d="M389.196 226.121C389.196 222.687 391.646 219.918 395.029 219.918C398.61 219.918 400.712 222.711 400.712 226.271V226.738H391.156C391.306 228.969 392.848 230.836 395.393 230.836C396.768 230.836 398.112 230.298 399.068 229.317L399.953 230.52C398.752 231.699 397.155 232.363 395.25 232.363C391.725 232.363 389.196 229.839 389.196 226.129V226.121ZM395.005 221.437C392.484 221.437 391.227 223.573 391.132 225.361H398.902C398.878 223.621 397.701 221.437 395.005 221.437Z" fill="white"/>
<path d="M402.988 226.121C402.988 222.616 405.367 219.918 408.892 219.918C411.05 219.918 412.323 220.804 413.232 221.975L412.007 223.083C411.224 221.999 410.22 221.563 408.995 221.563C406.498 221.563 404.901 223.502 404.901 226.129C404.901 228.755 406.49 230.718 408.995 230.718C410.22 230.718 411.224 230.227 412.007 229.175L413.232 230.306C412.323 231.485 411.05 232.363 408.892 232.363C405.367 232.363 402.988 229.642 402.988 226.129V226.121Z" fill="white"/>
<path d="M415.145 226.121C415.145 222.687 417.397 219.918 421.001 219.918C424.605 219.918 426.858 222.687 426.858 226.121C426.858 229.555 424.605 232.355 421.001 232.355C417.397 232.355 415.145 229.562 415.145 226.121ZM424.922 226.121C424.922 223.715 423.523 221.556 421.001 221.556C418.48 221.556 417.081 223.715 417.081 226.121C417.081 228.526 418.48 230.71 421.001 230.71C423.523 230.71 424.922 228.55 424.922 226.121Z" fill="white"/>
<path d="M437.86 232.063V224.309C437.86 222.196 436.777 221.563 435.189 221.563C433.742 221.563 432.391 222.45 431.687 223.407V232.071H429.846V220.218H431.687V221.935C432.517 220.93 434.138 219.926 435.924 219.926C438.374 219.926 439.67 221.176 439.67 223.755V232.071H437.86V232.063Z" fill="white"/>
<path d="M451.945 232.063V230.298C451.06 231.501 449.613 232.355 447.954 232.355C444.863 232.355 442.682 229.998 442.682 226.152C442.682 222.307 444.863 219.918 447.954 219.918C449.542 219.918 450.989 220.701 451.945 221.999V215.693H453.787V232.055H451.945V232.063ZM451.945 228.819V223.47C451.305 222.442 449.858 221.555 448.42 221.555C446.017 221.555 444.594 223.518 444.594 226.144C444.594 228.771 446.017 230.71 448.42 230.71C449.866 230.71 451.313 229.847 451.945 228.819Z" fill="white"/>
<path d="M456.45 230.488L457.383 229.167C458.165 230.077 459.659 230.86 461.279 230.86C463.089 230.86 464.101 230.006 464.101 228.827C464.101 225.955 456.774 227.719 456.774 223.328C456.774 221.461 458.339 219.918 461.161 219.918C463.192 219.918 464.615 220.677 465.547 221.635L464.686 222.908C463.974 222.054 462.702 221.413 461.161 221.413C459.619 221.413 458.537 222.22 458.537 223.28C458.537 225.852 465.863 224.166 465.863 228.779C465.863 230.765 464.275 232.363 461.232 232.363C459.272 232.363 457.651 231.746 456.45 230.496V230.488Z" fill="white"/>
<path d="M338.872 193.302V226.706" stroke="white" stroke-miterlimit="10"/>
<path d="M176.835 193.302V226.706" stroke="white" stroke-miterlimit="10"/>
</g>
<rect x="177" y="293" width="197" height="57" rx="10" fill="#AFAFAF"/>
<path d="M241.186 328.146C240.119 328.146 239.085 327.944 238.086 327.517C237.075 327.102 236.188 326.473 235.402 325.619L236.671 324.081C237.244 324.788 237.94 325.327 238.749 325.698C239.557 326.068 240.377 326.248 241.208 326.248C242.219 326.248 243.027 326.035 243.634 325.585C244.24 325.136 244.555 324.53 244.555 323.755C244.555 322.924 244.207 322.272 243.533 321.79C243.128 321.509 242.365 321.161 241.242 320.734L241.23 320.723H241.219H241.208L241.197 320.711H241.186L241.174 320.7H241.163H241.152L241.141 320.689H241.129H241.118L241.107 320.678H241.096L241.084 320.667H241.073H241.062L241.051 320.655H241.04L241.028 320.644H241.017H241.006L240.995 320.633H240.983H240.972L240.961 320.622H240.95L240.938 320.61H240.927H240.916L240.894 320.599C240.478 320.442 240.13 320.307 239.849 320.195C239.568 320.083 239.243 319.937 238.872 319.757C238.501 319.577 238.198 319.409 237.951 319.24C237.704 319.072 237.446 318.87 237.176 318.623C236.907 318.375 236.705 318.128 236.547 317.859C236.39 317.601 236.267 317.297 236.166 316.949C236.064 316.601 236.02 316.23 236.02 315.837C236.02 315.04 236.233 314.31 236.671 313.647C237.109 312.985 237.715 312.468 238.479 312.086C239.243 311.705 240.085 311.514 241.006 311.514C241.904 311.514 242.792 311.671 243.679 311.997C244.555 312.333 245.386 312.805 246.172 313.423L244.97 314.973C244.33 314.456 243.667 314.052 242.971 313.782C242.275 313.513 241.624 313.378 240.995 313.378C240.478 313.378 239.995 313.468 239.568 313.647C239.142 313.827 238.782 314.097 238.513 314.456C238.232 314.815 238.097 315.242 238.097 315.736C238.086 316.478 238.445 317.073 239.164 317.544C239.557 317.814 240.343 318.173 241.522 318.623L241.534 318.634H241.545L241.556 318.645H241.567H241.579L241.59 318.656C242.938 319.184 243.825 319.566 244.263 319.791C245.296 320.352 245.992 321.037 246.34 321.846C246.542 322.34 246.644 322.901 246.644 323.53C246.644 324.114 246.542 324.665 246.34 325.17C246.138 325.675 245.869 326.102 245.532 326.461C245.184 326.821 244.779 327.135 244.319 327.394C243.858 327.652 243.364 327.843 242.836 327.966C242.297 328.09 241.747 328.146 241.186 328.146ZM250.877 314.726C250.496 314.726 250.181 314.602 249.934 314.344C249.676 314.097 249.552 313.782 249.552 313.423C249.552 313.063 249.676 312.749 249.934 312.491C250.181 312.244 250.496 312.109 250.877 312.109C251.113 312.109 251.338 312.176 251.54 312.289C251.742 312.401 251.899 312.558 252.023 312.76C252.135 312.962 252.203 313.187 252.203 313.423C252.203 313.782 252.068 314.097 251.81 314.344C251.551 314.602 251.237 314.726 250.877 314.726ZM249.934 328V316.803H251.787V328H249.934ZM264.017 316.803H265.87V327.158C265.87 327.989 265.758 328.73 265.544 329.393C265.331 330.055 265.005 330.639 264.579 331.133C264.152 331.627 263.579 332.009 262.86 332.279C262.142 332.548 261.311 332.683 260.367 332.683C258.66 332.683 257.133 332.279 255.808 331.47L256.257 329.752C256.953 330.156 257.616 330.459 258.233 330.65C258.84 330.841 259.525 330.931 260.277 330.931C260.884 330.931 261.434 330.853 261.928 330.673C262.411 330.504 262.804 330.269 263.119 329.965C263.422 329.673 263.658 329.325 263.815 328.932C263.972 328.539 264.051 328.112 264.051 327.641V326.08H263.995C263.051 327.225 261.793 327.787 260.199 327.787C259.458 327.787 258.75 327.663 258.099 327.394C257.436 327.124 256.863 326.753 256.369 326.282C255.875 325.81 255.493 325.215 255.212 324.519C254.92 323.822 254.786 323.059 254.786 322.239C254.786 321.206 255.01 320.262 255.471 319.409C255.931 318.555 256.571 317.893 257.38 317.398C258.188 316.916 259.098 316.668 260.109 316.668C260.861 316.668 261.569 316.814 262.243 317.106C262.917 317.398 263.489 317.814 263.972 318.353H264.017V316.803ZM260.345 326.046C261.457 326.046 262.355 325.687 263.051 324.957C263.736 324.227 264.084 323.294 264.084 322.16C264.084 321.048 263.725 320.139 263.018 319.442C262.299 318.746 261.412 318.398 260.345 318.398C259.278 318.398 258.402 318.757 257.717 319.476C257.021 320.195 256.684 321.104 256.684 322.183C256.684 322.654 256.74 323.092 256.863 323.497C256.987 323.912 257.167 324.271 257.391 324.575C257.616 324.889 257.874 325.147 258.177 325.372C258.48 325.597 258.817 325.765 259.188 325.877C259.559 325.99 259.94 326.046 260.345 326.046ZM275.27 316.668C276.517 316.668 277.494 317.062 278.212 317.848C278.931 318.634 279.291 319.813 279.291 321.363V328.011H277.426V321.879C277.426 321.239 277.359 320.689 277.224 320.229C277.089 319.779 276.91 319.409 276.663 319.139C276.416 318.87 276.124 318.679 275.809 318.555C275.483 318.443 275.113 318.375 274.686 318.375C273.619 318.375 272.766 318.746 272.125 319.465C271.485 320.184 271.171 321.172 271.171 322.407V328H269.307V316.803H271.171V318.735H271.205C271.665 318.072 272.249 317.567 272.957 317.208C273.653 316.848 274.428 316.668 275.27 316.668ZM295.361 328.146C294.418 328.146 293.564 328 292.79 327.686C292.015 327.382 291.352 326.944 290.802 326.372C290.24 325.81 289.813 325.091 289.51 324.238C289.196 323.384 289.05 322.418 289.05 321.352V311.66H291.049V321.206C291.049 322.733 291.431 323.946 292.217 324.867C293.003 325.788 294.047 326.237 295.361 326.237C296.653 326.237 297.697 325.788 298.506 324.889C299.303 323.991 299.708 322.767 299.708 321.206V311.66H301.707V321.352C301.707 323.452 301.134 325.114 299.988 326.327C298.843 327.54 297.304 328.146 295.361 328.146ZM311.062 316.668C312.095 316.668 313.038 316.927 313.88 317.432C314.711 317.938 315.363 318.634 315.834 319.51C316.306 320.397 316.542 321.385 316.542 322.475C316.542 323.317 316.396 324.092 316.115 324.799C315.823 325.518 315.441 326.113 314.947 326.596C314.453 327.09 313.88 327.472 313.207 327.742C312.533 328.011 311.814 328.146 311.05 328.146C310.264 328.146 309.557 327.989 308.905 327.674C308.254 327.36 307.692 326.922 307.243 326.338H307.198V332.548H305.345V316.803H307.209V318.454H307.254C307.715 317.881 308.276 317.443 308.928 317.129C309.579 316.826 310.298 316.668 311.062 316.668ZM310.871 326.439C311.994 326.439 312.903 326.068 313.6 325.327C314.296 324.586 314.644 323.631 314.644 322.486C314.644 321.262 314.273 320.273 313.555 319.51C312.836 318.757 311.926 318.375 310.848 318.375C310.152 318.375 309.523 318.566 308.961 318.926C308.389 319.285 307.939 319.779 307.625 320.408C307.299 321.037 307.142 321.733 307.142 322.486C307.142 323.07 307.243 323.609 307.445 324.103C307.647 324.597 307.917 325.024 308.265 325.361C308.602 325.698 309.006 325.967 309.456 326.158C309.905 326.349 310.376 326.439 310.871 326.439Z" fill="white"/>
<g filter="url(#filter5_d_3416_8310)">
<path d="M576.665 21.0902H510.264C499.366 21.0902 490.532 29.9305 490.532 40.8355V398.941C490.532 409.846 499.366 418.686 510.264 418.686H576.665C587.562 418.686 596.396 409.846 596.396 398.941V40.8355C596.396 29.9305 587.562 21.0902 576.665 21.0902Z" fill="white"/>
<path d="M576.665 21.0902H510.264C499.366 21.0902 490.532 29.9305 490.532 40.8355V398.941C490.532 409.846 499.366 418.686 510.264 418.686H576.665C587.562 418.686 596.396 409.846 596.396 398.941V40.8355C596.396 29.9305 587.562 21.0902 576.665 21.0902Z" stroke="#EFD1C7" stroke-width="0.75" stroke-miterlimit="10"/>
</g>
<path d="M535.429 330.891H523.075V343.425H535.429V330.891Z" stroke="#330000" stroke-width="1.5" stroke-miterlimit="10"/>
<path d="M567.228 330.891H554.875V343.425H567.228V330.891Z" stroke="#330000" stroke-width="1.5" stroke-miterlimit="10"/>
<path d="M535.429 362.684H523.075V375.218H535.429V362.684Z" stroke="#330000" stroke-width="1.5" stroke-miterlimit="10"/>
<path d="M554.875 366.547V353.24H567.228V366.547" stroke="#330000" stroke-width="1.5" stroke-miterlimit="10"/>
<path d="M522.904 353.297H545.552V375.218H567.343" stroke="#330000" stroke-width="1.5" stroke-miterlimit="10"/>
<path d="M545.781 330.776V345.342" stroke="#330000" stroke-width="1.5" stroke-miterlimit="10"/>
<path d="M534.657 391.672C534.657 388.438 536.859 386.006 540.09 386.006C543.321 386.006 545.552 388.438 545.552 391.672C545.552 393.303 544.98 394.705 544.036 395.736L545.066 396.852L544.122 397.681L543.064 396.537C542.235 397.052 541.234 397.367 540.09 397.367C536.859 397.367 534.657 394.934 534.657 391.672ZM542.206 395.564L540.633 393.875L541.577 393.074L543.121 394.763C543.75 393.961 544.151 392.903 544.151 391.672C544.151 389.097 542.549 387.208 540.09 387.208C537.631 387.208 536.058 389.097 536.058 391.672C536.058 394.247 537.631 396.136 540.09 396.136C540.891 396.136 541.577 395.936 542.178 395.564H542.206Z" fill="#ED4F00"/>
<path d="M554.045 397.166L551.271 392.817H549.069V397.166H547.697V386.178H552.101C554.102 386.178 555.561 387.465 555.561 389.497C555.561 391.529 554.188 392.559 552.701 392.702L555.675 397.166H554.074H554.045ZM554.131 389.497C554.131 388.238 553.216 387.408 551.929 387.408H549.041V391.615H551.929C553.244 391.615 554.131 390.756 554.131 389.497Z" fill="#ED4F00"/>
<path d="M527.94 282.212H529.628L524.812 295H523.396L518.58 282.212H520.276L524.082 292.741H524.108L527.94 282.212ZM532.247 284.611C531.948 284.611 531.702 284.515 531.509 284.312C531.307 284.119 531.21 283.873 531.21 283.592C531.21 283.311 531.307 283.064 531.509 282.862C531.702 282.669 531.948 282.563 532.247 282.563C532.432 282.563 532.607 282.616 532.766 282.704C532.924 282.792 533.047 282.915 533.144 283.073C533.231 283.231 533.284 283.407 533.284 283.592C533.284 283.873 533.179 284.119 532.977 284.312C532.774 284.515 532.528 284.611 532.247 284.611ZM531.509 295V286.237H532.959V295H531.509ZM542.627 281.746H544.086V295H542.688V293.611H542.662C542.425 293.928 542.152 294.2 541.854 294.42C541.546 294.648 541.203 294.815 540.825 294.938C540.447 295.062 540.052 295.114 539.63 295.114C539.032 295.114 538.47 295.009 537.942 294.798C537.415 294.587 536.958 294.288 536.571 293.901C536.185 293.523 535.886 293.058 535.666 292.495C535.438 291.941 535.332 291.335 535.332 290.676C535.332 290.043 535.438 289.437 535.657 288.874C535.868 288.312 536.167 287.837 536.545 287.433C536.914 287.028 537.371 286.712 537.907 286.483C538.435 286.255 539.006 286.132 539.621 286.132C540.008 286.132 540.386 286.185 540.755 286.29C541.115 286.396 541.449 286.554 541.766 286.765C542.082 286.976 542.354 287.239 542.601 287.538H542.627V281.746ZM539.771 293.778C540.148 293.778 540.518 293.708 540.869 293.559C541.221 293.409 541.537 293.198 541.801 292.935C542.064 292.671 542.284 292.337 542.442 291.95C542.601 291.563 542.68 291.142 542.68 290.685C542.68 290.245 542.601 289.823 542.451 289.428C542.302 289.032 542.1 288.689 541.845 288.399C541.59 288.118 541.282 287.89 540.931 287.723C540.57 287.556 540.192 287.468 539.788 287.468C538.936 287.468 538.224 287.767 537.661 288.355C537.099 288.953 536.817 289.727 536.817 290.685C536.817 291.581 537.09 292.328 537.635 292.908C538.18 293.488 538.892 293.778 539.771 293.778ZM554.606 290.482C554.606 290.711 554.589 290.904 554.562 291.08H547.83C547.918 291.897 548.234 292.548 548.771 293.04C549.298 293.532 549.957 293.77 550.748 293.77C551.267 293.77 551.732 293.664 552.154 293.453C552.567 293.242 552.919 292.952 553.218 292.592L554.237 293.462C553.842 293.972 553.341 294.376 552.743 294.675C552.146 294.974 551.46 295.114 550.695 295.114C550.08 295.114 549.5 295.009 548.964 294.789C548.428 294.569 547.971 294.262 547.584 293.875C547.197 293.488 546.89 293.014 546.67 292.451C546.441 291.889 546.336 291.282 546.336 290.623C546.336 289.973 546.441 289.375 546.661 288.812C546.872 288.25 547.171 287.775 547.54 287.389C547.909 287.002 548.357 286.694 548.876 286.466C549.386 286.246 549.939 286.132 550.528 286.132C551.328 286.132 552.04 286.325 552.664 286.694C553.279 287.072 553.763 287.591 554.097 288.25C554.431 288.909 554.606 289.656 554.606 290.482ZM550.607 287.477C549.913 287.477 549.315 287.696 548.814 288.127C548.313 288.558 547.997 289.138 547.865 289.867H553.156C553.033 289.146 552.752 288.566 552.304 288.127C551.855 287.696 551.293 287.477 550.607 287.477ZM560.803 295.114C560.135 295.114 559.511 295 558.948 294.771C558.377 294.543 557.894 294.227 557.507 293.822C557.12 293.418 556.812 292.943 556.593 292.398C556.373 291.854 556.268 291.265 556.268 290.632C556.268 290.008 556.373 289.419 556.593 288.865C556.812 288.312 557.12 287.837 557.507 287.433C557.894 287.028 558.377 286.712 558.948 286.483C559.511 286.255 560.135 286.132 560.803 286.132C561.655 286.132 562.429 286.325 563.114 286.694C563.8 287.072 564.336 287.608 564.723 288.294C565.109 288.979 565.312 289.762 565.312 290.632C565.312 291.502 565.109 292.275 564.723 292.961C564.336 293.646 563.8 294.183 563.114 294.552C562.429 294.93 561.655 295.114 560.803 295.114ZM560.803 293.77C561.356 293.77 561.866 293.638 562.332 293.374C562.789 293.11 563.158 292.741 563.431 292.258C563.694 291.783 563.835 291.238 563.835 290.632C563.835 290.025 563.694 289.48 563.431 288.997C563.158 288.514 562.789 288.136 562.332 287.872C561.875 287.608 561.365 287.477 560.803 287.477C560.205 287.477 559.669 287.617 559.203 287.898C558.729 288.18 558.368 288.566 558.122 289.041C557.867 289.524 557.744 290.052 557.744 290.632C557.744 291.212 557.867 291.739 558.122 292.214C558.377 292.688 558.737 293.066 559.212 293.348C559.678 293.629 560.205 293.77 560.803 293.77Z" fill="#ED4F00"/>
<g clip-path="url(#clip1_3416_8310)">
<path d="M516.737 147.269L516.804 159.365C516.811 160.796 517.978 161.95 519.41 161.943L566.066 161.685C567.498 161.677 568.652 160.51 568.644 159.079L568.577 146.983C568.57 145.551 567.403 144.397 565.971 144.405L519.315 144.662C517.883 144.67 516.729 145.837 516.737 147.269Z" stroke="black" stroke-width="1.5"/>
</g>
<path d="M522.884 179.525C523.253 179.604 523.604 179.727 523.921 179.903C524.237 180.079 524.519 180.307 524.765 180.571C525.011 180.834 525.204 181.16 525.345 181.538C525.485 181.916 525.556 182.329 525.556 182.786C525.556 183.304 525.468 183.77 525.292 184.192C525.116 184.614 524.853 184.974 524.51 185.282C524.158 185.589 523.71 185.827 523.165 185.994C522.62 186.169 521.987 186.249 521.284 186.249H516.626V173.46H520.801C521.434 173.46 521.996 173.522 522.497 173.645C522.998 173.768 523.429 173.961 523.798 174.208C524.158 174.454 524.439 174.779 524.633 175.183C524.826 175.587 524.923 176.053 524.923 176.581C524.923 177.249 524.747 177.837 524.404 178.365C524.053 178.892 523.552 179.27 522.884 179.499V179.525ZM518.19 174.902V178.954H520.783C521.029 178.954 521.275 178.936 521.513 178.892C521.75 178.848 521.979 178.769 522.198 178.664C522.418 178.558 522.611 178.435 522.778 178.277C522.937 178.127 523.068 177.934 523.165 177.688C523.262 177.451 523.314 177.187 523.314 176.888C523.314 176.581 523.253 176.308 523.147 176.071C523.042 175.833 522.875 175.623 522.655 175.447C522.427 175.271 522.137 175.139 521.768 175.042C521.398 174.955 520.968 174.902 520.476 174.902H518.19ZM520.845 184.807C521.785 184.807 522.532 184.631 523.086 184.262C523.631 183.893 523.912 183.357 523.912 182.645C523.912 182.17 523.798 181.766 523.569 181.423C523.341 181.089 523.007 180.826 522.559 180.641C522.102 180.457 521.557 180.36 520.915 180.36H518.19V184.807H520.845ZM533.826 177.486H535.285V186.249H533.826V184.798H533.8C533.448 185.308 533.026 185.695 532.525 185.958C532.016 186.231 531.479 186.363 530.917 186.363C529.88 186.363 529.071 186.064 528.491 185.449C527.911 184.842 527.63 183.928 527.63 182.707V177.486H529.089V182.285C529.089 183.26 529.265 183.963 529.616 184.385C529.968 184.807 530.504 185.018 531.225 185.018C531.576 185.018 531.901 184.948 532.218 184.798C532.534 184.649 532.807 184.438 533.044 184.166C533.281 183.893 533.475 183.542 533.615 183.12C533.756 182.698 533.826 182.241 533.826 181.731V177.486ZM540.453 186.363C538.933 186.363 538.177 185.458 538.177 183.638V178.751H537.061V177.486H538.177V174.489L539.636 174.331V177.486H542.536V178.751H539.636V183.418C539.636 183.972 539.715 184.376 539.873 184.623C540.031 184.869 540.304 184.992 540.708 184.992C541.165 184.992 541.657 184.842 542.185 184.543L542.571 185.818C542.378 185.923 542.202 186.02 542.035 186.09C541.859 186.161 541.64 186.231 541.358 186.284C541.077 186.336 540.77 186.363 540.453 186.363ZM547.01 186.363C545.489 186.363 544.733 185.458 544.733 183.638V178.751H543.617V177.486H544.733V174.489L546.192 174.331V177.486H549.093V178.751H546.192V183.418C546.192 183.972 546.271 184.376 546.43 184.623C546.588 184.869 546.86 184.992 547.265 184.992C547.722 184.992 548.214 184.842 548.741 184.543L549.128 185.818C548.935 185.923 548.759 186.02 548.592 186.09C548.416 186.161 548.196 186.231 547.915 186.284C547.634 186.336 547.326 186.363 547.01 186.363ZM554.674 186.363C554.006 186.363 553.382 186.249 552.819 186.02C552.248 185.792 551.765 185.475 551.378 185.071C550.991 184.667 550.684 184.192 550.464 183.647C550.244 183.102 550.139 182.513 550.139 181.88C550.139 181.256 550.244 180.667 550.464 180.114C550.684 179.56 550.991 179.085 551.378 178.681C551.765 178.277 552.248 177.96 552.819 177.732C553.382 177.503 554.006 177.38 554.674 177.38C555.526 177.38 556.3 177.574 556.985 177.943C557.671 178.321 558.207 178.857 558.594 179.542C558.98 180.228 559.183 181.01 559.183 181.88C559.183 182.75 558.98 183.524 558.594 184.209C558.207 184.895 557.671 185.431 556.985 185.8C556.3 186.178 555.526 186.363 554.674 186.363ZM554.674 185.018C555.228 185.018 555.737 184.886 556.203 184.623C556.66 184.359 557.029 183.99 557.302 183.506C557.565 183.032 557.706 182.487 557.706 181.88C557.706 181.274 557.565 180.729 557.302 180.246C557.029 179.762 556.66 179.384 556.203 179.121C555.746 178.857 555.236 178.725 554.674 178.725C554.076 178.725 553.54 178.866 553.074 179.147C552.6 179.428 552.239 179.815 551.993 180.29C551.738 180.773 551.615 181.3 551.615 181.88C551.615 182.46 551.738 182.988 551.993 183.462C552.248 183.937 552.608 184.315 553.083 184.596C553.549 184.877 554.076 185.018 554.674 185.018ZM566.091 177.38C567.066 177.38 567.831 177.688 568.394 178.303C568.956 178.918 569.237 179.841 569.237 181.054V186.257H567.778V181.458C567.778 180.958 567.726 180.527 567.62 180.167C567.515 179.815 567.374 179.525 567.181 179.314C566.987 179.103 566.759 178.954 566.513 178.857C566.258 178.769 565.968 178.716 565.634 178.716C564.799 178.716 564.131 179.006 563.63 179.569C563.129 180.131 562.883 180.905 562.883 181.872V186.249H561.424V177.486H562.883V178.998H562.909C563.27 178.479 563.727 178.083 564.28 177.802C564.825 177.521 565.432 177.38 566.091 177.38Z" fill="#ED4F00"/>
<path d="M523.386 110V98.6533H519.562V97.2119H528.817V98.6533H524.95V110H523.386ZM531.173 99.6113C530.874 99.6113 530.628 99.5146 530.435 99.3125C530.232 99.1191 530.136 98.873 530.136 98.5918C530.136 98.3105 530.232 98.0645 530.435 97.8623C530.628 97.6689 530.874 97.5635 531.173 97.5635C531.357 97.5635 531.533 97.6162 531.691 97.7041C531.85 97.792 531.973 97.915 532.069 98.0732C532.157 98.2314 532.21 98.4072 532.21 98.5918C532.21 98.873 532.104 99.1191 531.902 99.3125C531.7 99.5146 531.454 99.6113 531.173 99.6113ZM530.435 110V101.237H531.885V110H530.435ZM545.227 101.132C546.237 101.132 547.002 101.439 547.521 102.046C548.03 102.661 548.294 103.602 548.294 104.867V110H546.844V105.263C546.844 104.296 546.677 103.584 546.343 103.136C546.009 102.696 545.499 102.468 544.796 102.468C544.093 102.468 543.504 102.758 543.038 103.338C542.563 103.918 542.335 104.691 542.335 105.649V110H540.885V105.245C540.885 104.612 540.806 104.085 540.647 103.663C540.489 103.25 540.252 102.951 539.953 102.758C539.646 102.564 539.259 102.468 538.802 102.468C538.063 102.468 537.457 102.758 536.982 103.338C536.499 103.918 536.262 104.683 536.262 105.649V110H534.812V101.237H536.262V102.731H536.288C536.64 102.222 537.079 101.835 537.598 101.554C538.107 101.272 538.652 101.132 539.232 101.132C540.621 101.132 541.544 101.703 542.001 102.837H542.036C542.388 102.292 542.845 101.879 543.398 101.58C543.952 101.281 544.559 101.132 545.227 101.132ZM558.63 105.482C558.63 105.711 558.612 105.904 558.586 106.08H551.854C551.941 106.897 552.258 107.548 552.794 108.04C553.321 108.532 553.98 108.77 554.771 108.77C555.29 108.77 555.756 108.664 556.178 108.453C556.591 108.242 556.942 107.952 557.241 107.592L558.261 108.462C557.865 108.972 557.364 109.376 556.767 109.675C556.169 109.974 555.483 110.114 554.719 110.114C554.104 110.114 553.523 110.009 552.987 109.789C552.451 109.569 551.994 109.262 551.607 108.875C551.221 108.488 550.913 108.014 550.693 107.451C550.465 106.889 550.359 106.282 550.359 105.623C550.359 104.973 550.465 104.375 550.685 103.812C550.896 103.25 551.194 102.775 551.563 102.389C551.933 102.002 552.381 101.694 552.899 101.466C553.409 101.246 553.963 101.132 554.552 101.132C555.352 101.132 556.063 101.325 556.688 101.694C557.303 102.072 557.786 102.591 558.12 103.25C558.454 103.909 558.63 104.656 558.63 105.482ZM554.631 102.477C553.937 102.477 553.339 102.696 552.838 103.127C552.337 103.558 552.021 104.138 551.889 104.867H557.18C557.057 104.146 556.775 103.566 556.327 103.127C555.879 102.696 555.316 102.477 554.631 102.477ZM565.178 101.132C565.345 101.132 565.468 101.141 565.538 101.149V102.758C565.327 102.74 565.134 102.731 564.958 102.731C564.413 102.731 563.938 102.863 563.534 103.127C563.13 103.391 562.822 103.751 562.611 104.208C562.4 104.665 562.295 105.192 562.295 105.772V110H560.836V101.237H562.295V102.767H562.33C562.655 102.248 563.06 101.844 563.552 101.562C564.044 101.281 564.58 101.132 565.178 101.132Z" fill="#ED4F00"/>
<g clip-path="url(#clip2_3416_8310)">
<path d="M524.877 69.5088C524.877 79.2456 532.772 87.1404 542.509 87.1404C552.246 87.1404 560.14 79.2456 560.14 69.5088C560.14 59.7719 552.228 51.8772 542.509 51.8772V60.1754" stroke="#141414" stroke-width="1.5" stroke-linecap="round" stroke-linejoin="round"/>
<path d="M543.175 69.8246L526.509 55.4035" stroke="#141414" stroke-width="1.5" stroke-linecap="round" stroke-linejoin="round"/>
</g>
<path d="M556.973 226.16H528.028C524.781 226.16 522.16 228.78 522.16 232.028V260.973C522.16 264.22 524.781 266.84 528.028 266.84H556.973C560.22 266.84 562.841 264.22 562.841 260.973V232.028C562.841 228.78 560.22 226.16 556.973 226.16Z" stroke="black" stroke-width="1.5" stroke-miterlimit="10"/>
<path d="M537.816 248.982V235.785L548.648 242.673L537.816 248.982Z" stroke="black" stroke-width="1.5" stroke-miterlimit="10"/>
<path d="M526.984 257.841H539.184" stroke="black" stroke-width="1.5" stroke-miterlimit="10"/>
<path d="M550.016 257.841H556.347" stroke="black" stroke-width="1.5" stroke-miterlimit="10"/>
<path d="M542.083 260.601C543.776 260.601 545.144 259.233 545.144 257.54C545.144 255.847 543.776 254.479 542.083 254.479C540.39 254.479 539.021 255.847 539.021 257.54C539.021 259.233 540.39 260.601 542.083 260.601Z" stroke="black" stroke-width="1.5" stroke-miterlimit="10"/>
<defs>
<filter id="filter0_d_3416_8310" x="197.312" y="58.693" width="41.2021" height="41.1154" filterUnits="userSpaceOnUse" color-interpolation-filters="sRGB">
<feFlood flood-opacity="0" result="BackgroundImageFix"/>
<feColorMatrix in="SourceAlpha" type="matrix" values="0 0 0 0 0 0 0 0 0 0 0 0 0 0 0 0 0 0 127 0" result="hardAlpha"/>
<feOffset dx="2" dy="3"/>
<feGaussianBlur stdDeviation="3"/>
<feColorMatrix type="matrix" values="0 0 0 0 0 0 0 0 0 0 0 0 0 0 0 0 0 0 0.23 0"/>
<feBlend mode="normal" in2="BackgroundImageFix" result="effect1_dropShadow_3416_8310"/>
<feBlend mode="normal" in="SourceGraphic" in2="effect1_dropShadow_3416_8310" result="shape"/>
</filter>
<filter id="filter1_d_3416_8310" x="341.234" y="58.3098" width="41.2021" height="41.1154" filterUnits="userSpaceOnUse" color-interpolation-filters="sRGB">
<feFlood flood-opacity="0" result="BackgroundImageFix"/>
<feColorMatrix in="SourceAlpha" type="matrix" values="0 0 0 0 0 0 0 0 0 0 0 0 0 0 0 0 0 0 127 0" result="hardAlpha"/>
<feOffset dx="2" dy="3"/>
<feGaussianBlur stdDeviation="3"/>
<feColorMatrix type="matrix" values="0 0 0 0 0 0 0 0 0 0 0 0 0 0 0 0 0 0 0.23 0"/>
<feBlend mode="normal" in2="BackgroundImageFix" result="effect1_dropShadow_3416_8310"/>
<feBlend mode="normal" in="SourceGraphic" in2="effect1_dropShadow_3416_8310" result="shape"/>
</filter>
<filter id="filter2_d_3416_8310" x="229.37" y="56.6455" width="43.8242" height="43.7295" filterUnits="userSpaceOnUse" color-interpolation-filters="sRGB">
<feFlood flood-opacity="0" result="BackgroundImageFix"/>
<feColorMatrix in="SourceAlpha" type="matrix" values="0 0 0 0 0 0 0 0 0 0 0 0 0 0 0 0 0 0 127 0" result="hardAlpha"/>
<feOffset dx="2" dy="3"/>
<feGaussianBlur stdDeviation="3"/>
<feColorMatrix type="matrix" values="0 0 0 0 0 0 0 0 0 0 0 0 0 0 0 0 0 0 0.23 0"/>
<feBlend mode="normal" in2="BackgroundImageFix" result="effect1_dropShadow_3416_8310"/>
<feBlend mode="normal" in="SourceGraphic" in2="effect1_dropShadow_3416_8310" result="shape"/>
</filter>
<filter id="filter3_d_3416_8310" x="264.689" y="50.0405" width="50.3442" height="50.2298" filterUnits="userSpaceOnUse" color-interpolation-filters="sRGB">
<feFlood flood-opacity="0" result="BackgroundImageFix"/>
<feColorMatrix in="SourceAlpha" type="matrix" values="0 0 0 0 0 0 0 0 0 0 0 0 0 0 0 0 0 0 127 0" result="hardAlpha"/>
<feOffset dx="2" dy="3"/>
<feGaussianBlur stdDeviation="3"/>
<feColorMatrix type="matrix" values="0 0 0 0 0 0 0 0 0 0 0 0 0 0 0 0 0 0 0.23 0"/>
<feBlend mode="normal" in2="BackgroundImageFix" result="effect1_dropShadow_3416_8310"/>
<feBlend mode="normal" in="SourceGraphic" in2="effect1_dropShadow_3416_8310" result="shape"/>
</filter>
<filter id="filter4_d_3416_8310" x="306.804" y="56.6864" width="43.3242" height="43.2295" filterUnits="userSpaceOnUse" color-interpolation-filters="sRGB">
<feFlood flood-opacity="0" result="BackgroundImageFix"/>
<feColorMatrix in="SourceAlpha" type="matrix" values="0 0 0 0 0 0 0 0 0 0 0 0 0 0 0 0 0 0 127 0" result="hardAlpha"/>
<feOffset dx="2" dy="3"/>
<feGaussianBlur stdDeviation="3"/>
<feColorMatrix type="matrix" values="0 0 0 0 0 0 0 0 0 0 0 0 0 0 0 0 0 0 0.23 0"/>
<feBlend mode="normal" in2="BackgroundImageFix" result="effect1_dropShadow_3416_8310"/>
<feBlend mode="normal" in="SourceGraphic" in2="effect1_dropShadow_3416_8310" result="shape"/>
</filter>
<filter id="filter5_d_3416_8310" x="487.157" y="17.7152" width="118.614" height="410.346" filterUnits="userSpaceOnUse" color-interpolation-filters="sRGB">
<feFlood flood-opacity="0" result="BackgroundImageFix"/>
<feColorMatrix in="SourceAlpha" type="matrix" values="0 0 0 0 0 0 0 0 0 0 0 0 0 0 0 0 0 0 127 0" result="hardAlpha"/>
<feOffset dx="3" dy="3"/>
<feGaussianBlur stdDeviation="3"/>
<feColorMatrix type="matrix" values="0 0 0 0 0 0 0 0 0 0 0 0 0 0 0 0 0 0 0.15 0"/>
<feBlend mode="normal" in2="BackgroundImageFix" result="effect1_dropShadow_3416_8310"/>
<feBlend mode="normal" in="SourceGraphic" in2="effect1_dropShadow_3416_8310" result="shape"/>
</filter>
<clipPath id="clip0_3416_8310">
<rect width="465" height="100" fill="white" transform="translate(37 160)"/>
</clipPath>
<clipPath id="clip1_3416_8310">
<rect width="54.9691" height="26.9229" fill="white" transform="translate(513.242 144.844) rotate(-10.3159)"/>
</clipPath>
<clipPath id="clip2_3416_8310">
<rect width="37" height="37" fill="white" transform="translate(524 51)"/>
</clipPath>
</defs>
</svg>
