<svg xmlns="http://www.w3.org/2000/svg" fill="none" viewBox="0 0 93 107"><path fill="#fff" d="m.035 83.877 46 22.666 46-22.666V.543h-92v83.334z"/><path fill="#fff" d="m.035 83.877 46 22.666 46-22.666V.543h-92v83.334z"/><path fill="#000" d="M12.83 13.33q-.37 0-.69-.09-.33-.09-.58-.25-.25-.17-.41-.37-.17-.2-.22-.43l.94-.28q.09.24.32.41.23.17.58.18.37.01.61-.16.23-.17.23-.43 0-.23-.18-.39-.19-.16-.51-.24l-.64-.17q-.35-.09-.63-.28-.27-.18-.42-.46-.16-.27-.16-.63 0-.7.46-1.09.46-.38 1.3-.38.47 0 .82.13.36.14.59.39.24.25.37.6l-.93.28q-.09-.24-.31-.4-.23-.17-.57-.17-.35 0-.55.16-.2.16-.2.46 0 .23.16.36.16.13.43.2l.64.16q.63.16.98.56t.35.89q0 .43-.21.75-.21.33-.6.51-.4.18-.97.18Zm3.3-.08v-4.9h1.82q.52 0 .92.21.4.2.62.57.23.37.23.85t-.22.85q-.22.37-.59.58-.38.22-.88.22h-.94v1.62Zm.96-2.51h.92q.32 0 .53-.21.2-.21.2-.55 0-.33-.22-.55-.23-.2-.59-.2h-.84Zm3.96 2.51v-4.9h1.82q.52 0 .92.2.4.21.62.56.23.35.23.82 0 .46-.24.82-.23.36-.64.56-.4.2-.92.2h-.83v1.74Zm2.7 0-1.13-1.97.73-.52 1.48 2.49Zm-1.74-2.61h.87q.22 0 .39-.09t.27-.25q.1-.16.1-.37 0-.31-.22-.51-.23-.19-.59-.19h-.82Zm4.26 2.61v-4.9h.96v4.9Zm2.72 0v-4.9h1l2.4 3.29V8.35h.95v4.9h-.95L29.95 9.9v3.35Zm8.39.08q-.75 0-1.33-.32-.58-.33-.9-.9-.33-.57-.33-1.31 0-.74.33-1.31.32-.57.9-.9.58-.32 1.33-.32.45 0 .82.13.38.13.67.37.29.23.49.53l-.78.49q-.12-.19-.32-.33-.19-.15-.42-.23-.23-.09-.46-.09-.46 0-.82.21-.36.22-.56.59-.2.37-.2.86 0 .48.2.86t.56.59q.36.22.84.22.37 0 .66-.15.29-.15.46-.41.17-.27.17-.62l.91-.14q0 .69-.29 1.18-.28.49-.78.75-.5.25-1.15.25Zm.16-1.96v-.74h2.06v.59l-.52.15Zm5.66 1.88v-.71q0-.2.12-.44.13-.25.35-.49.23-.25.53-.46l.74-.53q.15-.11.29-.24.14-.13.22-.29.09-.16.09-.3 0-.19-.09-.33-.08-.15-.25-.23-.17-.09-.42-.09-.21 0-.37.09-.16.08-.27.22-.1.14-.15.3l-.98-.17q.07-.35.3-.65.23-.3.6-.49.38-.18.85-.18.55 0 .94.2.39.19.61.53.21.34.21.79t-.25.81q-.25.35-.68.66l-.67.48q-.2.14-.35.31-.14.17-.22.37h2.23v.84Zm6.66.08q-.6 0-1.05-.32-.46-.33-.71-.9-.26-.57-.26-1.31 0-.74.26-1.31.25-.57.71-.9.45-.32 1.04-.32.6 0 1.06.32.45.33.71.9.26.57.26 1.31 0 .74-.26 1.31-.26.57-.71.9-.46.32-1.05.32Zm0-.86q.31 0 .56-.22.25-.21.39-.59.14-.37.14-.86t-.14-.87q-.14-.38-.39-.59-.25-.21-.57-.21-.31 0-.56.21-.24.21-.38.59t-.14.87q0 .49.14.86.14.38.39.59.24.22.56.22Zm3.32.78v-.71q0-.2.13-.44.13-.25.35-.49.22-.25.53-.46l.74-.53q.15-.11.29-.24.13-.13.22-.29.09-.16.09-.3 0-.19-.09-.33-.09-.15-.25-.23-.17-.09-.42-.09-.21 0-.37.09-.17.08-.27.22-.11.14-.15.3L53 9.58q.07-.35.3-.65.23-.3.6-.49.38-.18.85-.18.55 0 .94.2.39.19.61.53.21.34.21.79t-.25.81q-.25.35-.68.66l-.67.48q-.2.14-.35.31-.14.17-.22.37h2.23v.84Zm6.45.08q-.33 0-.69-.11-.35-.11-.63-.33-.29-.23-.42-.56l.87-.26q.16.23.37.33.21.11.45.11.36 0 .59-.22.22-.22.22-.59 0-.35-.22-.58-.22-.23-.58-.23-.22 0-.4.1-.18.1-.28.23l-.86-.19.29-2.68h2.78v.87h-1.96l-.14 1.17q.19-.1.42-.17.23-.06.5-.06.4 0 .73.2.33.19.52.52t.19.77q0 .5-.22.88-.23.38-.62.59-.39.21-.91.21Z" style="white-space:pre"/><g fill="#000" style="white-space:pre"><path d="M30.06 47.5v-7h4.64v1.48h-3.03v1.35h2.45v1.47h-2.45v2.7Zm8.3 0-.04-1.08v-1.41q0-.4-.07-.7-.07-.3-.25-.47-.18-.17-.54-.17-.28 0-.49.13-.21.13-.36.36l-1.36-.45q.17-.37.47-.67.29-.3.72-.48t1-.18q.78 0 1.32.29t.81.81q.27.52.27 1.23l-.02 2.79Zm-1.36.12q-.89 0-1.38-.4-.49-.4-.49-1.13 0-.79.51-1.18.51-.39 1.43-.39h1.37v1h-.78q-.5 0-.72.14-.22.14-.22.39 0 .18.17.29.16.1.45.1.29 0 .51-.12.22-.13.35-.34.12-.21.12-.46h.39q0 1-.42 1.55t-1.29.55Zm5.67 0q-.49 0-.91-.14-.43-.15-.74-.41-.31-.27-.46-.65l1.28-.54q.13.26.36.39.23.12.47.12.25 0 .39-.08.14-.09.14-.24 0-.16-.14-.25-.15-.09-.42-.16l-.43-.11q-.7-.18-1.07-.59-.38-.42-.38-.97 0-.77.53-1.19.53-.42 1.47-.42.53 0 .94.14.4.14.68.4.27.25.39.59l-1.24.51q-.07-.2-.28-.3-.22-.11-.48-.11-.22 0-.34.1-.12.09-.12.25 0 .12.15.21.14.08.42.15l.53.13q.47.12.79.37.32.24.48.57.16.32.16.69 0 .47-.27.82-.28.34-.77.53t-1.13.19Zm5.06 0q-.89 0-1.32-.42-.44-.43-.44-1.22v-5.04h1.56v4.65q0 .3.11.44t.34.14q.09 0 .21-.04.12-.05.22-.12l.54 1.14q-.24.2-.57.34-.34.13-.65.13Zm-2.54-3.81V42.5h3.48v1.31ZM52 47.62q-.78 0-1.38-.33-.6-.34-.94-.93-.34-.59-.34-1.36 0-.78.34-1.37.35-.59.95-.92.6-.33 1.39-.33.71 0 1.28.34.57.34.91 1.01.33.67.33 1.67h-3.76l.17-.19q0 .34.14.6.14.26.39.4.25.13.56.13.37 0 .63-.16.25-.17.35-.42l1.38.47q-.2.47-.57.78-.36.31-.83.46-.47.15-1 .15Zm-1.01-3.06-.16-.2h2.24l-.14.2q0-.37-.15-.59-.15-.22-.37-.31-.22-.1-.44-.1t-.44.1q-.23.09-.38.31-.16.22-.16.59Zm6.09 3.06q-.49 0-.92-.14-.42-.15-.73-.41-.31-.27-.46-.65l1.28-.54q.13.26.36.39.23.12.47.12.25 0 .39-.08.14-.09.14-.24 0-.16-.15-.25-.14-.09-.41-.16l-.43-.11q-.7-.18-1.08-.59-.37-.42-.37-.97 0-.77.53-1.19.53-.42 1.47-.42.53 0 .93.14.41.14.68.4.28.25.4.59l-1.24.51q-.07-.2-.29-.3-.21-.11-.47-.11-.22 0-.34.1-.12.09-.12.25 0 .12.14.21.15.08.43.15l.53.13q.47.12.79.37.32.24.48.57.16.32.16.69 0 .47-.28.82-.27.34-.76.53t-1.13.19Zm5.06 0q-.89 0-1.32-.42-.44-.43-.44-1.22v-5.04h1.56v4.65q0 .3.11.44t.34.14q.09 0 .21-.04.12-.05.22-.12l.54 1.14q-.24.2-.57.34-.34.13-.65.13Zm-2.54-3.81V42.5h3.48v1.31ZM10.17 57.5v-7h1.61v7Zm2.8 0v-5h1.47l.06.63q.24-.37.6-.56.35-.19.78-.19.62 0 1.03.26.4.25.59.77.23-.5.63-.76.4-.27.9-.27.9 0 1.35.55.46.55.45 1.71v2.86h-1.56v-2.56q0-.4-.08-.63-.09-.24-.25-.35-.16-.11-.38-.12-.43-.01-.65.25-.23.25-.23.77v2.64h-1.56v-2.56q0-.4-.08-.63-.09-.24-.25-.35-.16-.11-.38-.12-.43-.01-.65.25-.23.25-.23.77v2.64Zm8.86 2v-7h1.47l.09.92v6.08Zm2.98-1.88q-.62 0-1.04-.31-.42-.32-.63-.91-.21-.59-.21-1.4 0-.82.21-1.4.21-.59.63-.9.42-.32 1.04-.32.7 0 1.21.32.51.31.78.9.27.58.27 1.4 0 .81-.27 1.4-.27.59-.78.91-.51.31-1.21.31Zm-.4-1.44q.3 0 .53-.15.23-.15.37-.41.14-.27.14-.62t-.13-.61q-.13-.27-.36-.42-.24-.15-.54-.15-.3 0-.53.15-.24.15-.37.42t-.13.61q0 .35.13.62.13.26.36.41.23.15.53.15Zm3.42 1.32v-7h1.56v7Zm4.98.12q-.78 0-1.38-.33-.6-.34-.94-.93-.34-.59-.34-1.36 0-.78.34-1.37.35-.59.95-.92.6-.33 1.39-.33.71 0 1.28.34.57.34.91 1.01.33.67.33 1.67h-3.76l.17-.19q0 .34.14.6.14.26.39.4.25.13.56.13.37 0 .63-.16.25-.17.35-.42l1.38.47q-.2.47-.57.78-.36.31-.83.46-.47.15-1 .15Zm-1.01-3.06-.16-.2h2.24l-.14.2q0-.37-.15-.59-.15-.22-.37-.31-.22-.1-.44-.1t-.44.1q-.23.09-.38.31-.16.22-.16.59Zm4.21 2.94v-5h1.47l.06.63q.24-.37.59-.56.36-.19.79-.19.62 0 1.02.26.41.25.6.77.23-.5.63-.76.4-.27.9-.27.9 0 1.35.55.46.55.45 1.71v2.86h-1.56v-2.56q0-.4-.09-.63-.08-.24-.24-.35-.16-.11-.38-.12-.43-.01-.66.25-.22.25-.22.77v2.64h-1.56v-2.56q0-.4-.09-.63-.08-.24-.24-.35-.16-.11-.38-.12-.43-.01-.66.25-.22.25-.22.77v2.64Zm11.21.12q-.78 0-1.38-.33-.6-.34-.94-.93-.34-.59-.34-1.36 0-.78.34-1.37.35-.59.95-.92.6-.33 1.39-.33.71 0 1.28.34.57.34.91 1.01.33.67.33 1.67H46l.17-.19q0 .34.14.6.14.26.39.4.25.13.56.13.37 0 .63-.16.25-.17.35-.42l1.38.47q-.2.47-.57.78-.36.31-.83.46-.47.15-1 .15Zm-1.01-3.06-.16-.2h2.24l-.14.2q0-.37-.15-.59-.15-.22-.37-.31-.22-.1-.44-.1t-.44.1q-.23.09-.39.31-.15.22-.15.59Zm4.21 2.94v-5h1.47l.09.92v4.08Zm3.22 0v-2.56h1.56v2.56Zm0-2.56q0-.4-.09-.63-.09-.24-.26-.35-.16-.11-.4-.12-.45-.01-.68.25-.23.25-.23.77h-.47q0-.79.24-1.34.24-.56.65-.85.42-.29.97-.29.6 0 1.01.25.41.24.61.74.21.5.21 1.28v.29Zm4.66 2.68q-.89 0-1.33-.42-.43-.43-.43-1.22v-5.04h1.56v4.65q0 .3.11.44t.34.14q.09 0 .21-.04.12-.05.22-.12l.54 1.14q-.24.2-.58.34-.33.13-.64.13Zm-2.54-3.81V52.5h3.48v1.31Zm7.38 3.69-.04-1.08v-1.41q0-.4-.07-.7-.07-.3-.25-.47-.18-.17-.54-.17-.28 0-.49.13-.21.13-.36.36l-1.36-.45q.17-.37.46-.67.3-.3.73-.48t1-.18q.78 0 1.32.29t.81.81q.27.52.27 1.23l-.02 2.79Zm-1.36.12q-.89 0-1.38-.4-.49-.4-.49-1.13 0-.79.51-1.18.51-.39 1.43-.39h1.37v1h-.78q-.5 0-.72.14-.22.14-.22.39 0 .18.16.29.17.1.46.1.29 0 .51-.12.22-.13.34-.34.13-.21.13-.46h.39q0 1-.42 1.55t-1.29.55Zm5.94 0q-.89 0-1.32-.42-.44-.43-.44-1.22v-5.04h1.56v4.65q0 .3.11.44t.34.14q.09 0 .21-.04.12-.05.22-.12l.54 1.14q-.24.2-.57.34-.34.13-.65.13Zm-2.54-3.81V52.5h3.48v1.31Zm4.62 3.69v-5h1.56v5Zm.78-5.64q-.35 0-.62-.26-.26-.27-.26-.62 0-.37.26-.62.27-.26.62-.26.36 0 .62.26.26.25.26.62 0 .35-.26.62-.26.26-.62.26Zm4.31 5.76q-.79 0-1.39-.33-.6-.34-.94-.93-.35-.59-.35-1.36 0-.77.34-1.36.33-.59.94-.92.6-.34 1.37-.34.79 0 1.4.34.6.33.94.92.33.59.33 1.36 0 .77-.33 1.36-.34.59-.94.93-.6.33-1.37.33Zm0-1.44q.3 0 .54-.15.23-.15.37-.41.13-.27.13-.62t-.13-.61q-.14-.27-.38-.42-.24-.15-.55-.15-.31 0-.55.15-.24.15-.37.42-.14.26-.14.61t.14.62q.13.26.38.41.24.15.56.15Zm3.4 1.32v-5h1.47l.09.92v4.08Zm3.22 0v-2.56h1.56v2.56Zm0-2.56q0-.4-.09-.63-.09-.24-.25-.35-.17-.11-.41-.12-.45-.01-.68.25-.23.25-.23.77h-.47q0-.79.24-1.34.24-.56.66-.85.41-.29.96-.29.6 0 1.01.25.41.24.62.74.2.5.2 1.28v.29Z"/></g><path fill="#FF492C" d="M71.035.543h21v21h-21z"/><g clip-path="url(#a)"><path fill="#fff" fill-rule="evenodd" d="M86.086 8.585h-1.794c.049-.281.222-.438.574-.616l.331-.168c.591-.303.906-.644.906-1.2a.972.972 0 0 0-.407-.828c-.266-.2-.591-.298-.965-.298a1.5 1.5 0 0 0-.819.233 1.383 1.383 0 0 0-.542.59l.52.519c.201-.406.494-.606.879-.606.325 0 .526.168.526.4 0 .195-.098.357-.472.546l-.211.103c-.461.233-.781.498-.965.8-.185.298-.277.682-.277 1.142v.124h2.716v-.74zm-.245 1.6h-2.966l-1.483 2.57h2.966l1.483 2.57 1.484-2.57-1.484-2.57z" clip-rule="evenodd"/><path fill="#fff" fill-rule="evenodd" d="M81.644 14.472a3.433 3.433 0 0 1-3.43-3.428 3.433 3.433 0 0 1 3.43-3.427l1.174-2.456a6 6 0 0 0-7.176 5.883 6 6 0 0 0 6.002 5.999 5.978 5.978 0 0 0 3.535-1.15l-1.3-2.252a3.417 3.417 0 0 1-2.235.831z" clip-rule="evenodd"/><path stroke="#000" stroke-width="1.085" d="M71.524 1.21v19.868"/></g><path fill="#288DFF" d="M.035 84.063v-6.5l46 23.042 46-23.042v6.5l-46 22.48-46-22.48z"/><path fill="#FFF" d="M.035 78.109v-6.5l46 23.042 46-23.042v6.5l-46 22.48-46-22.48z"/><path fill="#FFF" d="M.035 72.174v-6.5l46 23.043 46-23.043v6.5l-46 22.48-46-22.48z"/><path stroke="#000" stroke-width="1.085" d="m91.492 83.54-45.457 22.398L.578 83.54V1.086h90.914V83.54zm.118-62.462H.66"/><defs><clipPath id="a"><path fill="#fff" d="M0 0h21v21H0z" transform="translate(71.035 .543)"/></clipPath></defs></svg>
