<svg width="25" height="25" viewBox="0 0 25 25" fill="none" xmlns="http://www.w3.org/2000/svg">
<path d="M8.74878 6.56847C8.37307 6.50147 8.04245 6.49403 7.77195 6.70991C6.90783 7.40966 6.3593 8.27319 6.37432 9.41959C6.38184 10.3203 6.63732 11.169 7.08816 11.9432C8.27539 13.9978 9.86838 15.6727 11.9272 16.901C13.0694 17.5784 14.2716 18.1367 15.6091 18.3079C16.6761 18.4419 17.6304 18.1442 18.3894 17.3625C18.8477 16.8861 18.998 16.2682 19.1107 15.6429C19.1633 15.3303 19.1032 15.1888 18.8101 15.0548C17.946 14.6603 17.0819 14.2657 16.2178 13.8712C15.9022 13.7298 15.7669 13.767 15.5565 14.0275C15.2334 14.437 14.9103 14.8464 14.6023 15.2633C14.452 15.4643 14.2867 15.4866 14.0763 15.4047C12.1827 14.6528 10.6724 13.4692 9.68052 11.6826C9.52273 11.3997 9.53024 11.3476 9.74815 11.0945C10.0337 10.767 10.3117 10.432 10.5972 10.1193C10.7851 9.91835 10.8152 9.7248 10.7024 9.4717C10.3793 8.75706 10.0487 8.03497 9.77069 7.30544C9.57533 6.78435 9.32736 6.42703 8.74878 6.57591V6.56847Z" stroke="#FF3E00" stroke-width="1.5" stroke-miterlimit="10" stroke-linecap="round"/>
<path d="M8.70369 6.27063C9.34239 6.22596 9.57533 6.78428 9.77069 7.29792C10.0487 8.0349 10.3793 8.74954 10.7024 9.46418C10.8152 9.71728 10.7851 9.91083 10.5972 10.1118C10.3042 10.4319 10.0262 10.7595 9.74815 11.087C9.53024 11.3401 9.52273 11.3922 9.68052 11.6751C10.6724 13.4617 12.1902 14.6528 14.0763 15.3972C14.2867 15.4791 14.4595 15.4493 14.6023 15.2557C14.9103 14.8389 15.241 14.4294 15.5565 14.02C15.7669 13.752 15.9022 13.7222 16.2178 13.8637C17.0819 14.2582 17.946 14.6528 18.8101 15.0473C19.1032 15.1813 19.1633 15.3227 19.1107 15.6354C18.998 16.2607 18.8477 16.8786 18.3894 17.355C17.6304 18.1366 16.6761 18.4418 15.6091 18.3004C14.2716 18.1292 13.0694 17.5783 11.9272 16.8935C9.87589 15.6726 8.27539 13.9902 7.08816 11.9356C6.63732 11.1614 6.38935 10.3128 6.37432 9.41207C6.3593 8.26566 6.90783 7.3947 7.77195 6.70239C8.04245 6.48651 8.36556 6.29296 8.70369 6.26318V6.27063Z" stroke="#FF3E00" stroke-width="1.5" stroke-miterlimit="10" stroke-linecap="round"/>
<path d="M11.7099 1.02261C6.25463 1.3576 1.7086 5.62311 1.07742 10.9978C0.806912 13.3353 1.25776 15.5462 2.23459 17.4519C2.59527 18.1442 2.67041 18.9482 2.41493 19.6851L1.31036 22.9159C1.09996 23.5263 1.72363 24.0846 2.31724 23.8241L5.18011 22.5586C5.96158 22.2087 6.85575 22.2534 7.63722 22.6107C9.51574 23.4742 11.6573 23.8613 13.9265 23.571C19.3066 22.8861 23.5445 18.3824 23.8601 13.0152C24.2584 6.20375 18.5852 0.598292 11.7099 1.02261Z" stroke="#7A5554" stroke-width="1.5" stroke-miterlimit="10" stroke-linecap="round"/>
</svg>
