<svg width="29" height="24" viewBox="0 0 29 24" fill="none" xmlns="http://www.w3.org/2000/svg">
<path d="M20.1096 16.3407H6.99958C5.53236 16.3407 4.33838 15.1552 4.33838 13.6851V3.65558C4.33838 2.19145 5.52642 1 6.99958 1H21.7372C23.2044 1 24.3984 2.18553 24.3984 3.65558V13.6911C24.3984 14.0289 24.333 14.3549 24.2202 14.6513" stroke="#7A5554" stroke-width="1.5" stroke-linecap="round" stroke-linejoin="round"/>
<path d="M20.9174 21.2076C20.561 22.2568 19.569 23.0156 18.3929 23.0156H3.6612C2.19398 23.0156 1 21.83 1 20.36V10.3245C1 8.8604 2.18804 7.66895 3.6612 7.66895" stroke="#7A5554" stroke-width="1.5" stroke-linecap="round" stroke-linejoin="round" stroke-dasharray="2 2"/>
<path d="M13.8694 11.8623C15.4506 11.8623 16.7324 10.5805 16.7324 8.99927C16.7324 7.41806 15.4506 6.13623 13.8694 6.13623C12.2882 6.13623 11.0063 7.41806 11.0063 8.99927C11.0063 10.5805 12.2882 11.8623 13.8694 11.8623Z" stroke="#FF3E00" stroke-width="1.5" stroke-miterlimit="10"/>
<path d="M20.9824 13.5605L21.6537 20.8989L23.6555 18.8954L26.9998 18.2256L20.9824 13.5605Z" stroke="#FF3E00" stroke-width="1.5" stroke-miterlimit="10"/>
<path d="M25.6634 22.2326L23.7031 18.9131" stroke="#FF3E00" stroke-width="1.5" stroke-miterlimit="10"/>
</svg>
