<svg width="24" height="24" viewBox="0 0 24 24" fill="none" xmlns="http://www.w3.org/2000/svg">
<path d="M7.57143 1H3.98545C2.33663 1 1 2.31553 1 3.93833V7.46769C1 9.09049 2.33663 10.406 3.98545 10.406H7.57143C9.22025 10.406 10.5569 9.09049 10.5569 7.46769V3.93833C10.5569 2.31553 9.22025 1 7.57143 1Z" stroke="#7A5554" stroke-width="1.5" stroke-miterlimit="10" stroke-linecap="round"/>
<path d="M7.57143 13.3274H3.98545C2.33663 13.3274 1 14.6429 1 16.2657V19.7951C1 21.4179 2.33663 22.7334 3.98545 22.7334H7.57143C9.22025 22.7334 10.5569 21.4179 10.5569 19.7951V16.2657C10.5569 14.6429 9.22025 13.3274 7.57143 13.3274Z" stroke="#7A5554" stroke-width="1.5" stroke-miterlimit="10" stroke-linecap="round"/>
<path d="M19.7277 13.3274H16.1417C14.4929 13.3274 13.1562 14.6429 13.1562 16.2657V19.7951C13.1562 21.4179 14.4929 22.7334 16.1417 22.7334H19.7277C21.3765 22.7334 22.7131 21.4179 22.7131 19.7951V16.2657C22.7131 14.6429 21.3765 13.3274 19.7277 13.3274Z" stroke="#7A5554" stroke-width="1.5" stroke-miterlimit="10" stroke-linecap="round"/>
<path d="M17.9004 2.29175V9.35049" stroke="#FF3E00" stroke-width="1.5" stroke-miterlimit="10" stroke-linecap="round"/>
<path d="M21.4864 5.82104H14.3145" stroke="#FF3E00" stroke-width="1.5" stroke-miterlimit="10" stroke-linecap="round"/>
</svg>
