<svg width="19" height="18" viewBox="0 0 19 18" fill="none" xmlns="http://www.w3.org/2000/svg">
<mask id="mask0_3881_6252" style="mask-type:luminance" maskUnits="userSpaceOnUse" x="0" y="0" width="19" height="18">
<path d="M18.4709 0.427734H0.922852V17.9758H18.4709V0.427734Z" fill="white"/>
</mask>
<g mask="url(#mask0_3881_6252)">
<path d="M17.172 0.427734H2.21848C1.50194 0.427734 0.922852 0.993287 0.922852 1.69228V16.7075C0.922852 17.4069 1.50194 17.9758 2.21848 17.9758H17.172C17.8881 17.9758 18.4709 17.4069 18.4709 16.7112V1.69228C18.4709 0.993287 17.8881 0.427734 17.172 0.427734ZM6.12914 15.3812H3.52436V7.00496H6.12914V15.3812ZM4.82655 5.86361C3.99046 5.86361 3.31523 5.18837 3.31523 4.35557C3.31523 3.52277 3.99046 2.84754 4.82655 2.84754C5.65935 2.84754 6.33458 3.52277 6.33458 4.35557C6.33458 5.18472 5.65935 5.86361 4.82655 5.86361ZM15.8763 15.3812H13.2748V11.3097C13.2748 10.3394 13.258 9.08877 11.9211 9.08877C10.5673 9.08877 10.3618 10.1475 10.3618 11.241V15.3812H7.76402V7.00496H10.2588V8.1496H10.2931C10.6393 7.49155 11.4893 6.79584 12.7542 6.79584C15.3897 6.79584 15.8763 8.53016 15.8763 10.7851V15.3812Z" fill="white" fill-opacity="0.8"/>
</g>
</svg>
