<svg width="269" height="59" viewBox="0 0 269 59" fill="none" xmlns="http://www.w3.org/2000/svg">
<g clip-path="url(#clip0_3675_2760)">
<path d="M192.792 45.8985C192.366 45.7604 191.941 45.6299 191.523 45.5071C191.128 45.392 190.765 45.2615 190.455 45.108C190.169 44.9698 189.937 44.8086 189.767 44.6168C189.627 44.4709 189.565 44.2867 189.565 44.0488C189.565 43.6804 189.712 43.4041 190.022 43.1738C190.362 42.9205 190.819 42.7977 191.376 42.7977C191.84 42.7977 192.328 42.8975 192.823 43.0894C193.334 43.2813 193.852 43.5959 194.37 44.0104L194.765 44.3251L197.187 39.6048L196.831 39.4206C195.841 38.8987 194.796 38.4919 193.72 38.2232C191.477 37.6553 189.341 37.6783 187.662 38.3C186.78 38.63 186.014 39.0905 185.402 39.6815C184.791 40.2725 184.304 40.994 183.963 41.8153C183.623 42.6365 183.453 43.5652 183.453 44.563C183.453 45.5608 183.623 46.4358 183.948 47.1112C184.273 47.7867 184.706 48.3469 185.24 48.7998C185.758 49.2373 186.362 49.5903 187.027 49.8513C187.662 50.1046 188.32 50.3348 188.97 50.5344C189.527 50.7263 189.983 50.8875 190.355 51.041C190.703 51.1791 190.997 51.3326 191.206 51.4861C191.391 51.6243 191.523 51.7778 191.6 51.9236C191.678 52.0848 191.716 52.2767 191.716 52.4993C191.716 52.86 191.562 53.1824 191.237 53.4817C190.912 53.7811 190.386 53.9346 189.674 53.9346C189.008 53.9346 188.327 53.7811 187.646 53.4817C186.95 53.1747 186.23 52.6988 185.511 52.0618L185.124 51.7164L182.54 56.5365L182.841 56.7437C185 58.2404 187.383 58.9926 189.914 58.9926C191.136 58.9926 192.258 58.8237 193.233 58.4937C194.216 58.1637 195.067 57.6878 195.748 57.0814C196.436 56.4674 196.963 55.7229 197.326 54.8709C197.682 54.019 197.86 53.0673 197.86 52.0234C197.86 50.4653 197.442 49.1759 196.614 48.1934C195.802 47.2264 194.525 46.4511 192.807 45.8755L192.792 45.8985Z" fill="white"/>
<path d="M198.494 43.4118H202.649V58.4707H208.53V43.4118H212.685V38.3538H198.494V43.4118Z" fill="white"/>
<path d="M262.748 50.3808C263.94 50.0047 264.876 49.3907 265.534 48.5387C266.3 47.5563 266.694 46.2745 266.694 44.7164C266.694 43.8568 266.547 43.0279 266.269 42.2757C265.982 41.5082 265.557 40.8251 264.992 40.2417C264.427 39.6584 263.707 39.1902 262.849 38.8525C261.99 38.5148 260.992 38.3459 259.862 38.3459H251.583V58.4629H257.455V52.008L261.649 58.4629H269L262.748 50.3808ZM257.455 43.0279H257.997C258.895 43.0279 259.583 43.2044 260.048 43.5575C260.481 43.8875 260.69 44.3634 260.69 45.0004C260.69 45.6375 260.481 46.1133 260.048 46.4434C259.591 46.7964 258.902 46.973 257.997 46.973H257.455V43.0279Z" fill="white"/>
<path d="M19.8549 11.7817L15.4057 23.6094L10.9256 11.7817H4.17834L0 36.1892H6.98711L8.85963 23.7705L13.7421 36.1892H16.752L21.9053 23.7168L23.7933 36.1892H30.7804L26.6021 11.7817H19.8549Z" fill="white"/>
<path d="M40.9632 11.7817L31.6006 36.1892H39.0829L40.4989 32.0906H48.7473L50.1632 36.1892H57.6456L48.283 11.7817H40.9632ZM46.8206 26.6104H42.4256L44.6231 20.3934L46.8206 26.6104Z" fill="white"/>
<path d="M75.3648 24.0929C76.2933 22.9109 76.7576 21.3528 76.7576 19.4801C76.7576 18.4362 76.5874 17.4384 76.2392 16.5251C75.891 15.604 75.3803 14.7751 74.6994 14.069C74.0185 13.3628 73.1441 12.7949 72.1073 12.3881C71.0704 11.989 69.8556 11.7817 68.486 11.7817H58.458V36.1892H65.4606V28.0917L70.7299 36.1892H79.4812L71.8751 26.3495C73.3762 25.8966 74.5446 25.1444 75.3648 24.0929ZM65.4683 17.3156H66.2266C67.3486 17.3156 68.2075 17.5382 68.7878 17.9834C69.3372 18.4055 69.608 19.0119 69.608 19.8254C69.608 20.639 69.3372 21.2377 68.7878 21.6675C68.2152 22.1127 67.3486 22.3353 66.2266 22.3353H65.4683V17.331V17.3156Z" fill="white"/>
<path d="M102.95 11.7817H94.2373L87.3043 20.7235V11.7817H80.3018V36.1892H87.3043V26.7255L94.7402 36.1892H103.817L93.1695 23.3561L102.95 11.7817Z" fill="white"/>
<path d="M104.644 36.1892H118.99V30.1794H111.639V26.9251H118.58V20.9153H111.639V17.7915H118.99V11.7817H104.644V36.1892Z" fill="white"/>
<path d="M120.22 17.7915H125.304V36.1892H132.299V17.7915H137.382V11.7817H120.22V17.7915Z" fill="white"/>
<path d="M145.615 11.7817H138.613V36.1892H145.615V11.7817Z" fill="white"/>
<path d="M164.441 25.4361L153.631 11.7817H146.845V36.1892H153.84V22.5272L164.657 36.1892H171.42V11.7817H164.441V25.4361Z" fill="white"/>
<path d="M184.884 22.1665V27.7388H189.874C189.766 28.1763 189.619 28.5524 189.418 28.8748C189.155 29.3046 188.822 29.6576 188.42 29.9186C188.01 30.1949 187.538 30.3945 187.027 30.5173C186.493 30.6477 185.936 30.7091 185.356 30.7091C184.388 30.7091 183.53 30.548 182.81 30.2256C182.09 29.9109 181.487 29.4581 180.999 28.8824C180.512 28.2991 180.14 27.6007 179.893 26.8024C179.645 25.9888 179.521 25.0908 179.521 24.1391C179.521 23.0876 179.668 22.1128 179.955 21.2609C180.241 20.4166 180.643 19.6874 181.146 19.0888C181.642 18.5054 182.245 18.0449 182.941 17.7225C183.638 17.4002 184.435 17.239 185.294 17.239C186.323 17.239 187.251 17.5 188.056 18.0219C188.853 18.5361 189.519 19.4111 190.029 20.6238L190.192 20.9922L196.838 18.2598L196.653 17.8761C195.531 15.5811 193.975 13.8542 192.041 12.7566C190.114 11.6591 187.847 11.1064 185.309 11.1064C183.352 11.1064 181.549 11.4211 179.955 12.0428C178.353 12.6645 176.968 13.5472 175.823 14.6678C174.685 15.7884 173.788 17.1546 173.177 18.7357C172.558 20.3091 172.248 22.0591 172.248 23.9319C172.248 25.8046 172.565 27.593 173.192 29.1664C173.819 30.7399 174.709 32.1137 175.838 33.2497C176.968 34.3779 178.338 35.2683 179.908 35.89C181.471 36.5117 183.228 36.8264 185.124 36.8264C186.501 36.8264 187.832 36.6575 189.085 36.3121C190.339 35.9667 191.499 35.4602 192.552 34.8078C193.604 34.1477 194.54 33.3188 195.322 32.3363C196.103 31.3539 196.73 30.2179 197.187 28.9515C197.512 28.0535 197.728 27.0634 197.844 26.0119C197.953 24.9834 198.007 23.8167 198.007 22.558V22.1512H184.907L184.884 22.1665Z" fill="white"/>
<path d="M261.688 22.1973L211.85 58.1177L216.043 41.869L244.294 28.2147L214.14 37.7474L200.081 22.1973H261.688Z" fill="#FF1300"/>
<path d="M221.367 19.1348L230.892 0.000244141L240.401 19.1348H221.367Z" fill="white"/>
<path d="M246.29 37.095L249.927 58.1176L230.892 48.1934L246.29 37.095Z" fill="white"/>
</g>
<defs>
<clipPath id="clip0_3675_2760">
<rect width="269" height="59" fill="white" transform="translate(0 0.000244141)"/>
</clipPath>
</defs>
</svg>
