<svg width="60" height="60" viewBox="0 0 60 60" fill="none" xmlns="http://www.w3.org/2000/svg">
<rect width="60" height="60" rx="10" fill="#FFE1DC"/>
<path d="M31.0724 51.1448C42.1581 51.1448 51.1448 42.1581 51.1448 31.0724C51.1448 19.9867 42.1581 11 31.0724 11C19.9867 11 11 19.9867 11 31.0724C11 42.1581 19.9867 51.1448 31.0724 51.1448Z" stroke="#380000" stroke-width="1.5" stroke-linecap="round" stroke-linejoin="round"/>
<path d="M28.3521 41.5349C23.5478 40.1688 20.0293 35.7434 20.0293 30.5028C20.0293 24.166 25.1665 19.0288 31.5033 19.0288" stroke="#FF2000" stroke-width="1.5" stroke-linecap="round" stroke-linejoin="round"/>
<path d="M34.4656 19.4136C39.3674 20.7223 42.9721 25.1879 42.9721 30.4973C42.9721 36.8341 37.8349 41.9713 31.498 41.9713" stroke="#FF2000" stroke-width="1.5" stroke-linecap="round" stroke-linejoin="round"/>
<path d="M29.5234 16.9224L32.2384 18.8337L30.3328 21.5487" stroke="#FF2000" stroke-width="1.5" stroke-linecap="round" stroke-linejoin="round"/>
<path d="M32.9272 39.5205L30.6484 41.9313L33.0649 44.21" stroke="#FF2000" stroke-width="1.5" stroke-linecap="round" stroke-linejoin="round"/>
<path d="M25.9805 30.3366L28.529 34.0618L37.6095 28.2129" stroke="#FF3E00" stroke-width="1.5" stroke-linecap="round" stroke-linejoin="round"/>
</svg>
