<?xml version="1.0" encoding="UTF-8"?>
<svg id="Layer_1" xmlns="http://www.w3.org/2000/svg" viewBox="0 0 108 108">
  <defs>
    <style>
      .cls-1 {
        fill: #ab2539;
        opacity: .25;
      }

      .cls-2, .cls-3 {
        stroke-miterlimit: 10;
      }

      .cls-2, .cls-3, .cls-4 {
        fill: none;
        stroke-width: 1.5px;
      }

      .cls-2, .cls-4 {
        stroke: #fff;
      }

      .cls-3 {
        stroke: #ff1600;
      }

      .cls-4 {
        stroke-dasharray: 3 3;
        stroke-linecap: round;
        stroke-linejoin: round;
      }
    </style>
  </defs>
  <circle class="cls-1" cx="54" cy="53.99" r="48.56"/>
  <g>
    <g>
      <path class="cls-2" d="M31.05,69.57c.7,0,7.02-5.62,7.02-5.62h24.58s3.86,0,3.86,3.86-3.86,3.86-3.86,3.86h-11.23"/>
      <path class="cls-2" d="M67.56,68.16l11.94-11.23s2.46-1.76,4.92.7c2.46,2.46,0,5.62,0,5.62l-14.75,15.45s-3.51,4.21-11.23,4.21h-18.96l-5.79,5.24"/>
    </g>
    <g>
      <circle class="cls-3" cx="54.29" cy="53.47" r="8.34"/>
      <path class="cls-3" d="M64.95,62.44l3.02,1c.63.15,1.3-.09,1.57-.66l1.61-3.43c.27-.57.03-1.24-.49-1.63l-2.7-1.69c.19-1.3.28-2.66.24-4.07l2.79-1.48c.56-.3.88-.98.64-1.65l-1.1-3.59c-.24-.67-.81-.94-1.43-.81l-3.15.75-2.45-2.9.98-3.02c.15-.63-.09-1.3-.67-1.56l-3.44-1.59c-.57-.27-1.24-.02-1.62.5l-1.67,2.71c-1.6-.46-2.95-.53-4.25-.44l-1.5-2.78c-.18-.22-.35-.44-.58-.55-.34-.16-.74-.2-.96-.03l-3.12,1.15c-.57.21-.9.78-.81,1.38.12.73.26,1.84.37,3.35l-2.97,2.8-2.59-.85c-1.03-.34-2.15.19-2.53,1.21l-1.06,2.76c-.27.57-.02,1.24.5,1.62l2.71,1.67c-.19,1.31-.26,2.66-.22,4.08l-2.78,1.5c-.56.3-.88.99-.63,1.66l1.12,3.58c.25.67.82.94,1.44.81l3.14-.77"/>
    </g>
    <path class="cls-4" d="M29.34,70.64c-3.26-4.78-5.16-10.56-5.16-16.79,0-16.49,13.37-29.86,29.86-29.86s29.86,13.37,29.86,29.86"/>
  </g>
</svg>