<?xml version="1.0" encoding="UTF-8"?>
<svg id="Layer_1" xmlns="http://www.w3.org/2000/svg" viewBox="0 0 108 108">
  <defs>
    <style>
      .cls-1, .cls-2 {
        stroke: #fff;
      }

      .cls-1, .cls-2, .cls-3 {
        fill: none;
        stroke-miterlimit: 10;
      }

      .cls-4 {
        fill: #ab2539;
        opacity: .25;
      }

      .cls-2, .cls-3 {
        stroke-width: 1.5px;
      }

      .cls-3 {
        stroke: #ff1600;
      }
    </style>
  </defs>
  <circle class="cls-4" cx="54" cy="53.42" r="48.56"/>
  <g>
    <line class="cls-2" x1="41.17" y1="52.62" x2="31.68" y2="46.87"/>
    <line class="cls-2" x1="53.88" y1="45.05" x2="53.88" y2="34.19"/>
    <line class="cls-1" x1="66.84" y1="52.42" x2="76.17" y2="46.96"/>
    <line class="cls-2" x1="62.46" y1="31.37" x2="74.9" y2="38"/>
    <line class="cls-2" x1="32.71" y1="38" x2="45.45" y2="31.42"/>
    <line class="cls-2" x1="27.65" y1="52.83" x2="27.65" y2="67.07"/>
    <line class="cls-2" x1="80.26" y1="52.83" x2="80.26" y2="67.07"/>
    <g>
      <g>
        <circle class="cls-3" cx="53.96" cy="29.61" r="4.59"/>
        <circle class="cls-3" cx="80.28" cy="44.68" r="4.59"/>
        <circle class="cls-3" cx="27.56" cy="44.68" r="4.59"/>
      </g>
      <path class="cls-2" d="M64.57,74.39c5.59,1.65,9.44,6.14,9.73,11.01v.37c0,1.56-1.26,2.82-2.82,2.82h-34.25c-1.56,0-2.82-1.26-2.82-2.82v-.37c.33-5.55,5.29-10.61,12.19-11.53l.4-.06c1.71-.26,3.39.19,5.09.52,1.05.2.96.23,2.1.23M54.18,74.55c5.98,0,8.97-6.44,8.97-13.11,0-4.83-.69-7.59-2.76-9.43-1.84-1.61-3.36-2.11-6.44-2.07-4.14.06-9.2,1.84-9.2,9.89,0,3.93,1.28,7.31,2.72,9.83"/>
    </g>
  </g>
</svg>