<?xml version="1.0" encoding="UTF-8"?>
<svg xmlns="http://www.w3.org/2000/svg" version="1.1" viewBox="0 0 582.9 557">
  <defs>
    <style>
      .cls-1 {
        fill: #ff1600;
      }

      .cls-2 {
        fill: #460000;
      }

      .cls-3 {
        opacity: .7;
      }

      .cls-3, .cls-4, .cls-5, .cls-6, .cls-7, .cls-8 {
        fill: #fa4100;
      }

      .cls-3, .cls-4, .cls-5, .cls-6, .cls-7, .cls-8, .cls-9 {
        isolation: isolate;
      }

      .cls-4 {
        opacity: .8;
      }

      .cls-5 {
        opacity: .6;
      }

      .cls-6 {
        opacity: .5;
      }

      .cls-7 {
        opacity: .4;
      }

      .cls-8 {
        opacity: .3;
      }

      .cls-10 {
        opacity: .2;
      }

      .cls-11 {
        fill: #a40000;
      }
    </style>
  </defs>
  <!-- Generator: Adobe Illustrator 28.6.0, SVG Export Plug-In . SVG Version: 1.2.0 Build 709)  -->
  <g>
    <g id="Layer_1">
      <g class="cls-10">
        <path class="cls-8" d="M398.6,353.8c-21.8,33.3-58.7,56-100.9,58.2v120.4c86.8-2.4,162.5-49.2,205.2-118.5l-104.3-60.2h0Z"/>
        <path class="cls-3" d="M71.1,164.7c-19.1,35.2-29.9,75.6-29.9,118.5s10.8,83.2,29.9,118.5l104.3-60.2c-8.9-17.5-13.9-37.3-13.9-58.3s5-40.8,13.9-58.3l-104.3-60.2h0Z"/>
        <path class="cls-4" d="M283.5,412.1c-42.2-2.3-79.1-24.9-100.9-58.2l-104.3,60.2c42.8,69.2,118.4,116,205.2,118.4v-120.4Z"/>
        <path class="cls-7" d="M405.8,224.9c8.9,17.5,13.9,37.3,13.9,58.3s-5,40.8-13.9,58.3l104.3,60.2c19.1-35.2,29.9-75.6,29.9-118.5s-10.8-83.2-29.9-118.5l-104.3,60.2h0Z"/>
        <path class="cls-5" d="M182.6,212.6c21.8-33.3,58.7-55.9,100.9-58.2V33.9c-86.8,2.4-162.4,49.2-205.2,118.5l104.3,60.2h0Z"/>
        <path class="cls-6" d="M297.8,154.4c42.2,2.3,79.1,24.9,100.9,58.2l104.3-60.2c-42.8-69.2-118.4-116-205.2-118.4v120.4Z"/>
      </g>
      <g class="cls-9">
        <g class="cls-9">
          <path class="cls-2" d="M74.9,257c1.1,0,2.1.1,3,.4.9.3,1.7.7,2.3,1.3.6.6,1.1,1.3,1.5,2.1.4.8.5,1.8.5,3s-.2,2.4-.6,3.3c-.4.9-1,1.7-1.7,2.3-.7.6-1.6,1.1-2.5,1.3s-2,.4-3.1.4h-4.3v-14.2h5ZM73.1,268.8h1.1c.6,0,1.2,0,1.8-.2.6-.2,1.1-.4,1.6-.8s.8-.9,1.1-1.5.4-1.4.4-2.4c0-1.4-.4-2.5-1.2-3.3-.8-.8-1.9-1.1-3.3-1.1h-1.5v9.4Z"/>
          <path class="cls-2" d="M86.3,258.1c-.5,0-.9-.1-1.2-.4-.3-.3-.4-.7-.4-1.1s.1-.8.4-1.1c.3-.3.7-.4,1.2-.4s.9.1,1.2.4.4.7.4,1.1-.1.8-.4,1.1c-.3.3-.7.4-1.2.4ZM84.8,271.2v-10.7h3v10.7h-3Z"/>
          <path class="cls-2" d="M90.6,264.1c0-.6.1-1.1.3-1.6s.6-.9,1-1.2.9-.6,1.5-.8c.6-.2,1.2-.3,1.9-.3s.5,0,.8,0c.3,0,.6,0,.8.2h4.6v1.9h-1l-1.4-.2c.2.2.4.5.5.9.1.4.2.7.2,1.1,0,1.1-.4,2.1-1.2,2.8-.8.7-1.9,1-3.4,1s-.7,0-1,0c-.4.2-.6.4-.6.7s0,.4.2.5c.2.1.5.2.9.2h2.4c1.2,0,2.1.3,2.9.8s1.1,1.3,1.1,2.5-.1,1.1-.4,1.6c-.3.5-.7.9-1.2,1.3-.5.4-1.1.6-1.8.8-.7.2-1.5.3-2.4.3-1.6,0-2.9-.3-3.9-.9-1-.6-1.4-1.4-1.4-2.5s.2-.9.5-1.3c.3-.4.8-.7,1.4-.9-.2-.2-.4-.4-.6-.6-.2-.3-.3-.6-.3-1s.2-.9.5-1.3.7-.6,1.1-.9c-.2-.1-.4-.3-.7-.5-.2-.2-.4-.4-.6-.7-.2-.3-.3-.5-.4-.9-.1-.3-.2-.7-.2-1.1ZM93.5,271.6c-.2.1-.4.3-.6.5-.2.2-.2.4-.2.7,0,.4.2.8.6,1.1.4.3,1.1.4,2.1.4s1.7-.2,2.1-.5.7-.7.7-1.1-.1-.7-.4-.9c-.3-.2-.7-.2-1.3-.2h-2.9ZM96.9,264.1c0-.6-.2-1-.5-1.3-.3-.3-.7-.5-1.2-.5s-.9.2-1.2.5c-.3.3-.5.7-.5,1.3s.2,1.1.5,1.4.7.5,1.2.5.9-.1,1.2-.5.5-.7.5-1.3Z"/>
          <path class="cls-2" d="M105.3,258.1c-.5,0-.9-.1-1.2-.4-.3-.3-.4-.7-.4-1.1s.1-.8.4-1.1c.3-.3.7-.4,1.2-.4s.9.1,1.2.4.4.7.4,1.1-.1.8-.4,1.1c-.3.3-.7.4-1.2.4ZM103.7,271.2v-10.7h3v10.7h-3Z"/>
          <path class="cls-2" d="M116.1,262.6h-2.9v5c0,.5.1.9.3,1,.2.2.5.3.9.3s.6,0,.9,0c.3,0,.6-.1.8-.2l.5,2.1c-.3.1-.6.2-1.1.4-.5.1-1.1.2-1.6.2-1.3,0-2.2-.3-2.8-.8s-.8-1.3-.8-2.3v-5.5h-1.7v-2.2h1.7v-3.3h3v3.3h2.9v2.2Z"/>
        </g>
        <g class="cls-9">
          <path class="cls-2" d="M118.5,261.4c.6-.4,1.3-.7,2-.9.7-.2,1.5-.3,2.3-.3s1.2,0,1.8.2c.5.2,1,.4,1.4.7.4.3.7.7.9,1.2s.3,1.1.3,1.8v7h-2.3l-.3-1.1h0c-.3.4-.8.8-1.3,1-.5.2-1.2.4-1.9.4s-1.1,0-1.6-.3c-.5-.2-.8-.4-1.1-.7s-.6-.6-.7-1c-.2-.4-.2-.8-.2-1.3s.1-1.1.4-1.6c.3-.4.6-.8,1.1-1.1.5-.3,1-.5,1.6-.6.6-.1,1.3-.2,2-.2h1.4v-.7c0-.5-.2-.9-.5-1.1-.3-.2-.7-.3-1.3-.3s-.9,0-1.3.2c-.5.1-1,.4-1.5.7l-1-2ZM124.2,266.5h-1c-.9,0-1.6.2-1.9.5-.4.3-.5.6-.5,1s.2.9.5,1c.3.2.7.3,1,.3s.8-.1,1.1-.3.6-.5.8-.8v-1.7Z"/>
        </g>
        <g class="cls-9">
          <path class="cls-2" d="M130,271.2v-16.1h3v16.1h-3Z"/>
        </g>
        <g class="cls-9">
          <path class="cls-2" d="M53.4,284h3.9l2,6.5c0,.3.2.6.3.9s.2.7.3,1c0,.3.2.7.2,1,0,.3.1.6.2.9h0c0-.2.1-.5.2-.8,0-.3.2-.7.2-1,0-.3.2-.7.3-1,0-.3.2-.6.2-.9l2-6.5h3.9l1.1,14.2h-2.9c0-1.6-.2-3.1-.3-4.7,0-1.6-.2-3.1-.2-4.7v-1.8h0c-.2.8-.4,1.7-.6,2.6s-.5,1.7-.7,2.4l-2,6.3h-2.4l-2.1-6.3c-.3-.8-.5-1.7-.7-2.6s-.4-1.7-.5-2.4h0c0,.5,0,1.1,0,1.7,0,.6,0,1.2,0,1.8,0,.6,0,1.2,0,1.7,0,.6,0,1.1,0,1.5l-.3,4.5h-2.9l1-14.2Z"/>
          <path class="cls-2" d="M71.2,288.4c.6-.4,1.3-.7,2-.9.7-.2,1.5-.3,2.3-.3s1.2,0,1.8.2c.5.2,1,.4,1.4.7.4.3.7.7.9,1.2s.3,1.1.3,1.8v7h-2.3l-.3-1.1h0c-.3.4-.8.8-1.3,1-.5.2-1.2.4-1.9.4s-1.1,0-1.6-.3c-.5-.2-.8-.4-1.1-.7s-.6-.6-.7-1c-.2-.4-.2-.8-.2-1.3s.1-1.1.4-1.6c.3-.4.6-.8,1.1-1.1.5-.3,1-.5,1.6-.6.6-.1,1.3-.2,2-.2h1.4v-.7c0-.5-.2-.9-.5-1.1-.3-.2-.7-.3-1.3-.3s-.9,0-1.3.2c-.5.1-1,.4-1.5.7l-1-2ZM76.9,293.5h-1c-.9,0-1.6.2-1.9.5-.4.3-.5.6-.5,1s.2.9.5,1c.3.2.7.3,1,.3s.8-.1,1.1-.3.6-.5.8-.8v-1.7Z"/>
          <path class="cls-2" d="M82.4,298.2v-10.7h2.3l.3,1.9c.3-.6.7-1.1,1.2-1.5.6-.4,1.3-.7,2.1-.7s.7,0,.9.1c.3,0,.5.2.7.3l-.5,2.4c-.2,0-.4-.2-.6-.2s-.6-.1-.9-.1c-.7,0-1.3.2-1.8.7-.5.5-.7,1.3-.7,2.4v5.4h-3Z"/>
        </g>
        <g class="cls-9">
          <path class="cls-2" d="M94.3,294.6v3.6h-3v-16.1h3v9.6l3.6-4.2h3.6l-4.1,4.5,4.3,6.2h-3.5l-3-4.5-.9.9Z"/>
        </g>
        <g class="cls-9">
          <path class="cls-2" d="M112.3,293.6h-7.1c0,.9.3,1.6.9,2s1.4.6,2.3.6,1.1,0,1.6-.2c.5-.1.9-.3,1.3-.4l.5,2.1c-.4.2-.9.4-1.5.5-.6.1-1.3.2-2.2.2s-1.6-.1-2.3-.3c-.7-.2-1.3-.6-1.9-1-.5-.5-1-1-1.3-1.7-.3-.7-.5-1.5-.5-2.5s.1-1.6.4-2.3c.3-.7.6-1.3,1.1-1.8.5-.5,1-.9,1.7-1.2.7-.3,1.4-.4,2.2-.4,1.5,0,2.6.4,3.5,1.3.9.9,1.3,2.1,1.3,3.7v1.3ZM109.2,291.6c0-.3,0-.6-.1-.8,0-.3-.2-.5-.3-.7-.2-.2-.3-.4-.6-.5-.2-.1-.5-.2-.8-.2-.6,0-1.1.2-1.5.6-.4.4-.6,1-.7,1.6h4Z"/>
          <path class="cls-2" d="M120.8,289.6h-2.9v5c0,.5.1.9.3,1,.2.2.5.3.9.3s.6,0,.9,0c.3,0,.6-.1.8-.2l.5,2.1c-.3.1-.6.2-1.1.4-.5.1-1.1.2-1.6.2-1.3,0-2.2-.3-2.8-.8s-.8-1.3-.8-2.3v-5.5h-1.7v-2.2h1.7v-3.3h3v3.3h2.9v2.2Z"/>
          <path class="cls-2" d="M132.6,293.6h-7.1c0,.9.3,1.6.9,2s1.4.6,2.3.6,1.1,0,1.6-.2c.5-.1.9-.3,1.3-.4l.5,2.1c-.4.2-.9.4-1.5.5-.6.1-1.3.2-2.2.2s-1.6-.1-2.3-.3c-.7-.2-1.3-.6-1.9-1-.5-.5-1-1-1.3-1.7-.3-.7-.5-1.5-.5-2.5s.1-1.6.4-2.3c.3-.7.6-1.3,1.1-1.8.5-.5,1-.9,1.7-1.2.7-.3,1.4-.4,2.2-.4,1.5,0,2.6.4,3.5,1.3.9.9,1.3,2.1,1.3,3.7v1.3ZM129.5,291.6c0-.3,0-.6-.1-.8,0-.3-.2-.5-.3-.7-.2-.2-.3-.4-.6-.5-.2-.1-.5-.2-.8-.2-.6,0-1.1.2-1.5.6-.4.4-.6,1-.7,1.6h4Z"/>
          <path class="cls-2" d="M134.7,298.2v-10.7h2.3l.3,1.9c.3-.6.7-1.1,1.2-1.5.6-.4,1.3-.7,2.1-.7s.7,0,.9.1c.3,0,.5.2.7.3l-.5,2.4c-.2,0-.4-.2-.6-.2s-.6-.1-.9-.1c-.7,0-1.3.2-1.8.7-.5.5-.7,1.3-.7,2.4v5.4h-3Z"/>
          <path class="cls-2" d="M150,290.1c-.9-.4-1.7-.6-2.6-.6s-.9,0-1.1.2c-.3.2-.4.4-.4.7s.1.5.3.7c.2.2.7.4,1.4.6l.7.2c.9.3,1.6.7,2.1,1.2.5.5.7,1.2.7,2s-.4,1.9-1.2,2.5c-.8.6-1.9.9-3.3.9s-2.7-.3-3.7-.8l.7-2.2c.4.2.9.4,1.4.6.5.1,1,.2,1.5.2s1,0,1.3-.3c.3-.2.4-.4.4-.7s-.1-.6-.4-.7c-.3-.2-.8-.4-1.5-.6l-.7-.2c-.9-.3-1.6-.7-2-1.2-.4-.5-.6-1.2-.6-2s.4-1.8,1.1-2.4c.7-.6,1.8-.9,3.1-.9s2.5.2,3.5.7l-.6,2.1Z"/>
        </g>
      </g>
      <g class="cls-9">
        <g class="cls-9">
          <path class="cls-2" d="M453.5,257c1.1,0,2.1.1,3,.4s1.7.7,2.3,1.3,1.1,1.3,1.5,2.1c.4.8.5,1.8.5,3s-.2,2.4-.6,3.3c-.4.9-1,1.7-1.7,2.3-.7.6-1.6,1.1-2.5,1.3s-2,.4-3.1.4h-4.3v-14.2h5ZM451.6,268.8h1.1c.6,0,1.2,0,1.8-.2.6-.2,1.1-.4,1.6-.8.5-.4.8-.9,1.1-1.5s.4-1.4.4-2.4c0-1.4-.4-2.5-1.2-3.3-.8-.8-1.9-1.1-3.3-1.1h-1.5v9.4Z"/>
          <path class="cls-2" d="M464.8,258.1c-.5,0-.9-.1-1.2-.4s-.4-.7-.4-1.1.1-.8.4-1.1.7-.4,1.2-.4.9.1,1.2.4.4.7.4,1.1-.1.8-.4,1.1c-.3.3-.7.4-1.2.4ZM463.3,271.2v-10.7h3v10.7h-3Z"/>
          <path class="cls-2" d="M469.2,264.1c0-.6.1-1.1.3-1.6.2-.5.6-.9,1-1.2s.9-.6,1.5-.8c.6-.2,1.2-.3,1.9-.3s.5,0,.8,0c.3,0,.6,0,.8.2h4.6v1.9h-1l-1.4-.2c.2.2.4.5.5.9.1.4.2.7.2,1.1,0,1.1-.4,2.1-1.2,2.8-.8.7-1.9,1-3.4,1s-.7,0-1,0c-.4.2-.6.4-.6.7s0,.4.2.5c.2.1.5.2.9.2h2.4c1.2,0,2.1.3,2.8.8.7.5,1.1,1.3,1.1,2.5s-.1,1.1-.4,1.6c-.3.5-.7.9-1.2,1.3-.5.4-1.1.6-1.8.8-.7.2-1.5.3-2.4.3-1.6,0-2.9-.3-3.9-.9-1-.6-1.4-1.4-1.4-2.5s.2-.9.5-1.3c.3-.4.8-.7,1.4-.9-.2-.2-.4-.4-.6-.6-.2-.3-.3-.6-.3-1s.2-.9.5-1.3c.3-.4.7-.6,1.1-.9-.2-.1-.4-.3-.7-.5-.2-.2-.4-.4-.6-.7-.2-.3-.3-.5-.4-.9-.1-.3-.2-.7-.2-1.1ZM472,271.6c-.2.1-.4.3-.6.5-.2.2-.2.4-.2.7,0,.4.2.8.6,1.1.4.3,1.1.4,2.1.4s1.7-.2,2.1-.5c.5-.3.7-.7.7-1.1s-.1-.7-.4-.9c-.3-.2-.7-.2-1.3-.2h-2.9ZM475.4,264.1c0-.6-.2-1-.5-1.3-.3-.3-.7-.5-1.2-.5s-.9.2-1.2.5c-.3.3-.5.7-.5,1.3s.2,1.1.5,1.4.7.5,1.2.5.9-.1,1.2-.5.5-.7.5-1.3Z"/>
          <path class="cls-2" d="M483.8,258.1c-.5,0-.9-.1-1.2-.4s-.4-.7-.4-1.1.1-.8.4-1.1.7-.4,1.2-.4.9.1,1.2.4.4.7.4,1.1-.1.8-.4,1.1c-.3.3-.7.4-1.2.4ZM482.3,271.2v-10.7h3v10.7h-3Z"/>
          <path class="cls-2" d="M494.7,262.6h-2.9v5c0,.5.1.9.3,1,.2.2.5.3.9.3s.6,0,.9,0c.3,0,.6-.1.8-.2l.5,2.1c-.3.1-.6.2-1.1.4-.5.1-1.1.2-1.6.2-1.3,0-2.2-.3-2.8-.8s-.8-1.3-.8-2.3v-5.5h-1.7v-2.2h1.7v-3.3h3v3.3h2.9v2.2Z"/>
        </g>
        <g class="cls-9">
          <path class="cls-2" d="M497.1,261.4c.6-.4,1.3-.7,2-.9.7-.2,1.5-.3,2.3-.3s1.2,0,1.8.2c.5.2,1,.4,1.4.7s.7.7.9,1.2c.2.5.3,1.1.3,1.8v7h-2.3l-.3-1.1h0c-.3.4-.8.8-1.3,1-.5.2-1.2.4-1.9.4s-1.1,0-1.6-.3c-.5-.2-.8-.4-1.1-.7s-.6-.6-.7-1c-.2-.4-.2-.8-.2-1.3s.1-1.1.4-1.6.6-.8,1.1-1.1,1-.5,1.6-.6c.6-.1,1.3-.2,2-.2h1.4v-.7c0-.5-.2-.9-.5-1.1-.3-.2-.7-.3-1.3-.3s-.9,0-1.3.2c-.5.1-1,.4-1.5.7l-1-2ZM502.7,266.5h-1c-.9,0-1.6.2-1.9.5-.4.3-.5.6-.5,1s.2.9.5,1,.7.3,1,.3.8-.1,1.1-.3c.4-.2.6-.5.8-.8v-1.7Z"/>
        </g>
        <g class="cls-9">
          <path class="cls-2" d="M508.6,271.2v-16.1h3v16.1h-3Z"/>
        </g>
        <g class="cls-9">
          <path class="cls-2" d="M442.6,284h5c.8,0,1.6,0,2.2.3.7.2,1.2.5,1.7.9.5.4.8.8,1.1,1.4.3.5.4,1.1.4,1.8s-.2,1.5-.5,2.1c-.3.6-.7,1.1-1.2,1.5-.5.4-1.1.7-1.8.9-.7.2-1.4.3-2.2.3h-1.6v5.2h-3.1v-14.2ZM445.7,290.7h1.3c.4,0,.8,0,1.1-.1.4,0,.7-.2.9-.4.3-.2.5-.4.6-.7.1-.3.2-.6.2-1,0-.7-.2-1.3-.7-1.6-.5-.3-1.1-.5-1.9-.5h-1.5v4.3Z"/>
        </g>
        <g class="cls-9">
          <path class="cls-2" d="M455,298.2v-10.7h2.3l.3,1.9c.3-.6.7-1.1,1.2-1.5s1.3-.7,2.1-.7.7,0,.9.1c.3,0,.5.2.7.3l-.5,2.4c-.2,0-.4-.2-.6-.2-.3,0-.6-.1-.9-.1-.7,0-1.3.2-1.8.7s-.7,1.3-.7,2.4v5.4h-3Z"/>
        </g>
        <g class="cls-9">
          <path class="cls-2" d="M473.7,292.8c0,.9-.1,1.7-.4,2.4-.3.7-.7,1.3-1.2,1.8-.5.5-1.1.9-1.8,1.1s-1.4.4-2.2.4-1.5-.1-2.2-.4c-.7-.2-1.2-.6-1.7-1.1-.5-.5-.9-1-1.1-1.7-.3-.7-.4-1.5-.4-2.3s.1-1.7.4-2.4c.3-.7.7-1.3,1.2-1.8s1.1-.9,1.8-1.1c.7-.3,1.4-.4,2.2-.4s1.5.1,2.2.4c.7.2,1.2.6,1.7,1,.5.5.9,1,1.1,1.7.3.7.4,1.5.4,2.4ZM470.6,292.9c0-.6,0-1.1-.2-1.6-.1-.4-.3-.8-.5-1.1-.2-.3-.5-.5-.8-.6-.3-.1-.6-.2-.9-.2s-.6,0-.9.2c-.3.1-.5.3-.8.6-.2.3-.4.6-.5,1s-.2,1-.2,1.6,0,1.1.2,1.5c.1.4.3.8.6,1s.5.5.8.6c.3.1.6.2.9.2s.6,0,.9-.2c.3-.1.5-.3.8-.6.2-.3.4-.6.5-1,.1-.4.2-1,.2-1.6Z"/>
          <path class="cls-2" d="M482.8,282.1h3v16.1h-2.1l-.3-1.2h-.1c-.3.4-.7.7-1.2,1-.5.3-1.2.4-2,.4s-1.3-.1-1.9-.4c-.6-.3-1.1-.6-1.5-1.1-.4-.5-.8-1.1-1-1.8-.2-.7-.4-1.5-.4-2.4s.1-1.6.3-2.3c.2-.7.5-1.3,1-1.8s.9-.9,1.6-1.1c.6-.3,1.3-.4,2.1-.4s1,0,1.5.2c.5.2.8.3,1.1.6v-5.9ZM482.8,290.3c-.2-.2-.5-.4-.8-.6-.3-.2-.7-.2-1-.2s-.7,0-1,.2-.6.3-.9.6c-.2.3-.4.6-.6,1-.2.4-.2.9-.2,1.6s0,1.1.2,1.6c.1.4.3.8.5,1.1.2.3.5.5.8.6.3.1.6.2,1,.2s.9-.1,1.2-.3c.3-.2.6-.5.8-.8v-4.8Z"/>
          <path class="cls-2" d="M495.4,287.5h3v10.7h-2.2l-.3-1.2h0c-.2.2-.4.3-.6.5-.2.2-.5.3-.8.5s-.6.3-1,.3c-.4,0-.8.1-1.2.1-1.2,0-2.1-.3-2.7-1s-1-1.6-1-2.9v-7.2h3v6.9c0,.6.2,1.1.5,1.4.3.3.7.4,1.2.4s1-.1,1.4-.3c.4-.2.7-.5.9-.8v-7.6Z"/>
        </g>
        <g class="cls-9">
          <path class="cls-2" d="M506.8,296.3c.5,0,.9,0,1.3-.2.4-.1.7-.3.9-.4l.6,2.1c-.3.2-.7.3-1.3.5-.6.2-1.2.2-1.9.2s-1.6-.1-2.3-.4c-.7-.2-1.3-.6-1.8-1.1-.5-.5-.9-1.1-1.2-1.7s-.5-1.5-.5-2.4.1-1.6.4-2.3c.3-.7.7-1.3,1.2-1.8.5-.5,1.1-.9,1.8-1.1.7-.3,1.5-.4,2.4-.4s1,0,1.5.1,1.1.3,1.6.6l-.6,2.1c-.3-.2-.7-.3-1-.4-.4-.1-.7-.2-1.1-.2-.9,0-1.7.3-2.3.9-.6.6-.9,1.4-.9,2.5s0,1.2.3,1.6c.2.4.4.8.7,1.1.3.3.6.5,1,.6.4.1.8.2,1.1.2Z"/>
        </g>
        <g class="cls-9">
          <path class="cls-2" d="M518.1,289.6h-2.9v5c0,.5.1.9.3,1,.2.2.5.3.9.3s.6,0,.9,0c.3,0,.6-.1.8-.2l.5,2.1c-.3.1-.6.2-1.1.4-.5.1-1.1.2-1.6.2-1.3,0-2.2-.3-2.8-.8s-.8-1.3-.8-2.3v-5.5h-1.7v-2.2h1.7v-3.3h3v3.3h2.9v2.2Z"/>
        </g>
        <g class="cls-9">
          <path class="cls-2" d="M437.6,311.1h5.4c.8,0,1.5.1,2.1.3s1.1.5,1.5.9c.4.4.7.9.9,1.4.2.5.3,1.1.3,1.7s0,1.1-.3,1.5c-.2.4-.4.8-.7,1.1s-.6.6-.9.8c-.3.2-.6.4-.9.5l3.5,5.8h-3.5l-2.7-5.2h-1.6v5.2h-3.1v-14.2ZM440.6,317.7h1.2c.8,0,1.5-.2,2-.5.5-.3.8-.9.8-1.6s-.2-1.2-.6-1.6c-.4-.4-1-.6-1.8-.6h-1.6v4.3Z"/>
          <path class="cls-2" d="M459.8,320.7h-7.1c0,.9.3,1.6.9,2,.6.4,1.4.6,2.3.6s1.1,0,1.6-.2c.5-.1.9-.3,1.3-.4l.5,2.1c-.4.2-.9.4-1.5.5-.6.1-1.3.2-2.2.2s-1.6-.1-2.3-.3c-.7-.2-1.3-.6-1.9-1-.5-.5-1-1-1.3-1.7s-.5-1.5-.5-2.5.1-1.6.4-2.3c.3-.7.6-1.3,1.1-1.8.5-.5,1-.9,1.7-1.2s1.4-.4,2.2-.4c1.5,0,2.6.4,3.5,1.3.9.9,1.3,2.1,1.3,3.7v1.3ZM456.7,318.6c0-.3,0-.6-.1-.8,0-.3-.2-.5-.3-.7s-.3-.4-.6-.5c-.2-.1-.5-.2-.8-.2-.6,0-1.1.2-1.5.6-.4.4-.6,1-.7,1.6h4Z"/>
        </g>
        <g class="cls-9">
          <path class="cls-2" d="M468.4,317.1c-.9-.4-1.7-.6-2.6-.6s-.9,0-1.1.2-.4.4-.4.7.1.5.3.7c.2.2.7.4,1.4.6l.7.2c.9.3,1.6.7,2.1,1.2.5.5.7,1.2.7,2s-.4,1.9-1.2,2.5c-.8.6-1.9.9-3.3.9s-2.7-.3-3.7-.8l.7-2.2c.4.2.9.4,1.4.6.5.1,1,.2,1.5.2s1,0,1.3-.3c.3-.2.4-.4.4-.7s-.1-.6-.4-.7c-.3-.2-.8-.4-1.5-.6l-.7-.2c-.9-.3-1.6-.7-2-1.2-.4-.5-.6-1.2-.6-2s.4-1.8,1.1-2.4c.7-.6,1.8-.9,3.1-.9s2.5.2,3.5.7l-.6,2.1Z"/>
        </g>
        <g class="cls-9">
          <path class="cls-2" d="M481.2,320.7h-7.1c0,.9.3,1.6.9,2,.6.4,1.4.6,2.3.6s1.1,0,1.6-.2c.5-.1.9-.3,1.2-.4l.5,2.1c-.4.2-.9.4-1.5.5s-1.3.2-2.2.2-1.6-.1-2.3-.3c-.7-.2-1.3-.6-1.9-1-.5-.5-1-1-1.3-1.7s-.5-1.5-.5-2.5.1-1.6.4-2.3c.3-.7.6-1.3,1.1-1.8.5-.5,1-.9,1.7-1.2.7-.3,1.4-.4,2.2-.4,1.5,0,2.6.4,3.5,1.3.9.9,1.3,2.1,1.3,3.7v1.3ZM478.1,318.6c0-.3,0-.6-.1-.8,0-.3-.2-.5-.3-.7-.2-.2-.3-.4-.6-.5-.2-.1-.5-.2-.8-.2-.6,0-1.1.2-1.5.6-.4.4-.6,1-.7,1.6h4Z"/>
          <path class="cls-2" d="M483.4,325.3v-16.1h3v16.1h-3Z"/>
          <path class="cls-2" d="M489.2,325.3v-16.1h3v16.1h-3Z"/>
          <path class="cls-2" d="M504.6,320.7h-7.1c0,.9.3,1.6.9,2,.6.4,1.4.6,2.3.6s1.1,0,1.6-.2c.5-.1.9-.3,1.3-.4l.5,2.1c-.4.2-.9.4-1.5.5-.6.1-1.3.2-2.2.2s-1.6-.1-2.3-.3c-.7-.2-1.3-.6-1.9-1-.5-.5-1-1-1.3-1.7s-.5-1.5-.5-2.5.1-1.6.4-2.3c.3-.7.6-1.3,1.1-1.8.5-.5,1-.9,1.7-1.2s1.4-.4,2.2-.4c1.5,0,2.6.4,3.5,1.3.9.9,1.3,2.1,1.3,3.7v1.3ZM501.5,318.6c0-.3,0-.6-.1-.8,0-.3-.2-.5-.3-.7s-.3-.4-.6-.5c-.2-.1-.5-.2-.8-.2-.6,0-1.1.2-1.5.6-.4.4-.6,1-.7,1.6h4Z"/>
          <path class="cls-2" d="M506.7,325.3v-10.7h2.3l.3,1.9c.3-.6.7-1.1,1.2-1.5s1.3-.7,2.1-.7.7,0,.9.1c.3,0,.5.2.7.3l-.5,2.4c-.2,0-.4-.2-.6-.2-.3,0-.6-.1-.9-.1-.7,0-1.3.2-1.8.7s-.7,1.3-.7,2.4v5.4h-3Z"/>
          <path class="cls-2" d="M522,317.1c-.9-.4-1.7-.6-2.6-.6s-.9,0-1.1.2-.4.4-.4.7.1.5.3.7c.2.2.7.4,1.4.6l.7.2c.9.3,1.6.7,2.1,1.2.5.5.7,1.2.7,2s-.4,1.9-1.2,2.5-1.9.9-3.3.9-2.7-.3-3.7-.8l.7-2.2c.4.2.9.4,1.4.6s1,.2,1.5.2,1,0,1.3-.3c.3-.2.4-.4.4-.7s-.1-.6-.4-.7c-.3-.2-.8-.4-1.5-.6l-.7-.2c-.9-.3-1.6-.7-2-1.2-.4-.5-.6-1.2-.6-2s.4-1.8,1.1-2.4c.7-.6,1.8-.9,3.1-.9s2.5.2,3.5.7l-.6,2.1Z"/>
        </g>
      </g>
      <g class="cls-9">
        <g class="cls-9">
          <path class="cls-2" d="M161.4,111.5h3.2l5.2,14.2h-3.3l-1.1-3.3h-5l-1.1,3.3h-3.2l5.3-14.2ZM161.1,120.1h3.6l-.7-1.9c-.2-.6-.4-1.2-.6-1.8-.2-.6-.4-1.2-.5-1.8h0c-.2.6-.3,1.2-.5,1.7-.2.6-.4,1.2-.6,1.8l-.7,1.9Z"/>
        </g>
        <g class="cls-9">
          <path class="cls-2" d="M171.2,118.6c0-.6.1-1.1.3-1.6s.6-.9,1-1.2.9-.6,1.5-.8c.6-.2,1.2-.3,1.9-.3s.5,0,.8,0c.3,0,.6,0,.8.2h4.6v1.9h-1l-1.4-.2c.2.2.4.5.5.9.1.4.2.7.2,1.1,0,1.1-.4,2.1-1.2,2.8-.8.7-1.9,1-3.4,1s-.7,0-1,0c-.4.2-.6.4-.6.7s0,.4.2.5c.2.1.5.2.9.2h2.4c1.2,0,2.1.3,2.9.8s1.1,1.3,1.1,2.5-.1,1.1-.4,1.6c-.3.5-.7.9-1.2,1.3-.5.4-1.1.6-1.8.8-.7.2-1.5.3-2.4.3-1.6,0-2.9-.3-3.9-.9-1-.6-1.4-1.4-1.4-2.5s.2-.9.5-1.3c.3-.4.8-.7,1.4-.9-.2-.2-.4-.4-.6-.6-.2-.3-.3-.6-.3-1s.2-.9.5-1.3.7-.6,1.1-.9c-.2-.1-.4-.3-.7-.5-.2-.2-.4-.4-.6-.7-.2-.3-.3-.5-.4-.9-.1-.3-.2-.7-.2-1.1ZM174.1,126c-.2.1-.4.3-.6.5-.2.2-.2.4-.2.7,0,.4.2.8.6,1.1.4.3,1.1.4,2.1.4s1.7-.2,2.1-.5.7-.7.7-1.1-.1-.7-.4-.9c-.3-.2-.7-.2-1.3-.2h-2.9ZM177.5,118.6c0-.6-.2-1-.5-1.3-.3-.3-.7-.5-1.2-.5s-.9.2-1.2.5c-.3.3-.5.7-.5,1.3s.2,1.1.5,1.4.7.5,1.2.5.9-.1,1.2-.5.5-.7.5-1.3Z"/>
        </g>
        <g class="cls-9">
          <path class="cls-2" d="M193.5,121.1h-7.1c0,.9.3,1.6.9,2s1.4.6,2.3.6,1.1,0,1.6-.2c.5-.1.9-.3,1.3-.4l.5,2.1c-.4.2-.9.4-1.5.5-.6.1-1.3.2-2.2.2s-1.6-.1-2.3-.3c-.7-.2-1.3-.6-1.9-1-.5-.5-1-1-1.3-1.7-.3-.7-.5-1.5-.5-2.5s.1-1.6.4-2.3c.3-.7.6-1.3,1.1-1.8.5-.5,1-.9,1.7-1.2.7-.3,1.4-.4,2.2-.4,1.5,0,2.6.4,3.5,1.3.9.9,1.3,2.1,1.3,3.7v1.3ZM190.4,119c0-.3,0-.6-.1-.8,0-.3-.2-.5-.3-.7-.2-.2-.3-.4-.6-.5-.2-.1-.5-.2-.8-.2-.6,0-1.1.2-1.5.6-.4.4-.6,1-.7,1.6h4Z"/>
          <path class="cls-2" d="M198.6,125.7h-3v-10.7h2.3l.4,1.4c.5-.5,1-.9,1.6-1.2.6-.3,1.3-.4,2-.4,1.2,0,2.1.3,2.7,1,.6.6.9,1.6.9,2.8v7.2h-3v-6.9c0-.6-.1-1-.4-1.3-.3-.3-.7-.5-1.2-.5s-.8.1-1.2.3c-.4.2-.8.5-1.2.9v7.5Z"/>
        </g>
        <g class="cls-9">
          <path class="cls-2" d="M213.9,123.7c.5,0,.9,0,1.3-.2.4-.1.7-.3.9-.4l.6,2.1c-.3.2-.7.3-1.3.5-.6.2-1.2.2-1.9.2s-1.6-.1-2.3-.4c-.7-.2-1.3-.6-1.8-1.1-.5-.5-.9-1.1-1.2-1.7-.3-.7-.5-1.5-.5-2.4s.1-1.6.4-2.3c.3-.7.7-1.3,1.2-1.8.5-.5,1.1-.9,1.8-1.1.7-.3,1.5-.4,2.4-.4s1,0,1.5.1c.5,0,1.1.3,1.6.6l-.6,2.1c-.3-.2-.7-.3-1-.4-.4-.1-.7-.2-1.1-.2-.9,0-1.7.3-2.3.9-.6.6-.9,1.4-.9,2.5s0,1.2.3,1.6c.2.4.4.8.7,1.1.3.3.6.5,1,.6.4.1.8.2,1.1.2Z"/>
        </g>
        <g class="cls-9">
          <path class="cls-2" d="M220,112.6c-.5,0-.9-.1-1.2-.4-.3-.3-.4-.7-.4-1.1s.1-.8.4-1.1c.3-.3.7-.4,1.2-.4s.9.1,1.2.4.4.7.4,1.1-.1.8-.4,1.1c-.3.3-.7.4-1.2.4ZM218.5,125.7v-10.7h3v10.7h-3Z"/>
          <path class="cls-2" d="M234,121.1h-7.1c0,.9.3,1.6.9,2s1.4.6,2.3.6,1.1,0,1.6-.2c.5-.1.9-.3,1.3-.4l.5,2.1c-.4.2-.9.4-1.5.5-.6.1-1.3.2-2.2.2s-1.6-.1-2.3-.3c-.7-.2-1.3-.6-1.9-1-.5-.5-1-1-1.3-1.7-.3-.7-.5-1.5-.5-2.5s.1-1.6.4-2.3c.3-.7.6-1.3,1.1-1.8.5-.5,1-.9,1.7-1.2.7-.3,1.4-.4,2.2-.4,1.5,0,2.6.4,3.5,1.3.9.9,1.3,2.1,1.3,3.7v1.3ZM231,119c0-.3,0-.6-.1-.8,0-.3-.2-.5-.3-.7-.2-.2-.3-.4-.6-.5-.2-.1-.5-.2-.8-.2-.6,0-1.1.2-1.5.6-.4.4-.6,1-.7,1.6h4Z"/>
          <path class="cls-2" d="M242.6,117.5c-.9-.4-1.7-.6-2.6-.6s-.9,0-1.1.2c-.3.2-.4.4-.4.7s.1.5.3.7c.2.2.7.4,1.4.6l.7.2c.9.3,1.6.7,2.1,1.2.5.5.7,1.2.7,2s-.4,1.9-1.2,2.5c-.8.6-1.9.9-3.3.9s-2.7-.3-3.7-.8l.7-2.2c.4.2.9.4,1.4.6.5.1,1,.2,1.5.2s1,0,1.3-.3c.3-.2.4-.4.4-.7s-.1-.6-.4-.7c-.3-.2-.8-.4-1.5-.6l-.7-.2c-.9-.3-1.6-.7-2-1.2-.4-.5-.6-1.2-.6-2s.4-1.8,1.1-2.4c.7-.6,1.8-.9,3.1-.9s2.5.2,3.5.7l-.6,2.1Z"/>
        </g>
      </g>
      <g class="cls-9">
        <g class="cls-9">
          <path class="cls-2" d="M349.8,112.9c1.5,0,2.7.3,3.6,1,.9.6,1.3,1.6,1.3,2.7s0,.8-.2,1.2c-.2.3-.4.6-.6.9s-.5.5-.8.6c-.3.2-.6.3-.9.4.4,0,.8.2,1.2.4.4.2.7.4,1,.7.3.3.5.6.7,1,.2.4.2.9.2,1.4s-.1,1.1-.4,1.6c-.3.5-.6.9-1.1,1.3-.5.4-1,.6-1.7.8s-1.4.3-2.2.3h-5v-14.2h5.1ZM347.8,118.6h1.5c.7,0,1.2-.1,1.6-.4.4-.3.6-.7.6-1.3s-.2-.9-.6-1.2-.9-.4-1.6-.4h-1.5v3.3ZM347.8,124.7h1.5c.8,0,1.4-.1,1.9-.4.5-.3.7-.8.7-1.5s-.3-1.2-.8-1.5c-.5-.3-1.2-.4-1.9-.4h-1.4v3.9Z"/>
          <path class="cls-2" d="M357.5,127.1v-16.1h3v16.1h-3Z"/>
          <path class="cls-2" d="M373.7,121.6c0,.9-.1,1.7-.4,2.4-.3.7-.7,1.3-1.2,1.8-.5.5-1.1.9-1.8,1.1s-1.4.4-2.2.4-1.5-.1-2.2-.4c-.7-.2-1.2-.6-1.7-1.1-.5-.5-.9-1-1.1-1.7-.3-.7-.4-1.5-.4-2.3s.1-1.7.4-2.4c.3-.7.7-1.3,1.2-1.8s1.1-.9,1.8-1.1c.7-.3,1.4-.4,2.2-.4s1.5.1,2.2.4c.7.2,1.2.6,1.7,1,.5.5.9,1,1.1,1.7.3.7.4,1.5.4,2.4ZM370.6,121.8c0-.6,0-1.1-.2-1.6-.1-.4-.3-.8-.5-1.1-.2-.3-.5-.5-.8-.6-.3-.1-.6-.2-.9-.2s-.6,0-.9.2c-.3.1-.5.3-.8.6-.2.3-.4.6-.5,1s-.2,1-.2,1.6,0,1.1.2,1.5c.1.4.3.8.6,1s.5.5.8.6c.3.1.6.2.9.2s.6,0,.9-.2c.3-.1.5-.3.8-.6.2-.3.4-.6.5-1,.1-.4.2-1,.2-1.6Z"/>
        </g>
        <g class="cls-9">
          <path class="cls-2" d="M375.7,120c0-.6.1-1.1.3-1.6.2-.5.6-.9,1-1.2s.9-.6,1.5-.8c.6-.2,1.2-.3,1.9-.3s.5,0,.8,0c.3,0,.6,0,.8.2h4.6v1.9h-1l-1.4-.2c.2.2.4.5.5.9.1.4.2.7.2,1.1,0,1.1-.4,2.1-1.2,2.8s-1.9,1-3.4,1-.7,0-1,0c-.4.2-.6.4-.6.7s0,.4.2.5c.2.1.5.2.9.2h2.4c1.2,0,2.1.3,2.9.8.7.5,1.1,1.3,1.1,2.5s-.1,1.1-.4,1.6c-.3.5-.7.9-1.2,1.3-.5.4-1.1.6-1.8.8s-1.5.3-2.4.3c-1.6,0-2.9-.3-3.9-.9-1-.6-1.4-1.4-1.4-2.5s.2-.9.5-1.3c.3-.4.8-.7,1.4-.9-.2-.2-.4-.4-.6-.6-.2-.3-.3-.6-.3-1s.2-.9.5-1.3c.3-.4.7-.6,1.1-.9-.2-.1-.4-.3-.7-.5-.2-.2-.4-.4-.6-.7-.2-.3-.3-.5-.4-.9-.1-.3-.2-.7-.2-1.1ZM378.6,127.5c-.2.1-.4.3-.6.5-.2.2-.2.4-.2.7,0,.4.2.8.6,1.1.4.3,1.1.4,2.1.4s1.7-.2,2.1-.5c.5-.3.7-.7.7-1.1s-.1-.7-.4-.9c-.3-.2-.7-.2-1.3-.2h-2.9ZM382,120c0-.6-.2-1-.5-1.3-.3-.3-.7-.5-1.2-.5s-.9.2-1.2.5c-.3.3-.5.7-.5,1.3s.2,1.1.5,1.4.7.5,1.2.5.9-.1,1.2-.5.5-.7.5-1.3Z"/>
        </g>
        <g class="cls-9">
          <path class="cls-2" d="M388.7,120c0-.6.1-1.1.3-1.6.2-.5.6-.9,1-1.2s.9-.6,1.5-.8c.6-.2,1.2-.3,1.9-.3s.5,0,.8,0c.3,0,.6,0,.8.2h4.6v1.9h-1l-1.4-.2c.2.2.4.5.5.9.1.4.2.7.2,1.1,0,1.1-.4,2.1-1.2,2.8s-1.9,1-3.4,1-.7,0-1,0c-.4.2-.6.4-.6.7s0,.4.2.5c.2.1.5.2.9.2h2.4c1.2,0,2.1.3,2.9.8.7.5,1.1,1.3,1.1,2.5s-.1,1.1-.4,1.6c-.3.5-.7.9-1.2,1.3-.5.4-1.1.6-1.8.8s-1.5.3-2.4.3c-1.6,0-2.9-.3-3.9-.9-1-.6-1.4-1.4-1.4-2.5s.2-.9.5-1.3c.3-.4.8-.7,1.4-.9-.2-.2-.4-.4-.6-.6-.2-.3-.3-.6-.3-1s.2-.9.5-1.3c.3-.4.7-.6,1.1-.9-.2-.1-.4-.3-.7-.5-.2-.2-.4-.4-.6-.7-.2-.3-.3-.5-.4-.9-.1-.3-.2-.7-.2-1.1ZM391.6,127.5c-.2.1-.4.3-.6.5-.2.2-.2.4-.2.7,0,.4.2.8.6,1.1.4.3,1.1.4,2.1.4s1.7-.2,2.1-.5c.5-.3.7-.7.7-1.1s-.1-.7-.4-.9c-.3-.2-.7-.2-1.3-.2h-2.9ZM395,120c0-.6-.2-1-.5-1.3-.3-.3-.7-.5-1.2-.5s-.9.2-1.2.5c-.3.3-.5.7-.5,1.3s.2,1.1.5,1.4.7.5,1.2.5.9-.1,1.2-.5.5-.7.5-1.3Z"/>
        </g>
        <g class="cls-9">
          <path class="cls-2" d="M410.9,122.5h-7.1c0,.9.3,1.6.9,2,.6.4,1.4.6,2.3.6s1.1,0,1.6-.2c.5-.1.9-.3,1.2-.4l.5,2.1c-.4.2-.9.4-1.5.5s-1.3.2-2.2.2-1.6-.1-2.3-.3c-.7-.2-1.3-.6-1.9-1-.5-.5-1-1-1.3-1.7-.3-.7-.5-1.5-.5-2.5s.1-1.6.4-2.3c.3-.7.6-1.3,1.1-1.8.5-.5,1-.9,1.7-1.2.7-.3,1.4-.4,2.2-.4,1.5,0,2.6.4,3.5,1.3.9.9,1.3,2.1,1.3,3.7v1.3ZM407.9,120.4c0-.3,0-.6-.1-.8,0-.3-.2-.5-.3-.7-.2-.2-.3-.4-.6-.5-.2-.1-.5-.2-.8-.2-.6,0-1.1.2-1.5.6s-.6,1-.7,1.6h4Z"/>
          <path class="cls-2" d="M413,127.1v-10.7h2.3l.3,1.9c.3-.6.7-1.1,1.2-1.5.6-.4,1.3-.7,2.1-.7s.7,0,.9.1c.3,0,.5.2.7.3l-.5,2.4c-.2,0-.4-.2-.6-.2s-.6-.1-.9-.1c-.7,0-1.3.2-1.8.7-.5.5-.7,1.3-.7,2.4v5.4h-3Z"/>
          <path class="cls-2" d="M428.3,118.9c-.9-.4-1.7-.6-2.6-.6s-.9,0-1.1.2c-.3.2-.4.4-.4.7s.1.5.3.7c.2.2.7.4,1.4.6l.7.2c.9.3,1.6.7,2.1,1.2s.7,1.2.7,2-.4,1.9-1.2,2.5c-.8.6-1.9.9-3.3.9s-2.7-.3-3.7-.8l.7-2.2c.4.2.9.4,1.4.6.5.1,1,.2,1.5.2s1,0,1.3-.3c.3-.2.4-.4.4-.7s-.1-.6-.4-.7c-.3-.2-.8-.4-1.5-.6l-.7-.2c-.9-.3-1.6-.7-2-1.2-.4-.5-.6-1.2-.6-2s.4-1.8,1.1-2.4c.7-.6,1.8-.9,3.1-.9s2.5.2,3.5.7l-.6,2.1Z"/>
        </g>
      </g>
      <g class="cls-9">
        <g class="cls-9">
          <path class="cls-2" d="M150.2,440.3v14.2h-3.1v-14.2h3.1Z"/>
          <path class="cls-2" d="M156.2,454.5h-3v-10.7h2.3l.4,1.4c.5-.5,1-.9,1.6-1.2.6-.3,1.3-.4,2-.4,1.2,0,2.1.3,2.7,1,.6.6.9,1.6.9,2.8v7.2h-3v-6.9c0-.6-.1-1-.4-1.3-.3-.3-.7-.5-1.2-.5s-.8.1-1.2.3c-.4.2-.8.5-1.2.9v7.5Z"/>
          <path class="cls-2" d="M173.3,454.5v-8.6h-3.8v8.6h-3v-8.6h-1.6v-2.2h1.6v-.8c0-.7.1-1.4.4-1.9.2-.6.6-1,1-1.4.4-.4,1-.7,1.6-.9s1.3-.3,2-.3,1.1,0,1.6.1c.5,0,.9.2,1.3.3.4.1.7.3,1,.4.3.2.5.3.8.4v14.8h-3ZM169.5,443.8h3.8v-2.8c-.2,0-.4-.1-.7-.2s-.5,0-.7,0c-.8,0-1.4.2-1.8.6-.4.4-.6,1.1-.6,2v.5Z"/>
          <path class="cls-2" d="M186,443.8h3v10.7h-2.2l-.3-1.2h0c-.2.2-.4.3-.6.5-.2.2-.5.3-.8.5s-.6.3-1,.3c-.4,0-.8.1-1.2.1-1.2,0-2.1-.3-2.7-1-.7-.6-1-1.6-1-2.9v-7.2h3v6.9c0,.6.2,1.1.5,1.4.3.3.7.4,1.2.4s1-.1,1.4-.3c.4-.2.7-.5.9-.8v-7.6Z"/>
          <path class="cls-2" d="M201.3,449.9h-7.1c0,.9.3,1.6.9,2s1.4.6,2.3.6,1.1,0,1.6-.2c.5-.1.9-.3,1.3-.4l.5,2.1c-.4.2-.9.4-1.5.5-.6.1-1.3.2-2.2.2s-1.6-.1-2.3-.3c-.7-.2-1.3-.6-1.9-1-.5-.5-1-1-1.3-1.7-.3-.7-.5-1.5-.5-2.5s.1-1.6.4-2.3c.3-.7.6-1.3,1.1-1.8.5-.5,1-.9,1.7-1.2.7-.3,1.4-.4,2.2-.4,1.5,0,2.6.4,3.5,1.3.9.9,1.3,2.1,1.3,3.7v1.3ZM198.2,447.9c0-.3,0-.6-.1-.8,0-.3-.2-.5-.3-.7-.2-.2-.3-.4-.6-.5-.2-.1-.5-.2-.8-.2-.6,0-1.1.2-1.5.6-.4.4-.6,1-.7,1.6h4Z"/>
          <path class="cls-2" d="M206.4,454.5h-3v-10.7h2.3l.4,1.4c.5-.5,1-.9,1.6-1.2.6-.3,1.3-.4,2-.4,1.2,0,2.1.3,2.7,1,.6.6.9,1.6.9,2.8v7.2h-3v-6.9c0-.6-.1-1-.4-1.3-.3-.3-.7-.5-1.2-.5s-.8.1-1.2.3c-.4.2-.8.5-1.2.9v7.5Z"/>
        </g>
        <g class="cls-9">
          <path class="cls-2" d="M221.8,452.5c.5,0,.9,0,1.3-.2.4-.1.7-.3.9-.4l.6,2.1c-.3.2-.7.3-1.3.5-.6.2-1.2.2-1.9.2s-1.6-.1-2.3-.4c-.7-.2-1.3-.6-1.8-1.1-.5-.5-.9-1.1-1.2-1.7-.3-.7-.5-1.5-.5-2.4s.1-1.6.4-2.3c.3-.7.7-1.3,1.2-1.8.5-.5,1.1-.9,1.8-1.1.7-.3,1.5-.4,2.4-.4s1,0,1.5.1c.5,0,1.1.3,1.6.6l-.6,2.1c-.3-.2-.7-.3-1-.4-.4-.1-.7-.2-1.1-.2-.9,0-1.7.3-2.3.9-.6.6-.9,1.4-.9,2.5s0,1.2.3,1.6c.2.4.4.8.7,1.1.3.3.6.5,1,.6.4.1.8.2,1.1.2Z"/>
        </g>
        <g class="cls-9">
          <path class="cls-2" d="M235.5,449.9h-7.1c0,.9.3,1.6.9,2s1.4.6,2.3.6,1.1,0,1.6-.2c.5-.1.9-.3,1.3-.4l.5,2.1c-.4.2-.9.4-1.5.5-.6.1-1.3.2-2.2.2s-1.6-.1-2.3-.3c-.7-.2-1.3-.6-1.9-1-.5-.5-1-1-1.3-1.7-.3-.7-.5-1.5-.5-2.5s.1-1.6.4-2.3c.3-.7.6-1.3,1.1-1.8.5-.5,1-.9,1.7-1.2.7-.3,1.4-.4,2.2-.4,1.5,0,2.6.4,3.5,1.3.9.9,1.3,2.1,1.3,3.7v1.3ZM232.4,447.9c0-.3,0-.6-.1-.8,0-.3-.2-.5-.3-.7-.2-.2-.3-.4-.6-.5-.2-.1-.5-.2-.8-.2-.6,0-1.1.2-1.5.6-.4.4-.6,1-.7,1.6h4Z"/>
          <path class="cls-2" d="M237.6,454.5v-10.7h2.3l.3,1.9c.3-.6.7-1.1,1.2-1.5.6-.4,1.3-.7,2.1-.7s.7,0,.9.1c.3,0,.5.2.7.3l-.5,2.4c-.2,0-.4-.2-.6-.2s-.6-.1-.9-.1c-.7,0-1.3.2-1.8.7-.5.5-.7,1.3-.7,2.4v5.4h-3Z"/>
          <path class="cls-2" d="M252.9,446.3c-.9-.4-1.7-.6-2.6-.6s-.9,0-1.1.2c-.3.2-.4.4-.4.7s.1.5.3.7c.2.2.7.4,1.4.6l.7.2c.9.3,1.6.7,2.1,1.2.5.5.7,1.2.7,2s-.4,1.9-1.2,2.5c-.8.6-1.9.9-3.3.9s-2.7-.3-3.7-.8l.7-2.2c.4.2.9.4,1.4.6.5.1,1,.2,1.5.2s1,0,1.3-.3c.3-.2.4-.4.4-.7s-.1-.6-.4-.7c-.3-.2-.8-.4-1.5-.6l-.7-.2c-.9-.3-1.6-.7-2-1.2-.4-.5-.6-1.2-.6-2s.4-1.8,1.1-2.4c.7-.6,1.8-.9,3.1-.9s2.5.2,3.5.7l-.6,2.1Z"/>
        </g>
      </g>
      <g class="cls-9">
        <g class="cls-9">
          <path class="cls-2" d="M355.7,440.6c.7,0,1.3,0,1.8-.2.5-.1.9-.3,1.2-.5l.6,2.3c-.4.2-.9.4-1.5.6-.7.2-1.5.2-2.4.2s-2-.2-3-.5-1.7-.8-2.3-1.5c-.7-.6-1.2-1.4-1.5-2.3s-.5-1.9-.5-3.1.2-2.1.5-3,.8-1.7,1.5-2.3,1.4-1.1,2.3-1.5c.9-.3,1.9-.5,3.1-.5s1.8,0,2.4.3c.6.2,1.1.4,1.5.6l-.7,2.3c-.4-.2-.8-.4-1.3-.5-.5-.1-1-.2-1.6-.2s-1.2,0-1.7.3-1,.5-1.4.9c-.4.4-.7.9-1,1.5-.2.6-.3,1.4-.3,2.3s.1,1.6.3,2.2c.2.6.5,1.1.9,1.5.4.4.9.7,1.4.9.5.2,1.1.3,1.7.3Z"/>
        </g>
        <g class="cls-9">
          <path class="cls-2" d="M371.4,437.3c0,.9-.1,1.7-.4,2.4-.3.7-.7,1.3-1.2,1.8-.5.5-1.1.9-1.8,1.1s-1.4.4-2.2.4-1.5-.1-2.2-.4c-.7-.2-1.2-.6-1.7-1.1-.5-.5-.9-1-1.1-1.7-.3-.7-.4-1.5-.4-2.3s.1-1.7.4-2.4c.3-.7.7-1.3,1.2-1.8.5-.5,1.1-.9,1.8-1.1.7-.3,1.4-.4,2.2-.4s1.5.1,2.2.4c.7.2,1.2.6,1.7,1,.5.5.9,1,1.1,1.7.3.7.4,1.5.4,2.4ZM368.3,437.4c0-.6,0-1.1-.2-1.6-.1-.4-.3-.8-.5-1.1-.2-.3-.5-.5-.8-.6-.3-.1-.6-.2-.9-.2s-.6,0-.9.2c-.3.1-.5.3-.8.6-.2.3-.4.6-.5,1-.1.4-.2,1-.2,1.6s0,1.1.2,1.5c.1.4.3.8.6,1,.2.3.5.5.8.6.3.1.6.2.9.2s.6,0,.9-.2c.3-.1.5-.3.8-.6.2-.3.4-.6.5-1,.1-.4.2-1,.2-1.6Z"/>
        </g>
        <g class="cls-9">
          <path class="cls-2" d="M376.5,442.7h-3v-10.7h2.3l.4,1.4c.5-.5,1-.9,1.6-1.2.6-.3,1.2-.4,2-.4,1.2,0,2.1.3,2.7,1,.6.6.9,1.6.9,2.8v7.2h-3v-6.9c0-.6-.1-1-.4-1.3s-.7-.5-1.2-.5-.8.1-1.2.3c-.4.2-.8.5-1.2.9v7.5Z"/>
        </g>
        <g class="cls-9">
          <path class="cls-2" d="M392.5,434.2h-2.9v5c0,.5.1.9.3,1,.2.2.5.3.9.3s.6,0,.9,0c.3,0,.6-.1.8-.2l.5,2.1c-.3.1-.6.2-1.1.4-.5.1-1.1.2-1.6.2-1.3,0-2.2-.3-2.8-.8s-.8-1.3-.8-2.3v-5.5h-1.7v-2.2h1.7v-3.3h3v3.3h2.9v2.2Z"/>
          <path class="cls-2" d="M404.3,438.1h-7.1c0,.9.3,1.6.9,2s1.4.6,2.3.6,1.1,0,1.6-.2c.5-.1.9-.3,1.2-.4l.5,2.1c-.4.2-.9.4-1.5.5s-1.3.2-2.2.2-1.6-.1-2.3-.3c-.7-.2-1.3-.6-1.9-1-.5-.5-1-1-1.3-1.7-.3-.7-.5-1.5-.5-2.5s.1-1.6.4-2.3c.3-.7.6-1.3,1.1-1.8.5-.5,1-.9,1.7-1.2.7-.3,1.4-.4,2.2-.4,1.5,0,2.6.4,3.5,1.3.9.9,1.3,2.1,1.3,3.7v1.3ZM401.2,436.1c0-.3,0-.6-.1-.8,0-.3-.2-.5-.3-.7-.2-.2-.3-.4-.6-.5s-.5-.2-.8-.2c-.6,0-1.1.2-1.5.6-.4.4-.6,1-.7,1.6h4Z"/>
        </g>
        <g class="cls-9">
          <path class="cls-2" d="M409.4,442.7h-3v-10.7h2.3l.4,1.4c.5-.5,1-.9,1.6-1.2.6-.3,1.3-.4,2-.4,1.2,0,2.1.3,2.7,1,.6.6.9,1.6.9,2.8v7.2h-3v-6.9c0-.6-.1-1-.4-1.3-.3-.3-.7-.5-1.2-.5s-.8.1-1.2.3c-.4.2-.8.5-1.2.9v7.5Z"/>
        </g>
        <g class="cls-9">
          <path class="cls-2" d="M425.4,434.2h-2.9v5c0,.5.1.9.3,1,.2.2.5.3.9.3s.6,0,.9,0c.3,0,.6-.1.8-.2l.5,2.1c-.3.1-.6.2-1.1.4-.5.1-1.1.2-1.6.2-1.3,0-2.2-.3-2.8-.8s-.8-1.3-.8-2.3v-5.5h-1.7v-2.2h1.7v-3.3h3v3.3h2.9v2.2Z"/>
        </g>
        <g class="cls-9">
          <path class="cls-2" d="M353.2,467.6c.7,0,1.3,0,1.8-.2.5-.1.9-.3,1.2-.5l.6,2.3c-.4.2-.9.4-1.5.6-.7.2-1.5.2-2.4.2s-2-.2-3-.5-1.7-.8-2.3-1.5c-.7-.6-1.2-1.4-1.5-2.3s-.5-1.9-.5-3.1.2-2.1.5-3,.8-1.7,1.5-2.3,1.4-1.1,2.3-1.5c.9-.3,1.9-.5,3.1-.5s1.8,0,2.4.3c.6.2,1.1.4,1.5.6l-.7,2.3c-.4-.2-.8-.4-1.3-.5-.5-.1-1-.2-1.6-.2s-1.2,0-1.7.3-1,.5-1.4.9c-.4.4-.7.9-1,1.5-.2.6-.3,1.4-.3,2.3s.1,1.6.3,2.2c.2.6.5,1.1.9,1.5.4.4.9.7,1.4.9.5.2,1.1.3,1.7.3Z"/>
        </g>
        <g class="cls-9">
          <path class="cls-2" d="M358.8,469.8v-10.7h2.3l.3,1.9c.3-.6.7-1.1,1.2-1.5.6-.4,1.3-.7,2.1-.7s.7,0,.9.1c.3,0,.5.2.7.3l-.5,2.4c-.2,0-.4-.2-.6-.2s-.6-.1-.9-.1c-.7,0-1.3.2-1.8.7-.5.5-.7,1.3-.7,2.4v5.4h-3Z"/>
        </g>
        <g class="cls-9">
          <path class="cls-2" d="M376.6,465.2h-7.1c0,.9.3,1.6.9,2s1.4.6,2.3.6,1.1,0,1.6-.2c.5-.1.9-.3,1.3-.4l.5,2.1c-.4.2-.9.4-1.5.5-.6.1-1.3.2-2.2.2s-1.6-.1-2.3-.3c-.7-.2-1.3-.6-1.9-1-.5-.5-1-1-1.3-1.7-.3-.7-.5-1.5-.5-2.5s.1-1.6.4-2.3c.3-.7.6-1.3,1.1-1.8.5-.5,1-.9,1.7-1.2.7-.3,1.4-.4,2.2-.4,1.5,0,2.6.4,3.5,1.3.9.9,1.3,2.1,1.3,3.7v1.3ZM373.6,463.1c0-.3,0-.6-.1-.8,0-.3-.2-.5-.3-.7-.2-.2-.3-.4-.6-.5-.2-.1-.5-.2-.8-.2-.6,0-1.1.2-1.5.6s-.6,1-.7,1.6h4Z"/>
        </g>
        <g class="cls-9">
          <path class="cls-2" d="M378.9,460c.6-.4,1.3-.7,2-.9s1.5-.3,2.3-.3,1.2,0,1.8.2c.5.2,1,.4,1.4.7.4.3.7.7.9,1.2.2.5.3,1.1.3,1.8v7h-2.3l-.3-1.1h0c-.3.4-.8.8-1.3,1-.5.2-1.2.4-1.9.4s-1.1,0-1.6-.3c-.5-.2-.8-.4-1.1-.7s-.6-.6-.7-1c-.2-.4-.2-.8-.2-1.3s.1-1.1.4-1.6c.3-.4.6-.8,1.1-1.1.5-.3,1-.5,1.6-.6s1.3-.2,2-.2h1.4v-.7c0-.5-.2-.9-.5-1.1-.3-.2-.7-.3-1.3-.3s-.9,0-1.3.2c-.5.1-1,.4-1.5.7l-1-2ZM384.6,465.1h-1c-.9,0-1.6.2-1.9.5-.4.3-.5.6-.5,1s.2.9.5,1c.3.2.7.3,1,.3s.8-.1,1.1-.3c.4-.2.6-.5.8-.8v-1.7Z"/>
        </g>
        <g class="cls-9">
          <path class="cls-2" d="M396.8,461.2h-2.9v5c0,.5.1.9.3,1,.2.2.5.3.9.3s.6,0,.9,0c.3,0,.6-.1.8-.2l.5,2.1c-.3.1-.6.2-1.1.4-.5.1-1.1.2-1.6.2-1.3,0-2.2-.3-2.8-.8s-.8-1.3-.8-2.3v-5.5h-1.7v-2.2h1.7v-3.3h3v3.3h2.9v2.2Z"/>
          <path class="cls-2" d="M409.4,464.3c0,.9-.1,1.7-.4,2.4-.3.7-.7,1.3-1.2,1.8-.5.5-1.1.9-1.8,1.1s-1.4.4-2.2.4-1.5-.1-2.2-.4c-.7-.2-1.2-.6-1.7-1.1-.5-.5-.9-1-1.1-1.7-.3-.7-.4-1.5-.4-2.3s.1-1.7.4-2.4c.3-.7.7-1.3,1.2-1.8s1.1-.9,1.8-1.1c.7-.3,1.4-.4,2.2-.4s1.5.1,2.2.4c.7.2,1.2.6,1.7,1,.5.5.9,1,1.1,1.7.3.7.4,1.5.4,2.4ZM406.3,464.4c0-.6,0-1.1-.2-1.6-.1-.4-.3-.8-.5-1.1-.2-.3-.5-.5-.8-.6-.3-.1-.6-.2-.9-.2s-.6,0-.9.2c-.3.1-.5.3-.8.6-.2.3-.4.6-.5,1s-.2,1-.2,1.6,0,1.1.2,1.5c.1.4.3.8.6,1s.5.5.8.6c.3.1.6.2.9.2s.6,0,.9-.2c.3-.1.5-.3.8-.6.2-.3.4-.6.5-1,.1-.4.2-1,.2-1.6Z"/>
          <path class="cls-2" d="M411.6,469.8v-10.7h2.3l.3,1.9c.3-.6.7-1.1,1.2-1.5.6-.4,1.3-.7,2.1-.7s.7,0,.9.1.5.2.7.3l-.5,2.4c-.2,0-.4-.2-.6-.2-.3,0-.6-.1-.9-.1-.7,0-1.3.2-1.8.7-.5.5-.7,1.3-.7,2.4v5.4h-3Z"/>
          <path class="cls-2" d="M426.8,461.6c-.9-.4-1.7-.6-2.6-.6s-.9,0-1.1.2c-.3.2-.4.4-.4.7s.1.5.3.7c.2.2.7.4,1.4.6l.7.2c.9.3,1.6.7,2.1,1.2.5.5.7,1.2.7,2s-.4,1.9-1.2,2.5c-.8.6-1.9.9-3.3.9s-2.7-.3-3.7-.8l.7-2.2c.4.2.9.4,1.4.6.5.1,1,.2,1.5.2s1,0,1.3-.3c.3-.2.4-.4.4-.7s-.1-.6-.4-.7c-.3-.2-.8-.4-1.5-.6l-.7-.2c-.9-.3-1.6-.7-2-1.2-.4-.5-.6-1.2-.6-2s.4-1.8,1.1-2.4c.7-.6,1.8-.9,3.1-.9s2.5.2,3.5.7l-.6,2.1Z"/>
        </g>
      </g>
      <g>
        <polygon class="cls-1" points="358.3 261.8 253.4 338 262.2 303.5 321.7 274.6 258.2 294.8 228.7 261.8 358.3 261.8"/>
        <polygon class="cls-11" points="273.5 255.3 293.5 214.8 313.5 255.3 273.5 255.3"/>
        <polygon class="cls-11" points="325.9 293.4 333.5 338 293.5 317 325.9 293.4"/>
      </g>
    </g>
  </g>
</svg>