<?xml version="1.0" encoding="UTF-8"?>
<svg id="Layer_1" xmlns="http://www.w3.org/2000/svg" viewBox="0 0 130 130">
  <defs>
    <style>
      .cls-1 {
        stroke: #ff1600;
      }

      .cls-1, .cls-2 {
        fill: none;
        stroke-miterlimit: 10;
      }

      .cls-3 {
        fill: #fff7f5;
      }

      .cls-2 {
        stroke: #282828;
      }
    </style>
  </defs>
  <circle class="cls-3" cx="65" cy="65" r="54.83"/>
  <g>
    <g>
      <path class="cls-1" d="M95.99,41.71c-1.49-1.74-3.42-2.72-5.46-2.78,0-.06,0-.11,0-.17,0-5.27-4.32-9.89-9.24-9.89-.57,0-1.05.04-1.49.12-.26-1.19-.7-2.31-1.31-3.33-3.13-5.2-8.37-4.93-8.37-4.93-2.13,0-4.11.71-5.74,2.06-1.25-1.33-2.72-2.38-4.36-3.11-1.68-.74-3.47-1.12-5.3-1.12-3.56,0-7.01,1.49-9.7,4.19-2.46,2.47-4.08,5.77-4.55,9.3-2.85.06-5.45,1.34-7.36,3.6-1.92,2.28-2.98,5.41-2.98,8.79,0,7.1,4.63,12.67,10.54,12.67h2.01"/>
      <path class="cls-1" d="M95.99,41.71c1.51,1.77,2.34,4.07,2.34,6.48,0,4.83-3.89,8.91-8.49,8.91h-2.17"/>
    </g>
    <g>
      <circle class="cls-2" cx="30.2" cy="86.82" r="3.29"/>
      <path class="cls-2" d="M44.28,64.77v17.83c0,2.33-1.89,4.22-4.22,4.22h-3.75"/>
    </g>
    <path class="cls-2" d="M52.73,76.03v17.83c0,2.33-1.89,4.22-4.22,4.22h-11.26"/>
    <g>
      <circle class="cls-2" cx="98.25" cy="86.82" r="3.29"/>
      <path class="cls-2" d="M84.17,64.77v17.83c0,2.33,1.89,4.22,4.22,4.22h3.75"/>
    </g>
    <path class="cls-2" d="M75.72,76.03v17.83c0,2.33,1.89,4.22,4.22,4.22h11.26"/>
    <ellipse class="cls-1" cx="64.22" cy="99.03" rx="3.95" ry="3.92"/>
    <line class="cls-1" x1="64.22" y1="75.09" x2="64.22" y2="92.46"/>
    <g>
      <path class="cls-2" d="M74.01,50.74c.26,1.8.02,3.69-.8,5.45-2.26,4.86-8.03,6.98-12.89,4.72-4.86-2.26-6.98-8.03-4.72-12.89,2.26-4.86,8.03-6.98,12.89-4.72,1.82.85,3.26,2.19,4.23,3.79"/>
      <path class="cls-2" d="M53.77,64.85l-1.15,3.52c-.18.73.11,1.51.78,1.82l4,1.85c.67.31,1.45.02,1.89-.58l1.95-3.15c1.52.22,3.1.3,4.74.25l1.68,3.37c.35.65,1.15,1.02,1.8.67l4.16-1.64c.78-.29,1.09-.95.94-1.67l-.81-3.31,3.06-3.43,3.51,1.16c.73.18,1.51-.1,1.82-.77l1.88-3.99c.31-.66.03-1.45-.57-1.89l-3.14-1.96c.23-1.52.32-3.1.28-4.74l3.25-1.72c.65-.34,1.02-1.14.74-1.92l-1.28-4.18c-.28-.78-.95-1.09-1.67-.95l-3.66.88-2.85-3.37,1.15-3.52c.18-.73-.11-1.51-.78-1.82l-4-1.85c-.67-.31-1.45-.02-1.89.58l-1.95,3.15c-1.86-.54-3.44-.62-4.95-.51l-1.74-3.24c-.2-.26-.41-.51-.68-.64-.4-.19-.86-.24-1.12-.03l-3.63,1.33c-.66.24-1.05.91-.94,1.6.13.85.3,2.15.43,3.89l-3.45,3.26-3.01-.98c-1.2-.39-2.5.23-2.95,1.4l-1.23,3.21c-.31.67-.02,1.45.58,1.89l3.15,1.95c-.22,1.52-.3,3.1-.25,4.74l-3.24,1.74c-.65.35-1.02,1.15-.73,1.93l1.31,4.17c.29.78.95,1.09,1.67.94l3.66-.9"/>
    </g>
    <ellipse class="cls-1" cx="30.9" cy="97.95" rx="3.95" ry="3.92"/>
    <ellipse class="cls-1" cx="97.53" cy="97.95" rx="3.95" ry="3.92"/>
  </g>
</svg>