<?xml version="1.0" encoding="UTF-8"?><svg id="a" xmlns="http://www.w3.org/2000/svg" width="250" height="250" viewBox="0 0 250 250"><defs><style>.b{stroke:#282828;}.b,.c{fill:none;stroke-miterlimit:10;stroke-width:2px;}.d{fill:#fff7f5;}.c{stroke:#ff1600;}</style></defs><circle class="d" cx="125" cy="124.13" r="100.8"/><line class="c" x1="25.06" y1="123.02" x2="56.18" y2="123.02"/><line class="b" x1="48.04" y1="101.8" x2="67.49" y2="101.8"/><line class="b" x1="50.17" y1="142.11" x2="77.4" y2="142.11"/><path class="b" d="M165.45,137.77v-53.14c0-2.63-2.13-4.75-4.75-4.75h-71.12c-2.63,0-4.75,2.13-4.75,4.75v89.16c0,2.63,2.13,4.75,4.75,4.75h71.12c2.63,0,4.75-2.13,4.75-4.75v-17.96l-21.15-19.43"/><path class="c" d="M89.32,74.09v-2.94c0-2.33,1.89-4.22,4.22-4.22h63.19c2.33,0,4.22,1.89,4.22,4.22v3.46"/><line class="b" x1="98.39" y1="156.17" x2="133.64" y2="156.17"/><line class="b" x1="138.11" y1="156.17" x2="152.21" y2="156.17"/><line class="c" x1="98.05" y1="164.94" x2="122.46" y2="164.94"/><line class="c" x1="123.84" y1="164.94" x2="138.62" y2="164.94"/><line class="c" x1="139.9" y1="164.94" x2="152.14" y2="164.94"/><line class="b" x1="163.87" y1="61.16" x2="172.79" y2="52.24"/><line class="b" x1="166.6" y1="68.16" x2="180.81" y2="68.16"/><circle class="c" cx="125.3" cy="118.45" r="25.51"/><polyline class="b" points="116.29 117.95 122.27 123.93 134.84 111.88"/></svg>