<?xml version="1.0" encoding="UTF-8"?><svg id="a" xmlns="http://www.w3.org/2000/svg" width="112" height="112" viewBox="0 0 112 112"><defs><style>.b{stroke:#ff1600;}.b,.c{fill:none;stroke-miterlimit:10;}.d{fill:#fff7f5;}.c{stroke:#282828;}</style></defs><circle class="d" cx="56" cy="56" r="54.83"/><line class="b" x1="15.7" y1="53.09" x2="23.52" y2="53.09"/><line class="b" x1="87.08" y1="53.09" x2="94.91" y2="53.09"/><line class="b" x1="55.3" y1="13.49" x2="55.3" y2="21.31"/><line class="b" x1="55.3" y1="84.87" x2="55.3" y2="92.7"/><circle class="c" cx="55.54" cy="55.28" r="43.77"/><path class="b" d="M68.39,57.83c7.03,2.08,11.87,7.72,12.24,13.84v.46c0,1.96-1.59,3.55-3.55,3.55h-43.07c-1.96,0-3.55-1.59-3.55-3.55v-.46c.42-6.97,6.65-13.34,15.33-14.5l.5-.07c2.15-.32,4.26.24,6.4.66,1.33.26,1.21.28,2.64.28M55.33,58.04c7.52,0,11.28-8.1,11.28-16.48,0-6.07-.87-9.54-3.47-11.86-2.31-2.02-4.22-2.66-8.1-2.6-5.2.07-11.57,2.31-11.57,12.44,0,4.95,1.6,9.19,3.42,12.36"/></svg>