<?xml version="1.0" encoding="UTF-8"?><svg id="a" xmlns="http://www.w3.org/2000/svg" width="112" height="112" viewBox="0 0 112 112"><defs><style>.b{stroke:#ff1600;}.b,.c{fill:none;stroke-miterlimit:10;}.d{fill:#fff7f5;}.c{stroke:#282828;}</style></defs><circle class="d" cx="56" cy="56" r="54.83"/><line class="c" x1="84.62" y1="53.35" x2="89.25" y2="53.35"/><line class="c" x1="26.11" y1="53.35" x2="30.07" y2="53.35"/><line class="c" x1="56.63" y1="80.87" x2="56.63" y2="85.97"/><line class="c" x1="56.63" y1="22.83" x2="56.63" y2="26.79"/><line class="c" x1="37.82" y1="72.97" x2="34.36" y2="76.22"/><line class="c" x1="80.83" y1="31.25" x2="77.53" y2="34.55"/><line class="c" x1="37.19" y1="34.35" x2="34.51" y2="31.78"/><line class="c" x1="79.2" y1="77.09" x2="75.63" y2="73.81"/><circle class="b" cx="57.16" cy="53.84" r="27.05"/><circle class="b" cx="57.16" cy="16.1" r="5.89"/><circle class="b" cx="57.16" cy="92.71" r="5.89"/><circle class="b" cx="95.46" cy="53.84" r="5.89"/><circle class="b" cx="19.7" cy="53.84" r="5.89"/><circle class="c" cx="85.36" cy="27.04" r="5.89"/><circle class="c" cx="29.8" cy="80.92" r="5.89"/><circle class="c" cx="83.68" cy="80.92" r="5.89"/><circle class="c" cx="29.8" cy="27.04" r="5.89"/><polyline class="c" points="43.56 53.05 53.19 63.82 73.88 44.98"/></svg>