<?xml version="1.0" encoding="UTF-8"?>
<svg id="Layer_1" xmlns="http://www.w3.org/2000/svg" viewBox="0 0 906.45 110.38">
  <defs>
    <style>
      .cls-1 {
        fill: #ff7d7d;
      }

      .cls-2 {
        fill: #f35f5f;
      }

      .cls-3 {
        fill: #ed4f00;
      }

      .cls-4 {
        fill: #ffb68e;
      }

      .cls-5 {
        fill: #8c2800;
      }

      .cls-6 {
        fill: #300;
      }

      .cls-7 {
        fill: #a40000;
        font-family: MuktaMahee-ExtraBold, 'Mukta Mahee';
        font-size: 50px;
        font-weight: 700;
        letter-spacing: 0em;
      }

      .cls-8 {
        fill: #333;
      }
    </style>
  </defs>
  <g>
    <text class="cls-7" transform="translate(408.67 66.35)"><tspan x="0" y="0">+</tspan></text>
    <g>
      <path class="cls-2" d="M519.86,79.29c-.4.01-.79-.01-1.19-.06-5.93,4.38-14.28,3.13-18.66-2.8,0,0,0,0,0,0-.29-.39-.57-.8-.81-1.23l-22.84-39.54c-1.96-3.27-1.96-7.35,0-10.62,1.68-3.01,4.76-4.98,8.19-5.23l.18-.36c.24-.41.54-.83.83-1.23,1.56-2.32,3.61-4.28,6.01-5.71h-6.01c-6.39-.02-12.31,3.36-15.52,8.89-3.27,5.53-3.27,12.4,0,17.93l22.88,39.55c5.68,9.87,18.29,13.26,28.15,7.58,3.15-1.81,5.77-4.43,7.58-7.58l1.19-2.13c-2.49,1.37-5.24,2.2-8.07,2.46-.73.01-1.3.09-1.91.09Z"/>
      <path class="cls-1" d="M530.26,64.27h-.24c-.47,0-.95-.06-1.42-.06-.33.51-.69,1-1.07,1.47-.12.17-.26.33-.42.47-.23.24-.54.47-.77.71-.24.22-.5.43-.77.62-.48.34-1.01.62-1.56.83-.27.13-.55.25-.83.36-.63.24-1.29.38-1.96.42-.45.05-.91.07-1.37.06-1.35.01-2.68-.25-3.92-.77-2.06-.85-3.77-2.37-4.87-4.31l-17.51-30.25c-.12-.17-.22-.35-.3-.54-.28-.55-.5-1.13-.65-1.72-.21-.77-.31-1.57-.3-2.37-.02-1.01.14-2.01.48-2.96.17-.59.43-1.15.77-1.67,1.11-1.96,2.91-3.44,5.05-4.15.58-.2,1.17-.34,1.78-.42.2-.05.41-.07.62-.06.23,0,.41-.06.62-.06h1.78c.12-.33.27-.64.46-.93.07-.14.15-.28.23-.41l.06-.12.06-.06.06-.12c1.47-2.32,3.43-4.3,5.74-5.78h-8.49c-1.38.01-2.75.17-4.1.48-.36.06-.66.18-1.01.23-.64.18-1.25.42-1.85.71-.3.12-.62.3-.89.42-.74.41-1.45.86-2.13,1.37l-.71.53c-1.16,1-2.19,2.14-3.08,3.39l-.71,1.06c-.75,1.28-1.31,2.66-1.67,4.1-.19.7-.33,1.42-.41,2.14-.18,1.43-.18,2.88,0,4.31.06.36.12.71.18,1.06.11.71.35,1.43.54,2.14.24.69.52,1.36.83,2.02.18.36.36.65.54,1.01l17.49,30.24c2.11,3.68,5.49,6.48,9.5,7.87l1.07.36c.74.2,1.49.34,2.25.42.77.06,1.54.12,2.32.12.54,0,1.13-.06,1.66-.06,5.64-.5,10.68-3.74,13.48-8.67l3.08-5.4c-2.35,1.28-4.98,1.96-7.65,1.99Z"/>
      <path class="cls-1" d="M487.88,19.69c-.24.36-.48.71-.71,1.07.25-.34.49-.7.71-1.07Z"/>
      <path class="cls-1" d="M492.45,30.26c-.05-.39-.07-.79-.06-1.19-.04.4-.02.8.06,1.19Z"/>
      <path class="cls-1" d="M526.98,66.17c-.24.24-.54.47-.77.71.28-.21.54-.45.77-.71Z"/>
      <path class="cls-1" d="M493.28,33.17c-.28-.55-.5-1.13-.65-1.72.18.59.4,1.16.65,1.72Z"/>
      <path class="cls-1" d="M492.68,31.51c-.1-.39-.18-.79-.23-1.19.03.4.1.8.23,1.19Z"/>
      <path class="cls-1" d="M525.51,67.42c-.48.33-1,.61-1.54.83.55-.2,1.08-.48,1.54-.83Z"/>
      <path class="cls-1" d="M511.08,64.04l-17.51-30.28,17.51,30.28c1.11,1.92,2.82,3.42,4.87,4.27-2.04-.86-3.75-2.36-4.87-4.27Z"/>
      <path class="cls-1" d="M501.65,19.81c-.21-.02-.42,0-.62.06.2-.06.41-.08.62-.06Z"/>
      <path class="cls-1" d="M498.62,20.28c.58-.19,1.17-.33,1.78-.41-.6.08-1.2.22-1.78.41Z"/>
      <path class="cls-1" d="M491.67,15.71c.66-.53,1.38-.99,2.14-1.37-.71.42-1.43.9-2.14,1.37Z"/>
      <path class="cls-1" d="M491.02,16.25c-1.16,1-2.19,2.13-3.08,3.38h0c.86-1.26,1.9-2.4,3.08-3.38Z"/>
      <path class="cls-4" d="M554.36,28.72c0-.12-.02-.24-.07-.36-.05-.27-.07-.55-.06-.83,0-.07-.01-.13-.06-.18-.27-2.16-.98-4.24-2.07-6.11,0-.03-.03-.06-.06-.06h0c-.55-.98-1.21-1.9-1.96-2.73l-.12-.12c-.06-.12-.18-.18-.23-.3-1.29-1.46-2.84-2.67-4.58-3.56-1.98-1.02-4.12-1.68-6.33-1.96-.93-.12-1.86-.18-2.79-.18h-16.16c-.4,0-.79.01-1.19.06-.1.01-.2.03-.3.06h-.12c-4.82.45-9.14,3.13-11.69,7.25-.03.03-.06.07-.06.12-.06.12-.18.3-.23.42-.18.36-.36.65-.54.95-.23.44-.44.9-.62,1.37l-.18.54c-.12.33-.22.67-.3,1.01-.11.39-.18.79-.23,1.19-.43,2.29-.35,4.64.23,6.89.07.34.17.68.3,1.01.35,1.01.79,1.98,1.31,2.91l10.22,17.69c2.22,3.92,6.07,6.66,10.51,7.48.47.12,1.01.12,1.48.24.47.05.95.07,1.43.06h.24c4.46-.03,8.67-2.03,11.51-5.46,0-.03.02-.06.06-.06,0,0,0,0,0,0l.06-.06q.06-.06.06-.12c.56-.67,1.06-1.38,1.48-2.14l8.25-14.36c1.52-2.61,2.42-5.54,2.61-8.55v-.12c.05-.29.07-.59.06-.89v-.36c.11-.22.15-.47.13-.71ZM545.28,35.66l-8.25,14.37c-1.45,2.49-4.12,4.03-7.01,4.03-2.89.02-5.57-1.52-7.01-4.03l-10.21-17.69c-1.48-2.59-1.48-5.78,0-8.37,1.38-2.42,3.87-3.98,6.65-4.16.18,0,.36-.06.62-.06h16.08c3.78-.03,7.28,1.99,9.15,5.28,1.89,3.32,1.72,8.13,0,10.62h-.02Z"/>
      <path class="cls-8" d="M580.9,75.02l-10.92-28.67c-1.08-2.81.32-5.97,3.13-7.05,0,0,0,0,0,0,.62-.24,1.28-.36,1.95-.36h.47c2.38,0,4.48,1.54,5.21,3.8l8.67,26.71,8.61-26.71c.73-2.27,2.84-3.8,5.22-3.8h0c3-.03,5.45,2.38,5.48,5.38,0,.7-.12,1.39-.38,2.04l-10.86,28.74c-1.31,3.46-4.61,5.75-8.31,5.76h0c-3.69-.08-6.96-2.38-8.28-5.82Z"/>
      <path class="cls-8" d="M646.97,63.44h-23.37c1.44,5.31,5.45,8.43,10.79,8.43,2.77,0,5.49-.78,7.84-2.26,1.81-1.13,4.17-.83,5.64.71h0c1.78,1.83,1.75,4.76-.08,6.54-.19.18-.39.35-.6.5-4.1,2.58-8.87,3.9-13.71,3.8-13.41,0-21.9-8.55-21.9-21.25s8.78-21.49,21.53-21.49,18.99,6.65,20.36,17.63c.48,3.57-2.03,6.85-5.6,7.32-.02,0-.04,0-.06,0-.27.04-.55.06-.82.06ZM642.4,56.37c-.18-5.54-3.74-9.08-9.26-9.08s-8.91,3.56-9.8,9.08h19.05Z"/>
      <path class="cls-8" d="M673.57,46.4c1.57-2.93,4.05-5.26,7.07-6.65,3.2-1.43,6.77,1.07,6.77,4.57v.62c-.04,2.49-1.92,4.57-4.39,4.87-5.94.89-9.5,5.05-9.5,10.81v14.18c.01,3.3-2.66,5.99-5.96,6h-.04c-3.3.01-5.99-2.66-6-5.96h0v-29.97c-.01-3.3,2.66-5.99,5.96-6h.04c3.3,0,5.98,2.66,6,5.96v.04l.06,1.54Z"/>
      <path class="cls-8" d="M722.42,47l-.12.18c-1.09,2.12-3.62,3.04-5.82,2.13-2.81-1.32-5.86-2.07-8.96-2.2-2.79,0-4.81.95-4.81,3.08,0,6.29,22.14,3.08,22.03,17.92,0,8.55-7.54,13.06-17.04,13.06-5.02.05-9.97-1.14-14.42-3.44-2.16-1.15-3.02-3.8-1.96-6h0c1.08-2.25,3.78-3.2,6.03-2.12l.09.04c3.29,1.72,6.93,2.66,10.64,2.74,3.03,0,5.28-1.01,5.28-3.26,0-6.71-21.73-3.08-21.73-17.84,0-8.67,7.42-13.06,16.5-13.06,4.14.03,8.23.87,12.06,2.46,2.32,1.01,3.38,3.71,2.37,6.03-.05.09-.09.17-.14.26Z"/>
      <ellipse class="cls-1" cx="738.81" cy="26.93" rx="6.47" ry="6.71"/>
      <path class="cls-8" d="M732.81,74.78v-29.92c0-3.3,2.66-5.98,5.96-6h.06c3.3,0,5.98,2.66,5.99,5.97h0v29.95c.01,3.3-2.65,5.98-5.95,6,0,0,0,0-.01,0h0c-3.33.01-6.03-2.67-6.05-6h0Z"/>
      <path class="cls-8" d="M790.16,80.77h0c-3.28,0-5.94-2.66-5.94-5.94h0v-1.43c-2.92,5.28-7.72,7.84-14.01,7.84-9.26,0-15.08-6.15-15.08-15.99v-20.4c0-3.28,2.66-5.94,5.94-5.94h.06c3.28,0,5.94,2.66,5.94,5.94v16.92c0,5.28,3.03,8.49,7.84,8.49,5.76-.06,9.26-4.59,9.26-10.68v-14.76c0-3.28,2.66-5.94,5.94-5.94h0c3.27,0,5.92,2.64,5.94,5.91v29.98c.07,3.24-2.5,5.93-5.74,6h-.12Z"/>
      <path class="cls-8" d="M878.25,54.42v20.36c0,3.28-2.66,5.94-5.94,5.94h0c-3.28,0-5.94-2.66-5.94-5.94v-16.86c0-5.4-3.08-8.54-8.08-8.54-5.76.06-9.23,4.57-9.23,10.68v14.76c0,3.28-2.66,5.94-5.94,5.94h0c-3.28,0-5.94-2.66-5.94-5.94h0v-16.84c0-5.4-3.08-8.55-8-8.55-5.82.06-9.32,4.57-9.32,10.69v14.76c0,3.28-2.66,5.94-5.94,5.94h-.09c-3.28,0-5.94-2.66-5.94-5.94v-29.9c0-3.29,2.65-5.97,5.94-5.99h.04c3.3,0,5.98,2.66,5.99,5.97h0v1.27c2.97-5.17,7.84-7.66,14.2-7.72,7.06,0,12.17,3.56,14.18,9.68,2.73-6.5,8.03-9.57,15.08-9.68,9.02-.12,14.9,6.12,14.9,15.91Z"/>
    </g>
  </g>
  <g>
    <path class="cls-5" d="M276.61,72.97c-.55-.16-1.15-.38-1.7-.55s-1.04-.33-1.42-.55c-.38-.16-.71-.38-.93-.66-.16-.22-.27-.44-.27-.77,0-.49.22-.88.6-1.21.44-.33,1.04-.49,1.81-.49.6,0,1.26.11,1.92.38s1.37.66,2.08,1.26l.55.44,3.23-6.36-.49-.27c-1.32-.71-2.74-1.26-4.17-1.59-3.01-.77-5.86-.71-8.11.11-1.21.44-2.19,1.04-3.01,1.86s-1.48,1.75-1.92,2.85c-.44,1.1-.66,2.36-.66,3.73s.22,2.52.66,3.45c.44.88,1.04,1.7,1.75,2.25.71.6,1.53,1.04,2.41,1.42.82.33,1.7.66,2.58.93.77.27,1.37.49,1.86.66.49.16.88.38,1.15.6.27.16.44.38.55.6.11.22.16.49.16.77,0,.49-.22.93-.66,1.32-.44.38-1.15.6-2.08.6-.88,0-1.81-.22-2.74-.6-.93-.44-1.92-1.04-2.85-1.92l-.55-.44-3.45,6.52.38.27c2.9,2.03,6.08,3.01,9.48,3.01,1.64,0,3.12-.22,4.44-.66,1.32-.44,2.47-1.1,3.34-1.92.93-.82,1.64-1.81,2.14-2.96.49-1.15.71-2.41.71-3.84,0-2.08-.55-3.84-1.64-5.15-1.15-1.26-2.85-2.3-5.15-3.12h0Z"/>
    <polygon class="cls-5" points="284.23 69.63 289.82 69.63 289.82 89.96 297.65 89.96 297.65 69.63 303.19 69.63 303.19 62.83 284.23 62.83 284.23 69.63"/>
    <path class="cls-5" d="M370.21,79.05c1.59-.49,2.85-1.32,3.73-2.47,1.04-1.32,1.53-3.07,1.53-5.15,0-1.15-.16-2.3-.55-3.29-.38-1.04-.93-1.97-1.7-2.74-.77-.77-1.7-1.42-2.85-1.86-1.15-.44-2.47-.66-4-.66h-11.07v27.13h7.84v-8.71l5.59,8.71h9.81l-8.33-10.96h0ZM363.09,69.14h.71c1.21,0,2.14.22,2.74.71.55.44.88,1.1.88,1.97s-.27,1.48-.88,1.97-1.53.71-2.74.71h-.71v-5.37Z"/>
    <polygon class="cls-6" points="45.29 26.99 39.32 42.94 33.34 26.99 24.3 26.99 18.71 59.87 28.08 59.87 30.55 43.16 37.07 59.87 41.12 59.87 48.03 43.1 50.55 59.87 59.87 59.87 54.28 26.99 45.29 26.99"/>
    <path class="cls-6" d="M73.51,26.99l-12.55,32.88h10.03l1.92-5.54h11.02l1.92,5.54h10.03l-12.55-32.94c0,.05-9.81.05-9.81.05ZM81.35,47h-5.86l2.96-8.38,2.9,8.38h0Z"/>
    <path class="cls-6" d="M119.55,43.6c1.26-1.59,1.86-3.67,1.86-6.19,0-1.42-.22-2.74-.71-4-.44-1.26-1.15-2.36-2.08-3.29-.93-.93-2.08-1.7-3.45-2.25s-3.01-.82-4.82-.82h-13.43v32.94h9.37v-11.02l7.07,10.91h11.73l-10.19-13.26c1.97-.6,3.56-1.59,4.66-3.01h0ZM106.28,34.45h1.04c1.48,0,2.63.27,3.4.88.77.55,1.1,1.37,1.1,2.47s-.33,1.92-1.1,2.47c-.77.6-1.92.88-3.4.88h-1.04c0,.05,0-6.69,0-6.69Z"/>
    <polygon class="cls-6" points="156.43 26.99 144.76 26.99 135.49 39.05 135.49 26.99 126.12 26.99 126.12 59.87 135.49 59.87 135.49 47.16 145.47 59.87 157.58 59.87 143.33 42.61 156.43 26.99"/>
    <polygon class="cls-6" points="158.68 59.87 177.91 59.87 177.91 51.82 168.05 51.82 168.05 47.43 177.36 47.43 177.36 39.32 168.05 39.32 168.05 35.1 177.91 35.1 177.91 26.99 158.68 26.99 158.68 59.87"/>
    <polygon class="cls-6" points="179.55 35.1 186.3 35.1 186.3 59.87 195.67 59.87 195.67 35.1 202.46 35.1 202.46 26.99 179.55 26.99 179.55 35.1"/>
    <rect class="cls-6" x="204.11" y="26.99" width="9.37" height="32.94"/>
    <polygon class="cls-6" points="238.69 45.41 224.22 26.99 215.12 26.99 215.12 59.87 224.49 59.87 224.49 41.46 238.96 59.87 248 59.87 248 26.99 238.69 26.99 238.69 45.41"/>
    <path class="cls-6" d="M266.03,40.97v7.51h6.69c-.16.6-.33,1.1-.6,1.53-.33.6-.82,1.04-1.32,1.42-.55.38-1.15.66-1.86.82s-1.48.27-2.25.27c-1.32,0-2.47-.22-3.4-.66-.93-.44-1.75-1.04-2.41-1.81-.66-.77-1.15-1.75-1.48-2.79-.33-1.1-.49-2.3-.49-3.62,0-1.42.22-2.74.6-3.89.38-1.15.93-2.14,1.59-2.9.66-.77,1.48-1.42,2.41-1.81.93-.44,1.97-.66,3.12-.66,1.37,0,2.63.38,3.67,1.04,1.1.71,1.97,1.86,2.63,3.51l.22.49,8.88-3.67-.27-.55c-1.53-3.12-3.56-5.43-6.19-6.91-2.58-1.48-5.59-2.25-8.99-2.25-2.63,0-5.04.44-7.18,1.26-2.14.82-4,2.03-5.54,3.56s-2.74,3.34-3.56,5.48c-.82,2.14-1.26,4.49-1.26,7.01s.44,4.93,1.26,7.07c.82,2.14,2.03,4,3.56,5.48,1.53,1.53,3.34,2.74,5.43,3.56,2.08.82,4.44,1.26,6.96,1.26,1.86,0,3.62-.22,5.32-.71,1.7-.49,3.23-1.15,4.66-2.03s2.69-2.03,3.73-3.34c1.04-1.32,1.86-2.85,2.47-4.55.44-1.21.71-2.58.88-3.95.16-1.37.22-2.96.22-4.66v-.55h-17.48Z"/>
    <polygon class="cls-3" points="368.79 41.02 302.09 89.47 307.68 67.55 345.5 49.13 305.16 62.01 286.37 41.02 368.79 41.02"/>
    <polygon class="cls-5" points="314.81 36.91 327.58 11.1 340.29 36.91 314.81 36.91"/>
    <polygon class="cls-5" points="348.18 61.13 353.01 89.47 327.58 76.1 348.18 61.13"/>
  </g>
</svg>