<?xml version="1.0" encoding="UTF-8"?>
<svg id="Layer_1" xmlns="http://www.w3.org/2000/svg" viewBox="0 0 108 108">
  <defs>
    <style>
      .cls-1 {
        fill: #ab2539;
        opacity: .25;
      }

      .cls-2 {
        stroke: #fff;
      }

      .cls-2, .cls-3 {
        fill: none;
        stroke-miterlimit: 10;
        stroke-width: 1.5px;
      }

      .cls-3 {
        stroke: #ff1600;
      }
    </style>
  </defs>
  <g>
    <circle class="cls-1" cx="54" cy="54.07" r="48.56"/>
    <g>
      <g>
        <path class="cls-2" d="M70.98,62.84l7.2-5.17s2.48-1.78.7-4.25c-1.78-2.48-4.25-.7-4.25-.7l-4.05,2.91-11.7,8.41s-3.22,12.77-3.67,13.1"/>
        <path class="cls-2" d="M79.71,53.15l2.48-12.7s.77-2.26,3.47-1.81,2.59,3.6,2.59,3.6l-2.34,16.69s-.31,4.32-5.26,7.87l-12.15,8.73-1.3,6.03"/>
      </g>
      <g>
        <path class="cls-2" d="M37.02,62.84l-7.2-5.17s-2.48-1.78-.7-4.25c1.78-2.48,4.25-.7,4.25-.7l4.05,2.91,11.7,8.41s3.22,12.77,3.67,13.1"/>
        <path class="cls-2" d="M28.29,53.15l-2.48-12.7s-.77-2.26-3.47-1.81c-2.71.44-2.59,3.6-2.59,3.6l2.34,16.69s.31,4.32,5.26,7.87l12.15,8.73,1.3,6.03"/>
      </g>
    </g>
  </g>
  <path class="cls-3" d="M61.17,43.87l6.76-5.86c.31-.27.43-.7.31-1.1-.13-.39-.48-.67-.89-.71l-8.91-.77-3.48-8.24c-.16-.38-.54-.63-.95-.63s-.79.25-.95.63l-3.48,8.24-8.91.77c-.41.04-.76.31-.89.71-.13.39,0,.83.31,1.1l6.76,5.86-2.03,8.71c-.09.4.06.82.4,1.07.18.13.39.2.61.2.18,0,.37-.05.53-.15l7.66-4.62,7.66,4.62c.16.1.35.15.53.15,0,0,0,0,0,0,.57,0,1.03-.46,1.03-1.03,0-.11-.02-.21-.05-.3l-2.01-8.64Z"/>
</svg>