<?xml version="1.0" encoding="UTF-8"?>
<svg id="Layer_1" xmlns="http://www.w3.org/2000/svg" viewBox="0 0 130 130">
  <defs>
    <style>
      .cls-1 {
        stroke: #ff1600;
      }

      .cls-1, .cls-2 {
        fill: none;
        stroke-miterlimit: 10;
      }

      .cls-3 {
        fill: #fff7f5;
      }

      .cls-2 {
        stroke: #282828;
      }
    </style>
  </defs>
  <circle class="cls-3" cx="65" cy="65" r="50.96"/>
  <g>
    <g>
      <circle class="cls-2" cx="65.8" cy="65.76" r="18.68"/>
      <g>
        <g>
          <g>
            <g>
              <polygon class="cls-1" points="71.1 28.55 65.8 25.49 60.5 28.55 60.5 34.67 65.8 37.73 71.1 34.67 71.1 28.55"/>
              <line class="cls-1" x1="65.8" y1="37.73" x2="65.8" y2="46.06"/>
            </g>
            <g>
              <polygon class="cls-1" points="71.1 102.96 65.8 106.02 60.5 102.96 60.5 96.84 65.8 93.78 71.1 96.84 71.1 102.96"/>
              <line class="cls-1" x1="65.8" y1="93.78" x2="65.8" y2="85.45"/>
            </g>
          </g>
          <g>
            <g>
              <polygon class="cls-1" points="103.01 71.06 106.07 65.76 103.01 60.45 96.89 60.45 93.83 65.76 96.89 71.06 103.01 71.06"/>
              <line class="cls-1" x1="93.83" y1="65.76" x2="84.66" y2="65.76"/>
            </g>
            <g>
              <polygon class="cls-1" points="28.59 71.06 25.53 65.76 28.59 60.45 34.71 60.45 37.77 65.76 34.71 71.06 28.59 71.06"/>
              <line class="cls-1" x1="37.77" y1="65.76" x2="46.94" y2="65.76"/>
            </g>
          </g>
        </g>
        <g>
          <g>
            <g>
              <polygon class="cls-2" points="95.86 43.19 94.27 37.28 88.36 35.7 84.03 40.03 85.62 45.94 91.53 47.52 95.86 43.19"/>
              <line class="cls-2" x1="85.62" y1="45.94" x2="82.66" y2="48.9"/>
            </g>
            <g>
              <polygon class="cls-2" points="43.24 95.81 37.33 94.23 35.74 88.32 40.07 83.99 45.98 85.57 47.57 91.48 43.24 95.81"/>
              <line class="cls-2" x1="45.98" y1="85.57" x2="48.94" y2="82.61"/>
            </g>
          </g>
          <g>
            <g>
              <polygon class="cls-2" points="88.36 95.81 94.27 94.23 95.86 88.32 91.53 83.99 85.62 85.57 84.03 91.48 88.36 95.81"/>
              <line class="cls-2" x1="85.62" y1="85.57" x2="82.66" y2="82.61"/>
            </g>
            <g>
              <polygon class="cls-2" points="35.74 43.19 37.33 37.28 43.24 35.7 47.57 40.03 45.98 45.94 40.07 47.52 35.74 43.19"/>
              <line class="cls-2" x1="45.98" y1="45.94" x2="48.94" y2="48.9"/>
            </g>
          </g>
        </g>
      </g>
    </g>
    <polyline class="cls-2" points="58.09 64.66 63.46 70.87 75.32 60.14"/>
  </g>
</svg>