<?xml version="1.0" encoding="UTF-8"?>
<svg id="Layer_1" xmlns="http://www.w3.org/2000/svg" viewBox="0 0 130 130">
  <defs>
    <style>
      .cls-1 {
        stroke: #ff1600;
      }

      .cls-1, .cls-2 {
        fill: none;
        stroke-miterlimit: 10;
      }

      .cls-3 {
        fill: #fff7f5;
      }

      .cls-2 {
        stroke: #282828;
      }
    </style>
  </defs>
  <circle class="cls-3" cx="65" cy="65" r="50.82"/>
  <g>
    <circle class="cls-2" cx="73.61" cy="65.03" r="31.61"/>
    <g>
      <path class="cls-1" d="M63.77,72.76c0,2.11.93,3.84,2.8,5.18,1.86,1.34,4.32,2.01,7.36,2.01,2.84,0,5.14-.63,6.89-1.9,1.76-1.27,2.63-2.94,2.63-5.02,0-1.35-.29-2.49-.88-3.43-.59-.93-1.53-1.74-2.83-2.43-1.3-.68-3.08-1.28-5.32-1.78-3.38-.7-6.48-2.08-7.8-3.18-1.32-1.1-1.98-2.6-1.98-4.52s.84-3.53,2.52-4.78c1.68-1.25,3.86-1.88,6.56-1.88,2.92,0,5.27.68,7.05,2.04,1.77,1.36,2.66,3.19,2.66,5.5"/>
      <polyline class="cls-1" points="73.61 87.62 73.61 84.3 73.61 80.11"/>
      <polyline class="cls-1" points="73.61 50.87 73.61 47.63 73.61 42.43"/>
    </g>
    <g>
      <line class="cls-1" x1="44.29" y1="40.48" x2="32.74" y2="40.48"/>
      <line class="cls-1" x1="35.95" y1="51.82" x2="24.15" y2="51.82"/>
      <line class="cls-1" x1="33.64" y1="67.39" x2="17.92" y2="67.39"/>
      <line class="cls-1" x1="37.95" y1="82.5" x2="29.03" y2="82.5"/>
    </g>
  </g>
</svg>