<?xml version="1.0" encoding="UTF-8"?><svg id="a" xmlns="http://www.w3.org/2000/svg" width="250" height="250" viewBox="0 0 250 250"><defs><style>.b{fill:#ff1600;}.c{stroke:#282828;}.c,.d{fill:none;stroke-miterlimit:10;stroke-width:2px;}.e{fill:#fff7f5;}.d{stroke:#ff1600;}</style></defs><circle class="e" cx="125" cy="124.13" r="100.8"/><rect class="c" x="68.99" y="66.65" width="112.82" height="112.82" rx="2.16" ry="2.16"/><circle class="b" cx="79.31" cy="78.48" r="2.27"/><circle class="b" cx="86.43" cy="78.48" r="2.27"/><circle class="b" cx="93.54" cy="78.48" r="2.27"/><line class="d" x1="70.08" y1="88.56" x2="182.07" y2="88.56"/><path class="b" d="M87.21,133.61l25.71-11.77v3.4l-21.66,9.65v.1l21.66,9.65v3.4l-25.71-11.77v-2.66Z"/><path class="b" d="M116.52,150.02l15.46-35.71h3.77l-15.51,35.71h-3.71Z"/><path class="b" d="M164.94,136.32l-25.71,11.72v-3.4l21.83-9.65v-.1l-21.83-9.65v-3.4l25.71,11.72v2.76Z"/><line class="c" x1="33.19" y1="63.13" x2="213.75" y2="195.67"/></svg>