<?xml version="1.0" encoding="UTF-8"?><svg id="a" xmlns="http://www.w3.org/2000/svg" width="250" height="250" viewBox="0 0 250 250"><defs><style>.b{stroke-dasharray:5;}.b,.c,.d,.e{fill:none;stroke-width:2px;}.b,.c,.e{stroke:#ff1600;}.b,.d,.e{stroke-miterlimit:10;}.f{fill:#ff1600;}.c{stroke-linecap:round;stroke-linejoin:round;}.d{stroke:#282828;}.g{fill:#282828;}.h{fill:#fff7f5;}</style></defs><circle class="h" cx="125" cy="124.13" r="100.8"/><circle class="e" cx="125.01" cy="124.13" r="69.86"/><path class="d" d="M109.98,172.4c-20.57-6.4-35.51-25.59-35.51-48.27,0-27.91,22.63-50.54,50.54-50.54s50.54,22.63,50.54,50.54c0,21.87-13.88,40.49-33.32,47.53"/><path class="d" d="M109.77,150.16c-9.84-5.64-16.4-16.34-16.15-28.54.35-17.17,14.45-31.18,31.63-31.42,17.94-.26,32.57,14.21,32.57,32.1,0,11.8-6.37,22.11-15.85,27.69v6.81c0,1.13-.91,2.04-2.04,2.04h-28.09c-1.13,0-2.04-.91-2.04-2.04l-.02-6.63Z"/><line class="c" x1="125.61" y1="79.62" x2="125.61" y2="85.92"/><line class="c" x1="156.91" y1="92.58" x2="152.46" y2="97.04"/><line class="c" x1="98.75" y1="150.74" x2="94.3" y2="155.2"/><line class="b" x1="191.81" y1="123.89" x2="163.58" y2="123.89"/><line class="c" x1="87.63" y1="123.89" x2="55.08" y2="123.89"/><line class="c" x1="156.91" y1="155.2" x2="152.46" y2="150.74"/><line class="c" x1="98.75" y1="97.04" x2="94.3" y2="92.58"/><rect class="e" x="109.53" y="158.73" width="32.96" height="8.88" rx="2.59" ry="2.59"/><rect class="e" x="111.86" y="167.67" width="28.29" height="8.88" rx="2.59" ry="2.59"/><path class="e" d="M115.82,176.49h20.37v3.7c0,2.86-2.32,5.18-5.18,5.18h-10.01c-2.86,0-5.18-2.32-5.18-5.18v-3.7h0Z"/><circle class="f" cx="194.95" cy="123.53" r="4"/><circle class="g" cx="55.05" cy="123.53" r="4"/></svg>