<?xml version="1.0" encoding="UTF-8"?><svg id="a" xmlns="http://www.w3.org/2000/svg" width="250" height="250" viewBox="0 0 250 250"><defs><style>.b{stroke:#282828;}.b,.c{fill:none;stroke-miterlimit:10;stroke-width:2px;}.d{fill:#fff7f5;}.c{stroke:#ff1600;}</style></defs><circle class="d" cx="125" cy="124.13" r="100.8"/><path class="b" d="M157.43,97.1h21.78c3.55,0,6.43,2.88,6.43,6.43v67.84c0,3.55-2.88,6.43-6.43,6.43h-107.31c-3.55,0-6.43-2.88-6.43-6.43v-67.84c0-3.55,2.88-6.43,6.43-6.43h28.3"/><line class="b" x1="65.24" y1="131.62" x2="186.02" y2="131.62"/><line class="c" x1="186.02" y1="116.94" x2="164.71" y2="116.94"/><line class="c" x1="65.71" y1="117.41" x2="98.63" y2="117.41"/><path d="M93.48,160.32c-.98.35-2.9.93-5.18.93-2.55,0-4.65-.65-6.31-2.23-1.45-1.4-2.35-3.65-2.35-6.28.02-5.03,3.48-8.71,9.13-8.71,1.95,0,3.48.43,4.2.78l-.53,1.78c-.9-.4-2.03-.73-3.73-.73-4.1,0-6.78,2.55-6.78,6.78s2.58,6.81,6.51,6.81c1.43,0,2.4-.2,2.9-.45v-5.03h-3.43v-1.75h5.56v8.11Z"/><path d="M99.19,145.56c.02.75-.53,1.35-1.4,1.35-.78,0-1.33-.6-1.33-1.35s.57-1.38,1.38-1.38,1.35.6,1.35,1.38ZM96.73,161.07v-12.11h2.2v12.11h-2.2Z"/><path d="M102.81,161.07v-10.44h-1.7v-1.68h1.7v-.58c0-1.7.38-3.25,1.4-4.23.83-.8,1.93-1.13,2.95-1.13.78,0,1.45.18,1.88.35l-.3,1.7c-.33-.15-.78-.28-1.4-.28-1.88,0-2.35,1.65-2.35,3.5v.65h2.93v1.68h-2.93v10.44h-2.18Z"/><path d="M112.82,145.48v3.48h3.15v1.68h-3.15v6.53c0,1.5.43,2.35,1.65,2.35.58,0,1-.08,1.28-.15l.1,1.65c-.42.17-1.1.3-1.95.3-1.03,0-1.85-.33-2.38-.93-.62-.65-.85-1.73-.85-3.15v-6.61h-1.88v-1.68h1.88v-2.9l2.15-.58Z"/><path d="M135.62,160.52c-.8.4-2.4.8-4.45.8-4.75,0-8.33-3-8.33-8.53s3.58-8.86,8.81-8.86c2.1,0,3.43.45,4,.75l-.53,1.78c-.83-.4-2-.7-3.4-.7-3.95,0-6.58,2.53-6.58,6.96,0,4.13,2.38,6.78,6.48,6.78,1.33,0,2.68-.28,3.55-.7l.45,1.73Z"/><path d="M144.81,161.07l-.17-1.53h-.08c-.68.95-1.98,1.8-3.7,1.8-2.45,0-3.7-1.73-3.7-3.48,0-2.93,2.6-4.53,7.28-4.5v-.25c0-1-.28-2.8-2.75-2.8-1.13,0-2.3.35-3.15.9l-.5-1.45c1-.65,2.45-1.08,3.98-1.08,3.7,0,4.6,2.53,4.6,4.95v4.53c0,1.05.05,2.08.2,2.9h-2ZM144.49,154.89c-2.4-.05-5.13.38-5.13,2.73,0,1.43.95,2.1,2.08,2.1,1.58,0,2.58-1,2.93-2.03.08-.23.12-.48.12-.7v-2.1Z"/><path d="M150.17,152.74c0-1.43-.03-2.65-.1-3.78h1.93l.08,2.38h.1c.55-1.63,1.88-2.65,3.35-2.65.25,0,.43.02.63.08v2.08c-.23-.05-.45-.07-.75-.07-1.55,0-2.65,1.18-2.95,2.83-.05.3-.1.65-.1,1.03v6.46h-2.18v-8.33Z"/><path d="M168.56,143.31v14.64c0,1.08.03,2.3.1,3.13h-1.98l-.1-2.1h-.05c-.68,1.35-2.15,2.38-4.13,2.38-2.93,0-5.18-2.48-5.18-6.16-.03-4.03,2.48-6.51,5.43-6.51,1.85,0,3.1.88,3.65,1.85h.05v-7.23h2.2ZM166.36,153.89c0-.28-.03-.65-.1-.93-.33-1.4-1.53-2.55-3.18-2.55-2.28,0-3.63,2-3.63,4.68,0,2.45,1.2,4.48,3.58,4.48,1.48,0,2.83-.98,3.23-2.63.08-.3.1-.6.1-.95v-2.1Z"/><polyline class="b" points="142.74 132.09 161.56 121.08 149.01 98.27 153.45 95.67 143.81 78.53 96.36 104.85 106.46 121.84 110.29 119.7 116.41 130.87"/><line class="c" x1="114.73" y1="81.44" x2="140.9" y2="131.64"/><line class="c" x1="137.69" y1="94.91" x2="121.46" y2="90.77"/><line class="c" x1="113.05" y1="110.36" x2="118.4" y2="92.61"/><path class="c" d="M115.23,82.35c-1.58-2.03-4.42-3.14-7.19-3.14-4.78,0-8.65,3.87-8.65,8.65,0,.9.17,1.79.48,2.66,1.88,5.29,8.27,7.41,13.24,4.8l6.8-3.57"/><line class="b" x1="78.87" y1="82.99" x2="85.89" y2="84.59"/><line class="b" x1="91.15" y1="72.47" x2="81.58" y2="65.3"/><line class="b" x1="103.9" y1="61.79" x2="100.24" y2="54.78"/><line class="b" x1="119.21" y1="57.01" x2="118.09" y2="44.89"/><line class="b" x1="132.92" y1="58.92" x2="135.47" y2="51.59"/><line class="b" x1="145.04" y1="64.66" x2="152.05" y2="55.57"/><line class="b" x1="156.2" y1="77.25" x2="162.57" y2="74.07"/><line class="b" x1="110.29" y1="119.7" x2="149.01" y2="98.27"/><path class="c" d="M115.19,82.26c-.77-2.46,0-5.56,1.57-7.85,2.72-3.93,8.11-4.91,12.03-2.19.74.51,1.38,1.16,1.92,1.91,3.28,4.55,1.39,11.02-3.58,13.62l-6.81,3.56"/></svg>