<?xml version="1.0" encoding="UTF-8"?>
<svg id="Layer_1" xmlns="http://www.w3.org/2000/svg" viewBox="0 0 130 130">
  <defs>
    <style>
      .cls-1 {
        stroke: #282828;
      }

      .cls-1, .cls-2 {
        fill: none;
        stroke-linecap: round;
        stroke-linejoin: round;
      }

      .cls-2 {
        stroke: #ff1600;
      }

      .cls-3 {
        fill: #fff7f5;
      }
    </style>
  </defs>
  <ellipse class="cls-3" cx="65" cy="65" rx="51.93" ry="52.99"/>
  <g>
    <path class="cls-2" d="M31.94,86.45v4.09c0,5.15,11.06,5.21,11.53,5.21s11.53-.05,11.53-5.21v-4.14"/>
    <g>
      <path class="cls-2" d="M52.53,84.62c1.44-.77,2.47-1.86,2.47-3.43v-4.14"/>
      <path class="cls-2" d="M31.94,77.1v4.09c0,5.15,11.06,5.21,11.53,5.21.21,0,2.47-.01,4.99-.49"/>
    </g>
    <g>
      <path class="cls-2" d="M38.77,77.34c2.4.42,4.5.43,4.7.43.47,0,11.53-.05,11.53-5.21v-4.14"/>
      <path class="cls-2" d="M31.94,68.48v4.09c0,1.75,1.09,2.86,2.79,3.64"/>
    </g>
    <path class="cls-2" d="M53.04,66.51c1.23-.69,1.95-1.52,1.95-2.41,0-2.39-5.16-4.33-11.53-4.33s-11.53,1.94-11.53,4.33,5.16,4.33,11.53,4.33c2.3,0,3.79-.21,5.59-.65"/>
  </g>
  <polyline class="cls-1" points="36.38 57.6 36.38 40.93 89.95 40.93 89.95 95.59 55.37 95.59"/>
  <g>
    <line class="cls-1" x1="62.01" y1="70.14" x2="80.15" y2="50.36"/>
    <polyline class="cls-1" points="68.08 49.87 80.92 49.87 80.92 62.97"/>
  </g>
</svg>