<svg width="145" height="118" viewBox="0 0 145 118" fill="none" xmlns="http://www.w3.org/2000/svg">
<rect width="144.9" height="117.3" fill="#ED4F00"/>
<g style="mix-blend-mode:soft-light">
<path opacity="0.4" d="M104.38 28.9732C95.2363 25.6671 84.8945 28.2102 78.4587 35.2463C72.0672 28.1679 61.7255 25.6671 52.5378 28.9732C45.7024 31.4316 40.5981 36.2212 38.2457 42.452C35.6714 49.1914 36.4259 56.9056 40.3318 63.6026C48.765 78.0563 63.8116 88.5681 77.3934 96.9181C78.0592 97.2996 78.8582 97.2996 79.5239 96.9181C93.1058 88.5681 108.152 78.0987 116.586 63.6026C120.491 56.9056 121.246 49.1914 118.672 42.452C116.275 36.2212 111.215 31.4316 104.38 28.9732Z" fill="#D9D9D9"/>
<path d="M4 51.5722H52.2331L55.2044 48.6852L59.2112 59.123L67.1346 43.9771L75.1031 67.6953L83.0265 51.5722H122.095H142.015" stroke="white" stroke-width="3.33" stroke-linecap="round" stroke-linejoin="round"/>
<path d="M92.6882 22.4415C83.5449 19.1353 73.2031 21.6785 66.7673 28.7146C60.3758 21.6361 50.0341 19.1353 40.8463 22.4415C34.011 24.8999 28.9067 29.6895 26.5543 35.9202C23.98 42.6596 24.7345 50.3739 28.6404 57.0709C37.0736 71.5246 52.1202 82.0363 65.702 90.3864C66.3678 90.7679 67.1668 90.7679 67.8325 90.3864C81.4144 82.0363 96.461 71.567 104.894 57.0709C108.8 50.3739 109.555 42.6596 106.98 35.9202C104.583 29.6895 99.5235 24.8999 92.6882 22.4415Z" stroke="white" stroke-width="3.33" stroke-linecap="round" stroke-linejoin="round"/>
</g>
</svg>
