<?xml version="1.0" encoding="UTF-8"?><svg id="a" xmlns="http://www.w3.org/2000/svg" width="100" height="100" viewBox="0 0 100 100"><path d="M53.99,6.26l8.65,26.61c.56,1.73,2.17,2.9,3.99,2.9h27.98c4.07,0,5.76,5.21,2.47,7.6l-22.63,16.44c-1.47,1.07-2.09,2.97-1.53,4.7l8.65,26.61c1.26,3.87-3.17,7.09-6.46,4.7l-22.63-16.44c-1.47-1.07-3.47-1.07-4.94,0l-22.63,16.44c-3.29,2.39-7.72-.83-6.46-4.7l8.65-26.61c.56-1.73-.05-3.63-1.53-4.7L2.92,43.37c-3.29-2.39-1.6-7.6,2.47-7.6h27.98c1.82,0,3.43-1.17,3.99-2.9l8.65-26.61c1.26-3.87,6.73-3.87,7.99,0Z"/></svg>