<svg width="145" height="119" viewBox="0 0 145 119" fill="none" xmlns="http://www.w3.org/2000/svg">
<rect width="144.9" height="117.3" fill="#8C2800"/>
<g style="mix-blend-mode:soft-light">
<path d="M77.8918 64.6672C72.6363 69.837 67.5008 74.8337 62.4588 79.9102C62.0052 80.3633 61.9252 81.3759 61.9786 82.0954C62.4321 87.2786 63.019 92.4485 63.4058 97.6316C63.4725 98.5643 63.0323 99.7502 62.4321 100.483C61.0582 102.135 59.4442 103.601 57.8836 105.12C56.4029 106.559 56.0161 106.506 55.1491 104.627C52.1745 98.1913 49.2934 91.7023 46.2388 85.3066C45.7186 84.214 44.6248 83.1481 43.531 82.6151C37.1284 79.5505 30.659 76.6591 24.2164 73.6878C22.3356 72.8217 22.2823 72.4753 23.7362 70.9696C24.3898 70.2901 25.2168 69.7304 25.737 68.9709C28.1247 65.48 31.3393 65.0003 35.2743 65.6932C39.1959 66.386 43.1975 66.5726 47.1858 66.9057C47.8394 66.959 48.7198 66.7325 49.16 66.3061C54.1887 61.3094 59.1507 56.2329 64.2995 51.023C60.2845 49.2243 56.2429 47.4255 52.2012 45.6133C41.0366 40.6034 29.8854 35.5934 18.7341 30.5835C16.5332 29.5975 16.4932 29.2644 18.2406 27.4922C20.108 25.6268 22.0288 23.8147 23.8162 21.8827C24.83 20.7901 25.8971 20.377 27.391 20.5236C36.208 21.443 45.0249 22.2824 53.8419 23.1618C65.0865 24.2811 76.3178 25.4536 87.5624 26.4929C88.3894 26.5728 89.4965 25.9999 90.1368 25.3737C95.8458 19.7908 101.488 14.1412 107.13 8.50502C110.118 5.52037 113.613 3.41512 117.748 2.48241C122.63 1.37649 126.378 3.42844 126.645 7.5057C126.765 9.27783 126.432 11.1432 125.965 12.8754C125.031 16.433 122.897 19.3244 120.363 21.9093C114.854 27.4922 109.331 33.0751 103.729 38.5648C102.582 39.6973 102.315 40.8033 102.475 42.3356C104.489 62.029 106.437 81.7357 108.438 101.429C108.584 102.921 108.238 103.974 107.13 105C105.143 106.825 103.289 108.811 101.368 110.703C99.7007 112.342 99.3539 112.288 98.3935 110.183C91.8575 95.6463 85.3215 81.1094 78.7855 66.5726C78.5054 65.9596 78.2119 65.36 77.8918 64.6805V64.6672Z" stroke="white" stroke-width="2.66642" stroke-miterlimit="10"/>
<g style="mix-blend-mode:soft-light">
<g style="mix-blend-mode:soft-light">
<path d="M78.1049 71.2275C72.8368 76.4154 67.689 81.4296 62.6347 86.5239C62.1801 86.9785 62.0999 87.9947 62.1534 88.7167C62.608 93.918 63.1963 99.106 63.5841 104.307C63.6509 105.243 63.2097 106.433 62.608 107.169C61.2308 108.827 59.6129 110.297 58.0485 111.822C56.5643 113.266 56.1766 113.212 55.3075 111.327C52.3257 104.869 49.4376 98.3572 46.3757 91.9391C45.8542 90.8427 44.7578 89.773 43.6614 89.2382C37.2433 86.1629 30.7584 83.2614 24.3002 80.2797C22.4149 79.4105 22.3614 79.0629 23.8188 77.552C24.474 76.8701 25.303 76.3085 25.8245 75.5463C28.2179 72.0431 31.4403 71.5618 35.3847 72.2571C39.3158 72.9524 43.3271 73.1396 47.325 73.4738C47.9802 73.5273 48.8627 73.3 49.3039 72.8721C54.3448 67.858 59.3187 62.7637 64.4799 57.5357C60.4553 55.7306 56.4039 53.9255 52.3525 52.107C41.161 47.0796 29.9829 42.0521 18.8047 37.0246C16.5985 36.0352 16.5584 35.7009 18.31 33.9225C20.1819 32.0506 22.1074 30.2322 23.8991 28.2934C24.9153 27.1969 25.9849 26.7824 27.4825 26.9295C36.3207 27.8521 45.1589 28.6945 53.9971 29.577C65.2688 30.7001 76.5272 31.8768 87.7989 32.9197C88.6279 32.9999 89.7377 32.425 90.3795 31.7966C96.1023 26.1941 101.758 20.5248 107.414 14.8689C110.409 11.8738 113.912 9.76122 118.057 8.82525C122.951 7.71546 126.708 9.77459 126.976 13.8661C127.096 15.6444 126.762 17.5164 126.294 19.2546C125.358 22.8246 123.219 25.7261 120.678 28.3201C115.156 33.9225 109.62 39.525 104.005 45.0338C102.855 46.1703 102.587 47.2801 102.748 48.8178C104.767 68.5801 106.719 88.3557 108.724 108.118C108.872 109.616 108.524 110.672 107.414 111.701C105.422 113.533 103.563 115.526 101.638 117.424C99.9665 119.069 99.6188 119.015 98.6561 116.903C92.1043 102.315 85.5526 87.7273 79.0008 73.1396C78.72 72.5245 78.4259 71.9228 78.1049 71.2409V71.2275Z" fill="white" fill-opacity="0.3"/>
</g>
</g>
</g>
</svg>
