<svg width="96" height="96" viewBox="0 0 96 96" fill="none" xmlns="http://www.w3.org/2000/svg">
<path d="M48.4785 5.29688V28.2183" stroke="#7A5554" stroke-width="2" stroke-linecap="round" stroke-linejoin="round"/>
<path d="M48.4785 69.8203V89.3826" stroke="#7A5554" stroke-width="2" stroke-linecap="round" stroke-linejoin="round"/>
<path d="M90.5221 47.3398H71.4766" stroke="#7A5554" stroke-width="2" stroke-linecap="round" stroke-linejoin="round"/>
<path d="M26.3532 47.3398H6.43555" stroke="#7A5554" stroke-width="2" stroke-linecap="round" stroke-linejoin="round"/>
<path d="M78.2043 17.6133L72.0137 23.8039" stroke="#7A5554" stroke-width="2" stroke-linecap="round" stroke-linejoin="round"/>
<path d="M24.9445 70.8711L18.7539 77.0617" stroke="#7A5554" stroke-width="2" stroke-linecap="round" stroke-linejoin="round"/>
<path d="M78.2043 77.0617L72.0137 70.8711" stroke="#7A5554" stroke-width="2" stroke-linecap="round" stroke-linejoin="round"/>
<path d="M35.2155 34.0749L18.7539 17.6133" stroke="#7A5554" stroke-width="2" stroke-linecap="round" stroke-linejoin="round"/>
<path d="M56.8668 64.9836V50.4922H40.093V65.5542H43.4305H43.5597V55.9722H31.2754V65.5542" stroke="#FF3E00" stroke-width="2" stroke-linecap="round" stroke-linejoin="round"/>
<path d="M56.8012 65.556H53.1084V40.0938H67.2015V65.556" stroke="#FF3E00" stroke-width="2" stroke-linecap="round" stroke-linejoin="round"/>
<path d="M31.2754 49.2976L38.2089 41.4166L46.5527 42.0842L67.4716 22.3711" stroke="#FF3E00" stroke-width="2" stroke-linecap="round" stroke-linejoin="round"/>
<path d="M61.5381 21.8223H67.7825V28.0452" stroke="#FF3E00" stroke-width="2" stroke-linecap="round" stroke-linejoin="round"/>
<path d="M89.5602 13.1598L82.3965 5.99609L75.2327 13.1598L82.3965 20.3236L89.5602 13.1598Z" stroke="#7A5554" stroke-width="2" stroke-linecap="round" stroke-linejoin="round"/>
<path d="M21.7233 80.9997L14.5596 73.8359L7.39582 80.9997L14.5596 88.1634L21.7233 80.9997Z" stroke="#7A5554" stroke-width="2" stroke-linecap="round" stroke-linejoin="round"/>
<path d="M82.388 88.1579L89.5518 80.9941L82.388 73.8304L75.2243 80.9941L82.388 88.1579Z" stroke="#7A5554" stroke-width="2" stroke-linecap="round" stroke-linejoin="round"/>
<path d="M14.5638 20.3161L21.7275 13.1523L14.5638 5.9886L7.40004 13.1523L14.5638 20.3161Z" stroke="#7A5554" stroke-width="2" stroke-linecap="round" stroke-linejoin="round"/>
<path d="M9.34387 74.7381C4.07916 67.1479 1 57.932 1 47.9947C1 38.0574 4.35908 28.0233 10.0544 20.25" stroke="#7A5554" stroke-width="2" stroke-linecap="round" stroke-linejoin="round"/>
<path d="M75.343 86.2252C67.6343 91.7483 58.1923 94.9997 47.9966 94.9997C37.801 94.9997 28.0359 91.6407 20.2627 85.9453" stroke="#7A5554" stroke-width="2" stroke-linecap="round" stroke-linejoin="round"/>
<path d="M86.0635 20.4336C91.6835 28.1745 94.9887 37.7027 94.9887 48.006C94.9887 57.6419 92.0926 66.5994 87.1186 74.0497" stroke="#7A5554" stroke-width="2" stroke-linecap="round" stroke-linejoin="round"/>
<path d="M21.7021 9.04241C29.2062 3.96073 38.2499 1 47.9934 1C57.7369 1 66.2961 3.81 73.6817 8.63329" stroke="#7A5554" stroke-width="2" stroke-linecap="round" stroke-linejoin="round"/>
</svg>
