<svg width="88" height="90" viewBox="0 0 88 90" fill="none" xmlns="http://www.w3.org/2000/svg">
<g clip-path="url(#clip0_6074_17635)">
<path d="M0.711914 84.7195V0.710938H87.0922V84.7195H75.5085C75.85 82.841 76.0302 80.9057 76.0302 78.9323C76.0302 67.3391 69.8921 57.1878 60.6896 51.5335" stroke="#7A5554" stroke-width="1.5" stroke-linecap="round" stroke-linejoin="round"/>
<path d="M0.711914 84.7192H12.2957C11.9542 82.8502 11.7739 80.9053 11.7739 78.932C11.7739 61.1911 26.1564 46.8086 43.8973 46.8086C48.3942 46.8086 52.6729 47.7288 56.5627 49.3986" stroke="#7A5554" stroke-width="1.5" stroke-miterlimit="10" stroke-linecap="round"/>
<path d="M15.1133 17.9688H70.3189" stroke="#FF3E00" stroke-width="1.5" stroke-miterlimit="10" stroke-linecap="round"/>
<path d="M15.1133 30.1973H70.3189" stroke="#FF3E00" stroke-width="1.5" stroke-miterlimit="10" stroke-linecap="round"/>
</g>
<path d="M46.7868 85.2402C47.0781 84.7448 47.3404 84.2398 47.5638 83.7347C50.4389 77.4504 53.3916 71.1758 56.3152 64.9011C58.5978 60.0058 60.8803 55.1104 63.1629 50.2151C63.3475 49.8265 63.5223 49.4477 63.7068 49.0592C64.0759 48.321 63.7068 47.204 62.9686 46.8349C62.2305 46.4658 61.1135 46.6504 60.5598 47.3886L60.4724 47.5148L60.2101 47.8839L59.7828 48.4861L59.2097 49.2923L58.5007 50.2831L57.6751 51.4389C57.3642 51.876 57.0534 52.3131 56.7426 52.7404C56.4026 53.2164 56.0627 53.6923 55.7227 54.178C55.3536 54.6928 54.9845 55.2076 54.6252 55.7223L53.4596 57.3541L52.2455 59.0539C51.8278 59.6367 51.4102 60.2195 50.9925 60.8023C50.5748 61.385 50.1475 61.9872 49.7201 62.5797C49.2927 63.1819 48.8653 63.7744 48.438 64.3766C48.0106 64.9789 47.5832 65.5713 47.1656 66.1638L45.9126 67.9219C45.5046 68.495 45.0967 69.0583 44.6887 69.6314C44.3002 70.1753 43.902 70.729 43.5135 71.2729C43.1444 71.7877 42.7753 72.3122 42.3965 72.827C41.2018 74.4976 39.9294 76.0905 38.7832 77.8C37.6371 79.5095 36.3161 81.4327 36.4133 83.5016V83.521C36.4521 84.2495 36.6464 84.9682 37.0057 85.6093C37.3748 86.3475 38.1227 87.0954 38.8609 87.649C40.1625 88.5815 41.6486 88.9506 42.9404 88.5815C44.6693 88.0861 45.9029 86.7263 46.8062 85.2208L46.7868 85.2402Z" stroke="#FF3E00" stroke-width="2" stroke-linecap="round" stroke-linejoin="round"/>
<defs>
<clipPath id="clip0_6074_17635">
<rect width="87.8034" height="87.3955" fill="white"/>
</clipPath>
</defs>
</svg>
