<svg width="96" height="96" viewBox="0 0 96 96" fill="none" xmlns="http://www.w3.org/2000/svg">
<path d="M81.8114 81.2391C73.2442 89.7456 61.4133 95 48.3352 95C22.1907 95 1 73.9594 1 48C1 22.0406 22.1907 1 48.3352 1C62.2409 1 74.7479 6.96036 83.4083 16.4391" stroke="#7A5554" stroke-width="2" stroke-linecap="round" stroke-linejoin="round"/>
<path d="M92.127 30.1309C93.1527 32.6076 93.9686 35.1885 94.5631 37.8504" stroke="#7A5554" stroke-width="2" stroke-linecap="round" stroke-linejoin="round"/>
<path d="M94.6676 75.1864V42.2598H81.2981V75.1864H84.7483V51.9352H67.5906V75.1864H70.8426V59.6895H56.6339V75.1864H17.9824" stroke="#FF3E00" stroke-width="2" stroke-linecap="round" stroke-linejoin="round"/>
<path d="M17.9824 57.9903L32.7273 48.1412L44.1736 53.222L60.97 33.2924L70.9009 42.6206L93.8517 20.3301" stroke="#FF3E00" stroke-width="2" stroke-linecap="round" stroke-linejoin="round"/>
<path d="M87.5342 19.5156H94.4695V26.4019" stroke="#FF3E00" stroke-width="2" stroke-linecap="round" stroke-linejoin="round"/>
<path d="M29.8012 33.5106C27.4117 30.976 26.0946 27.4693 26.4792 23.7426C27.1902 16.9258 33.3213 11.9723 40.1867 12.6783C47.0522 13.3843 52.041 19.472 51.3299 26.2888C50.6189 33.1056 44.4878 38.059 37.6224 37.353C35.2446 37.11 33.0882 36.2188 31.3165 34.8647" stroke="#7A5554" stroke-width="2" stroke-linecap="round" stroke-linejoin="round"/>
<path d="M29.5106 33.7773L15.5117 45.0731" stroke="#7A5554" stroke-width="2" stroke-linecap="round" stroke-linejoin="round"/>
</svg>
