<svg width="709" height="345" viewBox="0 0 709 345" fill="none" xmlns="http://www.w3.org/2000/svg">
<g clip-path="url(#clip0_3860_20877)">
<path d="M163.257 66.7168H165.323" stroke="#32303B" stroke-linecap="round" stroke-linejoin="round"/>
<path d="M639.502 13H111.498C103.491 13 97 20.366 97 29.4524V369.548C97 378.634 103.491 386 111.498 386H639.502C647.509 386 654 378.634 654 369.548V29.4524C654 20.366 647.509 13 639.502 13Z" fill="#F5F5F5"/>
<g filter="url(#filter0_d_3860_20877)">
<path d="M343.277 24.5879H34.4463C30.5323 24.5879 27.3594 27.7964 27.3594 31.7544V123.259C27.3594 127.217 30.5323 130.426 34.4463 130.426H343.277C347.191 130.426 350.364 127.217 350.364 123.259V31.7544C350.364 27.7964 347.191 24.5879 343.277 24.5879Z" fill="white"/>
<path d="M343.277 24.5879H34.4463C30.5323 24.5879 27.3594 27.7964 27.3594 31.7544V123.259C27.3594 127.217 30.5323 130.426 34.4463 130.426H343.277C347.191 130.426 350.364 127.217 350.364 123.259V31.7544C350.364 27.7964 347.191 24.5879 343.277 24.5879Z" stroke="#D7D7D7" stroke-linecap="round" stroke-linejoin="round"/>
</g>
<path d="M110.109 38.8906H58.5733C51.1055 38.8906 45.0518 45.0124 45.0518 52.5639V101.93C45.0518 109.481 51.1055 115.603 58.5733 115.603H110.109C117.577 115.603 123.631 109.481 123.631 101.93V52.5639C123.631 45.0124 117.577 38.8906 110.109 38.8906Z" fill="#380000"/>
<path d="M145.507 64.9785V62.2832H138.522V60.209L146.081 48.502H148.706V59.4941H150.933V62.2832H148.706V64.9785H145.507ZM142.062 59.6582H145.729V53.7402L142.062 59.6582ZM159.147 65.1777C158.187 65.1777 157.319 64.9902 156.534 64.6035C155.737 64.2285 155.069 63.6777 154.507 62.9629C153.944 62.2598 153.499 61.3691 153.194 60.3027C152.878 59.248 152.726 58.0527 152.726 56.7402C152.726 55.498 152.866 54.3496 153.171 53.3066C153.464 52.2637 153.886 51.373 154.437 50.6348C154.976 49.8965 155.655 49.3223 156.464 48.9121C157.261 48.5137 158.163 48.3027 159.147 48.3027C160.097 48.3027 160.964 48.502 161.761 48.877C162.558 49.2637 163.237 49.8145 163.8 50.5176C164.362 51.2324 164.796 52.123 165.112 53.1777C165.417 54.2441 165.581 55.4277 165.581 56.7402C165.581 58.4277 165.323 59.8926 164.808 61.1582C164.292 62.4238 163.554 63.4199 162.581 64.123C161.597 64.8262 160.46 65.1777 159.147 65.1777ZM159.159 62.1426C160.12 62.1426 160.882 61.6738 161.421 60.7363C161.96 59.7988 162.241 58.4746 162.241 56.7402C162.241 55.0645 161.96 53.7402 161.421 52.7793C160.882 51.8184 160.12 51.3379 159.159 51.3379C158.198 51.3379 157.437 51.8066 156.886 52.7441C156.335 53.6816 156.065 55.0176 156.065 56.7402C156.065 57.8418 156.183 58.8027 156.429 59.6113C156.663 60.4316 157.026 61.0527 157.495 61.4863C157.964 61.9316 158.515 62.1426 159.159 62.1426ZM176.397 65.541L174.03 64.5215L181.589 47.5762L183.944 48.5957L176.397 65.541ZM172.507 57.3027C171.616 57.3027 170.808 57.1152 170.081 56.7168C169.343 56.3184 168.757 55.7559 168.323 55.0176C167.878 54.2793 167.667 53.4355 167.667 52.498C167.667 51.6309 167.866 50.8457 168.265 50.1191C168.663 49.3926 169.226 48.8184 169.976 48.3848C170.714 47.9629 171.558 47.7402 172.507 47.7402C173.397 47.7402 174.206 47.9395 174.944 48.3262C175.671 48.7246 176.257 49.2871 176.702 50.0137C177.136 50.7402 177.358 51.5723 177.358 52.498C177.358 53.377 177.159 54.1855 176.761 54.9121C176.362 55.6387 175.788 56.2246 175.038 56.6582C174.288 57.0918 173.444 57.3027 172.507 57.3027ZM172.53 55.0645C173.222 55.0645 173.784 54.8301 174.229 54.3379C174.675 53.8457 174.897 53.248 174.897 52.5215C174.897 52.0293 174.792 51.5957 174.581 51.209C174.37 50.8223 174.077 50.5293 173.726 50.3184C173.362 50.1191 172.964 50.0137 172.53 50.0137C172.062 50.0137 171.651 50.1309 171.3 50.3535C170.937 50.5762 170.655 50.8809 170.468 51.2559C170.269 51.6426 170.175 52.0645 170.175 52.5215C170.175 53.0137 170.28 53.459 170.491 53.8457C170.702 54.2441 170.983 54.5371 171.347 54.748C171.698 54.959 172.097 55.0645 172.53 55.0645ZM185.397 65.1777C184.507 65.1777 183.698 64.9902 182.972 64.5918C182.245 64.1934 181.659 63.6309 181.226 62.8926C180.78 62.166 180.569 61.334 180.569 60.3965C180.569 59.7402 180.687 59.1309 180.921 58.5449C181.155 57.959 181.472 57.4551 181.894 57.0215C182.304 56.5996 182.808 56.2598 183.417 56.002C184.026 55.7559 184.683 55.627 185.397 55.627C186.054 55.627 186.687 55.7441 187.284 55.9785C187.87 56.2129 188.386 56.5293 188.831 56.9395C189.265 57.3496 189.604 57.8535 189.862 58.4512C190.12 59.0488 190.249 59.6934 190.249 60.3965C190.249 61.2754 190.05 62.0723 189.651 62.7988C189.253 63.5254 188.679 64.0996 187.929 64.5332C187.179 64.9668 186.335 65.1777 185.397 65.1777ZM185.421 62.9395C186.112 62.9395 186.675 62.7051 187.12 62.2129C187.565 61.7207 187.788 61.123 187.788 60.4082C187.788 59.916 187.683 59.4824 187.472 59.0957C187.261 58.709 186.968 58.416 186.616 58.2051C186.253 57.9941 185.854 57.8887 185.421 57.8887C184.718 57.8887 184.155 58.1348 183.71 58.627C183.265 59.1191 183.054 59.7051 183.054 60.4082C183.054 60.9004 183.159 61.3457 183.37 61.7324C183.581 62.1191 183.874 62.4121 184.237 62.623C184.589 62.834 184.987 62.9395 185.421 62.9395Z" fill="#191919"/>
<path d="M138.5 85.9668V73.1868H140.066V85.9668H138.5ZM143.116 85.9668V77.2008H144.574V78.7848H144.592C145.276 77.7228 146.428 77.0928 147.778 77.0928C149.668 77.0928 150.928 78.2628 150.928 80.7648V85.9668H149.47V81.1788C149.47 79.1268 148.588 78.4248 147.31 78.4248C145.654 78.4248 144.574 79.6128 144.574 81.5928V85.9668H143.116ZM157.303 86.0748C154.747 86.0748 152.929 84.2568 152.929 81.5928C152.929 78.9468 154.747 77.0928 157.357 77.0928C158.671 77.0928 160.021 77.6328 160.885 78.6588L159.895 79.5408C159.337 78.8928 158.473 78.4248 157.429 78.4248C155.629 78.4248 154.423 79.7388 154.423 81.5928C154.423 83.4648 155.629 84.7428 157.411 84.7428C158.455 84.7428 159.373 84.2928 159.913 83.6268L160.921 84.5448C160.183 85.4268 159.013 86.0748 157.303 86.0748ZM162.874 85.9668V77.2008H164.332V78.8028H164.368C164.998 77.7408 166.006 77.0928 167.212 77.0928C167.338 77.0928 167.446 77.0928 167.572 77.1108V78.7308C167.356 78.7128 167.14 78.6948 166.996 78.6948C165.322 78.6948 164.332 79.9728 164.332 81.7368V85.9668H162.874ZM176.732 81.4308C176.732 81.6648 176.696 81.9168 176.696 82.0248H169.856C170.054 83.6628 171.206 84.7428 172.862 84.7428C174.032 84.7428 174.86 84.2388 175.4 83.5728L176.426 84.4368C175.67 85.4088 174.572 86.0748 172.808 86.0748C170.216 86.0748 168.38 84.2748 168.38 81.5928C168.38 78.9468 170.198 77.0928 172.7 77.0928C175.094 77.0928 176.732 78.9288 176.732 81.4308ZM172.682 78.4248C171.278 78.4248 170.162 79.3428 169.892 80.8368H175.274C175.058 79.3968 174.122 78.4248 172.682 78.4248ZM182.56 86.0748C180.148 86.0748 178.294 84.3108 178.294 81.6468C178.294 79.0548 180.076 77.0928 182.56 77.0928C183.856 77.0928 184.99 77.7048 185.62 78.7668L185.656 78.7488V77.2008H187.114V85.9668H185.71V84.3828H185.692C185.062 85.4268 183.982 86.0748 182.56 86.0748ZM182.776 84.7428C184.396 84.7428 185.71 83.5008 185.71 81.6468C185.71 79.8468 184.504 78.4248 182.776 78.4248C181.12 78.4248 179.77 79.7028 179.77 81.6468C179.77 83.4108 180.976 84.7428 182.776 84.7428ZM192.379 86.0748C190.921 86.0748 189.805 85.5708 188.959 84.8328L189.697 83.7168C190.381 84.3828 191.155 84.7788 192.379 84.7788C193.441 84.7788 194.053 84.2568 194.053 83.5908C194.053 82.8168 193.243 82.6008 191.965 82.1328C190.543 81.6288 189.337 81.0528 189.337 79.4508C189.337 78.1008 190.561 77.0928 192.217 77.0928C193.279 77.0928 194.269 77.3808 195.241 78.1728L194.485 79.3248C193.729 78.6228 192.919 78.3888 192.163 78.3888C191.479 78.3888 190.813 78.7848 190.813 79.4508C190.813 80.1348 191.515 80.4768 192.469 80.8188C194.323 81.5388 195.547 81.8628 195.529 83.5728C195.529 84.9408 194.485 86.0748 192.379 86.0748ZM205.385 81.4308C205.385 81.6648 205.349 81.9168 205.349 82.0248H198.509C198.707 83.6628 199.859 84.7428 201.515 84.7428C202.685 84.7428 203.513 84.2388 204.053 83.5728L205.079 84.4368C204.323 85.4088 203.225 86.0748 201.461 86.0748C198.869 86.0748 197.033 84.2748 197.033 81.5928C197.033 78.9468 198.851 77.0928 201.353 77.0928C203.747 77.0928 205.385 78.9288 205.385 81.4308ZM201.335 78.4248C199.931 78.4248 198.815 79.3428 198.545 80.8368H203.927C203.711 79.3968 202.775 78.4248 201.335 78.4248ZM213.273 75.5988C212.679 75.5988 212.211 75.1308 212.211 74.5548C212.211 73.9788 212.679 73.5108 213.273 73.5108C213.867 73.5108 214.335 73.9788 214.335 74.5548C214.335 75.1308 213.867 75.5988 213.273 75.5988ZM212.535 85.9668V77.2008H213.993V85.9668H212.535ZM216.839 85.9668V77.2008H218.297V78.7848H218.315C218.999 77.7228 220.151 77.0928 221.501 77.0928C223.391 77.0928 224.651 78.2628 224.651 80.7648V85.9668H223.193V81.1788C223.193 79.1268 222.311 78.4248 221.033 78.4248C219.377 78.4248 218.297 79.6128 218.297 81.5928V85.9668H216.839ZM142.01 108.075C139.454 108.075 137.636 106.257 137.636 103.593C137.636 100.947 139.454 99.0928 142.064 99.0928C143.378 99.0928 144.728 99.6328 145.592 100.659L144.602 101.541C144.044 100.893 143.18 100.425 142.136 100.425C140.336 100.425 139.13 101.739 139.13 103.593C139.13 105.465 140.336 106.743 142.118 106.743C143.162 106.743 144.08 106.293 144.62 105.627L145.628 106.545C144.89 107.427 143.72 108.075 142.01 108.075ZM150.677 108.075C148.661 108.075 147.383 106.923 147.383 104.421V99.2008H148.841V104.007C148.841 105.987 149.597 106.743 150.983 106.743C152.387 106.743 153.593 105.537 153.593 103.449V99.2008H155.051V107.967H153.593V106.455H153.575C152.909 107.499 151.829 108.075 150.677 108.075ZM160.334 108.075C158.876 108.075 157.76 107.571 156.914 106.833L157.652 105.717C158.336 106.383 159.11 106.779 160.334 106.779C161.396 106.779 162.008 106.257 162.008 105.591C162.008 104.817 161.198 104.601 159.92 104.133C158.498 103.629 157.292 103.053 157.292 101.451C157.292 100.101 158.516 99.0928 160.172 99.0928C161.234 99.0928 162.224 99.3808 163.196 100.173L162.44 101.325C161.684 100.623 160.874 100.389 160.118 100.389C159.434 100.389 158.768 100.785 158.768 101.451C158.768 102.135 159.47 102.477 160.424 102.819C162.278 103.539 163.502 103.863 163.484 105.573C163.484 106.941 162.44 108.075 160.334 108.075ZM168.012 108.075C166.464 108.075 165.744 107.121 165.744 105.357V100.461H164.61V99.2008H165.744V96.2128L167.202 96.0508V99.2008H170.1V100.461H167.202V105.141C167.202 106.203 167.436 106.707 168.264 106.707C168.786 106.707 169.326 106.491 169.758 106.257L170.136 107.535C169.65 107.823 169.056 108.075 168.012 108.075ZM175.606 108.075C172.888 108.075 171.07 106.113 171.07 103.593C171.07 101.073 172.888 99.0928 175.606 99.0928C178.198 99.0928 180.124 100.929 180.124 103.593C180.124 106.257 178.198 108.075 175.606 108.075ZM175.606 106.743C177.28 106.743 178.63 105.465 178.63 103.593C178.63 101.721 177.298 100.425 175.606 100.425C173.77 100.425 172.564 101.847 172.564 103.593C172.564 105.339 173.788 106.743 175.606 106.743ZM182.298 107.967V99.2008H183.756V100.785H183.774C184.44 99.7228 185.538 99.0928 186.708 99.0928C188.022 99.0928 188.976 99.7588 189.426 100.965H189.444C190.11 99.7768 191.298 99.0928 192.666 99.0928C194.61 99.0928 195.69 100.425 195.69 102.927V107.967H194.232V103.323C194.232 101.451 193.566 100.425 192.234 100.425C190.866 100.425 189.768 101.649 189.768 103.611V107.967H188.31V103.323C188.31 101.451 187.59 100.425 186.276 100.425C184.836 100.425 183.756 101.649 183.756 103.611V107.967H182.298ZM206.017 103.431C206.017 103.665 205.981 103.917 205.981 104.025H199.141C199.339 105.663 200.491 106.743 202.147 106.743C203.317 106.743 204.145 106.239 204.685 105.573L205.711 106.437C204.955 107.409 203.857 108.075 202.093 108.075C199.501 108.075 197.665 106.275 197.665 103.593C197.665 100.947 199.483 99.0928 201.985 99.0928C204.379 99.0928 206.017 100.929 206.017 103.431ZM201.967 100.425C200.563 100.425 199.447 101.343 199.177 102.837H204.559C204.343 101.397 203.407 100.425 201.967 100.425ZM208.155 107.967V99.2008H209.613V100.803H209.649C210.279 99.7408 211.287 99.0928 212.493 99.0928C212.619 99.0928 212.727 99.0928 212.853 99.1108V100.731C212.637 100.713 212.421 100.695 212.277 100.695C210.603 100.695 209.613 101.973 209.613 103.737V107.967H208.155ZM140.84 130.075C139.382 130.075 138.266 129.571 137.42 128.833L138.158 127.717C138.842 128.383 139.616 128.779 140.84 128.779C141.902 128.779 142.514 128.257 142.514 127.591C142.514 126.817 141.704 126.601 140.426 126.133C139.004 125.629 137.798 125.053 137.798 123.451C137.798 122.101 139.022 121.093 140.678 121.093C141.74 121.093 142.73 121.381 143.702 122.173L142.946 123.325C142.19 122.623 141.38 122.389 140.624 122.389C139.94 122.389 139.274 122.785 139.274 123.451C139.274 124.135 139.976 124.477 140.93 124.819C142.784 125.539 144.008 125.863 143.99 127.573C143.99 128.941 142.946 130.075 140.84 130.075ZM149.531 130.075C147.119 130.075 145.265 128.311 145.265 125.647C145.265 123.055 147.047 121.093 149.531 121.093C150.827 121.093 151.961 121.705 152.591 122.767L152.627 122.749V121.201H154.085V129.967H152.681V128.383H152.663C152.033 129.427 150.953 130.075 149.531 130.075ZM149.747 128.743C151.367 128.743 152.681 127.501 152.681 125.647C152.681 123.847 151.475 122.425 149.747 122.425C148.091 122.425 146.741 123.703 146.741 125.647C146.741 127.411 147.947 128.743 149.747 128.743ZM159.17 130.075C157.622 130.075 156.902 129.121 156.902 127.357V122.461H155.768V121.201H156.902V118.213L158.36 118.051V121.201H161.258V122.461H158.36V127.141C158.36 128.203 158.594 128.707 159.422 128.707C159.944 128.707 160.484 128.491 160.916 128.257L161.294 129.535C160.808 129.823 160.214 130.075 159.17 130.075ZM164.001 119.599C163.407 119.599 162.939 119.131 162.939 118.555C162.939 117.979 163.407 117.511 164.001 117.511C164.595 117.511 165.063 117.979 165.063 118.555C165.063 119.131 164.595 119.599 164.001 119.599ZM163.263 129.967V121.201H164.721V129.967H163.263ZM170.213 130.075C168.755 130.075 167.639 129.571 166.793 128.833L167.531 127.717C168.215 128.383 168.989 128.779 170.213 128.779C171.275 128.779 171.887 128.257 171.887 127.591C171.887 126.817 171.077 126.601 169.799 126.133C168.377 125.629 167.171 125.053 167.171 123.451C167.171 122.101 168.395 121.093 170.051 121.093C171.113 121.093 172.103 121.381 173.075 122.173L172.319 123.325C171.563 122.623 170.753 122.389 169.997 122.389C169.313 122.389 168.647 122.785 168.647 123.451C168.647 124.135 169.349 124.477 170.303 124.819C172.157 125.539 173.381 125.863 173.363 127.573C173.363 128.941 172.319 130.075 170.213 130.075ZM175.785 129.967V122.461H174.723V121.201H175.785V119.419C175.785 117.547 176.685 116.593 178.251 116.593C179.133 116.593 179.799 116.863 180.285 117.169L179.961 118.411C179.403 118.123 178.917 117.943 178.431 117.943C177.711 117.943 177.243 118.411 177.243 119.563V121.201H179.727V122.461H177.243V129.967H175.785ZM184.88 130.075C182.468 130.075 180.614 128.311 180.614 125.647C180.614 123.055 182.396 121.093 184.88 121.093C186.176 121.093 187.31 121.705 187.94 122.767L187.976 122.749V121.201H189.434V129.967H188.03V128.383H188.012C187.382 129.427 186.302 130.075 184.88 130.075ZM185.096 128.743C186.716 128.743 188.03 127.501 188.03 125.647C188.03 123.847 186.824 122.425 185.096 122.425C183.44 122.425 182.09 123.703 182.09 125.647C182.09 127.411 183.296 128.743 185.096 128.743ZM195.87 130.075C193.314 130.075 191.496 128.257 191.496 125.593C191.496 122.947 193.314 121.093 195.924 121.093C197.238 121.093 198.588 121.633 199.452 122.659L198.462 123.541C197.904 122.893 197.04 122.425 195.996 122.425C194.196 122.425 192.99 123.739 192.99 125.593C192.99 127.465 194.196 128.743 195.978 128.743C197.022 128.743 197.94 128.293 198.48 127.627L199.488 128.545C198.75 129.427 197.58 130.075 195.87 130.075ZM203.906 130.075C202.358 130.075 201.638 129.121 201.638 127.357V122.461H200.504V121.201H201.638V118.213L203.096 118.051V121.201H205.994V122.461H203.096V127.141C203.096 128.203 203.33 128.707 204.158 128.707C204.68 128.707 205.22 128.491 205.652 128.257L206.03 129.535C205.544 129.823 204.95 130.075 203.906 130.075ZM208.737 119.599C208.143 119.599 207.675 119.131 207.675 118.555C207.675 117.979 208.143 117.511 208.737 117.511C209.331 117.511 209.799 117.979 209.799 118.555C209.799 119.131 209.331 119.599 208.737 119.599ZM207.999 129.967V121.201H209.457V129.967H207.999ZM216.282 130.075C213.564 130.075 211.746 128.113 211.746 125.593C211.746 123.073 213.564 121.093 216.282 121.093C218.874 121.093 220.8 122.929 220.8 125.593C220.8 128.257 218.874 130.075 216.282 130.075ZM216.282 128.743C217.956 128.743 219.306 127.465 219.306 125.593C219.306 123.721 217.974 122.425 216.282 122.425C214.446 122.425 213.24 123.847 213.24 125.593C213.24 127.339 214.464 128.743 216.282 128.743ZM222.973 129.967V121.201H224.431V122.785H224.449C225.133 121.723 226.285 121.093 227.635 121.093C229.525 121.093 230.785 122.263 230.785 124.765V129.967H229.327V125.179C229.327 123.127 228.445 122.425 227.167 122.425C225.511 122.425 224.431 123.613 224.431 125.593V129.967H222.973Z" fill="#191919"/>
<path d="M627.184 105H236.918C223.156 105 212 116.281 212 130.198V246.15C212 260.067 223.156 271.348 236.918 271.348H627.184C640.945 271.348 652.102 260.067 652.102 246.15V130.198C652.102 116.281 640.945 105 627.184 105Z" fill="#380000"/>
<path d="M576.577 171.068H298.615C279.329 171.068 263.694 186.878 263.694 206.381V207.61C263.694 227.113 279.329 242.923 298.615 242.923H576.577C595.863 242.923 611.498 227.113 611.498 207.61V206.381C611.498 186.878 595.863 171.068 576.577 171.068Z" fill="#9C9C9C"/>
<path d="M589.386 155.965H285.804C266.518 155.965 250.884 171.775 250.884 191.277V192.507C250.884 212.009 266.518 227.819 285.804 227.819H589.386C608.672 227.819 624.307 212.009 624.307 192.507V191.277C624.307 171.775 608.672 155.965 589.386 155.965Z" fill="#DBDBDB"/>
<path d="M594.665 136.535H280.527C261.241 136.535 245.606 152.345 245.606 171.848V173.077C245.606 192.58 261.241 208.39 280.527 208.39H594.665C613.951 208.39 629.586 192.58 629.586 173.077V171.848C629.586 152.345 613.951 136.535 594.665 136.535Z" fill="white"/>
<path d="M278.708 164.99H335.67" stroke="#DDDDE8" stroke-width="8" stroke-linecap="round" stroke-linejoin="round"/>
<path d="M278.708 182.752H552.074" stroke="#F1F1F5" stroke-width="4" stroke-linecap="round" stroke-linejoin="round"/>
<path d="M354.272 164.99H411.235" stroke="#DDDDE8" stroke-width="8" stroke-linecap="round" stroke-linejoin="round"/>
<path d="M432.723 164.99H552.746" stroke="#DDDDE8" stroke-width="8" stroke-linecap="round" stroke-linejoin="round"/>
<path d="M592.036 192.086C603.008 192.086 611.903 183.092 611.903 171.996C611.903 160.901 603.008 151.906 592.036 151.906C581.064 151.906 572.169 160.901 572.169 171.996C572.169 183.092 581.064 192.086 592.036 192.086Z" fill="#F1F1F5" stroke="#DDDDE8" stroke-width="4" stroke-linecap="round" stroke-linejoin="round"/>
<path d="M603.007 205.002L595.524 187.99L586.955 196.706L585.67 158.734L614.828 185.731L601.999 185.581L610.163 201.683L603.007 205.002Z" fill="#380000"/>
<path d="M278.427 247.877H146.167C135.959 247.877 127.684 256.245 127.684 266.568V266.578C127.684 276.9 135.959 285.269 146.167 285.269H278.427C288.635 285.269 296.91 276.9 296.91 266.578V266.568C296.91 256.245 288.635 247.877 278.427 247.877Z" fill="#580018"/>
<path d="M167.977 270.633V262.107H173.338V263.408H169.424V265.758H172.588V267.059H169.424V269.332H173.59V270.633H167.977ZM182.15 264.691C182.807 264.691 183.316 264.908 183.674 265.33C184.025 265.752 184.207 266.391 184.207 267.246V270.639H182.865V267.586C182.865 266.473 182.479 265.91 181.717 265.91C181.324 265.91 180.996 266.074 180.738 266.396C180.48 266.719 180.352 267.158 180.352 267.715V270.639H179.01V267.586C179.01 266.473 178.617 265.91 177.844 265.91C177.434 265.91 177.094 266.074 176.83 266.396C176.566 266.719 176.438 267.158 176.438 267.715V270.633H175.096V264.779H176.438V265.588H176.455C176.689 265.301 176.971 265.078 177.287 264.926C177.604 264.773 177.938 264.691 178.283 264.691C179.098 264.691 179.678 265.02 180.029 265.664H180.053C180.299 265.348 180.598 265.107 180.961 264.943C181.318 264.779 181.717 264.691 182.15 264.691ZM190.166 264.779H191.508V270.633H190.225V269.848H190.207C189.762 270.434 189.141 270.727 188.344 270.727C188.021 270.727 187.717 270.686 187.424 270.592C187.131 270.504 186.873 270.369 186.639 270.193C186.404 270.018 186.205 269.812 186.035 269.572C185.865 269.332 185.736 269.057 185.643 268.74C185.549 268.424 185.508 268.09 185.508 267.732C185.508 267.299 185.578 266.895 185.725 266.514C185.865 266.139 186.064 265.816 186.316 265.547C186.562 265.283 186.861 265.072 187.213 264.92C187.559 264.768 187.934 264.691 188.332 264.691C189.094 264.691 189.697 264.955 190.143 265.482H190.166V264.779ZM188.555 269.508C189.018 269.508 189.41 269.344 189.732 269.016C190.055 268.688 190.219 268.26 190.219 267.738C190.219 267.223 190.061 266.789 189.744 266.438C189.428 266.086 189.035 265.91 188.561 265.91C188.326 265.91 188.104 265.957 187.898 266.039C187.693 266.127 187.518 266.25 187.365 266.402C187.213 266.555 187.09 266.748 187.002 266.982C186.914 267.217 186.873 267.469 186.873 267.738C186.873 268.26 187.025 268.688 187.342 269.016C187.652 269.344 188.057 269.508 188.555 269.508ZM193.969 263.906C193.711 263.906 193.5 263.824 193.324 263.648C193.148 263.473 193.061 263.262 193.061 263.016C193.061 262.77 193.148 262.564 193.324 262.389C193.5 262.213 193.711 262.125 193.969 262.125C194.215 262.125 194.426 262.213 194.602 262.389C194.777 262.564 194.871 262.775 194.871 263.016C194.871 263.18 194.83 263.326 194.748 263.461C194.666 263.602 194.555 263.707 194.414 263.789C194.273 263.871 194.127 263.906 193.969 263.906ZM193.289 270.633V264.779H194.631V270.633H193.289ZM196.559 270.633V261.797H197.9V270.633H196.559ZM170.525 285.727C169.963 285.727 169.412 285.615 168.885 285.393C168.352 285.17 167.865 284.836 167.432 284.391L168.346 283.266C168.645 283.629 168.99 283.91 169.377 284.104C169.764 284.297 170.15 284.391 170.531 284.391C170.988 284.391 171.34 284.303 171.586 284.115C171.826 283.928 171.949 283.676 171.949 283.348C171.949 283.242 171.932 283.148 171.908 283.061C171.885 282.973 171.85 282.896 171.814 282.826C171.773 282.756 171.715 282.691 171.639 282.621C171.557 282.557 171.48 282.498 171.404 282.451C171.328 282.404 171.223 282.357 171.094 282.299C170.965 282.24 170.842 282.193 170.736 282.146C170.625 282.105 170.479 282.053 170.303 281.988C170.092 281.918 169.904 281.848 169.752 281.783C169.594 281.725 169.418 281.643 169.23 281.549C169.043 281.455 168.879 281.361 168.744 281.268C168.609 281.174 168.475 281.057 168.34 280.928C168.199 280.799 168.094 280.658 168.012 280.512C167.93 280.365 167.859 280.195 167.807 280.008C167.754 279.82 167.73 279.615 167.73 279.398C167.73 278.965 167.848 278.561 168.094 278.191C168.334 277.828 168.662 277.541 169.072 277.33C169.482 277.119 169.934 277.014 170.42 277.014C171.404 277.014 172.348 277.359 173.244 278.062L172.383 279.199C171.68 278.619 171.029 278.326 170.42 278.326C170.08 278.326 169.793 278.42 169.57 278.596C169.348 278.771 169.23 279.018 169.23 279.322C169.225 279.615 169.365 279.85 169.652 280.037C169.834 280.154 170.227 280.33 170.824 280.559C171.527 280.84 172.008 281.045 172.254 281.18C172.793 281.479 173.145 281.854 173.314 282.299C173.408 282.557 173.461 282.85 173.461 283.178C173.461 283.518 173.402 283.834 173.285 284.115C173.168 284.402 173.01 284.643 172.816 284.836C172.623 285.035 172.4 285.199 172.143 285.334C171.885 285.475 171.621 285.574 171.352 285.633C171.076 285.697 170.801 285.727 170.525 285.727ZM178.805 279.779H180.146V285.633H178.805V284.871H178.787C178.553 285.152 178.283 285.363 177.973 285.51C177.656 285.656 177.328 285.727 176.982 285.727C176.648 285.727 176.35 285.686 176.092 285.598C175.834 285.51 175.605 285.375 175.406 285.188C175.207 285.006 175.061 284.76 174.955 284.449C174.85 284.139 174.797 283.77 174.797 283.342V279.779H176.139V282.979C176.139 283.271 176.156 283.518 176.203 283.711C176.25 283.91 176.32 284.062 176.42 284.18C176.514 284.297 176.637 284.385 176.777 284.432C176.918 284.479 177.088 284.502 177.299 284.502C177.498 284.502 177.686 284.461 177.867 284.379C178.043 284.297 178.207 284.174 178.348 284.016C178.488 283.863 178.6 283.658 178.682 283.412C178.764 283.166 178.805 282.885 178.805 282.58V279.779ZM186.105 279.779H187.447V285.029C187.447 285.393 187.412 285.727 187.348 286.031C187.277 286.336 187.172 286.617 187.02 286.875C186.867 287.133 186.68 287.355 186.451 287.531C186.223 287.707 185.941 287.848 185.607 287.947C185.268 288.047 184.887 288.094 184.465 288.094C184.02 288.094 183.598 288.041 183.188 287.936C182.777 287.83 182.408 287.684 182.08 287.484L182.396 286.301C182.771 286.5 183.1 286.646 183.387 286.74C183.674 286.834 184.008 286.881 184.389 286.881C184.939 286.881 185.373 286.746 185.678 286.471C185.982 286.201 186.135 285.855 186.135 285.439V284.818H186.111C185.654 285.299 185.062 285.533 184.336 285.533C183.791 285.533 183.305 285.416 182.871 285.182C182.438 284.947 182.092 284.607 181.846 284.162C181.6 283.723 181.477 283.219 181.477 282.645C181.477 282.082 181.594 281.578 181.828 281.127C182.062 280.676 182.396 280.324 182.824 280.066C183.246 279.814 183.727 279.686 184.266 279.686C184.605 279.686 184.928 279.75 185.244 279.867C185.561 279.99 185.836 280.166 186.082 280.395H186.105V279.779ZM184.512 284.297C184.998 284.297 185.396 284.139 185.701 283.816C186.006 283.494 186.164 283.084 186.164 282.586C186.164 282.34 186.117 282.117 186.035 281.906C185.947 281.695 185.83 281.52 185.684 281.379C185.537 281.238 185.361 281.127 185.162 281.045C184.957 280.963 184.74 280.922 184.512 280.922C184.014 280.922 183.609 281.08 183.305 281.391C182.994 281.707 182.842 282.111 182.842 282.604C182.842 283.119 182.994 283.535 183.311 283.84C183.627 284.145 184.025 284.297 184.512 284.297ZM193.395 279.779H194.736V285.029C194.736 285.393 194.701 285.727 194.637 286.031C194.566 286.336 194.461 286.617 194.309 286.875C194.156 287.133 193.969 287.355 193.74 287.531C193.512 287.707 193.23 287.848 192.896 287.947C192.557 288.047 192.176 288.094 191.754 288.094C191.309 288.094 190.887 288.041 190.477 287.936C190.066 287.83 189.697 287.684 189.369 287.484L189.686 286.301C190.061 286.5 190.389 286.646 190.676 286.74C190.963 286.834 191.297 286.881 191.678 286.881C192.229 286.881 192.662 286.746 192.967 286.471C193.271 286.201 193.424 285.855 193.424 285.439V284.818H193.4C192.943 285.299 192.352 285.533 191.625 285.533C191.08 285.533 190.594 285.416 190.16 285.182C189.727 284.947 189.381 284.607 189.135 284.162C188.889 283.723 188.766 283.219 188.766 282.645C188.766 282.082 188.883 281.578 189.117 281.127C189.352 280.676 189.686 280.324 190.113 280.066C190.535 279.814 191.016 279.686 191.555 279.686C191.895 279.686 192.217 279.75 192.533 279.867C192.85 279.99 193.125 280.166 193.371 280.395H193.395V279.779ZM191.801 284.297C192.287 284.297 192.686 284.139 192.99 283.816C193.295 283.494 193.453 283.084 193.453 282.586C193.453 282.34 193.406 282.117 193.324 281.906C193.236 281.695 193.119 281.52 192.973 281.379C192.826 281.238 192.65 281.127 192.451 281.045C192.246 280.963 192.029 280.922 191.801 280.922C191.303 280.922 190.898 281.08 190.594 281.391C190.283 281.707 190.131 282.111 190.131 282.604C190.131 283.119 190.283 283.535 190.6 283.84C190.916 284.145 191.314 284.297 191.801 284.297ZM201.773 282.639C201.773 282.855 201.762 283.031 201.738 283.172H197.473C197.555 283.588 197.748 283.916 198.047 284.15C198.346 284.391 198.709 284.508 199.143 284.508C199.746 284.508 200.232 284.279 200.602 283.816L201.539 284.619C201.27 284.959 200.93 285.229 200.514 285.428C200.098 285.627 199.617 285.727 199.072 285.727C198.504 285.727 197.994 285.604 197.543 285.357C197.086 285.111 196.729 284.76 196.471 284.297C196.207 283.834 196.078 283.301 196.078 282.703C196.078 282.264 196.148 281.854 196.295 281.479C196.436 281.104 196.635 280.787 196.893 280.523C197.145 280.266 197.449 280.061 197.801 279.914C198.152 279.768 198.527 279.691 198.932 279.691C199.494 279.691 199.998 279.82 200.432 280.072C200.865 280.33 201.193 280.676 201.428 281.121C201.656 281.566 201.773 282.076 201.773 282.639ZM199.002 280.91C198.627 280.91 198.311 281.016 198.041 281.221C197.771 281.426 197.59 281.713 197.496 282.088H200.426C200.367 281.854 200.273 281.648 200.15 281.473C200.027 281.297 199.869 281.162 199.67 281.062C199.471 280.963 199.248 280.91 199.002 280.91ZM205.037 285.727C204.105 285.727 203.314 285.445 202.67 284.871L203.35 283.863C203.584 284.104 203.836 284.279 204.105 284.391C204.375 284.502 204.686 284.555 205.037 284.555C205.289 284.555 205.488 284.502 205.635 284.396C205.781 284.291 205.857 284.156 205.857 283.98C205.857 283.84 205.77 283.729 205.605 283.635C205.441 283.541 205.137 283.418 204.697 283.266C204.521 283.207 204.363 283.148 204.229 283.09C204.088 283.031 203.947 282.967 203.807 282.885C203.666 282.803 203.543 282.715 203.443 282.615C203.338 282.521 203.244 282.41 203.162 282.287C203.08 282.164 203.016 282.023 202.975 281.865C202.928 281.713 202.91 281.537 202.91 281.35C202.91 280.875 203.104 280.482 203.49 280.166C203.877 279.85 204.375 279.691 204.973 279.691C205.746 279.691 206.438 279.938 207.047 280.424L206.373 281.479C206.221 281.338 206.057 281.221 205.881 281.127C205.705 281.033 205.541 280.963 205.383 280.916C205.219 280.875 205.061 280.852 204.902 280.852C204.744 280.852 204.598 280.898 204.463 280.98C204.328 281.068 204.264 281.191 204.264 281.355C204.264 281.449 204.305 281.543 204.387 281.625C204.469 281.707 204.568 281.783 204.697 281.848C204.82 281.918 204.984 281.988 205.195 282.07C205.816 282.316 206.203 282.48 206.355 282.557C206.742 282.768 206.994 283.02 207.117 283.312C207.188 283.5 207.223 283.711 207.223 283.951C207.223 284.203 207.176 284.438 207.088 284.648C206.994 284.859 206.865 285.047 206.689 285.211C206.514 285.375 206.285 285.498 206.004 285.592C205.723 285.686 205.4 285.727 205.037 285.727ZM210.299 285.727C209.783 285.727 209.379 285.562 209.092 285.234C208.805 284.906 208.664 284.426 208.664 283.781V280.922H207.949V279.779H208.664V277.834L210.006 277.688V279.779H211.729V280.922H210.006V283.658C210.006 283.951 210.047 284.162 210.141 284.285C210.234 284.414 210.375 284.473 210.568 284.473C210.826 284.473 211.119 284.391 211.436 284.221L211.787 285.381C211.576 285.498 211.359 285.58 211.143 285.639C210.926 285.697 210.645 285.727 210.299 285.727ZM213.645 278.906C213.387 278.906 213.176 278.824 213 278.648C212.824 278.473 212.736 278.262 212.736 278.016C212.736 277.77 212.824 277.564 213 277.389C213.176 277.213 213.387 277.125 213.645 277.125C213.891 277.125 214.102 277.213 214.277 277.389C214.453 277.564 214.547 277.775 214.547 278.016C214.547 278.18 214.506 278.326 214.424 278.461C214.342 278.602 214.23 278.707 214.09 278.789C213.949 278.871 213.803 278.906 213.645 278.906ZM212.965 285.633V279.779H214.307V285.633H212.965ZM218.877 285.727C218.42 285.727 218.004 285.65 217.617 285.498C217.23 285.346 216.902 285.141 216.639 284.871C216.375 284.602 216.17 284.285 216.023 283.91C215.871 283.541 215.801 283.143 215.801 282.715C215.801 282.141 215.924 281.625 216.176 281.168C216.428 280.711 216.791 280.354 217.26 280.09C217.729 279.826 218.268 279.691 218.877 279.691C219.469 279.691 219.996 279.82 220.465 280.072C220.928 280.324 221.291 280.682 221.555 281.139C221.812 281.602 221.947 282.129 221.947 282.715C221.947 283.301 221.812 283.828 221.555 284.285C221.291 284.742 220.928 285.1 220.459 285.352C219.99 285.604 219.463 285.727 218.877 285.727ZM218.877 284.508C219.357 284.508 219.762 284.344 220.09 284.004C220.418 283.664 220.582 283.236 220.582 282.715C220.582 282.188 220.418 281.754 220.096 281.414C219.768 281.08 219.363 280.91 218.877 280.91C218.367 280.91 217.957 281.086 217.641 281.426C217.324 281.771 217.166 282.199 217.166 282.715C217.166 283.225 217.324 283.652 217.646 283.992C217.969 284.338 218.379 284.508 218.877 284.508ZM226.676 279.691C227.344 279.691 227.871 279.896 228.252 280.307C228.633 280.717 228.826 281.344 228.826 282.188V285.639H227.484V282.533C227.484 282.229 227.455 281.971 227.402 281.76C227.344 281.549 227.262 281.385 227.15 281.262C227.033 281.139 226.904 281.051 226.752 280.992C226.6 280.939 226.424 280.91 226.213 280.91C225.984 280.91 225.779 280.951 225.592 281.027C225.404 281.109 225.24 281.221 225.111 281.367C224.977 281.52 224.871 281.707 224.801 281.93C224.73 282.158 224.695 282.41 224.695 282.691V285.633H223.354V279.779H224.695V280.582H224.713C224.959 280.295 225.252 280.072 225.592 279.92C225.932 279.768 226.289 279.691 226.676 279.691Z" fill="white"/>
<path d="M136.589 258.184H155.389C156.268 258.184 156.97 258.903 156.97 259.793V271.727C156.97 272.616 156.258 273.336 155.389 273.336H138.17C137.291 273.336 136.589 272.616 136.589 271.727V260.442C136.589 260.163 136.895 259.993 137.132 260.143L145.85 265.9C146.414 266.27 147.145 266.24 147.679 265.84L155.853 259.573" stroke="white" stroke-miterlimit="10"/>
<path d="M137.133 260.132L145.851 265.889C146.414 266.259 147.145 266.229 147.679 265.829L155.853 259.562" stroke="white" stroke-miterlimit="10"/>
<path opacity="0.48" d="M159.441 259.803V272.876C159.441 274.565 158.087 275.935 156.417 275.935H138.853" stroke="white" stroke-miterlimit="10"/>
<path opacity="0.15" d="M161.458 261.852V274.925C161.458 276.614 160.104 277.984 158.433 277.984H140.869" stroke="white" stroke-miterlimit="10"/>
<path d="M76.4444 91.3858H57.6744C56.3401 91.3858 55.2627 90.2963 55.2627 88.947V88.6271C55.5493 83.8395 59.7798 79.4617 65.6707 78.672L66.0068 78.6221C67.4696 78.4022 68.9028 78.792 70.3558 79.0719C71.2553 79.2518 71.1762 79.2718 72.1547 79.2718M72.1646 79.2718C77.2747 79.2718 79.8248 73.7145 79.8248 67.9473C79.8248 63.7794 79.2318 61.3906 77.4724 59.8014C75.9008 58.412 74.606 57.9723 71.9768 58.0122C68.4383 58.0622 64.1189 59.6014 64.1189 66.548C64.1189 69.3766 64.8701 71.8754 65.8387 73.8844C66.0364 74.2842 66.2341 74.674 66.4417 75.0338" stroke="white" stroke-width="1.5" stroke-linecap="round" stroke-linejoin="round"/>
<path d="M105.869 82.321C110.643 83.7503 113.935 87.6284 114.182 91.8264V92.1462C114.182 93.4955 113.105 94.585 111.77 94.585H82.5231C81.1887 94.585 80.1113 93.4955 80.1113 92.1462V91.8264C80.398 87.0387 84.6284 82.6609 90.5193 81.8713L90.8554 81.8213C92.3182 81.6014 93.7515 81.9912 95.2044 82.2711C96.1039 82.451 96.0248 82.471 97.0033 82.471M96.9935 82.471C102.104 82.471 104.654 76.9137 104.654 71.1466C104.654 66.9786 104.061 64.5898 102.301 63.0006C100.73 61.6113 99.4348 61.1715 96.8057 61.2115C93.2671 61.2614 88.9478 62.8007 88.9478 69.7472C88.9478 72.5758 89.699 75.0746 90.6676 77.0836C90.8653 77.4834 91.063 77.8732 91.2705 78.2331" stroke="white" stroke-width="1.5" stroke-linecap="round" stroke-linejoin="round"/>
</g>
<defs>
<filter id="filter0_d_3860_20877" x="8.85938" y="9.08789" width="360.004" height="142.838" filterUnits="userSpaceOnUse" color-interpolation-filters="sRGB">
<feFlood flood-opacity="0" result="BackgroundImageFix"/>
<feColorMatrix in="SourceAlpha" type="matrix" values="0 0 0 0 0 0 0 0 0 0 0 0 0 0 0 0 0 0 127 0" result="hardAlpha"/>
<feOffset dy="3"/>
<feGaussianBlur stdDeviation="9"/>
<feColorMatrix type="matrix" values="0 0 0 0 0.207843 0 0 0 0 0.0313726 0 0 0 0 0.00784314 0 0 0 0.1 0"/>
<feBlend mode="normal" in2="BackgroundImageFix" result="effect1_dropShadow_3860_20877"/>
<feBlend mode="normal" in="SourceGraphic" in2="effect1_dropShadow_3860_20877" result="shape"/>
</filter>
<clipPath id="clip0_3860_20877">
<rect width="709" height="345" fill="white"/>
</clipPath>
</defs>
</svg>
