<svg width="34" height="26" viewBox="0 0 34 26" fill="none" xmlns="http://www.w3.org/2000/svg">
<path d="M1.70996 1.96973H29.8525C31.1584 1.96973 32.2295 3.02064 32.2295 4.33429V21.9079C32.2295 23.207 31.173 24.2725 29.8525 24.2725H4.08695C2.78107 24.2725 1.70996 23.2215 1.70996 21.9079V5.29762C1.70996 4.88893 2.17952 4.62621 2.51699 4.85975L15.5611 13.34C16.3975 13.8801 17.498 13.8509 18.2903 13.2379L29.2949 4.85975" fill="#FFE1DC"/>
<path d="M1.70996 1.96973H29.8525C31.1584 1.96973 32.2295 3.02064 32.2295 4.33429V21.9079C32.2295 23.207 31.173 24.2725 29.8525 24.2725H4.08695C2.78107 24.2725 1.70996 23.2216 1.70996 21.9079V5.29762C1.70996 4.88893 2.17952 4.62621 2.51699 4.85974L15.5611 13.34C16.3975 13.8801 17.498 13.8509 18.2903 13.2379L29.2949 4.85974" stroke="#380000" stroke-width="2" stroke-miterlimit="10" stroke-linecap="round"/>
<path d="M1.70996 4.31763L15.6492 13.4466C16.3061 13.873 17.5566 13.7082 17.9968 13.4466L29.2949 4.90454" fill="#FFE1DC"/>
<path d="M1.70996 4.31763L15.6492 13.4466C16.3061 13.873 17.5566 13.7082 17.9968 13.4466L29.2949 4.90454" stroke="#FF3E00" stroke-width="2" stroke-miterlimit="10" stroke-linecap="round"/>
</svg>
