<svg id="eHCd36ywezf1" xmlns="http://www.w3.org/2000/svg" xmlns:xlink="http://www.w3.org/1999/xlink" viewBox="0 0 600 450" shape-rendering="geometricPrecision" text-rendering="geometricPrecision" project-id="d0183463cde846b9abaa504f478406c4" export-id="d6088ec85046463f85e3d6978b43e42c" cached="false" style="background-color:transparent">
<style><![CDATA[
#eHCd36ywezf45_to {animation: eHCd36ywezf45_to__to 3971ms linear infinite normal forwards}@keyframes eHCd36ywezf45_to__to { 0% {offset-distance: 0%} 5.036515% {offset-distance: 0%} 22.689499% {offset-distance: 100%} 100% {offset-distance: 100%}} #eHCd36ywezf45 {animation: eHCd36ywezf45_c_o 3971ms linear infinite normal forwards}@keyframes eHCd36ywezf45_c_o { 0% {opacity: 1} 1.687232% {opacity: 0} 3.349282% {opacity: 1} 5.036515% {opacity: 0} 6.723747% {opacity: 1} 8.41098% {opacity: 0} 10.073029% {opacity: 1} 11.760262% {opacity: 0} 13.447494% {opacity: 1} 15.134727% {opacity: 0} 16.796777% {opacity: 1} 18.484009% {opacity: 0} 20.171242% {opacity: 1} 21.858474% {opacity: 0} 23.520524% {opacity: 1} 25.207756% {opacity: 0} 26.894989% {opacity: 1} 28.557039% {opacity: 0} 100% {opacity: 0}} #eHCd36ywezf54_ts {animation: eHCd36ywezf54_ts__ts 3971ms linear infinite normal forwards}@keyframes eHCd36ywezf54_ts__ts { 0% {transform: translate(381.189px,365px) scale(1,1)} 68.068497% {transform: translate(381.189px,365px) scale(1,1);animation-timing-function: cubic-bezier(0.333,0,0.667,1)} 69.730546% {transform: translate(381.189px,365px) scale(0.93,0.93);animation-timing-function: cubic-bezier(0.333,0,0.667,1)} 71.417779% {transform: translate(381.189px,365px) scale(1,1)} 100% {transform: translate(381.189px,365px) scale(1,1)}} #eHCd36ywezf54 {animation: eHCd36ywezf54_c_o 3971ms linear infinite normal forwards}@keyframes eHCd36ywezf54_c_o { 0% {opacity: 0} 37.824226% {opacity: 0;animation-timing-function: cubic-bezier(0.333,0,0.667,1)} 46.210023% {opacity: 1;animation-timing-function: step-end} 100% {opacity: 0.964201}} #eHCd36ywezf59_ts {animation: eHCd36ywezf59_ts__ts 3971ms linear infinite normal forwards}@keyframes eHCd36ywezf59_ts__ts { 0% {transform: translate(381.189px,365px) scale(1,1)} 68.068497% {transform: translate(381.189px,365px) scale(1,1);animation-timing-function: cubic-bezier(0.333,0,0.667,1)} 69.730546% {transform: translate(381.189px,365px) scale(0.93,0.93);animation-timing-function: cubic-bezier(0.333,0,0.667,1)} 71.417779% {transform: translate(381.189px,365px) scale(1,1)} 100% {transform: translate(381.189px,365px) scale(1,1)}} #eHCd36ywezf60 {animation-name: eHCd36ywezf60_c_o, eHCd36ywezf60_f_o, eHCd36ywezf60_s_o;animation-duration: 3971ms;animation-fill-mode: forwards;animation-timing-function: linear;animation-direction: normal;animation-iteration-count: infinite;}@keyframes eHCd36ywezf60_c_o { 0% {opacity: 0} 37.824226% {opacity: 0;animation-timing-function: cubic-bezier(0.333,0,0.667,1)} 46.210023% {opacity: 1} 100% {opacity: 1}}@keyframes eHCd36ywezf60_f_o { 0% {fill-opacity: 0} 37.824226% {fill-opacity: 0;animation-timing-function: cubic-bezier(0.333,0,0.667,1)} 46.210023% {fill-opacity: 1} 100% {fill-opacity: 1}}@keyframes eHCd36ywezf60_s_o { 0% {stroke-opacity: 0} 37.824226% {stroke-opacity: 0;animation-timing-function: cubic-bezier(0.333,0,0.667,1)} 46.210023% {stroke-opacity: 1} 100% {stroke-opacity: 1}} #eHCd36ywezf62 {animation: eHCd36ywezf62_c_o 3971ms linear infinite normal forwards}@keyframes eHCd36ywezf62_c_o { 0% {opacity: 0} 33.618736% {opacity: 0;animation-timing-function: cubic-bezier(0.333,0,0.667,1)} 42.004533% {opacity: 1;animation-timing-function: step-end} 100% {opacity: 0.961402}} #eHCd36ywezf264 {animation-name: eHCd36ywezf264_c_o, eHCd36ywezf264_f_o, eHCd36ywezf264_s_o;animation-duration: 3971ms;animation-fill-mode: forwards;animation-timing-function: linear;animation-direction: normal;animation-iteration-count: infinite;}@keyframes eHCd36ywezf264_c_o { 0% {opacity: 0} 28.557039% {opacity: 0;animation-timing-function: cubic-bezier(0.333,0,0.667,1)} 36.968018% {opacity: 1} 100% {opacity: 1}}@keyframes eHCd36ywezf264_f_o { 0% {fill-opacity: 0} 28.557039% {fill-opacity: 0;animation-timing-function: cubic-bezier(0.333,0,0.667,1)} 36.968018% {fill-opacity: 1} 100% {fill-opacity: 1}}@keyframes eHCd36ywezf264_s_o { 0% {stroke-opacity: 0} 28.557039% {stroke-opacity: 0;animation-timing-function: cubic-bezier(0.333,0,0.667,1)} 36.968018% {stroke-opacity: 1} 100% {stroke-opacity: 1}} #eHCd36ywezf290_to {animation: eHCd36ywezf290_to__to 3971ms linear infinite normal forwards}@keyframes eHCd36ywezf290_to__to { 0% {offset-distance: 0%} 46.210023% {offset-distance: 0%;animation-timing-function: cubic-bezier(0.167,0.167,0,1)} 66.381264% {offset-distance: 100%} 100% {offset-distance: 100%}} #eHCd36ywezf290 {animation: eHCd36ywezf290_c_o 3971ms linear infinite normal forwards}@keyframes eHCd36ywezf290_c_o { 0% {opacity: 0} 45.958197% {opacity: 0;animation-timing-function: step-end} 46.210023% {opacity: 1;animation-timing-function: step-end} 100% {opacity: 0.964436}} #eHCd36ywezf297_to {animation: eHCd36ywezf297_to__to 3971ms linear infinite normal forwards}@keyframes eHCd36ywezf297_to__to { 0% {transform: translate(130.14676px,119.747px)} 2.518257% {transform: translate(130.14676px,119.747px)} 7.554772% {transform: translate(145.14676px,119.747px)} 10.073029% {transform: translate(158.14676px,119.747px)} 12.591287% {transform: translate(170.813427px,119.747px)} 17.627802% {transform: translate(202.14676px,119.747px)} 25.182574% {transform: translate(228.14676px,119.747px)} 100% {transform: translate(228.14676px,119.747px)}}
]]></style>
<g transform="translate(300 225)"><g><rect width="555" height="385" rx="10" ry="10" transform="translate(-277.5-192.5)" fill="#f7f6f6" stroke-width="0"/></g><g><rect width="555" height="385" rx="10" ry="10" transform="translate(-277.5-192.5)" fill="none" fill-rule="evenodd" stroke-width="0"/></g></g><g transform="translate(103 225)"><g><rect width="121" height="345" rx="10" ry="10" transform="translate(-60.5-172.5)" fill="#fff" stroke-width="0"/></g><g><rect width="121" height="345" rx="10" ry="10" transform="translate(-60.5-172.5)" paint-order="stroke fill markers" fill="none" fill-rule="evenodd" stroke="#eff3f4"/></g></g><g transform="translate(381.5 225)"><g><rect width="348" height="345" rx="10" ry="10" transform="translate(-174-172.5)" fill="#fff" stroke-width="0"/></g><g><rect width="348" height="345" rx="10" ry="10" transform="translate(-174-172.5)" paint-order="stroke fill markers" fill="none" fill-rule="evenodd" stroke="#eff3f4"/></g></g><text dx="0" dy="0" font-family="&quot;Averta-Semibold&quot;" font-size="12" font-weight="400" transform="translate(90.961 373.5)" fill="#545252" stroke="#000" stroke-width="0"><tspan x="0" y="0" font-family="&quot;Averta-Semibold&quot;" font-size="12" font-weight="400" font-style="normal" fill="#545252" stroke="#000" stroke-width="0"><![CDATA[
SMS
]]></tspan></text><text dx="0" dy="0" font-family="&quot;Averta-Semibold&quot;" font-size="12" font-weight="400" transform="translate(87.577 277.5)" fill="#545252" stroke="#000" stroke-width="0"><tspan x="0" y="0" font-family="&quot;Averta-Semibold&quot;" font-size="12" font-weight="400" font-style="normal" fill="#545252" stroke="#000" stroke-width="0"><![CDATA[
Email
]]></tspan></text><text dx="0" dy="0" font-family="&quot;Averta-Semibold&quot;" font-size="12" font-weight="400" transform="translate(81.032 176.5)" fill="#545252" stroke="#000" stroke-width="0"><tspan x="0" y="0" font-family="&quot;Averta-Semibold&quot;" font-size="12" font-weight="400" font-style="normal" fill="#545252" stroke="#000" stroke-width="0"><![CDATA[
Website
]]></tspan></text><text dx="0" dy="0" font-family="&quot;Averta-Semibold&quot;" font-size="14" font-weight="400" transform="translate(65.931 86.5)" stroke="#000" stroke-width="0"><tspan x="0" y="0" font-family="&quot;Averta-Semibold&quot;" font-size="14" font-weight="400" font-style="normal" stroke="#000" stroke-width="0"><![CDATA[
Destination
]]></tspan></text><text dx="0" dy="0" font-family="&quot;Averta-Semibold&quot;" font-size="14" font-weight="400" transform="translate(231.43 86.5)" stroke="#000" stroke-width="0"><tspan x="0" y="0" font-family="&quot;Averta-Semibold&quot;" font-size="14" font-weight="400" font-style="normal" stroke="#000" stroke-width="0"><![CDATA[
Enter your website URL
]]></tspan></text><g transform="translate(380 118.5)"><g><rect width="311" height="40" rx="3" ry="3" transform="translate(-155.5-20)" fill="#fff" stroke-width="0"/></g><g><rect width="311" height="40" rx="3" ry="3" transform="translate(-155.5-20)" paint-order="stroke fill markers" fill="none" fill-rule="evenodd" stroke="#d6d2d2"/></g></g><g transform="translate(103.5 224.5)"><g><rect width="52" height="52" rx="3" ry="3" transform="translate(-26-26)" fill="#f1f1f1" stroke-width="0"/></g><g><rect width="52" height="52" rx="3" ry="3" transform="translate(-26-26)" fill="none" fill-rule="evenodd" stroke-width="0"/></g></g><g transform="translate(103.5 323.5)"><g><rect width="52" height="52" rx="3" ry="3" transform="translate(-26-26)" fill="#f1f1f1" stroke-width="0"/></g><g><rect width="52" height="52" rx="3" ry="3" transform="translate(-26-26)" fill="none" fill-rule="evenodd" stroke-width="0"/></g></g><g transform="translate(300 225)"><g id="eHCd36ywezf45_to" style="offset-path:path('M-66.5,-107.5C-52.279,-107.5,21.388,-107.5,33.5,-107.5');offset-rotate:0deg"><g id="eHCd36ywezf45" transform="rotate(90) translate(0,0)"><g><path d="M-8.5,0c0,0,17,0,17,0" paint-order="stroke fill markers" fill="none" fill-rule="evenodd" stroke="#380000" stroke-width="1.5"/></g></g></g></g><g transform="matrix(0 1-1 0 148.5 231)"><path d="M-129.5,0c0,0,259,0,259,0" paint-order="stroke fill markers" fill="none" fill-rule="evenodd" stroke="#e7e7e7" stroke-width="3" stroke-linecap="round"/></g><g transform="matrix(0 1-1 0 148.5 228.5)"><path d="M-53,0C-53,0,53,0,53,0" paint-order="stroke fill markers" fill="none" fill-rule="evenodd" stroke="#380000" stroke-width="3" stroke-linecap="round"/></g><g transform="translate(104.229 322.576)"><path d="M1.868,3.54c0,0-6.737,0-6.737,0s0-13.629,0-13.629s17.637,0,17.637,0s0,17.388,0,17.388-3.628-3.759-3.628-3.759-3.134,0-3.134,0c-1.079,0-1.948.877-1.948,1.964c0,0,0,9.364,0,9.364c0,.919-.744,1.669-1.655,1.669c0,0-13.792,0-13.792,0-.76,0-1.379-.623-1.379-1.39c0,0,0-30.032,0-30.032c0-.911.736-1.652,1.638-1.652c0,0,13.525,0,13.525,0c.919,0,1.671.75,1.671,1.685c0,0,0,2.563,0,2.563" paint-order="stroke fill markers" fill="none" fill-rule="evenodd" stroke="#380000" stroke-width="1.5" stroke-linecap="round" stroke-linejoin="round"/></g><g id="eHCd36ywezf54_ts" transform="translate(381.189,365) scale(1,1)"><g id="eHCd36ywezf54" transform="translate(0,0)" opacity="0"><g><rect width="109" height="33" rx="16.5" ry="16.5" transform="translate(-54.5-16.5)" fill="none" fill-rule="evenodd" stroke-width="0"/></g><g><rect width="109" height="33" rx="16.5" ry="16.5" transform="translate(-54.5-16.5)" fill="#971c00" stroke-width="0"/></g></g></g><g id="eHCd36ywezf59_ts" transform="translate(381.189,365) scale(1,1)"><g transform="translate(-393.5,-395.5)"><text id="eHCd36ywezf60" dx="0" dy="0" font-family="&quot;Averta Demo&quot;" font-size="14" font-weight="400" transform="translate(360.417 399.5)" opacity="0" fill="#fff" fill-opacity="0" stroke="#000" stroke-width="0" stroke-opacity="0"><tspan x="0" y="0" font-family="&quot;Averta Demo&quot;" font-size="14" font-weight="400" font-style="normal" fill="#fff" stroke="#000" stroke-width="0"><![CDATA[
Download
]]></tspan></text></g></g><g id="eHCd36ywezf62" transform="translate(305.481247 183.5)" opacity="0"><g transform="translate(74.519 74.501)"><g><rect width="149.037" height="149.003" rx="0" ry="0" transform="translate(-74.5185-74.5015)" fill="none" fill-rule="evenodd" stroke-width="0"/></g><g><rect width="149.037" height="149.003" rx="0" ry="0" transform="translate(-74.5185-74.5015)" fill="none" fill-rule="evenodd" stroke-width="0"/></g></g><g transform="translate(85.135 56.934)"><g><path d="M49.896,21.078c0,0-7.071,0-7.071,0s0,7.037,0,7.037-21.129,0-21.129,0s0,21.404,0,21.404s6.865,0,6.865,0c0,2.317,0,4.651,0,7.329c0,0-6.968,0-6.968,0s0,6.746,0,6.746s28.012,0,28.012,0s0-13.972,0-13.972-21.147,0-21.147,0s0-7.089,0-7.089s14.178,0,14.178,0s0-6.917,0-6.917s7.157,0,7.157,0s0,6.745,0,6.745s7.038,0,7.038,0s0,21.387,0,21.387s7.071,0,7.071,0s0,14.023,0,14.023-6.9,0-6.9,0s0-6.694,0-6.694-7.037,0-7.037,0s0,6.729,0,6.729-7.157,0-7.157,0s0-6.66,0-6.66-7.038,0-7.038,0s0,6.574,0,6.574-7.157,0-7.157,0s0-6.626,0-6.626-7.038,0-7.038,0s0,6.849,0,6.849-14.452,0-14.452,0s.103.103.103.103s0-14.161,0-14.161-6.969,0-6.969,0s0-7.123,0-7.123s13.749,0,13.749,0s0-14.366,0-14.366-6.9,0-6.9,0s.103.103.103.103s0-7.278,0-7.278s6.797,0,6.797,0s0-6.934,0-6.934-14.006,0-14.006,0c.034-2.403.069-4.806.103-7.209c0,0-.103.103-.103.103s14.058,0,14.058,0s0-7.295,0-7.295-6.832,0-6.832,0s0-7.037,0-7.037-.103.103-.103.103s7.037,0,7.037,0s0-6.952,0-6.952s21.507,0,21.507,0s0,14.04,0,14.04c-4.669,0-9.354,0-14.04,0c0,0,0,6.832,0,6.832s13.937,0,13.937,0s0-6.935,0-6.935c4.772.034,9.543.087,14.315.121c0,0-.103-.103-.103-.103s0,7.208,0,7.208.103-.102.103-.102.017.017.017.017Z" fill="none" fill-rule="evenodd" stroke-width="0"/></g><g><path d="M49.896,21.078c0,0-7.071,0-7.071,0s0,7.037,0,7.037-21.129,0-21.129,0s0,21.404,0,21.404s6.865,0,6.865,0c0,2.317,0,4.651,0,7.329c0,0-6.968,0-6.968,0s0,6.746,0,6.746s28.012,0,28.012,0s0-13.972,0-13.972-21.147,0-21.147,0s0-7.089,0-7.089s14.178,0,14.178,0s0-6.917,0-6.917s7.157,0,7.157,0s0,6.745,0,6.745s7.038,0,7.038,0s0,21.387,0,21.387s7.071,0,7.071,0s0,14.023,0,14.023-6.9,0-6.9,0s0-6.694,0-6.694-7.037,0-7.037,0s0,6.729,0,6.729-7.157,0-7.157,0s0-6.66,0-6.66-7.038,0-7.038,0s0,6.574,0,6.574-7.157,0-7.157,0s0-6.626,0-6.626-7.038,0-7.038,0s0,6.849,0,6.849-14.452,0-14.452,0s.103.103.103.103s0-14.161,0-14.161-6.969,0-6.969,0s0-7.123,0-7.123s13.749,0,13.749,0s0-14.366,0-14.366-6.9,0-6.9,0s.103.103.103.103s0-7.278,0-7.278s6.797,0,6.797,0s0-6.934,0-6.934-14.006,0-14.006,0c.034-2.403.069-4.806.103-7.209c0,0-.103.103-.103.103s14.058,0,14.058,0s0-7.295,0-7.295-6.832,0-6.832,0s0-7.037,0-7.037-.103.103-.103.103s7.037,0,7.037,0s0-6.952,0-6.952s21.507,0,21.507,0s0,14.04,0,14.04c-4.669,0-9.354,0-14.04,0c0,0,0,6.832,0,6.832s13.937,0,13.937,0s0-6.935,0-6.935c4.772.034,9.543.087,14.315.121c0,0-.103-.103-.103-.103s0,7.208,0,7.208.103-.102.103-.102.017.017.017.017Z" stroke-width="0"/></g></g><g transform="translate(.154 99.655)"><g><path d="M7.089,7.02c0,0,0,35.118,0,35.118s35.118,0,35.118,0s0-35.118,0-35.118-35.118,0-35.118,0Z" fill="none" fill-rule="evenodd" stroke-width="0"/><path d="M49.33,0c0,0,0,49.347,0,49.347s-49.33,0-49.33,0C0,49.347,0,0,0,0s49.347,0,49.347,0-.017,0-.017,0Z" fill="none" fill-rule="evenodd" stroke-width="0"/></g><g><path d="M49.33,0c0,0,0,49.347,0,49.347s-49.33,0-49.33,0C0,49.347,0,0,0,0s49.347,0,49.347,0-.017,0-.017,0Z" stroke-width="0"/><path d="M7.089,7.02c0,0,0,35.118,0,35.118s35.118,0,35.118,0s0-35.118,0-35.118-35.118,0-35.118,0Z" fill="#fff" stroke-width="0"/></g></g><g transform="translate(99.69 0)"><g><path d="M42.258,7.209c0,0-35.118,0-35.118,0s0,35.118,0,35.118s35.118,0,35.118,0s0-35.118,0-35.118Z" fill="none" fill-rule="evenodd" stroke-width="0"/><path d="M0,0C0,0,49.33,0,49.33,0s0,49.347,0,49.347-49.33,0-49.33,0C0,49.347,0,0,0,0Z" fill="none" fill-rule="evenodd" stroke-width="0"/></g><g><path d="M0,0C0,0,49.33,0,49.33,0s0,49.347,0,49.347-49.33,0-49.33,0C0,49.347,0,0,0,0Z" stroke-width="0"/><path d="M42.258,7.209c0,0-35.118,0-35.118,0s0,35.118,0,35.118s35.118,0,35.118,0s0-35.118,0-35.118Z" fill="#fff" stroke-width="0"/></g></g><g transform="translate(56.556 21.129)"><g><path d="M28.613,0.103c0,0,6.917,0,6.917,0s0,14.057,0,14.057-13.852,0-13.852,0s0,14.11,0,14.11-7.157,0-7.157,0s0-6.626,0-6.626-7.158,0-7.158,0s0,13.8,0,13.8c-2.712,0-5.029,0-7.363,0c0,0,.12.103.103.103c0-9.303,0-18.606,0-28.269c0,0,28.596,0,28.596,0s0-7.278,0-7.278-.103.103-.103.103.017,0,.017,0Z" fill="none" fill-rule="evenodd" stroke-width="0"/></g><g><path d="M28.613,0.103c0,0,6.917,0,6.917,0s0,14.057,0,14.057-13.852,0-13.852,0s0,14.11,0,14.11-7.157,0-7.157,0s0-6.626,0-6.626-7.158,0-7.158,0s0,13.8,0,13.8c-2.712,0-5.029,0-7.363,0c0,0,.12.103.103.103c0-9.303,0-18.606,0-28.269c0,0,28.596,0,28.596,0s0-7.278,0-7.278-.103.103-.103.103.017,0,.017,0Z" stroke-width="0"/></g></g><g transform="translate(56.711 85.135)"><g><path d="M35.564,14.212c0,0,0,7.089,0,7.089s-14.04,0-14.04,0s0,6.917,0,6.917-14.418,0-14.418,0c0-2.231,0-4.549,0-6.883c2.317,0,4.617,0,6.934,0c0,0,0-6.814,0-6.814s-6.831,0-6.831,0s0,6.917,0,6.917-7.106,0-7.106,0s0-21.438,0-21.438-.103.103-.103.103s7.209,0,7.209,0-.103-.103-.103-.103s0,7.106,0,7.106s14.332,0,14.332,0s0,7.209,0,7.209s14.212,0,14.212,0-.103-.103-.103-.103.017,0,.017,0Z" fill="none" fill-rule="evenodd" stroke-width="0"/></g><g><path d="M35.564,14.212c0,0,0,7.089,0,7.089s-14.04,0-14.04,0s0,6.917,0,6.917-14.418,0-14.418,0c0-2.231,0-4.549,0-6.883c2.317,0,4.617,0,6.934,0c0,0,0-6.814,0-6.814s-6.831,0-6.831,0s0,6.917,0,6.917-7.106,0-7.106,0s0-21.438,0-21.438-.103.103-.103.103s7.209,0,7.209,0-.103-.103-.103-.103s0,7.106,0,7.106s14.332,0,14.332,0s0,7.209,0,7.209s14.212,0,14.212,0-.103-.103-.103-.103.017,0,.017,0Z" stroke-width="0"/></g></g><g transform="translate(128.062 57.02)"><g><path d="M6.969,13.989c0,0,0-7.072,0-7.072s-6.969,0-6.969,0C0,6.917,0,0,0,0s13.903,0,13.903,0s0,6.78,0,6.78s7.055,0,7.055,0s0,21.112,0,21.112-14.006,0-14.006,0s0-6.9,0-6.9-.103.103-.103.103s6.917,0,6.917,0s0-7.209,0-7.209-6.917,0-6.917,0s.103.103.103.103.017,0,.017,0Z" fill="none" fill-rule="evenodd" stroke-width="0"/></g><g><path d="M6.969,13.989c0,0,0-7.072,0-7.072s-6.969,0-6.969,0C0,6.917,0,0,0,0s13.903,0,13.903,0s0,6.78,0,6.78s7.055,0,7.055,0s0,21.112,0,21.112-14.006,0-14.006,0s0-6.9,0-6.9-.103.103-.103.103s6.917,0,6.917,0s0-7.209,0-7.209-6.917,0-6.917,0s.103.103.103.103.017,0,.017,0Z" stroke-width="0"/></g></g><g transform="translate(70.94 127.788)"><g><path d="M21.335,7.106c0,2.403,0,4.806-.017,7.209c0,0,.103-.103.103-.103s-14.109,0-14.109,0s0,6.934,0,6.934-7.209,0-7.209,0c0-4.703,0-9.371,0-14.04c0,0-.103.103-.103.103s7.209,0,7.209,0s0-7.209,0-7.209-.103.103-.103.103s7.037,0,7.037,0s0,7.089,0,7.089c2.66,0,4.978,0,7.295,0c0,0-.103-.103-.103-.103s0,.017,0,.017Z" fill="none" fill-rule="evenodd" stroke-width="0"/></g><g><path d="M21.335,7.106c0,2.403,0,4.806-.017,7.209c0,0,.103-.103.103-.103s-14.109,0-14.109,0s0,6.934,0,6.934-7.209,0-7.209,0c0-4.703,0-9.371,0-14.04c0,0-.103.103-.103.103s7.209,0,7.209,0s0-7.209,0-7.209-.103.103-.103.103s7.037,0,7.037,0s0,7.089,0,7.089c2.66,0,4.978,0,7.295,0c0,0-.103-.103-.103-.103s0,.017,0,.017Z" stroke-width="0"/></g></g><g transform="translate(.137 78.321)"><g><path d="M20.923,0c0,0,0,13.766,0,13.766s-6.883,0-6.883,0s0-6.66,0-6.66-7.123,0-7.123,0s0,6.677,0,6.677-6.917,0-6.917,0C0,13.783,0,0,0,0s20.923,0,20.923,0Z" fill="none" fill-rule="evenodd" stroke-width="0"/></g><g><path d="M20.923,0c0,0,0,13.766,0,13.766s-6.883,0-6.883,0s0-6.66,0-6.66-7.123,0-7.123,0s0,6.677,0,6.677-6.917,0-6.917,0C0,13.783,0,0,0,0s20.923,0,20.923,0Z" stroke-width="0"/></g></g><g transform="translate(71.231 0.034)"><g><path d="M14.04,21.095c0,0-14.04,0-14.04,0C0,21.095,0,0,0,0s6.711,0,6.711,0s0,14.092,0,14.092s7.329,0,7.329,0-.103-.103-.103-.103c0,2.403.001,4.806.018,7.209c0,0,.103-.103.103-.103s-.018,0-.018,0Z" fill="none" fill-rule="evenodd" stroke-width="0"/></g><g><path d="M14.04,21.095c0,0-14.04,0-14.04,0C0,21.095,0,0,0,0s6.711,0,6.711,0s0,14.092,0,14.092s7.329,0,7.329,0-.103-.103-.103-.103c0,2.403.001,4.806.018,7.209c0,0,.103-.103.103-.103s-.018,0-.018,0Z" stroke-width="0"/></g></g><g transform="translate(0 56.951)"><g><path d="M0,13.731C0,13.731,0,0,0,0s13.903,0,13.903,0s0,13.731,0,13.731-13.903,0-13.903,0Z" fill="none" fill-rule="evenodd" stroke-width="0"/></g><g><path d="M0,13.731C0,13.731,0,0,0,0s13.903,0,13.903,0s0,13.731,0,13.731-13.903,0-13.903,0Z" stroke-width="0"/></g></g><g transform="translate(85.152 0.103)"><g><path d="M0.103,14.023c0,0,0-14.023,0-14.023s6.831,0,6.831,0s0,13.92,0,13.92c-2.317,0-4.634,0-6.934,0c0,0,.103.103.103.103Z" fill="none" fill-rule="evenodd" stroke-width="0"/></g><g><path d="M0.103,14.023c0,0,0-14.023,0-14.023s6.831,0,6.831,0s0,13.92,0,13.92c-2.317,0-4.634,0-6.934,0c0,0,.103.103.103.103Z" stroke-width="0"/></g></g><g transform="translate(56.951 7.123)"><g><path d="M6.677,13.903c0,0-6.677,0-6.677,0C0,13.903,0,0,0,0s6.677,0,6.677,0s0,13.903,0,13.903Z" fill="none" fill-rule="evenodd" stroke-width="0"/></g><g><path d="M6.677,13.903c0,0-6.677,0-6.677,0C0,13.903,0,0,0,0s6.677,0,6.677,0s0,13.903,0,13.903Z" stroke-width="0"/></g></g><g transform="translate(28.27 63.8)"><g><path d="M14.315,7.106c0,0-14.212,0-14.212,0s0-7.106,0-7.106-.103.103-.103.103c4.772,0,9.543,0,14.315,0c0,0-.103-.103-.103-.103s0,7.209,0,7.209.103-.103.103-.103Z" fill="none" fill-rule="evenodd" stroke-width="0"/></g><g><path d="M14.315,7.106c0,0-14.212,0-14.212,0s0-7.106,0-7.106-.103.103-.103.103c4.772,0,9.543,0,14.315,0c0,0-.103-.103-.103-.103s0,7.209,0,7.209.103-.103.103-.103Z" stroke-width="0"/></g></g><g transform="translate(57.037 134.791)"><g><path d="M6.643,0c0,0,0,14.212,0,14.212s-6.643,0-6.643,0s0-14.109,0-14.109c2.146,0,4.446,0,6.746,0c0,0-.121-.103-.121-.103s.018,0,.018,0Z" fill="none" fill-rule="evenodd" stroke-width="0"/></g><g><path d="M6.643,0c0,0,0,14.212,0,14.212s-6.643,0-6.643,0s0-14.109,0-14.109c2.146,0,4.446,0,6.746,0c0,0-.121-.103-.121-.103s.018,0,.018,0Z" stroke-width="0"/></g></g><g transform="translate(85.392 42.67)"><g><path d="M0,0C0,0,6.694,0,6.694,0s0,6.746,0,6.746-6.694,0-6.694,0C0,6.746,0,0,0,0Z" fill="none" fill-rule="evenodd" stroke-width="0"/></g><g><path d="M0,0C0,0,6.694,0,6.694,0s0,6.746,0,6.746-6.694,0-6.694,0C0,6.746,0,0,0,0Z" stroke-width="0"/></g></g><g transform="translate(42.807 85.014)"><g><path d="M6.643,0c0,0,0,7.106,0,7.106s-6.643,0-6.643,0s0-7.003,0-7.003c2.163,0,4.446,0,6.746,0c0,0-.121-.103-.121-.103s.018,0,.018,0Z" fill="none" fill-rule="evenodd" stroke-width="0"/></g><g><path d="M6.643,0c0,0,0,7.106,0,7.106s-6.643,0-6.643,0s0-7.003,0-7.003c2.163,0,4.446,0,6.746,0c0,0-.121-.103-.121-.103s.018,0,.018,0Z" stroke-width="0"/></g></g><g transform="translate(49.45 78.029)"><g><path d="M7.363,7.106C4.909,7.072,2.454,7.037,0,6.986c0,0,.12.103.103.103C0.154,4.72,0.189,2.352,0.24,0c0,0-.103.103-.103.103s7.209,0,7.209,0-.103-.103-.103-.103s0,7.209,0,7.209.103-.103.103-.103.017,0,.017,0Z" fill="none" fill-rule="evenodd" stroke-width="0"/></g><g><path d="M7.363,7.106C4.909,7.072,2.454,7.037,0,6.986c0,0,.12.103.103.103C0.154,4.72,0.189,2.352,0.24,0c0,0-.103.103-.103.103s7.209,0,7.209,0-.103-.103-.103-.103s0,7.209,0,7.209.103-.103.103-.103.017,0,.017,0Z" stroke-width="0"/></g></g><g transform="translate(42.482 70.906)"><g><path d="M7.226,7.123c0,0-7.123,0-7.123,0s0-7.123,0-7.123-.103.103-.103.103s7.209,0,7.209,0-.103-.103-.103-.103s0,7.209,0,7.209.103-.103.103-.103.017.017.017.017Z" fill="none" fill-rule="evenodd" stroke-width="0"/></g><g><path d="M7.226,7.123c0,0-7.123,0-7.123,0s0-7.123,0-7.123-.103.103-.103.103s7.209,0,7.209,0-.103-.103-.103-.103s0,7.209,0,7.209.103-.103.103-.103.017.017.017.017Z" stroke-width="0"/></g></g><g transform="translate(57.02 120.973)"><g><path d="M6.9,6.814c0,0-6.9,0-6.9,0C0,6.814,0,0,0,0s6.797,0,6.797,0s0,6.917,0,6.917.103-.103.103-.103Z" fill="none" fill-rule="evenodd" stroke-width="0"/></g><g><path d="M6.9,6.814c0,0-6.9,0-6.9,0C0,6.814,0,0,0,0s6.797,0,6.797,0s0,6.917,0,6.917.103-.103.103-.103Z" stroke-width="0"/></g></g><g transform="translate(63.679 127.771)"><g><path d="M0.137,0.12c2.403,0,4.823,0,7.226,0c0,0-.103-.103-.103-.103s0,7.209,0,7.209.103-.103.103-.103C4.909,7.089,2.454,7.054,0,7.003c0,0,.12.103.103.103.034-2.369.086-4.737.12-7.106c0,0-.103.103-.103.103s.017.017.017.017Z" fill="none" fill-rule="evenodd" stroke-width="0"/></g><g><path d="M0.137,0.12c2.403,0,4.823,0,7.226,0c0,0-.103-.103-.103-.103s0,7.209,0,7.209.103-.103.103-.103C4.909,7.089,2.454,7.054,0,7.003c0,0,.12.103.103.103.034-2.369.086-4.737.12-7.106c0,0-.103.103-.103.103s.017.017.017.017Z" stroke-width="0"/></g></g><g transform="translate(21.455 56.968)"><g><path d="M6.917,6.831c0,0-6.917,0-6.917,0C0,6.831,0,0,0,0s6.814,0,6.814,0c0,2.317,0,4.634,0,6.934c0,0,.103-.103.103-.103Z" fill="none" fill-rule="evenodd" stroke-width="0"/></g><g><path d="M6.917,6.831c0,0-6.917,0-6.917,0C0,6.831,0,0,0,0s6.814,0,6.814,0c0,2.317,0,4.634,0,6.934c0,0,.103-.103.103-.103Z" stroke-width="0"/></g></g><g transform="translate(92.257 142.017)"><g><path d="M0,0.103c0,0,6.917,0,6.917,0s0,6.831,0,6.831-6.814,0-6.814,0c0-2.317,0-4.634,0-6.934c0,0-.103.103-.103.103Z" fill="none" fill-rule="evenodd" stroke-width="0"/></g><g><path d="M0,0.103c0,0,6.917,0,6.917,0s0,6.831,0,6.831-6.814,0-6.814,0c0-2.317,0-4.634,0-6.934c0,0-.103.103-.103.103Z" stroke-width="0"/></g></g><g transform="translate(106.744 142.137)"><g><path d="M0,0C0,0,6.625,0,6.625,0s0,6.797,0,6.797-6.625,0-6.625,0C0,6.797,0,0,0,0Z" fill="none" fill-rule="evenodd" stroke-width="0"/></g><g><path d="M0,0C0,0,6.625,0,6.625,0s0,6.797,0,6.797-6.625,0-6.625,0C0,6.797,0,0,0,0Z" stroke-width="0"/></g></g><g transform="translate(121.043 142.309)"><g><path d="M6.677,0c0,0,0,6.694,0,6.694s-6.677,0-6.677,0C0,6.694,0,0,0,0s6.677,0,6.677,0Z" fill="none" fill-rule="evenodd" stroke-width="0"/></g><g><path d="M6.677,0c0,0,0,6.694,0,6.694s-6.677,0-6.677,0C0,6.694,0,0,0,0s6.677,0,6.677,0Z" stroke-width="0"/></g></g><g transform="translate(135.203 142.274)"><g><path d="M6.728,0c0,0,0,6.66,0,6.66s-6.728,0-6.728,0s0-6.66,0-6.66s6.728,0,6.728,0Z" fill="none" fill-rule="evenodd" stroke-width="0"/></g><g><path d="M6.728,0c0,0,0,6.66,0,6.66s-6.728,0-6.728,0s0-6.66,0-6.66s6.728,0,6.728,0Z" stroke-width="0"/></g></g><g transform="translate(78.046 85.135)"><g><path d="M0,7.209C0,7.209,0,0,0,0s7.209,0,7.209,0s0,7.209,0,7.209-7.209,0-7.209,0Z" fill="none" fill-rule="evenodd" stroke-width="0"/></g><g><path d="M0,7.209C0,7.209,0,0,0,0s7.209,0,7.209,0s0,7.209,0,7.209-7.209,0-7.209,0Z" stroke-width="0"/></g></g><g transform="translate(14.298 113.799)"><g><path d="M20.855,21.026c0,0-20.855,0-20.855,0C0,21.026,0,0,0,0s20.855,0,20.855,0s0,21.026,0,21.026Z" fill="none" fill-rule="evenodd" stroke-width="0"/></g><g><path d="M20.855,21.026c0,0-20.855,0-20.855,0C0,21.026,0,0,0,0s20.855,0,20.855,0s0,21.026,0,21.026Z" stroke-width="0"/></g></g><g transform="translate(113.816 14.264)"><g><path d="M0,20.889C0,20.889,0,0,0,0s20.889,0,20.889,0s0,20.889,0,20.889-20.889,0-20.889,0Z" fill="none" fill-rule="evenodd" stroke-width="0"/></g><g><path d="M0,20.889C0,20.889,0,0,0,0s20.889,0,20.889,0s0,20.889,0,20.889-20.889,0-20.889,0Z" stroke-width="0"/></g></g><g transform="translate(49.604 70.905)"><g><path d="M0,0c0,0,.103,0,.103,0s0,.103,0,.103C0.103,0.103,0,0,0,0Z" fill="none" fill-rule="evenodd" stroke-width="0"/></g><g><path d="M0,0c0,0,.103,0,.103,0s0,.103,0,.103C0.103,0.103,0,0,0,0Z" stroke-width="0"/></g></g><g transform="translate(85.151 78.028)"><g><path d="M0,0.103C0,0.103,0,0,0,0s.103,0,.103,0-.103.103-.103.103Z" fill="none" fill-rule="evenodd" stroke-width="0"/></g><g><path d="M0,0.103C0,0.103,0,0,0,0s.103,0,.103,0-.103.103-.103.103Z" stroke-width="0"/></g></g><g transform="translate(42.498 63.799)"><g><path d="M0,0c0,0,.103,0,.103,0s0,.103,0,.103C0.103,0.103,0,0,0,0Z" fill="none" fill-rule="evenodd" stroke-width="0"/></g><g><path d="M0,0c0,0,.103,0,.103,0s0,.103,0,.103C0.103,0.103,0,0,0,0Z" stroke-width="0"/></g></g><g transform="translate(63.816 85.134)"><g><path d="M0,0c0,0,.103,0,.103,0s0,.103,0,.103C0.103,0.103,0,0,0,0Z" fill="none" fill-rule="evenodd" stroke-width="0"/></g><g><path d="M0,0c0,0,.103,0,.103,0s0,.103,0,.103C0.103,0.103,0,0,0,0Z" stroke-width="0"/></g></g><g transform="translate(56.71 78.011)"><g><path d="M0,0c0,0,.103,0,.103,0s0,.103,0,.103C0.103,0.103,0,0,0,0Z" fill="none" fill-rule="evenodd" stroke-width="0"/></g><g><path d="M0,0c0,0,.103,0,.103,0s0,.103,0,.103C0.103,0.103,0,0,0,0Z" stroke-width="0"/></g></g><g transform="translate(92.257 63.799)"><g><path d="M0,0.103C0,0.103,0,0,0,0s.103,0,.103,0-.103.103-.103.103Z" fill="none" fill-rule="evenodd" stroke-width="0"/></g><g><path d="M0,0.103C0,0.103,0,0,0,0s.103,0,.103,0-.103.103-.103.103Z" stroke-width="0"/></g></g><g transform="translate(63.937 57.003)"><g><path d="M28.338,0c0,0,0,6.797,0,6.797s-7.106,0-7.106,0s0,14.229,0,14.229-14.28,0-14.28,0s0,7.106,0,7.106-6.952,0-6.952,0s0-14.383,0-14.383s6.969,0,6.969,0s0-13.749,0-13.749s21.369,0,21.369,0Z" fill="none" fill-rule="evenodd" stroke-width="0"/></g><g><path d="M28.338,0c0,0,0,6.797,0,6.797s-7.106,0-7.106,0s0,14.229,0,14.229-14.28,0-14.28,0s0,7.106,0,7.106-6.952,0-6.952,0s0-14.383,0-14.383s6.969,0,6.969,0s0-13.749,0-13.749s21.369,0,21.369,0Z" stroke-width="0"/></g></g><g transform="translate(56.539 56.573)"><g><path d="M0,0c0,0,.12.103.12.103-.034,0-.069,0-.103,0c0-.034,0-.103,0-.103s-.017,0-.017,0Z" fill="none" fill-rule="evenodd" stroke-width="0"/></g><g><path d="M0,0c0,0,.12.103.12.103-.034,0-.069,0-.103,0c0-.034,0-.103,0-.103s-.017,0-.017,0Z" stroke-width="0"/></g></g><g transform="translate(.12 0)"><g><path d="M0,0C0,0,49.347,0,49.347,0s0,49.347,0,49.347-49.347,0-49.347,0C0,49.347,0,0,0,0Z" stroke-width="0"/><path d="M42.173,42.361c0,0,0-35.118,0-35.118s-35.118,0-35.118,0s0,35.118,0,35.118s35.118,0,35.118,0Z" fill="#fff" stroke-width="0"/></g><g><path d="M42.173,42.361c0,0,0-35.118,0-35.118s-35.118,0-35.118,0s0,35.118,0,35.118s35.118,0,35.118,0Z" fill="none" fill-rule="evenodd" stroke-width="0"/><path d="M0,0C0,0,49.347,0,49.347,0s0,49.347,0,49.347-49.347,0-49.347,0C0,49.347,0,0,0,0Z" fill="none" fill-rule="evenodd" stroke-width="0"/><g transform="translate(14.315 14.264)"><g><path d="M20.958,0c0,0,0,20.889,0,20.889s-20.958,0-20.958,0C0,20.889,0,0,0,0s20.958,0,20.958,0Z" fill="none" fill-rule="evenodd" stroke-width="0"/></g><g><path d="M20.958,0c0,0,0,20.889,0,20.889s-20.958,0-20.958,0C0,20.889,0,0,0,0s20.958,0,20.958,0Z" stroke-width="0"/></g></g></g></g></g><text id="eHCd36ywezf264" dx="0" dy="0" font-family="&quot;Averta Demo&quot;" font-size="14" font-weight="400" transform="translate(340.895 165)" opacity="0" fill-opacity="0" stroke="#000" stroke-width="0" stroke-opacity="0"><tspan x="0" y="0" font-family="&quot;Averta Demo&quot;" font-size="14" font-weight="400" font-style="normal" stroke="#000" stroke-width="0"><![CDATA[
Live Preview
]]></tspan></text><g transform="translate(104.229 223.575)"><path d="M-16,-12c0,0,32,0,32,0s0,24,0,24-32,0-32,0s0-21.469,0-21.469s15.995,10.675,15.995,10.675s14.224-11.012,14.224-11.012" paint-order="stroke fill markers" fill="none" fill-rule="evenodd" stroke="#380000" stroke-width="1.5" stroke-linecap="round" stroke-linejoin="round"/></g><g transform="translate(103.5 126.5)"><rect width="52" height="52" rx="3" ry="3" transform="translate(-26-26)" fill="#380300" stroke-width="0"/></g><g transform="translate(104.229 124.825)"><path d="M0.002,-16c0,0,.014,0,.014,0s.192,0,.192,0c.379.004.759.027,1.131.062c0,0,.018,0,.018,0s.087.011.087.011.101.012.101.012c.12.011.235.027.351.042c0,0,.025,0,.025,0s.029.008.029.008.145.019.145.019.018,0,.018,0s.04.008.04.008.101.015.101.015.097.016.097.016.102.015.102.015.028,0,.028,0s.069.019.069.019.098.02.098.02.097.019.097.019.098.019.098.019.098.019.098.019c.162.035.329.074.491.112c0,0,.098.023.098.023c2.722.702,5.155,2.193,7.074,4.236c2.711,2.89,4.389,6.883,4.396,11.296c0,0,0,.008,0,.008s0,.007,0,.007s0,.016,0,.016c-.004,4.409-1.685,8.402-4.396,11.296-1.956,2.085-4.45,3.6-7.244,4.282c0,0-.094.023-.094.023s-.094.023-.094.023-.098.023-.098.023-.097.023-.097.023-.098.023-.098.023-.097.024-.097.024-.098.019-.098.019-.025,0-.025,0-.073.019-.073.019-.097.019-.097.019-.018,0-.018,0-.083.016-.083.016-.098.019-.098.019-.004,0-.004,0-.094.019-.094.019-.094.016-.094.016-.003,0-.003,0-.098.015-.098.015-.083.016-.083.016-.018,0-.018,0-.098.015-.098.015-.072.008-.072.008-.025,0-.025,0-.163.023-.163.023-.036,0-.036,0-.101.011-.101.011-.055,0-.055,0-.043.008-.043.008c-.365.035-.734.054-1.103.058c0,0-.003,0-.003,0s-.188,0-.188,0-.007,0-.007,0-.008,0-.008,0-.014,0-.014,0-.188,0-.188,0-.004,0-.004,0c-.372-.004-.737-.027-1.102-.058c0,0-.043,0-.043,0s-.055-.008-.055-.008-.101-.007-.101-.007-.036,0-.036,0-.163-.023-.163-.023-.025,0-.025,0-.072-.012-.072-.012-.098-.015-.098-.015-.018,0-.018,0-.083-.016-.083-.016-.098-.015-.098-.015-.003,0-.003,0-.094-.016-.094-.016-.094-.019-.094-.019-.004,0-.004,0-.098-.019-.098-.019-.032,0-.032,0-.069-.02-.069-.02-.097-.019-.097-.019-.073-.015-.073-.015-.025,0-.025,0-.098-.023-.098-.023-.097-.023-.097-.023-.098-.024-.098-.024-.097-.023-.097-.023-.098-.023-.098-.023c-2.867-.659-5.43-2.193-7.432-4.324-2.704-2.887-4.381-6.88-4.385-11.292c0,0,0-.008,0-.008s0-.008,0-.008s0-.015,0-.015c.004-4.409,1.681-8.402,4.396-11.296c2.053-2.186,4.699-3.743,7.66-4.375c0,0,.097-.019.097-.019s.098-.019.098-.019.097-.019.097-.019.098-.02.098-.02.069-.011.069-.011.032,0,.032,0s.101-.023.101-.023.102-.016.102-.016.101-.015.101-.015.04-.008.04-.008.018,0,.018,0s.144-.023.144-.023.029-.004.029-.004.073-.011.073-.011c.101-.012.202-.027.303-.035c0,0,.101-.012.101-.012s.087-.007.087-.007.018,0,.018,0c.372-.039.752-.058,1.132-.062c0,0,.191,0,.191,0s.007,0,.007,0s0,.004,0,.004.008-.004.008-.004Z" paint-order="stroke fill markers" fill="none" fill-rule="evenodd" stroke="#fff" stroke-width="0.4"/><path d="M-1.849,-15.881c.101-.011.202-.027.303-.034c0,0-.303.034-.303.034Z" paint-order="stroke fill markers" fill="none" fill-rule="evenodd" stroke="#fff" stroke-width="0.4"/><path d="M-10.89,10.045c1.236-.705,2.711-1.291,4.349-1.722-.68-2.34-1.081-5.08-1.106-8.009c0,0-6.753,0-6.753,0c.072,3.719,1.381,7.111,3.51,9.731Z" paint-order="stroke fill markers" fill="none" fill-rule="evenodd" stroke="#fff" stroke-width="0.4"/><path d="M-5.959,8.18c1.742-.408,3.654-.64,5.661-.663c0,0,0-7.199,0-7.199s-6.753,0-6.753,0c.029,2.886.423,5.577,1.092,7.862Z" paint-order="stroke fill markers" fill="none" fill-rule="evenodd" stroke="#fff" stroke-width="0.4"/><path d="M0.302,7.517c2.006.023,3.918.255,5.661.663.668-2.285,1.062-4.976,1.091-7.862c0,0-6.752,0-6.752,0s0,7.199,0,7.199Z" paint-order="stroke fill markers" fill="none" fill-rule="evenodd" stroke="#fff" stroke-width="0.4"/><path d="M6.545,8.323c1.641.427,3.112,1.017,4.348,1.722c2.126-2.617,3.438-6.012,3.51-9.731c0,0-6.752,0-6.752,0-.029,2.929-.43,5.669-1.106,8.009Z" paint-order="stroke fill markers" fill="none" fill-rule="evenodd" stroke="#fff" stroke-width="0.4"/><path d="M-6.357,8.932c-1.551.4-2.946.948-4.121,1.603c0,0,.058.065.058.065s.116.128.116.128.007.011.007.011.061.066.061.066.047.05.047.05.018.015.018.015.062.066.062.066.022.023.022.023.043.046.043.046.054.054.054.054.015.015.015.015.065.066.065.066.025.023.025.023.04.042.04.042.058.058.058.058.007.008.007.008.195.189.195.189.004,0,.004,0s.097.096.097.096.033.031.033.031.065.062.065.062.202.181.202.181.004,0,.004,0c.141.127.282.247.423.366c0,0,.054.046.054.046s.051.043.051.043c1.771,1.422,3.864,2.416,6.138,2.844-1.132-.813-2.137-2.158-2.95-3.896-.329-.702-.629-1.469-.893-2.294c0,0,0-.007,0-.007Z" paint-order="stroke fill markers" fill="none" fill-rule="evenodd" stroke="#fff" stroke-width="0.4"/><path d="M9.596,11.452c0,0,.195-.189.195-.189s.007-.007.007-.007.058-.058.058-.058.04-.043.04-.043.025-.023.025-.023.065-.065.065-.065.015-.016.015-.016.054-.054.054-.054.043-.046.043-.046.022-.023.022-.023.061-.066.061-.066.018-.019.018-.019.047-.05.047-.05.062-.065.062-.065.007-.008.007-.008.116-.127.116-.127.058-.07.058-.07C9.31,9.868,7.918,9.325,6.368,8.92c-.264.821-.564,1.592-.893,2.293-.814,1.738-1.822,3.083-2.95,3.897c2.274-.428,4.363-1.423,6.138-2.845c0,0,.051-.042.051-.042s.054-.046.054-.046c.144-.12.285-.239.423-.363c0,0,.003,0,.003,0s.203-.185.203-.185.065-.061.065-.061.032-.031.032-.031.098-.093.098-.093.004.008.004.008Z" paint-order="stroke fill markers" fill="none" fill-rule="evenodd" stroke="#fff" stroke-width="0.4"/><path d="M5.775,8.785c-1.681-.389-3.528-.613-5.473-.632c0,0,0,7.184,0,7.184c1.789-.166,3.419-1.815,4.63-4.401.311-.659.593-1.38.843-2.151Z" paint-order="stroke fill markers" fill="none" fill-rule="evenodd" stroke="#fff" stroke-width="0.4"/><path d="M-0.298,8.153c-1.945.019-3.792.243-5.473.632.249.771.531,1.492.842,2.151c1.211,2.582,2.841,4.235,4.631,4.401c0,0,0-7.184,0-7.184Z" paint-order="stroke fill markers" fill="none" fill-rule="evenodd" stroke="#fff" stroke-width="0.4"/><path d="M-10.666,-10.323c1.193.69,2.621,1.264,4.215,1.684.286-.936.615-1.804.987-2.59.813-1.738,1.822-3.083,2.953-3.896-.137.027-.278.054-.415.085-2.802.616-5.307,2.104-7.255,4.181-.167.177-.326.355-.481.54c0,0-.004-.004-.004-.004Z" paint-order="stroke fill markers" fill="none" fill-rule="evenodd" stroke="#fff" stroke-width="0.4"/><path d="M-5.865,-8.492c1.706.4,3.589.632,5.567.655c0,0,0-7.512,0-7.512-1.79.166-3.42,1.815-4.631,4.402-.351.743-.661,1.568-.936,2.451c0,0,0,.004,0,.004Z" paint-order="stroke fill markers" fill="none" fill-rule="evenodd" stroke="#fff" stroke-width="0.4"/><path d="M0.302,-7.841c1.981-.023,3.86-.254,5.567-.655-.271-.887-.586-1.708-.937-2.451-1.211-2.583-2.841-4.236-4.63-4.402c0,0,0,7.508,0,7.508Z" paint-order="stroke fill markers" fill="none" fill-rule="evenodd" stroke="#fff" stroke-width="0.4"/><path d="M6.451,-8.639c1.598-.42,3.025-.994,4.215-1.684-.156-.185-.319-.362-.481-.54-1.949-2.077-4.454-3.561-7.255-4.181-.138-.031-.275-.058-.416-.085c1.131.813,2.137,2.158,2.953,3.896.369.787.698,1.658.987,2.59c0,0-.003.004-.003.004Z" paint-order="stroke fill markers" fill="none" fill-rule="evenodd" stroke="#fff" stroke-width="0.4"/><path d="M11.071,-9.834c-1.251.74-2.759,1.353-4.443,1.804.625,2.27.998,4.902,1.023,7.708c0,0,6.752,0,6.752,0-.068-3.615-1.308-6.922-3.332-9.508c0,0,0-.004,0-.004Z" paint-order="stroke fill markers" fill="none" fill-rule="evenodd" stroke="#fff" stroke-width="0.4"/><path d="M6.046,-7.884c-1.764.421-3.705.659-5.748.683c0,0,0,6.879,0,6.879s6.753,0,6.753,0c-.026-2.759-.391-5.342-1.005-7.562Z" paint-order="stroke fill markers" fill="none" fill-rule="evenodd" stroke="#fff" stroke-width="0.4"/><path d="M-0.298,-7.201c-2.043-.024-3.984-.262-5.748-.683-.615,2.22-.98,4.799-1.005,7.562c0,0,6.753,0,6.753,0s0-6.879,0-6.879Z" paint-order="stroke fill markers" fill="none" fill-rule="evenodd" stroke="#fff" stroke-width="0.4"/><path d="M-6.628,-8.03c-1.685-.447-3.188-1.064-4.443-1.804-2.02,2.59-3.26,5.897-3.329,9.512c0,0,6.753,0,6.753,0c.025-2.806.394-5.434,1.023-7.708c0,0-.004,0-.004,0Z" paint-order="stroke fill markers" fill="none" fill-rule="evenodd" stroke="#fff" stroke-width="0.4"/></g><g transform="translate(300 225)"><g id="eHCd36ywezf290_to" style="offset-path:path('M208.25,202.375C195.417,193.875,144.083,159.875,131.25,151.375');offset-rotate:0deg"><g id="eHCd36ywezf290" transform="rotate(-36) translate(74.5,-3.875)" opacity="0"><g><path d="M-73.5,-5.938c0,0-7.876,17.617-7.876,17.617s8.145-3.872,8.145-3.872s6.883,5.243,6.883,5.243-7.152-18.988-7.152-18.988Z" fill="#ff3e00" stroke-width="0"/></g></g></g></g><g mask="url(#eHCd36ywezf296)"><text dx="0" dy="0" font-family="&quot;Averta Demo&quot;" font-size="14" font-weight="400" transform="translate(232.43 122)" fill="#0b0b0b" stroke="#000" stroke-width="0"><tspan x="0" y="0" font-family="&quot;Averta Demo&quot;" font-size="14" font-weight="400" font-style="normal" fill="#0b0b0b" stroke="#000" stroke-width="0"><![CDATA[
velvetpaws.org
]]></tspan></text><mask id="eHCd36ywezf296" mask-type="luminance" x="-150%" y="-150%" height="400%" width="400%"><g id="eHCd36ywezf297_to" transform="translate(130.14676,119.747)"><rect width="60" height="45" rx="0" ry="0" transform="scale(1.672554,0.469956) translate(0,-25.15344)" fill="#d2dbed" stroke-width="0"/></g></mask></g></svg>
