<svg id="eQ4J5ujDAxs1" xmlns="http://www.w3.org/2000/svg" xmlns:xlink="http://www.w3.org/1999/xlink" viewBox="0 0 600 450" shape-rendering="geometricPrecision" text-rendering="geometricPrecision" project-id="05c8c3fb821d4bfca1a7a87f0973992e" export-id="9166265d64f44864b29504f01303e585" cached="false" style="background-color:transparent">
<style><![CDATA[
#eQ4J5ujDAxs103_to {animation: eQ4J5ujDAxs103_to__to 3937ms linear infinite normal forwards}@keyframes eQ4J5ujDAxs103_to__to { 0% {offset-distance: 0%} 12.725425% {offset-distance: 0%;animation-timing-function: cubic-bezier(0.333,0,0.667,1)} 33.909068% {offset-distance: 50%;animation-timing-function: cubic-bezier(0.333,0,0.667,1)} 54.229108% {offset-distance: 100%} 100% {offset-distance: 100%}} #eQ4J5ujDAxs103 {animation: eQ4J5ujDAxs103_c_o 3937ms linear infinite normal forwards}@keyframes eQ4J5ujDAxs103_c_o { 0% {opacity: 0} 12.725425% {opacity: 0} 16.941834% {opacity: 1} 50.0127% {opacity: 1} 54.229108% {opacity: 0} 100% {opacity: 0}} #eQ4J5ujDAxs106 {animation: eQ4J5ujDAxs106_c_o 3937ms linear infinite normal forwards}@keyframes eQ4J5ujDAxs106_c_o { 0% {opacity: 0} 48.310897% {opacity: 0} 60.17272% {opacity: 1;animation-timing-function: step-end} 100% {opacity: 0.99744}} #eQ4J5ujDAxs240 {animation: eQ4J5ujDAxs240_c_o 3937ms linear infinite normal forwards}@keyframes eQ4J5ujDAxs240_c_o { 0% {opacity: 0} 55.676911% {opacity: 0;animation-timing-function: step-end} 55.930912% {opacity: 1;animation-timing-function: step-end} 100% {opacity: 0.99717}} #eQ4J5ujDAxs241 {animation: eQ4J5ujDAxs241_s_da 3937ms linear infinite normal forwards}@keyframes eQ4J5ujDAxs241_s_da { 0% {stroke-dasharray: 0, 0, 0, 286.75} 55.930912% {stroke-dasharray: 0, 0, 0, 286.75;animation-timing-function: cubic-bezier(0.167,0.167,0.667,1)} 80.518161% {stroke-dasharray: 0, 0, 286.74, 0} 100% {stroke-dasharray: 0, 0, 286.74, 0}} #eQ4J5ujDAxs242 {animation: eQ4J5ujDAxs242_c_o 3937ms linear infinite normal forwards}@keyframes eQ4J5ujDAxs242_c_o { 0% {opacity: 0} 52.298705% {opacity: 0;animation-timing-function: step-end} 52.552705% {opacity: 1;animation-timing-function: step-end} 100% {opacity: 0.996953}} #eQ4J5ujDAxs243 {animation: eQ4J5ujDAxs243_s_da 3937ms linear infinite normal forwards}@keyframes eQ4J5ujDAxs243_s_da { 0% {stroke-dasharray: 0, 0, 0, 282.29} 52.552705% {stroke-dasharray: 0, 0, 0, 282.29;animation-timing-function: cubic-bezier(0.167,0.167,0.667,1)} 77.114554% {stroke-dasharray: 0, 0, 282.28, 0} 100% {stroke-dasharray: 0, 0, 282.28, 0}} #eQ4J5ujDAxs244 {animation: eQ4J5ujDAxs244_c_o 3937ms linear infinite normal forwards}@keyframes eQ4J5ujDAxs244_c_o { 0% {opacity: 0} 51.689103% {opacity: 0;animation-timing-function: cubic-bezier(0.167,0.167,0,1)} 72.898146% {opacity: 1;animation-timing-function: step-end} 100% {opacity: 0.998248}} #eQ4J5ujDAxs254 {animation-name: eQ4J5ujDAxs254_c_o, eQ4J5ujDAxs254_f_o, eQ4J5ujDAxs254_s_o;animation-duration: 3937ms;animation-fill-mode: forwards;animation-timing-function: linear;animation-direction: normal;animation-iteration-count: infinite;}@keyframes eQ4J5ujDAxs254_c_o { 0% {opacity: 0} 65.252731% {opacity: 0;animation-timing-function: cubic-bezier(0.333,0,0.667,1)} 83.058166% {opacity: 1} 100% {opacity: 1}}@keyframes eQ4J5ujDAxs254_f_o { 0% {fill-opacity: 0} 65.252731% {fill-opacity: 0;animation-timing-function: cubic-bezier(0.333,0,0.667,1)} 83.058166% {fill-opacity: 1} 100% {fill-opacity: 1}}@keyframes eQ4J5ujDAxs254_s_o { 0% {stroke-opacity: 0} 65.252731% {stroke-opacity: 0;animation-timing-function: cubic-bezier(0.333,0,0.667,1)} 83.058166% {stroke-opacity: 1} 100% {stroke-opacity: 1}} #eQ4J5ujDAxs257 {animation-name: eQ4J5ujDAxs257_c_o, eQ4J5ujDAxs257_f_o, eQ4J5ujDAxs257_s_o;animation-duration: 3937ms;animation-fill-mode: forwards;animation-timing-function: linear;animation-direction: normal;animation-iteration-count: infinite;}@keyframes eQ4J5ujDAxs257_c_o { 0% {opacity: 0} 65.252731% {opacity: 0;animation-timing-function: cubic-bezier(0.333,0,0.667,1)} 83.058166% {opacity: 1} 100% {opacity: 1}}@keyframes eQ4J5ujDAxs257_f_o { 0% {fill-opacity: 0} 65.252731% {fill-opacity: 0;animation-timing-function: cubic-bezier(0.333,0,0.667,1)} 83.058166% {fill-opacity: 1} 100% {fill-opacity: 1}}@keyframes eQ4J5ujDAxs257_s_o { 0% {stroke-opacity: 0} 65.252731% {stroke-opacity: 0;animation-timing-function: cubic-bezier(0.333,0,0.667,1)} 83.058166% {stroke-opacity: 1} 100% {stroke-opacity: 1}} #eQ4J5ujDAxs260 {animation-name: eQ4J5ujDAxs260_c_o, eQ4J5ujDAxs260_f_o, eQ4J5ujDAxs260_s_o;animation-duration: 3937ms;animation-fill-mode: forwards;animation-timing-function: linear;animation-direction: normal;animation-iteration-count: infinite;}@keyframes eQ4J5ujDAxs260_c_o { 0% {opacity: 0} 59.334519% {opacity: 0;animation-timing-function: cubic-bezier(0.333,0,0.667,1)} 77.114554% {opacity: 1} 100% {opacity: 1}}@keyframes eQ4J5ujDAxs260_f_o { 0% {fill-opacity: 0} 59.334519% {fill-opacity: 0;animation-timing-function: cubic-bezier(0.333,0,0.667,1)} 77.114554% {fill-opacity: 1} 100% {fill-opacity: 1}}@keyframes eQ4J5ujDAxs260_s_o { 0% {stroke-opacity: 0} 59.334519% {stroke-opacity: 0;animation-timing-function: cubic-bezier(0.333,0,0.667,1)} 77.114554% {stroke-opacity: 1} 100% {stroke-opacity: 1}} #eQ4J5ujDAxs263 {animation-name: eQ4J5ujDAxs263_c_o, eQ4J5ujDAxs263_f_o, eQ4J5ujDAxs263_s_o;animation-duration: 3937ms;animation-fill-mode: forwards;animation-timing-function: linear;animation-direction: normal;animation-iteration-count: infinite;}@keyframes eQ4J5ujDAxs263_c_o { 0% {opacity: 0} 59.334519% {opacity: 0;animation-timing-function: cubic-bezier(0.333,0,0.667,1)} 77.114554% {opacity: 1} 100% {opacity: 1}}@keyframes eQ4J5ujDAxs263_f_o { 0% {fill-opacity: 0} 59.334519% {fill-opacity: 0;animation-timing-function: cubic-bezier(0.333,0,0.667,1)} 77.114554% {fill-opacity: 1} 100% {fill-opacity: 1}}@keyframes eQ4J5ujDAxs263_s_o { 0% {stroke-opacity: 0} 59.334519% {stroke-opacity: 0;animation-timing-function: cubic-bezier(0.333,0,0.667,1)} 77.114554% {stroke-opacity: 1} 100% {stroke-opacity: 1}} #eQ4J5ujDAxs266 {animation-name: eQ4J5ujDAxs266_c_o, eQ4J5ujDAxs266_f_o, eQ4J5ujDAxs266_s_o;animation-duration: 3937ms;animation-fill-mode: forwards;animation-timing-function: linear;animation-direction: normal;animation-iteration-count: infinite;}@keyframes eQ4J5ujDAxs266_c_o { 0% {opacity: 0} 51.689103% {opacity: 0;animation-timing-function: cubic-bezier(0.333,0,0.667,1)} 69.494539% {opacity: 1} 100% {opacity: 1}}@keyframes eQ4J5ujDAxs266_f_o { 0% {fill-opacity: 0} 51.689103% {fill-opacity: 0;animation-timing-function: cubic-bezier(0.333,0,0.667,1)} 69.494539% {fill-opacity: 1} 100% {fill-opacity: 1}}@keyframes eQ4J5ujDAxs266_s_o { 0% {stroke-opacity: 0} 51.689103% {stroke-opacity: 0;animation-timing-function: cubic-bezier(0.333,0,0.667,1)} 69.494539% {stroke-opacity: 1} 100% {stroke-opacity: 1}} #eQ4J5ujDAxs269 {animation-name: eQ4J5ujDAxs269_c_o, eQ4J5ujDAxs269_f_o, eQ4J5ujDAxs269_s_o;animation-duration: 3937ms;animation-fill-mode: forwards;animation-timing-function: linear;animation-direction: normal;animation-iteration-count: infinite;}@keyframes eQ4J5ujDAxs269_c_o { 0% {opacity: 0} 51.689103% {opacity: 0;animation-timing-function: cubic-bezier(0.333,0,0.667,1)} 69.494539% {opacity: 1} 100% {opacity: 1}}@keyframes eQ4J5ujDAxs269_f_o { 0% {fill-opacity: 0} 51.689103% {fill-opacity: 0;animation-timing-function: cubic-bezier(0.333,0,0.667,1)} 69.494539% {fill-opacity: 1} 100% {fill-opacity: 1}}@keyframes eQ4J5ujDAxs269_s_o { 0% {stroke-opacity: 0} 51.689103% {stroke-opacity: 0;animation-timing-function: cubic-bezier(0.333,0,0.667,1)} 69.494539% {stroke-opacity: 1} 100% {stroke-opacity: 1}}
]]></style>
<g transform="translate(300 225)"><g><rect width="496" height="318" rx="10" ry="10" transform="translate(-248-159)" fill="#f7f7f7" stroke-width="0"/></g><g><rect width="496" height="318" rx="10" ry="10" transform="translate(-248-159)" fill="none" fill-rule="evenodd" stroke-width="0"/></g></g><g transform="matrix(.9 0 0 0.9 193.3764 104.7177)"><g transform="translate(121.804 123.647)"><path d="M-114.304,-122.148c0,0,228.608,0,228.608,0c3.314,0,6,2.686,6,6c0,0,0,232.296,0,232.296c0,3.314-2.686,6-6,6c0,0-228.608,0-228.608,0-3.314,0-6-2.686-6-6c0,0,0-232.296,0-232.296c0-3.314,2.686-6,6-6Z" fill="#fff" stroke-width="0"/></g><g transform="translate(121.804 123.647)"><path d="M-114.304,-122.648c0,0,228.608,0,228.608,0c3.59,0,6.5,2.91,6.5,6.5c0,0,0,232.296,0,232.296c0,3.59-2.91,6.5-6.5,6.5c0,0-228.608,0-228.608,0-3.59,0-6.5-2.91-6.5-6.5c0,0,0-232.296,0-232.296c0-3.59,2.91-6.5,6.5-6.5Z" paint-order="stroke fill markers" fill="none" fill-rule="evenodd" stroke="#eff3f4"/></g><g transform="translate(173.658 149.737)"><path d="M21.893,-21.893c0,0-8.627,0-8.627,0s0,8.585,0,8.585-25.778,0-25.778,0s0,26.113,0,26.113s8.375,0,8.375,0s0,8.941,0,8.941-8.5,0-8.5,0s0,8.23,0,8.23s34.174,0,34.174,0s0-17.045,0-17.045-25.799,0-25.799,0s0-8.649,0-8.649s17.297,0,17.297,0s0-8.439,0-8.439s8.733,0,8.733,0s0,8.23,0,8.23s8.585,0,8.585,0s0,26.091,0,26.091s8.627,0,8.627,0s0,17.109,0,17.109-8.417,0-8.417,0s0-8.167,0-8.167-8.586,0-8.586,0s0,8.209,0,8.209-8.732,0-8.732,0s0-8.125,0-8.125-8.586,0-8.586,0s0,8.02,0,8.02-8.732,0-8.732,0s0-8.083,0-8.083-8.585,0-8.585,0s0,8.355,0,8.355-17.632,0-17.632,0s.126.126.126.126s0-17.276,0-17.276-8.502,0-8.502,0s0-8.69,0-8.69s16.773,0,16.773,0s0-17.527,0-17.527-8.418,0-8.418,0s.126.125.126.125s0-8.878,0-8.878s8.292,0,8.292,0s0-8.46,0-8.46-17.087,0-17.087,0c.042-2.932.083-5.864.125-8.795c0,0-.125.125-.125.125s17.15,0,17.15,0s0-8.899,0-8.899-8.334,0-8.334,0s0-8.586,0-8.586-.126.126-.126.126s8.586,0,8.586,0s0-8.481,0-8.481s26.238,0,26.238,0s0,17.129,0,17.129-17.129,0-17.129,0s0,8.334,0,8.334s17.003,0,17.003,0s0-8.459,0-8.459c5.822.041,11.642.104,17.463.146c0,0-.125-.126-.125-.126s0,8.795,0,8.795.125-.125.125-.125.022.021.022.021Z" fill="#692b24" stroke-width="0"/></g><g transform="translate(61.062 62.771)"><path d="M-30.102,-30.102c0,0,60.204,0,60.204,0s0,60.204,0,60.204-60.204,0-60.204,0s0-60.204,0-60.204Z" fill="#692b24" stroke-width="0"/><path d="" fill="#692b24" stroke-width="0"/><path d="M21.349,-21.264c0,0-42.844,0-42.844,0s0,42.844,0,42.844s42.844,0,42.844,0s0-42.844,0-42.844Z" fill="#fff" stroke-width="0"/></g><g transform="translate(61.104 184.351)"><path d="M30.081,-30.102c0,0,0,60.205,0,60.205s-60.183,0-60.183,0s0-60.205,0-60.205s60.204,0,60.204,0-.021,0-.021,0Z" fill="#692b24" stroke-width="0"/><path d="" fill="#692b24" stroke-width="0"/><path d="M-21.453,21.307c0,0,42.844,0,42.844,0s0-42.843,0-42.843-42.844,0-42.844,0s0,42.843,0,42.843Z" fill="#fff" stroke-width="0"/></g><g transform="translate(182.527 62.771)"><path d="M-30.091,-30.102c0,0,60.182,0,60.182,0s0,60.204,0,60.204-60.182,0-60.182,0s0-60.204,0-60.204Z" fill="#692b24" stroke-width="0"/><path d="M21.464,-21.306c0,0-42.844,0-42.844,0s0,42.844,0,42.844s42.844,0,42.844,0s0-42.844,0-42.844Z" fill="#fff" stroke-width="0"/></g><g transform="translate(121.485 80.131)"><path d="M13.235,-21.558c0,0,8.438,0,8.438,0s0,17.15,0,17.15-16.898,0-16.898,0s0,17.213,0,17.213-8.732,0-8.732,0s0-8.083,0-8.083-8.732,0-8.732,0s0,16.836,0,16.836-8.984,0-8.984,0s.146.126.125.126c0,0,0-34.489,0-34.489s34.888,0,34.888,0s0-8.879,0-8.879-.127.126-.127.126.022,0,.022,0Z" fill="#692b24" stroke-width="0"/></g><g transform="translate(121.748 153.746)"><path d="M21.642,0.126c0,0,0,8.648,0,8.648s-17.13,0-17.13,0s0,8.439,0,8.439-17.59,0-17.59,0s0-8.397,0-8.397s8.46,0,8.46,0s0-8.313,0-8.313-8.334,0-8.334,0s0,8.439,0,8.439-8.669,0-8.669,0s0-26.155,0-26.155-.125.126-.125.126s8.794,0,8.794,0-.126-.126-.126-.126s0,8.67,0,8.67s17.486,0,17.486,0s0,8.795,0,8.795s17.338,0,17.338,0-.126-.126-.126-.126.022,0,.022,0Z" fill="#692b24" stroke-width="0"/></g><g transform="translate(199.835 119.248)"><path d="M-4.282,0.052c0,0,0-8.628,0-8.628s-8.502,0-8.502,0s0-8.438,0-8.438s16.961,0,16.961,0s0,8.271,0,8.271s8.607,0,8.607,0s0,25.757,0,25.757-17.087,0-17.087,0s0-8.418,0-8.418-.126.125-.126.125s8.439,0,8.439,0s0-8.795,0-8.795-8.439,0-8.439,0s.126.126.126.126.021,0,.021,0Z" fill="#692b24" stroke-width="0"/></g><g transform="translate(130.438 201.469)"><path d="M12.952,-4.23c0,2.931-.001,5.863-.022,8.795c0,0,.127-.126.127-.126s-17.213,0-17.213,0s0,8.461,0,8.461-8.795,0-8.795,0s0-17.13,0-17.13-.127.125-.127.125s8.796,0,8.796,0s0-8.795,0-8.795-.125.127-.125.127s8.584,0,8.584,0s0,8.647,0,8.647s8.901,0,8.901,0-.126-.125-.126-.125s0,.021,0,.021Z" fill="#692b24" stroke-width="0"/></g><g transform="translate(43.746 136.628)"><path d="M12.763,-8.408c0,0,0,16.795,0,16.795s-8.397,0-8.397,0s0-8.125,0-8.125-8.69,0-8.69,0s0,8.146,0,8.146-8.439,0-8.439,0s0-16.816,0-16.816s25.526,0,25.526,0Z" fill="#692b24" stroke-width="0"/></g><g transform="translate(126.292 45.642)"><path d="M8.554,12.805c0,0-17.129,0-17.129,0s0-25.736,0-25.736s8.187,0,8.187,0s0,17.192,0,17.192s8.942,0,8.942,0-.126-.125-.126-.125c0,2.931,0,5.863.021,8.795c0,0,.126-.126.126-.126s-.021,0-.021,0Z" fill="#692b24" stroke-width="0"/></g><g transform="translate(39.295 110.526)"><path d="M-8.481,-8.376c0,0,16.962,0,16.962,0s0,16.752,0,16.752-16.962,0-16.962,0s0-16.752,0-16.752Z" fill="#692b24" stroke-width="0"/></g><g transform="translate(138.929 41.349)"><path d="M-4.104,8.554c0,0,0-17.108,0-17.108s8.334,0,8.334,0s0,16.982,0,16.982-8.46,0-8.46,0s.126.126.126.126Z" fill="#692b24" stroke-width="0"/></g><g transform="translate(104.368 49.841)"><path d="M4.073,8.481c0,0-8.146,0-8.146,0s0-16.962,0-16.962s8.146,0,8.146,0s0,16.962,0,16.962Z" fill="#692b24" stroke-width="0"/></g><g transform="translate(74.035 114.903)"><path d="M8.732,4.271c0,0-17.339,0-17.339,0s0-8.668,0-8.668-.125.125-.125.125s17.464,0,17.464,0-.126-.125-.126-.125s0,8.794,0,8.794.126-.126.126-.126Z" fill="#692b24" stroke-width="0"/></g><g transform="translate(104.513 205.784)"><path d="M3.989,-8.669c0,0,0,17.339,0,17.339s-8.104,0-8.104,0s0-17.213,0-17.213s8.23,0,8.23,0-.147-.126-.147-.126.021,0,.021,0Z" fill="#692b24" stroke-width="0"/></g><g transform="translate(139.075 88.843)"><path d="M-4.083,-4.115c0,0,8.166,0,8.166,0s0,8.23,0,8.23-8.166,0-8.166,0s0-8.23,0-8.23Z" fill="#692b24" stroke-width="0"/></g><g transform="translate(87.154 140.721)"><path d="M3.989,-4.335c0,0,0,8.67,0,8.67s-8.104,0-8.104,0s0-8.545,0-8.545s8.23,0,8.23,0-.147-.125-.147-.125.021,0,.021,0Z" fill="#692b24" stroke-width="0"/></g><g transform="translate(95.636 132.262)"><path d="M4.492,4.272c-2.995-.042-5.99-.083-8.984-.146c0,0,.146.125.125.125.063-2.89.106-5.779.169-8.648c0,0-.127.126-.127.126s8.795,0,8.795,0-.126-.126-.126-.126s0,8.794,0,8.794.126-.125.126-.125.022,0,.022,0Z" fill="#692b24" stroke-width="0"/></g><g transform="translate(87.05 123.571)"><path d="M4.408,4.292c0,0-8.69,0-8.69,0s0-8.689,0-8.689-.126.125-.126.125s8.795,0,8.795,0-.126-.125-.126-.125s0,8.794,0,8.794.126-.126.126-.126.021.021.021.021Z" fill="#692b24" stroke-width="0"/></g><g transform="translate(104.588 184.477)"><path d="M4.209,4.093c0,0-8.418,0-8.418,0s0-8.312,0-8.312s8.292,0,8.292,0s0,8.438,0,8.438.126-.126.126-.126Z" fill="#692b24" stroke-width="0"/></g><g transform="translate(112.995 192.959)"><path d="M-4.324,-4.262c0,0,8.816,0,8.816,0s-.125-.125-.125-.125s0,8.795,0,8.795.125-.126.125-.126c-2.994-.042-5.99-.084-8.984-.146c0,0,.147.125.127.125.041-2.89.104-5.779.146-8.669c0,0-.127.125-.127.125s.022.021.022.021Z" fill="#692b24" stroke-width="0"/></g><g transform="translate(61.21 106.402)"><path d="M4.22,4.104c0,0-8.44,0-8.44,0s0-8.334,0-8.334s8.313,0,8.313,0s0,8.46,0,8.46.127-.126.127-.126Z" fill="#692b24" stroke-width="0"/></g><g transform="translate(147.588 210.16)"><path d="M-4.219,-4.105c0,0,8.438,0,8.438,0s0,8.335,0,8.335-8.313,0-8.313,0s0-8.46,0-8.46-.125.125-.125.125Z" fill="#692b24" stroke-width="0"/></g><g transform="translate(165.085 210.222)"><path d="M-4.042,-4.146c0,0,8.084,0,8.084,0s0,8.292,0,8.292-8.084,0-8.084,0s0-8.292,0-8.292Z" fill="#692b24" stroke-width="0"/></g><g transform="translate(182.559 210.37)"><path d="M4.073,4.084c0,0-8.146,0-8.146,0s0-8.167,0-8.167s8.146,0,8.146,0s0,8.167,0,8.167Z" fill="#692b24" stroke-width="0"/></g><g transform="translate(199.866 210.306)"><path d="M4.104,4.062c0,0-8.208,0-8.208,0s0-8.124,0-8.124s8.208,0,8.208,0s0,8.124,0,8.124Z" fill="#692b24" stroke-width="0"/></g><g transform="translate(130.426 140.93)"><path d="M-4.397,-4.398c0,0,8.794,0,8.794,0s0,8.796,0,8.796-8.794,0-8.794,0s0-8.796,0-8.796Z" fill="#692b24" stroke-width="0"/></g><g transform="translate(61.064 62.814)"><path d="M12.784,12.742c0,0-25.568,0-25.568,0s0-25.484,0-25.484s25.568,0,25.568,0s0,25.484,0,25.484Z" fill="#692b24" stroke-width="0"/></g><g transform="translate(60.979 184.329)"><path d="M12.721,12.826c0,0-25.442,0-25.442,0s0-25.652,0-25.652s25.442,0,25.442,0s0,25.652,0,25.652Z" fill="#692b24" stroke-width="0"/></g><g transform="translate(182.412 62.814)"><path d="M-12.742,-12.742c0,0,25.484,0,25.484,0s0,25.484,0,25.484-25.484,0-25.484,0s0-25.484,0-25.484Z" fill="#692b24" stroke-width="0"/></g><g transform="translate(91.395 119.237)"><path d="M0.063,0.063c0,0,0-.126,0-.126s-.126,0-.126,0s.126.126.126.126Z" fill="#692b24" stroke-width="0"/></g><g transform="translate(134.762 127.928)"><path d="M0.063,-0.063c0,0-.126,0-.126,0s0,.126,0,.126.126-.126.126-.126Z" fill="#692b24" stroke-width="0"/></g><g transform="translate(82.725 110.569)"><path d="M0.063,0.063c0,0,0-.126,0-.126s-.126,0-.126,0s.126.126.126.126Z" fill="#692b24" stroke-width="0"/></g><g transform="translate(108.733 136.596)"><path d="M0.063,0.063c0,0,0-.126,0-.126s-.126,0-.126,0s.126.126.126.126Z" fill="#692b24" stroke-width="0"/></g><g transform="translate(100.065 127.906)"><path d="M0.063,0.062c0,0,0-.124,0-.124s-.126,0-.126,0s.126.124.126.124Z" fill="#692b24" stroke-width="0"/></g><g transform="translate(143.432 110.569)"><path d="M0.063,-0.063c0,0-.126,0-.126,0s0,.126,0,.126.126-.126.126-.126Z" fill="#692b24" stroke-width="0"/></g><g transform="translate(126.102 119.373)"><path d="M-8.784,-17.161c0,0,0,16.774,0,16.774s-8.502,0-8.502,0s0,17.548,0,17.548s8.48,0,8.48,0s0-8.669,0-8.669s17.423,0,17.423,0s0-17.36,0-17.36s8.669,0,8.669,0s0-8.293,0-8.293-26.07,0-26.07,0Z" fill="#692b24" stroke-width="0"/></g><g transform="translate(99.864 101.752)"><path d="M-0.052,-0.062c0,0,0,.124,0,.124s.126,0,.126,0-.148-.124-.148-.124.022,0,.022,0Z" fill="#692b24" stroke-width="0"/></g></g><g transform="matrix(.899998 0 0 0.899998 191.924538 104.71873)"><g transform="translate(205.591 214.357)"><path d="M-20.615,17.007c0,0,41.23,0,41.23,0s0-34.014,0-34.014" paint-order="stroke fill markers" fill="none" fill-rule="evenodd" stroke="#ff3e00" stroke-width="5" stroke-linejoin="round"/></g><g transform="translate(42.729 33.971)"><path d="M20.616,-17.008c0,0-41.232,0-41.232,0s0,34.016,0,34.016" paint-order="stroke fill markers" fill="none" fill-rule="evenodd" stroke="#ff3e00" stroke-width="5" stroke-linejoin="round"/></g><g transform="translate(205.591 33.971)"><path d="M-20.615,-17.008c0,0,41.23,0,41.23,0s0,34.016,0,34.016" paint-order="stroke fill markers" fill="none" fill-rule="evenodd" stroke="#ff3e00" stroke-width="5" stroke-linejoin="round"/></g><g transform="translate(42.729 214.357)"><path d="M20.616,17.007c0,0-41.232,0-41.232,0s0-34.014,0-34.014" paint-order="stroke fill markers" fill="none" fill-rule="evenodd" stroke="#ff3e00" stroke-width="5" stroke-linejoin="round"/></g></g><g transform="translate(300 225)"><g id="eQ4J5ujDAxs103_to" style="offset-path:path('M4.66,-111.601Q4.66,-79.934,4.66,78.399Q4.66,-79.934,4.66,-111.601');offset-rotate:0deg"><g id="eQ4J5ujDAxs103" transform="scale(0.79,0.62) translate(-121.573,-121.633)" opacity="0"><g transform="translate(121.573 121.633)"><path d="M-104.624,1.03c0,0,209.248-2.06,209.248-2.06" paint-order="stroke fill markers" fill="none" fill-rule="evenodd" stroke="#ff3e00" stroke-width="5"/></g></g></g></g><g id="eQ4J5ujDAxs106" transform="translate(-21-25)" opacity="0"><g transform="matrix(.75 0 0 0.75 181.689 223.81975)"><g transform="translate(413.98 157.564)"><path d="M-143.777,-106c0,0,287.554,0,287.554,0c3.59,0,6.5,2.91,6.5,6.5c0,0,0,199,0,199c0,3.59-2.91,6.5-6.5,6.5c0,0-287.554,0-287.554,0-3.59,0-6.5-2.91-6.5-6.5c0,0,0-199,0-199c0-3.59,2.91-6.5,6.5-6.5Z" paint-order="stroke fill markers" fill="none" fill-rule="evenodd" stroke="#eff3f4"/></g><g transform="translate(413.471 75.914)"><path d="M-58.757,5.828c0,0,0-9.633,0-9.633s-3.227,0-3.227,0s0-1.734,0-1.734s8.414,0,8.414,0s0,1.734,0,1.734-3.258,0-3.258,0s0,9.633,0,9.633-1.929,0-1.929,0Z" stroke-width="0"/><path d="M-49.703,5.953c-.609,0-1.164-.102-1.679-.305-.516-.203-.955-.476-1.306-.836-.352-.359-.624-.781-.819-1.281-.204-.492-.297-1.023-.297-1.594c0-.765.164-1.453.5-2.062.336-.61.82-1.086,1.445-1.438.625-.351,1.344-.531,2.156-.531.789,0,1.492.172,2.117.508.618.336,1.102.812,1.454,1.422.343.617.523,1.32.523,2.101s-.18,1.485-.523,2.094c-.352.609-.836,1.086-1.461,1.422s-1.329.5-2.11.5Z" stroke-width="0"/><path d="M-49.703,4.328c.641,0,1.18-.219,1.617-.672.438-.453.657-1.023.657-1.719c0-.703-.219-1.281-.649-1.734-.437-.445-.976-.672-1.625-.672-.679,0-1.227.234-1.649.688-.422.46-.632,1.031-.632,1.718c0,.68.211,1.25.641,1.703.429.461.976.688,1.64.688Z" stroke-width="0"/><path d="M-41.484,5.953c-.688,0-1.227-.219-1.609-.656-.383-.438-.571-1.079-.571-1.938c0,0,0-3.812,0-3.812s-.953,0-.953,0s0-1.524,0-1.524.953,0,.953,0s0-2.594,0-2.594s1.789-.195,1.789-.195s0,2.789,0,2.789s2.297,0,2.297,0s0,1.524,0,1.524-2.297,0-2.297,0s0,3.648,0,3.648c0,.391.055.672.18.836.125.172.313.25.57.25.344,0,.735-.109,1.157-.336c0,0,.468,1.547.468,1.547-.281.156-.57.265-.859.344-.289.078-.664.117-1.125.117Z" stroke-width="0"/><path d="M-32.562,-1.977c0,0,1.789,0,1.789,0s0,7.805,0,7.805-1.711,0-1.711,0s0-1.047,0-1.047-.023,0-.023,0c-.594.781-1.422,1.172-2.485,1.172-.43,0-.836-.055-1.226-.18-.391-.117-.736-.297-1.048-.531-.313-.235-.577-.508-.804-.828-.227-.321-.398-.688-.523-1.11s-.18-.867-.18-1.343c0-.578.094-1.117.289-1.625.187-.5.453-.93.789-1.289.328-.352.727-.633,1.195-.836.461-.203.961-.305,1.493-.305c1.015,0,1.82.352,2.414,1.055c0,0,.031,0,.031,0s0-.938,0-.938Z" stroke-width="0"/><path d="M-34.711,4.328c.618,0,1.14-.219,1.57-.656.429-.438.649-1.008.649-1.704c0-.687-.211-1.265-.633-1.734s-.945-.703-1.578-.703c-.312,0-.609.062-.883.172-.273.117-.507.281-.711.484-.203.203-.367.461-.484.774-.117.312-.172.648-.172,1.007c0,.696.203,1.266.625,1.704.414.437.953.656,1.617.656Z" stroke-width="0"/><path d="" stroke-width="0"/><path d="M-28.398,-5.953c0,0,1.789,0,1.789,0s0,11.781,0,11.781-1.789,0-1.789,0s0-11.781,0-11.781Z" stroke-width="0"/><path d="M-14.429,5.929c-.625,0-1.219-.078-1.782-.234-.57-.156-1.093-.391-1.578-.711-.484-.32-.898-.703-1.25-1.156-.359-.453-.633-.985-.828-1.61-.203-.624-.297-1.296-.297-2.031c0-.648.078-1.265.235-1.851.156-.586.398-1.125.726-1.61.321-.484.711-.898,1.164-1.258.453-.359.984-.632,1.601-.835.617-.196,1.29-.297,2.009-.297.82,0,1.625.179,2.406.539.781.359,1.476.906,2.07,1.64c0,0-1.422,1.204-1.422,1.204-.382-.469-.843-.852-1.375-1.133-.531-.282-1.093-.422-1.679-.422-.735,0-1.375.172-1.938.5-.562.336-1,.805-1.312,1.414-.313.609-.469,1.312-.469,2.109c0,.766.156,1.453.476,2.047.313.594.757,1.055,1.32,1.383.562.328,1.204.492,1.923.492.609,0,1.178-.133,1.702-.414.515-.281.97-.656,1.352-1.133c0,0,1.422,1.211,1.422,1.211-.523.656-1.164,1.18-1.922,1.57-.757.391-1.609.586-2.554.586Z" stroke-width="0"/><path d="M-4.641,5.953c-.61,0-1.163-.102-1.679-.305s-.953-.476-1.305-.836c-.351-.359-.625-.781-.82-1.281-.203-.492-.297-1.023-.297-1.594c0-.765.164-1.453.5-2.062.336-.61.82-1.086,1.445-1.438.625-.351,1.343-.531,2.156-.531.789,0,1.493.172,2.118.508.617.336,1.101.812,1.453,1.422.344.617.523,1.32.523,2.101s-.179,1.485-.523,2.094c-.352.609-.836,1.086-1.461,1.422s-1.329.5-2.11.5Z" stroke-width="0"/><path d="M-4.641,4.328c.64,0,1.18-.219,1.618-.672.437-.453.656-1.023.656-1.719c0-.703-.22-1.281-.649-1.734-.438-.445-.977-.672-1.625-.672-.68,0-1.226.234-1.648.688-.422.46-.633,1.031-.633,1.718c0,.68.211,1.25.641,1.703.43.461.976.688,1.64.688Z" stroke-width="0"/><path d="M5.758,-2.094c.891,0,1.593.273,2.101.82s.766,1.383.766,2.508c0,0,0,4.602,0,4.602s-1.789,0-1.789,0s0-4.141,0-4.141c0-.406-.039-.75-.109-1.031-.078-.281-.188-.5-.336-.664-.156-.164-.329-.282-.532-.36-.203-.07-.437-.109-.718-.109-.305,0-.579.055-.829.156-.25.11-.468.258-.64.453-.179.204-.32.454-.414.75-.094.305-.14.641-.14,1.016c0,0,0,3.922,0,3.922s-1.79,0-1.79,0s0-7.805,0-7.805s1.79,0,1.79,0s0,1.07,0,1.07.023,0,.023,0c.328-.382.718-.679,1.171-.882s.931-.305,1.446-.305Z" stroke-width="0"/><path d="M15.664,-1.977c0,0,1.93,0,1.93,0s-3.094,7.805-3.094,7.805-1.711,0-1.711,0-3.109-7.805-3.109-7.805s1.914,0,1.914,0s2.039,5.563,2.039,5.563.031,0,.031,0s2-5.563,2-5.563Z" stroke-width="0"/><path d="M25.727,1.836c0,.289-.016.523-.047.711c0,0-5.687,0-5.687,0c.109.554.367.992.765,1.304.399.321.883.477,1.461.477.805,0,1.453-.305,1.945-.922c0,0,1.25,1.07,1.25,1.07-.359.453-.812.813-1.367,1.078-.554.266-1.195.399-1.922.399-.757,0-1.437-.164-2.039-.492-.609-.329-1.086-.797-1.429-1.414-.352-.618-.524-1.329-.524-2.125c0-.586.094-1.133.289-1.633.188-.5.453-.922.797-1.274.336-.343.742-.617,1.211-.812s.969-.297,1.508-.297c.75,0,1.422.172,2,.508.578.344,1.015.804,1.328,1.398.305.594.461,1.274.461,2.024Z" stroke-width="0"/><path d="M22.032,-0.469c-.5,0-.922.141-1.282.414-.359.274-.602.656-.727,1.156c0,0,3.907,0,3.907,0-.078-.312-.204-.586-.368-.82s-.374-.414-.64-.547c-.265-.133-.562-.203-.89-.203Z" stroke-width="0"/><path d="M31.82,-2.094c.101,0,.173.008.219.008c0,0,0,1.992,0,1.992-.203-.016-.382-.023-.539-.023-.445,0-.828.101-1.156.296-.328.204-.571.469-.735.805s-.241.719-.241,1.141c0,0,0,3.703,0,3.703s-1.79,0-1.79,0s0-7.805,0-7.805s1.79,0,1.79,0s0,1.172,0,1.172.023,0,.023,0c.305-.414.664-.734,1.086-.953s.866-.336,1.343-.336Z" stroke-width="0"/><path d="M36.031,5.953c-1.243,0-2.296-.375-3.156-1.141c0,0,.906-1.344.906-1.344.312.321.649.555,1.008.704.36.148.773.218,1.242.218.336,0,.602-.07.797-.211.196-.14.297-.32.297-.554c0-.188-.117-.336-.336-.461-.218-.125-.625-.289-1.211-.492-.234-.079-.445-.157-.625-.235-.187-.078-.375-.164-.562-.273-.188-.11-.353-.227-.485-.36-.141-.125-.266-.273-.375-.437-.11-.164-.196-.352-.25-.563-.063-.203-.086-.437-.086-.687c0-.633.258-1.156.774-1.578s1.179-.633,1.976-.633c1.031,0,1.954.328,2.766.977c0,0-.899,1.406-.899,1.406-.203-.188-.422-.344-.656-.469-.235-.125-.453-.219-.663-.281-.219-.055-.43-.086-.641-.086s-.406.062-.586.172c-.18.117-.266.281-.266.5c0,.125.055.25.164.359.11.11.243.211.414.297.165.094.383.188.665.297.828.328,1.343.547,1.546.648.516.282.852.617,1.016,1.008.094.25.14.531.14.852c0,.336-.062.648-.179.929-.125.282-.298.532-.532.75-.235.219-.539.383-.914.508s-.805.18-1.289.18Z" stroke-width="0"/><path d="M41.743,-3.141c-.344,0-.625-.109-.86-.344-.234-.234-.352-.515-.352-.843c0-.329.118-.602.352-.836.235-.235.516-.352.86-.352.328,0,.609.117.843.352.235.234.359.515.359.836c0,.218-.055.414-.164.593-.11.188-.257.329-.445.438-.187.109-.383.156-.593.156Z" stroke-width="0"/><path d="" stroke-width="0"/><path d="M40.836,-1.977c0,0,1.789,0,1.789,0s0,7.805,0,7.805-1.789,0-1.789,0s0-7.805,0-7.805Z" stroke-width="0"/><path d="M48.719,5.953c-.609,0-1.164-.102-1.68-.305-.515-.203-.954-.476-1.305-.836-.352-.359-.624-.781-.82-1.281-.203-.492-.296-1.023-.296-1.594c0-.765.164-1.453.5-2.062.335-.61.819-1.086,1.444-1.438.625-.351,1.345-.531,2.157-.531.789,0,1.492.172,2.117.508.617.336,1.102.812,1.453,1.422.344.617.523,1.32.523,2.101s-.179,1.485-.523,2.094c-.351.609-.836,1.086-1.461,1.422s-1.328.5-2.109.5Z" stroke-width="0"/><path d="M48.719,4.328c.641,0,1.18-.219,1.617-.672.438-.453.657-1.023.657-1.719c0-.703-.219-1.281-.649-1.734-.437-.445-.976-.672-1.625-.672-.68,0-1.227.234-1.649.688-.422.46-.632,1.031-.632,1.718c0,.68.211,1.25.64,1.703.43.461.977.688,1.641.688Z" stroke-width="0"/><path d="M59.118,-2.094c.89,0,1.593.273,2.101.82s.765,1.383.765,2.508c0,0,0,4.602,0,4.602s-1.789,0-1.789,0s0-4.141,0-4.141c0-.406-.038-.75-.109-1.031-.078-.281-.187-.5-.336-.664-.156-.164-.328-.282-.531-.36-.203-.07-.437-.109-.719-.109-.304,0-.578.055-.828.156-.25.11-.47.258-.641.453-.18.204-.32.454-.413.75-.094.305-.141.641-.141,1.016c0,0,0,3.922,0,3.922s-1.789,0-1.789,0s0-7.805,0-7.805s1.789,0,1.789,0s0,1.07,0,1.07.023,0,.023,0c.328-.382.719-.679,1.172-.882s.93-.305,1.446-.305Z" stroke-width="0"/></g><g transform="translate(413.735 157.123)"><path d="M-143.777,-105.5c0,0,287.554,0,287.554,0c3.314,0,6,2.686,6,6c0,0,0,199,0,199c0,3.314-2.686,6-6,6c0,0-287.554,0-287.554,0-3.314,0-6-2.686-6-6c0,0,0-199,0-199c0-3.314,2.686-6,6-6Z" fill="#fff" stroke-width="0"/></g><g transform="translate(346.759 241.994)"><path d="M-5.371,-6.372c0,0,10.742,0,10.742,0c.553,0,1,.448,1,1c0,0,0,10.744,0,10.744c0,.553-.447,1-1,1c0,0-10.742,0-10.742,0-.552,0-1-.447-1-1c0,0,0-10.744,0-10.744c0-.552.448-1,1-1Z" fill="#ff3e00" stroke-width="0"/></g><g transform="translate(381.312 242.617)"><path d="M-21.628,3.65c0,0,0-6.304,0-6.304s-2.124,0-2.124,0s0-.8,0-.8s5.141,0,5.141,0s0,.8,0,.8-2.148,0-2.148,0s0,6.304,0,6.304-.869,0-.869,0Z" stroke-width="0"/><path d="M-16.213,3.714c-.371,0-.718-.064-1.031-.191-.317-.127-.586-.303-.8-.528-.215-.224-.386-.488-.508-.791s-.181-.63-.181-.981c0-.347.059-.674.181-.982.122-.307.293-.571.508-.796.214-.224.483-.4.8-.527.313-.127.66-.195,1.031-.195.473,0,.903.107,1.284.312.381.21.679.508.893.889.215.381.328.815.328,1.299c0,.483-.113.913-.328,1.294-.214.381-.512.678-.893.884-.381.209-.811.313-1.284.313Z" stroke-width="0"/><path d="M-16.213,2.966c.307,0,.59-.073.849-.22.254-.146.459-.351.611-.62.146-.264.224-.566.224-.903s-.078-.64-.224-.908c-.152-.269-.357-.479-.611-.625-.254-.147-.537-.22-.849-.22-.332,0-.63.078-.889.234-.264.156-.464.372-.601.636-.141.269-.21.561-.21.883s.069.616.21.88c.142.263.342.472.606.629.259.156.552.234.884.234Z" fill="#fff" stroke-width="0"/><path d="M-11.135,3.714c-.845,0-1.265-.504-1.265-1.515c0,0,0-2.715,0-2.715s-.62,0-.62,0s0-.703,0-.703.62,0,.62,0s0-1.665,0-1.665.811-.087.811-.087s0,1.752,0,1.752s1.611,0,1.611,0s0,.703,0,.703-1.611,0-1.611,0s0,2.593,0,2.593c0,.308.044.532.131.669.088.137.24.206.464.206.254,0,.528-.084.821-.25c0,0,.215.708.215.708-.108.059-.206.113-.298.152-.098.039-.22.078-.376.107-.157.029-.327.045-.503.045Z" stroke-width="0"/><path d="M-5.305,-1.219c0,0,.81,0,.81,0s0,4.869,0,4.869-.776,0-.776,0s0-.771,0-.771-.015,0-.015,0c-.2.264-.444.468-.737.614-.293.147-.615.221-.967.221-.332,0-.644-.059-.937-.176s-.547-.284-.762-.499c-.215-.21-.381-.469-.503-.781-.127-.308-.185-.645-.185-1.011c0-.473.097-.903.302-1.289.205-.381.489-.683.855-.903.361-.22.771-.332,1.225-.332.332,0,.645.068.933.2.288.137.532.327.737.581c0,0,.02,0,.02,0s0-.723,0-.723Z" stroke-width="0"/><path d="M-6.912,2.971c.215,0,.425-.039.625-.122.196-.083.371-.199.523-.346.146-.146.268-.332.356-.547s.132-.449.132-.703c0-.244-.044-.478-.127-.698s-.195-.411-.337-.572c-.146-.157-.317-.284-.517-.376-.205-.093-.42-.142-.645-.142-.473,0-.869.166-1.181.493-.313.332-.469.763-.469,1.295c0,.498.151.912.454,1.234.303.323.698.484,1.186.484Z" fill="#fff" stroke-width="0"/><path d="" stroke-width="0"/><path d="M-2.927,-3.714c0,0,.805,0,.805,0s0,7.364,0,7.364-.805,0-.805,0s0-7.364,0-7.364Z" stroke-width="0"/><path d="M4.441,3.714c-.464,0-.913-.089-1.348-.274-.439-.181-.825-.454-1.167-.825c0,0,.552-.67.552-.67.249.308.552.543.903.705.352.161.708.238,1.07.238.439,0,.791-.093,1.054-.288.264-.196.401-.458.401-.795c0-.361-.152-.646-.445-.856-.175-.122-.507-.272-.996-.458c0,0-.005-.005-.005-.005s-.004,0-.004,0-.005,0-.005,0-.005-.004-.005-.004-.005,0-.005,0-.005-.005-.005-.005-.005,0-.005,0-.005,0-.005,0-.005-.006-.005-.006-.004,0-.004,0-.005,0-.005,0-.005-.005-.005-.005-.005,0-.005,0-.005-.005-.005-.005-.005,0-.005,0-.005,0-.005,0-.005-.005-.005-.005-.005,0-.005,0-.004-.004-.004-.004-.005,0-.005,0-.005,0-.005,0-.005-.005-.005-.005-.005,0-.005,0-.005,0-.005,0-.005-.004-.005-.004-.005,0-.005,0-.004-.005-.004-.005-.005,0-.005,0-.005,0-.005,0-.01-.006-.01-.006c-.181-.069-.332-.126-.454-.175s-.264-.113-.425-.191c-.161-.079-.293-.152-.4-.225-.108-.073-.22-.16-.337-.268-.117-.107-.205-.214-.274-.332-.068-.112-.122-.245-.166-.396-.044-.152-.063-.313-.063-.484c0-.346.093-.664.283-.952s.454-.511.786-.677.698-.25,1.099-.25c.39,0,.776.069,1.162.211.381.146.742.35,1.084.619c0,0-.523.674-.523.674-.278-.224-.566-.4-.869-.517-.302-.117-.586-.177-.859-.177-.225,0-.435.039-.62.117-.186.078-.342.197-.459.353-.122.156-.181.342-.181.556-.005.323.152.581.464.786.171.117.513.274,1.025.469c0,0,.005.004.005.004s.005,0,.005,0s.005.005.005.005.005,0,.005,0s.005,0,.005,0s.005.005.005.005c.586.23.971.397,1.162.494.449.244.752.541.903.893.088.215.132.459.132.732c0,.254-.044.493-.132.713s-.205.406-.351.563c-.152.156-.328.293-.528.405s-.415.194-.644.248c-.235.054-.474.079-.718.079Z" stroke-width="0"/><path d="M10.212,3.714c-.463,0-.878-.104-1.245-.313-.366-.206-.649-.499-.854-.879-.205-.381-.308-.811-.308-1.299c0-.484.103-.918.308-1.299s.493-.674.864-.889c.371-.21.791-.316,1.265-.316.371,0,.732.077,1.084.224.351.151.644.366.879.644c0,0-.562.489-.562.489-.156-.185-.356-.337-.591-.444-.234-.107-.493-.167-.771-.167-.489,0-.889.166-1.197.488-.307.327-.459.748-.459,1.266c0,.517.152.941.459,1.264.308.322.708.483,1.197.483.273,0,.537-.049.781-.156.244-.108.444-.249.601-.425c0,0,.561.503.561.503-.22.244-.508.444-.859.596-.352.156-.738.23-1.153.23Z" stroke-width="0"/><path d="M17.107,-1.219c0,0,.81,0,.81,0s0,4.869,0,4.869-.776,0-.776,0s0-.771,0-.771-.015,0-.015,0c-.2.264-.444.468-.737.614-.293.147-.615.221-.967.221-.332,0-.644-.059-.937-.176s-.547-.284-.762-.499c-.215-.21-.381-.469-.503-.781-.127-.308-.185-.645-.185-1.011c0-.473.097-.903.302-1.289.205-.381.489-.683.855-.903.361-.22.771-.332,1.225-.332.333,0,.645.068.933.2.288.137.532.327.737.581c0,0,.02,0,.02,0s0-.723,0-.723Z" stroke-width="0"/><path d="M15.5,2.971c.215,0,.425-.039.625-.122.196-.083.372-.199.523-.346.146-.146.269-.332.356-.547.088-.215.132-.449.132-.703c0-.244-.044-.478-.127-.698s-.195-.411-.337-.572c-.146-.157-.317-.284-.517-.376-.205-.093-.42-.142-.645-.142-.473,0-.869.166-1.181.493-.313.332-.469.763-.469,1.295c0,.498.151.912.454,1.234.303.323.698.484,1.186.484Z" fill="#fff" stroke-width="0"/><path d="M22.004,-1.277c.542,0,.967.172,1.28.513.312.342.468.854.468,1.528c0,0,0,2.891,0,2.891s-.81,0-.81,0s0-2.667,0-2.667c0-.278-.029-.517-.088-.717-.059-.196-.137-.357-.244-.474-.108-.117-.235-.2-.371-.254-.142-.049-.303-.078-.489-.078-.463,0-.834.161-1.113.474-.278.312-.415.743-.415,1.28c0,0,0,2.431,0,2.431s-.81,0-.81,0s0-4.869,0-4.869.81,0,.81,0s0,.84,0,.84.015,0,.015,0c.2-.288.454-.508.762-.664.302-.156.639-.234,1.005-.234Z" stroke-width="0"/></g><g transform="translate(424.055 241.994)"><path d="M-5.371,-6.372c0,0,10.742,0,10.742,0c.553,0,1,.448,1,1c0,0,0,10.744,0,10.744c0,.553-.447,1-1,1c0,0-10.742,0-10.742,0-.552,0-1-.447-1-1c0,0,0-10.744,0-10.744c0-.552.448-1,1-1Z" fill="#891900" stroke-width="0"/></g><g transform="translate(464.199 244.028)"><path d="M-25.696,2.658c-.41,0-.781-.063-1.118-.2-.337-.132-.625-.322-.865-.571-.244-.244-.429-.557-.561-.928-.137-.371-.2-.791-.2-1.255c0,0,0-4.213,0-4.213s.869,0,.869,0s0,4.15,0,4.15c0,.664.166,1.191.508,1.592.342.4.796.595,1.367.595.561,0,1.016-.195,1.367-.586.347-.39.523-.922.523-1.601c0,0,0-4.15,0-4.15s.869,0,.869,0s0,4.213,0,4.213c0,.913-.249,1.636-.747,2.163-.498.528-1.167.791-2.012.791Z" stroke-width="0"/><path d="M-18.767,-2.332c.542,0,.966.171,1.279.513.312.342.469.854.469,1.528c0,0,0,2.891,0,2.891s-.811,0-.811,0s0-2.666,0-2.666c0-.278-.029-.518-.088-.718-.058-.195-.136-.356-.244-.474-.107-.117-.234-.2-.371-.253-.142-.049-.303-.079-.488-.079-.464,0-.835.162-1.114.474-.278.313-.415.742-.415,1.279c0,0,0,2.432,0,2.432s-.81,0-.81,0s0-4.868,0-4.868.81,0,.81,0s0,.84,0,.84.015,0,.015,0c.2-.288.454-.508.762-.664.303-.157.639-.235,1.006-.235Z" stroke-width="0"/><path d="M-15.076,-3.176c-.166,0-.303-.054-.41-.167-.112-.107-.166-.244-.166-.4s.054-.293.166-.405c.107-.108.244-.166.41-.166.103,0,.2.029.288.078s.156.117.21.205c.049.088.078.186.078.288c0,.156-.058.293-.171.4-.112.113-.249.167-.405.167Z" stroke-width="0"/><path d="" stroke-width="0"/><path d="M-15.486,-2.273c0,0,.806,0,.806,0s0,4.868,0,4.868-.806,0-.806,0s0-4.868,0-4.868Z" stroke-width="0"/><path d="M-9.304,-2.273c0,0,.81,0,.81,0s0,6.846,0,6.846-.806,0-.806,0s0-2.701,0-2.701-.019,0-.019,0c-.2.254-.44.445-.723.581-.283.137-.595.205-.932.205-.332,0-.645-.058-.938-.175s-.547-.284-.762-.498c-.214-.21-.38-.469-.503-.782-.126-.307-.185-.644-.185-1.01c0-.352.059-.689.181-1.001.117-.313.283-.576.493-.801.205-.225.459-.4.757-.527.293-.127.61-.196.952-.196.215,0,.425.03.63.088.2.059.385.147.561.264s.327.259.464.425c0,0,.02,0,.02,0s0-.718,0-.718Z" stroke-width="0"/><path d="M-10.896,1.916c.215,0,.42-.039.615-.122s.366-.2.518-.346c.146-.147.268-.332.356-.547s.132-.45.132-.703c0-.328-.073-.63-.21-.904-.142-.273-.337-.488-.581-.644-.249-.157-.523-.24-.821-.24-.473,0-.869.166-1.181.494-.313.332-.469.761-.469,1.294c0,.498.151.913.454,1.235s.698.483,1.187.483Z" fill="#fff" stroke-width="0"/><path d="M-3.636,-2.273c0,0,.811,0,.811,0s0,4.868,0,4.868-.811,0-.811,0s0-.806,0-.806-.014,0-.014,0c-.195.284-.43.498-.708.645-.283.151-.581.224-.894.224-.576,0-1.025-.166-1.347-.507-.323-.337-.479-.845-.479-1.524c0,0,0-2.9,0-2.9s.811,0,.811,0s0,2.666,0,2.666c0,.542.097.932.293,1.167.195.234.493.351.893.351.195,0,.376-.039.552-.122s.327-.2.459-.351c.132-.152.239-.347.317-.581.078-.235.117-.489.117-.772c0,0,0-2.358,0-2.358Z" stroke-width="0"/><path d="M2.961,0.085c0,.127-.01.235-.024.332c0,0-3.74,0-3.74,0c.048.454.224.816.522,1.089.293.274.659.405,1.099.405.288,0,.546-.058.781-.175.229-.118.425-.279.591-.479c0,0,.566.484.566.484-.22.283-.498.507-.83.673s-.713.244-1.138.244c-.341,0-.664-.058-.962-.18-.297-.122-.551-.293-.766-.508s-.386-.479-.508-.791c-.127-.313-.186-.649-.186-1.016c0-.361.059-.693.181-1.006.117-.312.283-.576.488-.791.205-.214.454-.385.743-.512.283-.122.59-.186.918-.186.444,0,.839.108,1.186.313.342.21.61.498.796.864.185.366.283.781.283,1.24Z" stroke-width="0"/><path d="M0.739,-1.585c-.385,0-.717.122-.996.362-.278.239-.454.561-.527.966c0,0,2.939,0,2.939,0-.068-.4-.224-.722-.473-.966-.249-.24-.562-.362-.943-.362Z" fill="#fff" stroke-width="0"/><path d="M9.128,2.658c-.464,0-.913-.087-1.348-.273-.439-.181-.825-.454-1.167-.825c0,0,.552-.669.552-.669.249.308.552.542.904.703.351.161.708.239,1.069.239.439,0,.791-.092,1.055-.288.263-.195.4-.459.4-.796c0-.361-.151-.644-.444-.854-.176-.122-.508-.274-.996-.459c0,0-.005-.005-.005-.005s-.005,0-.005,0-.005,0-.005,0-.005-.005-.005-.005-.005,0-.005,0-.005-.005-.005-.005-.005,0-.005,0-.005,0-.005,0-.004-.005-.004-.005-.005,0-.005,0-.005,0-.005,0-.005-.005-.005-.005-.005,0-.005,0-.005-.004-.005-.004-.005,0-.005,0-.005,0-.005,0-.004-.005-.004-.005-.005,0-.005,0-.005-.005-.005-.005-.005,0-.005,0-.005,0-.005,0-.005-.005-.005-.005-.005,0-.005,0-.005,0-.005,0-.005-.005-.005-.005-.004,0-.004,0-.005-.005-.005-.005-.005,0-.005,0-.005,0-.005,0-.01-.005-.01-.005c-.18-.068-.332-.127-.454-.176-.122-.048-.264-.112-.425-.19s-.293-.151-.4-.225c-.108-.073-.22-.161-.337-.268-.117-.108-.205-.215-.273-.332-.069-.112-.123-.244-.166-.396-.044-.151-.064-.312-.064-.483c0-.347.093-.664.283-.952.191-.288.454-.513.786-.679s.699-.249,1.099-.249c.391,0,.776.068,1.162.21.381.146.742.352,1.084.62c0,0-.522.674-.522.674-.279-.225-.567-.4-.869-.518-.303-.117-.586-.175-.86-.175-.224,0-.434.039-.62.117s-.342.195-.459.351c-.122.157-.181.342-.181.557-.005.322.152.581.464.786.171.117.513.274,1.026.469c0,0,.005.005.005.005s.004,0,.004,0s.005.005.005.005.005,0,.005,0s.005,0,.005,0s.005.005.005.005c.586.229.972.395,1.162.493.449.244.752.542.903.893.088.215.132.459.132.733c0,.254-.044.493-.132.713-.088.219-.205.405-.351.561-.152.156-.327.293-.528.405-.2.113-.415.196-.644.249-.234.054-.474.078-.718.078Z" stroke-width="0"/><path d="M14.9,2.658c-.464,0-.879-.102-1.245-.312-.367-.205-.65-.498-.855-.879s-.308-.81-.308-1.299c0-.483.103-.918.308-1.299.205-.38.493-.673.864-.888.371-.21.791-.318,1.265-.318.371,0,.732.078,1.084.225.351.151.644.366.879.645c0,0-.562.488-.562.488-.156-.186-.356-.337-.591-.445-.234-.107-.493-.166-.771-.166-.488,0-.889.166-1.196.489-.308.327-.459.747-.459,1.264c0,.518.151.943.459,1.265.307.322.708.483,1.196.483.273,0,.537-.048.781-.156.244-.107.445-.249.601-.425c0,0,.561.503.561.503-.219.244-.507.445-.859.596-.352.156-.737.229-1.152.229Z" stroke-width="0"/><path d="M21.794,-2.273c0,0,.811,0,.811,0s0,4.868,0,4.868-.777,0-.777,0s0-.771,0-.771-.014,0-.014,0c-.201.263-.445.468-.738.615-.293.146-.615.219-.966.219-.332,0-.645-.058-.938-.175s-.547-.284-.762-.498c-.214-.21-.38-.469-.503-.782-.127-.307-.185-.644-.185-1.01c0-.474.098-.904.303-1.289.205-.381.488-.684.854-.904.361-.219.772-.332,1.226-.332.332,0,.644.069.932.2.288.137.533.328.738.581c0,0,.019,0,.019,0s0-.722,0-.722Z" stroke-width="0"/><path d="M20.188,1.916c.215,0,.425-.039.625-.122.195-.083.371-.2.522-.346.147-.147.269-.332.357-.547s.131-.45.131-.703c0-.245-.043-.479-.126-.699-.084-.219-.196-.41-.337-.571-.147-.156-.318-.283-.518-.376-.205-.093-.42-.142-.645-.142-.473,0-.869.166-1.181.494-.313.332-.469.761-.469,1.294c0,.498.151.913.454,1.235s.698.483,1.187.483Z" fill="#fff" stroke-width="0"/><path d="M26.692,-2.332c.542,0,.966.171,1.279.513.312.342.469.854.469,1.528c0,0,0,2.891,0,2.891s-.811,0-.811,0s0-2.666,0-2.666c0-.278-.029-.518-.088-.718-.058-.195-.136-.356-.244-.474-.107-.117-.234-.2-.371-.253-.142-.049-.303-.079-.488-.079-.464,0-.835.162-1.114.474-.278.313-.415.742-.415,1.279c0,0,0,2.432,0,2.432s-.81,0-.81,0s0-4.868,0-4.868.81,0,.81,0s0,.84,0,.84.015,0,.015,0c.2-.288.454-.508.762-.664.302-.157.639-.235,1.006-.235Z" stroke-width="0"/></g><g transform="translate(424.301 153.186)"><path d="M-122.813,-57.313c0,0,0,114.626,0,114.626s245.626,0,245.626,0" paint-order="stroke fill markers" fill="none" fill-rule="evenodd" stroke="#d9d9d9" stroke-width="1.5"/></g><g><path d="M303.357,104.925c0,0,239.506,0,239.506,0" paint-order="stroke fill markers" fill="none" fill-rule="evenodd" stroke="#d9d9d9" stroke-width="1.5" stroke-dasharray="1.5,1.5,0,0,0"/></g><g><path d="M301.941,138.939c0,0,240.923,0,240.923,0" paint-order="stroke fill markers" fill="none" fill-rule="evenodd" stroke="#d9d9d9" stroke-width="1.5" stroke-dasharray="1.5,1.5,0,0,0"/></g><g><path d="M301.941,172.951c0,0,240.923,0,240.923,0" paint-order="stroke fill markers" fill="none" fill-rule="evenodd" stroke="#d9d9d9" stroke-width="1.5" stroke-dasharray="1.5,1.5,0,0,0"/></g><g transform="translate(295.491 205.642)"><path d="M0,2.447c-.264,0-.505-.051-.724-.16-.219-.11-.41-.264-.571-.469s-.288-.461-.377-.772c-.089-.308-.133-.656-.133-1.043c0-.355.041-.683.123-.984s.198-.557.349-.776c.15-.215.338-.383.567-.506s.485-.184.766-.184c.259,0,.502.054.721.164.218.109.41.263.571.468.16.205.287.462.375.773.089.311.138.659.138,1.045c0,.356-.041.684-.123.981-.082.301-.199.558-.349.773-.151.219-.341.386-.567.509-.229.123-.486.181-.766.181Z" fill="#9f9f9f" stroke-width="0"/><path d="M0.004,1.9c.253,0,.467-.078.652-.235.181-.158.319-.376.414-.66.093-.284.14-.619.14-1.002c0-.601-.112-1.066-.331-1.401-.222-.335-.513-.502-.875-.502-.383,0-.68.171-.892.512-.215.342-.321.807-.321,1.391c0,.595.109,1.06.331,1.395s.516.502.882.502Z" fill="#fff" stroke-width="0"/></g><g transform="translate(356.168 220.15)"><path d="M-10.802,2.199c0,0,2.436,0,2.436,0s0,.617,0,.617-3.457,0-3.457,0-.008-.464-.008-.464s1.879-1.918,1.879-1.918c.133-.137.242-.259.332-.364.086-.102.172-.218.258-.343.082-.125.145-.254.188-.379.039-.125.062-.259.062-.392c0-.304-.098-.554-.293-.754-.195-.199-.44-.3-.741-.3-.527,0-.923.254-1.181.754c0,0-.496-.34-.496-.34.106-.207.236-.387.388-.539.152-.153.343-.274.569-.367.227-.09.481-.137.762-.137.219,0,.427.04.63.114.199.074.375.179.531.312.153.136.273.309.366.512.094.207.142.434.142.68c0,.316-.075.617-.22.906-.144.289-.383.601-.719.941c0,0-1.428,1.45-1.428,1.45s0,.011,0,.011Z" fill="#9f9f9f" stroke-width="0"/><path d="M-5.466,2.867c-.301,0-.578-.058-.828-.183s-.47-.302-.654-.536c-.183-.235-.328-.527-.429-.882-.102-.352-.153-.751-.153-1.192c0-.407.048-.782.142-1.125.094-.344.225-.637.397-.887.172-.246.388-.438.65-.578.261-.141.554-.211.875-.211.297,0,.573.063.823.188s.469.3.652.534c.184.235.329.529.431.884.101.356.155.753.155,1.195c0,.406-.046.781-.139,1.121-.094.343-.227.636-.399.882-.172.25-.391.442-.648.583-.262.14-.555.207-.875.207Z" fill="#9f9f9f" stroke-width="0"/><path d="M-5.463,2.242c.289,0,.536-.089.747-.269.207-.18.362-.43.471-.754.106-.324.16-.708.16-1.145c0-.688-.128-1.218-.378-1.601-.254-.383-.586-.575-1-.575-.438,0-.777.195-1.019.586-.246.39-.367.922-.367,1.59c0,.679.124,1.211.378,1.594s.59.574,1.008.574Z" fill="#fff" stroke-width="0"/><path d="M0.995,2.859c-.266,0-.535-.062-.805-.187-.274-.125-.501-.304-.689-.539c0,0,.392-.513.392-.513.148.172.317.309.508.414.187.106.378.157.569.157.617,0,.931-.414.931-1.242c0,0,0-3.816,0-3.816s.694,0,.694,0s0,3.836,0,3.836c0,.625-.129,1.094-.386,1.414-.258.32-.664.476-1.214.476Z" fill="#9f9f9f" stroke-width="0"/><path d="M6.513,-1.078c0,0,.649,0,.649,0s0,3.894,0,3.894-.649,0-.649,0s0-.644,0-.644-.012,0-.012,0c-.156.227-.343.399-.566.516-.226.121-.465.179-.715.179-.461,0-.819-.132-1.077-.406-.258-.269-.384-.677-.384-1.219c0,0,0-2.32,0-2.32s.65,0,.65,0s0,2.133,0,2.133c0,.434.078.745.234.933.156.187.394.282.714.282.156,0,.301-.031.441-.098.141-.066.263-.16.369-.281.105-.121.19-.277.252-.465.063-.187.094-.391.094-.617c0,0,0-1.887,0-1.887Z" fill="#9f9f9f" stroke-width="0"/><path d="M10.432,-1.126c.434,0,.774.137,1.024.41.25.274.375.685.375,1.224c0,0,0,2.312,0,2.312s-.649,0-.649,0s0-2.132,0-2.132c0-.223-.023-.415-.07-.575-.047-.157-.11-.286-.195-.379-.086-.094-.188-.16-.297-.203-.114-.039-.243-.062-.391-.062-.371,0-.669.129-.892.379-.222.25-.332.593-.332,1.022c0,0,0,1.946,0,1.946s-.648,0-.648,0s0-3.894,0-3.894.648,0,.648,0s0,.672,0,.672.013,0,.013,0c.16-.23.362-.407.608-.532.243-.125.513-.188.806-.188Z" fill="#9f9f9f" stroke-width="0"/></g><g transform="translate(415.281 220.15)"><path d="M-9.796,2.199c0,0,2.439,0,2.439,0s0,.617,0,.617-3.458,0-3.458,0-.008-.464-.008-.464s1.88-1.918,1.88-1.918c.133-.137.241-.259.331-.364.086-.102.172-.218.258-.343.082-.125.144-.254.187-.379.039-.125.063-.259.063-.392c0-.304-.097-.554-.292-.754-.195-.199-.441-.3-.742-.3-.528,0-.922.254-1.18.754c0,0-.497-.34-.497-.34.105-.207.235-.387.388-.539.152-.153.343-.274.57-.367.227-.09.479-.137.761-.137.218,0,.426.04.63.114.199.074.375.179.531.312.152.136.273.309.367.512.094.207.141.434.141.68c0,.316-.075.617-.219.906-.145.289-.383.601-.719.941c0,0-1.431,1.45-1.431,1.45s0,.011,0,.011Z" fill="#9f9f9f" stroke-width="0"/><path d="M-5.374,2.816c0,0,0-4.683,0-4.683s-1.097.823-1.097.823-.328-.5-.328-.5s1.544-1.132,1.544-1.132.554,0,.554,0s0,5.492,0,5.492-.673,0-.673,0Z" fill="#9f9f9f" stroke-width="0"/><path d="M-0.013,2.859c-.266,0-.535-.062-.805-.187-.273-.125-.5-.304-.687-.539c0,0,.39-.513.39-.513.149.172.317.309.508.414.187.106.378.157.569.157.617,0,.931-.414.931-1.242c0,0,0-3.816,0-3.816s.694,0,.694,0s0,3.836,0,3.836c0,.625-.129,1.094-.386,1.414-.258.32-.663.476-1.214.476Z" fill="#9f9f9f" stroke-width="0"/><path d="M5.505,-1.078c0,0,.649,0,.649,0s0,3.894,0,3.894-.649,0-.649,0s0-.644,0-.644-.01,0-.01,0c-.157.227-.345.399-.568.516-.226.121-.465.179-.715.179-.461,0-.819-.132-1.077-.406-.258-.269-.384-.677-.384-1.219c0,0,0-2.32,0-2.32s.65,0,.65,0s0,2.133,0,2.133c0,.434.078.745.234.933.156.187.394.282.714.282.156,0,.301-.031.441-.098.141-.066.263-.16.369-.281.105-.121.19-.277.253-.465.062-.187.093-.391.093-.617c0,0,0-1.887,0-1.887Z" fill="#9f9f9f" stroke-width="0"/><path d="M9.424,-1.126c.434,0,.774.137,1.024.41.25.274.375.685.375,1.224c0,0,0,2.312,0,2.312s-.649,0-.649,0s0-2.132,0-2.132c0-.223-.023-.415-.07-.575-.047-.157-.109-.286-.195-.379-.086-.094-.188-.16-.297-.203-.114-.039-.242-.062-.391-.062-.371,0-.669.129-.892.379-.222.25-.332.593-.332,1.022c0,0,0,1.946,0,1.946s-.648,0-.648,0s0-3.894,0-3.894.648,0,.648,0s0,.672,0,.672.013,0,.013,0c.16-.23.363-.407.61-.532.242-.125.511-.188.804-.188Z" fill="#9f9f9f" stroke-width="0"/></g><g transform="translate(472.807 220.15)"><path d="M-10.373,2.199c0,0,2.437,0,2.437,0s0,.617,0,.617-3.457,0-3.457,0-.007-.464-.007-.464s1.878-1.918,1.878-1.918c.133-.137.243-.259.333-.364.085-.102.171-.218.257-.343.082-.125.145-.254.188-.379.039-.125.062-.259.062-.392c0-.304-.097-.554-.293-.754-.195-.199-.441-.3-.742-.3-.527,0-.922.254-1.18.754c0,0-.496-.34-.496-.34.106-.207.235-.387.387-.539.152-.153.344-.274.57-.367.227-.09.481-.137.762-.137.219,0,.426.04.629.114.199.074.375.179.531.312.153.136.274.309.367.512.094.207.141.434.141.68c0,.316-.074.617-.219.906-.144.289-.382.601-.718.941c0,0-1.43,1.45-1.43,1.45s0,.011,0,.011Z" fill="#9f9f9f" stroke-width="0"/><path d="M-6.209,2.199c0,0,2.437,0,2.437,0s0,.617,0,.617-3.457,0-3.457,0-.007-.464-.007-.464s1.879-1.918,1.879-1.918c.132-.137.242-.259.332-.364.086-.102.171-.218.257-.343.082-.125.145-.254.188-.379.039-.125.062-.259.062-.392c0-.304-.097-.554-.293-.754-.195-.199-.441-.3-.742-.3-.527,0-.922.254-1.179.754c0,0-.497-.34-.497-.34.106-.207.235-.387.387-.539.153-.153.344-.274.57-.367.227-.09.481-.137.762-.137.219,0,.426.04.629.114.199.074.375.179.531.312.153.136.274.309.368.512.093.207.14.434.14.68c0,.316-.074.617-.219.906-.144.289-.382.601-.718.941c0,0-1.43,1.45-1.43,1.45s0,.011,0,.011Z" fill="#9f9f9f" stroke-width="0"/><path d="M0.564,2.859c-.265,0-.535-.062-.804-.187-.274-.125-.5-.304-.688-.539c0,0,.391-.513.391-.513.148.172.316.309.508.414.187.106.379.157.57.157.617,0,.93-.414.93-1.242c0,0,0-3.816,0-3.816s.695,0,.695,0s0,3.836,0,3.836c0,.625-.129,1.094-.387,1.414s-.664.476-1.215.476Z" fill="#9f9f9f" stroke-width="0"/><path d="M6.084,-1.078c0,0,.648,0,.648,0s0,3.894,0,3.894-.648,0-.648,0s0-.644,0-.644-.012,0-.012,0c-.156.227-.344.399-.566.516-.227.121-.465.179-.715.179-.461,0-.82-.132-1.078-.406-.258-.269-.383-.677-.383-1.219c0,0,0-2.32,0-2.32s.648,0,.648,0s0,2.133,0,2.133c0,.434.079.745.235.933.156.187.394.282.715.282.156,0,.3-.031.441-.098.141-.066.262-.16.367-.281.106-.121.192-.277.254-.465.063-.187.094-.391.094-.617c0,0,0-1.887,0-1.887Z" fill="#9f9f9f" stroke-width="0"/><path d="M10.002,-1.126c.434,0,.773.137,1.023.41.25.274.375.685.375,1.224c0,0,0,2.312,0,2.312s-.648,0-.648,0s0-2.132,0-2.132c0-.223-.024-.415-.07-.575-.047-.157-.11-.286-.196-.379-.086-.094-.187-.16-.297-.203-.113-.039-.242-.062-.39-.062-.371,0-.668.129-.891.379-.222.25-.332.593-.332,1.022c0,0,0,1.946,0,1.946s-.648,0-.648,0s0-3.894,0-3.894.648,0,.648,0s0,.672,0,.672.012,0,.012,0c.16-.23.363-.407.609-.532.242-.125.512-.188.805-.188Z" fill="#9f9f9f" stroke-width="0"/></g><g transform="translate(530.842 220.15)"><path d="M-10.443,2.199c0,0,2.437,0,2.437,0s0,.617,0,.617-3.457,0-3.457,0-.008-.464-.008-.464s1.879-1.918,1.879-1.918c.133-.137.243-.259.332-.364.086-.102.172-.218.258-.343.082-.125.145-.254.188-.379.039-.125.062-.259.062-.392c0-.304-.097-.554-.293-.754-.195-.199-.441-.3-.742-.3-.527,0-.922.254-1.18.754c0,0-.496-.34-.496-.34.106-.207.235-.387.387-.539.152-.153.344-.274.57-.367.227-.09.481-.137.762-.137.219,0,.426.04.629.114.199.074.375.179.531.312.152.136.274.309.367.512.094.207.141.434.141.68c0,.316-.074.617-.219.906-.144.289-.383.601-.719.941c0,0-1.429,1.45-1.429,1.45s0,.011,0,.011Z" fill="#9f9f9f" stroke-width="0"/><path d="M-4.674,-0.035c.289.117.52.296.688.534.164.243.25.525.25.845c0,.297-.078.563-.235.797-.156.234-.367.414-.636.539-.27.125-.571.187-.907.187-.453,0-.847-.098-1.175-.301-.328-.199-.563-.465-.703-.793c0,0,.582-.265.582-.265.066.153.156.281.269.387.109.109.25.191.418.25.168.062.359.089.57.089.207,0,.399-.039.571-.121.172-.079.308-.195.41-.347.101-.152.152-.329.152-.524c0-.133-.027-.258-.078-.375-.051-.118-.125-.218-.219-.312-.097-.09-.222-.16-.379-.215-.156-.051-.336-.078-.531-.078c0,0-.457,0-.457,0s0-.586,0-.586.535,0,.535,0c.168,0,.317-.024.45-.071.128-.047.23-.11.308-.192s.137-.174.176-.276.058-.215.058-.336c0-.266-.101-.481-.296-.649-.196-.164-.442-.25-.731-.25-.473,0-.832.179-1.078.539c0,0-.543-.296-.543-.296.145-.266.359-.477.641-.633.281-.156.609-.239.992-.239.312,0,.598.058.851.168.254.109.457.278.61.497.152.219.23.476.23.773c0,.274-.07.519-.211.738-.14.218-.332.39-.582.507c0,0,0,.009,0,.009Z" fill="#9f9f9f" stroke-width="0"/><path d="M0.635,2.859c-.266,0-.535-.062-.805-.187-.273-.125-.5-.304-.687-.539c0,0,.39-.513.39-.513.149.172.317.309.508.414.188.106.379.157.57.157.618,0,.93-.414.93-1.242c0,0,0-3.816,0-3.816s.695,0,.695,0s0,3.836,0,3.836c0,.625-.128,1.094-.386,1.414s-.664.476-1.215.476Z" fill="#9f9f9f" stroke-width="0"/><path d="M6.154,-1.078c0,0,.649,0,.649,0s0,3.894,0,3.894-.649,0-.649,0s0-.644,0-.644-.011,0-.011,0c-.157.227-.344.399-.567.516-.226.121-.465.179-.715.179-.46,0-.82-.132-1.078-.406-.257-.269-.382-.677-.382-1.219c0,0,0-2.32,0-2.32s.648,0,.648,0s0,2.133,0,2.133c0,.434.078.745.234.933.157.187.395.282.715.282.156,0,.301-.031.442-.098.14-.066.261-.16.367-.281.105-.121.191-.277.254-.465.062-.187.093-.391.093-.617c0,0,0-1.887,0-1.887Z" fill="#9f9f9f" stroke-width="0"/><path d="M10.072,-1.126c.434,0,.774.137,1.024.41.25.274.375.685.375,1.224c0,0,0,2.312,0,2.312s-.649,0-.649,0s0-2.132,0-2.132c0-.223-.023-.415-.07-.575-.047-.157-.109-.286-.195-.379-.086-.094-.188-.16-.297-.203-.113-.039-.242-.062-.391-.062-.371,0-.668.129-.89.379-.223.25-.332.593-.332,1.022c0,0,0,1.946,0,1.946s-.649,0-.649,0s0-3.894,0-3.894.649,0,.649,0s0,.672,0,.672.011,0,.011,0c.16-.23.364-.407.61-.532.242-.125.511-.188.804-.188Z" fill="#9f9f9f" stroke-width="0"/></g><g transform="translate(291.854 171.63)"><path d="M-4.193,2.402c0,0,0-4.097,0-4.097s-.959.72-.959.72-.287-.436-.287-.436s1.349-.993,1.349-.993.485,0,.485,0s0,4.806,0,4.806-.588,0-.588,0Z" fill="#9f9f9f" stroke-width="0"/><path d="M-0.761,2.448c-.263,0-.506-.053-.725-.162-.218-.109-.41-.262-.57-.467-.161-.205-.287-.462-.375-.773-.089-.307-.135-.656-.135-1.042c0-.356.041-.685.123-.986.082-.3.199-.557.349-.776.15-.215.338-.382.567-.505s.486-.185.766-.185c.26,0,.503.055.721.164.219.109.41.264.571.469s.288.461.377.772.136.661.136,1.047c0,.355-.041.682-.123.98-.082.3-.199.558-.349.773-.15.219-.342.386-.567.509-.229.123-.486.182-.766.182Z" fill="#9f9f9f" stroke-width="0"/><path d="M-0.758,1.9c.253,0,.469-.079.653-.236.181-.157.318-.376.414-.66.092-.283.14-.617.14-1c0-.602-.113-1.067-.332-1.402-.222-.335-.512-.503-.875-.503-.382,0-.68.171-.892.513-.215.341-.32.807-.32,1.392c0,.594.108,1.058.331,1.393.222.335.516.503.881.503Z" fill="#fff" stroke-width="0"/><path d="M3.635,2.448c-.264,0-.506-.053-.725-.162s-.409-.262-.57-.467c-.16-.205-.288-.462-.377-.773-.089-.307-.133-.656-.133-1.042c0-.356.041-.685.123-.986.082-.3.198-.557.349-.776.15-.215.338-.382.567-.505s.485-.185.766-.185c.259,0,.502.055.721.164s.41.264.571.469c.16.205.287.461.375.772.089.311.137.661.137,1.047c0,.355-.041.682-.123.98-.082.3-.198.558-.348.773-.151.219-.342.386-.568.509-.229.123-.485.182-.765.182Z" fill="#9f9f9f" stroke-width="0"/><path d="M3.639,1.9c.253,0,.467-.079.652-.236.181-.157.318-.376.413-.66.093-.283.141-.617.141-1c0-.602-.112-1.067-.331-1.402-.222-.335-.513-.503-.875-.503-.383,0-.681.171-.893.513-.215.341-.32.807-.32,1.392c0,.594.109,1.058.331,1.393s.516.503.882.503Z" fill="#fff" stroke-width="0"/></g><g transform="translate(291.326 104.774)"><path d="M-3.591,-0.092c.253.103.455.259.602.468.143.212.219.459.219.739c0,.26-.068.491-.204.696-.137.205-.323.363-.559.473-.235.109-.499.164-.793.164-.396,0-.741-.086-1.028-.263-.288-.175-.492-.407-.615-.694c0,0,.509-.233.509-.233.058.134.136.246.236.338.095.096.218.167.365.219.147.054.316.078.5.078.181,0,.348-.033.498-.105.151-.068.27-.172.359-.305s.133-.287.133-.458c0-.116-.023-.225-.068-.327-.044-.103-.109-.193-.191-.275-.086-.078-.195-.139-.332-.187-.137-.044-.293-.068-.464-.068c0,0-.401,0-.401,0s0-.513,0-.513.469,0,.469,0c.147,0,.277-.02.393-.061.113-.041.201-.096.27-.168.068-.071.119-.153.154-.242.034-.089.052-.189.052-.295c0-.233-.089-.42-.26-.567-.171-.143-.387-.219-.64-.219-.414,0-.728.157-.943.471c0,0-.476-.259-.476-.259.127-.233.315-.416.561-.553s.533-.21.868-.21c.274,0,.523.052.745.147.222.096.4.243.533.434.134.192.203.417.203.677c0,.239-.062.456-.185.647-.123.192-.291.341-.51.443c0,0,0,.008,0,.008Z" fill="#9f9f9f" stroke-width="0"/><path d="M-0.231,2.448c-.263,0-.506-.052-.724-.162-.219-.109-.411-.262-.571-.467-.161-.205-.286-.461-.375-.772-.089-.308-.135-.657-.135-1.043c0-.355.041-.684.123-.984.083-.301.199-.558.349-.777.151-.215.34-.383.569-.506s.484-.185.764-.185c.26,0,.503.055.721.164.219.11.411.264.571.469.161.205.288.461.377.772s.136.661.136,1.047c0,.355-.041.683-.123.98-.082.301-.198.558-.349.773-.15.219-.342.387-.567.51-.229.123-.486.181-.766.181Z" fill="#9f9f9f" stroke-width="0"/><path d="M-0.228,1.9c.254,0,.469-.079.653-.236.182-.157.318-.376.414-.66.092-.283.14-.617.14-1c0-.602-.113-1.066-.332-1.401-.222-.335-.512-.504-.875-.504-.382,0-.68.171-.892.513-.215.342-.32.808-.32,1.392c0,.595.109,1.059.331,1.394s.516.502.881.502Z" fill="#fff" stroke-width="0"/><path d="M4.165,2.448c-.264,0-.506-.052-.725-.162-.219-.109-.409-.262-.57-.467-.16-.205-.288-.461-.377-.772-.089-.308-.133-.657-.133-1.043c0-.355.041-.684.123-.984.082-.301.198-.558.349-.777.15-.215.338-.383.567-.506s.485-.185.766-.185c.259,0,.502.055.721.164.219.11.41.264.571.469.16.205.287.461.376.772.088.311.136.661.136,1.047c0,.355-.041.683-.123.98-.082.301-.198.558-.348.773-.151.219-.342.387-.568.51-.229.123-.485.181-.765.181Z" fill="#9f9f9f" stroke-width="0"/><path d="M4.169,1.9c.253,0,.467-.079.652-.236.181-.157.318-.376.413-.66.093-.283.141-.617.141-1c0-.602-.112-1.066-.331-1.401-.222-.335-.513-.504-.875-.504-.383,0-.681.171-.893.513-.215.342-.32.808-.32,1.392c0,.595.108,1.059.33,1.394s.517.502.883.502Z" fill="#fff" stroke-width="0"/></g><g transform="translate(291.411 137.616)"><path d="M-4.985,1.862c0,0,2.133,0,2.133,0s0,.542,0,.542-3.025,0-3.025,0-.007-.408-.007-.408s1.644-1.678,1.644-1.678c.117-.119.212-.226.291-.318.075-.089.15-.192.225-.301.072-.11.127-.222.165-.332.034-.109.054-.225.054-.342c0-.266-.085-.485-.256-.659s-.386-.263-.65-.263c-.461,0-.806.223-1.032.66c0,0-.434-.298-.434-.298.092-.181.205-.338.338-.472.134-.133.301-.239.5-.321.198-.079.42-.12.666-.12.191,0,.373.035.55.099.175.065.328.159.465.275.133.12.239.27.321.448.082.181.123.378.123.593c0,.277-.064.54-.191.793-.126.253-.335.528-.629.825c0,0-1.251,1.268-1.251,1.268s0,.009,0,.009Z" fill="#9f9f9f" stroke-width="0"/><path d="M-0.316,2.448c-.263,0-.506-.052-.724-.162-.219-.109-.411-.262-.571-.467-.161-.205-.287-.461-.376-.772-.089-.308-.134-.657-.134-1.043c0-.355.041-.684.123-.984.083-.301.199-.558.349-.777.151-.215.339-.383.568-.506s.485-.185.765-.185c.26,0,.503.055.721.164.219.11.411.264.571.469.161.205.287.461.376.772s.137.661.137,1.047c0,.355-.041.683-.123.98-.082.301-.198.558-.349.774-.15.218-.342.386-.567.509-.229.123-.486.181-.766.181Z" fill="#9f9f9f" stroke-width="0"/><path d="M-0.313,1.9c.254,0,.469-.079.653-.236.182-.157.318-.376.414-.66.092-.283.14-.617.14-1c0-.602-.113-1.066-.332-1.401-.222-.335-.512-.504-.875-.504-.382,0-.68.171-.892.513-.215.342-.321.808-.321,1.392c0,.595.11,1.059.332,1.394s.516.502.881.502Z" fill="#fff" stroke-width="0"/><path d="M4.08,2.448c-.264,0-.506-.052-.725-.162-.219-.109-.41-.262-.571-.467-.16-.205-.287-.461-.376-.772-.089-.308-.133-.657-.133-1.043c0-.355.041-.684.123-.984.082-.301.198-.558.349-.777.15-.215.338-.383.567-.506s.485-.185.766-.185c.259,0,.502.055.721.164.219.11.41.264.571.469.16.205.287.461.376.772.088.311.136.661.136,1.047c0,.355-.041.683-.123.98-.082.301-.198.558-.348.774-.151.218-.342.386-.568.509-.229.123-.485.181-.765.181Z" fill="#9f9f9f" stroke-width="0"/><path d="M4.083,1.9c.253,0,.468-.079.653-.236.181-.157.318-.376.413-.66.093-.283.141-.617.141-1c0-.602-.113-1.066-.332-1.401-.222-.335-.513-.504-.875-.504-.383,0-.68.171-.892.513-.215.342-.321.808-.321,1.392c0,.595.109,1.059.331,1.394s.516.502.882.502Z" fill="#fff" stroke-width="0"/></g><g transform="translate(354.025 159.281)" opacity="0"><path d="M1.949,-0.001c0,1.075-.871,1.95-1.949,1.95-1.075,0-1.949-.871-1.949-1.95c0-1.075.87-1.948,1.949-1.948c1.075,0,1.949.87,1.949,1.948Z" fill="#891900" stroke-width="0"/></g><g transform="translate(407.941 128.961)" opacity="0"><path d="M1.95,0c0,1.075-.871,1.949-1.95,1.949-1.075,0-1.95-.87-1.95-1.949c0-1.075.872-1.949,1.95-1.949c1.076,0,1.95.87,1.95,1.949Z" fill="#891900" stroke-width="0"/></g><g transform="translate(461.956 133.08)" opacity="0"><path d="M1.949,0c0,1.075-.87,1.949-1.949,1.949-1.075,0-1.949-.87-1.949-1.949c0-1.075.87-1.949,1.949-1.949c1.075,0,1.949.87,1.949,1.949Z" fill="#891900" stroke-width="0"/></g><g transform="translate(516.124 152.035)" opacity="0"><path d="M1.949,0c0,1.075-.87,1.949-1.949,1.949-1.075,0-1.949-.87-1.949-1.949c0-1.075.87-1.949,1.949-1.949c1.075,0,1.949.871,1.949,1.949Z" fill="#891900" stroke-width="0"/></g><g transform="translate(354.025 140.144)" opacity="0"><path d="M1.949,0c0,1.075-.871,1.949-1.949,1.949-1.075,0-1.949-.87-1.949-1.949c0-1.075.87-1.949,1.949-1.949c1.075,0,1.949.87,1.949,1.949Z" fill="#ff3e00" stroke-width="0"/></g><g transform="translate(407.966 150.635)" opacity="0"><path d="M1.949,0c0,1.075-.871,1.949-1.949,1.949-1.075,0-1.949-.871-1.949-1.949c0-1.075.87-1.949,1.949-1.949c1.075,0,1.949.87,1.949,1.949Z" fill="#ff3e00" stroke-width="0"/></g><g transform="translate(461.908 154.078)" opacity="0"><path d="M1.95,0c0,1.075-.871,1.949-1.95,1.949-1.075,0-1.95-.87-1.95-1.949c0-1.075.872-1.949,1.95-1.949c1.075,0,1.95.871,1.95,1.949Z" fill="#ff3e00" stroke-width="0"/></g><g transform="translate(516.076 138.121)" opacity="0"><path d="M1.95,0c0,1.075-.871,1.949-1.95,1.949-1.075,0-1.95-.87-1.95-1.949c0-1.075.872-1.949,1.95-1.949c1.075,0,1.95.87,1.95,1.949Z" fill="#ff3e00" stroke-width="0"/></g></g></g><g id="eQ4J5ujDAxs240" transform="matrix(.75 0 0 0.75 477.629 310.071)" opacity="0"><path id="eQ4J5ujDAxs241" d="M-119.8,25.337c0,0,24.832-33.494,24.832-33.494s26.669,0,26.669,0s26.973-9.588,26.973-9.588s26.969,20.378,26.969,20.378s27.273-8.393,27.273-8.393s26.668,11.988,26.668,11.988s27.273-27.568,27.273-27.568s27.37,11.287,27.37,11.287s25.573-15.284,25.573-15.284" paint-order="stroke fill markers" fill="none" fill-rule="evenodd" stroke="#ff3e00" stroke-width="1.5" stroke-miterlimit="10" stroke-dasharray="0,0,0,286.75"/></g><g id="eQ4J5ujDAxs242" transform="matrix(.75 0 0 0.75 477.314 308.341)" opacity="0"><path id="eQ4J5ujDAxs243" d="M-119.719,14.161c0,0,25.022-6.443,25.022-6.443s26.822,5.844,26.822,5.844s27.12-9.44,27.12-9.44s26.969-21.128,26.969-21.128s26.973,27.42,26.973,27.42s26.969-23.525,26.969-23.525s27.271,24.424,27.271,24.424s27.122-5.393,27.122-5.393s25.17,11.086,25.17,11.086" paint-order="stroke fill markers" fill="none" fill-rule="evenodd" stroke="#891900" stroke-width="1.5" stroke-miterlimit="10" stroke-dasharray="0,0,0,282.29"/></g><g id="eQ4J5ujDAxs244" transform="translate(18.255-20.461)" opacity="0"><g transform="translate(79.272 236.008)"><path d="M-71.772,-177c0,0,143.544,0,143.544,0c3.314,0,6,2.686,6,6c0,0,0,263,0,263c0,3.314-2.686,6-6,6c0,0-143.544,0-143.544,0-3.314,0-6-2.686-6-6c0,0,0-263,0-263c0-3.314,2.686-6,6-6Z" fill="#fff" stroke-width="0"/></g><g transform="translate(79.272 236.008)"><path d="M-71.772,-177.5c0,0,143.544,0,143.544,0c3.59,0,6.5,2.91,6.5,6.5c0,0,0,263,0,263c0,3.59-2.91,6.5-6.5,6.5c0,0-143.544,0-143.544,0-3.59,0-6.5-2.91-6.5-6.5c0,0,0-263,0-263c0-3.59,2.91-6.5,6.5-6.5Z" paint-order="stroke fill markers" fill="none" fill-rule="evenodd" stroke="#eff3f4"/></g><g><path d="M21.613,155.053c0,0,116.659,0,116.659,0" paint-order="stroke fill markers" fill="none" fill-rule="evenodd" stroke="#c1c1c1"/></g><g><path d="M21.613,242.213c0,0,116.659,0,116.659,0" paint-order="stroke fill markers" fill="none" fill-rule="evenodd" stroke="#c1c1c1"/></g></g><g transform="translate(18.255-20.461)"><text id="eQ4J5ujDAxs254" dx="0" dy="0" font-family="&quot;Averta-Semibold&quot;" font-size="17" font-weight="400" transform="translate(27.348 270.212)" opacity="0" fill-opacity="0" stroke="#000" stroke-width="0" stroke-opacity="0"><tspan x="0" y="0" font-family="&quot;Averta-Semibold&quot;" font-size="17" font-weight="400" font-style="normal" stroke="#000" stroke-width="0"><![CDATA[
Conversion
]]></tspan></text></g><g transform="translate(18.255-20.461)"><text id="eQ4J5ujDAxs257" dx="0" dy="0" font-family="&quot;Averta-Bold&quot;" font-size="26" font-weight="400" transform="translate(27.39 306.961)" opacity="0" fill="#891900" fill-opacity="0" stroke="#000" stroke-width="0" stroke-opacity="0"><tspan x="0" y="0" font-family="&quot;Averta-Bold&quot;" font-size="26" font-weight="400" font-style="normal" fill="#891900" stroke="#000" stroke-width="0"><![CDATA[
2,576
]]></tspan></text></g><g transform="translate(18.255-20.461)"><text id="eQ4J5ujDAxs260" dx="0" dy="0" font-family="&quot;Averta-Semibold&quot;" font-size="17" font-weight="400" transform="translate(26.801 184.212)" opacity="0" fill-opacity="0" stroke="#000" stroke-width="0" stroke-opacity="0"><tspan x="0" y="0" font-family="&quot;Averta-Semibold&quot;" font-size="17" font-weight="400" font-style="normal" stroke="#000" stroke-width="0"><![CDATA[
Engagement
]]></tspan></text></g><g transform="translate(18.255-20.461)"><text id="eQ4J5ujDAxs263" dx="0" dy="0" font-family="&quot;Averta-Bold&quot;" font-size="26" font-weight="400" transform="translate(27.746 216.961)" opacity="0" fill="#891900" fill-opacity="0" stroke="#000" stroke-width="0" stroke-opacity="0"><tspan x="0" y="0" font-family="&quot;Averta-Bold&quot;" font-size="26" font-weight="400" font-style="normal" fill="#891900" stroke="#000" stroke-width="0"><![CDATA[
6,345
]]></tspan></text></g><g transform="translate(18.255-20.461)"><text id="eQ4J5ujDAxs266" dx="0" dy="0" font-family="&quot;Averta-Semibold&quot;" font-size="17" font-weight="400" transform="translate(26.801 90.961)" opacity="0" fill-opacity="0" stroke="#000" stroke-width="0" stroke-opacity="0"><tspan x="0" y="0" font-family="&quot;Averta-Semibold&quot;" font-size="17" font-weight="400" font-style="normal" stroke="#000" stroke-width="0"><![CDATA[
Reach
]]></tspan></text></g><g transform="translate(18.255-20.461)"><text id="eQ4J5ujDAxs269" dx="0" dy="0" font-family="&quot;Averta-Bold&quot;" font-size="26" font-weight="400" transform="translate(27.923 122.961)" opacity="0" fill="#891900" fill-opacity="0" stroke="#000" stroke-width="0" stroke-opacity="0"><tspan x="0" y="0" font-family="&quot;Averta-Bold&quot;" font-size="26" font-weight="400" font-style="normal" fill="#891900" stroke="#000" stroke-width="0"><![CDATA[
15,000
]]></tspan></text></g></svg>
