<svg id="eZB6l7kinC01" xmlns="http://www.w3.org/2000/svg" xmlns:xlink="http://www.w3.org/1999/xlink" viewBox="0 0 635 425" shape-rendering="geometricPrecision" text-rendering="geometricPrecision" project-id="152660c4c3f84acc9a5cb6f173982f05" export-id="b7427374f2454634a1af0ae63e75698b" cached="false" style="background-color:transparent">
<style><![CDATA[
#eZB6l7kinC08 {animation: eZB6l7kinC08_c_o 6473ms linear infinite normal forwards}@keyframes eZB6l7kinC08_c_o { 0% {opacity: 0} 65.317473% {opacity: 0;animation-timing-function: step-end} 65.47196% {opacity: 1;animation-timing-function: step-end} 100% {opacity: 0.962787}} #eZB6l7kinC011_to {animation: eZB6l7kinC011_to__to 6473ms linear infinite normal forwards}@keyframes eZB6l7kinC011_to__to { 0% {offset-distance: 0%} 65.47196% {offset-distance: 0%;animation-timing-function: cubic-bezier(0.167,0.167,0,1)} 75.776302% {offset-distance: 100%} 100% {offset-distance: 100%}} #eZB6l7kinC011_tr {animation: eZB6l7kinC011_tr__tr 6473ms linear infinite normal forwards}@keyframes eZB6l7kinC011_tr__tr { 0% {transform: rotate(0deg)} 65.47196% {transform: rotate(0deg);animation-timing-function: cubic-bezier(0.167,0.167,0.324,1)} 68.051908% {transform: rotate(1deg);animation-timing-function: cubic-bezier(0.231,0,0.548,0.88)} 70.631855% {transform: rotate(-1deg);animation-timing-function: cubic-bezier(0.279,-0.099,0.608,0.784)} 73.211803% {transform: rotate(0.5deg);animation-timing-function: cubic-bezier(0.296,-0.49,0.628,1)} 75.776302% {transform: rotate(0deg)} 100% {transform: rotate(0deg)}} #eZB6l7kinC016_to {animation: eZB6l7kinC016_to__to 6473ms linear infinite normal forwards}@keyframes eZB6l7kinC016_to__to { 0% {offset-distance: 0%} 65.47196% {offset-distance: 0%;animation-timing-function: cubic-bezier(0.167,0.167,0,1)} 75.776302% {offset-distance: 100%} 100% {offset-distance: 100%}} #eZB6l7kinC016_tr {animation: eZB6l7kinC016_tr__tr 6473ms linear infinite normal forwards}@keyframes eZB6l7kinC016_tr__tr { 0% {transform: rotate(0deg)} 65.47196% {transform: rotate(0deg);animation-timing-function: cubic-bezier(0.167,0.167,0.324,1)} 68.051908% {transform: rotate(1deg);animation-timing-function: cubic-bezier(0.231,0,0.548,0.88)} 70.631855% {transform: rotate(-1deg);animation-timing-function: cubic-bezier(0.279,-0.099,0.608,0.784)} 73.211803% {transform: rotate(0.5deg);animation-timing-function: cubic-bezier(0.296,-0.49,0.628,1)} 75.776302% {transform: rotate(0deg)} 100% {transform: rotate(0deg)}} #eZB6l7kinC019_to {animation: eZB6l7kinC019_to__to 6473ms linear infinite normal forwards}@keyframes eZB6l7kinC019_to__to { 0% {offset-distance: 0%} 65.47196% {offset-distance: 0%;animation-timing-function: cubic-bezier(0.167,0.167,0,1)} 75.776302% {offset-distance: 100%} 100% {offset-distance: 100%}} #eZB6l7kinC019_tr {animation: eZB6l7kinC019_tr__tr 6473ms linear infinite normal forwards}@keyframes eZB6l7kinC019_tr__tr { 0% {transform: rotate(0deg)} 65.47196% {transform: rotate(0deg);animation-timing-function: cubic-bezier(0.167,0.167,0.324,1)} 68.051908% {transform: rotate(1deg);animation-timing-function: cubic-bezier(0.231,0,0.548,0.88)} 70.631855% {transform: rotate(-1deg);animation-timing-function: cubic-bezier(0.279,-0.099,0.608,0.784)} 73.211803% {transform: rotate(0.5deg);animation-timing-function: cubic-bezier(0.296,-0.49,0.628,1)} 75.776302% {transform: rotate(0deg)} 100% {transform: rotate(0deg)}} #eZB6l7kinC022_to {animation: eZB6l7kinC022_to__to 6473ms linear infinite normal forwards}@keyframes eZB6l7kinC022_to__to { 0% {offset-distance: 0%} 65.47196% {offset-distance: 0%;animation-timing-function: cubic-bezier(0.167,0.167,0,1)} 75.776302% {offset-distance: 100%} 100% {offset-distance: 100%}} #eZB6l7kinC022_tr {animation: eZB6l7kinC022_tr__tr 6473ms linear infinite normal forwards}@keyframes eZB6l7kinC022_tr__tr { 0% {transform: rotate(0deg)} 65.47196% {transform: rotate(0deg);animation-timing-function: cubic-bezier(0.167,0.167,0.324,1)} 68.051908% {transform: rotate(1deg);animation-timing-function: cubic-bezier(0.231,0,0.548,0.88)} 70.631855% {transform: rotate(-1deg);animation-timing-function: cubic-bezier(0.279,-0.099,0.608,0.784)} 73.211803% {transform: rotate(0.5deg);animation-timing-function: cubic-bezier(0.296,-0.49,0.628,1)} 75.776302% {transform: rotate(0deg)} 100% {transform: rotate(0deg)}} #eZB6l7kinC025_to {animation: eZB6l7kinC025_to__to 6473ms linear infinite normal forwards}@keyframes eZB6l7kinC025_to__to { 0% {offset-distance: 0%} 65.47196% {offset-distance: 0%;animation-timing-function: cubic-bezier(0.167,0.167,0,1)} 75.776302% {offset-distance: 100%} 100% {offset-distance: 100%}} #eZB6l7kinC025_tr {animation: eZB6l7kinC025_tr__tr 6473ms linear infinite normal forwards}@keyframes eZB6l7kinC025_tr__tr { 0% {transform: rotate(0deg)} 65.47196% {transform: rotate(0deg);animation-timing-function: cubic-bezier(0.167,0.167,0.324,1)} 68.051908% {transform: rotate(1deg);animation-timing-function: cubic-bezier(0.231,0,0.548,0.88)} 70.631855% {transform: rotate(-1deg);animation-timing-function: cubic-bezier(0.279,-0.099,0.608,0.784)} 73.211803% {transform: rotate(0.5deg);animation-timing-function: cubic-bezier(0.296,-0.49,0.628,1)} 75.776302% {transform: rotate(0deg)} 100% {transform: rotate(0deg)}} #eZB6l7kinC028_to {animation: eZB6l7kinC028_to__to 6473ms linear infinite normal forwards}@keyframes eZB6l7kinC028_to__to { 0% {offset-distance: 0%} 65.47196% {offset-distance: 0%;animation-timing-function: cubic-bezier(0.167,0.167,0,1)} 75.776302% {offset-distance: 100%} 100% {offset-distance: 100%}} #eZB6l7kinC028_tr {animation: eZB6l7kinC028_tr__tr 6473ms linear infinite normal forwards}@keyframes eZB6l7kinC028_tr__tr { 0% {transform: rotate(0deg)} 65.47196% {transform: rotate(0deg);animation-timing-function: cubic-bezier(0.167,0.167,0.324,1)} 68.051908% {transform: rotate(1deg);animation-timing-function: cubic-bezier(0.231,0,0.548,0.88)} 70.631855% {transform: rotate(-1deg);animation-timing-function: cubic-bezier(0.279,-0.099,0.608,0.784)} 73.211803% {transform: rotate(0.5deg);animation-timing-function: cubic-bezier(0.296,-0.49,0.628,1)} 75.776302% {transform: rotate(0deg)} 100% {transform: rotate(0deg)}} #eZB6l7kinC033_ts {animation: eZB6l7kinC033_ts__ts 6473ms linear infinite normal forwards}@keyframes eZB6l7kinC033_ts__ts { 0% {transform: translate(485.5px,169.65px) scale(1,1)} 63.401823% {transform: translate(485.5px,169.65px) scale(1,1);animation-timing-function: cubic-bezier(0.333,0,0.667,1)} 64.436892% {transform: translate(485.5px,169.65px) scale(0.93,0.93);animation-timing-function: cubic-bezier(0.333,0,0.667,1)} 65.47196% {transform: translate(485.5px,169.65px) scale(1,1)} 100% {transform: translate(485.5px,169.65px) scale(1,1)}} #eZB6l7kinC033 {animation: eZB6l7kinC033_c_o 6473ms linear infinite normal forwards}@keyframes eZB6l7kinC033_c_o { 0% {opacity: 0} 63.247335% {opacity: 0;animation-timing-function: step-end} 63.401823% {opacity: 1;animation-timing-function: step-end} 100% {opacity: 0.958216}} #eZB6l7kinC038_ts {animation: eZB6l7kinC038_ts__ts 6473ms linear infinite normal forwards}@keyframes eZB6l7kinC038_ts__ts { 0% {transform: translate(485.5px,169.65px) scale(1,1)} 63.401823% {transform: translate(485.5px,169.65px) scale(1,1);animation-timing-function: cubic-bezier(0.333,0,0.667,1)} 64.436892% {transform: translate(485.5px,169.65px) scale(0.93,0.93);animation-timing-function: cubic-bezier(0.333,0,0.667,1)} 65.47196% {transform: translate(485.5px,169.65px) scale(1,1)} 100% {transform: translate(485.5px,169.65px) scale(1,1)}} #eZB6l7kinC038 {animation: eZB6l7kinC038_c_o 6473ms linear infinite normal forwards}@keyframes eZB6l7kinC038_c_o { 0% {opacity: 0} 61.795149% {opacity: 0} 63.340028% {opacity: 1} 100% {opacity: 1}} #eZB6l7kinC040_ts {animation: eZB6l7kinC040_ts__ts 6473ms linear infinite normal forwards}@keyframes eZB6l7kinC040_ts__ts { 0% {transform: translate(485.5px,169.65px) scale(1,1)} 63.401823% {transform: translate(485.5px,169.65px) scale(1,1);animation-timing-function: cubic-bezier(0.333,0,0.667,1)} 64.436892% {transform: translate(485.5px,169.65px) scale(0.93,0.93);animation-timing-function: cubic-bezier(0.333,0,0.667,1)} 65.47196% {transform: translate(485.5px,169.65px) scale(1,1)} 100% {transform: translate(485.5px,169.65px) scale(1,1)}} #eZB6l7kinC041 {animation: eZB6l7kinC041_c_o 6473ms linear infinite normal forwards}@keyframes eZB6l7kinC041_c_o { 0% {opacity: 0} 63.247335% {opacity: 0;animation-timing-function: step-end} 63.401823% {opacity: 1;animation-timing-function: step-end} 100% {opacity: 0.958216}} #eZB6l7kinC046_to {animation: eZB6l7kinC046_to__to 6473ms linear infinite normal forwards}@keyframes eZB6l7kinC046_to__to { 0% {offset-distance: 0%} 47.427777% {offset-distance: 0%;animation-timing-function: cubic-bezier(0.167,0.167,0,1)} 57.732118% {offset-distance: 100%} 100% {offset-distance: 100%}} #eZB6l7kinC046 {animation: eZB6l7kinC046_c_o 6473ms linear infinite normal forwards}@keyframes eZB6l7kinC046_c_o { 0% {opacity: 0} 47.427777% {opacity: 0;animation-timing-function: cubic-bezier(0.333,0,0.667,1)} 52.062413% {opacity: 0.98;animation-timing-function: step-end} 63.401823% {opacity: 0} 100% {opacity: 0}} #eZB6l7kinC051_to {animation: eZB6l7kinC051_to__to 6473ms linear infinite normal forwards}@keyframes eZB6l7kinC051_to__to { 0% {offset-distance: 0%} 47.427777% {offset-distance: 0%;animation-timing-function: cubic-bezier(0.167,0.167,0,1)} 57.732118% {offset-distance: 100%} 100% {offset-distance: 100%}} #eZB6l7kinC052 {animation: eZB6l7kinC052_c_o 6473ms linear infinite normal forwards}@keyframes eZB6l7kinC052_c_o { 0% {opacity: 0} 47.427777% {opacity: 0;animation-timing-function: cubic-bezier(0.333,0,0.667,1)} 52.062413% {opacity: 0.98;animation-timing-function: step-end} 63.401823% {opacity: 0} 100% {opacity: 0}} #eZB6l7kinC057_to {animation: eZB6l7kinC057_to__to 6473ms linear infinite normal forwards}@keyframes eZB6l7kinC057_to__to { 0% {offset-distance: 0%} 47.427777% {offset-distance: 0%;animation-timing-function: cubic-bezier(0.167,0.167,0,1)} 57.732118% {offset-distance: 100%} 100% {offset-distance: 100%}} #eZB6l7kinC058 {animation-name: eZB6l7kinC058_c_o, eZB6l7kinC058_f_o, eZB6l7kinC058_s_o;animation-duration: 6473ms;animation-fill-mode: forwards;animation-timing-function: linear;animation-direction: normal;animation-iteration-count: infinite;}@keyframes eZB6l7kinC058_c_o { 0% {opacity: 0} 47.427777% {opacity: 0;animation-timing-function: cubic-bezier(0.333,0,0.667,1)} 52.062413% {opacity: 0.98} 100% {opacity: 0.98}}@keyframes eZB6l7kinC058_f_o { 0% {fill-opacity: 0} 47.427777% {fill-opacity: 0;animation-timing-function: cubic-bezier(0.333,0,0.667,1)} 52.062413% {fill-opacity: 0.98} 100% {fill-opacity: 0.98}}@keyframes eZB6l7kinC058_s_o { 0% {stroke-opacity: 0} 47.427777% {stroke-opacity: 0;animation-timing-function: cubic-bezier(0.333,0,0.667,1)} 52.062413% {stroke-opacity: 0.98} 100% {stroke-opacity: 0.98}} #eZB6l7kinC060_to {animation: eZB6l7kinC060_to__to 6473ms linear infinite normal forwards}@keyframes eZB6l7kinC060_to__to { 0% {offset-distance: 0%} 55.152171% {offset-distance: 0%;animation-timing-function: cubic-bezier(0.167,0.167,0,1)} 62.366754% {offset-distance: 100%} 100% {offset-distance: 100%}} #eZB6l7kinC060 {animation: eZB6l7kinC060_c_o 6473ms linear infinite normal forwards}@keyframes eZB6l7kinC060_c_o { 0% {opacity: 0} 54.997683% {opacity: 0;animation-timing-function: step-end} 55.152171% {opacity: 1;animation-timing-function: step-end} 100% {opacity: 0.951665}} #eZB6l7kinC063_to {animation: eZB6l7kinC063_to__to 6473ms linear infinite normal forwards}@keyframes eZB6l7kinC063_to__to { 0% {offset-distance: 0%} 37.633246% {offset-distance: 0%;animation-timing-function: cubic-bezier(0.167,0.167,0,1)} 45.357639% {offset-distance: 100%} 100% {offset-distance: 100%}} #eZB6l7kinC063 {animation: eZB6l7kinC063_c_o 6473ms linear infinite normal forwards}@keyframes eZB6l7kinC063_c_o { 0% {opacity: 0} 37.633246% {opacity: 0;animation-timing-function: cubic-bezier(0.167,0.167,0.667,1)} 45.357639% {opacity: 1;animation-timing-function: step-end} 100% {opacity: 0.938663}} #eZB6l7kinC068_to {animation: eZB6l7kinC068_to__to 6473ms linear infinite normal forwards}@keyframes eZB6l7kinC068_to__to { 0% {offset-distance: 0%} 37.633246% {offset-distance: 0%;animation-timing-function: cubic-bezier(0.167,0.167,0,1)} 45.357639% {offset-distance: 100%} 100% {offset-distance: 100%}} #eZB6l7kinC069 {animation: eZB6l7kinC069_c_o 6473ms linear infinite normal forwards}@keyframes eZB6l7kinC069_c_o { 0% {opacity: 0} 37.633246% {opacity: 0;animation-timing-function: cubic-bezier(0.167,0.167,0.667,1)} 45.357639% {opacity: 1;animation-timing-function: step-end} 100% {opacity: 0.938663}} #eZB6l7kinC0310_to {animation: eZB6l7kinC0310_to__to 6473ms linear infinite normal forwards}@keyframes eZB6l7kinC0310_to__to { 0% {transform: translate(-13.0495px,71.176px)} 9.269272% {transform: translate(-13.0495px,71.176px)} 10.814151% {transform: translate(30.9505px,71.176px)} 16.993666% {transform: translate(97.236214px,71.176px)} 20.083423% {transform: translate(139.379071px,71.176px)} 21.628302% {transform: translate(146.9505px,71.176px)} 100% {transform: translate(146.9505px,71.176px)}} #eZB6l7kinC0312_to {animation: eZB6l7kinC0312_to__to 6473ms linear infinite normal forwards}@keyframes eZB6l7kinC0312_to__to { 0% {offset-distance: 0%} 8.249652% {offset-distance: 0%} 8.759462% {offset-distance: 11.271795%} 20.624131% {offset-distance: 100%} 100% {offset-distance: 100%}} #eZB6l7kinC0312 {animation: eZB6l7kinC0312_c_o 6473ms linear infinite normal forwards}@keyframes eZB6l7kinC0312_c_o { 0% {opacity: 0} 3.970338% {opacity: 0;animation-timing-function: step-end} 4.124826% {opacity: 1} 5.159895% {opacity: 0} 6.179515% {opacity: 1} 7.214584% {opacity: 0} 8.249652% {opacity: 1} 9.284721% {opacity: 0} 10.304341% {opacity: 1} 11.33941% {opacity: 0} 12.374479% {opacity: 1} 13.409547% {opacity: 0} 14.429167% {opacity: 1} 15.464236% {opacity: 0} 16.499305% {opacity: 1} 17.518925% {opacity: 0} 18.553994% {opacity: 1} 19.589062% {opacity: 0} 20.624131% {opacity: 1} 21.643751% {opacity: 0} 22.67882% {opacity: 1;animation-timing-function: step-end} 23.204078% {opacity: 0} 100% {opacity: 0}} #eZB6l7kinC0315_ts {animation: eZB6l7kinC0315_ts__ts 6473ms linear infinite normal forwards}@keyframes eZB6l7kinC0315_ts__ts { 0% {transform: translate(425px,64.001px) scale(1,1)} 31.438282% {transform: translate(425px,64.001px) scale(1,1);animation-timing-function: cubic-bezier(0.333,0,0.667,1)} 32.473351% {transform: translate(425px,64.001px) scale(0.89,0.89);animation-timing-function: cubic-bezier(0.333,0,0.667,1)} 33.50842% {transform: translate(425px,64.001px) scale(1,1)} 100% {transform: translate(425px,64.001px) scale(1,1)}} #eZB6l7kinC0317 {animation: eZB6l7kinC0317_f_p 6473ms linear infinite normal forwards}@keyframes eZB6l7kinC0317_f_p { 0% {fill: #757575} 32.473351% {fill: #757575} 32.983161% {fill: #ff2000} 41.232813% {fill: #ff2000} 41.758072% {fill: #757575} 100% {fill: #757575}}
]]></style>
<g transform="translate(293.5 229.503)"><g><rect width="502" height="324" rx="10" ry="10" transform="translate(-251-162)" fill="#f7f6f6" stroke-width="0"/></g><g><rect width="502" height="324" rx="10" ry="10" transform="translate(-251-162)" fill="none" fill-rule="evenodd" stroke-width="0"/></g></g><g transform="translate(-30.5-34.5)" mask="url(#eZB6l7kinC031)"><g id="eZB6l7kinC08" opacity="0" clip-path="url(#eZB6l7kinC09)"><clipPath id="eZB6l7kinC09"><rect width="696" height="508" rx="0" ry="0" fill="none" stroke-width="0"/></clipPath><g id="eZB6l7kinC011_to" style="offset-path:path('M516.999,24.5C516.999,54.667,516.999,175.333,516.999,205.5');offset-rotate:0deg"><g id="eZB6l7kinC011_tr" transform="rotate(0)"><g transform="translate(-1,99)"><g><rect width="213.2" height="195" rx="0" ry="0" transform="translate(-106.6-97.5)" fill="#fff" stroke-width="0"/></g><g><rect width="213.2" height="195" rx="0" ry="0" transform="translate(-106.6-97.5)" paint-order="stroke fill markers" fill="none" fill-rule="evenodd" stroke="#d9d9d9"/></g></g></g></g><g id="eZB6l7kinC016_to" style="offset-path:path('M516.999,24.5C516.999,54.667,516.999,175.333,516.999,205.5');offset-rotate:0deg"><g id="eZB6l7kinC016_tr" transform="rotate(0)"><g transform="translate(-1,99)"><g transform="translate(0-15.6)"><path d="M-106.6,0c0,0,213.2,0,213.2,0" paint-order="stroke fill markers" fill="none" fill-rule="evenodd" stroke="#e7e7e7"/></g></g></g></g><g id="eZB6l7kinC019_to" style="offset-path:path('M516.999,24.5C516.999,54.667,516.999,175.333,516.999,205.5');offset-rotate:0deg"><g id="eZB6l7kinC019_tr" transform="rotate(0)"><g transform="translate(-1,99)"><g transform="translate(0 41.6)"><path d="M-106.6,0c0,0,213.2,0,213.2,0" paint-order="stroke fill markers" fill="none" fill-rule="evenodd" stroke="#e7e7e7"/></g></g></g></g><g id="eZB6l7kinC022_to" style="offset-path:path('M516.999,24.5C516.999,54.667,516.999,175.333,516.999,205.5');offset-rotate:0deg"><g id="eZB6l7kinC022_tr" transform="rotate(0)"><g transform="translate(-1,99)"><text dx="0" dy="0" font-family="&quot;Averta Demo&quot;" font-size="18" font-weight="400" transform="translate(-79.287 71)" stroke="#000" stroke-width="0"><tspan x="0" y="0" font-family="&quot;Averta Demo&quot;" font-size="18" font-weight="400" font-style="normal" stroke="#000" stroke-width="0"><![CDATA[
Download as EPS
]]></tspan></text></g></g></g><g id="eZB6l7kinC025_to" style="offset-path:path('M516.999,24.5C516.999,54.667,516.999,175.333,516.999,205.5');offset-rotate:0deg"><g id="eZB6l7kinC025_tr" transform="rotate(0)"><g transform="translate(-1,99)"><text dx="0" dy="0" font-family="&quot;Averta Demo&quot;" font-size="18" font-weight="400" transform="translate(-79.286 19)" stroke="#000" stroke-width="0"><tspan x="0" y="0" font-family="&quot;Averta Demo&quot;" font-size="18" font-weight="400" font-style="normal" stroke="#000" stroke-width="0"><![CDATA[
Download as PDF
]]></tspan></text></g></g></g><g id="eZB6l7kinC028_to" style="offset-path:path('M516.999,24.5C516.999,54.667,516.999,175.333,516.999,205.5');offset-rotate:0deg"><g id="eZB6l7kinC028_tr" transform="rotate(0)"><g transform="translate(-1,99)"><text dx="0" dy="0" font-family="&quot;Averta Demo&quot;" font-size="18" font-weight="400" transform="translate(-79.286-36)" stroke="#000" stroke-width="0"><tspan x="0" y="0" font-family="&quot;Averta Demo&quot;" font-size="18" font-weight="400" font-style="normal" stroke="#000" stroke-width="0"><![CDATA[
Download as JPEG
]]></tspan></text></g></g></g></g><mask id="eZB6l7kinC031" mask-type="luminance" x="-150%" y="-150%" height="400%" width="400%"><path d="M684,234.042c0,0-282.552,0-282.552,0s0,208.958,0,208.958s282.552,0,282.552,0s0-208.958,0-208.958Z" fill="#fff" fill-rule="evenodd" stroke="#fff" stroke-width="0"/></mask></g><g id="eZB6l7kinC033_ts" transform="translate(485.5,169.65) scale(1,1)"><g id="eZB6l7kinC033" transform="translate(0,0)" opacity="0"><g><rect width="228.8" height="66.3" rx="6" ry="6" transform="translate(-114.4-33.15)" fill="#fe7e54" stroke-width="0"/></g><g><rect width="228.8" height="66.3" rx="6" ry="6" transform="translate(-114.4-33.15)" paint-order="stroke fill markers" fill="none" fill-rule="evenodd" stroke="#eff3f4"/></g></g></g><g id="eZB6l7kinC038_ts" transform="translate(485.5,169.65) scale(1,1)"><text id="eZB6l7kinC038" dx="0" dy="0" font-family="&quot;Averta Demo&quot;" font-size="26" font-weight="400" transform="translate(-48.9,9.35)" opacity="0" fill="#fff" stroke="#000" stroke-width="0"><tspan x="0" y="0" font-family="&quot;Averta Demo&quot;" font-size="26" font-weight="400" font-style="normal" fill="#fff" stroke="#000" stroke-width="0"><![CDATA[
Download
]]></tspan></text></g><g id="eZB6l7kinC040_ts" transform="translate(485.5,169.65) scale(1,1)"><g transform="translate(0,0)"><g id="eZB6l7kinC041" transform="translate(-505.9-195.15)" opacity="0"><g transform="translate(436.949 188)"><path d="M0,16.003C0,16.003,0,0,0,0" paint-order="stroke fill markers" fill="none" fill-rule="evenodd" stroke="#fff" stroke-width="1.993" stroke-linecap="round" stroke-linejoin="round"/></g><g transform="translate(431.105 198.442)"><path d="M11.687,0.049c0,0-5.919,5.809-5.919,5.809C5.768,5.858,0,0,0,0" paint-order="stroke fill markers" fill="none" fill-rule="evenodd" stroke="#fff" stroke-width="1.993" stroke-linecap="round" stroke-linejoin="round"/></g></g></g></g><g id="eZB6l7kinC046_to" style="offset-path:path('M317.5,137.65C345.5,137.65,457.5,137.65,485.5,137.65');offset-rotate:0deg"><g id="eZB6l7kinC046" transform="translate(0,32)" opacity="0"><g><rect width="228.8" height="66.3" rx="6" ry="6" transform="translate(-114.4-33.15)" fill="#fe7e54" stroke-width="0"/></g><g><rect width="228.8" height="66.3" rx="6" ry="6" transform="translate(-114.4-33.15)" paint-order="stroke fill markers" fill="none" fill-rule="evenodd" stroke="#eff3f4"/></g></g></g><g id="eZB6l7kinC051_to" style="offset-path:path('M317.5,137.65C345.5,137.65,457.5,137.65,485.5,137.65');offset-rotate:0deg"><g transform="translate(0,32)"><g id="eZB6l7kinC052" transform="translate(-505.4-195.15)" opacity="0"><g transform="translate(436.949 188)"><path d="M0,16.003C0,16.003,0,0,0,0" paint-order="stroke fill markers" fill="none" fill-rule="evenodd" stroke="#fff" stroke-width="1.993" stroke-linecap="round" stroke-linejoin="round"/></g><g transform="translate(431.105 198.442)"><path d="M11.687,0.049c0,0-5.919,5.809-5.919,5.809C5.768,5.858,0,0,0,0" paint-order="stroke fill markers" fill="none" fill-rule="evenodd" stroke="#fff" stroke-width="1.993" stroke-linecap="round" stroke-linejoin="round"/></g></g></g></g><g id="eZB6l7kinC057_to" style="offset-path:path('M317.5,137.65C345.5,137.65,457.5,137.65,485.5,137.65');offset-rotate:0deg"><g transform="translate(0,32)"><text id="eZB6l7kinC058" dx="0" dy="0" font-family="&quot;Averta Demo&quot;" font-size="26" font-weight="400" transform="translate(-48.4 9.35)" opacity="0" fill="#fff" fill-opacity="0" stroke="#000" stroke-width="0" stroke-opacity="0"><tspan x="0" y="0" font-family="&quot;Averta Demo&quot;" font-size="26" font-weight="400" font-style="normal" fill="#fff" stroke="#000" stroke-width="0"><![CDATA[
Download
]]></tspan></text></g></g><g id="eZB6l7kinC060_to" style="offset-path:path('M614.062,269.875C603.729,257.375,562.395,207.375,552.062,194.875');offset-rotate:0deg"><g id="eZB6l7kinC060" transform="rotate(-35) translate(-0.062,-1.875)" opacity="0"><g><path d="M0.5,-4.125c0,0-8.375,16.375-8.375,16.375s8.125-3.25,8.125-3.25s7.75,3,7.75,3-7.5-16.125-7.5-16.125Z" fill="#380000" stroke-width="0"/></g></g></g><g id="eZB6l7kinC063_to" style="offset-path:path('M192.5,107C192.5,129.667,192.5,220.333,192.5,243');offset-rotate:0deg"><g id="eZB6l7kinC063" transform="translate(0,0)" opacity="0"><g><rect width="198" height="201" rx="6" ry="6" transform="translate(-99-100.5)" fill="#fff" stroke-width="0"/></g><g><rect width="198" height="201" rx="6" ry="6" transform="translate(-99-100.5)" paint-order="stroke fill markers" fill="none" fill-rule="evenodd" stroke="#eff3f4"/></g></g></g><g id="eZB6l7kinC068_to" style="offset-path:path('M192.5,107C192.5,129.667,192.5,220.333,192.5,243');offset-rotate:0deg"><g transform="translate(0,0)"><g id="eZB6l7kinC069" transform="translate(-74.5-75)" opacity="0"><g transform="translate(74.519 74.501)"><g><rect width="149.037" height="149.003" rx="0" ry="0" transform="translate(-74.5185-74.5015)" fill="none" fill-rule="evenodd" stroke-width="0"/></g><g><rect width="149.037" height="149.003" rx="0" ry="0" transform="translate(-74.5185-74.5015)" fill="none" fill-rule="evenodd" stroke-width="0"/></g></g><g transform="translate(85.135 56.934)"><g><path d="M49.896,21.078c0,0-7.071,0-7.071,0s0,7.037,0,7.037-21.129,0-21.129,0s0,21.404,0,21.404s6.865,0,6.865,0c0,2.317,0,4.651,0,7.329c0,0-6.968,0-6.968,0s0,6.746,0,6.746s28.012,0,28.012,0s0-13.972,0-13.972-21.147,0-21.147,0s0-7.089,0-7.089s14.178,0,14.178,0s0-6.917,0-6.917s7.157,0,7.157,0s0,6.745,0,6.745s7.038,0,7.038,0s0,21.387,0,21.387s7.071,0,7.071,0s0,14.023,0,14.023-6.9,0-6.9,0s0-6.694,0-6.694-7.037,0-7.037,0s0,6.729,0,6.729-7.157,0-7.157,0s0-6.66,0-6.66-7.038,0-7.038,0s0,6.574,0,6.574-7.157,0-7.157,0s0-6.626,0-6.626-7.038,0-7.038,0s0,6.849,0,6.849-14.452,0-14.452,0s.103.103.103.103s0-14.161,0-14.161-6.969,0-6.969,0s0-7.123,0-7.123s13.749,0,13.749,0s0-14.366,0-14.366-6.9,0-6.9,0s.103.103.103.103s0-7.278,0-7.278s6.797,0,6.797,0s0-6.934,0-6.934-14.006,0-14.006,0c.034-2.403.069-4.806.103-7.209c0,0-.103.103-.103.103s14.058,0,14.058,0s0-7.295,0-7.295-6.832,0-6.832,0s0-7.037,0-7.037-.103.103-.103.103s7.037,0,7.037,0s0-6.952,0-6.952s21.507,0,21.507,0s0,14.04,0,14.04c-4.669,0-9.354,0-14.04,0c0,0,0,6.832,0,6.832s13.937,0,13.937,0s0-6.935,0-6.935c4.772.034,9.543.087,14.315.121c0,0-.103-.103-.103-.103s0,7.208,0,7.208.103-.102.103-.102.017.017.017.017Z" fill="none" fill-rule="evenodd" stroke-width="0"/></g><g><path d="M49.896,21.078c0,0-7.071,0-7.071,0s0,7.037,0,7.037-21.129,0-21.129,0s0,21.404,0,21.404s6.865,0,6.865,0c0,2.317,0,4.651,0,7.329c0,0-6.968,0-6.968,0s0,6.746,0,6.746s28.012,0,28.012,0s0-13.972,0-13.972-21.147,0-21.147,0s0-7.089,0-7.089s14.178,0,14.178,0s0-6.917,0-6.917s7.157,0,7.157,0s0,6.745,0,6.745s7.038,0,7.038,0s0,21.387,0,21.387s7.071,0,7.071,0s0,14.023,0,14.023-6.9,0-6.9,0s0-6.694,0-6.694-7.037,0-7.037,0s0,6.729,0,6.729-7.157,0-7.157,0s0-6.66,0-6.66-7.038,0-7.038,0s0,6.574,0,6.574-7.157,0-7.157,0s0-6.626,0-6.626-7.038,0-7.038,0s0,6.849,0,6.849-14.452,0-14.452,0s.103.103.103.103s0-14.161,0-14.161-6.969,0-6.969,0s0-7.123,0-7.123s13.749,0,13.749,0s0-14.366,0-14.366-6.9,0-6.9,0s.103.103.103.103s0-7.278,0-7.278s6.797,0,6.797,0s0-6.934,0-6.934-14.006,0-14.006,0c.034-2.403.069-4.806.103-7.209c0,0-.103.103-.103.103s14.058,0,14.058,0s0-7.295,0-7.295-6.832,0-6.832,0s0-7.037,0-7.037-.103.103-.103.103s7.037,0,7.037,0s0-6.952,0-6.952s21.507,0,21.507,0s0,14.04,0,14.04c-4.669,0-9.354,0-14.04,0c0,0,0,6.832,0,6.832s13.937,0,13.937,0s0-6.935,0-6.935c4.772.034,9.543.087,14.315.121c0,0-.103-.103-.103-.103s0,7.208,0,7.208.103-.102.103-.102.017.017.017.017Z" fill="#380000" stroke-width="0"/></g></g><g transform="translate(.12 0)"><g><path d="M42.173,42.361c0,0,0-35.118,0-35.118s-35.118,0-35.118,0s0,35.118,0,35.118s35.118,0,35.118,0Z" fill="#380000" stroke-width="0"/><path d="M0,0C0,0,49.347,0,49.347,0s0,49.347,0,49.347-49.347,0-49.347,0C0,49.347,0,0,0,0Z" fill="#380000" stroke-width="0"/></g><g><path d="M0,0C0,0,49.347,0,49.347,0s0,49.347,0,49.347-49.347,0-49.347,0C0,49.347,0,0,0,0Z" fill="none" fill-rule="evenodd" stroke-width="0"/><path d="M42.173,42.361c0,0,0-35.118,0-35.118s-35.118,0-35.118,0s0,35.118,0,35.118s35.118,0,35.118,0Z" fill="#fff" fill-rule="evenodd" stroke="#fff"/></g></g><g transform="translate(.154 99.655)"><g><path d="M7.089,7.02c0,0,0,35.118,0,35.118s35.118,0,35.118,0s0-35.118,0-35.118-35.118,0-35.118,0Z" fill="none" fill-rule="evenodd" stroke-width="0"/><path d="M49.33,0c0,0,0,49.347,0,49.347s-49.33,0-49.33,0C0,49.347,0,0,0,0s49.347,0,49.347,0-.017,0-.017,0Z" fill="none" fill-rule="evenodd" stroke-width="0"/></g><g><path d="M49.33,0c0,0,0,49.347,0,49.347s-49.33,0-49.33,0C0,49.347,0,0,0,0s49.347,0,49.347,0-.017,0-.017,0Z" fill="#380000" stroke-width="0"/><path d="M7.089,7.02c0,0,0,35.118,0,35.118s35.118,0,35.118,0s0-35.118,0-35.118-35.118,0-35.118,0Z" fill="#fff" stroke-width="0"/></g></g><g transform="translate(99.69 0)"><g><path d="M42.258,7.209c0,0-35.118,0-35.118,0s0,35.118,0,35.118s35.118,0,35.118,0s0-35.118,0-35.118Z" fill="#380000" stroke-width="0"/><path d="M0,0C0,0,49.33,0,49.33,0s0,49.347,0,49.347-49.33,0-49.33,0C0,49.347,0,0,0,0Z" fill="#380000" stroke-width="0"/></g><g><path d="M0,0C0,0,49.33,0,49.33,0s0,49.347,0,49.347-49.33,0-49.33,0C0,49.347,0,0,0,0Z" fill="none" fill-rule="evenodd" stroke-width="0"/><path d="M42.258,7.209c0,0-35.118,0-35.118,0s0,35.118,0,35.118s35.118,0,35.118,0s0-35.118,0-35.118Z" fill="#fff" fill-rule="evenodd" stroke-width="0"/></g></g><g transform="translate(56.556 21.129)"><g><path d="M28.613,0.103c0,0,6.917,0,6.917,0s0,14.057,0,14.057-13.852,0-13.852,0s0,14.11,0,14.11-7.157,0-7.157,0s0-6.626,0-6.626-7.158,0-7.158,0s0,13.8,0,13.8c-2.712,0-5.029,0-7.363,0c0,0,.12.103.103.103c0-9.303,0-18.606,0-28.269c0,0,28.596,0,28.596,0s0-7.278,0-7.278-.103.103-.103.103.017,0,.017,0Z" fill="none" fill-rule="evenodd" stroke-width="0"/></g><g><path d="M28.613,0.103c0,0,6.917,0,6.917,0s0,14.057,0,14.057-13.852,0-13.852,0s0,14.11,0,14.11-7.157,0-7.157,0s0-6.626,0-6.626-7.158,0-7.158,0s0,13.8,0,13.8c-2.712,0-5.029,0-7.363,0c0,0,.12.103.103.103c0-9.303,0-18.606,0-28.269c0,0,28.596,0,28.596,0s0-7.278,0-7.278-.103.103-.103.103.017,0,.017,0Z" fill="#380000" stroke-width="0"/></g></g><g transform="translate(56.711 85.135)"><g><path d="M35.564,14.212c0,0,0,7.089,0,7.089s-14.04,0-14.04,0s0,6.917,0,6.917-14.418,0-14.418,0c0-2.231,0-4.549,0-6.883c2.317,0,4.617,0,6.934,0c0,0,0-6.814,0-6.814s-6.831,0-6.831,0s0,6.917,0,6.917-7.106,0-7.106,0s0-21.438,0-21.438-.103.103-.103.103s7.209,0,7.209,0-.103-.103-.103-.103s0,7.106,0,7.106s14.332,0,14.332,0s0,7.209,0,7.209s14.212,0,14.212,0-.103-.103-.103-.103.017,0,.017,0Z" fill="none" fill-rule="evenodd" stroke-width="0"/></g><g><path d="M35.564,14.212c0,0,0,7.089,0,7.089s-14.04,0-14.04,0s0,6.917,0,6.917-14.418,0-14.418,0c0-2.231,0-4.549,0-6.883c2.317,0,4.617,0,6.934,0c0,0,0-6.814,0-6.814s-6.831,0-6.831,0s0,6.917,0,6.917-7.106,0-7.106,0s0-21.438,0-21.438-.103.103-.103.103s7.209,0,7.209,0-.103-.103-.103-.103s0,7.106,0,7.106s14.332,0,14.332,0s0,7.209,0,7.209s14.212,0,14.212,0-.103-.103-.103-.103.017,0,.017,0Z" fill="#380000" stroke-width="0"/></g></g><g transform="translate(128.062 57.02)"><g><path d="M6.969,13.989c0,0,0-7.072,0-7.072s-6.969,0-6.969,0C0,6.917,0,0,0,0s13.903,0,13.903,0s0,6.78,0,6.78s7.055,0,7.055,0s0,21.112,0,21.112-14.006,0-14.006,0s0-6.9,0-6.9-.103.103-.103.103s6.917,0,6.917,0s0-7.209,0-7.209-6.917,0-6.917,0s.103.103.103.103.017,0,.017,0Z" fill="none" fill-rule="evenodd" stroke-width="0"/></g><g><path d="M6.969,13.989c0,0,0-7.072,0-7.072s-6.969,0-6.969,0C0,6.917,0,0,0,0s13.903,0,13.903,0s0,6.78,0,6.78s7.055,0,7.055,0s0,21.112,0,21.112-14.006,0-14.006,0s0-6.9,0-6.9-.103.103-.103.103s6.917,0,6.917,0s0-7.209,0-7.209-6.917,0-6.917,0s.103.103.103.103.017,0,.017,0Z" fill="#380000" stroke-width="0"/></g></g><g transform="translate(70.94 127.788)"><g><path d="M21.335,7.106c0,2.403,0,4.806-.017,7.209c0,0,.103-.103.103-.103s-14.109,0-14.109,0s0,6.934,0,6.934-7.209,0-7.209,0c0-4.703,0-9.371,0-14.04c0,0-.103.103-.103.103s7.209,0,7.209,0s0-7.209,0-7.209-.103.103-.103.103s7.037,0,7.037,0s0,7.089,0,7.089c2.66,0,4.978,0,7.295,0c0,0-.103-.103-.103-.103s0,.017,0,.017Z" fill="none" fill-rule="evenodd" stroke-width="0"/></g><g><path d="M21.335,7.106c0,2.403,0,4.806-.017,7.209c0,0,.103-.103.103-.103s-14.109,0-14.109,0s0,6.934,0,6.934-7.209,0-7.209,0c0-4.703,0-9.371,0-14.04c0,0-.103.103-.103.103s7.209,0,7.209,0s0-7.209,0-7.209-.103.103-.103.103s7.037,0,7.037,0s0,7.089,0,7.089c2.66,0,4.978,0,7.295,0c0,0-.103-.103-.103-.103s0,.017,0,.017Z" fill="#380000" stroke-width="0"/></g></g><g transform="translate(.137 78.321)"><g><path d="M20.923,0c0,0,0,13.766,0,13.766s-6.883,0-6.883,0s0-6.66,0-6.66-7.123,0-7.123,0s0,6.677,0,6.677-6.917,0-6.917,0C0,13.783,0,0,0,0s20.923,0,20.923,0Z" fill="none" fill-rule="evenodd" stroke-width="0"/></g><g><path d="M20.923,0c0,0,0,13.766,0,13.766s-6.883,0-6.883,0s0-6.66,0-6.66-7.123,0-7.123,0s0,6.677,0,6.677-6.917,0-6.917,0C0,13.783,0,0,0,0s20.923,0,20.923,0Z" fill="#380000" stroke-width="0"/></g></g><g transform="translate(71.231 0.034)"><g><path d="M14.04,21.095c0,0-14.04,0-14.04,0C0,21.095,0,0,0,0s6.711,0,6.711,0s0,14.092,0,14.092s7.329,0,7.329,0-.103-.103-.103-.103c0,2.403.001,4.806.018,7.209c0,0,.103-.103.103-.103s-.018,0-.018,0Z" fill="none" fill-rule="evenodd" stroke-width="0"/></g><g><path d="M14.04,21.095c0,0-14.04,0-14.04,0C0,21.095,0,0,0,0s6.711,0,6.711,0s0,14.092,0,14.092s7.329,0,7.329,0-.103-.103-.103-.103c0,2.403.001,4.806.018,7.209c0,0,.103-.103.103-.103s-.018,0-.018,0Z" fill="#380000" stroke-width="0"/></g></g><g transform="translate(0 56.951)"><g><path d="M0,13.731C0,13.731,0,0,0,0s13.903,0,13.903,0s0,13.731,0,13.731-13.903,0-13.903,0Z" fill="none" fill-rule="evenodd" stroke-width="0"/></g><g><path d="M0,13.731C0,13.731,0,0,0,0s13.903,0,13.903,0s0,13.731,0,13.731-13.903,0-13.903,0Z" fill="#380000" stroke-width="0"/></g></g><g transform="translate(85.152 0.103)"><g><path d="M0.103,14.023c0,0,0-14.023,0-14.023s6.831,0,6.831,0s0,13.92,0,13.92c-2.317,0-4.634,0-6.934,0c0,0,.103.103.103.103Z" fill="none" fill-rule="evenodd" stroke-width="0"/></g><g><path d="M0.103,14.023c0,0,0-14.023,0-14.023s6.831,0,6.831,0s0,13.92,0,13.92c-2.317,0-4.634,0-6.934,0c0,0,.103.103.103.103Z" fill="#380000" stroke-width="0"/></g></g><g transform="translate(56.951 7.123)"><g><path d="M6.677,13.903c0,0-6.677,0-6.677,0C0,13.903,0,0,0,0s6.677,0,6.677,0s0,13.903,0,13.903Z" fill="none" fill-rule="evenodd" stroke-width="0"/></g><g><path d="M6.677,13.903c0,0-6.677,0-6.677,0C0,13.903,0,0,0,0s6.677,0,6.677,0s0,13.903,0,13.903Z" fill="#380000" stroke-width="0"/></g></g><g transform="translate(28.27 63.8)"><g><path d="M14.315,7.106c0,0-14.212,0-14.212,0s0-7.106,0-7.106-.103.103-.103.103c4.772,0,9.543,0,14.315,0c0,0-.103-.103-.103-.103s0,7.209,0,7.209.103-.103.103-.103Z" fill="none" fill-rule="evenodd" stroke-width="0"/></g><g><path d="M14.315,7.106c0,0-14.212,0-14.212,0s0-7.106,0-7.106-.103.103-.103.103c4.772,0,9.543,0,14.315,0c0,0-.103-.103-.103-.103s0,7.209,0,7.209.103-.103.103-.103Z" fill="#380000" stroke-width="0"/></g></g><g transform="translate(57.037 134.791)"><g><path d="M6.643,0c0,0,0,14.212,0,14.212s-6.643,0-6.643,0s0-14.109,0-14.109c2.146,0,4.446,0,6.746,0c0,0-.121-.103-.121-.103s.018,0,.018,0Z" fill="none" fill-rule="evenodd" stroke-width="0"/></g><g><path d="M6.643,0c0,0,0,14.212,0,14.212s-6.643,0-6.643,0s0-14.109,0-14.109c2.146,0,4.446,0,6.746,0c0,0-.121-.103-.121-.103s.018,0,.018,0Z" fill="#380000" stroke-width="0"/></g></g><g transform="translate(85.392 42.67)"><g><path d="M0,0C0,0,6.694,0,6.694,0s0,6.746,0,6.746-6.694,0-6.694,0C0,6.746,0,0,0,0Z" fill="none" fill-rule="evenodd" stroke-width="0"/></g><g><path d="M0,0C0,0,6.694,0,6.694,0s0,6.746,0,6.746-6.694,0-6.694,0C0,6.746,0,0,0,0Z" fill="#380000" stroke-width="0"/></g></g><g transform="translate(42.807 85.014)"><g><path d="M6.643,0c0,0,0,7.106,0,7.106s-6.643,0-6.643,0s0-7.003,0-7.003c2.163,0,4.446,0,6.746,0c0,0-.121-.103-.121-.103s.018,0,.018,0Z" fill="none" fill-rule="evenodd" stroke-width="0"/></g><g><path d="M6.643,0c0,0,0,7.106,0,7.106s-6.643,0-6.643,0s0-7.003,0-7.003c2.163,0,4.446,0,6.746,0c0,0-.121-.103-.121-.103s.018,0,.018,0Z" fill="#380000" stroke-width="0"/></g></g><g transform="translate(49.45 78.029)"><g><path d="M7.363,7.106C4.909,7.072,2.454,7.037,0,6.986c0,0,.12.103.103.103C0.154,4.72,0.189,2.352,0.24,0c0,0-.103.103-.103.103s7.209,0,7.209,0-.103-.103-.103-.103s0,7.209,0,7.209.103-.103.103-.103.017,0,.017,0Z" fill="none" fill-rule="evenodd" stroke-width="0"/></g><g><path d="M7.363,7.106C4.909,7.072,2.454,7.037,0,6.986c0,0,.12.103.103.103C0.154,4.72,0.189,2.352,0.24,0c0,0-.103.103-.103.103s7.209,0,7.209,0-.103-.103-.103-.103s0,7.209,0,7.209.103-.103.103-.103.017,0,.017,0Z" fill="#380000" stroke-width="0"/></g></g><g transform="translate(42.482 70.906)"><g><path d="M7.226,7.123c0,0-7.123,0-7.123,0s0-7.123,0-7.123-.103.103-.103.103s7.209,0,7.209,0-.103-.103-.103-.103s0,7.209,0,7.209.103-.103.103-.103.017.017.017.017Z" fill="none" fill-rule="evenodd" stroke-width="0"/></g><g><path d="M7.226,7.123c0,0-7.123,0-7.123,0s0-7.123,0-7.123-.103.103-.103.103s7.209,0,7.209,0-.103-.103-.103-.103s0,7.209,0,7.209.103-.103.103-.103.017.017.017.017Z" fill="#380000" stroke-width="0"/></g></g><g transform="translate(57.02 120.973)"><g><path d="M6.9,6.814c0,0-6.9,0-6.9,0C0,6.814,0,0,0,0s6.797,0,6.797,0s0,6.917,0,6.917.103-.103.103-.103Z" fill="none" fill-rule="evenodd" stroke-width="0"/></g><g><path d="M6.9,6.814c0,0-6.9,0-6.9,0C0,6.814,0,0,0,0s6.797,0,6.797,0s0,6.917,0,6.917.103-.103.103-.103Z" fill="#380000" stroke-width="0"/></g></g><g transform="translate(63.679 127.771)"><g><path d="M0.137,0.12c2.403,0,4.823,0,7.226,0c0,0-.103-.103-.103-.103s0,7.209,0,7.209.103-.103.103-.103C4.909,7.089,2.454,7.054,0,7.003c0,0,.12.103.103.103.034-2.369.086-4.737.12-7.106c0,0-.103.103-.103.103s.017.017.017.017Z" fill="none" fill-rule="evenodd" stroke-width="0"/></g><g><path d="M0.137,0.12c2.403,0,4.823,0,7.226,0c0,0-.103-.103-.103-.103s0,7.209,0,7.209.103-.103.103-.103C4.909,7.089,2.454,7.054,0,7.003c0,0,.12.103.103.103.034-2.369.086-4.737.12-7.106c0,0-.103.103-.103.103s.017.017.017.017Z" fill="#380000" stroke-width="0"/></g></g><g transform="translate(21.455 56.968)"><g><path d="M6.917,6.831c0,0-6.917,0-6.917,0C0,6.831,0,0,0,0s6.814,0,6.814,0c0,2.317,0,4.634,0,6.934c0,0,.103-.103.103-.103Z" fill="none" fill-rule="evenodd" stroke-width="0"/></g><g><path d="M6.917,6.831c0,0-6.917,0-6.917,0C0,6.831,0,0,0,0s6.814,0,6.814,0c0,2.317,0,4.634,0,6.934c0,0,.103-.103.103-.103Z" fill="#380000" stroke-width="0"/></g></g><g transform="translate(92.257 142.017)"><g><path d="M0,0.103c0,0,6.917,0,6.917,0s0,6.831,0,6.831-6.814,0-6.814,0c0-2.317,0-4.634,0-6.934c0,0-.103.103-.103.103Z" fill="none" fill-rule="evenodd" stroke-width="0"/></g><g><path d="M0,0.103c0,0,6.917,0,6.917,0s0,6.831,0,6.831-6.814,0-6.814,0c0-2.317,0-4.634,0-6.934c0,0-.103.103-.103.103Z" fill="#380000" stroke-width="0"/></g></g><g transform="translate(106.744 142.137)"><g><path d="M0,0C0,0,6.625,0,6.625,0s0,6.797,0,6.797-6.625,0-6.625,0C0,6.797,0,0,0,0Z" fill="none" fill-rule="evenodd" stroke-width="0"/></g><g><path d="M0,0C0,0,6.625,0,6.625,0s0,6.797,0,6.797-6.625,0-6.625,0C0,6.797,0,0,0,0Z" fill="#380000" stroke-width="0"/></g></g><g transform="translate(121.043 142.309)"><g><path d="M6.677,0c0,0,0,6.694,0,6.694s-6.677,0-6.677,0C0,6.694,0,0,0,0s6.677,0,6.677,0Z" fill="none" fill-rule="evenodd" stroke-width="0"/></g><g><path d="M6.677,0c0,0,0,6.694,0,6.694s-6.677,0-6.677,0C0,6.694,0,0,0,0s6.677,0,6.677,0Z" fill="#380000" stroke-width="0"/></g></g><g transform="translate(135.203 142.274)"><g><path d="M6.728,0c0,0,0,6.66,0,6.66s-6.728,0-6.728,0s0-6.66,0-6.66s6.728,0,6.728,0Z" fill="none" fill-rule="evenodd" stroke-width="0"/></g><g><path d="M6.728,0c0,0,0,6.66,0,6.66s-6.728,0-6.728,0s0-6.66,0-6.66s6.728,0,6.728,0Z" fill="#380000" stroke-width="0"/></g></g><g transform="translate(78.046 85.135)"><g><path d="M0,7.209C0,7.209,0,0,0,0s7.209,0,7.209,0s0,7.209,0,7.209-7.209,0-7.209,0Z" fill="none" fill-rule="evenodd" stroke-width="0"/></g><g><path d="M0,7.209C0,7.209,0,0,0,0s7.209,0,7.209,0s0,7.209,0,7.209-7.209,0-7.209,0Z" fill="#380000" stroke-width="0"/></g></g><g transform="translate(14.315 14.264)"><g><path d="M20.958,0c0,0,0,20.889,0,20.889s-20.958,0-20.958,0C0,20.889,0,0,0,0s20.958,0,20.958,0Z" fill="none" fill-rule="evenodd" stroke-width="0"/></g><g><path d="M20.958,0c0,0,0,20.889,0,20.889s-20.958,0-20.958,0C0,20.889,0,0,0,0s20.958,0,20.958,0Z" fill="#380000" stroke-width="0"/></g></g><g transform="translate(14.298 113.799)"><g><path d="M20.855,21.026c0,0-20.855,0-20.855,0C0,21.026,0,0,0,0s20.855,0,20.855,0s0,21.026,0,21.026Z" fill="none" fill-rule="evenodd" stroke-width="0"/></g><g><path d="M20.855,21.026c0,0-20.855,0-20.855,0C0,21.026,0,0,0,0s20.855,0,20.855,0s0,21.026,0,21.026Z" fill="#380000" stroke-width="0"/></g></g><g transform="translate(113.816 14.264)"><g><path d="M0,20.889C0,20.889,0,0,0,0s20.889,0,20.889,0s0,20.889,0,20.889-20.889,0-20.889,0Z" fill="none" fill-rule="evenodd" stroke-width="0"/></g><g><path d="M0,20.889C0,20.889,0,0,0,0s20.889,0,20.889,0s0,20.889,0,20.889-20.889,0-20.889,0Z" fill="#380000" stroke-width="0"/></g></g><g transform="translate(49.604 70.905)"><g><path d="M0,0c0,0,.103,0,.103,0s0,.103,0,.103C0.103,0.103,0,0,0,0Z" fill="none" fill-rule="evenodd" stroke-width="0"/></g><g><path d="M0,0c0,0,.103,0,.103,0s0,.103,0,.103C0.103,0.103,0,0,0,0Z" fill="#380000" stroke-width="0"/></g></g><g transform="translate(85.151 78.028)"><g><path d="M0,0.103C0,0.103,0,0,0,0s.103,0,.103,0-.103.103-.103.103Z" fill="none" fill-rule="evenodd" stroke-width="0"/></g><g><path d="M0,0.103C0,0.103,0,0,0,0s.103,0,.103,0-.103.103-.103.103Z" fill="#380000" stroke-width="0"/></g></g><g transform="translate(42.498 63.799)"><g><path d="M0,0c0,0,.103,0,.103,0s0,.103,0,.103C0.103,0.103,0,0,0,0Z" fill="none" fill-rule="evenodd" stroke-width="0"/></g><g><path d="M0,0c0,0,.103,0,.103,0s0,.103,0,.103C0.103,0.103,0,0,0,0Z" fill="#380000" stroke-width="0"/></g></g><g transform="translate(63.816 85.134)"><g><path d="M0,0c0,0,.103,0,.103,0s0,.103,0,.103C0.103,0.103,0,0,0,0Z" fill="none" fill-rule="evenodd" stroke-width="0"/></g><g><path d="M0,0c0,0,.103,0,.103,0s0,.103,0,.103C0.103,0.103,0,0,0,0Z" fill="#380000" stroke-width="0"/></g></g><g transform="translate(56.71 78.011)"><g><path d="M0,0c0,0,.103,0,.103,0s0,.103,0,.103C0.103,0.103,0,0,0,0Z" fill="none" fill-rule="evenodd" stroke-width="0"/></g><g><path d="M0,0c0,0,.103,0,.103,0s0,.103,0,.103C0.103,0.103,0,0,0,0Z" fill="#380000" stroke-width="0"/></g></g><g transform="translate(92.257 63.799)"><g><path d="M0,0.103C0,0.103,0,0,0,0s.103,0,.103,0-.103.103-.103.103Z" fill="none" fill-rule="evenodd" stroke-width="0"/></g><g><path d="M0,0.103C0,0.103,0,0,0,0s.103,0,.103,0-.103.103-.103.103Z" fill="#380000" stroke-width="0"/></g></g><g transform="translate(63.937 57.003)"><g><path d="M28.338,0c0,0,0,6.797,0,6.797s-7.106,0-7.106,0s0,14.229,0,14.229-14.28,0-14.28,0s0,7.106,0,7.106-6.952,0-6.952,0s0-14.383,0-14.383s6.969,0,6.969,0s0-13.749,0-13.749s21.369,0,21.369,0Z" fill="none" fill-rule="evenodd" stroke-width="0"/></g><g><path d="M28.338,0c0,0,0,6.797,0,6.797s-7.106,0-7.106,0s0,14.229,0,14.229-14.28,0-14.28,0s0,7.106,0,7.106-6.952,0-6.952,0s0-14.383,0-14.383s6.969,0,6.969,0s0-13.749,0-13.749s21.369,0,21.369,0Z" fill="#380000" stroke-width="0"/></g></g><g transform="translate(56.539 56.573)"><g><path d="M0,0c0,0,.12.103.12.103-.034,0-.069,0-.103,0c0-.034,0-.103,0-.103s-.017,0-.017,0Z" fill="none" fill-rule="evenodd" stroke-width="0"/></g><g><path d="M0,0c0,0,.12.103.12.103-.034,0-.069,0-.103,0c0-.034,0-.103,0-.103s-.017,0-.017,0Z" fill="#380000" stroke-width="0"/></g></g></g></g></g><g transform="translate(86.694 46.299)"><g><rect width="17.798" height="17.798" rx="0" ry="0" transform="translate(-8.899-8.899)" fill="none" fill-rule="evenodd" stroke-width="0"/></g><g><rect width="17.798" height="17.798" rx="0" ry="0" transform="translate(-8.899-8.899)" fill="none" fill-rule="evenodd" stroke-width="0"/></g></g><g transform="translate(76.315 34.433)" opacity="0.5"><g><rect width="11.866" height="11.866" rx="0" ry="0" transform="translate(-5.933-5.933)" fill="none" fill-rule="evenodd" stroke-width="0"/></g><g><rect width="11.866" height="11.866" rx="0" ry="0" transform="translate(-5.933-5.933)" fill="none" fill-rule="evenodd" stroke-width="0"/></g></g><g transform="translate(76.315 58.164)" opacity="0.5"><g><rect width="11.866" height="11.866" rx="0" ry="0" transform="translate(-5.933-5.933)" fill="none" fill-rule="evenodd" stroke-width="0"/></g><g><rect width="11.866" height="11.866" rx="0" ry="0" transform="translate(-5.933-5.933)" fill="none" fill-rule="evenodd" stroke-width="0"/></g></g><g transform="translate(235.25 64.614)"><g><rect width="449.499" height="68.228" rx="6" ry="6" transform="translate(-224.7495-34.114)" fill="#fff" stroke-width="0"/></g><g><rect width="449.499" height="68.228" rx="6" ry="6" transform="translate(-224.7495-34.114)" paint-order="stroke fill markers" fill="none" fill-rule="evenodd" stroke="#eff3f4"/></g></g><g transform="translate(30.797 42.998)" opacity="0.5"><g><path d="M7.231,0c0,0,1.955,5.37,1.955,5.37s5.277,1.989,5.277,1.989-5.277,1.989-5.277,1.989-1.955,5.371-1.955,5.371-1.954-5.371-1.954-5.371-5.277-1.989-5.277-1.989s5.277-1.989,5.277-1.989s1.954-5.37,1.954-5.37Z" fill="#380000" stroke-width="0"/></g><g><path d="M7.231,0c0,0,1.955,5.37,1.955,5.37s5.277,1.989,5.277,1.989-5.277,1.989-5.277,1.989-1.955,5.371-1.955,5.371-1.954-5.371-1.954-5.371-5.277-1.989-5.277-1.989s5.277-1.989,5.277-1.989s1.954-5.37,1.954-5.37Z" fill="none" fill-rule="evenodd" stroke-width="0"/></g></g><g transform="matrix(1.38 0 0 1.38 38.04922 55.20158)"><g><path d="M7.231,0c0,0,1.955,5.37,1.955,5.37s5.277,1.989,5.277,1.989-5.277,1.989-5.277,1.989-1.955,5.371-1.955,5.371-1.954-5.371-1.954-5.371-5.277-1.989-5.277-1.989s5.277-1.989,5.277-1.989s1.954-5.37,1.954-5.37Z" fill="#380000" stroke-width="0"/></g><g><path d="M7.231,0c0,0,1.955,5.37,1.955,5.37s5.277,1.989,5.277,1.989-5.277,1.989-5.277,1.989-1.955,5.371-1.955,5.371-1.954-5.371-1.954-5.371-5.277-1.989-5.277-1.989s5.277-1.989,5.277-1.989s1.954-5.37,1.954-5.37Z" fill="none" fill-rule="evenodd" stroke-width="0"/></g></g><g transform="translate(30.797 72.435)" opacity="0.5"><g><path d="M7.231,0c0,0,1.955,5.37,1.955,5.37s5.277,1.989,5.277,1.989-5.277,1.989-5.277,1.989-1.955,5.371-1.955,5.371-1.954-5.371-1.954-5.371-5.277-1.989-5.277-1.989s5.277-1.989,5.277-1.989s1.954-5.37,1.954-5.37Z" fill="#380000" stroke-width="0"/></g><g><path d="M7.231,0c0,0,1.955,5.37,1.955,5.37s5.277,1.989,5.277,1.989-5.277,1.989-5.277,1.989-1.955,5.371-1.955,5.371-1.954-5.371-1.954-5.371-5.277-1.989-5.277-1.989s5.277-1.989,5.277-1.989s1.954-5.37,1.954-5.37Z" fill="none" fill-rule="evenodd" stroke-width="0"/></g></g><g mask="url(#eZB6l7kinC0309)"><text dx="0" dy="0" font-family="&quot;Averta Demo&quot;" font-size="22" font-weight="400" transform="translate(70 74.5)" fill="#191919" stroke="#000" stroke-width="0"><tspan x="0" y="0" font-family="&quot;Averta Demo&quot;" font-size="22" font-weight="400" font-style="normal" fill="#191919" stroke="#000" stroke-width="0"><![CDATA[
velvetpaws.org
]]></tspan></text><mask id="eZB6l7kinC0309" mask-type="luminance" x="-150%" y="-150%" height="400%" width="400%"><g id="eZB6l7kinC0310_to" transform="translate(-13.0495,71.176)"><rect width="155.759" height="31.956" rx="0" ry="0" transform="translate(-77.8795,-15.978)" fill="#d2dbed" stroke-width="0"/></g></mask></g><g transform="translate(70 74.5)"><g id="eZB6l7kinC0312_to" style="offset-path:path('M-0.929,-10.153C0.104,-10.153,12.742,-10.153,16.655,-10.153C50.286,-10.153,142.12,-10.153,155.071,-10.153');offset-rotate:0deg"><g id="eZB6l7kinC0312" transform="rotate(90) translate(0,0)" opacity="0"><g><path d="M-14.832,0c0,0,29.664,0,29.664,0" paint-order="stroke fill markers" fill="none" fill-rule="evenodd" stroke="#ff2000" stroke-width="2.5"/></g></g></g></g><g id="eZB6l7kinC0315_ts" transform="translate(425,64.001) scale(1,1)"><g transform="translate(-22.373,-17.17)"><g><path id="eZB6l7kinC0317" d="M27.856,17.053c-6.07-.624-12.136-1.27-18.212-1.849-1.061-.102-1.695-.505-2.197-1.383C5.159,9.855,2.812,5.918,0.499,1.964c-.298-.511-.779-1.07-.289-1.646.512-.603,1.158-.203,1.726.012C15.773,5.575,29.61,10.822,43.444,16.079c.562.212,1.303.334,1.303,1.102s-.741.887-1.303,1.102C29.61,23.537,15.773,28.784,1.933,34.029c-.568.215-1.212.588-1.72-.024-.443-.532,0-1.06.267-1.517c2.376-4.092,4.782-8.168,7.155-12.263.436-.753,1.077-.974,1.918-1.055c5.922-.573,11.841-1.18,17.76-1.777.191-.021.383-.068.574-.104c0,0-.028-.236-.028-.236s-.003,0-.003,0Z" fill="#757575" stroke-width="0"/></g><g><path d="M27.856,17.053c-6.07-.624-12.136-1.27-18.212-1.849-1.061-.102-1.695-.505-2.197-1.383C5.159,9.855,2.812,5.918,0.499,1.964c-.298-.511-.779-1.07-.289-1.646.512-.603,1.158-.203,1.726.012C15.773,5.575,29.61,10.822,43.444,16.079c.562.212,1.303.334,1.303,1.102s-.741.887-1.303,1.102C29.61,23.537,15.773,28.784,1.933,34.029c-.568.215-1.212.588-1.72-.024-.443-.532,0-1.06.267-1.517c2.376-4.092,4.782-8.168,7.155-12.263.436-.753,1.077-.974,1.918-1.055c5.922-.573,11.841-1.18,17.76-1.777.191-.021.383-.068.574-.104c0,0-.028-.236-.028-.236s-.003,0-.003,0Z" fill="none" fill-rule="evenodd" stroke-width="0"/></g></g></g></svg>
