<svg id="enrQoUJmVcq1" xmlns="http://www.w3.org/2000/svg" xmlns:xlink="http://www.w3.org/1999/xlink" viewBox="0 0 1050 720" shape-rendering="geometricPrecision" text-rendering="geometricPrecision" project-id="211a4dc8990c4a71aa10f556e5e71858" export-id="a78ccf2d9976472095fe60b96dd142dd" cached="false" style="background-color:transparent">
<style><![CDATA[
#enrQoUJmVcq234 {animation: enrQoUJmVcq234_c_o 3370ms linear infinite normal forwards}@keyframes enrQoUJmVcq234_c_o { 0% {opacity: 0} 59.347181% {opacity: 0} 62.31454% {opacity: 1} 100% {opacity: 1}} #enrQoUJmVcq235 {animation: enrQoUJmVcq235_c_o 3370ms linear infinite normal forwards}@keyframes enrQoUJmVcq235_c_o { 0% {opacity: 0} 59.347181% {opacity: 0} 62.31454% {opacity: 1} 100% {opacity: 1}} #enrQoUJmVcq375_to {animation: enrQoUJmVcq375_to__to 3370ms linear infinite normal forwards}@keyframes enrQoUJmVcq375_to__to { 0% {offset-distance: 0%} 7.922849% {offset-distance: 0%;animation-timing-function: cubic-bezier(0.333,0,0.667,1)} 33.679525% {offset-distance: 50%;animation-timing-function: cubic-bezier(0.333,0,0.667,1)} 53.47181% {offset-distance: 100%} 100% {offset-distance: 100%}} #enrQoUJmVcq375 {animation: enrQoUJmVcq375_c_o 3370ms linear infinite normal forwards}@keyframes enrQoUJmVcq375_c_o { 0% {opacity: 0} 7.922849% {opacity: 0} 10.890208% {opacity: 1} 49.525223% {opacity: 1} 52.492582% {opacity: 0} 100% {opacity: 0}} #enrQoUJmVcq382_to {animation: enrQoUJmVcq382_to__to 3370ms linear infinite normal forwards}@keyframes enrQoUJmVcq382_to__to { 0% {offset-distance: 0%} 71.275964% {offset-distance: 0%;animation-timing-function: cubic-bezier(0.167,0.167,0,1)} 91.097923% {offset-distance: 100%} 100% {offset-distance: 100%}} #enrQoUJmVcq382 {animation-name: enrQoUJmVcq382_c_o, enrQoUJmVcq382_f_o, enrQoUJmVcq382_s_o;animation-duration: 3370ms;animation-fill-mode: forwards;animation-timing-function: linear;animation-direction: normal;animation-iteration-count: infinite;}@keyframes enrQoUJmVcq382_c_o { 0% {opacity: 0} 71.216617% {opacity: 0} 80.118694% {opacity: 1} 91.097923% {opacity: 0} 100% {opacity: 0}}@keyframes enrQoUJmVcq382_f_o { 0% {fill-opacity: 1} 84.154303% {fill-opacity: 1} 91.097923% {fill-opacity: 0} 100% {fill-opacity: 0}}@keyframes enrQoUJmVcq382_s_o { 0% {stroke-opacity: 1} 84.154303% {stroke-opacity: 1} 91.097923% {stroke-opacity: 0} 100% {stroke-opacity: 0}}
]]></style>
<g transform="translate(9.451 8.124)"><g transform="translate(515.609 380.767)"><path d="M513.092,-322.703c0,0,0,629.736,0,629.736c0,8.645-7.064,15.67-15.754,15.67c0,0-994.694,0-994.694,0-8.689,0-15.753-7.025-15.753-15.67c0,0,0-629.736,0-629.736s1026.218,0,1026.218,0" fill="#fbf6f4" stroke-width="0"/></g><g transform="translate(515.609 380.767)"><path d="M513.092,-322.703c0,0,0,629.736,0,629.736c0,8.645-7.064,15.67-15.754,15.67c0,0-994.694,0-994.694,0-8.689,0-15.753-7.025-15.753-15.67c0,0,0-629.736,0-629.736s1026.218,0,1026.218,0" paint-order="stroke fill markers" fill="none" fill-rule="evenodd" stroke="#ffdfdd" stroke-miterlimit="10"/></g><g transform="translate(515.488 31.403)"><path d="M513.141,28.563c0,0-1026.135,2.59-1026.135,2.59s-.115-42.015-.115-42.015c-.033-9.783,7.909-17.734,17.737-17.75c0,0,990.578-2.508,990.578-2.508c9.812-.033,17.804,7.886,17.82,17.668c0,0,.115,42.015.115,42.015Z" fill="#5f0b22" stroke-width="0"/></g><g transform="translate(160.153 45.581)"><path d="M1.632,-1.533c-.248-.071-.532-.177-.798-.248s-.479-.16-.674-.248c-.178-.071-.337-.177-.444-.301-.071-.107-.124-.213-.124-.355c0-.23.107-.407.284-.567.213-.159.479-.23.851-.23.284,0,.586.053.905.177s.639.301.976.585c0,0,.248.212.248.212s1.508-2.976,1.508-2.976-.231-.124-.231-.124c-.621-.337-1.277-.585-1.951-.745-1.401-.354-2.75-.336-3.796.053-.568.213-1.029.479-1.401.869-.373.39-.692.815-.905,1.329-.213.513-.302,1.098-.302,1.736s.107,1.17.302,1.613c.213.407.479.797.816,1.045.337.284.71.479,1.135.674.39.159.798.301,1.206.443.355.124.639.23.87.301.23.071.407.177.532.283.124.071.213.177.248.284.053.106.071.23.071.354c0,.23-.106.443-.302.62-.212.177-.532.284-.975.284-.408,0-.852-.107-1.277-.284-.444-.212-.905-.478-1.331-.903c0,0-.248-.213-.248-.213s-1.614,3.048-1.614,3.048.177.124.177.124c1.366.939,2.838,1.4,4.435,1.4.763,0,1.454-.107,2.075-.301.621-.195,1.153-.514,1.561-.904.443-.39.763-.851.993-1.382.231-.532.337-1.134.337-1.79c0-.975-.248-1.79-.762-2.41-.532-.585-1.331-1.081-2.413-1.453c0,0,.018,0,.018,0Z" fill="#fff" stroke-width="0"/></g><g transform="translate(169.784 45.643)"><path d="M-4.434,-3.172c0,0,2.625,0,2.625,0s0,9.516,0,9.516s3.653,0,3.653,0s0-9.516,0-9.516s2.59,0,2.59,0s0-3.172,0-3.172-8.868,0-8.868,0s0,3.172,0,3.172Z" fill="#fff" stroke-width="0"/></g><g transform="translate(204.028 45.67)"><path d="M1.551,1.213c.746-.23,1.332-.62,1.739-1.151.48-.62.711-1.436.711-2.41c0-.532-.072-1.081-.25-1.542-.176-.478-.443-.921-.797-1.276-.356-.354-.799-.673-1.332-.868-.531-.213-1.151-.301-1.879-.301c0,0-5.181,0-5.181,0s0,12.67,0,12.67s3.674,0,3.674,0s0-4.076,0-4.076s2.606,4.076,2.606,4.076s4.596,0,4.596,0-3.903-5.122-3.903-5.122.016,0,.016,0Z" fill="#fff" stroke-width="0"/><path d="M-1.783,-3.429c0,0,.338,0,.338,0c.568,0,.993.106,1.276.337.248.212.409.513.409.921s-.126.691-.409.922c-.283.23-.708.336-1.276.336c0,0-.338,0-.338,0s0-2.516,0-2.516Z" fill="#5f0b22" stroke-width="0"/></g><g transform="translate(50.769 30.236)"><path d="M2.812,-7.682c0,0-2.804,7.461-2.804,7.461s-2.783-7.461-2.783-7.461-4.241,0-4.241,0-2.606,15.364-2.606,15.364s4.38,0,4.38,0s1.153-7.815,1.153-7.815s3.051,7.815,3.051,7.815s1.899,0,1.899,0s3.228-7.833,3.228-7.833s1.171,7.833,1.171,7.833s4.362,0,4.362,0-2.606-15.364-2.606-15.364-4.204,0-4.204,0Z" fill="#fff" stroke-width="0"/></g><g transform="translate(69.075 30.218)"><path d="M-2.298,-7.663c0,0-5.871,15.362-5.871,15.362s4.683,0,4.683,0s.905-2.586.905-2.586s5.162,0,5.162,0s.905,2.586.905,2.586s4.683,0,4.683,0-5.872-15.398-5.872-15.398-4.595.018-4.595.018s0,.018,0,.018Z" fill="#fff" stroke-width="0"/><path d="M1.375,1.674c0,0-2.751,0-2.751,0s1.384-3.915,1.384-3.915s1.367,3.915,1.367,3.915Z" fill="#5f0b22" stroke-width="0"/></g><g transform="translate(84.304 30.271)"><path d="M4.009,0.044c.586-.744.87-1.718.87-2.888c0-.673-.107-1.276-.337-1.878-.213-.585-.533-1.099-.976-1.542-.444-.443-.976-.797-1.614-1.045-.639-.248-1.401-.39-2.253-.39c0,0-6.28,0-6.28,0s0,15.398,0,15.398s4.382,0,4.382,0s0-5.156,0-5.156s3.299,5.103,3.299,5.103s5.481,0,5.481,0-4.771-6.202-4.771-6.202c.922-.283,1.667-.744,2.182-1.4c0,0,.017,0,.017,0Z" fill="#fff" stroke-width="0"/><path d="M-2.199,-4.226c0,0,.478,0,.478,0c.692,0,1.225.124,1.597.408.355.248.515.637.515,1.151s-.16.904-.515,1.152c-.354.284-.905.408-1.597.408c0,0-.478,0-.478,0s0-3.119,0-3.119Z" fill="#5f0b22" stroke-width="0"/></g><g transform="translate(98.751 30.235)"><path d="M6.821,-7.682c0,0-5.464,0-5.464,0s-4.328,5.635-4.328,5.635s0-5.635,0-5.635-4.382,0-4.382,0s0,15.364,0,15.364s4.382,0,4.382,0s0-5.937,0-5.937s4.666,5.937,4.666,5.937s5.658,0,5.658,0-6.669-8.062-6.669-8.062s6.137-7.302,6.137-7.302Z" fill="#fff" stroke-width="0"/></g><g transform="translate(111.117 30.235)"><path d="M-4.497,7.681c0,0,8.994,0,8.994,0s0-3.756,0-3.756-4.613,0-4.613,0s0-2.055,0-2.055s4.365,0,4.365,0s0-3.792,0-3.792-4.365,0-4.365,0s0-1.967,0-1.967s4.613,0,4.613,0s0-3.792,0-3.792-8.994,0-8.994,0s0,15.362,0,15.362Z" fill="#fff" stroke-width="0"/></g><g transform="translate(121.751 30.235)"><path d="M-5.357,-3.89c0,0,3.14,0,3.14,0s0,11.572,0,11.572s4.399,0,4.399,0s0-11.572,0-11.572s3.175,0,3.175,0s0-3.792,0-3.792-10.714,0-10.714,0s0,3.792,0,3.792Z" fill="#fff" stroke-width="0"/></g><g transform="translate(130.061 30.253)"><path d="M2.191,-7.699c0,0-4.381,0-4.381,0s0,15.398,0,15.398s4.381,0,4.381,0s0-15.398,0-15.398Z" fill="#fff" stroke-width="0"/></g><g transform="translate(140.721 30.235)"><path d="M3.326,0.93c0,0-6.759-8.612-6.759-8.612s-4.257,0-4.257,0s0,15.364,0,15.364s4.381,0,4.381,0s0-8.594,0-8.594s6.758,8.594,6.758,8.594s4.24,0,4.24,0s0-15.364,0-15.364-4.363,0-4.363,0s0,8.612,0,8.612Z" fill="#fff" stroke-width="0"/></g><g transform="translate(156.95 30.2)"><path d="M-0.115,-1.125c0,0,0,3.509,0,3.509s3.122,0,3.122,0c-.071.283-.16.514-.284.708-.16.284-.39.479-.621.674-.248.177-.532.301-.869.39-.337.088-.692.124-1.046.124-.621,0-1.154-.107-1.597-.302s-.816-.478-1.135-.85c-.302-.355-.532-.815-.692-1.311-.16-.514-.231-1.081-.231-1.684c0-.673.107-1.276.284-1.825.178-.549.444-.992.745-1.364.302-.355.692-.674,1.136-.851.443-.213.922-.301,1.454-.301.639,0,1.224.177,1.721.478.514.337.922.869,1.224,1.631c0,0,.106.23.106.23s4.151-1.719,4.151-1.719-.124-.248-.124-.248c-.71-1.453-1.668-2.534-2.892-3.225-1.206-.691-2.607-1.046-4.204-1.046-1.224,0-2.359.213-3.352.585-.994.39-1.88.939-2.59,1.666-.709.726-1.277,1.559-1.667,2.569-.391,1.01-.586,2.109-.586,3.278c0,1.17.213,2.304.586,3.296.372.993.94,1.879,1.667,2.57.71.708,1.561,1.275,2.537,1.665.975.39,2.075.585,3.263.585.87,0,1.685-.106,2.484-.337.798-.23,1.508-.531,2.181-.939.675-.407,1.26-.939,1.739-1.559s.869-1.329,1.153-2.126c.213-.568.337-1.205.408-1.843s.106-1.383.106-2.18c0,0,0-.248,0-.248s-8.177,0-8.177,0Z" fill="#fff" stroke-width="0"/></g><g transform="translate(185.634 40.433)"><path d="M19.273,-11.323c0,0-31.201,22.646-31.201,22.646s2.625-10.26,2.625-10.26s17.685-8.594,17.685-8.594-18.874,6.007-18.874,6.007-8.78-9.799-8.78-9.799s38.545,0,38.545,0Z" fill="#f00" stroke-width="0"/></g><g transform="translate(185.624 21.163)"><path d="M-5.96,6.033c0,0,5.96-12.066,5.96-12.066s5.96,12.066,5.96,12.066-11.92,0-11.92,0Z" fill="#fff" stroke-width="0"/></g><g transform="translate(191.575 45.129)"><path d="M3.698,-6.627c0,0,2.253,13.254,2.253,13.254s-11.902-6.255-11.902-6.255s9.649-6.999,9.649-6.999Z" fill="#fff" stroke-width="0"/></g></g><g transform="matrix(1.71 0 0 1.71 359.471461 25.86194)"><g transform="translate(17.133 26.661)"><path d="M0,15.835c8.772,0,15.883-7.09,15.883-15.835s-7.111-15.835-15.883-15.835-15.883,7.09-15.883,15.835s7.111,15.835,15.883,15.835Z" fill="#fff" stroke-width="0"/></g><g transform="translate(17.133 26.661)"><path d="M0,15.835c8.772,0,15.883-7.09,15.883-15.835s-7.111-15.835-15.883-15.835-15.883,7.09-15.883,15.835s7.111,15.835,15.883,15.835Z" paint-order="stroke fill markers" fill="none" fill-rule="evenodd" stroke="#e3e3e3" stroke-width="0.5" stroke-miterlimit="10"/></g><g transform="translate(23.102 27.177)"><path d="M4.788,4.392c-.444-.212-.909-.386-1.393-.521-.028-.009-1.509-.395-2.206-.771c0,0-.057-.039-.057-.039-.145-.096-.243-.259-.243-.433c0,0,0-.917,0-.917s2.032.058,2.989-.926c0,0-1.401-.394-1.159-2.94.241-2.546-.33-4.783-2.39-4.59c0,0-.891-1.072-2.661-.387-.609.241-2.234.82-2.148,4.349.098,3.53-1.247,3.559-1.247,3.559s.706,1.003,3.047.974c0,0,0,.878,0,.878c0,.155-.076.289-.192.395.696.578,1.247,1.176,1.652,2.063.426.926.436,1.804.552,2.73c0,0,4.488,0,4.488,0c1.055-.02,1.907-.867,1.907-1.919c0,0,0-.173,0-.173-.059-.579-.416-1.09-.948-1.341c0,0,.009.009.009.009Z" fill="#4d0000" stroke-width="0"/></g><g transform="translate(13.527 26.603)"><path d="M7.738,6.76C7.361,5.564,6.713,4.813,5.736,4.071c-.01-.01-.02-.029-.03-.039-.927-.646-2.843-1.389-3.85-1.91c0,0,.02-.974.02-.974.59-.26.957-1.621,1.045-2.016.203.116.493.039.813-1.109.28-.955.116-1.262-.127-1.34c0,0-.076,0-.076,0c.038-.115.038-.203.038-.203.889-3.645-1.199-3.481-1.199-3.481-.165-.714-1.229-1.457-2.215-1.264-.977.203-3.028-.029-3.028-.029-.039.434.329.714.329.714-2.08,1.234-1.219,4.079-1.219,4.079-.329-.038-.697.165-.319,1.351.251.868.493,1.109.696,1.148.088.511.542,1.86,1.035,2.169c0,0,0,.974,0,.974-1.499.781-3.87,1.88-5.174,2.951-.349.289-.542.724-.533,1.168c0,0,0,.664,0,.664c0,.849.697,1.534,1.538,1.525c0,0,14.587-.039,14.587-.039s-.319-1.65-.319-1.65-.01,0-.01,0Z" fill="#ff3400" stroke-width="0"/></g><g transform="translate(176.415 26.236)"><path d="M0,15.835C8.772,15.835,15.883,8.746,15.883,0c0-8.745-7.111-15.835-15.883-15.835s-15.883,7.09-15.883,15.835c0,8.746,7.111,15.835,15.883,15.835Z" fill="#ff3400" stroke-width="0"/></g><g transform="translate(54.064 25.841)"><path d="M0,17.281c9.573,0,17.334-7.736,17.334-17.28c0-9.545-7.761-17.282-17.334-17.282-9.574,0-17.334,7.737-17.334,17.282c0,9.544,7.76,17.28,17.334,17.28Z" fill="#fff" stroke-width="0"/></g><g transform="translate(54.064 25.841)"><path d="M0,17.281c9.573,0,17.334-7.736,17.334-17.28c0-9.545-7.761-17.282-17.334-17.282-9.574,0-17.334,7.737-17.334,17.282c0,9.544,7.76,17.28,17.334,17.28Z" paint-order="stroke fill markers" fill="none" fill-rule="evenodd" stroke="#e3e3e3" stroke-width="0.5" stroke-miterlimit="10"/></g><g transform="translate(96.759 22.128)"><path d="M0.001,20.878c11.566,0,20.94-9.347,20.94-20.877c0-11.531-9.374-20.879-20.94-20.879s-20.942,9.348-20.942,20.879c0,11.53,9.376,20.877,20.942,20.877Z" fill="#fff" stroke-width="0"/></g><g transform="translate(96.759 22.128)"><path d="M0.001,20.878c11.566,0,20.94-9.347,20.94-20.877c0-11.531-9.374-20.879-20.94-20.879s-20.942,9.348-20.942,20.879c0,11.53,9.376,20.877,20.942,20.877Z" paint-order="stroke fill markers" fill="none" fill-rule="evenodd" stroke="#e3e3e3" stroke-width="0.5" stroke-miterlimit="10"/></g><g transform="translate(139.485 25.61)"><path d="M0,17.281c9.574,0,17.334-7.736,17.334-17.28c0-9.545-7.76-17.282-17.334-17.282-9.573,0-17.334,7.737-17.334,17.282c0,9.544,7.761,17.28,17.334,17.28Z" fill="#fff" stroke-width="0"/></g><g transform="translate(139.485 25.61)"><path d="M0,17.281c9.574,0,17.334-7.736,17.334-17.28c0-9.545-7.76-17.282-17.334-17.282-9.573,0-17.334,7.737-17.334,17.282c0,9.544,7.761,17.28,17.334,17.28Z" paint-order="stroke fill markers" fill="none" fill-rule="evenodd" stroke="#e3e3e3" stroke-width="0.5" stroke-miterlimit="10"/></g><g transform="translate(52.439 22.365)"><path d="M9.431,-5.888c0,0-18.484,7.996-18.484,7.996-.368.163-.377.675-.029.867c0,0,5.34,2.913,5.34,2.913s13.173-11.776,13.173-11.776Z" fill="#ff3400" stroke-width="0"/></g><g transform="translate(56.27 25.745)"><path d="M-6.297,3.674c0,0,11.974-12.865,11.974-12.865.242-.26.668-.029.59.319c0,0-4.063,17.214-4.063,17.214-.106.443-.609.655-1.005.424c0,0-3.715-2.209-3.715-2.209-.077-.048-.172-.029-.23.029c0,0-2.439,2.44-2.439,2.44-.427.425-1.15.126-1.16-.472c0,0,0-4.755,0-4.755s0-.096.038-.125c0,0,.01,0,.01,0Z" fill="#4d0000" stroke-width="0"/></g><g transform="translate(176.408 20.854)"><path d="M7.793,-1.477c0,0-15.593.041-15.593.041-.507.001-.918.412-.916.918c0,0,.002,1.081.002,1.081.001.505.415.915.921.913c0,0,15.594-.041,15.594-.041.506-.001.917-.412.915-.918c0,0-.002-1.08-.002-1.08-.001-.506-.414-.915-.921-.914Z" fill="#fff" stroke-width="0"/></g><g transform="translate(182.381 20.829)"><path d="M1.361,-3.042c0,0-2.738.008-2.738.008s.018,6.076.018,6.076s2.736-.008,2.736-.008-.016-6.076-.016-6.076Z" fill="#fff" stroke-width="0"/></g><g transform="translate(182.424 20.829)"><path d="M0.786,-3.04c0,0-1.587.004-1.587.004s.016,6.076.016,6.076s1.586-.005,1.586-.005-.015-6.075-.015-6.075Z" fill="#ff3400" stroke-width="0"/></g><g transform="translate(176.414 26.93)"><path d="M7.793,-1.477c0,0-15.593.041-15.593.041-.507.001-.918.412-.916.918c0,0,.002,1.081.002,1.081.001.505.414.915.921.913c0,0,15.593-.041,15.593-.041.507-.001.918-.412.916-.918c0,0-.002-1.08-.002-1.08-.001-.506-.414-.915-.921-.914Z" fill="#fff" stroke-width="0"/></g><g transform="translate(176.264 26.882)"><path d="M1.361,-3.042c0,0-2.738.008-2.738.008s.016,6.076.016,6.076s2.738-.008,2.738-.008-.016-6.076-.016-6.076Z" fill="#fff" stroke-width="0"/></g><g transform="translate(176.259 26.93)"><path d="M0.786,-3.04c0,0-1.587.004-1.587.004s.016,6.076.016,6.076s1.586-.005,1.586-.005-.015-6.075-.015-6.075Z" fill="#ff3400" stroke-width="0"/></g><g transform="translate(176.43 33.005)"><path d="M7.792,-1.477c0,0-15.592.041-15.592.041-.508.001-.918.412-.917.918c0,0,.003,1.08.003,1.08.001.506.414.916.921.914c0,0,15.593-.041,15.593-.041.507-.001.918-.412.916-.918c0,0-.003-1.08-.003-1.08-.001-.506-.413-.915-.921-.914Z" fill="#fff" stroke-width="0"/></g><g transform="translate(170.563 32.992)"><path d="M1.361,-3.042c0,0-2.738.008-2.738.008s.016,6.076.016,6.076s2.738-.008,2.738-.008-.016-6.076-.016-6.076Z" fill="#fff" stroke-width="0"/></g><g transform="translate(170.5 33.021)"><path d="M0.786,-3.04c0,0-1.587.004-1.587.004s.016,6.076.016,6.076s1.586-.005,1.586-.005-.015-6.075-.015-6.075Z" fill="#ff3400" stroke-width="0"/></g><g transform="translate(102.685 10.03)"><path d="M-2.52,1.808c0,0,2.206-3.231,2.206-3.231s2.273-2.025,2.554-.626c.28,1.398.067,2.016.067,2.016s-1.644,3.48-1.644,3.48-1.838-1.359-3.183-1.639Z" fill="#fff" stroke-width="0"/></g><g transform="translate(96.765 16.468)"><path d="M-10.586,7.57c-.184-.781-.271-1.59-.271-2.4-.02-5.97,4.846-10.84,10.834-10.859c5.987-.019,10.872,4.83,10.891,10.8c0,.733-.068,1.466-.212,2.189-.068.347-.165.685-.262,1.013c0,0,2.766,0,2.766,0c.04-.164.088-.328.116-.483.184-.887.271-1.803.271-2.719-.019-7.445-6.113-13.482-13.57-13.463-7.459.02-13.524,6.095-13.504,13.53c0,1.013.116,2.017.339,2.991.019.067.038.134.058.201c0,0,2.775,0,2.775,0-.076-.27-.154-.53-.222-.8c0,0-.009,0-.009,0Z" fill="#4d0000" stroke-width="0"/></g><g transform="translate(96.776 25.297)"><path d="M-10.026,0.525c0,0,20.033-.057,20.033-.057.135-.328.26-.656.367-.993c0,0-20.748.058-20.748.058.107.337.223.674.358.992c0,0-.01,0-.01,0Z" fill="#fff" stroke-width="0"/></g><g transform="translate(83.272 25.335)"><path d="M-0.614,-0.497c0,0,0,.994,0,.994s1.238,0,1.238,0c-.106-.328-.194-.656-.281-.994c0,0-.967,0-.967,0s.01,0,.01,0Z" fill="#fff" stroke-width="0"/></g><g transform="translate(110.462 25.258)"><path d="M0.828,-0.497c0,0-1.375,0-1.375,0-.078.338-.174.676-.281.994c0,0,1.656,0,1.656,0s0-.994,0-.994Z" fill="#fff" stroke-width="0"/></g><g transform="translate(85.192 25.33)"><path d="M1.209,-0.502c0,0-2.776,0-2.776,0c.087.347.174.676.28,1.004c0,0,2.854,0,2.854,0-.136-.328-.252-.666-.358-1.004Z" fill="#fff" stroke-width="0"/></g><g transform="translate(108.35 25.263)"><path d="M-1.2,-0.492c-.106.338-.232.675-.367.993c0,0,2.853,0,2.853,0c.106-.337.193-.664.281-1.002c0,0-2.767,0-2.767,0s0,.009,0,.009Z" fill="#fff" stroke-width="0"/></g><g transform="translate(103.366 11.145)"><path d="M-3.791,1.658c0,0,3.473-5.102,3.473-5.102s4.109-.192,2.998,2.103C1.567,0.964,0.455,3.635,0.455,3.635s-2.061-1.919-4.237-1.977c0,0-.009,0-.009,0Z" fill="#fff" stroke-width="0"/></g><g transform="translate(99.517 16.921)"><path d="M-1.345,7.368c0,0,7.07-15.208,7.07-15.208.156-.309,0-.781-.319-.935-.319-.155-.783-.078-1.015.241c0,0-9.731,13.655-9.731,13.655s0,.077,0,.077c-.464.781-.541,1.64-.145,2.334.155.309.474.617.784.858.551.386,1.17.54,1.721.386.63-.232,1.248-.704,1.635-1.408Z" fill="#f00" stroke-width="0"/></g><g transform="translate(132.45 31.567)"><path d="M0.994,-2.732c0,0-2.002.005-2.002.005-.337.001-.609.274-.608.609c0,0,.011,4.244.011,4.244.001.335.274.606.611.605c0,0,2.002-.005,2.002-.005.337-.001.609-.272.608-.608c0,0-.011-4.244-.011-4.244-.001-.336-.274-.607-.611-.606Z" fill="#4d0000" stroke-width="0"/></g><g transform="translate(138.818 28.932)"><path d="M0.988,-5.341c0,0-2.002.005-2.002.005-.337.001-.61.274-.61.609c0,0,.025,9.461.025,9.461.002.335.276.607.612.606c0,0,2.001-.004,2.001-.004.337-.001.61-.275.61-.611c0,0-.025-9.459-.025-9.459-.001-.335-.274-.608-.611-.607Z" fill="#4d0000" stroke-width="0"/></g><g transform="translate(145.192 25.622)"><path d="M0.978,-8.643c0,0-2.002.005-2.002.005-.337.001-.609.274-.608.609c0,0,.043,16.067.043,16.067c0,.335.274.606.611.605c0,0,2.002-.005,2.002-.005.337-.001.609-.273.608-.609c0,0-.042-16.066-.042-16.066-.001-.336-.275-.607-.612-.606Z" fill="#ff3400" stroke-width="0"/></g></g><g transform="matrix(1.71 0 0 1.71 478.04667 197.54132)"><g transform="translate(117.623 43.308)"><path d="M-113.546,-43.058c0,0,227.091,0,227.091,0c2.114,0,3.828,1.714,3.828,3.827c0,0,0,78.462,0,78.462c0,2.114-1.714,3.827-3.828,3.827c0,0-227.091,0-227.091,0-2.114,0-3.827-1.713-3.827-3.827c0,0,0-78.462,0-78.462c0-2.113,1.713-3.827,3.827-3.827Z" fill="#fff" stroke-width="0"/></g><g transform="translate(117.638 26.833)"><path d="M-106.44,-19.232c0,0,212.88,0,212.88,0c1.761,0,3.189,1.428,3.189,3.189c0,0,0,32.085,0,32.085c0,1.762-1.428,3.19-3.189,3.19c0,0-212.88,0-212.88,0-1.762,0-3.189-1.428-3.189-3.19c0,0,0-32.085,0-32.085c0-1.761,1.427-3.189,3.189-3.189Z" fill="#ffe7e0" stroke="#f19175" stroke-opacity="0" stroke-dasharray="6"/></g><g transform="translate(221.585 65.257)"><path d="M3.323,-5.683c0,0-6.646,0-6.646,0-1.327,0-2.404,1.077-2.404,2.406c0,0,0,6.555,0,6.555c0,1.329,1.077,2.405,2.404,2.405c0,0,6.646,0,6.646,0c1.327,0,2.404-1.076,2.404-2.405c0,0,0-6.555,0-6.555c0-1.329-1.077-2.406-2.404-2.406Z" fill="#37ca00" stroke-width="0"/></g><g transform="translate(-.25 0)"><path d="M221.983,68.58c0,0,0-5.702,0-5.702" paint-order="stroke fill markers" fill="none" fill-rule="evenodd" stroke="#fff" stroke-miterlimit="10"/></g><g transform="translate(221.732 63.845)"><path d="M2.094,1.047c0,0-2.094-2.094-2.094-2.094s-2.094,2.094-2.094,2.094" paint-order="stroke fill markers" fill="none" fill-rule="evenodd" stroke="#fff" stroke-miterlimit="10"/></g><g transform="translate(85.368 27.613)"><path d="M-28.179,4.612c-.498,0-.972-.061-1.42-.185-.455-.125-.872-.313-1.259-.569-.386-.255-.716-.559-.996-.92-.287-.361-.505-.785-.661-1.284-.162-.498-.236-1.035-.236-1.62c0-.517.062-1.008.186-1.475.125-.468.318-.897.58-1.284.255-.386.567-.716.928-1.003.361-.286.785-.505,1.277-.667.492-.156,1.028-.237,1.601-.237.654,0,1.296.143,1.919.43.623.286,1.177.723,1.65,1.309c0,0-1.133.958-1.133.958-.305-.374-.673-.678-1.097-.902-.423-.224-.872-.336-1.339-.336-.586,0-1.096.136-1.545.397-.448.268-.797.643-1.046,1.129-.25.486-.374,1.045-.374,1.681c0,.61.124,1.16.38,1.633.249.473.604.84,1.053,1.101.448.262.959.393,1.532.393.486,0,.941-.105,1.358-.329.411-.225.773-.524,1.078-.904c0,0,1.133.965,1.133.965-.417.523-.928.942-1.532,1.254-.604.311-1.283.465-2.037.465Z" stroke-width="0"/><path d="M-20.374,4.632c-.486,0-.928-.082-1.339-.244s-.76-.38-1.04-.667c-.281-.286-.499-.621-.654-1.02-.162-.392-.237-.816-.237-1.271c0-.61.131-1.16.399-1.645.268-.486.654-.866,1.152-1.146.499-.281,1.071-.424,1.719-.424.629,0,1.19.138,1.689.405.492.268.878.648,1.158,1.134.275.491.418,1.053.418,1.676s-.143,1.183-.418,1.669c-.28.486-.666.866-1.164,1.134-.499.268-1.059.399-1.683.399Z" stroke-width="0"/><path d="M-20.374,3.336c.511,0,.941-.174,1.29-.535s.523-.816.523-1.371c0-.56-.174-1.022-.517-1.383-.349-.355-.778-.535-1.296-.535-.542,0-.977.186-1.314.548-.336.367-.505.822-.505,1.37c0,.542.169.997.511,1.358.343.368.779.548,1.308.548Z" fill="#ffe7e0" stroke-width="0"/><path d="M-12.082,-1.785c.71,0,1.271.219,1.676.655s.61,1.103.61,2c0,0,0,3.669,0,3.669s-1.426,0-1.426,0s0-3.302,0-3.302c0-.324-.032-.599-.088-.823-.062-.225-.149-.399-.268-.53-.124-.13-.261-.223-.423-.285-.162-.056-.349-.087-.573-.087-.243,0-.461.042-.661.123-.199.087-.373.205-.51.362-.144.162-.256.362-.331.598-.074.243-.112.511-.112.81c0,0,0,3.126,0,3.126s-1.426,0-1.426,0s0-6.222,0-6.222s1.426,0,1.426,0s0,.854,0,.854.019,0,.019,0c.262-.305.573-.544.934-.705.362-.162.742-.243,1.153-.243Z" stroke-width="0"/><path d="M-4.183,-1.691c0,0,1.539,0,1.539,0s-2.467,6.222-2.467,6.222-1.365,0-1.365,0-2.479-6.222-2.479-6.222s1.526,0,1.526,0s1.626,4.434,1.626,4.434.025,0,.025,0s1.595-4.434,1.595-4.434Z" stroke-width="0"/><path d="M3.84,1.349c0,.231-.012.417-.037.566c0,0-4.535,0-4.535,0c.087.443.293.792.61,1.041.318.256.705.38,1.165.38.642,0,1.159-.243,1.552-.734c0,0,.996.852.996.852-.286.361-.647.649-1.09.86-.442.212-.953.318-1.532.318-.604,0-1.147-.131-1.626-.392-.486-.262-.866-.636-1.14-1.128-.28-.492-.418-1.059-.418-1.694c0-.467.075-.904.231-1.302.15-.399.361-.736.635-1.017.268-.274.592-.491.966-.646.374-.156.772-.238,1.202-.238.598,0,1.134.138,1.595.405.461.275.81.641,1.059,1.114.243.474.367,1.017.367,1.615Z" stroke-width="0"/><path d="M0.894,-0.488c-.399,0-.735.111-1.022.328-.286.219-.48.524-.579.923c0,0,3.115,0,3.115,0-.063-.25-.162-.468-.293-.655s-.299-.33-.511-.435c-.212-.106-.448-.161-.71-.161Z" fill="#ffe7e0" stroke-width="0"/><path d="M8.699,-1.785c.081,0,.137.006.175.006c0,0,0,1.589,0,1.589-.162-.013-.305-.018-.43-.018-.355,0-.66.08-.922.235-.262.162-.454.374-.585.642-.132.268-.193.573-.193.91c0,0,0,2.952,0,2.952s-1.427,0-1.427,0s0-6.222,0-6.222s1.427,0,1.427,0s0,.934,0,.934.018,0,.018,0c.243-.331.529-.586.866-.76.336-.175.692-.268,1.071-.268Z" stroke-width="0"/><path d="M12.057,4.632c-.99,0-1.831-.3-2.516-.911c0,0,.722-1.07.722-1.07.249.255.517.441.804.56.286.118.616.174.99.174.268,0,.48-.056.636-.168.155-.112.236-.254.236-.441c0-.15-.093-.268-.268-.368-.174-.099-.498-.23-.966-.392-.186-.063-.354-.126-.498-.188-.149-.062-.299-.13-.448-.217-.149-.088-.28-.182-.386-.288-.112-.1-.212-.218-.299-.348-.088-.131-.156-.281-.2-.449-.05-.162-.068-.349-.068-.548c0-.505.205-.922.617-1.258.41-.337.94-.505,1.575-.505.823,0,1.558.262,2.206.778c0,0-.717,1.123-.717,1.123-.161-.15-.336-.276-.523-.375-.187-.1-.361-.174-.529-.224-.175-.044-.343-.069-.511-.069s-.324.051-.467.138c-.144.094-.212.224-.212.398c0,.099.043.201.131.287.087.088.193.169.329.237.132.075.306.15.531.237.66.262,1.071.436,1.233.517.411.225.679.491.81.803.074.199.111.423.111.678c0,.268-.049.519-.142.743-.1.224-.237.422-.424.597-.187.174-.43.305-.729.405s-.642.144-1.028.144Z" stroke-width="0"/><path d="M16.611,-2.62c-.274,0-.499-.086-.686-.273s-.28-.411-.28-.673c0-.261.093-.48.28-.667s.412-.28.686-.28c.262,0,.486.093.672.28.187.187.287.412.287.667c0,.175-.043.33-.131.474-.087.149-.205.261-.355.349-.149.086-.305.123-.473.123Z" stroke-width="0"/><path d="" stroke-width="0"/><path d="M15.888,-1.691c0,0,1.426,0,1.426,0s0,6.222,0,6.222-1.426,0-1.426,0s0-6.222,0-6.222Z" stroke-width="0"/><path d="M22.174,4.632c-.486,0-.929-.082-1.339-.244-.412-.162-.761-.38-1.041-.667-.28-.286-.498-.621-.654-1.02-.162-.392-.237-.816-.237-1.271c0-.61.131-1.16.399-1.645.268-.486.654-.866,1.152-1.146.499-.281,1.072-.424,1.72-.424.629,0,1.189.138,1.688.405.492.268.878.648,1.159,1.134.274.491.417,1.053.417,1.676s-.143,1.183-.417,1.669c-.281.486-.667.866-1.165,1.134s-1.059.399-1.682.399Z" stroke-width="0"/><path d="M22.174,3.336c.511,0,.941-.174,1.289-.535.349-.361.524-.816.524-1.371c0-.56-.175-1.022-.517-1.383-.349-.355-.779-.535-1.296-.535-.542,0-.978.186-1.314.548-.337.367-.505.822-.505,1.37c0,.542.168.997.51,1.358.343.368.779.548,1.309.548Z" fill="#ffe7e0" stroke-width="0"/><path d="M30.465,-1.785c.711,0,1.271.219,1.676.655s.61,1.103.61,2c0,0,0,3.669,0,3.669s-1.426,0-1.426,0s0-3.302,0-3.302c0-.324-.031-.599-.088-.823-.061-.225-.149-.399-.267-.53-.125-.13-.262-.223-.424-.285-.162-.056-.349-.087-.573-.087-.243,0-.461.042-.66.123-.2.087-.374.205-.511.362-.144.162-.255.362-.33.598-.075.243-.112.511-.112.81c0,0,0,3.126,0,3.126s-1.427,0-1.427,0s0-6.222,0-6.222s1.427,0,1.427,0s0,.854,0,.854.018,0,.018,0c.262-.305.573-.544.935-.705.361-.162.741-.243,1.152-.243Z" stroke-width="0"/></g><g transform="translate(201.024 64.869)"><path d="M-8.946,4.275c0,0,0-6.673,0-6.673s-1.467,1.097-1.467,1.097-.829-1.288-.829-1.288s2.653-1.901,2.653-1.901s1.391,0,1.391,0s0,8.765,0,8.765-1.748,0-1.748,0Z" fill="#ff3e00" stroke-width="0"/><path d="M-2.514,-4.592c.918,0,1.675.326,2.271.981.595.646.893,1.493.893,2.539c0,1.429-.434,2.667-1.301,3.714-.868,1.037-1.995,1.687-3.381,1.95c0,0-.511-1.402-.511-1.402c1.642-.451,2.709-1.267,3.203-2.449c0,0-.013-.013-.013-.013-.494.272-1.038.407-1.634.407-.756,0-1.39-.25-1.9-.752s-.766-1.186-.766-2.054c0-.859.298-1.561.893-2.105.596-.544,1.344-.816,2.246-.816Z" fill="#ff3e00" stroke-width="0"/><path d="M-3.956,-1.645c0,.391.128.71.383.957s.603.37,1.046.37c.587,0,1.093-.261,1.518-.78c0,0,0-.113,0-.113c0-.545-.14-.983-.421-1.314-.28-.332-.634-.498-1.059-.498-.433,0-.787.136-1.058.408-.273.264-.409.587-.409.97Z" fill="#fff" stroke-width="0"/><path d="M5.352,4.509c0,0-1-.428-1-.428s3.215-7.206,3.215-7.206s1,.428,1,.428-3.215,7.206-3.215,7.206Z" fill="#ff3e00" stroke-width="0"/><path d="M3.699,1.009c-.579,0-1.065-.191-1.46-.572-.394-.381-.591-.871-.591-1.47c0-.564.19-1.041.571-1.429.388-.395.881-.593,1.48-.593.585,0,1.075.188,1.47.563.395.374.592.86.592,1.459c0,.572-.194,1.055-.582,1.45-.381.394-.875.592-1.48.592Z" fill="#ff3e00" stroke-width="0"/><path d="M3.709,0.059c.299,0,.541-.102.725-.306.191-.211.286-.469.286-.776c0-.313-.099-.568-.296-.765-.191-.204-.429-.306-.715-.306-.293,0-.534.104-.724.315-.184.204-.276.457-.276.756c0,.314.095.572.286.776.197.204.435.306.714.306Z" fill="#fff" stroke-width="0"/><path d="M9.18,4.355c-.572,0-1.058-.187-1.46-.561-.395-.381-.592-.87-.592-1.469c0-.564.191-1.045.572-1.44.388-.395.881-.591,1.48-.591.585,0,1.075.191,1.47.572.394.374.592.86.592,1.459c0,.572-.191,1.054-.572,1.448-.381.388-.878.582-1.49.582Z" fill="#ff3e00" stroke-width="0"/><path d="M9.19,3.406c.299,0,.541-.102.725-.306.19-.211.285-.465.285-.765c0-.313-.098-.568-.296-.765-.19-.204-.428-.306-.714-.306-.293,0-.534.104-.725.315-.183.204-.275.457-.275.756c0,.314.095.572.286.776.197.197.435.295.714.295Z" fill="#fff" stroke-width="0"/></g><g transform="translate(29.274 27.361)"><path d="M0,-15.629c8.631,0,15.628,6.998,15.628,15.629C15.628,8.632,8.631,15.629,0,15.629s-15.628-6.997-15.628-15.629c0-8.631,6.997-15.629,15.628-15.629Z" fill="#ff3e00" stroke-width="0"/></g><g transform="translate(29.243 27.152)"><path d="M-3.213,2.367c0,.693.307,1.253.912,1.692.605.438,1.411.658,2.402.658.929,0,1.674-.211,2.253-.623s.859-.964.859-1.64c0-.438-.096-.814-.289-1.121-.193-.306-.5-.569-.921-.789-.421-.219-1.008-.413-1.736-.579-1.104-.228-2.112-.683-2.542-1.033-.43-.36-.649-.852-.649-1.474c0-.623.272-1.148.824-1.56.553-.412,1.263-.615,2.139-.615.956,0,1.719.22,2.297.667.579.447.868,1.043.868,1.797" paint-order="stroke fill markers" fill="none" fill-rule="evenodd" stroke="#fff" stroke-miterlimit="10"/></g><g><path d="M29.239,34.368c0,0,0-1.087,0-1.087s0-1.368,0-1.368" paint-order="stroke fill markers" fill="none" fill-rule="evenodd" stroke="#fff" stroke-miterlimit="10"/></g><g><path d="M29.239,22.367c0,0,0-1.052,0-1.052s0-1.701,0-1.701" paint-order="stroke fill markers" fill="none" fill-rule="evenodd" stroke="#fff" stroke-miterlimit="10"/></g><g transform="translate(26.798 24.383)"><path d="M-6.921,8.398c-.175-.281-.334-.569-.483-.867-.745-1.481-1.157-3.156-1.157-4.918c0-6.084,4.927-11.011,11.002-11.011c2.262,0,4.367.684,6.12,1.859" paint-order="stroke fill markers" fill="none" fill-rule="evenodd" stroke="#fff" stroke-miterlimit="10"/></g><g transform="translate(31 28.661)"><path d="M6.146,-9.328c1.92,1.981,3.103,4.682,3.103,7.653c0,6.076-4.926,11.003-11.002,11.003-2.446,0-4.7-.798-6.532-2.148-.333-.245-.657-.517-.964-.798" paint-order="stroke fill markers" fill="none" fill-rule="evenodd" stroke="#fff" stroke-miterlimit="10"/></g><g transform="translate(34.174 16.896)"><path d="M0.86,-1.789c0,0,.621,2.956.621,2.956s-2.962.622-2.962.622" paint-order="stroke fill markers" fill="none" fill-rule="evenodd" stroke="#fff" stroke-miterlimit="10"/></g><g transform="translate(22.836 35.941)"><path d="M-0.863,1.784c0,0-.614-2.955-.614-2.955s2.954-.613,2.954-.613" paint-order="stroke fill markers" fill="none" fill-rule="evenodd" stroke="#fff" stroke-miterlimit="10"/></g></g><g transform="matrix(1.71 0 0 1.71 359.47246 25.86194)"><g transform="translate(17.133 26.661)"><path d="M0,15.835c8.772,0,15.883-7.09,15.883-15.835s-7.111-15.835-15.883-15.835-15.883,7.09-15.883,15.835s7.111,15.835,15.883,15.835Z" fill="#fff" stroke-width="0"/></g><g transform="translate(17.133 26.661)"><path d="M0,15.835c8.772,0,15.883-7.09,15.883-15.835s-7.111-15.835-15.883-15.835-15.883,7.09-15.883,15.835s7.111,15.835,15.883,15.835Z" paint-order="stroke fill markers" fill="none" fill-rule="evenodd" stroke="#971c00" stroke-width="0.5" stroke-miterlimit="10"/></g><g transform="translate(23.102 27.177)"><path d="M4.788,4.392c-.444-.212-.909-.386-1.393-.521-.028-.009-1.509-.395-2.206-.771c0,0-.057-.039-.057-.039-.145-.096-.243-.259-.243-.433c0,0,0-.917,0-.917s2.032.058,2.989-.926c0,0-1.401-.394-1.159-2.94.241-2.546-.33-4.783-2.39-4.59c0,0-.891-1.072-2.661-.387-.609.241-2.234.82-2.148,4.349.098,3.53-1.247,3.559-1.247,3.559s.706,1.003,3.047.974c0,0,0,.878,0,.878c0,.155-.076.289-.192.395.696.578,1.247,1.176,1.652,2.063.426.926.436,1.804.552,2.73c0,0,4.488,0,4.488,0c1.055-.02,1.907-.867,1.907-1.919c0,0,0-.173,0-.173-.059-.579-.416-1.09-.948-1.341c0,0,.009.009.009.009Z" fill="#4d0000" stroke-width="0"/></g><g transform="translate(13.527 26.603)"><path d="M7.738,6.76C7.361,5.564,6.713,4.813,5.736,4.071c-.01-.01-.02-.029-.03-.039-.927-.646-2.843-1.389-3.85-1.91c0,0,.02-.974.02-.974.59-.26.957-1.621,1.045-2.016.203.116.493.039.813-1.109.28-.955.116-1.262-.127-1.34c0,0-.076,0-.076,0c.038-.115.038-.203.038-.203.889-3.645-1.199-3.481-1.199-3.481-.165-.714-1.229-1.457-2.215-1.264-.977.203-3.028-.029-3.028-.029-.039.434.329.714.329.714-2.08,1.234-1.219,4.079-1.219,4.079-.329-.038-.697.165-.319,1.351.251.868.493,1.109.696,1.148.088.511.542,1.86,1.035,2.169c0,0,0,.974,0,.974-1.499.781-3.87,1.88-5.174,2.951-.349.289-.542.724-.533,1.168c0,0,0,.664,0,.664c0,.849.697,1.534,1.538,1.525c0,0,14.587-.039,14.587-.039s-.319-1.65-.319-1.65-.01,0-.01,0Z" fill="#ff1300" stroke-width="0"/></g><g transform="translate(176.415 26.236)"><path d="M0,15.835C8.772,15.835,15.883,8.746,15.883,0c0-8.745-7.111-15.835-15.883-15.835s-15.883,7.09-15.883,15.835c0,8.746,7.111,15.835,15.883,15.835Z" fill="#ff1300" stroke-width="0"/></g><g transform="translate(54.064 25.841)"><path d="M0,17.281c9.573,0,17.334-7.736,17.334-17.28c0-9.545-7.761-17.282-17.334-17.282-9.574,0-17.334,7.737-17.334,17.282c0,9.544,7.76,17.28,17.334,17.28Z" fill="#fff" stroke-width="0"/></g><g transform="translate(54.064 25.841)"><path d="M0,17.281c9.573,0,17.334-7.736,17.334-17.28c0-9.545-7.761-17.282-17.334-17.282-9.574,0-17.334,7.737-17.334,17.282c0,9.544,7.76,17.28,17.334,17.28Z" paint-order="stroke fill markers" fill="none" fill-rule="evenodd" stroke="#971c00" stroke-width="0.5" stroke-miterlimit="10"/></g><g transform="translate(96.759 22.128)"><path d="M0.001,20.878c11.566,0,20.94-9.347,20.94-20.877c0-11.531-9.374-20.879-20.94-20.879s-20.942,9.348-20.942,20.879c0,11.53,9.376,20.877,20.942,20.877Z" fill="#fff" stroke-width="0"/></g><g transform="translate(96.759 22.128)"><path d="M0.001,20.878c11.566,0,20.94-9.347,20.94-20.877c0-11.531-9.374-20.879-20.94-20.879s-20.942,9.348-20.942,20.879c0,11.53,9.376,20.877,20.942,20.877Z" paint-order="stroke fill markers" fill="none" fill-rule="evenodd" stroke="#971c00" stroke-width="0.5" stroke-miterlimit="10"/></g><g transform="translate(139.485 25.61)"><path d="M0,17.281c9.574,0,17.334-7.736,17.334-17.28c0-9.545-7.76-17.282-17.334-17.282-9.573,0-17.334,7.737-17.334,17.282c0,9.544,7.761,17.28,17.334,17.28Z" fill="#fff" stroke-width="0"/></g><g transform="translate(139.485 25.61)"><path d="M0,17.281c9.574,0,17.334-7.736,17.334-17.28c0-9.545-7.76-17.282-17.334-17.282-9.573,0-17.334,7.737-17.334,17.282c0,9.544,7.761,17.28,17.334,17.28Z" paint-order="stroke fill markers" fill="none" fill-rule="evenodd" stroke="#971c00" stroke-width="0.5" stroke-miterlimit="10"/></g><g transform="translate(52.439 22.365)"><path d="M9.431,-5.888c0,0-18.484,7.996-18.484,7.996-.368.163-.377.675-.029.867c0,0,5.34,2.913,5.34,2.913s13.173-11.776,13.173-11.776Z" fill="#ff1300" stroke-width="0"/></g><g transform="translate(56.27 25.745)"><path d="M-6.297,3.674c0,0,11.974-12.865,11.974-12.865.242-.26.668-.029.59.319c0,0-4.063,17.214-4.063,17.214-.106.443-.609.655-1.005.424c0,0-3.715-2.209-3.715-2.209-.077-.048-.172-.029-.23.029c0,0-2.439,2.44-2.439,2.44-.427.425-1.15.126-1.16-.472c0,0,0-4.755,0-4.755s0-.096.038-.125c0,0,.01,0,.01,0Z" fill="#4d0000" stroke-width="0"/></g><g transform="translate(176.408 20.854)"><path d="M7.793,-1.477c0,0-15.593.041-15.593.041-.507.001-.918.412-.916.918c0,0,.002,1.081.002,1.081.001.505.415.915.921.913c0,0,15.594-.041,15.594-.041.506-.001.917-.412.915-.918c0,0-.002-1.08-.002-1.08-.001-.506-.414-.915-.921-.914Z" fill="#fff" stroke-width="0"/></g><g transform="translate(182.381 20.829)"><path d="M1.361,-3.042c0,0-2.738.008-2.738.008s.018,6.076.018,6.076s2.736-.008,2.736-.008-.016-6.076-.016-6.076Z" fill="#fff" stroke-width="0"/></g><g transform="translate(182.424 20.829)"><path d="M0.786,-3.04c0,0-1.587.004-1.587.004s.016,6.076.016,6.076s1.586-.005,1.586-.005-.015-6.075-.015-6.075Z" fill="#ff3400" stroke-width="0"/></g><g transform="translate(176.414 26.93)"><path d="M7.793,-1.477c0,0-15.593.041-15.593.041-.507.001-.918.412-.916.918c0,0,.002,1.081.002,1.081.001.505.414.915.921.913c0,0,15.593-.041,15.593-.041.507-.001.918-.412.916-.918c0,0-.002-1.08-.002-1.08-.001-.506-.414-.915-.921-.914Z" fill="#fff" stroke-width="0"/></g><g transform="translate(176.264 26.882)"><path d="M1.361,-3.042c0,0-2.738.008-2.738.008s.016,6.076.016,6.076s2.738-.008,2.738-.008-.016-6.076-.016-6.076Z" fill="#fff" stroke-width="0"/></g><g transform="translate(176.259 26.93)"><path d="M0.786,-3.04c0,0-1.587.004-1.587.004s.016,6.076.016,6.076s1.586-.005,1.586-.005-.015-6.075-.015-6.075Z" fill="#ff3400" stroke-width="0"/></g><g transform="translate(176.43 33.005)"><path d="M7.792,-1.477c0,0-15.592.041-15.592.041-.508.001-.918.412-.917.918c0,0,.003,1.08.003,1.08.001.506.414.916.921.914c0,0,15.593-.041,15.593-.041.507-.001.918-.412.916-.918c0,0-.003-1.08-.003-1.08-.001-.506-.413-.915-.921-.914Z" fill="#fff" stroke-width="0"/></g><g transform="translate(170.563 32.992)"><path d="M1.361,-3.042c0,0-2.738.008-2.738.008s.016,6.076.016,6.076s2.738-.008,2.738-.008-.016-6.076-.016-6.076Z" fill="#fff" stroke-width="0"/></g><g transform="translate(170.5 33.021)"><path d="M0.786,-3.04c0,0-1.587.004-1.587.004s.016,6.076.016,6.076s1.586-.005,1.586-.005-.015-6.075-.015-6.075Z" fill="#ff3400" stroke-width="0"/></g><g transform="translate(102.685 10.03)"><path d="M-2.52,1.808c0,0,2.206-3.231,2.206-3.231s2.273-2.025,2.554-.626c.28,1.398.067,2.016.067,2.016s-1.644,3.48-1.644,3.48-1.838-1.359-3.183-1.639Z" fill="#fff" stroke-width="0"/></g><g transform="translate(96.765 16.468)"><path d="M-10.586,7.57c-.184-.781-.271-1.59-.271-2.4-.02-5.97,4.846-10.84,10.834-10.859c5.987-.019,10.872,4.83,10.891,10.8c0,.733-.068,1.466-.212,2.189-.068.347-.165.685-.262,1.013c0,0,2.766,0,2.766,0c.04-.164.088-.328.116-.483.184-.887.271-1.803.271-2.719-.019-7.445-6.113-13.482-13.57-13.463-7.459.02-13.524,6.095-13.504,13.53c0,1.013.116,2.017.339,2.991.019.067.038.134.058.201c0,0,2.775,0,2.775,0-.076-.27-.154-.53-.222-.8c0,0-.009,0-.009,0Z" fill="#4d0000" stroke-width="0"/></g><g transform="translate(96.776 25.297)"><path d="M-10.026,0.525c0,0,20.033-.057,20.033-.057.135-.328.26-.656.367-.993c0,0-20.748.058-20.748.058.107.337.223.674.358.992c0,0-.01,0-.01,0Z" fill="#fff" stroke-width="0"/></g><g transform="translate(83.272 25.335)"><path d="M-0.614,-0.497c0,0,0,.994,0,.994s1.238,0,1.238,0c-.106-.328-.194-.656-.281-.994c0,0-.967,0-.967,0s.01,0,.01,0Z" fill="#fff" stroke-width="0"/></g><g transform="translate(110.462 25.258)"><path d="M0.828,-0.497c0,0-1.375,0-1.375,0-.078.338-.174.676-.281.994c0,0,1.656,0,1.656,0s0-.994,0-.994Z" fill="#fff" stroke-width="0"/></g><g transform="translate(85.192 25.33)"><path d="M1.209,-0.502c0,0-2.776,0-2.776,0c.087.347.174.676.28,1.004c0,0,2.854,0,2.854,0-.136-.328-.252-.666-.358-1.004Z" fill="#fff" stroke-width="0"/></g><g transform="translate(108.35 25.263)"><path d="M-1.2,-0.492c-.106.338-.232.675-.367.993c0,0,2.853,0,2.853,0c.106-.337.193-.664.281-1.002c0,0-2.767,0-2.767,0s0,.009,0,.009Z" fill="#fff" stroke-width="0"/></g><g transform="translate(103.366 11.145)"><path d="M-3.791,1.658c0,0,3.473-5.102,3.473-5.102s4.109-.192,2.998,2.103C1.567,0.964,0.455,3.635,0.455,3.635s-2.061-1.919-4.237-1.977c0,0-.009,0-.009,0Z" fill="#fff" stroke-width="0"/></g><g transform="translate(99.517 16.921)"><path d="M-1.345,7.368c0,0,7.07-15.208,7.07-15.208.156-.309,0-.781-.319-.935-.319-.155-.783-.078-1.015.241c0,0-9.731,13.655-9.731,13.655s0,.077,0,.077c-.464.781-.541,1.64-.145,2.334.155.309.474.617.784.858.551.386,1.17.54,1.721.386.63-.232,1.248-.704,1.635-1.408Z" fill="#ff1300" stroke-width="0"/></g><g transform="translate(132.45 31.567)"><path d="M0.994,-2.732c0,0-2.002.005-2.002.005-.337.001-.609.274-.608.609c0,0,.011,4.244.011,4.244.001.335.274.606.611.605c0,0,2.002-.005,2.002-.005.337-.001.609-.272.608-.608c0,0-.011-4.244-.011-4.244-.001-.336-.274-.607-.611-.606Z" fill="#4d0000" stroke-width="0"/></g><g transform="translate(138.818 28.932)"><path d="M0.988,-5.341c0,0-2.002.005-2.002.005-.337.001-.61.274-.61.609c0,0,.025,9.461.025,9.461.002.335.276.607.612.606c0,0,2.001-.004,2.001-.004.337-.001.61-.275.61-.611c0,0-.025-9.459-.025-9.459-.001-.335-.274-.608-.611-.607Z" fill="#4d0000" stroke-width="0"/></g><g transform="translate(145.192 25.622)"><path d="M0.978,-8.643c0,0-2.002.005-2.002.005-.337.001-.609.274-.608.609c0,0,.043,16.067.043,16.067c0,.335.274.606.611.605c0,0,2.002-.005,2.002-.005.337-.001.609-.273.608-.609c0,0-.042-16.066-.042-16.066-.001-.336-.275-.607-.612-.606Z" fill="#4d0000" stroke-width="0"/></g></g><text dx="0" dy="0" font-family="&quot;Averta-Semibold&quot;" font-size="15" font-weight="400" transform="matrix(1.4877 0 0 1.4877 802.424487 252.811136)" stroke="#000" stroke-width="0"><tspan y="0" font-weight="400" stroke-width="0"><![CDATA[
1,344
]]></tspan></text><rect id="enrQoUJmVcq234" width="16.18686" height="20.52171" rx="8.09" ry="8.09" transform="translate(841.02153 235.78889)" opacity="0" fill="#ffe7e0" stroke-width="0"/><text id="enrQoUJmVcq235" dx="0" dy="0" font-family="&quot;Averta-Semibold&quot;" font-size="15" font-weight="400" transform="matrix(1.4877 0 0 1.4877 841.425227 252.810606)" opacity="0" stroke="#000" stroke-width="0"><tspan y="0" font-weight="400" stroke-width="0"><![CDATA[
5
]]></tspan></text><g transform="matrix(1.197 0 0 1.197 148.0355 23.8245)" clip-path="url(#enrQoUJmVcq378)"><g transform="translate(27.151 109.543)"><g transform="translate(1.757 113.405)"><path d="M0.214,-17.128c0,0-.428,0-.428,0-.714,0-1.293.579-1.293,1.293c0,0,0,31.67,0,31.67c0,.714.579,1.293,1.293,1.293c0,0,.428,0,.428,0c.714,0,1.293-.579,1.293-1.293c0,0,0-31.67,0-31.67c0-.714-.579-1.293-1.293-1.293Z" fill="#ff7d52" stroke-width="0"/></g><g transform="translate(2.231 113.405)"><path d="M-0.26,-17.128c0,0-.427,0-.427,0-.127,0-.231.035-.346.07.542.15.946.635.946,1.223c0,0,0,31.67,0,31.67c0,.589-.404,1.074-.946,1.224.115.034.219.069.346.069c0,0,.427,0,.427,0c.716,0,1.293-.577,1.293-1.293c0,0,0-31.67,0-31.67c0-.715-.577-1.293-1.293-1.293Z" fill="#fd6533" stroke-width="0"/></g><g transform="translate(222.202 120.633)"><path d="M0,-24.355c.832,0,1.512.682,1.512,1.513c0,0,0,45.685,0,45.685c0,.832-.68,1.512-1.512,1.512-.831,0-1.512-.68-1.512-1.512c0,0,0-45.685,0-45.685c0-.831.681-1.513,1.512-1.513Z" fill="#ff7d52" stroke-width="0"/></g><g transform="translate(221.735 120.615)"><path d="M0.26,24.361c0,0,.427,0,.427,0c.127,0,.231-.058.346-.104-.542-.219-.947-.9-.947-1.743c0,0,0-45.028,0-45.028c0-.843.405-1.524.947-1.743-.115-.046-.219-.104-.346-.104c0,0-.427,0-.427,0-.716,0-1.293.831-1.293,1.836c0,0,0,45.027,0,45.027c0,1.016.577,1.836,1.293,1.836c0,0,0,.023,0,.023Z" fill="#fd6533" stroke-width="0"/></g><g transform="translate(1.757 153.987)"><path d="M0.214,-17.128c0,0-.428,0-.428,0-.714,0-1.293.579-1.293,1.293c0,0,0,31.67,0,31.67c0,.714.579,1.293,1.293,1.293c0,0,.428,0,.428,0c.714,0,1.293-.579,1.293-1.293c0,0,0-31.67,0-31.67c0-.714-.579-1.293-1.293-1.293Z" fill="#ff7d52" stroke-width="0"/></g><g transform="translate(2.231 153.987)"><path d="M-0.26,-17.128c0,0-.427,0-.427,0-.127,0-.231.035-.346.07.542.15.946.635.946,1.223c0,0,0,31.67,0,31.67c0,.589-.404,1.074-.946,1.224.115.034.219.069.346.069c0,0,.427,0,.427,0c.716,0,1.293-.577,1.293-1.293c0,0,0-31.67,0-31.67c0-.715-.577-1.293-1.293-1.293Z" fill="#fd6533" stroke-width="0"/></g><g transform="translate(1.756 73.568)"><path d="M-0.363,-13.347c0,0,.726,0,.726,0c.635,0,1.144.508,1.144,1.143c0,0,0,24.408,0,24.408c0,.635-.509,1.143-1.144,1.143c0,0-.726,0-.726,0-.635,0-1.144-.508-1.144-1.143c0,0,0-24.408,0-24.408c0-.635.509-1.143,1.144-1.143Z" fill="#ff7d52" stroke-width="0"/></g><g transform="translate(2.231 73.573)"><path d="M-0.26,-13.352c0,0-.427,0-.427,0-.127,0-.231.034-.346.057.542.116.946.497.946.959c0,0,0,24.672,0,24.672c0,.462-.404.832-.946.959.115.023.219.057.346.057c0,0,.427,0,.427,0c.716,0,1.293-.45,1.293-1.004c0,0,0-24.673,0-24.673c0-.554-.577-1.004-1.293-1.004c0,0,0-.023,0-.023Z" fill="#fd6533" stroke-width="0"/></g><g transform="translate(112.045 216.351)"><path d="M79.768,-213.154c0,0-159.536,0-159.536,0-15.762,0-28.541,12.778-28.541,28.541c0,0,0,369.226,0,369.226c0,15.762,12.779,28.541,28.541,28.541c0,0,159.536,0,159.536,0c15.763,0,28.541-12.779,28.541-28.541c0,0,0-369.226,0-369.226c0-15.763-12.778-28.541-28.541-28.541Z" fill="#ff8f52" stroke-width="0"/></g><g transform="translate(112.045 216.351)"><path d="M79.768,-213.154c0,0-159.536,0-159.536,0-15.762,0-28.541,12.778-28.541,28.541c0,0,0,369.226,0,369.226c0,15.762,12.779,28.541,28.541,28.541c0,0,159.536,0,159.536,0c15.763,0,28.541-12.779,28.541-28.541c0,0,0-369.226,0-369.226c0-15.763-12.778-28.541-28.541-28.541Z" paint-order="stroke fill markers" fill="none" fill-rule="evenodd" stroke="#fd6533" stroke-width="1.279" stroke-miterlimit="10"/></g><g transform="translate(112.046 216.35)"><path d="M78.775,-210.497c0,0-157.55,0-157.55,0-15.565,0-28.183,12.617-28.183,28.182c0,0,0,364.631,0,364.631c0,15.565,12.618,28.182,28.183,28.182c0,0,157.55,0,157.55,0c15.565,0,28.183-12.617,28.183-28.182c0,0,0-364.631,0-364.631c0-15.565-12.618-28.182-28.183-28.182Z" paint-order="stroke fill markers" fill="none" fill-rule="evenodd" stroke="#ff7d52" stroke-width="1.266" stroke-miterlimit="10"/></g></g><g transform="translate(139.388 328.434)"><path d="M77.995,-208.698c0,0-155.99,0-155.99,0-15.495,0-28.056,12.454-28.056,27.816c0,0,0,361.764,0,361.764c0,15.362,12.561,27.816,28.056,27.816c0,0,155.99,0,155.99,0c15.495,0,28.056-12.454,28.056-27.816c0,0,0-361.764,0-361.764c0-15.362-12.561-27.816-28.056-27.816Z" fill="#061435" stroke-width="0"/></g><g transform="translate(.001 0)"><g transform="translate(139.434 326.935)"><path d="M75.115,-204.656c0,0-150.23,0-150.23,0-15.38,0-27.848,11.949-27.848,26.69c0,0,0,355.932,0,355.932c0,14.741,12.468,26.69,27.848,26.69c0,0,150.23,0,150.23,0c15.38,0,27.848-11.949,27.848-26.69c0,0,0-355.932,0-355.932c0-14.741-12.468-26.69-27.848-26.69Z" fill="#fff" stroke-width="0"/></g><g transform="translate(51.534 132.528)"><g><path d="M1,51.728c0,0,176.859,0,176.859,0" paint-order="stroke fill markers" fill="none" fill-rule="evenodd" stroke="#e7cccc" stroke-width="2"/></g><g transform="translate(5.287 7.911)"><path d="M0.646,-1.674c0,0-1.292,0-1.292,0s0,3.348,0,3.348s1.292,0,1.292,0s0-3.348,0-3.348Z" fill="#916d0a" stroke-width="0"/></g><g transform="translate(8 7.282)"><path d="M0.646,-2.303c0,0-1.292,0-1.292,0s0,4.606,0,4.606s1.292,0,1.292,0s0-4.606,0-4.606Z" fill="#916d0a" stroke-width="0"/></g><g transform="translate(10.816 6.779)"><path d="M0.646,-2.805c0,0-1.292,0-1.292,0s0,5.61,0,5.61s1.292,0,1.292,0s0-5.61,0-5.61Z" fill="#916d0a" stroke-width="0"/></g><g transform="translate(13.564 6.023)"><path d="M0.646,-3.562c0,0-1.292,0-1.292,0s0,7.124,0,7.124s1.292,0,1.292,0s0-7.124,0-7.124Z" fill="#916d0a" stroke-width="0"/></g><g transform="translate(164.354 4.46)"><path d="M5.906,0c0,1.103-.894,1.997-1.997,1.997h-7.816c-1.103,0-1.998-.894-1.998-1.997c0-1.104.895-1.997,1.998-1.997h7.816c1.103,0,1.997.893,1.997,1.997ZM-5.616,0c0,.943.765,1.708,1.709,1.708h7.816c.944,0,1.709-.765,1.709-1.708c0-.944-.765-1.708-1.709-1.708h-7.816c-.944,0-1.709.764-1.709,1.708Z" fill="#785e4e" stroke-width="0"/></g><g transform="translate(163.847 4.448)"><path d="M3.67,-1.167c0,0-7.339,0-7.339,0-.552,0-1,.447-1,1c0,0,0,.334,0,.334c0,.553.448,1,1,1c0,0,7.339,0,7.339,0c.552,0,1-.447,1-1c0,0,0-.334,0-.334c0-.553-.448-1-1-1Z" fill="#785e4e" stroke-width="0"/></g><g transform="translate(171.034 4.449)"><path d="M-0.324,-0.797c.358,0,.647.289.647.647c0,0,0,.3,0,.3c0,.358-.289.647-.647.647" fill="#785e4e" stroke-width="0"/></g></g></g><g transform="translate(62.09 209.467)"><g transform="translate(18.331 15.648)"><path d="M15.331,-12.648c0,0-30.662,0-30.662,0s0,25.296,0,25.296" paint-order="stroke fill markers" fill="none" fill-rule="evenodd" stroke="#ff3e00" stroke-width="3" stroke-linejoin="round"/></g><g transform="translate(139.445 15.648)"><path d="M-15.331,-12.648c0,0,30.661,0,30.661,0s0,25.296,0,25.296" paint-order="stroke fill markers" fill="none" fill-rule="evenodd" stroke="#ff3e00" stroke-width="3" stroke-linejoin="round"/></g><g transform="translate(18.331 149.793)"><path d="M15.331,12.648c0,0-30.662,0-30.662,0s0-25.296,0-25.296" paint-order="stroke fill markers" fill="none" fill-rule="evenodd" stroke="#ff3e00" stroke-width="3" stroke-linejoin="round"/></g><g transform="translate(139.445 149.793)"><path d="M-15.331,12.648c0,0,30.661,0,30.661,0s0-25.296,0-25.296" paint-order="stroke fill markers" fill="none" fill-rule="evenodd" stroke="#ff3e00" stroke-width="3" stroke-linejoin="round"/></g></g><g transform="translate(73.308 223.898)"><g transform="translate(106.475 87.309)"><path d="M16.282,-16.281c0,0-6.416,0-6.416,0s0,6.384,0,6.384-19.171,0-19.171,0s0,19.419,0,19.419s6.229,0,6.229,0s0,6.65,0,6.65-6.322,0-6.322,0s0,6.12,0,6.12s25.414,0,25.414,0s0-12.676,0-12.676-19.185,0-19.185,0s0-6.431,0-6.431s12.864,0,12.864,0s0-6.276,0-6.276s6.493,0,6.493,0s0,6.12,0,6.12s6.384,0,6.384,0s0,19.402,0,19.402s6.416,0,6.416,0s0,12.724,0,12.724-6.259,0-6.259,0s0-6.074,0-6.074-6.385,0-6.385,0s0,6.104,0,6.104-6.494,0-6.494,0s0-6.042,0-6.042-6.385,0-6.385,0s0,5.964,0,5.964-6.494,0-6.494,0s0-6.011,0-6.011-6.385,0-6.385,0s0,6.214,0,6.214-13.112,0-13.112,0s.094.094.094.094s0-12.848,0-12.848-6.322,0-6.322,0s0-6.462,0-6.462s12.473,0,12.473,0s0-13.034,0-13.034-6.26,0-6.26,0s.093.094.093.094s0-6.603,0-6.603s6.167,0,6.167,0s0-6.292,0-6.292-12.707,0-12.707,0c.031-2.18.062-4.36.093-6.54c0,0-.093.093-.093.093s12.754,0,12.754,0s0-6.618,0-6.618-6.198,0-6.198,0s0-6.384,0-6.384-.094.094-.094.094s6.385,0,6.385,0s0-6.308,0-6.308s19.513,0,19.513,0s0,12.739,0,12.739-12.739,0-12.739,0s0,6.198,0,6.198s12.646,0,12.646,0s0-6.292,0-6.292c4.329.032,8.658.077,12.987.108c0,0-.093-.092-.093-.092s0,6.54,0,6.54.093-.094.093-.094.016.016.016.016Z" fill="#692b24" stroke-width="0"/></g><g transform="translate(22.744 22.635)"><path d="M-22.385,-22.385c0,0,44.77,0,44.77,0s0,44.77,0,44.77-44.77,0-44.77,0s0-44.77,0-44.77Z" fill="#692b24" stroke-width="0"/><path d="" fill="#692b24" stroke-width="0"/><path d="M15.876,-15.814c0,0-31.861,0-31.861,0s0,31.861,0,31.861s31.861,0,31.861,0s0-31.861,0-31.861Z" fill="#fff" stroke-width="0"/></g><g transform="translate(22.775 113.048)"><path d="M22.37,-22.385c0,0,0,44.77,0,44.77s-44.755,0-44.755,0s0-44.77,0-44.77s44.77,0,44.77,0-.015,0-.015,0Z" fill="#692b24" stroke-width="0"/><path d="" fill="#692b24" stroke-width="0"/><path d="M-15.954,15.845c0,0,31.862,0,31.862,0s0-31.861,0-31.861-31.862,0-31.862,0s0,31.861,0,31.861Z" fill="#fff" stroke-width="0"/></g><g transform="translate(113.07 22.635)"><path d="M-22.378,-22.385c0,0,44.756,0,44.756,0s0,44.77,0,44.77-44.756,0-44.756,0s0-44.77,0-44.77Z" fill="#692b24" stroke-width="0"/><path d="M15.962,-15.845c0,0-31.862,0-31.862,0s0,31.861,0,31.861s31.862,0,31.862,0s0-31.861,0-31.861Z" fill="#fff" stroke-width="0"/></g><g transform="translate(67.677 35.546)"><path d="M9.842,-16.032c0,0,6.275,0,6.275,0s0,12.755,0,12.755-12.566,0-12.566,0s0,12.8,0,12.8-6.494,0-6.494,0s0-6.012,0-6.012-6.493,0-6.493,0s0,12.521,0,12.521-6.681,0-6.681,0s.109.094.094.094c0,0,0-25.649,0-25.649s25.942,0,25.942,0s0-6.603,0-6.603-.093.094-.093.094.016,0,.016,0Z" fill="#692b24" stroke-width="0"/></g><g transform="translate(67.873 90.29)"><path d="M16.094,0.093c0,0,0,6.432,0,6.432s-12.739,0-12.739,0s0,6.275,0,6.275-13.08,0-13.08,0s0-6.245,0-6.245s6.291,0,6.291,0s0-6.181,0-6.181-6.198,0-6.198,0s0,6.276,0,6.276-6.447,0-6.447,0s0-19.45,0-19.45-.093.092-.093.092s6.54,0,6.54,0-.093-.092-.093-.092s0,6.446,0,6.446s13.003,0,13.003,0s0,6.541,0,6.541s12.894,0,12.894,0-.094-.094-.094-.094.016,0,.016,0Z" fill="#692b24" stroke-width="0"/></g><g transform="translate(125.942 64.634)"><path d="M-3.184,0.038c0,0,0-6.414,0-6.414s-6.323,0-6.323,0s0-6.276,0-6.276s12.614,0,12.614,0s0,6.151,0,6.151s6.4,0,6.4,0s0,19.153,0,19.153-12.707,0-12.707,0s0-6.26,0-6.26-.093.094-.093.094s6.275,0,6.275,0s0-6.541,0-6.541-6.275,0-6.275,0s.093.093.093.093.016,0,.016,0Z" fill="#692b24" stroke-width="0"/></g><g transform="translate(74.336 125.779)"><path d="M9.631,-3.146c0,2.18,0,4.361-.015,6.541c0,0,.093-.094.093-.094s-12.8,0-12.8,0s0,6.291,0,6.291-6.541,0-6.541,0s0-12.738,0-12.738-.093.094-.093.094s6.54,0,6.54,0s0-6.54,0-6.54-.093.093-.093.093s6.385,0,6.385,0s0,6.431,0,6.431s6.618,0,6.618,0-.094-.093-.094-.093s0,.015,0,.015Z" fill="#692b24" stroke-width="0"/></g><g transform="translate(9.866 77.56)"><path d="M9.492,-6.253c0,0,0,12.49,0,12.49s-6.245,0-6.245,0s0-6.042,0-6.042-6.462,0-6.462,0s0,6.058,0,6.058-6.277,0-6.277,0s0-12.506,0-12.506s18.984,0,18.984,0Z" fill="#692b24" stroke-width="0"/></g><g transform="translate(71.251 9.898)"><path d="M6.362,9.522c0,0-12.739,0-12.739,0s0-19.138,0-19.138s6.088,0,6.088,0s0,12.785,0,12.785s6.651,0,6.651,0-.094-.093-.094-.093c0,2.18,0,4.36.016,6.54c0,0,.093-.094.093-.094s-.015,0-.015,0Z" fill="#692b24" stroke-width="0"/></g><g transform="translate(6.557 58.147)"><path d="M-6.307,-6.229c0,0,12.614,0,12.614,0s0,12.458,0,12.458-12.614,0-12.614,0s0-12.458,0-12.458Z" fill="#692b24" stroke-width="0"/></g><g transform="translate(80.649 6.706)"><path d="M-3.053,6.361c0,0,0-12.722,0-12.722s6.199,0,6.199,0s0,12.629,0,12.629-6.292,0-6.292,0s.093.093.093.093Z" fill="#692b24" stroke-width="0"/></g><g transform="translate(54.946 13.02)"><path d="M3.029,6.307c0,0-6.058,0-6.058,0s0-12.614,0-12.614s6.058,0,6.058,0s0,12.614,0,12.614Z" fill="#692b24" stroke-width="0"/></g><g transform="translate(32.391 61.404)"><path d="M6.493,3.176c0,0-12.893,0-12.893,0s0-6.447,0-6.447-.093.094-.093.094s12.986,0,12.986,0-.093-.094-.093-.094s0,6.542,0,6.542.093-.095.093-.095Z" fill="#692b24" stroke-width="0"/></g><g transform="translate(55.056 128.987)"><path d="M2.966,-6.446c0,0,0,12.893,0,12.893s-6.026,0-6.026,0s0-12.8,0-12.8s6.12,0,6.12,0-.109-.093-.109-.093.015,0,.015,0Z" fill="#692b24" stroke-width="0"/></g><g transform="translate(80.759 42.023)"><path d="M-3.037,-3.06c0,0,6.074,0,6.074,0s0,6.12,0,6.12-6.074,0-6.074,0s0-6.12,0-6.12Z" fill="#692b24" stroke-width="0"/></g><g transform="translate(42.147 80.603)"><path d="M2.967,-3.224c0,0,0,6.448,0,6.448s-6.026,0-6.026,0s0-6.353,0-6.353s6.118,0,6.118,0-.108-.095-.108-.095.016,0,.016,0Z" fill="#692b24" stroke-width="0"/></g><g transform="translate(48.453 74.312)"><path d="M3.34,3.176c-2.226-.031-4.453-.061-6.68-.108c0,0,.109.093.093.093.047-2.149.078-4.298.125-6.432c0,0-.093.094-.093.094s6.54,0,6.54,0-.094-.094-.094-.094s0,6.542,0,6.542.094-.095.094-.095.015,0,.015,0Z" fill="#692b24" stroke-width="0"/></g><g transform="translate(42.069 67.852)"><path d="M3.278,3.192c0,0-6.463,0-6.463,0s0-6.462,0-6.462-.093.093-.093.093s6.54,0,6.54,0-.093-.093-.093-.093s0,6.54,0,6.54.093-.094.093-.094.016.016.016.016Z" fill="#692b24" stroke-width="0"/></g><g transform="translate(55.11 113.143)"><path d="M3.13,3.045c0,0-6.26,0-6.26,0s0-6.183,0-6.183s6.167,0,6.167,0s0,6.276,0,6.276.093-.093.093-.093Z" fill="#692b24" stroke-width="0"/></g><g transform="translate(61.363 119.449)"><path d="M-3.215,-3.169c0,0,6.555,0,6.555,0s-.094-.093-.094-.093s0,6.54,0,6.54.094-.093.094-.093c-2.227-.031-4.453-.062-6.68-.109c0,0,.108.093.093.093.031-2.149.077-4.298.109-6.447c0,0-.094.094-.094.094s.017.015.017.015Z" fill="#692b24" stroke-width="0"/></g><g transform="translate(22.852 55.08)"><path d="M3.138,3.052c0,0-6.276,0-6.276,0s0-6.198,0-6.198s6.183,0,6.183,0s0,6.292,0,6.292.093-.094.093-.094Z" fill="#692b24" stroke-width="0"/></g><g transform="translate(87.088 132.242)"><path d="M-3.137,-3.052c0,0,6.274,0,6.274,0s0,6.197,0,6.197-6.182,0-6.182,0s0-6.291,0-6.291-.092.094-.092.094Z" fill="#692b24" stroke-width="0"/></g><g transform="translate(100.098 132.289)"><path d="M-3.006,-3.083c0,0,6.012,0,6.012,0s0,6.166,0,6.166-6.012,0-6.012,0s0-6.166,0-6.166Z" fill="#692b24" stroke-width="0"/></g><g transform="translate(113.095 132.396)"><path d="M3.029,3.036c0,0-6.058,0-6.058,0s0-6.072,0-6.072s6.058,0,6.058,0s0,6.072,0,6.072Z" fill="#692b24" stroke-width="0"/></g><g transform="translate(125.966 132.351)"><path d="M3.052,3.021c0,0-6.104,0-6.104,0s0-6.042,0-6.042s6.104,0,6.104,0s0,6.042,0,6.042Z" fill="#692b24" stroke-width="0"/></g><g transform="translate(74.326 80.759)"><path d="M-3.271,-3.27c0,0,6.542,0,6.542,0s0,6.54,0,6.54-6.542,0-6.542,0s0-6.54,0-6.54Z" fill="#692b24" stroke-width="0"/></g><g transform="translate(22.745 22.668)"><path d="M9.507,9.475c0,0-19.014,0-19.014,0s0-18.95,0-18.95s19.014,0,19.014,0s0,18.95,0,18.95Z" fill="#692b24" stroke-width="0"/></g><g transform="translate(22.682 113.033)"><path d="M9.46,9.538c0,0-18.92,0-18.92,0s0-19.076,0-19.076s18.92,0,18.92,0s0,19.076,0,19.076Z" fill="#692b24" stroke-width="0"/></g><g transform="translate(112.985 22.667)"><path d="M-9.476,-9.475c0,0,18.952,0,18.952,0s0,18.95,0,18.95-18.952,0-18.952,0s0-18.95,0-18.95Z" fill="#692b24" stroke-width="0"/></g><g transform="translate(45.3 64.628)"><path d="M0.047,0.046c0,0,0-.092,0-.092s-.094,0-.094,0s.094.092.094.092Z" fill="#692b24" stroke-width="0"/></g><g transform="translate(77.55 71.089)"><path d="M0.047,-0.047c0,0-.094,0-.094,0s0,.094,0,.094.094-.094.094-.094Z" fill="#692b24" stroke-width="0"/></g><g transform="translate(38.853 58.18)"><path d="M0.047,0.047c0,0,0-.094,0-.094s-.094,0-.094,0s.094.094.094.094Z" fill="#692b24" stroke-width="0"/></g><g transform="translate(58.195 77.536)"><path d="M0.047,0.046c0,0,0-.092,0-.092s-.094,0-.094,0s.094.092.094.092Z" fill="#692b24" stroke-width="0"/></g><g transform="translate(51.747 71.073)"><path d="M0.047,0.046c0,0,0-.092,0-.092s-.094,0-.094,0s.094.092.094.092Z" fill="#692b24" stroke-width="0"/></g><g transform="translate(83.997 58.18)"><path d="M0.047,-0.047c0,0-.094,0-.094,0s0,.094,0,.094.094-.094.094-.094Z" fill="#692b24" stroke-width="0"/></g><g transform="translate(71.112 64.727)"><path d="M-6.532,-12.762c0,0,0,12.475,0,12.475s-6.323,0-6.323,0s0,13.049,0,13.049s6.307,0,6.307,0s0-6.447,0-6.447s12.956,0,12.956,0s0-12.909,0-12.909s6.447,0,6.447,0s0-6.168,0-6.168-19.387,0-19.387,0Z" fill="#692b24" stroke-width="0"/></g><g transform="translate(51.599 51.624)"><path d="M-0.039,-0.047c0,0,0,.094,0,.094s.094,0,.094,0-.11-.094-.11-.094.016,0,.016,0Z" fill="#692b24" stroke-width="0"/></g></g><g transform="translate(27.151 109.543)"><g id="enrQoUJmVcq375_to" style="offset-path:path('M111.897,111.379Q111.897,134.879,111.897,252.379Q111.897,134.879,111.897,111.379');offset-rotate:0deg"><g id="enrQoUJmVcq375" transform="translate(-79.304,-2.267)" opacity="0"><g transform="translate(79.304 2.267)"><path d="M-77.804,0.767c0,0,155.608-1.534,155.608-1.534" paint-order="stroke fill markers" fill="none" fill-rule="evenodd" stroke="#ff3e00" stroke-width="3"/></g></g></g></g><clipPath id="enrQoUJmVcq378"><rect width="601" height="607" rx="0" ry="0" fill="none" stroke-width="0"/></clipPath></g><text dx="0" dy="0" font-family="&quot;Averta-Regular&quot;" font-size="16" font-weight="400" letter-spacing="0.26" transform="matrix(1.000008 0 0 1.000008 495.25098 315.25088)" stroke="#000" stroke-width="0"><tspan x="0" y="0" font-family="&quot;Averta-Regular&quot;" font-size="16" font-weight="400" font-style="normal" letter-spacing="0.26" stroke="#000" stroke-width="0"><![CDATA[
Registration 2%
]]></tspan></text><g id="enrQoUJmVcq382_to" style="offset-path:path('M848.25,234.25C851.667,225.625,865.333,191.125,868.75,182.5');offset-rotate:0deg"><text id="enrQoUJmVcq382" dx="0" dy="0" font-family="&quot;Averta-Semibold&quot;" font-size="17" font-weight="400" transform="scale(1.27,1.27) translate(0,0)" opacity="0" fill="#37ca00" stroke="#000" stroke-width="0"><tspan x="0" y="0" font-family="&quot;Averta-Semibold&quot;" font-size="17" font-weight="400" font-style="normal" fill="#37ca00" stroke="#000" stroke-width="0"><![CDATA[
+1
]]></tspan></text></g></svg>
