<svg width="84" height="84" viewBox="0 0 84 84" fill="none" xmlns="http://www.w3.org/2000/svg">
<path d="M29.0776 21.4473C27.7635 21.213 26.6071 21.1869 25.661 21.942C22.6386 24.3895 20.72 27.4099 20.7725 31.4196C20.7988 34.5701 21.6924 37.5384 23.2693 40.2463C27.4219 47.4326 32.9936 53.291 40.1949 57.5872C44.1897 59.9566 48.3948 61.9094 53.073 62.5082C56.8051 62.9769 60.1429 61.9354 62.7973 59.2015C64.4005 57.5351 64.9262 55.374 65.3204 53.1869C65.5044 52.0933 65.2941 51.5986 64.2691 51.1299C61.2467 49.7499 58.2243 48.3699 55.2019 46.99C54.098 46.4953 53.6249 46.6254 52.889 47.5368C51.7589 48.9688 50.6288 50.4009 49.5512 51.859C49.0256 52.562 48.4474 52.6401 47.7115 52.3537C41.0885 49.7239 35.8058 45.5839 32.3366 39.335C31.7847 38.3456 31.8109 38.1633 32.5731 37.278C33.5718 36.1324 34.5443 34.9607 35.543 33.8671C36.2 33.1641 36.3052 32.4872 35.9109 31.6019C34.7808 29.1023 33.6244 26.5767 32.652 24.025C31.9686 22.2024 31.1013 20.9526 29.0776 21.4734V21.4473Z" stroke="#FF3E00" stroke-width="3" stroke-miterlimit="10" stroke-linecap="round"/>
<path d="M28.9199 20.4059C31.1539 20.2497 31.9686 22.2025 32.652 23.9991C33.6244 26.5768 34.7808 29.0764 35.9109 31.5759C36.3052 32.4612 36.2 33.1382 35.543 33.8412C34.518 34.9608 33.5456 36.1064 32.5731 37.2521C31.8109 38.1374 31.7847 38.3196 32.3366 39.309C35.8058 45.558 41.1147 49.724 47.7115 52.3277C48.4474 52.6141 49.0519 52.51 49.5512 51.833C50.6288 50.3749 51.7852 48.9429 52.889 47.5108C53.6249 46.5735 54.098 46.4693 55.2019 46.964C58.2243 48.344 61.2467 49.724 64.2691 51.104C65.2941 51.5726 65.5044 52.0674 65.3204 53.1609C64.9262 55.3481 64.4005 57.5092 62.7973 59.1756C60.1429 61.9095 56.8051 62.977 53.073 62.4823C48.3948 61.8834 44.1897 59.9567 40.1949 57.5612C33.0199 53.2911 27.4219 47.4067 23.2693 40.2204C21.6924 37.5125 20.8251 34.5442 20.7725 31.3937C20.72 27.3839 22.6386 24.3376 25.661 21.9161C26.6071 21.161 27.7372 20.484 28.9199 20.3799V20.4059Z" stroke="#FF3E00" stroke-width="3" stroke-miterlimit="10" stroke-linecap="round"/>
<path d="M39.4324 2.04783C20.3517 3.21951 4.45113 18.1389 2.24345 36.9379C1.2973 45.1136 2.87421 52.8467 6.29086 59.5123C7.55239 61.9338 7.81521 64.7458 6.92163 67.3235L3.05819 78.6237C2.32229 80.7588 4.50369 82.7116 6.57996 81.8003L16.5934 77.3739C19.3267 76.1502 22.4542 76.3064 25.1876 77.5562C31.758 80.5765 39.2484 81.9305 47.1855 80.915C66.0034 78.5196 80.8264 62.767 81.9302 43.994C83.3232 20.1698 63.4803 0.5637 39.4324 2.04783Z" stroke="#FFECE6" stroke-width="3" stroke-miterlimit="10" stroke-linecap="round"/>
</svg>
