<svg id="egl62u0WKoJ1" xmlns="http://www.w3.org/2000/svg" xmlns:xlink="http://www.w3.org/1999/xlink" viewBox="0 0 1050 720" shape-rendering="geometricPrecision" text-rendering="geometricPrecision" project-id="12e625cd277345b09f0f196d91a8e8be" export-id="866b03b46e844df98c0a37544006019d" cached="false" style="background-color:transparent">
<style><![CDATA[
#egl62u0WKoJ154_to {animation: egl62u0WKoJ154_to__to 4505ms linear infinite normal forwards}@keyframes egl62u0WKoJ154_to__to { 0% {offset-distance: 0%} 14.805771% {offset-distance: 0%;animation-timing-function: cubic-bezier(0.167,0.167,0,1)} 33.340733% {offset-distance: 100%} 100% {offset-distance: 100%}} #egl62u0WKoJ154_ts {animation: egl62u0WKoJ154_ts__ts 4505ms linear infinite normal forwards}@keyframes egl62u0WKoJ154_ts__ts { 0% {transform: scale(1.71,1.71)} 14.805771% {transform: scale(1.71,1.71);animation-timing-function: cubic-bezier(0.167,0.167,0,1)} 33.340733% {transform: scale(2.1033,2.1033)} 100% {transform: scale(2.1033,2.1033)}} #egl62u0WKoJ240_to {animation: egl62u0WKoJ240_to__to 4505ms linear infinite normal forwards}@keyframes egl62u0WKoJ240_to__to { 0% {offset-distance: 0%} 14.805771% {offset-distance: 0%;animation-timing-function: cubic-bezier(0.167,0.167,0,1)} 33.340733% {offset-distance: 100%} 100% {offset-distance: 100%}} #egl62u0WKoJ240_ts {animation: egl62u0WKoJ240_ts__ts 4505ms linear infinite normal forwards}@keyframes egl62u0WKoJ240_ts__ts { 0% {transform: scale(1.71,1.71)} 14.805771% {transform: scale(1.71,1.71);animation-timing-function: cubic-bezier(0.167,0.167,0,1)} 33.340733% {transform: scale(2.1033,2.1033)} 100% {transform: scale(2.1033,2.1033)}} #egl62u0WKoJ243 {animation: egl62u0WKoJ243_f_p 4505ms linear infinite normal forwards}@keyframes egl62u0WKoJ243_f_p { 0% {fill: #ffdddb} 33.340733% {fill: #ffdddb} 38.512764% {fill: #802e12} 100% {fill: #802e12}} #egl62u0WKoJ246_to {animation: egl62u0WKoJ246_to__to 4505ms linear infinite normal forwards}@keyframes egl62u0WKoJ246_to__to { 0% {offset-distance: 0%} 14.805771% {offset-distance: 0%;animation-timing-function: cubic-bezier(0.167,0.167,0,1)} 33.340733% {offset-distance: 100%} 100% {offset-distance: 100%}} #egl62u0WKoJ246_ts {animation: egl62u0WKoJ246_ts__ts 4505ms linear infinite normal forwards}@keyframes egl62u0WKoJ246_ts__ts { 0% {transform: scale(1.71,1.71)} 14.805771% {transform: scale(1.71,1.71);animation-timing-function: cubic-bezier(0.167,0.167,0,1)} 33.340733% {transform: scale(2.1033,2.1033)} 100% {transform: scale(2.1033,2.1033)}} #egl62u0WKoJ247_to {animation: egl62u0WKoJ247_to__to 4505ms linear infinite normal forwards}@keyframes egl62u0WKoJ247_to__to { 0% {offset-distance: 0%} 33.340733% {offset-distance: 0%;animation-timing-function: cubic-bezier(0.333,0,0.667,1)} 38.512764% {offset-distance: 100%} 100% {offset-distance: 100%}} #egl62u0WKoJ252_to {animation: egl62u0WKoJ252_to__to 4505ms linear infinite normal forwards}@keyframes egl62u0WKoJ252_to__to { 0% {offset-distance: 0%} 14.805771% {offset-distance: 0%;animation-timing-function: cubic-bezier(0.167,0.167,0,1)} 33.340733% {offset-distance: 100%} 100% {offset-distance: 100%}} #egl62u0WKoJ252_ts {animation: egl62u0WKoJ252_ts__ts 4505ms linear infinite normal forwards}@keyframes egl62u0WKoJ252_ts__ts { 0% {transform: scale(1.71,1.71)} 14.805771% {transform: scale(1.71,1.71);animation-timing-function: cubic-bezier(0.167,0.167,0,1)} 33.340733% {transform: scale(2.1033,2.1033)} 100% {transform: scale(2.1033,2.1033)}} #egl62u0WKoJ255_ts {animation: egl62u0WKoJ255_ts__ts 4505ms linear infinite normal forwards}@keyframes egl62u0WKoJ255_ts__ts { 0% {transform: translate(528.067px,435.6px) scale(0,0)} 40.732519% {transform: translate(528.067px,435.6px) scale(0,0);animation-timing-function: cubic-bezier(0.167,0.167,0,1)} 51.098779% {transform: translate(528.067px,435.6px) scale(2.0691,2.0691)} 100% {transform: translate(528.067px,435.6px) scale(2.0691,2.0691)}} #egl62u0WKoJ255 {animation: egl62u0WKoJ255_c_o 4505ms linear infinite normal forwards}@keyframes egl62u0WKoJ255_c_o { 0% {opacity: 0} 40.510544% {opacity: 0;animation-timing-function: step-end} 40.732519% {opacity: 1;animation-timing-function: step-end} 100% {opacity: 0.995645}} #egl62u0WKoJ264_ts {animation: egl62u0WKoJ264_ts__ts 4505ms linear infinite normal forwards}@keyframes egl62u0WKoJ264_ts__ts { 0% {transform: translate(528.067px,435.6px) scale(0,0)} 40.732519% {transform: translate(528.067px,435.6px) scale(0,0);animation-timing-function: cubic-bezier(0.167,0.167,0,1)} 51.098779% {transform: translate(528.067px,435.6px) scale(2.0691,2.0691)} 100% {transform: translate(528.067px,435.6px) scale(2.0691,2.0691)}} #egl62u0WKoJ265 {animation: egl62u0WKoJ265_c_o 4505ms linear infinite normal forwards}@keyframes egl62u0WKoJ265_c_o { 0% {opacity: 0} 40.510544% {opacity: 0;animation-timing-function: step-end} 40.732519% {opacity: 1;animation-timing-function: step-end} 100% {opacity: 0.995645}} #egl62u0WKoJ307 {animation: egl62u0WKoJ307_c_o 4505ms linear infinite normal forwards}@keyframes egl62u0WKoJ307_c_o { 0% {opacity: 0} 40.510544% {opacity: 0;animation-timing-function: step-end} 40.732519% {opacity: 1;animation-timing-function: step-end} 77.780244% {opacity: 0} 100% {opacity: 0}} #egl62u0WKoJ309_to {animation: egl62u0WKoJ309_to__to 4505ms linear infinite normal forwards}@keyframes egl62u0WKoJ309_to__to { 0% {offset-distance: 0%} 40.732519% {offset-distance: 0%;animation-timing-function: cubic-bezier(0.067,0,0.207,1)} 67.391787% {offset-distance: 100%} 100% {offset-distance: 100%}} #egl62u0WKoJ309_tr {animation: egl62u0WKoJ309_tr__tr 4505ms linear infinite normal forwards}@keyframes egl62u0WKoJ309_tr__tr { 0% {transform: rotate(0deg)} 40.732519% {transform: rotate(0deg);animation-timing-function: cubic-bezier(0.127,0.545,0.373,1)} 70.36626% {transform: rotate(100deg)} 100% {transform: rotate(100deg)}} #egl62u0WKoJ309_ts {animation: egl62u0WKoJ309_ts__ts 4505ms linear infinite normal forwards}@keyframes egl62u0WKoJ309_ts__ts { 0% {transform: scale(0,0)} 40.732519% {transform: scale(0,0);animation-timing-function: cubic-bezier(0.398,0,0.38,1)} 46.659267% {transform: scale(0.5,0.5);animation-timing-function: cubic-bezier(0.45,0,0.642,1)} 70.36626% {transform: scale(0,0)} 100% {transform: scale(0,0)}} #egl62u0WKoJ315_to {animation: egl62u0WKoJ315_to__to 4505ms linear infinite normal forwards}@keyframes egl62u0WKoJ315_to__to { 0% {offset-distance: 0%} 40.732519% {offset-distance: 0%;animation-timing-function: cubic-bezier(0.067,0,0.207,1)} 65.90455% {offset-distance: 100%} 100% {offset-distance: 100%}} #egl62u0WKoJ315_tr {animation: egl62u0WKoJ315_tr__tr 4505ms linear infinite normal forwards}@keyframes egl62u0WKoJ315_tr__tr { 0% {transform: rotate(0deg)} 40.732519% {transform: rotate(0deg);animation-timing-function: cubic-bezier(0.144,0.414,0.406,0.875)} 74.073252% {transform: rotate(168.462deg)} 100% {transform: rotate(168.462deg)}} #egl62u0WKoJ315_ts {animation: egl62u0WKoJ315_ts__ts 4505ms linear infinite normal forwards}@keyframes egl62u0WKoJ315_ts__ts { 0% {transform: scale(0,0)} 40.732519% {transform: scale(0,0);animation-timing-function: cubic-bezier(0.398,0,0.38,1)} 46.659267% {transform: scale(0.5,0.5);animation-timing-function: cubic-bezier(0.45,0,0.642,1)} 65.90455% {transform: scale(0,0)} 100% {transform: scale(0,0)}} #egl62u0WKoJ324_to {animation: egl62u0WKoJ324_to__to 4505ms linear infinite normal forwards}@keyframes egl62u0WKoJ324_to__to { 0% {offset-distance: 0%} 40.732519% {offset-distance: 0%;animation-timing-function: cubic-bezier(0.067,0,0.207,1)} 74.073252% {offset-distance: 100%} 100% {offset-distance: 100%}} #egl62u0WKoJ324_tr {animation: egl62u0WKoJ324_tr__tr 4505ms linear infinite normal forwards}@keyframes egl62u0WKoJ324_tr__tr { 0% {transform: rotate(0deg)} 40.732519% {transform: rotate(0deg);animation-timing-function: cubic-bezier(0.144,0.807,0.406,0.97)} 74.073252% {transform: rotate(86.444deg)} 100% {transform: rotate(86.444deg)}} #egl62u0WKoJ324_ts {animation: egl62u0WKoJ324_ts__ts 4505ms linear infinite normal forwards}@keyframes egl62u0WKoJ324_ts__ts { 0% {transform: scale(0,0)} 40.732519% {transform: scale(0,0);animation-timing-function: cubic-bezier(0.398,0,0.38,1)} 46.659267% {transform: scale(0.75,0.75);animation-timing-function: cubic-bezier(0.45,0,0.642,1)} 69.611543% {transform: scale(0,0)} 100% {transform: scale(0,0)}} #egl62u0WKoJ333_to {animation: egl62u0WKoJ333_to__to 4505ms linear infinite normal forwards}@keyframes egl62u0WKoJ333_to__to { 0% {offset-distance: 0%} 40.732519% {offset-distance: 0%;animation-timing-function: cubic-bezier(0.067,0,0.207,1)} 71.831299% {offset-distance: 100%} 100% {offset-distance: 100%}} #egl62u0WKoJ333_tr {animation: egl62u0WKoJ333_tr__tr 4505ms linear infinite normal forwards}@keyframes egl62u0WKoJ333_tr__tr { 0% {transform: rotate(0deg)} 40.732519% {transform: rotate(0deg);animation-timing-function: cubic-bezier(0.144,0.34,0.406,0.857)} 74.073252% {transform: rotate(205.228deg)} 100% {transform: rotate(205.228deg)}} #egl62u0WKoJ333_ts {animation: egl62u0WKoJ333_ts__ts 4505ms linear infinite normal forwards}@keyframes egl62u0WKoJ333_ts__ts { 0% {transform: scale(0,0)} 40.732519% {transform: scale(0,0);animation-timing-function: cubic-bezier(0.398,0,0.38,1)} 46.659267% {transform: scale(0.75,0.75);animation-timing-function: cubic-bezier(0.45,0,0.642,1)} 67.391787% {transform: scale(0,0)} 100% {transform: scale(0,0)}} #egl62u0WKoJ342_to {animation: egl62u0WKoJ342_to__to 4505ms linear infinite normal forwards}@keyframes egl62u0WKoJ342_to__to { 0% {offset-distance: 0%} 40.732519% {offset-distance: 0%;animation-timing-function: cubic-bezier(0.067,0,0.207,1)} 68.146504% {offset-distance: 100%} 100% {offset-distance: 100%}} #egl62u0WKoJ342_tr {animation: egl62u0WKoJ342_tr__tr 4505ms linear infinite normal forwards}@keyframes egl62u0WKoJ342_tr__tr { 0% {transform: rotate(-75deg)} 40.732519% {transform: rotate(-75deg);animation-timing-function: cubic-bezier(0.144,0.571,0.406,0.913)} 74.073252% {transform: rotate(47.268deg)} 100% {transform: rotate(47.268deg)}} #egl62u0WKoJ342_ts {animation: egl62u0WKoJ342_ts__ts 4505ms linear infinite normal forwards}@keyframes egl62u0WKoJ342_ts__ts { 0% {transform: scale(0,0)} 40.732519% {transform: scale(0,0);animation-timing-function: cubic-bezier(0.398,0,0.38,1)} 46.659267% {transform: scale(0.75,0.75);animation-timing-function: cubic-bezier(0.45,0,0.642,1)} 68.879023% {transform: scale(0,0)} 100% {transform: scale(0,0)}} #egl62u0WKoJ348_to {animation: egl62u0WKoJ348_to__to 4505ms linear infinite normal forwards}@keyframes egl62u0WKoJ348_to__to { 0% {offset-distance: 0%} 40.732519% {offset-distance: 0%;animation-timing-function: cubic-bezier(0.067,0,0.207,1)} 70.36626% {offset-distance: 100%} 100% {offset-distance: 100%}} #egl62u0WKoJ348_tr {animation: egl62u0WKoJ348_tr__tr 4505ms linear infinite normal forwards}@keyframes egl62u0WKoJ348_tr__tr { 0% {transform: rotate(-106deg)} 40.732519% {transform: rotate(-106deg);animation-timing-function: cubic-bezier(0.144,0.318,0.406,0.852)} 74.073252% {transform: rotate(113.369deg)} 100% {transform: rotate(113.369deg)}} #egl62u0WKoJ348_ts {animation: egl62u0WKoJ348_ts__ts 4505ms linear infinite normal forwards}@keyframes egl62u0WKoJ348_ts__ts { 0% {transform: scale(0,0)} 40.732519% {transform: scale(0,0);animation-timing-function: cubic-bezier(0.398,0,0.38,1)} 46.659267% {transform: scale(0.5,0.5);animation-timing-function: cubic-bezier(0.45,0,0.642,1)} 70.36626% {transform: scale(0,0)} 100% {transform: scale(0,0)}} #egl62u0WKoJ354_to {animation: egl62u0WKoJ354_to__to 4505ms linear infinite normal forwards}@keyframes egl62u0WKoJ354_to__to { 0% {offset-distance: 0%} 40.732519% {offset-distance: 0%;animation-timing-function: cubic-bezier(0.067,0,0.207,1)} 70.36626% {offset-distance: 100%} 100% {offset-distance: 100%}} #egl62u0WKoJ354_tr {animation: egl62u0WKoJ354_tr__tr 4505ms linear infinite normal forwards}@keyframes egl62u0WKoJ354_tr__tr { 0% {transform: rotate(162deg)} 40.732519% {transform: rotate(162deg);animation-timing-function: cubic-bezier(0.006,0.482,0.369,0.893)} 74.073252% {transform: rotate(-15.236deg)} 100% {transform: rotate(-15.236deg)}} #egl62u0WKoJ354_ts {animation: egl62u0WKoJ354_ts__ts 4505ms linear infinite normal forwards}@keyframes egl62u0WKoJ354_ts__ts { 0% {transform: scale(0,0)} 40.732519% {transform: scale(0,0);animation-timing-function: cubic-bezier(0.398,0,0.38,1)} 46.659267% {transform: scale(1,1);animation-timing-function: cubic-bezier(0.45,0,0.642,1)} 65.90455% {transform: scale(0,0)} 100% {transform: scale(0,0)}} #egl62u0WKoJ363_to {animation: egl62u0WKoJ363_to__to 4505ms linear infinite normal forwards}@keyframes egl62u0WKoJ363_to__to { 0% {offset-distance: 0%} 40.732519% {offset-distance: 0%;animation-timing-function: cubic-bezier(0.067,0,0.207,1)} 71.831299% {offset-distance: 100%} 100% {offset-distance: 100%}} #egl62u0WKoJ363_tr {animation: egl62u0WKoJ363_tr__tr 4505ms linear infinite normal forwards}@keyframes egl62u0WKoJ363_tr__tr { 0% {transform: rotate(115deg)} 40.732519% {transform: rotate(115deg);animation-timing-function: cubic-bezier(0.052,0.239,0.381,0.835)} 74.073252% {transform: rotate(-43.191deg)} 100% {transform: rotate(-43.191deg)}} #egl62u0WKoJ363_ts {animation: egl62u0WKoJ363_ts__ts 4505ms linear infinite normal forwards}@keyframes egl62u0WKoJ363_ts__ts { 0% {transform: scale(0,0)} 40.732519% {transform: scale(0,0);animation-timing-function: cubic-bezier(0.398,0,0.38,1)} 46.659267% {transform: scale(1,1);animation-timing-function: cubic-bezier(0.45,0,0.642,1)} 70.36626% {transform: scale(0,0)} 100% {transform: scale(0,0)}} #egl62u0WKoJ369_to {animation: egl62u0WKoJ369_to__to 4505ms linear infinite normal forwards}@keyframes egl62u0WKoJ369_to__to { 0% {offset-distance: 0%} 40.732519% {offset-distance: 0%;animation-timing-function: cubic-bezier(0.067,0,0.207,1)} 69.611543% {offset-distance: 100%} 100% {offset-distance: 100%}} #egl62u0WKoJ369_tr {animation: egl62u0WKoJ369_tr__tr 4505ms linear infinite normal forwards}@keyframes egl62u0WKoJ369_tr__tr { 0% {transform: rotate(29deg)} 40.732519% {transform: rotate(29deg);animation-timing-function: cubic-bezier(0.144,-0.684,0.406,0.61)} 74.073252% {transform: rotate(-73.102deg)} 100% {transform: rotate(-73.102deg)}} #egl62u0WKoJ369_ts {animation: egl62u0WKoJ369_ts__ts 4505ms linear infinite normal forwards}@keyframes egl62u0WKoJ369_ts__ts { 0% {transform: scale(0,0)} 40.732519% {transform: scale(0,0);animation-timing-function: cubic-bezier(0.398,0,0.38,1)} 46.659267% {transform: scale(1.2,1.2);animation-timing-function: cubic-bezier(0.45,0,0.642,1)} 70.36626% {transform: scale(0,0)} 100% {transform: scale(0,0)}} #egl62u0WKoJ375_to {animation: egl62u0WKoJ375_to__to 4505ms linear infinite normal forwards}@keyframes egl62u0WKoJ375_to__to { 0% {offset-distance: 0%} 40.732519% {offset-distance: 0%;animation-timing-function: cubic-bezier(0.067,0,0.207,1)} 72.586016% {offset-distance: 100%} 100% {offset-distance: 100%}} #egl62u0WKoJ375_tr {animation: egl62u0WKoJ375_tr__tr 4505ms linear infinite normal forwards}@keyframes egl62u0WKoJ375_tr__tr { 0% {transform: rotate(80deg)} 40.732519% {transform: rotate(80deg);animation-timing-function: cubic-bezier(0.144,-0.591,0.406,0.632)} 74.073252% {transform: rotate(-38.129deg)} 100% {transform: rotate(-38.129deg)}} #egl62u0WKoJ375_ts {animation: egl62u0WKoJ375_ts__ts 4505ms linear infinite normal forwards}@keyframes egl62u0WKoJ375_ts__ts { 0% {transform: scale(0,0)} 40.732519% {transform: scale(0,0);animation-timing-function: cubic-bezier(0.398,0,0.38,1)} 46.659267% {transform: scale(1.1,1.1);animation-timing-function: cubic-bezier(0.45,0,0.642,1)} 69.611543% {transform: scale(0,0)} 100% {transform: scale(0,0)}} #egl62u0WKoJ382_ts {animation: egl62u0WKoJ382_ts__ts 4505ms linear infinite normal forwards}@keyframes egl62u0WKoJ382_ts__ts { 0% {transform: translate(528.067px,435.6px) scale(0,0)} 40.732519% {transform: translate(528.067px,435.6px) scale(0,0);animation-timing-function: cubic-bezier(0.167,0.167,0,1)} 51.098779% {transform: translate(528.067px,435.6px) scale(2.0691,2.0691)} 100% {transform: translate(528.067px,435.6px) scale(2.0691,2.0691)}} #egl62u0WKoJ383_tr {animation: egl62u0WKoJ383_tr__tr 4505ms linear infinite normal forwards}@keyframes egl62u0WKoJ383_tr__tr { 0% {transform: translate(112.906px,36.68px) rotate(-130deg)} 45.926748% {transform: translate(112.906px,36.68px) rotate(-130deg);animation-timing-function: cubic-bezier(0.167,0.167,0,1)} 51.853496% {transform: translate(112.906px,36.68px) rotate(0deg)} 100% {transform: translate(112.906px,36.68px) rotate(0deg)}} #egl62u0WKoJ383_ts {animation: egl62u0WKoJ383_ts__ts 4505ms linear infinite normal forwards}@keyframes egl62u0WKoJ383_ts__ts { 0% {transform: scale(0,0)} 45.926748% {transform: scale(0,0);animation-timing-function: cubic-bezier(0.167,0.167,0.667,1)} 49.63374% {transform: scale(0.72727,0.72727);animation-timing-function: cubic-bezier(0.333,0,0.667,1)} 52.586016% {transform: scale(0.57851,0.57851)} 100% {transform: scale(0.57851,0.57851)}} #egl62u0WKoJ384 {animation: egl62u0WKoJ384_c_o 4505ms linear infinite normal forwards}@keyframes egl62u0WKoJ384_c_o { 0% {opacity: 0} 44.217536% {opacity: 0;animation-timing-function: step-end} 44.439512% {opacity: 1;animation-timing-function: step-end} 100% {opacity: 0.958283}} #egl62u0WKoJ389_ts {animation: egl62u0WKoJ389_ts__ts 4505ms linear infinite normal forwards}@keyframes egl62u0WKoJ389_ts__ts { 0% {transform: translate(528.067px,435.6px) scale(0,0)} 40.732519% {transform: translate(528.067px,435.6px) scale(0,0);animation-timing-function: cubic-bezier(0.167,0.167,0,1)} 51.098779% {transform: translate(528.067px,435.6px) scale(2.0691,2.0691)} 100% {transform: translate(528.067px,435.6px) scale(2.0691,2.0691)}} #egl62u0WKoJ390_tr {animation: egl62u0WKoJ390_tr__tr 4505ms linear infinite normal forwards}@keyframes egl62u0WKoJ390_tr__tr { 0% {transform: translate(112.906px,36.68px) rotate(-130deg)} 45.926748% {transform: translate(112.906px,36.68px) rotate(-130deg);animation-timing-function: cubic-bezier(0.167,0.167,0,1)} 51.853496% {transform: translate(112.906px,36.68px) rotate(0deg)} 100% {transform: translate(112.906px,36.68px) rotate(0deg)}} #egl62u0WKoJ390_ts {animation: egl62u0WKoJ390_ts__ts 4505ms linear infinite normal forwards}@keyframes egl62u0WKoJ390_ts__ts { 0% {transform: scale(0,0)} 45.926748% {transform: scale(0,0);animation-timing-function: cubic-bezier(0.167,0.167,0.667,1)} 49.63374% {transform: scale(0.72727,0.72727);animation-timing-function: cubic-bezier(0.333,0,0.667,1)} 52.586016% {transform: scale(0.57851,0.57851)} 100% {transform: scale(0.57851,0.57851)}} #egl62u0WKoJ392 {animation: egl62u0WKoJ392_c_o 4505ms linear infinite normal forwards}@keyframes egl62u0WKoJ392_c_o { 0% {opacity: 0} 44.217536% {opacity: 0;animation-timing-function: step-end} 44.439512% {opacity: 1;animation-timing-function: step-end} 100% {opacity: 0.958283}}
]]></style>
<g transform="matrix(1.71 0 0 1.71 7.84641 8.06319)"><g transform="translate(302.464 222.701)"><path d="M299.955,-188.653c0,0,0,368.145,0,368.145c0,5.054-4.13,9.161-9.21,9.161c0,0-581.5,0-581.5,0-5.079,0-9.209-4.107-9.209-9.161c0,0,0-368.145,0-368.145s599.928,0,599.928,0" fill="#fbf5f3" stroke-width="0"/></g><g transform="translate(302.464 222.701)"><path d="M299.955,-188.653c0,0,0,368.145,0,368.145c0,5.054-4.13,9.161-9.21,9.161c0,0-581.5,0-581.5,0-5.079,0-9.209-4.107-9.209-9.161c0,0,0-368.145,0-368.145s599.928,0,599.928,0" paint-order="stroke fill markers" fill="none" fill-rule="evenodd" stroke="#ffdddb" stroke-miterlimit="10"/></g><g transform="translate(302.394 18.462)"><path d="M299.983,16.698c0,0-599.879,1.514-599.879,1.514s-.068-24.562-.068-24.562c-.019-5.719,4.624-10.367,10.369-10.377c0,0,579.093-1.466,579.093-1.466c5.736-.019,10.408,4.61,10.418,10.329c0,0,.067,24.562.067,24.562Z" fill="#5f0b22" stroke-width="0"/></g><g transform="translate(94.664 26.75)"><path d="M0.954,-0.896c-.145-.041-.311-.103-.467-.145-.155-.041-.28-.093-.394-.145-.103-.041-.197-.104-.259-.176-.041-.062-.072-.124-.072-.207c0-.135.062-.239.165-.332.125-.093.28-.134.498-.134.166,0,.342.031.529.103.187.073.373.176.57.342c0,0,.146.124.146.124s.881-1.74.881-1.74-.135-.072-.135-.072c-.363-.197-.746-.342-1.14-.436-.82-.207-1.608-.196-2.22.031-.331.125-.601.28-.819.508s-.404.477-.529.777c-.124.3-.176.642-.176,1.015s.062.684.176.943c.125.238.28.466.477.611.197.166.415.28.664.394.228.093.467.176.705.259.208.072.373.134.508.176.135.041.239.103.311.165.073.042.125.104.145.166.032.062.042.135.042.207c0,.135-.062.259-.176.363-.125.104-.311.166-.571.166-.238,0-.497-.062-.746-.166-.26-.124-.529-.28-.778-.528c0,0-.145-.125-.145-.125s-.944,1.782-.944,1.782.104.073.104.073c.798.549,1.659.818,2.592.818.446,0,.851-.062,1.214-.176s.674-.301.912-.528c.259-.228.446-.498.581-.808.135-.311.197-.663.197-1.047c0-.569-.145-1.046-.446-1.409-.311-.341-.778-.631-1.41-.849c0,0,.01,0,.01,0Z" fill="#fff" stroke-width="0"/></g><g transform="translate(100.295 26.787)"><path d="M-2.592,-1.855c0,0,1.534,0,1.534,0s0,5.563,0,5.563s2.136,0,2.136,0s0-5.563,0-5.563s1.514,0,1.514,0s0-1.853,0-1.853-5.184,0-5.184,0s0,1.853,0,1.853Z" fill="#fff" stroke-width="0"/></g><g transform="translate(120.314 26.803)"><path d="M0.907,0.71c.436-.135.778-.364,1.016-.674.281-.363.416-.838.416-1.408c0-.311-.042-.632-.146-.901-.103-.28-.259-.54-.466-.747-.209-.207-.467-.393-.779-.507-.31-.124-.673-.176-1.098-.176c0,0-3.029,0-3.029,0s0,7.406,0,7.406s2.147,0,2.147,0s0-2.383,0-2.383s1.524,2.383,1.524,2.383s2.687,0,2.687,0-2.282-2.993-2.282-2.993.01,0,.01,0Z" fill="#fff" stroke-width="0"/><path d="M-1.043,-2.005c0,0,.197,0,.197,0c.333,0,.582.063.747.198.145.124.239.299.239.537c0,.239-.073.405-.239.54-.165.135-.414.196-.747.196c0,0-.197,0-.197,0s0-1.471,0-1.471Z" fill="#680021" stroke-width="0"/></g><g transform="translate(30.718 17.78)"><path d="M1.644,-4.491c0,0-1.638,4.362-1.638,4.362s-1.628-4.362-1.628-4.362-2.48,0-2.48,0-1.524,8.982-1.524,8.982s2.562,0,2.562,0s.673-4.568.673-4.568s1.785,4.568,1.785,4.568s1.109,0,1.109,0s1.888-4.578,1.888-4.578.684,4.578.684,4.578s2.551,0,2.551,0-1.524-8.982-1.524-8.982-2.458,0-2.458,0Z" fill="#fff" stroke-width="0"/></g><g transform="translate(41.42 17.769)"><path d="M-1.344,-4.48c0,0-3.431,8.981-3.431,8.981s2.737,0,2.737,0s.53-1.512.53-1.512s3.016,0,3.016,0s.53,1.512.53,1.512s2.737,0,2.737,0-3.433-9.002-3.433-9.002-2.686.01-2.686.01s0,.011,0,.011Z" fill="#fff" stroke-width="0"/><path d="M0.804,0.979c0,0-1.607,0-1.607,0s.809-2.289.809-2.289.798,2.289.798,2.289Z" fill="#680021" stroke-width="0"/></g><g transform="translate(50.323 17.801)"><path d="M2.343,0.026c.343-.436.509-1.005.509-1.689c0-.394-.063-.746-.197-1.098-.125-.342-.312-.642-.571-.901s-.57-.466-.943-.611c-.374-.146-.82-.228-1.317-.228c0,0-3.671,0-3.671,0s0,9.002,0,9.002s2.561,0,2.561,0s0-3.015,0-3.015s1.929,2.984,1.929,2.984s3.204,0,3.204,0-2.789-3.626-2.789-3.626c.539-.166.974-.435,1.275-.818c0,0,.01,0,.01,0Z" fill="#fff" stroke-width="0"/><path d="M-1.286,-2.471c0,0,.28,0,.28,0c.404,0,.716.073.933.238.208.145.301.373.301.674c0,.3-.093.528-.301.673-.207.166-.529.238-.933.238c0,0-.28,0-.28,0s0-1.823,0-1.823Z" fill="#680021" stroke-width="0"/></g><g transform="translate(58.769 17.779)"><path d="M3.987,-4.491c0,0-3.194,0-3.194,0s-2.53,3.294-2.53,3.294s0-3.294,0-3.294-2.561,0-2.561,0s0,8.982,0,8.982s2.561,0,2.561,0s0-3.47,0-3.47s2.727,3.47,2.727,3.47s3.308,0,3.308,0-3.899-4.714-3.899-4.714s3.588-4.268,3.588-4.268Z" fill="#fff" stroke-width="0"/></g><g transform="translate(65.997 17.78)"><path d="M-2.628,4.49c0,0,5.256,0,5.256,0s0-2.195,0-2.195-2.696,0-2.696,0s0-1.202,0-1.202s2.552,0,2.552,0s0-2.217,0-2.217-2.552,0-2.552,0s0-1.149,0-1.149s2.696,0,2.696,0s0-2.217,0-2.217-5.256,0-5.256,0s0,8.98,0,8.98Z" fill="#fff" stroke-width="0"/></g><g transform="translate(72.214 17.779)"><path d="M-3.132,-2.274c0,0,1.835,0,1.835,0s0,6.764,0,6.764s2.573,0,2.573,0s0-6.764,0-6.764s1.856,0,1.856,0s0-2.216,0-2.216-6.264,0-6.264,0s0,2.216,0,2.216Z" fill="#fff" stroke-width="0"/></g><g transform="translate(77.072 17.789)"><path d="M1.281,-4.501c0,0-2.562,0-2.562,0s0,9.002,0,9.002s2.562,0,2.562,0s0-9.002,0-9.002Z" fill="#fff" stroke-width="0"/></g><g transform="translate(83.304 17.78)"><path d="M1.945,0.543c0,0-3.952-5.034-3.952-5.034s-2.488,0-2.488,0s0,8.982,0,8.982s2.561,0,2.561,0s0-5.025,0-5.025s3.952,5.025,3.952,5.025s2.477,0,2.477,0s0-8.982,0-8.982-2.55,0-2.55,0s0,5.034,0,5.034Z" fill="#fff" stroke-width="0"/></g><g transform="translate(92.791 17.759)"><path d="M-0.067,-0.658c0,0,0,2.051,0,2.051s1.825,0,1.825,0c-.041.166-.093.301-.166.415-.093.165-.228.279-.363.393-.145.104-.311.176-.508.228s-.404.072-.612.072c-.363,0-.674-.062-.933-.176s-.477-.279-.664-.497c-.176-.207-.311-.476-.404-.766-.093-.301-.135-.632-.135-.984c0-.394.062-.746.166-1.067.104-.322.259-.581.436-.798.176-.207.404-.394.663-.497.259-.125.539-.176.85-.176.374,0,.716.103,1.006.279.301.197.54.508.716.953c0,0,.062.135.062.135s2.427-1.005,2.427-1.005-.073-.145-.073-.145c-.415-.849-.975-1.481-1.69-1.885-.705-.404-1.525-.611-2.458-.611-.715,0-1.379.124-1.96.341-.58.228-1.099.549-1.514.974-.414.425-.746.912-.974,1.502-.229.591-.343,1.233-.343,1.917c0,.683.125,1.346.343,1.926.217.58.549,1.098.974,1.502.415.415.913.746,1.483.974.571.228,1.213.342,1.908.342.508,0,.985-.062,1.452-.197.467-.134.881-.311,1.275-.549.395-.238.737-.549,1.017-.911.28-.363.508-.777.674-1.243.124-.332.197-.705.238-1.078.042-.373.062-.808.062-1.274c0,0,0-.145,0-.145s-4.78,0-4.78,0Z" fill="#fff" stroke-width="0"/></g><g transform="translate(109.56 23.741)"><path d="M11.267,-6.62c0,0-18.24,13.24-18.24,13.24s1.534-5.998,1.534-5.998s10.339-5.024,10.339-5.024-11.034,3.511-11.034,3.511-5.133-5.729-5.133-5.729s22.534,0,22.534,0Z" fill="#f00" stroke-width="0"/></g><g transform="translate(109.555 12.476)"><path d="M-3.484,3.527c0,0,3.483-7.054,3.483-7.054s3.485,7.054,3.485,7.054-6.968,0-6.968,0Z" fill="#fff" stroke-width="0"/></g><g transform="translate(113.033 26.487)"><path d="M2.162,-3.875c0,0,1.317,7.75,1.317,7.75s-6.958-3.658-6.958-3.658s5.641-4.092,5.641-4.092Z" fill="#fff" stroke-width="0"/></g></g><g transform="matrix(1.71 0 0 1.71 359.47246 25.86194)"><g transform="translate(17.133 26.661)"><path d="M0,15.835c8.772,0,15.883-7.09,15.883-15.835s-7.111-15.835-15.883-15.835-15.883,7.09-15.883,15.835s7.111,15.835,15.883,15.835Z" fill="#fff" stroke-width="0"/></g><g transform="translate(17.133 26.661)"><path d="M0,15.835c8.772,0,15.883-7.09,15.883-15.835s-7.111-15.835-15.883-15.835-15.883,7.09-15.883,15.835s7.111,15.835,15.883,15.835Z" paint-order="stroke fill markers" fill="none" fill-rule="evenodd" stroke="#971c00" stroke-width="0.5" stroke-miterlimit="10"/></g><g transform="translate(23.102 27.177)"><path d="M4.788,4.392c-.444-.212-.909-.386-1.393-.521-.028-.009-1.509-.395-2.206-.771c0,0-.057-.039-.057-.039-.145-.096-.243-.259-.243-.433c0,0,0-.917,0-.917s2.032.058,2.989-.926c0,0-1.401-.394-1.159-2.94.241-2.546-.33-4.783-2.39-4.59c0,0-.891-1.072-2.661-.387-.609.241-2.234.82-2.148,4.349.098,3.53-1.247,3.559-1.247,3.559s.706,1.003,3.047.974c0,0,0,.878,0,.878c0,.155-.076.289-.192.395.696.578,1.247,1.176,1.652,2.063.426.926.436,1.804.552,2.73c0,0,4.488,0,4.488,0c1.055-.02,1.907-.867,1.907-1.919c0,0,0-.173,0-.173-.059-.579-.416-1.09-.948-1.341c0,0,.009.009.009.009Z" fill="#4d0000" stroke-width="0"/></g><g transform="translate(13.527 26.603)"><path d="M7.738,6.76C7.361,5.564,6.713,4.813,5.736,4.071c-.01-.01-.02-.029-.03-.039-.927-.646-2.843-1.389-3.85-1.91c0,0,.02-.974.02-.974.59-.26.957-1.621,1.045-2.016.203.116.493.039.813-1.109.28-.955.116-1.262-.127-1.34c0,0-.076,0-.076,0c.038-.115.038-.203.038-.203.889-3.645-1.199-3.481-1.199-3.481-.165-.714-1.229-1.457-2.215-1.264-.977.203-3.028-.029-3.028-.029-.039.434.329.714.329.714-2.08,1.234-1.219,4.079-1.219,4.079-.329-.038-.697.165-.319,1.351.251.868.493,1.109.696,1.148.088.511.542,1.86,1.035,2.169c0,0,0,.974,0,.974-1.499.781-3.87,1.88-5.174,2.951-.349.289-.542.724-.533,1.168c0,0,0,.664,0,.664c0,.849.697,1.534,1.538,1.525c0,0,14.587-.039,14.587-.039s-.319-1.65-.319-1.65-.01,0-.01,0Z" fill="#ff1300" stroke-width="0"/></g><g transform="translate(176.415 26.236)"><path d="M0,15.835C8.772,15.835,15.883,8.746,15.883,0c0-8.745-7.111-15.835-15.883-15.835s-15.883,7.09-15.883,15.835c0,8.746,7.111,15.835,15.883,15.835Z" fill="#ff1300" stroke-width="0"/></g><g transform="translate(54.064 25.841)"><path d="M0,17.281c9.573,0,17.334-7.736,17.334-17.28c0-9.545-7.761-17.282-17.334-17.282-9.574,0-17.334,7.737-17.334,17.282c0,9.544,7.76,17.28,17.334,17.28Z" fill="#fff" stroke-width="0"/></g><g transform="translate(54.064 25.841)"><path d="M0,17.281c9.573,0,17.334-7.736,17.334-17.28c0-9.545-7.761-17.282-17.334-17.282-9.574,0-17.334,7.737-17.334,17.282c0,9.544,7.76,17.28,17.334,17.28Z" paint-order="stroke fill markers" fill="none" fill-rule="evenodd" stroke="#971c00" stroke-width="0.5" stroke-miterlimit="10"/></g><g transform="translate(96.759 22.128)"><path d="M0.001,20.878c11.566,0,20.94-9.347,20.94-20.877c0-11.531-9.374-20.879-20.94-20.879s-20.942,9.348-20.942,20.879c0,11.53,9.376,20.877,20.942,20.877Z" fill="#fff" stroke-width="0"/></g><g transform="translate(96.759 22.128)"><path d="M0.001,20.878c11.566,0,20.94-9.347,20.94-20.877c0-11.531-9.374-20.879-20.94-20.879s-20.942,9.348-20.942,20.879c0,11.53,9.376,20.877,20.942,20.877Z" paint-order="stroke fill markers" fill="none" fill-rule="evenodd" stroke="#971c00" stroke-width="0.5" stroke-miterlimit="10"/></g><g transform="translate(139.485 25.61)"><path d="M0,17.281c9.574,0,17.334-7.736,17.334-17.28c0-9.545-7.76-17.282-17.334-17.282-9.573,0-17.334,7.737-17.334,17.282c0,9.544,7.761,17.28,17.334,17.28Z" fill="#fff" stroke-width="0"/></g><g transform="translate(139.485 25.61)"><path d="M0,17.281c9.574,0,17.334-7.736,17.334-17.28c0-9.545-7.76-17.282-17.334-17.282-9.573,0-17.334,7.737-17.334,17.282c0,9.544,7.761,17.28,17.334,17.28Z" paint-order="stroke fill markers" fill="none" fill-rule="evenodd" stroke="#971c00" stroke-width="0.5" stroke-miterlimit="10"/></g><g transform="translate(52.439 22.365)"><path d="M9.431,-5.888c0,0-18.484,7.996-18.484,7.996-.368.163-.377.675-.029.867c0,0,5.34,2.913,5.34,2.913s13.173-11.776,13.173-11.776Z" fill="#ff1300" stroke-width="0"/></g><g transform="translate(56.27 25.745)"><path d="M-6.297,3.674c0,0,11.974-12.865,11.974-12.865.242-.26.668-.029.59.319c0,0-4.063,17.214-4.063,17.214-.106.443-.609.655-1.005.424c0,0-3.715-2.209-3.715-2.209-.077-.048-.172-.029-.23.029c0,0-2.439,2.44-2.439,2.44-.427.425-1.15.126-1.16-.472c0,0,0-4.755,0-4.755s0-.096.038-.125c0,0,.01,0,.01,0Z" fill="#4d0000" stroke-width="0"/></g><g transform="translate(176.408 20.854)"><path d="M7.793,-1.477c0,0-15.593.041-15.593.041-.507.001-.918.412-.916.918c0,0,.002,1.081.002,1.081.001.505.415.915.921.913c0,0,15.594-.041,15.594-.041.506-.001.917-.412.915-.918c0,0-.002-1.08-.002-1.08-.001-.506-.414-.915-.921-.914Z" fill="#fff" stroke-width="0"/></g><g transform="translate(182.381 20.829)"><path d="M1.361,-3.042c0,0-2.738.008-2.738.008s.018,6.076.018,6.076s2.736-.008,2.736-.008-.016-6.076-.016-6.076Z" fill="#fff" stroke-width="0"/></g><g transform="translate(182.424 20.829)"><path d="M0.786,-3.04c0,0-1.587.004-1.587.004s.016,6.076.016,6.076s1.586-.005,1.586-.005-.015-6.075-.015-6.075Z" fill="#ff3400" stroke-width="0"/></g><g transform="translate(176.414 26.93)"><path d="M7.793,-1.477c0,0-15.593.041-15.593.041-.507.001-.918.412-.916.918c0,0,.002,1.081.002,1.081.001.505.414.915.921.913c0,0,15.593-.041,15.593-.041.507-.001.918-.412.916-.918c0,0-.002-1.08-.002-1.08-.001-.506-.414-.915-.921-.914Z" fill="#fff" stroke-width="0"/></g><g transform="translate(176.264 26.882)"><path d="M1.361,-3.042c0,0-2.738.008-2.738.008s.016,6.076.016,6.076s2.738-.008,2.738-.008-.016-6.076-.016-6.076Z" fill="#fff" stroke-width="0"/></g><g transform="translate(176.259 26.93)"><path d="M0.786,-3.04c0,0-1.587.004-1.587.004s.016,6.076.016,6.076s1.586-.005,1.586-.005-.015-6.075-.015-6.075Z" fill="#ff3400" stroke-width="0"/></g><g transform="translate(176.43 33.005)"><path d="M7.792,-1.477c0,0-15.592.041-15.592.041-.508.001-.918.412-.917.918c0,0,.003,1.08.003,1.08.001.506.414.916.921.914c0,0,15.593-.041,15.593-.041.507-.001.918-.412.916-.918c0,0-.003-1.08-.003-1.08-.001-.506-.413-.915-.921-.914Z" fill="#fff" stroke-width="0"/></g><g transform="translate(170.563 32.992)"><path d="M1.361,-3.042c0,0-2.738.008-2.738.008s.016,6.076.016,6.076s2.738-.008,2.738-.008-.016-6.076-.016-6.076Z" fill="#fff" stroke-width="0"/></g><g transform="translate(170.5 33.021)"><path d="M0.786,-3.04c0,0-1.587.004-1.587.004s.016,6.076.016,6.076s1.586-.005,1.586-.005-.015-6.075-.015-6.075Z" fill="#ff3400" stroke-width="0"/></g><g transform="translate(102.685 10.03)"><path d="M-2.52,1.808c0,0,2.206-3.231,2.206-3.231s2.273-2.025,2.554-.626c.28,1.398.067,2.016.067,2.016s-1.644,3.48-1.644,3.48-1.838-1.359-3.183-1.639Z" fill="#fff" stroke-width="0"/></g><g transform="translate(96.765 16.468)"><path d="M-10.586,7.57c-.184-.781-.271-1.59-.271-2.4-.02-5.97,4.846-10.84,10.834-10.859c5.987-.019,10.872,4.83,10.891,10.8c0,.733-.068,1.466-.212,2.189-.068.347-.165.685-.262,1.013c0,0,2.766,0,2.766,0c.04-.164.088-.328.116-.483.184-.887.271-1.803.271-2.719-.019-7.445-6.113-13.482-13.57-13.463-7.459.02-13.524,6.095-13.504,13.53c0,1.013.116,2.017.339,2.991.019.067.038.134.058.201c0,0,2.775,0,2.775,0-.076-.27-.154-.53-.222-.8c0,0-.009,0-.009,0Z" fill="#4d0000" stroke-width="0"/></g><g transform="translate(96.776 25.297)"><path d="M-10.026,0.525c0,0,20.033-.057,20.033-.057.135-.328.26-.656.367-.993c0,0-20.748.058-20.748.058.107.337.223.674.358.992c0,0-.01,0-.01,0Z" fill="#fff" stroke-width="0"/></g><g transform="translate(83.272 25.335)"><path d="M-0.614,-0.497c0,0,0,.994,0,.994s1.238,0,1.238,0c-.106-.328-.194-.656-.281-.994c0,0-.967,0-.967,0s.01,0,.01,0Z" fill="#fff" stroke-width="0"/></g><g transform="translate(110.462 25.258)"><path d="M0.828,-0.497c0,0-1.375,0-1.375,0-.078.338-.174.676-.281.994c0,0,1.656,0,1.656,0s0-.994,0-.994Z" fill="#fff" stroke-width="0"/></g><g transform="translate(85.192 25.33)"><path d="M1.209,-0.502c0,0-2.776,0-2.776,0c.087.347.174.676.28,1.004c0,0,2.854,0,2.854,0-.136-.328-.252-.666-.358-1.004Z" fill="#fff" stroke-width="0"/></g><g transform="translate(108.35 25.263)"><path d="M-1.2,-0.492c-.106.338-.232.675-.367.993c0,0,2.853,0,2.853,0c.106-.337.193-.664.281-1.002c0,0-2.767,0-2.767,0s0,.009,0,.009Z" fill="#fff" stroke-width="0"/></g><g transform="translate(103.366 11.145)"><path d="M-3.791,1.658c0,0,3.473-5.102,3.473-5.102s4.109-.192,2.998,2.103C1.567,0.964,0.455,3.635,0.455,3.635s-2.061-1.919-4.237-1.977c0,0-.009,0-.009,0Z" fill="#fff" stroke-width="0"/></g><g transform="translate(99.517 16.921)"><path d="M-1.345,7.368c0,0,7.07-15.208,7.07-15.208.156-.309,0-.781-.319-.935-.319-.155-.783-.078-1.015.241c0,0-9.731,13.655-9.731,13.655s0,.077,0,.077c-.464.781-.541,1.64-.145,2.334.155.309.474.617.784.858.551.386,1.17.54,1.721.386.63-.232,1.248-.704,1.635-1.408Z" fill="#ff1300" stroke-width="0"/></g><g transform="translate(132.45 31.567)"><path d="M0.994,-2.732c0,0-2.002.005-2.002.005-.337.001-.609.274-.608.609c0,0,.011,4.244.011,4.244.001.335.274.606.611.605c0,0,2.002-.005,2.002-.005.337-.001.609-.272.608-.608c0,0-.011-4.244-.011-4.244-.001-.336-.274-.607-.611-.606Z" fill="#4d0000" stroke-width="0"/></g><g transform="translate(138.818 28.932)"><path d="M0.988,-5.341c0,0-2.002.005-2.002.005-.337.001-.61.274-.61.609c0,0,.025,9.461.025,9.461.002.335.276.607.612.606c0,0,2.001-.004,2.001-.004.337-.001.61-.275.61-.611c0,0-.025-9.459-.025-9.459-.001-.335-.274-.608-.611-.607Z" fill="#4d0000" stroke-width="0"/></g><g transform="translate(145.192 25.622)"><path d="M0.978,-8.643c0,0-2.002.005-2.002.005-.337.001-.609.274-.608.609c0,0,.043,16.067.043,16.067c0,.335.274.606.611.605c0,0,2.002-.005,2.002-.005.337-.001.609-.273.608-.609c0,0-.042-16.066-.042-16.066-.001-.336-.275-.607-.612-.606Z" transform="translate(-.204651 0)" fill="#4d0000" stroke-width="0"/></g></g><g transform="matrix(1.71 0 0 1.71 17.13 156.511)"><g transform="translate(297.039 146.886)"><path d="M273.58,130.926c0,0-547.16,0-547.16,0-3.944,0-7.141-3.197-7.141-7.141c0,0,0-247.57,0-247.57c0-3.944,3.197-7.141,7.141-7.141c0,0,547.16,0,547.16,0c3.944,0,7.141,3.197,7.141,7.141c0,0,0,247.57,0,247.57c0,3.944-3.197,7.141-7.141,7.141Z" fill="#fdfdfd" stroke-width="0"/></g><g transform="translate(297.039 146.886)"><path d="M273.58,130.926c0,0-547.16,0-547.16,0-3.944,0-7.141-3.197-7.141-7.141c0,0,0-247.57,0-247.57c0-3.944,3.197-7.141,7.141-7.141c0,0,547.16,0,547.16,0c3.944,0,7.141,3.197,7.141,7.141c0,0,0,247.57,0,247.57c0,3.944-3.197,7.141-7.141,7.141Z" paint-order="stroke fill markers" fill="none" fill-rule="evenodd" stroke="#ffdddb" stroke-miterlimit="10"/></g><g transform="translate(242.799 36.195)"><path d="M0,-0.921c-.508,0-.921.413-.921.922c0,.508.413.92.921.92.509,0,.921-.412.921-.92c0-.509-.412-.922-.921-.922Z" fill="#28bef4" stroke-width="0"/></g><g transform="translate(372.596 74.468)"><path d="M0,-0.632c0,0,0,0,0,0-.349,0-.632.283-.632.632s.283.632.632.632.632-.283.632-.632-.283-.632-.632-.632Z" fill="#eaeaea" stroke-width="0"/></g><g transform="translate(369.379 95.913)"><path d="M0,-0.632c0,0,0,0,0,0-.349,0-.632.283-.632.632s.283.632.632.632.632-.283.632-.632-.283-.632-.632-.632Z" fill="#eaeaea" stroke-width="0"/></g><g transform="translate(57.102 116.385)"><path d="M18.585,86.988c0,0-37.171,0-37.171,0-3.863,0-6.996-3.132-6.996-6.996c0,0,0-159.984,0-159.984c0-3.847,3.149-6.996,6.996-6.996c0,0,37.171,0,37.171,0c3.848,0,6.996,3.149,6.996,6.996c0,0,0,159.984,0,159.984c0,3.864-3.132,6.996-6.996,6.996Z" fill="#ffe5e2" stroke-width="0"/></g><g transform="translate(57.102 54.44)"><path d="M25.581,25.042c0,0-51.162,0-51.162,0s0-43.73,0-43.73c0-3.495,2.859-6.354,6.354-6.354c0,0,38.454,0,38.454,0c3.495,0,6.354,2.859,6.354,6.354c0,0,0,43.73,0,43.73Z" fill="#680021" stroke-width="0"/></g><g transform="translate(327.046 54.979)"><path d="M235.67,-18.586c0,0,0,37.171,0,37.171c0,3.863-3.133,6.996-6.997,6.996c0,0-457.346,0-457.346,0-3.848,0-6.996-3.149-6.996-6.996c0,0,0-37.171,0-37.171c0-3.848,3.148-6.995,6.996-6.995c0,0,457.346,0,457.346,0c3.864,0,6.997,3.131,6.997,6.995Z" fill="#fdfdfd" stroke-width="0"/></g><g transform="translate(327.046 54.979)"><path d="M235.67,-18.586c0,0,0,37.171,0,37.171c0,3.863-3.133,6.996-6.997,6.996c0,0-457.346,0-457.346,0-3.848,0-6.996-3.149-6.996-6.996c0,0,0-37.171,0-37.171c0-3.848,3.148-6.995,6.996-6.995c0,0,457.346,0,457.346,0c3.864,0,6.997,3.131,6.997,6.995Z" paint-order="stroke fill markers" fill="none" fill-rule="evenodd" stroke="#ffdddb" stroke-miterlimit="10"/></g><g transform="translate(119.09 54.899)"><path d="M27.651,25.502c0,0-48.919,0-48.919,0-3.525,0-6.383-2.858-6.383-6.383c0,0,0-38.238,0-38.238c0-3.51,2.873-6.383,6.383-6.383c0,0,48.919,0,48.919,0s0,51.004,0,51.004Z" fill="#680021" stroke-width="0"/></g><g transform="translate(98.055 101.607)"><path d="M-1.788,4.681c-.611-.255-1.155-.641-1.634-1.155c0,0,.773-.937.773-.937.351.429.772.756,1.264.983.493.224.993.338,1.498.338.616,0,1.108-.136,1.479-.407.372-.271.558-.641.558-1.111c0-.506-.208-.905-.623-1.197-.241-.173-.706-.388-1.394-.643c0,0-.007-.006-.007-.006s-.006,0-.006,0-.007,0-.007,0-.007-.007-.007-.007-.006,0-.006,0-.008-.006-.008-.006-.007,0-.007,0-.006,0-.006,0-.007-.007-.007-.007-.007,0-.007,0-.006,0-.006,0-.008-.008-.008-.008-.007,0-.007,0-.006-.006-.006-.006-.007,0-.007,0-.006,0-.006,0-.007-.007-.007-.007-.008,0-.008,0-.007-.008-.007-.008-.007,0-.007,0-.007,0-.007,0-.006-.005-.006-.005-.007,0-.007,0-.007,0-.007,0-.007-.008-.007-.008-.007,0-.007,0-.007-.006-.007-.006-.007,0-.007,0-.006,0-.006,0-.014-.008-.014-.008c-.251-.096-.461-.177-.632-.245s-.369-.158-.595-.268c-.226-.109-.414-.214-.564-.318-.15-.102-.307-.228-.468-.375-.162-.148-.29-.303-.383-.462s-.171-.345-.233-.558c-.061-.21-.092-.434-.092-.671c0-.488.133-.934.4-1.338.267-.403.632-.72,1.097-.95s.978-.345,1.538-.345c.547-.005,1.091.094,1.628.294.538.2,1.044.49,1.518.868c0,0-.733.943-.733.943-.387-.319-.792-.56-1.213-.724s-.824-.246-1.206-.246c-.315,0-.603.053-.865.16s-.477.271-.645.492c-.169.222-.254.482-.254.783-.005.446.212.814.649,1.101.242.164.721.384,1.437.657c0,0,.007.006.007.006s.006,0,.006,0s.007.007.007.007.006,0,.006,0s.007,0,.007,0s.008.006.008.006c.82.32,1.363.55,1.627.692.633.337,1.054.753,1.263,1.25.123.296.186.639.186,1.026c0,.356-.061.687-.181.993-.121.309-.286.572-.496.79-.209.219-.454.408-.735.564-.28.158-.582.273-.905.35-.324.074-.659.112-1.005.112-.647,0-1.277-.128-1.888-.383Z" fill="#680021" stroke-width="0"/></g><g transform="translate(108.35 101.609)"><path d="M4.891,-4.973c0,0,0,9.946,0,9.946s-1.217,0-1.217,0s0-7.622,0-7.622-.02,0-.02,0-3.241,5.619-3.241,5.619-.827,0-.827,0-3.24-5.619-3.24-5.619-.02,0-.02,0s0,7.622,0,7.622-1.217,0-1.217,0s0-9.946,0-9.946s1.223,0,1.223,0s3.651,6.433,3.651,6.433.041,0,.041,0s3.643-6.433,3.643-6.433s1.224,0,1.224,0Z" fill="#680021" stroke-width="0"/></g><g transform="translate(119.147 101.609)"><path d="M-3.383,-4.973c0,0,3.479,0,3.479,0c.565,0,1.062.077,1.491.232.428.155.771.372,1.028.653.258.28.451.604.578.971.127.366.19.776.19,1.227c0,.514-.084.969-.253,1.363-.168.395-.408.716-.72.965-.312.248-.68.433-1.101.557-.422.123-.897.184-1.426.184c0,0-2.05,0-2.05,0s0,3.794,0,3.794-1.216,0-1.216,0s0-9.946,0-9.946Z" fill="#680021" stroke-width="0"/><path d="M-0.225,0.058c.406,0,.76-.049,1.065-.147.306-.098.55-.237.732-.416.182-.181.319-.388.41-.624.091-.234.137-.497.137-.789c0-.62-.191-1.097-.571-1.431-.38-.336-.908-.503-1.583-.503c0,0-2.132,0-2.132,0s0,3.91,0,3.91s1.942,0,1.942,0Z" fill="#fdfdfd" stroke-width="0"/></g><g transform="translate(127.794 101.609)"><path d="M-3.383,-4.973c0,0,3.479,0,3.479,0c.565,0,1.062.077,1.491.232.428.155.771.372,1.028.653.258.28.451.604.578.971.127.366.19.776.19,1.227c0,.514-.084.969-.253,1.363-.168.395-.408.716-.72.965-.312.248-.68.433-1.101.557-.422.123-.897.184-1.426.184c0,0-2.05,0-2.05,0s0,3.794,0,3.794-1.216,0-1.216,0s0-9.946,0-9.946Z" fill="#680021" stroke-width="0"/><path d="M-0.225,0.058c.406,0,.76-.049,1.065-.147.306-.098.55-.237.732-.416.182-.181.319-.388.41-.624.091-.234.137-.497.137-.789c0-.62-.191-1.097-.571-1.431-.38-.336-.908-.503-1.583-.503c0,0-2.132,0-2.132,0s0,3.91,0,3.91s1.942,0,1.942,0Z" fill="#fdfdfd" stroke-width="0"/></g><g transform="translate(56.992 56.262)"><path d="M-13.144,-11.126c0,0,24.413,0,24.413,0c1.035,0,1.875.839,1.875,1.875c0,0,0,14.352,0,14.352c0,1.036-.84,1.875-1.875,1.875c0,0-21.969,0-21.969,0s-2.444,4.15-2.444,4.15s0-7.231,0-7.231s0-15.021,0-15.021Z" paint-order="stroke fill markers" fill="none" fill-rule="evenodd" stroke="#fdfdfd" stroke-linecap="round" stroke-linejoin="round"/></g><g><path d="M48.315,49.358c0,0,17.353,0,17.353,0" paint-order="stroke fill markers" fill="none" fill-rule="evenodd" stroke="#ff1600" stroke-linecap="round" stroke-linejoin="round"/></g><g><path d="M48.315,53.592c0,0,17.353,0,17.353,0" paint-order="stroke fill markers" fill="none" fill-rule="evenodd" stroke="#ff1600" stroke-linecap="round" stroke-linejoin="round"/></g><g><path d="M48.315,57.825c0,0,17.353,0,17.353,0" paint-order="stroke fill markers" fill="none" fill-rule="evenodd" stroke="#ff1600" stroke-linecap="round" stroke-linejoin="round"/></g><g transform="translate(114.716 55.107)"><path d="M8.407,5.794c0,0,0,8.931,0,8.931c0,.912-.739,1.652-1.651,1.652c0,0-13.781,0-13.781,0-.761,0-1.379-.616-1.382-1.377c0,0,0-29.737,0-29.737c0-.906.736-1.64,1.642-1.639c0,0,13.506,0,13.506,0c.919.003,1.663.748,1.666,1.667c0,0,0,2.539,0,2.539" paint-order="stroke fill markers" fill="none" fill-rule="evenodd" stroke="#fdfdfd" stroke-linecap="round" stroke-linejoin="round"/></g><g transform="translate(122.998 53.724)"><path d="M2.24,4.899c0,0,2.948,0,2.948,0s1.64,0,1.64,0c1.092,0,1.977-.885,1.977-1.977c0,0,0-10.018,0-10.018c0-.834-.676-1.511-1.51-1.511c0,0-16.098,0-16.098,0-.001,0-.002.001-.002.003c0,0,0,17.207,0,17.207c0,.002.002.004.004.002c0,0,3.781-3.712,3.781-3.712s1.079,0,1.079,0s2.12,0,2.12,0c1.073,0,1.943.868,1.946,1.941" paint-order="stroke fill markers" fill="none" fill-rule="evenodd" stroke="#ff1600" stroke-linecap="round" stroke-linejoin="round"/></g></g><g id="egl62u0WKoJ154_to" style="offset-path:path('M576.379,438.406C568.185,438.406,535.408,438.406,527.214,438.406');offset-rotate:0deg"><g id="egl62u0WKoJ154_ts" transform="scale(1.71,1.71)"><g transform="translate(-238.169,-41.229)"><g transform="translate(238.169 40.936)"><path d="M235.67,-31.44c0,0,0,62.88,0,62.88c0,3.864-3.133,6.996-6.997,6.996c0,0-457.346,0-457.346,0-3.848,0-6.996-3.148-6.996-6.996c0,0,0-62.88,0-62.88c0-3.848,3.148-6.996,6.996-6.996c0,0,457.346,0,457.346,0c3.864,0,6.997,3.132,6.997,6.996Z" fill="#fdfdfd" stroke-width="0"/></g><g transform="translate(238.169 40.936)"><path d="M235.67,-31.44c0,0,0,62.88,0,62.88c0,3.864-3.133,6.996-6.997,6.996c0,0-457.346,0-457.346,0-3.848,0-6.996-3.148-6.996-6.996c0,0,0-62.88,0-62.88c0-3.848,3.148-6.996,6.996-6.996c0,0,457.346,0,457.346,0c3.864,0,6.997,3.132,6.997,6.996Z" paint-order="stroke fill markers" fill="none" fill-rule="evenodd" stroke="#ffdddb" stroke-miterlimit="10"/></g><g transform="translate(238.169 15.876)"><path d="M235.67,-6.38c0,0,0,19.756,0,19.756s-471.339,0-471.339,0s0-19.756,0-19.756c0-3.848,3.148-6.996,6.996-6.996c0,0,457.346,0,457.346,0c3.864,0,6.997,3.132,6.997,6.996Z" fill="#8a2900" stroke-width="0"/></g><g><path d="M214.741,2.478c0,0,0,77.503,0,77.503" fill="#fdfdfd" stroke-width="0"/></g><g><path d="M214.741,2.478c0,0,0,77.503,0,77.503" paint-order="stroke fill markers" fill="none" fill-rule="evenodd" stroke="#ffdddb" stroke-miterlimit="10"/></g><g><path d="M303.145,2.478c0,0,0,77.503,0,77.503" fill="#fdfdfd" stroke-width="0"/></g><g><path d="M303.145,2.478c0,0,0,77.503,0,77.503" paint-order="stroke fill markers" fill="none" fill-rule="evenodd" stroke="#ffdddb" stroke-miterlimit="10"/></g><g><path d="M384.405,2.478c0,0,0,77.503,0,77.503" fill="#fdfdfd" stroke-width="0"/></g><g><path d="M384.405,2.478c0,0,0,77.503,0,77.503" paint-order="stroke fill markers" fill="none" fill-rule="evenodd" stroke="#ffdddb" stroke-miterlimit="10"/></g><g transform="translate(17.122 16.66)"><path d="M-1.533,4.013c-.523-.219-.99-.549-1.4-.99c0,0,.662-.803.662-.803.301.367.663.647,1.085.841.422.193.848.29,1.282.29.527,0,.951-.116,1.269-.349.319-.232.478-.55.478-.952c0-.433-.178-.775-.533-1.025-.207-.149-.606-.332-1.196-.551c0,0-.005-.006-.005-.006s-.006,0-.006,0-.007,0-.007,0-.006-.006-.006-.006-.005,0-.005,0-.006-.006-.006-.006-.006,0-.006,0-.005,0-.005,0-.006-.006-.006-.006-.006,0-.006,0-.007,0-.007,0-.005-.005-.005-.005-.006,0-.006,0-.006-.006-.006-.006-.005,0-.005,0-.006,0-.006,0-.006-.006-.006-.006-.007,0-.007,0-.005-.006-.005-.006-.007,0-.007,0-.006,0-.006,0-.005-.006-.005-.006-.006,0-.006,0-.006,0-.006,0-.006-.006-.006-.006-.006,0-.006,0-.006-.006-.006-.006-.006,0-.006,0-.005,0-.005,0-.012-.005-.012-.005c-.215-.082-.396-.153-.542-.211-.147-.059-.316-.135-.509-.229s-.355-.184-.484-.272-.263-.196-.402-.323c-.138-.127-.248-.258-.328-.395s-.146-.296-.199-.478c-.053-.181-.079-.374-.079-.577c0-.418.114-.8.343-1.145.228-.346.542-.617.94-.815.399-.197.838-.296,1.318-.296.469-.004.935.08,1.396.252s.895.42,1.301.744c0,0-.627.809-.627.809-.332-.273-.679-.48-1.04-.621-.362-.141-.707-.211-1.035-.211-.27,0-.517.046-.742.138-.224.092-.409.232-.553.422-.145.189-.217.413-.217.671-.004.382.181.697.556.943.208.141.619.328,1.232.562c0,0,.006.006.006.006s.006,0,.006,0s.006.006.006.006.004,0,.004,0s.006,0,.006,0s.006.006.006.006c.703.273,1.169.471,1.396.592.543.289.904.646,1.084,1.072.105.254.158.547.158.879c0,.305-.052.589-.155.852-.104.264-.246.49-.425.677-.18.188-.39.349-.63.484-.24.134-.5.234-.777.298-.278.065-.564.097-.861.097-.555,0-1.095-.109-1.618-.328Z" fill="#ffeadc" stroke-width="0"/></g><g transform="translate(23.989 18.007)"><path d="M2.728,0.305c0,0-4.488,0-4.488,0c.062.543.271.977.627,1.303.355.327.795.49,1.318.49.348,0,.66-.072.938-.214.277-.143.513-.333.709-.572c0,0,.679.581.679.581-.261.339-.592.608-.993.805-.4.197-.856.296-1.368.296-.41,0-.794-.073-1.151-.22-.358-.146-.665-.348-.923-.606s-.462-.574-.611-.949c-.148-.375-.222-.782-.222-1.219c0-.434.073-.837.218-1.21.144-.373.34-.689.588-.949s.544-.464.888-.612c.344-.149.711-.223,1.102-.223.535,0,1.009.125,1.423.375.415.25.734.595.958,1.034.225.439.337.937.337,1.491c0,.149-.009.281-.029.399Z" fill="#ffeadc" stroke-width="0"/><path d="M-1.101,-1.667c-.334.287-.546.675-.636,1.163c0,0,3.528,0,3.528,0-.079-.484-.267-.871-.566-1.16s-.678-.434-1.135-.434c-.461,0-.857.144-1.191.431Z" fill="#8a2900" stroke-width="0"/></g><g transform="translate(30.821 17.972)"><path d="M2.045,-2.344c.373.41.56,1.021.56,1.834c0,0,0,3.469,0,3.469s-.973,0-.973,0s0-3.199,0-3.199c0-.336-.034-.624-.103-.862-.068-.238-.168-.428-.297-.568-.128-.141-.276-.242-.444-.305-.168-.062-.363-.094-.586-.094-.554,0-1,.189-1.334.566s-.501.889-.501,1.538c0,0,0,2.918,0,2.918s-.972,0-.972,0s0-5.842,0-5.842.972,0,.972,0s0,1.008,0,1.008.018,0,.018,0c.242-.348.547-.614.914-.8.367-.185.77-.278,1.208-.278.652,0,1.165.205,1.538.615Z" fill="#ffeadc" stroke-width="0"/></g><g transform="translate(37.733 16.545)"><path d="M2.918,-4.456c0,0,0,8.836,0,8.836s-.932,0-.932,0s0-.926,0-.926-.018,0-.018,0c-.156.211-.336.391-.539.539-.203.149-.43.263-.682.343s-.519.12-.8.12c-.399,0-.774-.071-1.125-.214-.352-.142-.655-.341-.911-.595-.256-.253-.458-.566-.607-.937-.148-.371-.222-.775-.222-1.213c0-.426.072-.826.216-1.201.145-.375.342-.696.592-.964s.553-.478.908-.633c.356-.154.737-.231,1.143-.231.262,0,.514.035.756.105.242.071.468.176.677.317.209.14.393.312.553.515c0,0,.018,0,.018,0s0-3.861,0-3.861.973,0,.973,0Z" fill="#ffeadc" stroke-width="0"/><path d="M0.776,3.416c.236-.1.443-.238.621-.416s.319-.396.425-.656c.105-.26.158-.54.158-.841c0-.297-.05-.577-.149-.841-.1-.264-.235-.491-.405-.683-.17-.191-.374-.342-.612-.454-.238-.111-.492-.167-.762-.167-.566,0-1.038.198-1.415.592-.377.395-.565.912-.565,1.553c0,.598.182,1.091.545,1.479.363.389.838.583,1.424.583.254,0,.499-.049.735-.149Z" fill="#8a2900" stroke-width="0"/></g><g transform="translate(44.901 18.007)"><path d="M2.728,0.305c0,0-4.488,0-4.488,0c.062.543.271.977.627,1.303.355.327.795.49,1.318.49.348,0,.66-.072.938-.214.277-.143.513-.333.709-.572c0,0,.679.581.679.581-.261.339-.592.608-.993.805-.4.197-.856.296-1.368.296-.41,0-.794-.073-1.151-.22-.358-.146-.665-.348-.923-.606s-.462-.574-.611-.949c-.148-.375-.222-.782-.222-1.219c0-.434.073-.837.218-1.21.144-.373.34-.689.588-.949s.544-.464.888-.612c.344-.149.711-.223,1.102-.223.535,0,1.009.125,1.423.375.415.25.734.595.958,1.034.225.439.337.937.337,1.491c0,.149-.009.281-.029.399Z" fill="#ffeadc" stroke-width="0"/><path d="M-1.101,-1.667c-.334.287-.546.675-.636,1.163c0,0,3.528,0,3.528,0-.079-.484-.267-.871-.566-1.16s-.678-.434-1.135-.434c-.461,0-.857.144-1.191.431Z" fill="#8a2900" stroke-width="0"/></g><g transform="translate(50.696 17.969)"><path d="M1.568,-2.944c0,0,0,1.072,0,1.072-.141-.011-.271-.017-.388-.017-.363,0-.679.088-.949.263-.269.176-.474.416-.614.721-.141.305-.211.652-.211,1.043c0,0,0,2.818,0,2.818s-.974,0-.974,0s0-5.841,0-5.841.974,0,.974,0s0,1.019,0,1.019.022,0,.022,0c.219-.348.492-.616.818-.806.326-.189.686-.284,1.081-.284.113,0,.194.004.241.012Z" fill="#ffeadc" stroke-width="0"/></g><g transform="translate(57.464 16.662)"><path d="M-0.525,-4.262c0,0,1.05,0,1.05,0s0,8.524,0,8.524-1.05,0-1.05,0s0-8.524,0-8.524Z" fill="#ffeadc" stroke-width="0"/></g><g transform="translate(63.701 16.662)"><path d="M-3.486,-4.262c0,0,2.548,0,2.548,0c.664,0,1.275.104,1.829.315.555.211,1.022.504,1.401.879s.673.826.882,1.354c.209.527.312,1.103.312,1.728c0,1.27-.394,2.295-1.185,3.076-.791.782-1.859,1.172-3.203,1.172c0,0-2.584,0-2.584,0s0-8.524,0-8.524Z" fill="#ffeadc" stroke-width="0"/><path d="M-0.966,3.313c.336,0,.655-.037.958-.111.303-.075.578-.18.826-.317.248-.136.471-.303.67-.503.199-.199.367-.421.502-.663s.238-.507.311-.796c.072-.289.108-.592.108-.909c0-.644-.139-1.219-.416-1.722-.277-.504-.669-.898-1.175-1.181s-1.085-.425-1.737-.425c0,0-1.524,0-1.524,0s0,6.627,0,6.627s1.477,0,1.477,0Z" fill="#8a2900" stroke-width="0"/></g><g transform="translate(225.528 16.662)"><path d="M-0.914,0.46c0,0-1.225,1.441-1.225,1.441s0,2.362,0,2.362-1.043,0-1.043,0s0-8.526,0-8.526s1.043,0,1.043,0s0,4.682,0,4.682.024,0,.024,0s3.873-4.682,3.873-4.682s1.336,0,1.336,0-3.299,3.885-3.299,3.885s3.387,4.641,3.387,4.641-1.307,0-1.307,0-2.771-3.803-2.771-3.803-.018,0-.018,0Z" fill="#ffeadc" stroke-width="0"/></g><g transform="translate(232.14 18.007)"><path d="M2.728,0.305c0,0-4.488,0-4.488,0c.062.543.271.977.627,1.303.355.327.795.49,1.318.49.348,0,.66-.072.938-.214.277-.143.513-.333.709-.572c0,0,.679.581.679.581-.261.339-.592.608-.993.805-.4.197-.856.296-1.368.296-.41,0-.794-.073-1.151-.22-.358-.146-.665-.348-.923-.606s-.461-.574-.61-.949c-.148-.375-.223-.782-.223-1.219c0-.434.073-.837.218-1.21.144-.373.34-.689.588-.949s.544-.464.888-.612c.344-.149.711-.223,1.102-.223.535,0,1.009.125,1.423.375.415.25.734.595.958,1.034.225.439.337.937.337,1.491c0,.149-.009.281-.029.399Z" fill="#ffeadc" stroke-width="0"/><path d="M-1.101,-1.667c-.334.287-.546.675-.636,1.163c0,0,3.528,0,3.528,0-.079-.484-.267-.871-.566-1.16s-.677-.434-1.134-.434c-.461,0-.858.144-1.192.431Z" fill="#8a2900" stroke-width="0"/></g><g transform="translate(238.327 19.191)"><path d="M2.88,-4.108c0,0-3.305,8.216-3.305,8.216s-1.031,0-1.031,0s1.043-2.602,1.043-2.602-2.467-5.614-2.467-5.614s1.037,0,1.037,0s1.899,4.448,1.899,4.448.029,0,.029,0s1.764-4.448,1.764-4.448s1.031,0,1.031,0Z" fill="#ffeadc" stroke-width="0"/></g><g transform="translate(246.115 18.004)"><path d="M4.263,-2.921c0,0-2.027,5.842-2.027,5.842s-.921,0-.921,0-1.312-4.254-1.312-4.254-.024,0-.024,0-1.319,4.254-1.319,4.254-.896,0-.896,0-2.027-5.842-2.027-5.842.991,0,.991,0s1.487,4.359,1.487,4.359.025,0,.025,0s1.329-4.359,1.329-4.359.844,0,.844,0s1.347,4.365,1.347,4.365.024,0,.024,0s1.488-4.365,1.488-4.365.991,0,.991,0Z" fill="#ffeadc" stroke-width="0"/></g><g transform="translate(253.954 18.007)"><path d="M-1.227,2.763c-.379-.155-.699-.366-.959-.633-.26-.268-.463-.584-.609-.949-.147-.366-.22-.757-.22-1.175s.073-.812.22-1.181c.146-.369.349-.687.609-.955.26-.267.58-.478.959-.633.379-.154.79-.231,1.235-.231.571,0,1.085.125,1.542.375.458.25.815.604,1.075,1.063.259.459.39.98.39,1.562c0,.578-.131,1.096-.39,1.553-.26.457-.617.81-1.075,1.06-.457.25-.971.375-1.542.375-.445,0-.856-.077-1.235-.231Z" fill="#ffeadc" stroke-width="0"/><path d="M1.029,1.834c.309-.176.553-.424.732-.744.18-.32.27-.682.27-1.084c0-.406-.09-.771-.27-1.093-.179-.322-.422-.571-.729-.747s-.649-.264-1.024-.264c-.398,0-.753.094-1.066.282-.312.187-.552.441-.72.761-.168.321-.253.674-.253,1.061c0,.383.086.733.256,1.052.17.318.411.571.724.758.312.188.665.282,1.059.282.372,0,.712-.088,1.021-.264Z" fill="#8a2900" stroke-width="0"/></g><g transform="translate(260.03 17.969)"><path d="M1.568,-2.944c0,0,0,1.072,0,1.072-.141-.011-.271-.017-.388-.017-.363,0-.679.088-.949.263-.269.176-.475.416-.615.721-.141.305-.211.652-.211,1.043c0,0,0,2.818,0,2.818s-.973,0-.973,0s0-5.841,0-5.841.973,0,.973,0s0,1.019,0,1.019.023,0,.023,0c.219-.348.492-.616.818-.806.326-.189.686-.284,1.081-.284.113,0,.194.004.241.012Z" fill="#ffeadc" stroke-width="0"/></g><g transform="translate(265.12 16.545)"><path d="M2.918,-4.456c0,0,0,8.836,0,8.836s-.932,0-.932,0s0-.926,0-.926-.018,0-.018,0c-.156.211-.336.391-.539.539-.203.149-.43.263-.682.343s-.519.12-.8.12c-.399,0-.774-.071-1.125-.214-.352-.142-.655-.341-.911-.595-.256-.253-.458-.566-.607-.937-.148-.371-.222-.775-.222-1.213c0-.426.072-.826.216-1.201.145-.375.342-.696.592-.964s.553-.478.908-.633c.356-.154.737-.231,1.143-.231.262,0,.514.035.756.105.242.071.468.176.677.317.209.14.393.312.553.515c0,0,.018,0,.018,0s0-3.861,0-3.861.973,0,.973,0Z" fill="#ffeadc" stroke-width="0"/><path d="M0.776,3.416c.236-.1.443-.238.621-.416s.319-.396.425-.656c.105-.26.158-.54.158-.841c0-.297-.05-.577-.149-.841-.1-.264-.235-.491-.405-.683-.17-.191-.374-.342-.612-.454-.238-.111-.492-.167-.762-.167-.566,0-1.038.198-1.415.592-.377.395-.565.912-.565,1.553c0,.598.182,1.091.545,1.479.363.389.838.583,1.424.583.254,0,.499-.049.735-.149Z" fill="#8a2900" stroke-width="0"/></g><g transform="translate(271.579 18.007)"><path d="M-2.194,2.15c0,0,.503-.737.503-.737.246.23.51.404.789.521s.611.176.998.176c.34,0,.609-.074.809-.223.199-.148.298-.334.298-.556c0-.059-.005-.114-.017-.164-.012-.051-.035-.099-.07-.144-.036-.045-.068-.084-.099-.117s-.082-.069-.15-.109c-.069-.039-.127-.071-.176-.096-.049-.026-.122-.057-.22-.094s-.177-.066-.237-.088c-.061-.021-.154-.056-.279-.103-.062-.02-.109-.035-.14-.046-.219-.074-.403-.145-.553-.211-.15-.067-.309-.153-.473-.256-.164-.104-.295-.214-.392-.331-.098-.117-.178-.262-.242-.434-.065-.172-.098-.361-.098-.568c0-.445.184-.817.551-1.116s.828-.449,1.383-.449c.753,0,1.423.241,2.009.721c0,0-.504.768-.504.768-.468-.406-.986-.61-1.552-.61-.235,0-.443.064-.624.191-.182.127-.273.292-.273.495c0,.109.027.21.079.3.053.09.135.171.246.245.112.074.225.138.338.19.114.053.261.115.445.185.625.242,1.002.394,1.13.457.403.199.667.444.792.733.079.18.117.393.117.639c0,.23-.044.445-.132.646-.088.202-.216.38-.386.535-.17.154-.392.275-.663.363s-.577.132-.917.132c-.895,0-1.657-.283-2.29-.845Z" fill="#ffeadc" stroke-width="0"/></g><g transform="translate(311.709 16.66)"><path d="M-1.532,4.013c-.523-.219-.99-.549-1.4-.99c0,0,.661-.803.661-.803.301.367.662.647,1.084.841.422.193.849.29,1.283.29.527,0,.951-.116,1.269-.349.319-.232.478-.55.478-.952c0-.433-.178-.775-.533-1.025-.207-.149-.606-.332-1.196-.551c0,0-.005-.006-.005-.006s-.007,0-.007,0-.006,0-.006,0-.005-.006-.005-.006-.007,0-.007,0-.006-.006-.006-.006-.005,0-.005,0-.005,0-.005,0-.006-.006-.006-.006-.007,0-.007,0-.006,0-.006,0-.005-.005-.005-.005-.007,0-.007,0-.006-.006-.006-.006-.005,0-.005,0-.005,0-.005,0-.006-.006-.006-.006-.007,0-.007,0-.005-.006-.005-.006-.006,0-.006,0-.007,0-.007,0-.005-.006-.005-.006-.006,0-.006,0-.005,0-.005,0-.006-.006-.006-.006-.007,0-.007,0-.005-.006-.005-.006-.006,0-.006,0-.005,0-.005,0-.013-.005-.013-.005c-.215-.082-.395-.153-.541-.211-.147-.059-.318-.135-.511-.229s-.353-.184-.482-.272-.264-.196-.403-.323c-.138-.127-.248-.258-.328-.395s-.145-.296-.198-.478c-.053-.181-.079-.374-.079-.577c0-.418.113-.8.342-1.145.228-.346.542-.617.94-.815.399-.197.838-.296,1.318-.296.469-.004.934.08,1.395.252s.896.42,1.302.744c0,0-.627.809-.627.809-.332-.273-.68-.48-1.041-.621-.362-.141-.706-.211-1.034-.211-.27,0-.517.046-.742.138-.224.092-.409.232-.553.422-.145.189-.216.413-.216.671-.004.382.18.697.555.943.208.141.618.328,1.231.562c0,0,.006.006.006.006s.007,0,.007,0s.006.006.006.006.005,0,.005,0s.005,0,.005,0s.006.006.006.006c.703.273,1.168.471,1.395.592.543.289.904.646,1.084,1.072.105.254.158.547.158.879c0,.305-.051.589-.154.852-.104.264-.247.49-.426.677-.18.188-.39.349-.63.484-.24.134-.499.234-.776.298-.278.065-.565.097-.862.097-.555,0-1.093-.109-1.616-.328Z" fill="#ffeadc" stroke-width="0"/></g><g transform="translate(317.352 16.99)"><path d="M-1.093,2.194c0,0,0-3.258,0-3.258s-.744,0-.744,0s0-.844,0-.844.744,0,.744,0s0-1.998,0-1.998.973-.104.973-.104s0,2.102,0,2.102s1.933,0,1.933,0s0,.844,0,.844-1.933,0-1.933,0s0,3.112,0,3.112c0,.367.052.634.158.8.105.166.291.248.556.248.309,0,.637-.099.985-.298c0,0,.258.849.258.849-.125.07-.244.13-.358.179-.113.049-.263.092-.451.129-.187.037-.389.055-.603.055-1.012,0-1.518-.605-1.518-1.816Z" fill="#ffeadc" stroke-width="0"/></g><g transform="translate(322.81 18.007)"><path d="M2.93,-2.924c0,0,0,5.842,0,5.842s-.931,0-.931,0s0-.926,0-.926-.018,0-.018,0c-.238.316-.532.563-.882.738-.349.176-.738.264-1.164.264-.398,0-.773-.071-1.125-.214-.351-.142-.654-.341-.91-.595-.256-.253-.458-.566-.606-.937-.149-.371-.224-.775-.224-1.213c0-.57.123-1.086.367-1.547s.585-.823,1.023-1.087c.437-.263.927-.395,1.47-.395.403,0,.777.08,1.122.24.346.16.64.393.882.697c0,0,.024,0,.024,0s0-.867,0-.867.972,0,.972,0Z" fill="#ffeadc" stroke-width="0"/><path d="M0.78,1.954c.238-.1.446-.238.626-.416s.323-.396.429-.656c.105-.26.157-.54.157-.841c0-.297-.049-.577-.149-.841-.099-.264-.236-.491-.408-.683-.172-.191-.378-.342-.62-.454-.242-.111-.5-.167-.773-.167-.567,0-1.038.198-1.415.592-.377.395-.567.912-.567,1.553c0,.598.183,1.091.546,1.479.363.389.838.583,1.424.583.262,0,.512-.049.75-.149Z" fill="#8a2900" stroke-width="0"/></g><g transform="translate(328.754 16.99)"><path d="M-1.093,2.194c0,0,0-3.258,0-3.258s-.744,0-.744,0s0-.844,0-.844.744,0,.744,0s0-1.998,0-1.998.973-.104.973-.104s0,2.102,0,2.102s1.933,0,1.933,0s0,.844,0,.844-1.933,0-1.933,0s0,3.112,0,3.112c0,.367.052.634.158.8.105.166.291.248.556.248.309,0,.637-.099.985-.298c0,0,.258.849.258.849-.125.07-.244.13-.358.179-.113.049-.263.092-.451.129-.187.037-.389.055-.603.055-1.012,0-1.518-.605-1.518-1.816Z" fill="#ffeadc" stroke-width="0"/></g><g transform="translate(334.32 18.042)"><path d="M2.552,-2.959c0,0,0,5.842,0,5.842s-.973,0-.973,0s0-.967,0-.967-.017,0-.017,0c-.231.336-.514.594-.85.773-.336.18-.693.27-1.072.27-.692,0-1.23-.203-1.614-.609-.385-.407-.578-1.016-.578-1.829c0,0,0-3.48,0-3.48s.973,0,.973,0s0,3.199,0,3.199c0,.649.117,1.114.352,1.398.234.283.591.424,1.072.424.234,0,.456-.049.665-.149s.393-.24.551-.422c.158-.181.284-.413.378-.694.093-.281.14-.59.14-.926c0,0,0-2.83,0-2.83s.973,0,.973,0Z" fill="#ffeadc" stroke-width="0"/></g><g transform="translate(340.35 18.007)"><path d="M-2.194,2.15c0,0,.503-.737.503-.737.246.23.51.404.789.521s.611.176.998.176c.34,0,.609-.074.809-.223.199-.148.298-.334.298-.556c0-.059-.005-.114-.017-.164-.012-.051-.035-.099-.07-.144-.036-.045-.068-.084-.099-.117s-.082-.069-.15-.109c-.069-.039-.127-.071-.176-.096-.049-.026-.122-.057-.22-.094s-.177-.066-.237-.088c-.061-.021-.154-.056-.279-.103-.062-.02-.109-.035-.14-.046-.219-.074-.403-.145-.553-.211-.15-.067-.309-.153-.473-.256-.164-.104-.295-.214-.392-.331-.098-.117-.178-.262-.242-.434-.065-.172-.098-.361-.098-.568c0-.445.184-.817.551-1.116s.828-.449,1.383-.449c.753,0,1.423.241,2.009.721c0,0-.504.768-.504.768-.468-.406-.986-.61-1.552-.61-.235,0-.443.064-.624.191-.182.127-.273.292-.273.495c0,.109.027.21.079.3.053.09.135.171.246.245.112.074.225.138.338.19.114.053.261.115.445.185.625.242,1.002.394,1.13.457.403.199.667.444.792.733.079.18.117.393.117.639c0,.23-.044.445-.132.646-.088.202-.216.38-.386.535-.17.154-.392.275-.663.363s-.577.132-.917.132c-.895,0-1.657-.283-2.29-.845Z" fill="#ffeadc" stroke-width="0"/></g><g transform="translate(396.862 16.662)"><path d="M1.896,2.188c0,0-3.804,0-3.804,0s-.756,2.074-.756,2.074-1.094,0-1.094,0s3.222-8.524,3.222-8.524s1.049,0,1.049,0s3.245,8.524,3.245,8.524-1.101,0-1.101,0-.761-2.074-.761-2.074Z" fill="#ffeadc" stroke-width="0"/><path d="M1.562,1.274c0,0-1.559-4.26-1.559-4.26s-.024,0-.024,0-1.552,4.26-1.552,4.26s3.135,0,3.135,0Z" fill="#8a2900" stroke-width="0"/></g><g transform="translate(404.016 18.004)"><path d="M-1.254,2.622c-.439-.25-.782-.603-1.028-1.058s-.369-.973-.369-1.555.124-1.102.372-1.559.593-.812,1.037-1.066c.443-.254.948-.381,1.514-.381.45,0,.884.09,1.304.269.42.18.771.438,1.052.774c0,0-.674.586-.674.586-.187-.227-.423-.406-.706-.536-.283-.131-.593-.197-.929-.197-.586,0-1.063.196-1.432.586-.37.391-.554.897-.554,1.518s.184,1.126.554,1.515c.369.388.846.583,1.432.583.332,0,.645-.064.938-.191s.533-.296.72-.507c0,0,.674.604.674.604-.261.293-.604.531-1.028.715-.424.183-.886.275-1.386.275-.554,0-1.052-.125-1.491-.375Z" fill="#ffeadc" stroke-width="0"/></g><g transform="translate(409.219 16.99)"><path d="M-1.093,2.194c0,0,0-3.258,0-3.258s-.744,0-.744,0s0-.844,0-.844.744,0,.744,0s0-1.998,0-1.998.973-.104.973-.104s0,2.102,0,2.102s1.933,0,1.933,0s0,.844,0,.844-1.933,0-1.933,0s0,3.112,0,3.112c0,.367.052.634.158.8.105.166.291.248.556.248.309,0,.637-.099.985-.298c0,0,.258.849.258.849-.125.07-.244.13-.358.179-.113.049-.263.092-.451.129-.187.037-.389.055-.603.055-1.012,0-1.518-.605-1.518-1.816Z" fill="#ffeadc" stroke-width="0"/></g><g transform="translate(412.867 16.78)"><path d="M-0.493,-2.98c-.133-.133-.198-.293-.198-.481c0-.191.065-.353.198-.486s.297-.199.492-.199c.125,0,.24.03.346.091.105.06.19.143.253.249.062.105.093.22.093.345c0,.188-.068.348-.203.481-.134.133-.297.199-.489.199-.195,0-.359-.066-.492-.199Z" fill="#ffeadc" stroke-width="0"/><path d="M-0.493,-1.697c0,0,.967,0,.967,0s0,5.843,0,5.843-.967,0-.967,0s0-5.843,0-5.843Z" fill="#ffeadc" stroke-width="0"/></g><g transform="translate(417.938 18.007)"><path d="M-1.228,2.763c-.379-.155-.698-.366-.958-.633-.26-.268-.463-.584-.609-.949-.147-.366-.219-.757-.219-1.175s.072-.812.219-1.181c.146-.369.349-.687.609-.955.26-.267.579-.478.958-.633.379-.154.792-.231,1.237-.231.571,0,1.084.125,1.541.375.458.25.816.604,1.076,1.063.259.459.388.98.388,1.562c0,.578-.129,1.096-.388,1.553-.26.457-.618.81-1.076,1.06-.457.25-.97.375-1.541.375-.445,0-.858-.077-1.237-.231Z" fill="#ffeadc" stroke-width="0"/><path d="M1.029,1.834c.309-.176.553-.424.732-.744.18-.32.269-.682.269-1.084c0-.406-.089-.771-.269-1.093-.179-.322-.422-.571-.729-.747s-.648-.264-1.023-.264c-.398,0-.754.094-1.067.282-.312.187-.552.441-.72.761-.168.321-.252.674-.252,1.061c0,.383.085.733.255,1.052.17.318.411.571.724.758.312.188.666.282,1.06.282.372,0,.711-.088,1.02-.264Z" fill="#8a2900" stroke-width="0"/></g><g transform="translate(425.051 17.972)"><path d="M2.045,-2.344c.373.41.56,1.021.56,1.834c0,0,0,3.469,0,3.469s-.973,0-.973,0s0-3.199,0-3.199c0-.336-.035-.624-.104-.862-.068-.238-.166-.428-.295-.568-.128-.141-.277-.242-.445-.305-.168-.062-.363-.094-.586-.094-.554,0-1,.189-1.334.566s-.5.889-.5,1.538c0,0,0,2.918,0,2.918s-.973,0-.973,0s0-5.842,0-5.842.973,0,.973,0s0,1.008,0,1.008.017,0,.017,0c.242-.348.547-.614.914-.8.367-.185.77-.278,1.208-.278.652,0,1.165.205,1.538.615Z" fill="#ffeadc" stroke-width="0"/></g></g></g></g><g id="egl62u0WKoJ240_to" style="offset-path:path('M576.379,438.406C568.185,438.406,535.408,438.406,527.214,438.406');offset-rotate:0deg"><g id="egl62u0WKoJ240_ts" transform="scale(1.71,1.71)"><g transform="translate(-238.169,-41.229)"><g transform="translate(320.973 46.712)"><g transform="translate(19.992 9.125)"><path id="egl62u0WKoJ243" d="M10.867,6.625c0,0-21.735,0-21.735,0-3.658,0-6.624-2.966-6.624-6.625s2.966-6.625,6.624-6.625c0,0,21.735,0,21.735,0c3.659,0,6.625,2.966,6.625,6.625s-2.966,6.625-6.625,6.625Z" fill="#ffdddb" stroke-width="0"/></g><g transform="translate(19.992 9.125)"><path d="M10.867,6.625c0,0-21.735,0-21.735,0-3.658,0-6.624-2.966-6.624-6.625s2.966-6.625,6.624-6.625c0,0,21.735,0,21.735,0c3.659,0,6.625,2.966,6.625,6.625s-2.966,6.625-6.625,6.625Z" paint-order="stroke fill markers" fill="none" fill-rule="evenodd" stroke="#fdfdfd" stroke-miterlimit="10"/></g></g></g></g></g><g id="egl62u0WKoJ246_to" style="offset-path:path('M576.379,438.406C568.185,438.406,535.408,438.406,527.214,438.406');offset-rotate:0deg"><g id="egl62u0WKoJ246_ts" transform="scale(1.71,1.71)"><g transform="translate(-238.169,-41.229)"><g id="egl62u0WKoJ247_to" style="offset-path:path('M326.683,56.457C331.183,56.457,349.183,56.457,353.683,56.457');offset-rotate:0deg"><g transform="scale(0.84,0.84) translate(-10.676,-10.677)"><g transform="translate(10.676 10.677)"><path d="M10.427,0C10.427,5.758,5.759,10.427,0,10.427c-5.758,0-10.427-4.669-10.427-10.427s4.669-10.427,10.427-10.427c5.759,0,10.427,4.669,10.427,10.427Z" fill="#8a2601" stroke-width="0"/></g><g transform="translate(10.677 10.677)"><path d="M9.22,0C9.22,5.092,5.092,9.22,0,9.22c-5.091,0-9.22-4.128-9.22-9.22s4.129-9.22,9.22-9.22c5.092,0,9.22,4.128,9.22,9.22Z" fill="#f5f0f3" stroke-width="0"/></g></g></g></g></g></g><g id="egl62u0WKoJ252_to" style="offset-path:path('M576.379,438.406C568.185,438.406,535.408,438.406,527.214,438.406');offset-rotate:0deg"><g id="egl62u0WKoJ252_ts" transform="scale(1.71,1.71)"><g transform="translate(-238.169,-41.229)"><text dx="0" dy="0" font-family="&quot;Averta-Regular&quot;" font-size="14" font-weight="400" transform="translate(14.668 55.217)" fill="#680021" stroke="#000" stroke-width="0"><tspan x="0" y="0" font-family="&quot;Averta-Regular&quot;" font-size="14" font-weight="400" font-style="normal" fill="#680021" stroke="#000" stroke-width="0"><![CDATA[
55234
]]></tspan></text></g></g></g><g id="egl62u0WKoJ255_ts" transform="translate(528.067,435.6) scale(0,0)"><g id="egl62u0WKoJ255" transform="translate(-113.499,-55.187)" opacity="0"><g><path d="M125.982,93.742c0,0,0-77.503,0-77.503s0,77.503,0,77.503Z" fill="#fdfdfd" stroke-width="0"/></g><g><path d="M125.982,16.239c0,0,0,77.503,0,77.503" paint-order="stroke fill markers" fill="none" fill-rule="evenodd" stroke="#ffdddb" stroke-miterlimit="10"/></g><g transform="translate(113.499 55.187)"><path d="M104.108,52.687c0,0-208.216,0-208.216,0-3.806,0-6.891-3.085-6.891-6.891c0,0,0-91.592,0-91.592c0-3.806,3.085-6.891,6.891-6.891c0,0,208.216,0,208.216,0c3.806,0,6.891,3.085,6.891,6.891c0,0,0,91.592,0,91.592c0,3.806-3.085,6.891-6.891,6.891Z" fill="#fdfdfd" stroke-width="0"/></g><g transform="translate(113.499 55.187)"><path d="M104.108,52.687c0,0-208.216,0-208.216,0-3.806,0-6.891-3.085-6.891-6.891c0,0,0-91.592,0-91.592c0-3.806,3.085-6.891,6.891-6.891c0,0,208.216,0,208.216,0c3.806,0,6.891,3.085,6.891,6.891c0,0,0,91.592,0,91.592c0,3.806-3.085,6.891-6.891,6.891Z" paint-order="stroke fill markers" fill="none" fill-rule="evenodd" stroke="#ffdddb" stroke-miterlimit="10"/></g></g></g><g id="egl62u0WKoJ264_ts" transform="translate(528.067,435.6) scale(0,0)"><g transform="translate(-113.499,-55.187)"><g id="egl62u0WKoJ265" transform="matrix(.4833 0 0 0.4833 52.086533 80.411049)" opacity="0"><g><path d="M245.098,-22.09c0,0,0,9.097,0,9.097s-.074,0-.074,0c-1.104-1.269-2.577-1.904-4.423-1.904-.967,0-1.877.19-2.732.571s-1.588.903-2.198,1.567-1.09,1.47-1.442,2.417-.528,1.968-.528,3.062c0,.635.059,1.247.176,1.838s.285,1.135.505,1.633.486.962.799,1.392.668.806,1.069,1.128.832.601,1.296.835.965.41,1.502.527s1.094.176,1.67.176c1.924,0,3.418-.673,4.482-2.021c0,0,.088,0,.088,0s0,1.772,0,1.772s3.735,0,3.735,0s0-22.09,0-22.09-3.925,0-3.925,0Z" fill="#8a2900" stroke-width="0"/><path d="M241.436,-3.267c-1.104,0-2.005-.371-2.703-1.113s-1.047-1.705-1.047-2.886c0-1.23.358-2.221,1.076-2.973s1.614-1.128,2.688-1.128c1.113,0,2.034.391,2.761,1.172s1.092,1.757,1.092,2.929c0,.781-.173,1.48-.52,2.095s-.813,1.087-1.399,1.414-1.235.49-1.948.49Z" fill="#fdfdfd" stroke-width="0"/></g><g><path d="M231.387,-7.456c0-1.426-.298-2.703-.894-3.831s-1.44-2.012-2.534-2.651-2.349-.959-3.765-.959c-1.025,0-1.986.185-2.885.556s-1.669.887-2.308,1.546-1.145,1.459-1.516,2.402-.556,1.96-.556,3.054c0,1.494.329,2.823.988,3.985s1.56,2.053,2.703,2.673s2.427.93,3.853.93c1.406,0,2.646-.251,3.72-.754s1.944-1.175,2.608-2.015c0,0-2.549-2.373-2.549-2.373-.918,1.113-2.085,1.666-3.501,1.656-.938-.01-1.736-.264-2.395-.762s-1.106-1.182-1.34-2.051c0,0,10.268,0,10.268,0c.068-.244.103-.712.103-1.406Z" fill="#8a2900" stroke-width="0"/><path d="M224.326,-11.44c.83,0,1.514.227,2.051.681s.908,1.081,1.113,1.882c0,0-6.46,0-6.46,0c.225-.83.628-1.465,1.209-1.904s1.276-.659,2.087-.659Z" fill="#fdfdfd" stroke-width="0"/></g><g><path d="M209.648,0c0,0,3.926,0,3.926,0s0-14.648,0-14.648-3.926,0-3.926,0s0,14.648,0,14.648Z" fill="#8a2900" stroke-width="0"/><path d="M211.611,-16.714c.664,0,1.236-.234,1.714-.703s.718-1.035.718-1.699c0-.654-.24-1.216-.718-1.685s-1.05-.703-1.714-.703c-.674,0-1.247.234-1.721.703s-.71,1.031-.71,1.685c0,.439.107.842.322,1.208s.51.657.886.872.784.322,1.223.322Z" fill="#8a2900" stroke-width="0"/></g><g><path d="M199.614,0c0,0,3.926,0,3.926,0s0-11.396,0-11.396s3.267,0,3.267,0s0-3.252,0-3.252-3.267,0-3.267,0s0-2.227,0-2.227c0-1.318.494-1.978,1.48-1.978.586,0,1.318.215,2.197.645c0,0,.791-3.076.791-3.076-.41-.273-.945-.518-1.604-.733s-1.389-.322-2.19-.322c-.967,0-1.793.193-2.476.579s-1.208.967-1.574,1.743-.55,1.726-.55,2.849c0,0,0,2.52,0,2.52s-1.552,0-1.552,0s0,3.252,0,3.252s1.552,0,1.552,0s0,11.396,0,11.396Z" fill="#8a2900" stroke-width="0"/></g><g><path d="M190.986,0c0,0,3.926,0,3.926,0s0-14.648,0-14.648-3.926,0-3.926,0s0,14.648,0,14.648Z" fill="#8a2900" stroke-width="0"/><path d="M192.949,-16.714c.664,0,1.236-.234,1.714-.703s.718-1.035.718-1.699c0-.654-.24-1.216-.718-1.685s-1.05-.703-1.714-.703c-.674,0-1.247.234-1.721.703s-.71,1.031-.71,1.685c0,.439.107.842.322,1.208s.51.657.886.872.784.322,1.223.322Z" fill="#8a2900" stroke-width="0"/></g><g><path d="M187.954,-14.897c-.869,0-1.684.207-2.446.622s-1.421,1.009-1.978,1.78c0,0-.044,0-.044,0s0-2.153,0-2.153-3.925,0-3.925,0s0,14.648,0,14.648s3.925,0,3.925,0s0-6.797,0-6.797c0-1.123.33-2.041.989-2.754s1.575-1.069,2.747-1.069c.303,0,.65.015,1.04.044c0,0,0-4.307,0-4.307-.059-.01-.162-.014-.308-.014Z" fill="#8a2900" stroke-width="0"/></g><g><path d="M176.426,-7.456c0-1.426-.298-2.703-.894-3.831s-1.44-2.012-2.534-2.651-2.349-.959-3.765-.959c-1.025,0-1.986.185-2.885.556s-1.668.887-2.307,1.546-1.146,1.459-1.517,2.402-.556,1.96-.556,3.054c0,1.494.33,2.823.989,3.985s1.559,2.053,2.702,2.673s2.427.93,3.853.93c1.406,0,2.646-.251,3.72-.754s1.944-1.175,2.608-2.015c0,0-2.549-2.373-2.549-2.373-.918,1.113-2.085,1.666-3.501,1.656-.938-.01-1.736-.264-2.395-.762s-1.106-1.182-1.34-2.051c0,0,10.268,0,10.268,0c.068-.244.103-.712.103-1.406Z" fill="#8a2900" stroke-width="0"/><path d="M169.365,-11.44c.83,0,1.514.227,2.051.681s.908,1.081,1.113,1.882c0,0-6.46,0-6.46,0c.225-.83.628-1.465,1.209-1.904s1.276-.659,2.087-.659Z" fill="#fdfdfd" stroke-width="0"/></g><g><path d="M156.987,-14.648c0,0-3.369,9.843-3.369,9.843s-.044,0-.044,0-3.442-9.843-3.442-9.843-4.146,0-4.146,0s5.772,14.648,5.772,14.648s3.662,0,3.662,0s5.757-14.648,5.757-14.648-4.19,0-4.19,0Z" fill="#8a2900" stroke-width="0"/></g><g><path d="M118.008,0c0,0,7.134,0,7.134,0c1.69,0,3.222-.258,4.599-.776s2.533-1.244,3.465-2.176s1.65-2.052,2.153-3.361.754-2.745.754-4.307-.261-3.006-.783-4.329-1.26-2.452-2.212-3.384-2.119-1.662-3.501-2.189-2.903-.791-4.563-.791c0,0-7.046,0-7.046,0s0,21.313,0,21.313Z" fill="#8a2900" stroke-width="0"/><path d="M122.168,-3.765c0,0,0-13.769,0-13.769s2.974,0,2.974,0c1.26,0,2.392.295,3.398.886s1.789,1.413,2.351,2.468.842,2.242.842,3.56c0,.967-.163,1.87-.49,2.71s-.786,1.565-1.377,2.175-1.317,1.091-2.176,1.443-1.796.527-2.812.527c0,0-2.71,0-2.71,0Z" fill="#fdfdfd" stroke-width="0"/></g><g><path d="M108.94,0c0,0,4.248,0,4.248,0s0-21.313,0-21.313-4.248,0-4.248,0s0,21.313,0,21.313Z" fill="#8a2900" stroke-width="0"/></g><g><path d="M97.705,-14.897c-.869,0-1.684.207-2.446.622s-1.421,1.009-1.978,1.78c0,0-.044,0-.044,0s0-2.153,0-2.153-3.925,0-3.925,0s0,14.648,0,14.648s3.925,0,3.925,0s0-6.797,0-6.797c0-1.123.33-2.041.989-2.754s1.575-1.069,2.747-1.069c.303,0,.65.015,1.04.044c0,0,0-4.307,0-4.307-.059-.01-.162-.014-.308-.014Z" fill="#8a2900" stroke-width="0"/></g><g><path d="M86.177,-7.456c0-1.426-.298-2.703-.894-3.831s-1.44-2.012-2.534-2.651-2.349-.959-3.765-.959c-1.025,0-1.986.185-2.885.556s-1.668.887-2.307,1.546-1.146,1.459-1.517,2.402-.556,1.96-.556,3.054c0,1.494.33,2.823.989,3.985s1.559,2.053,2.702,2.673s2.427.93,3.853.93c1.406,0,2.646-.251,3.72-.754s1.944-1.175,2.608-2.015c0,0-2.549-2.373-2.549-2.373-.918,1.113-2.085,1.666-3.501,1.656-.938-.01-1.736-.264-2.395-.762s-1.106-1.182-1.34-2.051c0,0,10.268,0,10.268,0c.068-.244.103-.712.103-1.406Z" fill="#8a2900" stroke-width="0"/><path d="M79.116,-11.44c.83,0,1.514.227,2.051.681s.908,1.081,1.113,1.882c0,0-6.46,0-6.46,0c.225-.83.628-1.465,1.209-1.904s1.276-.659,2.087-.659Z" fill="#fdfdfd" stroke-width="0"/></g><g><path d="M64.629,-22.09c0,0,0,9.097,0,9.097s-.073,0-.073,0c-1.104-1.269-2.578-1.904-4.424-1.904-.967,0-1.877.19-2.732.571s-1.587.903-2.197,1.567-1.091,1.47-1.443,2.417-.528,1.968-.528,3.062c0,.635.059,1.247.176,1.838s.286,1.135.506,1.633.485.962.798,1.392.668.806,1.069,1.128.833.601,1.297.835.964.41,1.501.527s1.094.176,1.67.176c1.924,0,3.418-.673,4.482-2.021c0,0,.088,0,.088,0s0,1.772,0,1.772s3.736,0,3.736,0s0-22.09,0-22.09-3.926,0-3.926,0Z" fill="#8a2900" stroke-width="0"/><path d="M60.967,-3.267c-1.104,0-2.005-.371-2.703-1.113s-1.047-1.705-1.047-2.886c0-1.23.358-2.221,1.076-2.973s1.614-1.128,2.688-1.128c1.113,0,2.035.391,2.762,1.172s1.091,1.757,1.091,2.929c0,.781-.173,1.48-.52,2.095s-.813,1.087-1.399,1.414-1.235.49-1.948.49Z" fill="#fdfdfd" stroke-width="0"/></g><g><path d="M44.971,-14.897c-.908,0-1.771.183-2.586.549s-1.52.895-2.116,1.589c0,0-.044,0-.044,0s0-1.889,0-1.889-3.926,0-3.926,0s0,14.648,0,14.648s3.926,0,3.926,0s0-7.368,0-7.368c0-1.279.299-2.265.9-2.959s1.409-1.04,2.425-1.04c.957,0,1.665.273,2.124.82s.688,1.494.688,2.842c0,0,0,7.72,0,7.72s3.926,0,3.926,0s0-8.702,0-8.702c0-1.104-.127-2.06-.381-2.871s-.623-1.455-1.106-1.933-1.04-.833-1.67-1.062-1.349-.344-2.16-.344Z" fill="#8a2900" stroke-width="0"/></g><g><path d="M33.164,-7.456c0-1.426-.297-2.703-.893-3.831s-1.441-2.012-2.535-2.651-2.348-.959-3.764-.959c-1.025,0-1.987.185-2.886.556s-1.668.887-2.307,1.546-1.145,1.459-1.516,2.402-.557,1.96-.557,3.054c0,1.494.33,2.823.989,3.985s1.559,2.053,2.702,2.673s2.427.93,3.853.93c1.406,0,2.647-.251,3.721-.754s1.943-1.175,2.607-2.015c0,0-2.549-2.373-2.549-2.373-.918,1.113-2.085,1.666-3.501,1.656-.938-.01-1.736-.264-2.395-.762s-1.106-1.182-1.34-2.051c0,0,10.269,0,10.269,0c.068-.244.102-.712.102-1.406Z" fill="#8a2900" stroke-width="0"/><path d="M26.104,-11.44c.83,0,1.513.227,2.05.681s.909,1.081,1.114,1.882c0,0-6.46,0-6.46,0c.225-.83.627-1.465,1.208-1.904s1.277-.659,2.088-.659Z" fill="#fdfdfd" stroke-width="0"/></g><g><path d="M8.745,0.249c.723,0,1.43-.075,2.124-.227s1.37-.4,2.029-.747s1.238-.767,1.736-1.26.898-1.113,1.201-1.86.454-1.569.454-2.468c0-.879-.137-1.651-.41-2.315-.439-1.064-1.323-1.958-2.651-2.681-.576-.313-1.754-.814-3.531-1.508-.557-.215-.998-.394-1.325-.535s-.655-.302-.982-.483-.574-.357-.74-.528-.297-.363-.395-.578-.147-.454-.147-.718c.01-.664.251-1.187.725-1.568s1.087-.571,1.839-.571c1.387,0,2.934.698,4.643,2.095c0,0,2.432-3.179,2.432-3.179-2.207-1.816-4.6-2.709-7.178-2.68-1.26.02-2.412.295-3.457.827s-1.869,1.262-2.475,2.19-.908,1.953-.908,3.076c0,.557.065,1.082.197,1.575s.303.928.513,1.304.483.732.82,1.069.676.625,1.018.864.747.479,1.216.718.903.437,1.304.593.859.328,1.377.513c.576.195,1.039.364,1.391.505s.691.303,1.018.484.577.364.748.549.304.401.402.645.147.522.147.835c0,.449-.112.839-.337,1.171s-.569.596-1.033.791-1.028.293-1.692.293c-.43,0-.869-.053-1.318-.161s-.901-.268-1.355-.483-.908-.493-1.362-.835-.877-.738-1.267-1.187c0,0-2.535,3.121-2.535,3.121c1.094,1.123,2.308,1.962,3.641,2.519s2.707.835,4.123.835Z" fill="#8a2900" stroke-width="0"/></g></g></g></g><g id="egl62u0WKoJ307" transform="matrix(.28728 0 0 0.28728 252.2112 246.0928)" opacity="0" clip-path="url(#egl62u0WKoJ380)"><g transform="translate(960 540)"><g id="egl62u0WKoJ309_to" style="offset-path:path('M0,0C-31.667,9.333,-158.333,46.667,-190,56');offset-rotate:0deg"><g id="egl62u0WKoJ309_tr" transform="rotate(0)"><g id="egl62u0WKoJ309_ts" transform="scale(0,0)"><g transform="translate(-100,-100)" clip-path="url(#egl62u0WKoJ310)"><clipPath id="egl62u0WKoJ310"><rect width="200" height="200" rx="0" ry="0" fill="none" stroke-width="0"/></clipPath><g transform="matrix(.65 0 0 0.65 100.062 99.875)"><rect width="50" height="50" rx="0" ry="0" transform="translate(-25-25)" paint-order="stroke fill markers" fill="none" fill-rule="evenodd" stroke="#fff" stroke-width="10"/></g></g></g></g></g></g><g transform="translate(960 540)"><g id="egl62u0WKoJ315_to" style="offset-path:path('M0,0C1,-51.667,5,-258.333,6,-310');offset-rotate:0deg"><g id="egl62u0WKoJ315_tr" transform="rotate(0)"><g id="egl62u0WKoJ315_ts" transform="scale(0,0)"><g transform="translate(-100,-100)" clip-path="url(#egl62u0WKoJ316)"><clipPath id="egl62u0WKoJ316"><rect width="200" height="200" rx="0" ry="0" fill="none" stroke-width="0"/></clipPath><g transform="matrix(.75 0 0 0.75-11.347 120.545)"><g transform="matrix(0 1-1 0 148.5-27.5)"><rect width="12" height="60" rx="0" ry="0" transform="translate(-6-30)" fill="#fff" stroke-width="0"/></g><g transform="translate(148.5-27.5)"><rect width="12" height="60" rx="0" ry="0" transform="translate(-6-30)" fill="#fff" stroke-width="0"/></g></g></g></g></g></g></g><g transform="translate(960 540)"><g id="egl62u0WKoJ324_to" style="offset-path:path('M0,0C23,-41,115,-205,138,-246');offset-rotate:0deg"><g id="egl62u0WKoJ324_tr" transform="rotate(0)"><g id="egl62u0WKoJ324_ts" transform="scale(0,0)"><g transform="translate(-100,-100)" clip-path="url(#egl62u0WKoJ330)"><g transform="matrix(.75 0 0 0.75-11.347 120.545)"><g transform="matrix(0 1-1 0 148.5-27.5)"><rect width="12" height="60" rx="0" ry="0" transform="translate(-6-30)" fill="#ff3407" stroke-width="0"/></g><g transform="translate(148.5-27.5)"><rect width="12" height="60" rx="0" ry="0" transform="translate(-6-30)" fill="#ff3407" stroke-width="0"/></g></g><clipPath id="egl62u0WKoJ330"><rect width="200" height="200" rx="0" ry="0" fill="none" stroke-width="0"/></clipPath></g></g></g></g></g><g transform="translate(960 540)"><g id="egl62u0WKoJ333_to" style="offset-path:path('M0,0C-48.667,-1.667,-243.333,-8.333,-292,-10');offset-rotate:0deg"><g id="egl62u0WKoJ333_tr" transform="rotate(0)"><g id="egl62u0WKoJ333_ts" transform="scale(0,0)"><g transform="translate(-100,-100)" clip-path="url(#egl62u0WKoJ339)"><g transform="matrix(.75 0 0 0.75-11.347 120.545)"><g transform="matrix(0 1-1 0 148.5-27.5)"><rect width="12" height="60" rx="0" ry="0" transform="translate(-6-30)" fill="#ff3407" stroke="#ff3407"/></g><g transform="translate(148.5-27.5)"><rect width="12" height="60" rx="0" ry="0" transform="translate(-6-30)" fill="#ff3407" stroke="#ff3407"/></g></g><clipPath id="egl62u0WKoJ339"><rect width="200" height="200" rx="0" ry="0" fill="none" stroke-width="0"/></clipPath></g></g></g></g></g><g transform="translate(960 540)"><g id="egl62u0WKoJ342_to" style="offset-path:path('M0,0C0.667,40.333,3.333,201.667,4,242');offset-rotate:0deg"><g id="egl62u0WKoJ342_tr" transform="rotate(-75)"><g id="egl62u0WKoJ342_ts" transform="scale(0,0)"><g transform="translate(-100,-100)" clip-path="url(#egl62u0WKoJ345)"><g transform="matrix(.65 0 0 0.65 99.938 99.937)"><ellipse rx="25.85" ry="25.85" paint-order="stroke fill markers" fill="none" fill-rule="evenodd" stroke="#ff3407" stroke-width="10"/></g><clipPath id="egl62u0WKoJ345"><rect width="200" height="200" rx="0" ry="0" fill="none" stroke="#ff3407"/></clipPath></g></g></g></g></g><g transform="translate(960 540)"><g id="egl62u0WKoJ348_to" style="offset-path:path('M0,0C39.667,16.333,198.333,81.667,238,98');offset-rotate:0deg"><g id="egl62u0WKoJ348_tr" transform="rotate(-106)"><g id="egl62u0WKoJ348_ts" transform="scale(0,0)"><g transform="translate(-100,-100)" clip-path="url(#egl62u0WKoJ351)"><g transform="matrix(.65 0 0 0.65 98.54135 104.3797)"><path d="M2.261,-38.5c0,0,27.761,48.084,27.761,48.084s-55.522,0-55.522,0s27.761-48.084,27.761-48.084Z" paint-order="stroke fill markers" fill="none" fill-rule="evenodd" stroke="#fff" stroke-width="10"/></g><clipPath id="egl62u0WKoJ351"><rect width="200" height="200" rx="0" ry="0" fill="none" stroke-width="0"/></clipPath></g></g></g></g></g><g transform="translate(960 540)"><g id="egl62u0WKoJ354_to" style="offset-path:path('M-2.5,-1C-2.5,-1.703,-98.837,161.953,-107.138,232.205');offset-rotate:0deg"><g id="egl62u0WKoJ354_tr" transform="rotate(162)"><g id="egl62u0WKoJ354_ts" transform="scale(0,0)"><g transform="translate(-100,-100)" clip-path="url(#egl62u0WKoJ360)"><g transform="matrix(.75 0 0 0.75-11.347 120.545)"><g transform="matrix(0 1-1 0 148.5-27.5)"><rect width="12" height="60" rx="0" ry="0" transform="translate(-6-30)" fill="#ff3407" stroke="#ff3407" stroke-width="3"/></g><g transform="translate(148.5-27.5)"><rect width="12" height="60" rx="0" ry="0" transform="translate(-6-30)" fill="#ff3407" stroke="#ff3407" stroke-width="3"/></g></g><clipPath id="egl62u0WKoJ360"><rect width="200" height="200" rx="0" ry="0" fill="none" stroke-width="0"/></clipPath></g></g></g></g></g><g transform="translate(960 540)"><g id="egl62u0WKoJ363_to" style="offset-path:path('M5,-7C5,-7.422,255.967,-178.862,256.5,-179.129');offset-rotate:0deg"><g id="egl62u0WKoJ363_tr" transform="rotate(115)"><g id="egl62u0WKoJ363_ts" transform="scale(0,0)"><g transform="translate(-100,-100)" clip-path="url(#egl62u0WKoJ366)"><g transform="matrix(.65 0 0 0.65 100.062 99.875)"><rect width="50" height="50" rx="0" ry="0" transform="translate(-25-25)" paint-order="stroke fill markers" fill="none" fill-rule="evenodd" stroke="#ff3407" stroke-width="10"/></g><clipPath id="egl62u0WKoJ366"><rect width="200" height="200" rx="0" ry="0" fill="none" stroke-width="0"/></clipPath></g></g></g></g></g><g transform="translate(960 540)"><g id="egl62u0WKoJ369_to" style="offset-path:path('M-2.5,-10.5C-2.5,-11.312,-158.667,-262.546,-159,-263.879');offset-rotate:0deg"><g id="egl62u0WKoJ369_tr" transform="rotate(29)"><g id="egl62u0WKoJ369_ts" transform="scale(0,0)"><g transform="translate(-100,-100)" clip-path="url(#egl62u0WKoJ372)"><g transform="matrix(.65 0 0 0.65 99.938 99.937)"><ellipse rx="25.85" ry="25.85" paint-order="stroke fill markers" fill="none" fill-rule="evenodd" stroke="#ff3407" stroke-width="10"/></g><clipPath id="egl62u0WKoJ372"><rect width="200" height="200" rx="0" ry="0" fill="none" stroke-width="0"/></clipPath></g></g></g></g></g><g transform="translate(960 540)"><g id="egl62u0WKoJ375_to" style="offset-path:path('M-2.5,-8.5Q-2.5,-9.151,137.879,202.919');offset-rotate:0deg"><g id="egl62u0WKoJ375_tr" transform="rotate(80)"><g id="egl62u0WKoJ375_ts" transform="scale(0,0)"><g transform="translate(-100,-100)" clip-path="url(#egl62u0WKoJ378)"><g transform="matrix(.65 0 0 0.65 98.54135 104.3797)"><path d="M2.261,-38.5c0,0,27.761,48.084,27.761,48.084s-55.522,0-55.522,0s27.761-48.084,27.761-48.084Z" paint-order="stroke fill markers" fill="#fdfdfd" fill-rule="evenodd" stroke="#ff3407" stroke-width="10"/></g><clipPath id="egl62u0WKoJ378"><rect width="200" height="200" rx="0" ry="0" fill="none" stroke-width="0"/></clipPath></g></g></g></g></g><clipPath id="egl62u0WKoJ380"><rect width="1920" height="1080" rx="0" ry="0" fill="none" stroke-width="0"/></clipPath></g><g id="egl62u0WKoJ382_ts" transform="translate(528.067,435.6) scale(0,0)"><g transform="translate(-113.499,-55.187)"><g id="egl62u0WKoJ383_tr" transform="translate(112.906,36.68) rotate(-130)"><g id="egl62u0WKoJ383_ts" transform="scale(0,0)"><g transform="translate(-26.381,-26.381)"><g id="egl62u0WKoJ384" transform="matrix(-2.95097 0 0-2.95097 47.329229 47.826171)" opacity="0"><g><path d="M3.02,0c0,0,8.35,0,8.35,0c1.668,0,3.02,1.352,3.02,3.02c0,0,0,8.23,0,8.23c0,1.668-1.352,3.02-3.02,3.02c0,0-8.35,0-8.35,0C1.352,14.27,0,12.918,0,11.25c0,0,0-8.23,0-8.23C0,1.352,1.352,0,3.02,0Z" fill="#37ca00" stroke-width="0"/></g><g><path d="M3.02,0c0,0,8.35,0,8.35,0c1.668,0,3.02,1.352,3.02,3.02c0,0,0,8.23,0,8.23c0,1.668-1.352,3.02-3.02,3.02c0,0-8.35,0-8.35,0C1.352,14.27,0,12.918,0,11.25c0,0,0-8.23,0-8.23C0,1.352,1.352,0,3.02,0Z" fill="none" fill-rule="evenodd" stroke-width="0"/></g></g></g></g></g></g></g><g id="egl62u0WKoJ389_ts" transform="translate(528.067,435.6) scale(0,0)"><g transform="translate(-113.499,-55.187)"><g id="egl62u0WKoJ390_tr" transform="translate(112.906,36.68) rotate(-130)"><g id="egl62u0WKoJ390_ts" transform="scale(0,0)"><g transform="translate(-26.381,-26.381)"><g transform="matrix(-2.95097 0 0-2.95097 47.329229 47.826171)"><g id="egl62u0WKoJ392" transform="matrix(-1 0 0-1 11.21 9.89)" opacity="0"><path d="M8.02,0c0,0-5.59,5.5-5.59,5.5s-2.43-3.15-2.43-3.15" paint-order="stroke fill markers" fill="none" fill-rule="evenodd" stroke="#fff" stroke-width="1.5"/></g></g></g></g></g></g></g></svg>
