<svg id="eisu1KDBZ8X1" xmlns="http://www.w3.org/2000/svg" xmlns:xlink="http://www.w3.org/1999/xlink" viewBox="0 0 600 450" shape-rendering="geometricPrecision" text-rendering="geometricPrecision" project-id="d2c5011512904df2bf94002fa8853433" export-id="4d948b9130b14fea98f6b98fa80e2f41" cached="false" style="background-color:transparent">
<style><![CDATA[
#eisu1KDBZ8X11 {animation: eisu1KDBZ8X11_c_o 7400ms linear infinite normal forwards}@keyframes eisu1KDBZ8X11_c_o { 0% {opacity: 0} 26.472973% {opacity: 0;animation-timing-function: step-end} 26.608108% {opacity: 1;animation-timing-function: step-end} 100% {opacity: 0.909483}} #eisu1KDBZ8X12 {animation: eisu1KDBZ8X12_s_da 7400ms linear infinite normal forwards}@keyframes eisu1KDBZ8X12_s_da { 0% {stroke-dasharray: 0, 360.2, 0, 0} 26.608108% {stroke-dasharray: 0, 360.2, 0, 0} 37.878378% {stroke-dasharray: 0, 0, 360.19, 0} 100% {stroke-dasharray: 0, 0, 360.19, 0}} #eisu1KDBZ8X14_to {animation: eisu1KDBZ8X14_to__to 7400ms linear infinite normal forwards}@keyframes eisu1KDBZ8X14_to__to { 0% {offset-distance: 0%} 26.608108% {offset-distance: 0%} 30.040541% {offset-distance: 30.462169%} 36.837838% {offset-distance: 90.670246%} 37.405405% {offset-distance: 95.707445%} 37.878378% {offset-distance: 100%} 100% {offset-distance: 100%}} #eisu1KDBZ8X14_tr {animation: eisu1KDBZ8X14_tr__tr 7400ms linear infinite normal forwards}@keyframes eisu1KDBZ8X14_tr__tr { 0% {transform: rotate(177deg)} 26.608108% {transform: rotate(177deg)} 29.77027% {transform: rotate(180deg)} 30.216216% {transform: rotate(89deg)} 36.527027% {transform: rotate(89deg)} 36.972973% {transform: rotate(77.333deg)} 37.878378% {transform: rotate(1.333deg)} 100% {transform: rotate(1.333deg)}} #eisu1KDBZ8X14 {animation: eisu1KDBZ8X14_c_o 7400ms linear infinite normal forwards}@keyframes eisu1KDBZ8X14_c_o { 0% {opacity: 0} 26.472973% {opacity: 0;animation-timing-function: step-end} 26.608108% {opacity: 1;animation-timing-function: step-end} 100% {opacity: 0.909483}} #eisu1KDBZ8X227 {animation: eisu1KDBZ8X227_c_o 7400ms linear infinite normal forwards}@keyframes eisu1KDBZ8X227_c_o { 0% {opacity: 0} 7.540541% {opacity: 0;animation-timing-function: step-end} 7.675676% {opacity: 1;animation-timing-function: step-end} 100% {opacity: 0.886133}} #eisu1KDBZ8X246_to {animation: eisu1KDBZ8X246_to__to 7400ms linear infinite normal forwards}@keyframes eisu1KDBZ8X246_to__to { 0% {offset-distance: 0%} 7.675676% {offset-distance: 0%;animation-timing-function: cubic-bezier(0.333,0,0.667,1)} 17.594595% {offset-distance: 50%;animation-timing-function: cubic-bezier(0.333,0,0.667,1)} 26.608108% {offset-distance: 100%} 100% {offset-distance: 100%}} #eisu1KDBZ8X246 {animation: eisu1KDBZ8X246_c_o 7400ms linear infinite normal forwards}@keyframes eisu1KDBZ8X246_c_o { 0% {opacity: 0} 7.675676% {opacity: 0} 9.918919% {opacity: 1} 25.256757% {opacity: 1} 27.513514% {opacity: 0} 100% {opacity: 0}} #eisu1KDBZ8X250_ts {animation: eisu1KDBZ8X250_ts__ts 7400ms linear infinite normal forwards}@keyframes eisu1KDBZ8X250_ts__ts { 0% {transform: translate(533.64354px,764.499552px) scale(0,0)} 37.878378% {transform: translate(533.64354px,764.499552px) scale(0,0);animation-timing-function: cubic-bezier(0.167,0.167,0,1)} 49.608108% {transform: translate(533.64354px,764.499552px) scale(1,1)} 100% {transform: translate(533.64354px,764.499552px) scale(1,1)}} #eisu1KDBZ8X250 {animation: eisu1KDBZ8X250_c_o 7400ms linear infinite normal forwards}@keyframes eisu1KDBZ8X250_c_o { 0% {opacity: 0} 37.743243% {opacity: 0;animation-timing-function: step-end} 37.878378% {opacity: 1;animation-timing-function: step-end} 100% {opacity: 0.920141}} #eisu1KDBZ8X256_ts {animation: eisu1KDBZ8X256_ts__ts 7400ms linear infinite normal forwards}@keyframes eisu1KDBZ8X256_ts__ts { 0% {transform: translate(530.357px,748.633px) scale(0,0)} 37.878378% {transform: translate(530.357px,748.633px) scale(0,0);animation-timing-function: cubic-bezier(0.167,0.167,0,1)} 49.608108% {transform: translate(530.357px,748.633px) scale(1,1)} 100% {transform: translate(530.357px,748.633px) scale(1,1)}} #eisu1KDBZ8X257 {animation: eisu1KDBZ8X257_c_o 7400ms linear infinite normal forwards}@keyframes eisu1KDBZ8X257_c_o { 0% {opacity: 0} 37.743243% {opacity: 0;animation-timing-function: step-end} 37.878378% {opacity: 1;animation-timing-function: step-end} 100% {opacity: 0.920141}} #eisu1KDBZ8X262_ts {animation: eisu1KDBZ8X262_ts__ts 7400ms linear infinite normal forwards}@keyframes eisu1KDBZ8X262_ts__ts { 0% {transform: translate(531.46882px,742.980507px) scale(0,0)} 37.878378% {transform: translate(531.46882px,742.980507px) scale(0,0);animation-timing-function: cubic-bezier(0.167,0.167,0,1)} 49.608108% {transform: translate(531.46882px,742.980507px) scale(1,1)} 100% {transform: translate(531.46882px,742.980507px) scale(1,1)}} #eisu1KDBZ8X263 {animation: eisu1KDBZ8X263_c_o 7400ms linear infinite normal forwards}@keyframes eisu1KDBZ8X263_c_o { 0% {opacity: 0} 37.743243% {opacity: 0;animation-timing-function: step-end} 37.878378% {opacity: 1;animation-timing-function: step-end} 100% {opacity: 0.920141}} #eisu1KDBZ8X267_ts {animation: eisu1KDBZ8X267_ts__ts 7400ms linear infinite normal forwards}@keyframes eisu1KDBZ8X267_ts__ts { 0% {transform: translate(20.67898px,69.073584px) scale(0,0)} 37.878378% {transform: translate(20.67898px,69.073584px) scale(0,0);animation-timing-function: cubic-bezier(0.167,0.167,0,1)} 49.608108% {transform: translate(20.67898px,69.073584px) scale(1,1)} 100% {transform: translate(20.67898px,69.073584px) scale(1,1)}} #eisu1KDBZ8X269_ts {animation: eisu1KDBZ8X269_ts__ts 7400ms linear infinite normal forwards}@keyframes eisu1KDBZ8X269_ts__ts { 0% {transform: translate(531.46882px,767.52609px) scale(0,0)} 37.878378% {transform: translate(531.46882px,767.52609px) scale(0,0);animation-timing-function: cubic-bezier(0.167,0.167,0,1)} 49.608108% {transform: translate(531.46882px,767.52609px) scale(1,1)} 100% {transform: translate(531.46882px,767.52609px) scale(1,1)}} #eisu1KDBZ8X270 {animation: eisu1KDBZ8X270_c_o 7400ms linear infinite normal forwards}@keyframes eisu1KDBZ8X270_c_o { 0% {opacity: 0} 37.743243% {opacity: 0;animation-timing-function: step-end} 37.878378% {opacity: 1;animation-timing-function: step-end} 100% {opacity: 0.920141}} #eisu1KDBZ8X272_ts {animation: eisu1KDBZ8X272_ts__ts 7400ms linear infinite normal forwards}@keyframes eisu1KDBZ8X272_ts__ts { 0% {transform: translate(1.20898px,-2.154144px) scale(0,0)} 37.878378% {transform: translate(1.20898px,-2.154144px) scale(0,0);animation-timing-function: cubic-bezier(0.167,0.167,0,1)} 49.608108% {transform: translate(1.20898px,-2.154144px) scale(1,1)} 100% {transform: translate(1.20898px,-2.154144px) scale(1,1)}} #eisu1KDBZ8X274_ts {animation: eisu1KDBZ8X274_ts__ts 7400ms linear infinite normal forwards}@keyframes eisu1KDBZ8X274_ts__ts { 0% {transform: translate(526.621227px,767.52609px) scale(0,0)} 37.878378% {transform: translate(526.621227px,767.52609px) scale(0,0);animation-timing-function: cubic-bezier(0.167,0.167,0,1)} 49.608108% {transform: translate(526.621227px,767.52609px) scale(1,1)} 100% {transform: translate(526.621227px,767.52609px) scale(1,1)}} #eisu1KDBZ8X275 {animation: eisu1KDBZ8X275_c_o 7400ms linear infinite normal forwards}@keyframes eisu1KDBZ8X275_c_o { 0% {opacity: 0} 37.743243% {opacity: 0;animation-timing-function: step-end} 37.878378% {opacity: 1;animation-timing-function: step-end} 100% {opacity: 0.920141}} #eisu1KDBZ8X277_ts {animation: eisu1KDBZ8X277_ts__ts 7400ms linear infinite normal forwards}@keyframes eisu1KDBZ8X277_ts__ts { 0% {transform: translate(1.20898px,-3.100514px) scale(0,0)} 37.878378% {transform: translate(1.20898px,-3.100514px) scale(0,0);animation-timing-function: cubic-bezier(0.167,0.167,0,1)} 49.608108% {transform: translate(1.20898px,-3.100514px) scale(1,1)} 100% {transform: translate(1.20898px,-3.100514px) scale(1,1)}} #eisu1KDBZ8X279_ts {animation: eisu1KDBZ8X279_ts__ts 7400ms linear infinite normal forwards}@keyframes eisu1KDBZ8X279_ts__ts { 0% {transform: translate(527.853592px,767.52609px) scale(0,0)} 37.878378% {transform: translate(527.853592px,767.52609px) scale(0,0);animation-timing-function: cubic-bezier(0.167,0.167,0,1)} 49.608108% {transform: translate(527.853592px,767.52609px) scale(1,1)} 100% {transform: translate(527.853592px,767.52609px) scale(1,1)}} #eisu1KDBZ8X280 {animation: eisu1KDBZ8X280_c_o 7400ms linear infinite normal forwards}@keyframes eisu1KDBZ8X280_c_o { 0% {opacity: 0} 37.743243% {opacity: 0;animation-timing-function: step-end} 37.878378% {opacity: 1;animation-timing-function: step-end} 100% {opacity: 0.920141}} #eisu1KDBZ8X282_ts {animation: eisu1KDBZ8X282_ts__ts 7400ms linear infinite normal forwards}@keyframes eisu1KDBZ8X282_ts__ts { 0% {transform: translate(1.20898px,-3.064268px) scale(0,0)} 37.878378% {transform: translate(1.20898px,-3.064268px) scale(0,0);animation-timing-function: cubic-bezier(0.167,0.167,0,1)} 49.608108% {transform: translate(1.20898px,-3.064268px) scale(1,1)} 100% {transform: translate(1.20898px,-3.064268px) scale(1,1)}} #eisu1KDBZ8X284_ts {animation: eisu1KDBZ8X284_ts__ts 7400ms linear infinite normal forwards}@keyframes eisu1KDBZ8X284_ts__ts { 0% {transform: translate(526.621227px,767.52609px) scale(0,0)} 37.878378% {transform: translate(526.621227px,767.52609px) scale(0,0);animation-timing-function: cubic-bezier(0.167,0.167,0,1)} 49.608108% {transform: translate(526.621227px,767.52609px) scale(1,1)} 100% {transform: translate(526.621227px,767.52609px) scale(1,1)}} #eisu1KDBZ8X285 {animation: eisu1KDBZ8X285_c_o 7400ms linear infinite normal forwards}@keyframes eisu1KDBZ8X285_c_o { 0% {opacity: 0} 37.743243% {opacity: 0;animation-timing-function: step-end} 37.878378% {opacity: 1;animation-timing-function: step-end} 100% {opacity: 0.920141}} #eisu1KDBZ8X287_ts {animation: eisu1KDBZ8X287_ts__ts 7400ms linear infinite normal forwards}@keyframes eisu1KDBZ8X287_ts__ts { 0% {transform: translate(1.20898px,-2.901825px) scale(0,0)} 37.878378% {transform: translate(1.20898px,-2.901825px) scale(0,0);animation-timing-function: cubic-bezier(0.167,0.167,0,1)} 49.608108% {transform: translate(1.20898px,-2.901825px) scale(1,1)} 100% {transform: translate(1.20898px,-2.901825px) scale(1,1)}} #eisu1KDBZ8X290_ts {animation: eisu1KDBZ8X290_ts__ts 7400ms linear infinite normal forwards}@keyframes eisu1KDBZ8X290_ts__ts { 0% {transform: translate(415.335px,399.008px) scale(0,0)} 37.878378% {transform: translate(415.335px,399.008px) scale(0,0);animation-timing-function: cubic-bezier(0.167,0.167,0,1)} 49.608108% {transform: translate(415.335px,399.008px) scale(1,1)} 100% {transform: translate(415.335px,399.008px) scale(1,1)}}
]]></style>
<g transform="translate(300.5 215.5)"><g><rect width="496" height="318" rx="10" ry="10" transform="translate(-248-159)" fill="#f7f7f7" stroke-width="0"/></g><g><rect width="496" height="318" rx="10" ry="10" transform="translate(-248-159)" fill="none" fill-rule="evenodd" stroke-width="0"/></g></g><g transform="translate(223.5 129.301)"><path d="M0,1.47C0,1.47,0,0,0,0" paint-order="stroke fill markers" fill="none" fill-rule="evenodd" stroke="#7c7c7c"/></g><g transform="translate(223.5 79.172)"><path d="M0,1.47C0,1.47,0,0,0,0s1.445,0,1.445,0" paint-order="stroke fill markers" fill="none" fill-rule="evenodd" stroke="#7c7c7c"/></g><g id="eisu1KDBZ8X11" transform="translate(170 366.747)" opacity="0"><path id="eisu1KDBZ8X12" d="M238,37.253c0,0,1,9.25-3.966,14.418-4.862,3.893-10.279,5.221-16.989,5.221c0,0-216.92.015-216.92.015s-.25-109.75-.25-109.75" paint-order="stroke fill markers" fill="none" fill-rule="evenodd" stroke="#8c2800" stroke-dasharray="0,360.2,0,0"/></g><g transform="translate(300.5 215.5)"><g id="eisu1KDBZ8X14_to" style="offset-path:path('M-130.625,98.907L-130.375,208.657L86.545,208.642C93.255,208.642,98.672,207.314,103.534,203.421Q108.5,198.253,107.5,189.003');offset-rotate:0deg"><g id="eisu1KDBZ8X14_tr" transform="rotate(177)"><g id="eisu1KDBZ8X14" transform="translate(-4.712,-2.931)" opacity="0"><g><path d="M9.425,5.078c0,0-.842.784-.842.784s-3.865-4.166-3.865-4.166-3.876,4.166-3.876,4.166-.842-.784-.842-.784C0,5.078,4.718,0,4.718,0s4.707,5.078,4.707,5.078Z" fill="#8c2800" stroke-width="0"/></g><g><path d="M9.425,5.078c0,0-.842.784-.842.784s-3.865-4.166-3.865-4.166-3.876,4.166-3.876,4.166-.842-.784-.842-.784C0,5.078,4.718,0,4.718,0s4.707,5.078,4.707,5.078Z" fill="none" fill-rule="evenodd" stroke-width="0"/></g></g></g></g></g><g transform="matrix(1.26 0 0 1.26 173.980999 213.092)"><g><rect width="120.963" height="122.817" rx="6" ry="6" transform="translate(-60.4815-61.4085)" fill="#fff" stroke-width="0"/></g><g><rect width="120.963" height="122.817" rx="6" ry="6" transform="translate(-60.4815-61.4085)" paint-order="stroke fill markers" fill="none" fill-rule="evenodd" stroke="#eff3f4"/></g></g><g transform="matrix(1.26 0 0 1.26 116.04494 154.85858)"><g transform="translate(45.705 45.695)"><g><rect width="91.41" height="91.389" rx="0" ry="0" transform="translate(-45.705-45.6945)" fill="none" fill-rule="evenodd" stroke-width="0"/></g><g><rect width="91.41" height="91.389" rx="0" ry="0" transform="translate(-45.705-45.6945)" fill="none" fill-rule="evenodd" stroke-width="0"/></g></g><g transform="translate(52.216 34.92)"><g><path d="M30.604,12.928c0,0-4.338,0-4.338,0s0,4.316,0,4.316-12.959,0-12.959,0s0,13.128,0,13.128s4.211,0,4.211,0c0,1.421,0,2.853,0,4.495c0,0-4.274,0-4.274,0s0,4.137,0,4.137s17.181,0,17.181,0s0-8.569,0-8.569-12.97,0-12.97,0s0-4.348,0-4.348s8.695,0,8.695,0s0-4.242,0-4.242s4.39,0,4.39,0s0,4.137,0,4.137s4.317,0,4.317,0s0,13.117,0,13.117s4.337,0,4.337,0s0,8.601,0,8.601-4.232,0-4.232,0s0-4.106,0-4.106-4.316,0-4.316,0s0,4.127,0,4.127-4.39,0-4.39,0s0-4.084,0-4.084-4.317,0-4.317,0s0,4.032,0,4.032-4.39,0-4.39,0s0-4.064,0-4.064-4.316,0-4.316,0s0,4.2,0,4.2-8.864,0-8.864,0s.063.064.063.064s0-8.686,0-8.686-4.274,0-4.274,0s0-4.369,0-4.369s8.432,0,8.432,0s0-8.811,0-8.811-4.232,0-4.232,0s.064.063.064.063s0-4.464,0-4.464s4.168,0,4.168,0s0-4.253,0-4.253-8.59,0-8.59,0c.021-1.474.042-2.947.063-4.421c0,0-.063.063-.063.063s8.622,0,8.622,0s0-4.474,0-4.474-4.19,0-4.19,0s0-4.317,0-4.317-.063.064-.063.064s4.316,0,4.316,0s0-4.264,0-4.264s13.191,0,13.191,0s0,8.612,0,8.612c-2.863,0-5.737,0-8.611,0c0,0,0,4.189,0,4.189s8.548,0,8.548,0s0-4.253,0-4.253c2.927.021,5.853.053,8.78.074c0,0-.063-.063-.063-.063s0,4.421,0,4.421.063-.063.063-.063.011.011.011.011Z" fill="none" fill-rule="evenodd" stroke-width="0"/></g><g><path d="M30.604,12.928c0,0-4.338,0-4.338,0s0,4.316,0,4.316-12.959,0-12.959,0s0,13.128,0,13.128s4.211,0,4.211,0c0,1.421,0,2.853,0,4.495c0,0-4.274,0-4.274,0s0,4.137,0,4.137s17.181,0,17.181,0s0-8.569,0-8.569-12.97,0-12.97,0s0-4.348,0-4.348s8.695,0,8.695,0s0-4.242,0-4.242s4.39,0,4.39,0s0,4.137,0,4.137s4.317,0,4.317,0s0,13.117,0,13.117s4.337,0,4.337,0s0,8.601,0,8.601-4.232,0-4.232,0s0-4.106,0-4.106-4.316,0-4.316,0s0,4.127,0,4.127-4.39,0-4.39,0s0-4.084,0-4.084-4.317,0-4.317,0s0,4.032,0,4.032-4.39,0-4.39,0s0-4.064,0-4.064-4.316,0-4.316,0s0,4.2,0,4.2-8.864,0-8.864,0s.063.064.063.064s0-8.686,0-8.686-4.274,0-4.274,0s0-4.369,0-4.369s8.432,0,8.432,0s0-8.811,0-8.811-4.232,0-4.232,0s.064.063.064.063s0-4.464,0-4.464s4.168,0,4.168,0s0-4.253,0-4.253-8.59,0-8.59,0c.021-1.474.042-2.947.063-4.421c0,0-.063.063-.063.063s8.622,0,8.622,0s0-4.474,0-4.474-4.19,0-4.19,0s0-4.317,0-4.317-.063.064-.063.064s4.316,0,4.316,0s0-4.264,0-4.264s13.191,0,13.191,0s0,8.612,0,8.612c-2.863,0-5.737,0-8.611,0c0,0,0,4.189,0,4.189s8.548,0,8.548,0s0-4.253,0-4.253c2.927.021,5.853.053,8.78.074c0,0-.063-.063-.063-.063s0,4.421,0,4.421.063-.063.063-.063.011.011.011.011Z" fill="#692b24" stroke-width="0"/></g></g><g transform="translate(.074 0)"><g><path d="M25.866,25.982c0,0,0-21.539,0-21.539s-21.539,0-21.539,0s0,21.539,0,21.539s21.539,0,21.539,0Z" fill="none" fill-rule="evenodd" stroke-width="0"/><path d="M0,0C0,0,30.267,0,30.267,0s0,30.267,0,30.267-30.267,0-30.267,0C0,30.267,0,0,0,0Z" fill="none" fill-rule="evenodd" stroke-width="0"/></g><g><path d="M0,0C0,0,30.267,0,30.267,0s0,30.267,0,30.267-30.267,0-30.267,0C0,30.267,0,0,0,0Z" fill="#692b24" stroke-width="0"/><path d="M25.866,25.982c0,0,0-21.539,0-21.539s-21.539,0-21.539,0s0,21.539,0,21.539s21.539,0,21.539,0Z" fill="#fff" stroke-width="0"/></g></g><g transform="translate(.095 61.123)"><g><path d="M4.348,4.306c0,0,0,21.539,0,21.539s21.539,0,21.539,0s0-21.539,0-21.539-21.539,0-21.539,0Z" fill="none" fill-rule="evenodd" stroke-width="0"/><path d="M30.256,0c0,0,0,30.267,0,30.267s-30.256,0-30.256,0C0,30.267,0,0,0,0s30.267,0,30.267,0-.011,0-.011,0Z" fill="none" fill-rule="evenodd" stroke-width="0"/></g><g><path d="M30.256,0c0,0,0,30.267,0,30.267s-30.256,0-30.256,0C0,30.267,0,0,0,0s30.267,0,30.267,0-.011,0-.011,0Z" fill="#692b24" stroke-width="0"/><path d="M4.348,4.306c0,0,0,21.539,0,21.539s21.539,0,21.539,0s0-21.539,0-21.539-21.539,0-21.539,0Z" fill="#fff" stroke-width="0"/></g></g><g transform="translate(61.144 0)"><g><path d="M25.919,4.422c0,0-21.54,0-21.54,0s0,21.539,0,21.539s21.54,0,21.54,0s0-21.539,0-21.539Z" fill="none" fill-rule="evenodd" stroke-width="0"/><path d="M0,0C0,0,30.256,0,30.256,0s0,30.267,0,30.267-30.256,0-30.256,0C0,30.267,0,0,0,0Z" fill="none" fill-rule="evenodd" stroke-width="0"/></g><g><path d="M0,0C0,0,30.256,0,30.256,0s0,30.267,0,30.267-30.256,0-30.256,0C0,30.267,0,0,0,0Z" fill="#692b24" stroke-width="0"/><path d="M25.919,4.422c0,0-21.54,0-21.54,0s0,21.539,0,21.539s21.54,0,21.54,0s0-21.539,0-21.539Z" fill="#fff" stroke-width="0"/></g></g><g transform="translate(34.688 12.96)"><g><path d="M17.549,0.063c0,0,4.243,0,4.243,0s0,8.622,0,8.622-8.496,0-8.496,0s0,8.654,0,8.654-4.39,0-4.39,0s0-4.064,0-4.064-4.39,0-4.39,0s0,8.464,0,8.464c-1.663,0-3.084,0-4.516,0c0,0,.074.064.063.064c0-5.706,0-11.412,0-17.339c0,0,17.539,0,17.539,0s0-4.464,0-4.464-.063.063-.063.063.01,0,.01,0Z" fill="none" fill-rule="evenodd" stroke-width="0"/></g><g><path d="M17.549,0.063c0,0,4.243,0,4.243,0s0,8.622,0,8.622-8.496,0-8.496,0s0,8.654,0,8.654-4.39,0-4.39,0s0-4.064,0-4.064-4.39,0-4.39,0s0,8.464,0,8.464c-1.663,0-3.084,0-4.516,0c0,0,.074.064.063.064c0-5.706,0-11.412,0-17.339c0,0,17.539,0,17.539,0s0-4.464,0-4.464-.063.063-.063.063.01,0,.01,0Z" fill="#692b24" stroke-width="0"/></g></g><g transform="translate(34.783 52.216)"><g><path d="M21.813,8.717c0,0,0,4.348,0,4.348s-8.611,0-8.611,0s0,4.242,0,4.242-8.844,0-8.844,0c0-1.369,0-2.789,0-4.221c1.421,0,2.833,0,4.254,0c0,0,0-4.18,0-4.18s-4.19,0-4.19,0s0,4.243,0,4.243-4.359,0-4.359,0s0-13.149,0-13.149-.063.063-.063.063s4.422,0,4.422,0-.064-.063-.064-.063s0,4.358,0,4.358s8.791,0,8.791,0s0,4.422,0,4.422s8.717,0,8.717,0-.064-.063-.064-.063.011,0,.011,0Z" fill="none" fill-rule="evenodd" stroke-width="0"/></g><g><path d="M21.813,8.717c0,0,0,4.348,0,4.348s-8.611,0-8.611,0s0,4.242,0,4.242-8.844,0-8.844,0c0-1.369,0-2.789,0-4.221c1.421,0,2.833,0,4.254,0c0,0,0-4.18,0-4.18s-4.19,0-4.19,0s0,4.243,0,4.243-4.359,0-4.359,0s0-13.149,0-13.149-.063.063-.063.063s4.422,0,4.422,0-.064-.063-.064-.063s0,4.358,0,4.358s8.791,0,8.791,0s0,4.422,0,4.422s8.717,0,8.717,0-.064-.063-.064-.063.011,0,.011,0Z" fill="#692b24" stroke-width="0"/></g></g><g transform="translate(78.546 34.972)"><g><path d="M4.274,8.58c0,0,0-4.337,0-4.337s-4.274,0-4.274,0C0,4.243,0,0,0,0s8.527,0,8.527,0s0,4.158,0,4.158s4.327,0,4.327,0s0,12.949,0,12.949-8.59,0-8.59,0s0-4.232,0-4.232-.064.063-.064.063s4.243,0,4.243,0s0-4.421,0-4.421-4.243,0-4.243,0s.064.063.064.063.01,0,.01,0Z" fill="none" fill-rule="evenodd" stroke-width="0"/></g><g><path d="M4.274,8.58c0,0,0-4.337,0-4.337s-4.274,0-4.274,0C0,4.243,0,0,0,0s8.527,0,8.527,0s0,4.158,0,4.158s4.327,0,4.327,0s0,12.949,0,12.949-8.59,0-8.59,0s0-4.232,0-4.232-.064.063-.064.063s4.243,0,4.243,0s0-4.421,0-4.421-4.243,0-4.243,0s.064.063.064.063.01,0,.01,0Z" fill="#692b24" stroke-width="0"/></g></g><g transform="translate(43.511 78.377)"><g><path d="M13.086,4.358c0,1.474,0,2.948-.011,4.422c0,0,.063-.063.063-.063s-8.653,0-8.653,0s0,4.253,0,4.253-4.422,0-4.422,0c0-2.885,0-5.749,0-8.612c0,0-.063.064-.063.064s4.422,0,4.422,0s0-4.422,0-4.422-.064.063-.064.063s4.317,0,4.317,0s0,4.348,0,4.348c1.632,0,3.053,0,4.474,0c0,0-.063-.063-.063-.063s0,.01,0,.01Z" fill="none" fill-rule="evenodd" stroke-width="0"/></g><g><path d="M13.086,4.358c0,1.474,0,2.948-.011,4.422c0,0,.063-.063.063-.063s-8.653,0-8.653,0s0,4.253,0,4.253-4.422,0-4.422,0c0-2.885,0-5.749,0-8.612c0,0-.063.064-.063.064s4.422,0,4.422,0s0-4.422,0-4.422-.064.063-.064.063s4.317,0,4.317,0s0,4.348,0,4.348c1.632,0,3.053,0,4.474,0c0,0-.063-.063-.063-.063s0,.01,0,.01Z" fill="#692b24" stroke-width="0"/></g></g><g transform="translate(.084 48.037)"><g><path d="M12.833,0c0,0,0,8.443,0,8.443s-4.221,0-4.221,0s0-4.085,0-4.085-4.369,0-4.369,0s0,4.096,0,4.096-4.243,0-4.243,0C0,8.454,0,0,0,0s12.833,0,12.833,0Z" fill="none" fill-rule="evenodd" stroke-width="0"/></g><g><path d="M12.833,0c0,0,0,8.443,0,8.443s-4.221,0-4.221,0s0-4.085,0-4.085-4.369,0-4.369,0s0,4.096,0,4.096-4.243,0-4.243,0C0,8.454,0,0,0,0s12.833,0,12.833,0Z" fill="#692b24" stroke-width="0"/></g></g><g transform="translate(43.689 0.021)"><g><path d="M8.612,12.938c0,0-8.612,0-8.612,0C0,12.938,0,0,0,0s4.116,0,4.116,0s0,8.643,0,8.643s4.496,0,4.496,0-.064-.063-.064-.063c0,1.474,0,2.947.011,4.421c0,0,.063-.063.063-.063s-.01,0-.01,0Z" fill="none" fill-rule="evenodd" stroke-width="0"/></g><g><path d="M8.612,12.938c0,0-8.612,0-8.612,0C0,12.938,0,0,0,0s4.116,0,4.116,0s0,8.643,0,8.643s4.496,0,4.496,0-.064-.063-.064-.063c0,1.474,0,2.947.011,4.421c0,0,.063-.063.063-.063s-.01,0-.01,0Z" fill="#692b24" stroke-width="0"/></g></g><g transform="translate(0 34.93)"><g><path d="M0,8.422C0,8.422,0,0,0,0s8.527,0,8.527,0s0,8.422,0,8.422-8.527,0-8.527,0Z" fill="none" fill-rule="evenodd" stroke-width="0"/></g><g><path d="M0,8.422C0,8.422,0,0,0,0s8.527,0,8.527,0s0,8.422,0,8.422-8.527,0-8.527,0Z" fill="#692b24" stroke-width="0"/></g></g><g transform="translate(52.227 0.064)"><g><path d="M0.063,8.601c0,0,0-8.601,0-8.601s4.19,0,4.19,0s0,8.538,0,8.538c-1.421,0-2.842,0-4.253,0c0,0,1.474.063.063.063Z" fill="none" fill-rule="evenodd" stroke-width="0"/></g><g><path d="M0.063,8.601c0,0,0-8.601,0-8.601s4.19,0,4.19,0s0,8.538,0,8.538c-1.421,0-2.842,0-4.253,0c0,0,1.474.063.063.063Z" fill="#692b24" stroke-width="0"/></g></g><g transform="translate(34.93 4.369)"><g><path d="M4.095,8.527c0,0-4.095,0-4.095,0C0,8.527,0,0,0,0s4.095,0,4.095,0s0,8.527,0,8.527Z" fill="none" fill-rule="evenodd" stroke-width="0"/></g><g><path d="M4.095,8.527c0,0-4.095,0-4.095,0C0,8.527,0,0,0,0s4.095,0,4.095,0s0,8.527,0,8.527Z" fill="#692b24" stroke-width="0"/></g></g><g transform="translate(17.339 39.131)"><g><path d="M8.78,4.358c0,0-8.717,0-8.717,0s0-4.358,0-4.358-.063.063-.063.063c2.927,0,5.853,0,8.78,0c0,0-.063-.063-.063-.063s0,4.422,0,4.422.063-.064.063-.064Z" fill="none" fill-rule="evenodd" stroke-width="0"/></g><g><path d="M8.78,4.358c0,0-8.717,0-8.717,0s0-4.358,0-4.358-.063.063-.063.063c2.927,0,5.853,0,8.78,0c0,0-.063-.063-.063-.063s0,4.422,0,4.422.063-.064.063-.064Z" fill="#692b24" stroke-width="0"/></g></g><g transform="translate(34.983 82.673)"><g><path d="M4.074,0c0,0,0,8.717,0,8.717s-4.074,0-4.074,0s0-8.654,0-8.654c1.316,0,2.726,0,4.137,0c0,0-.073-.063-.073-.063s.01,0,.01,0Z" fill="none" fill-rule="evenodd" stroke-width="0"/></g><g><path d="M4.074,0c0,0,0,8.717,0,8.717s-4.074,0-4.074,0s0-8.654,0-8.654c1.316,0,2.726,0,4.137,0c0,0-.073-.063-.073-.063s.01,0,.01,0Z" fill="#692b24" stroke-width="0"/></g></g><g transform="translate(52.374 26.171)"><g><path d="M0,0C0,0,4.106,0,4.106,0s0,4.137,0,4.137-4.106,0-4.106,0C0,4.137,0,0,0,0Z" fill="none" fill-rule="evenodd" stroke-width="0"/></g><g><path d="M0,0C0,0,4.106,0,4.106,0s0,4.137,0,4.137-4.106,0-4.106,0C0,4.137,0,0,0,0Z" fill="#692b24" stroke-width="0"/></g></g><g transform="translate(26.255 52.143)"><g><path d="M4.074,0c0,0,0,4.358,0,4.358s-4.074,0-4.074,0s0-4.295,0-4.295c1.326,0,2.726,0,4.137,0c0,0-.073-.063-.073-.063s.01,0,.01,0Z" fill="none" fill-rule="evenodd" stroke-width="0"/></g><g><path d="M4.074,0c0,0,0,4.358,0,4.358s-4.074,0-4.074,0s0-4.295,0-4.295c1.326,0,2.726,0,4.137,0c0,0-.073-.063-.073-.063s.01,0,.01,0Z" fill="#692b24" stroke-width="0"/></g></g><g transform="translate(30.33 47.858)"><g><path d="M4.516,4.358C3.011,4.337,1.505,4.317,0,4.285c0,0,.074.063.063.063.032-1.453.052-2.906.084-4.348c0,0-.063.063-.063.063s4.422,0,4.422,0-.063-.063-.063-.063s0,4.422,0,4.422.063-.064.063-.064.01,0,.01,0Z" fill="none" fill-rule="evenodd" stroke-width="0"/></g><g><path d="M4.516,4.358C3.011,4.337,1.505,4.317,0,4.285c0,0,.074.063.063.063.032-1.453.052-2.906.084-4.348c0,0-.063.063-.063.063s4.422,0,4.422,0-.063-.063-.063-.063s0,4.422,0,4.422.063-.064.063-.064.01,0,.01,0Z" fill="#692b24" stroke-width="0"/></g></g><g transform="translate(26.056 43.489)"><g><path d="M4.432,4.369c0,0-4.369,0-4.369,0s0-4.369,0-4.369-.063.063-.063.063s4.422,0,4.422,0-.064-.063-.064-.063s0,4.422,0,4.422.064-.064.064-.064.01.011.01.011Z" fill="none" fill-rule="evenodd" stroke-width="0"/></g><g><path d="M4.432,4.369c0,0-4.369,0-4.369,0s0-4.369,0-4.369-.063.063-.063.063s4.422,0,4.422,0-.064-.063-.064-.063s0,4.422,0,4.422.064-.064.064-.064.01.011.01.011Z" fill="#692b24" stroke-width="0"/></g></g><g transform="translate(34.972 74.198)"><g><path d="M4.232,4.179c0,0-4.232,0-4.232,0C0,4.179,0,0,0,0s4.169,0,4.169,0s0,4.243,0,4.243.063-.064.063-.064Z" fill="none" fill-rule="evenodd" stroke-width="0"/></g><g><path d="M4.232,4.179c0,0-4.232,0-4.232,0C0,4.179,0,0,0,0s4.169,0,4.169,0s0,4.243,0,4.243.063-.064.063-.064Z" fill="#692b24" stroke-width="0"/></g></g><g transform="translate(39.057 78.367)"><g><path d="M0.084,0.074c1.474,0,2.958,0,4.432,0c0,0-.063-.063-.063-.063s0,4.421,0,4.421.063-.063.063-.063C3.011,4.348,1.505,4.327,0,4.295c0,0,.074.063.063.063.021-1.453.053-2.905.074-4.358c0,0-.063.063-.063.063s.01.011.01.011Z" fill="none" fill-rule="evenodd" stroke-width="0"/></g><g><path d="M0.084,0.074c1.474,0,2.958,0,4.432,0c0,0-.063-.063-.063-.063s0,4.421,0,4.421.063-.063.063-.063C3.011,4.348,1.505,4.327,0,4.295c0,0,.074.063.063.063.021-1.453.053-2.905.074-4.358c0,0-.063.063-.063.063s.01.011.01.011Z" fill="#692b24" stroke-width="0"/></g></g><g transform="translate(13.16 34.94)"><g><path d="M4.243,4.19c0,0-4.243,0-4.243,0s0-4.19,0-4.19s4.179,0,4.179,0c0,1.421,0,2.842,0,4.253c0,0,.064-1.474.064-.063Z" fill="none" fill-rule="evenodd" stroke-width="0"/></g><g><path d="M4.243,4.19c0,0-4.243,0-4.243,0s0-4.19,0-4.19s4.179,0,4.179,0c0,1.421,0,2.842,0,4.253c0,0,.064-1.474.064-.063Z" fill="#692b24" stroke-width="0"/></g></g><g transform="translate(56.586 87.104)"><g><path d="M0,0.063c0,0,4.243,0,4.243,0s0,4.19,0,4.19-4.18,0-4.18,0c0-1.421,0-2.842,0-4.253C0.063,0,0,1.474,0,0.063Z" fill="none" fill-rule="evenodd" stroke-width="0"/></g><g><path d="M0,0.063c0,0,4.243,0,4.243,0s0,4.19,0,4.19-4.18,0-4.18,0c0-1.421,0-2.842,0-4.253C0.063,0,0,1.474,0,0.063Z" fill="#692b24" stroke-width="0"/></g></g><g transform="translate(65.47 87.179)"><g><path d="M0,0C0,0,4.064,0,4.064,0s0,4.169,0,4.169-4.064,0-4.064,0C0,4.169,0,0,0,0Z" fill="none" fill-rule="evenodd" stroke-width="0"/></g><g><path d="M0,0C0,0,4.064,0,4.064,0s0,4.169,0,4.169-4.064,0-4.064,0C0,4.169,0,0,0,0Z" fill="#692b24" stroke-width="0"/></g></g><g transform="translate(74.24 87.284)"><g><path d="M4.095,0c0,0,0,4.106,0,4.106s-4.095,0-4.095,0C0,4.106,0,0,0,0s4.095,0,4.095,0Z" fill="none" fill-rule="evenodd" stroke-width="0"/></g><g><path d="M4.095,0c0,0,0,4.106,0,4.106s-4.095,0-4.095,0C0,4.106,0,0,0,0s4.095,0,4.095,0Z" fill="#692b24" stroke-width="0"/></g></g><g transform="translate(82.926 87.263)"><g><path d="M4.127,0c0,0,0,4.085,0,4.085s-4.127,0-4.127,0C0,4.085,0,0,0,0s4.127,0,4.127,0Z" fill="none" fill-rule="evenodd" stroke-width="0"/></g><g><path d="M4.127,0c0,0,0,4.085,0,4.085s-4.127,0-4.127,0C0,4.085,0,0,0,0s4.127,0,4.127,0Z" fill="#692b24" stroke-width="0"/></g></g><g transform="translate(47.868 52.216)"><g><path d="M0,4.422C0,4.422,0,0,0,0s4.422,0,4.422,0s0,4.422,0,4.422-4.422,0-4.422,0Z" fill="none" fill-rule="evenodd" stroke-width="0"/></g><g><path d="M0,4.422C0,4.422,0,0,0,0s4.422,0,4.422,0s0,4.422,0,4.422-4.422,0-4.422,0Z" fill="#692b24" stroke-width="0"/></g></g><g transform="translate(8.78 8.748)"><g><path d="M12.854,0c0,0,0,12.812,0,12.812s-12.854,0-12.854,0C0,12.812,0,0,0,0s12.854,0,12.854,0Z" fill="none" fill-rule="evenodd" stroke-width="0"/></g><g><path d="M12.854,0c0,0,0,12.812,0,12.812s-12.854,0-12.854,0C0,12.812,0,0,0,0s12.854,0,12.854,0Z" fill="#692b24" stroke-width="0"/></g></g><g transform="translate(8.77 69.798)"><g><path d="M12.791,12.896c0,0-12.791,0-12.791,0C0,12.896,0,0,0,0s12.791,0,12.791,0s0,12.896,0,12.896Z" fill="none" fill-rule="evenodd" stroke-width="0"/></g><g><path d="M12.791,12.896c0,0-12.791,0-12.791,0C0,12.896,0,0,0,0s12.791,0,12.791,0s0,12.896,0,12.896Z" fill="#692b24" stroke-width="0"/></g></g><g transform="translate(69.808 8.748)"><g><path d="M0,12.812C0,12.812,0,0,0,0s12.812,0,12.812,0s0,12.812,0,12.812-12.812,0-12.812,0Z" fill="none" fill-rule="evenodd" stroke-width="0"/></g><g><path d="M0,12.812C0,12.812,0,0,0,0s12.812,0,12.812,0s0,12.812,0,12.812-12.812,0-12.812,0Z" fill="#692b24" stroke-width="0"/></g></g><g transform="translate(30.424 43.489)"><g><path d="M0,0c0,0,.064,0,.064,0s0,.064,0,.064C0.064,0.064,0,0,0,0Z" fill="none" fill-rule="evenodd" stroke-width="0"/></g><g><path d="M0,0c0,0,.064,0,.064,0s0,.064,0,.064C0.064,0.064,0,0,0,0Z" fill="#692b24" stroke-width="0"/></g></g><g transform="translate(52.227 47.858)"><g><path d="M0,0.064C0,0.064,0,0,0,0s.064,0,.064,0-.064.064-.064.064Z" fill="none" fill-rule="evenodd" stroke-width="0"/></g><g><path d="M0,0.064C0,0.064,0,0,0,0s.064,0,.064,0-.064.064-.064.064Z" fill="#692b24" stroke-width="0"/></g></g><g transform="translate(26.066 39.131)"><g><path d="M0,0c0,0,.064,0,.064,0s0,.064,0,.064C0.064,0.064,0,0,0,0Z" fill="none" fill-rule="evenodd" stroke-width="0"/></g><g><path d="M0,0c0,0,.064,0,.064,0s0,.064,0,.064C0.064,0.064,0,0,0,0Z" fill="#692b24" stroke-width="0"/></g></g><g transform="translate(39.141 52.216)"><g><path d="M0,0c0,0,.064,0,.064,0s0,.064,0,.064C0.064,0.064,0,0,0,0Z" fill="none" fill-rule="evenodd" stroke-width="0"/></g><g><path d="M0,0c0,0,.064,0,.064,0s0,.064,0,.064C0.064,0.064,0,0,0,0Z" fill="#692b24" stroke-width="0"/></g></g><g transform="translate(34.783 47.847)"><g><path d="M0,0c0,0,.064,0,.064,0s0,.064,0,.064C0.064,0.064,0,0,0,0Z" fill="none" fill-rule="evenodd" stroke-width="0"/></g><g><path d="M0,0c0,0,.064,0,.064,0s0,.064,0,.064C0.064,0.064,0,0,0,0Z" fill="#692b24" stroke-width="0"/></g></g><g transform="translate(56.585 39.131)"><g><path d="M0,0.064C0,0.064,0,0,0,0s.064,0,.064,0-.064.064-.064.064Z" fill="none" fill-rule="evenodd" stroke-width="0"/></g><g><path d="M0,0.064C0,0.064,0,0,0,0s.064,0,.064,0-.064.064-.064.064Z" fill="#692b24" stroke-width="0"/></g></g><g transform="translate(39.215 34.962)"><g><path d="M17.381,0c0,0,0,4.169,0,4.169s-4.358,0-4.358,0s0,8.727,0,8.727-8.759,0-8.759,0s0,4.359,0,4.359-4.264,0-4.264,0s0-8.822,0-8.822s4.274,0,4.274,0s0-8.433,0-8.433s13.107,0,13.107,0Z" fill="none" fill-rule="evenodd" stroke-width="0"/></g><g><path d="M17.381,0c0,0,0,4.169,0,4.169s-4.358,0-4.358,0s0,8.727,0,8.727-8.759,0-8.759,0s0,4.359,0,4.359-4.264,0-4.264,0s0-8.822,0-8.822s4.274,0,4.274,0s0-8.433,0-8.433s13.107,0,13.107,0Z" fill="#692b24" stroke-width="0"/></g></g><g transform="translate(34.678 34.699)"><g><path d="M0,0c0,0,.074.064.074.064-.021,0-.042,0-.063,0c0-.021,0-.064,0-.064s-.011,0-.011,0Z" fill="none" fill-rule="evenodd" stroke-width="0"/></g><g><path d="M0,0c0,0,.074.064.074.064-.021,0-.042,0-.063,0c0-.021,0-.064,0-.064s-.011,0-.011,0Z" fill="#692b24" stroke-width="0"/></g></g></g><g transform="matrix(1.26 0 0 1.26 173.980999 213.092)"><g id="eisu1KDBZ8X227" transform="translate(-177.481-351.592)" opacity="0"><g transform="translate(126.364 297.956)"><path d="M0,17.101C0,17.101,0,0,0,0s20.729,0,20.729,0" paint-order="stroke fill markers" fill="none" fill-rule="evenodd" stroke="#ff3e00" stroke-width="3" stroke-linejoin="round"/></g><g transform="matrix(-1 0 0-1 228.97 315.058)"><path d="M0,0C0,0,0,17.101,0,17.101s20.729,0,20.729,0" paint-order="stroke fill markers" fill="none" fill-rule="evenodd" stroke="#ff3e00" stroke-width="3" stroke-linejoin="round"/></g><g transform="translate(126.364 388.643)"><path d="M0,0C0,0,0,17.101,0,17.101s20.729,0,20.729,0" paint-order="stroke fill markers" fill="none" fill-rule="evenodd" stroke="#ff3e00" stroke-width="3" stroke-linejoin="round"/></g><g transform="matrix(-1 0 0-1 228.97 405.745)"><path d="M0,17.101C0,17.101,0,0,0,0s20.729,0,20.729,0" paint-order="stroke fill markers" fill="none" fill-rule="evenodd" stroke="#ff3e00" stroke-width="3" stroke-linejoin="round"/></g><g><g transform="translate(126.364 297.956)"><path d="M0,17.101C0,17.101,0,0,0,0s20.729,0,20.729,0" paint-order="stroke fill markers" fill="none" fill-rule="evenodd" stroke="#ff3e00" stroke-width="3" stroke-linejoin="round"/></g><g transform="matrix(-1 0 0-1 228.97 315.058)"><path d="M0,0C0,0,0,17.101,0,17.101s20.729,0,20.729,0" paint-order="stroke fill markers" fill="none" fill-rule="evenodd" stroke="#ff3e00" stroke-width="3" stroke-linejoin="round"/></g><g transform="matrix(-1 0 0-1 228.97 405.745)"><path d="M0,17.101C0,17.101,0,0,0,0s20.729,0,20.729,0" paint-order="stroke fill markers" fill="none" fill-rule="evenodd" stroke="#ff3e00" stroke-width="3" stroke-linejoin="round"/></g><g transform="translate(126.364 388.643)"><path d="M0,0C0,0,0,17.101,0,17.101s20.729,0,20.729,0" paint-order="stroke fill markers" fill="none" fill-rule="evenodd" stroke="#ff3e00" stroke-width="3" stroke-linejoin="round"/></g></g></g></g><g transform="matrix(1.26 0 0 1.26 173.980999 213.092)"><g id="eisu1KDBZ8X246_to" style="offset-path:path('M-0.109,-51.259Q-0.109,-34.926,-0.109,46.741Q-0.109,-34.926,-0.109,-51.259');offset-rotate:0deg"><g id="eisu1KDBZ8X246" transform="rotate(-0.564) translate(0,0)" opacity="0"><g><path d="M-52.601,0c0,0,105.202,0,105.202,0" paint-order="stroke fill markers" fill="none" fill-rule="evenodd" stroke="#ff3e00" stroke-width="3"/></g></g></g></g><g transform="translate(-121-379.999998)"><g id="eisu1KDBZ8X250_ts" transform="translate(533.64354,764.499552) scale(0,0)"><g id="eisu1KDBZ8X250" transform="translate(-118.313866,-365.507994)" opacity="0"><g><path d="M7.896,0c0,0,213.878,0,213.878,0c4.361,0,7.896,3.598,7.896,8.036c0,0,0,349.436,0,349.436c0,4.438-3.535,8.036-7.896,8.036c0,0-213.878,0-213.878,0-4.361,0-7.896-3.598-7.896-8.036c0,0,0-349.436,0-349.436C0,3.598,3.535,0,7.896,0Z" fill="#fff" stroke-width="0"/></g><g><path d="M7.896,0c0,0,213.878,0,213.878,0c4.361,0,7.896,3.598,7.896,8.036c0,0,0,349.436,0,349.436c0,4.438-3.535,8.036-7.896,8.036c0,0-213.878,0-213.878,0-4.361,0-7.896-3.598-7.896-8.036c0,0,0-349.436,0-349.436C0,3.598,3.535,0,7.896,0Z" paint-order="stroke fill markers" fill="none" fill-rule="evenodd" stroke="#ffe7e0"/></g><g transform="translate(-413.018585-402.01809)"><g id="eisu1KDBZ8X256_ts" transform="translate(530.357,748.633) scale(0,0)"><g transform="translate(-115.022,-349.624999)"><g id="eisu1KDBZ8X257" transform="translate(115.022 337.186)" opacity="0"><g><rect width="80.043" height="24.878" rx="12.439" ry="12.439" transform="translate(-40.0215-12.439)" fill="#971c00" stroke-width="0"/></g><g><rect width="80.043" height="24.878" rx="12.439" ry="12.439" transform="translate(-40.0215-12.439)" fill="none" fill-rule="evenodd" stroke-width="0"/></g></g></g></g><g id="eisu1KDBZ8X262_ts" transform="translate(531.46882,742.980507) scale(0,0)"><g transform="translate(-116.13382,-343.972507)"><g id="eisu1KDBZ8X263" transform="translate(19.47 71.509002)" opacity="0"><path d="M3.061,0c0,0,183.645,0,183.645,0c1.691,0,3.061,1.394,3.061,3.115c0,0,0,15.092,0,15.092c0,1.721-1.37,3.115-3.061,3.115c0,0-183.645,0-183.645,0C1.37,21.322,0,19.928,0,18.207c0,0,0-15.092,0-15.092C0,1.394,1.37,0,3.061,0Z" paint-order="stroke fill markers" fill="none" fill-rule="evenodd" stroke="#e7e6e6"/><text dx="0" dy="0" font-family="&quot;Averta Demo&quot;" font-size="12" font-weight="400" transform="translate(76.806346 269.81415)" fill="#fff" stroke="#000" stroke-width="0"><tspan x="0" y="0" font-family="&quot;Averta Demo&quot;" font-size="12" font-weight="400" font-style="normal" fill="#fff" stroke="#000" stroke-width="0"><![CDATA[
Submit
]]></tspan></text></g><g id="eisu1KDBZ8X267_ts" transform="translate(20.67898,69.073584) scale(0,0)"><text dx="0" dy="0" font-family="&quot;Averta Demo&quot;" font-size="8.71" font-weight="400" transform="translate(0,0)" fill="#646565" stroke="#000" stroke-width="0"><tspan x="0" y="0" font-family="&quot;Averta Demo&quot;" font-size="8.71" font-weight="400" font-style="normal" fill="#646565" stroke="#000" stroke-width="0"><![CDATA[
Name
]]></tspan></text></g></g></g><g id="eisu1KDBZ8X269_ts" transform="translate(531.46882,767.52609) scale(0,0)"><g transform="translate(-116.13382,-368.518089)"><g id="eisu1KDBZ8X270" transform="translate(19.47 125.447)" opacity="0"><path d="M3.061,0c0,0,183.645,0,183.645,0c1.691,0,3.061,1.394,3.061,3.115c0,0,0,15.092,0,15.092c0,1.721-1.37,3.115-3.061,3.115c0,0-183.645,0-183.645,0C1.37,21.322,0,19.928,0,18.207c0,0,0-15.092,0-15.092C0,1.394,1.37,0,3.061,0Z" paint-order="stroke fill markers" fill="none" fill-rule="evenodd" stroke="#e7e6e6"/><g id="eisu1KDBZ8X272_ts" transform="translate(1.20898,-2.154144) scale(0,0)"><text dx="0" dy="0" font-family="&quot;Averta Demo&quot;" font-size="8.71" font-weight="400" transform="translate(0,0)" fill="#646565" stroke="#000" stroke-width="0"><tspan x="0" y="0" font-family="&quot;Averta Demo&quot;" font-size="8.71" font-weight="400" font-style="normal" fill="#646565" stroke="#000" stroke-width="0"><![CDATA[
Mobile
]]></tspan></text></g></g></g></g><g id="eisu1KDBZ8X274_ts" transform="translate(526.621227,767.52609) scale(0,0)"><g transform="translate(-111.286226,-368.518089)"><g id="eisu1KDBZ8X275" transform="translate(19.47 179.386)" opacity="0"><path d="M3.061,0c0,0,183.645,0,183.645,0c1.691,0,3.061,1.394,3.061,3.115c0,0,0,15.092,0,15.092c0,1.721-1.37,3.115-3.061,3.115c0,0-183.645,0-183.645,0C1.37,21.322,0,19.928,0,18.207c0,0,0-15.092,0-15.092C0,1.394,1.37,0,3.061,0Z" paint-order="stroke fill markers" fill="none" fill-rule="evenodd" stroke="#e7e6e6"/><g id="eisu1KDBZ8X277_ts" transform="translate(1.20898,-3.100514) scale(0,0)"><text dx="0" dy="0" font-family="&quot;Averta Demo&quot;" font-size="8.71" font-weight="400" transform="translate(0,0)" fill="#646565" stroke="#000" stroke-width="0"><tspan x="0" y="0" font-family="&quot;Averta Demo&quot;" font-size="8.71" font-weight="400" font-style="normal" fill="#646565" stroke="#000" stroke-width="0"><![CDATA[
Email
]]></tspan></text></g></g></g></g><g id="eisu1KDBZ8X279_ts" transform="translate(527.853592,767.52609) scale(0,0)"><g transform="translate(-112.518592,-368.518089)"><g id="eisu1KDBZ8X280" transform="translate(19.47 233.325)" opacity="0"><path d="M3.061,0c0,0,183.645,0,183.645,0c1.691,0,3.061,1.394,3.061,3.115c0,0,0,15.092,0,15.092c0,1.721-1.37,3.115-3.061,3.115c0,0-183.645,0-183.645,0C1.37,21.322,0,19.928,0,18.207c0,0,0-15.092,0-15.092C0,1.394,1.37,0,3.061,0Z" paint-order="stroke fill markers" fill="none" fill-rule="evenodd" stroke="#e7e6e6"/><g id="eisu1KDBZ8X282_ts" transform="translate(1.20898,-3.064268) scale(0,0)"><text dx="0" dy="0" font-family="&quot;Averta Demo&quot;" font-size="8.71" font-weight="400" transform="translate(0,0)" fill="#646565" stroke="#000" stroke-width="0"><tspan x="0" y="0" font-family="&quot;Averta Demo&quot;" font-size="8.71" font-weight="400" font-style="normal" fill="#646565" stroke="#000" stroke-width="0"><![CDATA[
Gender
]]></tspan></text></g></g></g></g><g id="eisu1KDBZ8X284_ts" transform="translate(526.621227,767.52609) scale(0,0)"><g transform="translate(-111.286226,-368.51809)"><g id="eisu1KDBZ8X285" transform="translate(19.47 287.263)" opacity="0"><path d="M3.061,0c0,0,183.645,0,183.645,0c1.691,0,3.061,1.394,3.061,3.115c0,0,0,15.092,0,15.092c0,1.721-1.37,3.115-3.061,3.115c0,0-183.645,0-183.645,0C1.37,21.322,0,19.928,0,18.207c0,0,0-15.092,0-15.092C0,1.394,1.37,0,3.061,0Z" paint-order="stroke fill markers" fill="none" fill-rule="evenodd" stroke="#e7e6e6"/><g id="eisu1KDBZ8X287_ts" transform="translate(1.20898,-2.901825) scale(0,0)"><text dx="0" dy="0" font-family="&quot;Averta Demo&quot;" font-size="8.71" font-weight="400" transform="translate(0,0)" fill="#646565" stroke="#000" stroke-width="0"><tspan x="0" y="0" font-family="&quot;Averta Demo&quot;" font-size="8.71" font-weight="400" font-style="normal" fill="#646565" stroke="#000" stroke-width="0"><![CDATA[
City
]]></tspan></text></g></g></g></g><g transform="translate(53.965107 32.847313)"><g id="eisu1KDBZ8X290_ts" transform="translate(415.335,399.008) scale(0,0)"><text dx="0" dy="0" font-family="&quot;Averta-Semibold&quot;" font-size="14" font-weight="400" transform="translate(0,0)" fill="#221f20" stroke="#000" stroke-width="0"><tspan x="0" y="0" font-family="&quot;Averta-Semibold&quot;" font-size="14" font-weight="400" font-style="normal" fill="#221f20" stroke="#000" stroke-width="0"><![CDATA[
KYC Authentication
]]></tspan></text></g></g></g></g></g></g></svg>
