<svg width="47" height="47" viewBox="0 0 47 47" fill="none" xmlns="http://www.w3.org/2000/svg">
<path d="M24.1406 43.2811C34.9878 43.2811 43.7811 34.4878 43.7811 23.6406C43.7811 12.7934 34.9878 4 24.1406 4C13.2934 4 4.5 12.7934 4.5 23.6406C4.5 34.4878 13.2934 43.2811 24.1406 43.2811Z" stroke="#380000" stroke-width="1.5" stroke-linecap="round" stroke-linejoin="round"/>
<path d="M23.7892 23.9282C26.687 23.9282 28.1341 20.8088 28.1341 17.5752C28.1341 15.2348 27.7983 13.8984 26.7978 13.0052C25.908 12.2262 25.1706 11.9804 23.6784 12.0012C21.6738 12.0289 19.2227 12.891 19.2227 16.7928C19.2227 18.7004 19.8424 20.3345 20.5417 21.5566" stroke="#380000" stroke-width="1.5" stroke-linecap="round" stroke-linejoin="round"/>
<path d="M26.8665 29.4537C27.1919 29.9973 26.5583 30.7382 26.0667 30.7382L25.0281 30.7243H15.5765C14.8218 30.7243 14.209 30.1115 14.209 29.3568V29.1802C14.3717 26.4936 16.7709 24.039 20.1154 23.5958L20.3058 23.5682C21.1367 23.4435 21.9468 23.6616 22.7708 23.8209C23.2832 23.9213 23.2347 23.9317 23.7887 23.9317" stroke="#380000" stroke-width="1.5" stroke-linecap="round" stroke-linejoin="round"/>
<path d="M27.666 26.2372L29.5356 28.7853L34.1367 25.1743" stroke="#FF2000" stroke-width="1.5" stroke-linecap="round" stroke-linejoin="round"/>
<path d="M26.7323 29.3048C26.3549 28.64 26.1298 27.8715 26.1125 27.0509C26.0537 24.4059 28.1483 22.2144 30.7933 22.1555C33.4384 22.0967 35.6299 24.1912 35.6887 26.8363C35.7476 29.4813 33.653 31.6729 31.008 31.7317C29.8516 31.7594 28.7818 31.3717 27.9371 30.7069" stroke="#FF2000" stroke-width="1.5" stroke-linecap="round" stroke-linejoin="round"/>
<path d="M23.5 7C25.1569 7 26.5 5.65685 26.5 4C26.5 2.34315 25.1569 1 23.5 1C21.8431 1 20.5 2.34315 20.5 4C20.5 5.65685 21.8431 7 23.5 7Z" fill="#FFE1DC" stroke="#FF2000" stroke-width="1.5" stroke-linecap="round" stroke-linejoin="round"/>
<path d="M23.5 46C25.1569 46 26.5 44.6569 26.5 43C26.5 41.3431 25.1569 40 23.5 40C21.8431 40 20.5 41.3431 20.5 43C20.5 44.6569 21.8431 46 23.5 46Z" fill="#FFE1DC" stroke="#FF2000" stroke-width="1.5" stroke-linecap="round" stroke-linejoin="round"/>
<path d="M35.1677 11.8327C36.3393 13.0043 38.2388 13.0043 39.4104 11.8327C40.582 10.6611 40.582 8.76164 39.4104 7.59007C38.2388 6.4185 36.3393 6.4185 35.1677 7.59007C33.9962 8.76164 33.9962 10.6611 35.1677 11.8327Z" fill="#FFE1DC" stroke="#FF2000" stroke-width="1.5" stroke-linecap="round" stroke-linejoin="round"/>
<path d="M7.58962 39.4099C8.76119 40.5814 10.6607 40.5814 11.8323 39.4099C13.0038 38.2383 13.0038 36.3388 11.8323 35.1672C10.6607 33.9956 8.76119 33.9956 7.58962 35.1672C6.41804 36.3388 6.41804 38.2383 7.58962 39.4099Z" fill="#FFE1DC" stroke="#FF2000" stroke-width="1.5" stroke-linecap="round" stroke-linejoin="round"/>
<path d="M40 23.5005C40 25.1573 41.3431 26.5005 43 26.5005C44.6569 26.5005 46 25.1573 46 23.5005C46 21.8436 44.6569 20.5005 43 20.5005C41.3431 20.5005 40 21.8436 40 23.5005Z" fill="#FFE1DC" stroke="#FF2000" stroke-width="1.5" stroke-linecap="round" stroke-linejoin="round"/>
<path d="M1 23.5005C1 25.1573 2.34315 26.5005 4 26.5005C5.65685 26.5005 7 25.1573 7 23.5005C7 21.8436 5.65685 20.5005 4 20.5005C2.34315 20.5005 1 21.8436 1 23.5005Z" fill="#FFE1DC" stroke="#FF2000" stroke-width="1.5" stroke-linecap="round" stroke-linejoin="round"/>
<path d="M35.1673 35.1677C33.9957 36.3393 33.9957 38.2388 35.1673 39.4104C36.3389 40.582 38.2384 40.582 39.4099 39.4104C40.5815 38.2388 40.5815 36.3393 39.4099 35.1677C38.2384 33.9962 36.3389 33.9962 35.1673 35.1677Z" fill="#FFE1DC" stroke="#FF2000" stroke-width="1.5" stroke-linecap="round" stroke-linejoin="round"/>
<path d="M7.58916 7.59059C6.41759 8.76217 6.41759 10.6617 7.58916 11.8332C8.76074 13.0048 10.6602 13.0048 11.8318 11.8332C13.0034 10.6617 13.0034 8.76217 11.8318 7.59059C10.6602 6.41902 8.76074 6.41902 7.58916 7.59059Z" fill="#FFE1DC" stroke="#FF2000" stroke-width="1.5" stroke-linecap="round" stroke-linejoin="round"/>
</svg>
