<svg width="18" height="18" viewBox="0 0 18 18" fill="none" xmlns="http://www.w3.org/2000/svg">
<path d="M9.20174 0.427734C4.35593 0.427734 0.427734 4.35593 0.427734 9.20174C0.427734 13.3164 3.26064 16.7693 7.08246 17.7173V11.8829H5.27318V9.20174H7.08246V8.04651C7.08246 5.06005 8.43402 3.67595 11.3656 3.67595C11.9217 3.67595 12.881 3.7849 13.2732 3.89384V6.32424C13.0663 6.30231 12.7066 6.29169 12.2595 6.29169C10.8209 6.29169 10.2652 6.83678 10.2652 8.25342V9.20174H13.131L12.6386 11.8829H10.2652V17.9114C14.6098 17.3868 17.9761 13.6878 17.9761 9.20174C17.9758 4.35593 14.0476 0.427734 9.20174 0.427734Z" fill="white" fill-opacity="0.8"/>
</svg>
