<svg width="18" height="18" viewBox="0 0 18 18" fill="none" xmlns="http://www.w3.org/2000/svg">
<mask id="mask0_3881_6241" style="mask-type:luminance" maskUnits="userSpaceOnUse" x="0" y="0" width="18" height="18">
<path d="M17.966 0.427734H0.417969V17.9758H17.966V0.427734Z" fill="white"/>
</mask>
<g mask="url(#mask0_3881_6241)">
<path d="M9.19198 2.00779C11.5365 2.00779 11.8139 2.01801 12.7359 2.05896C13.5929 2.09698 14.0553 2.24067 14.3639 2.36095C14.7719 2.51852 15.0665 2.71044 15.3714 3.01534C15.68 3.32389 15.8686 3.61525 16.0262 4.02288C16.1461 4.33143 16.2902 4.79755 16.3278 5.65082C16.3688 6.57648 16.379 6.85397 16.379 9.1948C16.379 11.5393 16.3688 11.8168 16.3278 12.7388C16.2902 13.5957 16.1461 14.0582 16.0262 14.3667C15.8686 14.7747 15.6763 15.0693 15.3714 15.3742C15.0629 15.6828 14.7719 15.8714 14.3639 16.029C14.0553 16.1489 13.5892 16.293 12.7359 16.3306C11.8107 16.3716 11.5328 16.3822 9.19198 16.3822C6.84785 16.3822 6.57001 16.3716 5.64801 16.3306C4.79145 16.293 4.32862 16.1489 4.02006 16.029C3.61244 15.8714 3.31741 15.6795 3.01251 15.3742C2.70396 15.0661 2.51569 14.7747 2.35776 14.3667C2.23784 14.0582 2.0938 13.592 2.05614 12.7388C2.0152 11.8135 2.00497 11.5356 2.00497 9.1948C2.00497 6.85068 2.0152 6.57283 2.05614 5.65082C2.0938 4.79426 2.23784 4.33143 2.35776 4.02288C2.51569 3.61525 2.70761 3.32023 3.01251 3.01534C3.32106 2.70678 3.61244 2.51852 4.02006 2.36095C4.32862 2.24067 4.79474 2.09698 5.64801 2.05896C6.57001 2.01801 6.84785 2.00779 9.19198 2.00779ZM9.19198 0.427734C6.80983 0.427734 6.51189 0.437968 5.57599 0.479278C4.64375 0.520224 4.00288 0.671206 3.44792 0.886901C2.86847 1.1132 2.3786 1.41152 1.89164 1.9014C1.40176 2.38836 1.10344 2.87825 0.877146 3.45404C0.661452 4.01265 0.510458 4.65022 0.469513 5.58246C0.428202 6.52164 0.417969 6.8196 0.417969 9.20174C0.417969 11.5839 0.428202 11.8818 0.469513 12.8177C0.510458 13.75 0.661452 14.3908 0.877146 14.9462C1.10344 15.5252 1.40176 16.0155 1.89164 16.5021C2.3786 16.9887 2.86848 17.2903 3.44428 17.5129C4.00289 17.729 4.64046 17.8796 5.5727 17.9209C6.50823 17.9618 6.80654 17.9725 9.18869 17.9725C11.5705 17.9725 11.8688 17.9618 12.8043 17.9209C13.7366 17.8796 14.3774 17.729 14.9327 17.5129C15.5085 17.2903 15.9988 16.9887 16.4854 16.5021C16.972 16.0155 17.2736 15.5252 17.4966 14.9494C17.7123 14.3908 17.8633 13.7533 17.9042 12.821C17.9455 11.8855 17.9557 11.5872 17.9557 9.20502C17.9557 6.82324 17.9455 6.52495 17.9042 5.58942C17.8633 4.65718 17.7123 4.0163 17.4966 3.46098C17.2805 2.87824 16.9822 2.38836 16.4923 1.9014C16.0057 1.41481 15.5155 1.1132 14.9397 0.89056C14.3811 0.6745 13.7435 0.523892 12.8113 0.482581C11.8721 0.43798 11.5741 0.427734 9.19198 0.427734Z" fill="white" fill-opacity="0.8"/>
<path d="M9.19246 4.69482C6.7043 4.69482 4.68555 6.71358 4.68555 9.20174C4.68555 11.6899 6.7043 13.7087 9.19246 13.7087C11.6806 13.7087 13.6994 11.6899 13.6994 9.20174C13.6994 6.71358 11.6806 4.69482 9.19246 4.69482ZM9.19246 12.1253C7.57805 12.1253 6.26889 10.8162 6.26889 9.20174C6.26889 7.58732 7.57805 6.27816 9.19246 6.27816C10.8069 6.27816 12.116 7.58732 12.116 9.20174C12.116 10.8162 10.8069 12.1253 9.19246 12.1253Z" fill="white" fill-opacity="0.8"/>
<path d="M14.93 4.5165C14.93 5.09924 14.4569 5.56865 13.8778 5.56865C13.2951 5.56865 12.8257 5.09595 12.8257 4.5165C12.8257 3.93413 13.2984 3.46436 13.8778 3.46436C14.4569 3.46436 14.93 3.93742 14.93 4.5165Z" fill="white" fill-opacity="0.8"/>
</g>
</svg>
