<svg width="562" height="451" viewBox="0 0 562 451" fill="none" xmlns="http://www.w3.org/2000/svg">
<g filter="url(#filter0_d_3416_8441)">
<path d="M365.425 11.2698H16.2369C13.4371 11.2698 11.1675 13.5455 11.1675 16.3527V255.903C11.1675 258.711 13.4371 260.986 16.2369 260.986H365.425C368.225 260.986 370.494 258.711 370.494 255.903V16.3527C370.494 13.5455 368.225 11.2698 365.425 11.2698Z" fill="white"/>
<path d="M365.425 11.2698H16.2369C13.4371 11.2698 11.1675 13.5455 11.1675 16.3527V255.903C11.1675 258.711 13.4371 260.986 16.2369 260.986H365.425C368.225 260.986 370.494 258.711 370.494 255.903V16.3527C370.494 13.5455 368.225 11.2698 365.425 11.2698Z" stroke="#D2D2D1" stroke-miterlimit="10"/>
</g>
<path d="M357.135 20.9668H24.516C20.7237 20.9668 17.6494 24.0492 17.6494 27.8516V244.415C17.6494 248.217 20.7237 251.3 24.516 251.3H357.135C360.927 251.3 364.001 248.217 364.001 244.415V27.8516C364.001 24.0492 360.927 20.9668 357.135 20.9668Z" fill="white" stroke="#E7E4DE" stroke-miterlimit="10"/>
<path d="M69.3304 66.2439L68.1462 64.0045L67.4709 62.7234L66.2244 63.4421L65.7569 63.7233C56.1167 68.9936 49.0112 78.1699 46.2895 88.9189L46.1856 89.3251L45.8428 90.6791L47.1932 91.0333L49.6241 91.6582L50.9745 92.0123L51.3277 90.6583L51.4316 90.2521C53.8105 80.9404 59.9603 72.9828 68.3124 68.4103L68.3228 68.3999L68.7902 68.1187L69.9537 67.4521L69.32 66.2647V66.2439H69.3304Z" fill="#DF8149" stroke="#D7D7D7" stroke-width="1.54" stroke-miterlimit="10"/>
<path d="M98.1994 61.3589L97.8046 61.2131C92.8287 59.4424 87.6035 58.7133 82.2743 59.0258C76.8933 59.3487 71.7511 60.7131 66.9829 63.0983L66.6194 63.2858L65.3936 63.9003L65.9961 65.1398L67.0868 67.3896L67.6997 68.6499L68.9567 68.0354L69.3307 67.8479C73.5587 65.7752 78.0463 64.5774 82.6587 64.3066C87.2607 64.0358 91.7172 64.6815 96.0698 66.2022L96.4646 66.348L97.7839 66.8167L98.2513 65.494L99.072 63.1296L99.5291 61.8172L98.2202 61.3589H98.1994Z" fill="#E3C76A" stroke="#D7D7D7" stroke-width="1.54" stroke-miterlimit="10"/>
<path d="M121.261 83.8256L121.095 83.4298C116.981 73.514 108.889 65.5981 98.916 61.6922L98.5212 61.5464L97.2227 61.036L96.7137 62.338L95.7995 64.7024L95.2905 66.0043L96.589 66.5147L96.9838 66.6605C105.762 70.0769 112.608 76.7429 116.243 85.44L116.41 85.8254L116.939 87.0857L118.207 86.5753L120.492 85.6587L121.801 85.1276L121.251 83.8256H121.261Z" fill="#AECE65" stroke="#D7D7D7" stroke-width="1.54" stroke-miterlimit="10"/>
<path d="M54.3925 114.708L54.1016 114.146C51.9512 109.907 50.7254 105.355 50.445 100.616C50.258 97.4597 50.4969 94.3038 51.1721 91.2207L51.2656 90.8145L51.5565 89.4501L50.1956 89.1584L47.7544 88.6272L46.404 88.3356L46.1027 89.6896L46.0092 90.0958C45.2301 93.5643 44.9496 97.1994 45.1678 100.939C45.469 106.084 46.7987 111.25 49.001 115.864L49.1153 116.125L49.5204 116.968L50.4554 116.916L53.229 116.76L55.3586 116.635L54.3925 114.739V114.719V114.708Z" fill="#D85341" stroke="#D7D7D7" stroke-width="1.54" stroke-miterlimit="10"/>
<path d="M121.625 84.4818L121.469 84.086L120.97 82.7736L119.661 83.284L117.313 84.1901L116.025 84.6901L116.514 85.9816L116.659 86.367C119.578 94.1996 119.599 102.751 116.742 110.427L116.514 111.031L115.766 113.042L117.906 112.917L120.679 112.76L121.604 112.708L121.905 111.823L121.999 111.563C125.021 102.824 124.886 93.2101 121.614 84.5026L121.625 84.4818Z" fill="#82B955" stroke="#D7D7D7" stroke-width="1.54" stroke-miterlimit="10"/>
<path opacity="0.2" d="M88.871 96.8036L98.7501 84.7734L88.3516 96.6369L88.6216 96.8765C88.684 96.8765 88.819 96.8765 88.871 96.7931V96.8036Z" fill="url(#paint0_linear_3416_8441)"/>
<path opacity="0.2" d="M97.3267 83.3673L108.213 73.212C108.265 73.1495 108.265 73.087 108.213 73.0141L97.3474 83.3673H97.3267Z" fill="url(#paint1_linear_3416_8441)"/>
<path d="M104.152 77.0345L95.6854 85.2838L86.3984 94.3455C86.3568 94.4079 86.3568 94.4496 86.3984 94.5017L88.4344 96.1265C88.4968 96.1682 88.5383 96.1682 88.5903 96.1265L96.7657 86.3566L104.308 77.1491C104.349 77.0866 104.349 76.9929 104.297 76.9408C104.297 76.9929 104.193 77.0033 104.152 77.0554V77.0345Z" fill="#FB5F2F"/>
<path d="M51.4836 120.77C51.442 120.062 51.7121 119.281 52.4809 119.229C53.2496 119.176 53.6132 119.937 53.6547 120.635C53.6963 121.333 53.4262 122.124 52.6575 122.176C51.8887 122.228 51.5251 121.405 51.4836 120.77ZM53.2807 120.666C53.2496 120.093 53.021 119.52 52.512 119.562C51.9407 119.593 51.8472 120.176 51.8783 120.749C51.9095 121.322 52.138 121.895 52.6471 121.853C53.1561 121.812 53.3119 121.176 53.2807 120.666Z" fill="#676767"/>
<path d="M116.182 118.364L116.046 115.989L115.631 116.531L115.434 116.354L116.098 115.541L116.42 115.521L116.597 118.406L116.213 118.427V118.364L116.192 118.354L116.182 118.364Z" fill="#676767"/>
<path d="M117.127 116.885C117.085 116.177 117.355 115.396 118.124 115.344C118.893 115.291 119.256 116.052 119.298 116.75C119.339 117.447 119.069 118.239 118.301 118.291C117.532 118.343 117.168 117.52 117.127 116.885ZM118.976 116.781C118.945 116.208 118.716 115.635 118.207 115.677C117.698 115.718 117.542 116.291 117.573 116.864C117.605 117.437 117.833 118.01 118.342 117.968C118.851 117.927 119.007 117.291 118.976 116.781Z" fill="#676767"/>
<path d="M119.869 116.729C119.828 116.021 120.098 115.239 120.867 115.187C121.635 115.135 121.999 115.896 122.04 116.593C122.082 117.302 121.812 118.083 121.043 118.135C120.274 118.187 119.911 117.364 119.869 116.729ZM121.666 116.625C121.635 116.052 121.407 115.479 120.898 115.521C120.326 115.552 120.233 116.135 120.264 116.708C120.295 117.281 120.524 117.854 121.033 117.812C121.542 117.77 121.698 117.135 121.666 116.625Z" fill="#676767"/>
<path d="M84.6117 103.022C87.0501 103.022 89.0267 101.04 89.0267 98.5951C89.0267 96.1503 87.0501 94.1684 84.6117 94.1684C82.1734 94.1684 80.1968 96.1503 80.1968 98.5951C80.1968 101.04 82.1734 103.022 84.6117 103.022Z" fill="#E9F0F5"/>
<path d="M84.6115 102.324C86.6655 102.324 88.3305 100.654 88.3305 98.5951C88.3305 96.5357 86.6655 94.8662 84.6115 94.8662C82.5576 94.8662 80.8926 96.5357 80.8926 98.5951C80.8926 100.654 82.5576 102.324 84.6115 102.324Z" fill="white"/>
<path d="M84.6114 99.6262C85.1794 99.6262 85.6399 99.1646 85.6399 98.5951C85.6399 98.0256 85.1794 97.5639 84.6114 97.5639C84.0434 97.5639 83.583 98.0256 83.583 98.5951C83.583 99.1646 84.0434 99.6262 84.6114 99.6262Z" fill="#DD736B"/>
<path d="M174.874 66.2439L173.69 64.0045L173.015 62.7234L171.768 63.4421L171.301 63.7233C161.661 68.9936 154.555 78.1699 151.833 88.9189L151.73 89.3251L151.387 90.6791L152.737 91.0333L155.168 91.6582L156.518 92.0123L156.872 90.6583L156.976 90.2521C159.354 80.9404 165.504 72.9828 173.856 68.4103L173.867 68.3999L174.334 68.1187L175.498 67.4521L174.864 66.2647V66.2439H174.874Z" fill="#DF8149" stroke="#D7D7D7" stroke-width="1.54" stroke-miterlimit="10"/>
<path d="M203.743 61.3589L203.348 61.2131C198.372 59.4424 193.147 58.7133 187.818 59.0258C182.437 59.3487 177.295 60.7131 172.526 63.0983L172.163 63.2858L170.937 63.9003L171.54 65.1398L172.63 67.3896L173.243 68.6499L174.5 68.0354L174.874 67.8479C179.102 65.7752 183.59 64.5774 188.202 64.3066C192.804 64.0358 197.261 64.6815 201.613 66.2022L202.008 66.348L203.327 66.8167L203.795 65.494L204.615 63.1296L205.073 61.8172L203.764 61.3589H203.743Z" fill="#E3C76A" stroke="#D7D7D7" stroke-width="1.54" stroke-miterlimit="10"/>
<path d="M226.805 83.8256L226.639 83.4298C222.525 73.514 214.433 65.5981 204.46 61.6922L204.065 61.5464L202.767 61.036L202.258 62.338L201.343 64.7024L200.834 66.0043L202.133 66.5147L202.528 66.6605C211.306 70.0769 218.152 76.7429 221.787 85.44L221.954 85.8254L222.483 87.0857L223.751 86.5753L226.036 85.6587L227.345 85.1276L226.795 83.8256H226.805Z" fill="#AECE65" stroke="#D7D7D7" stroke-width="1.54" stroke-miterlimit="10"/>
<path d="M159.926 114.708L159.635 114.146C157.484 109.907 156.259 105.355 155.978 100.616C155.791 97.4597 156.03 94.3038 156.705 91.2207L156.799 90.8145L157.09 89.4501L155.729 89.1584L153.288 88.6272L151.937 88.3356L151.636 89.6896L151.542 90.0958C150.763 93.5643 150.483 97.1994 150.701 100.939C151.002 106.084 152.332 111.25 154.534 115.864L154.648 116.125L155.054 116.968L155.989 116.916L158.762 116.76L160.892 116.635L159.926 114.739V114.719V114.708Z" fill="#D85341" stroke="#D7D7D7" stroke-width="1.54" stroke-miterlimit="10"/>
<path d="M227.168 84.4818L227.013 84.086L226.514 82.7736L225.205 83.284L222.857 84.1901L221.569 84.6901L222.058 85.9816L222.203 86.367C225.122 94.1996 225.143 102.751 222.286 110.427L222.058 111.031L221.31 113.042L223.45 112.917L226.223 112.76L227.148 112.708L227.449 111.823L227.542 111.563C230.565 102.824 230.43 93.2101 227.158 84.5026L227.168 84.4818Z" fill="#82B955" stroke="#D7D7D7" stroke-width="1.54" stroke-miterlimit="10"/>
<path opacity="0.2" d="M194.414 96.8036L204.294 84.7734L193.895 96.6369L194.165 96.8765C194.227 96.8765 194.362 96.8765 194.414 96.7931V96.8036Z" fill="url(#paint2_linear_3416_8441)"/>
<path opacity="0.2" d="M202.871 83.3673L213.757 73.212C213.809 73.1495 213.809 73.087 213.757 73.0141L202.891 83.3673H202.871Z" fill="url(#paint3_linear_3416_8441)"/>
<path d="M209.695 77.0345L201.229 85.2838L191.942 94.3455C191.9 94.4079 191.9 94.4496 191.942 94.5017L193.978 96.1265C194.04 96.1682 194.082 96.1682 194.134 96.1265L202.309 86.3566L209.851 77.1491C209.893 77.0866 209.893 76.9929 209.841 76.9408C209.841 76.9929 209.737 77.0033 209.695 77.0554V77.0345Z" fill="#FB5F2F"/>
<path d="M157.028 120.77C156.986 120.062 157.256 119.281 158.025 119.229C158.794 119.176 159.157 119.937 159.199 120.635C159.24 121.343 158.97 122.124 158.201 122.176C157.433 122.228 157.069 121.405 157.028 120.77ZM158.814 120.666C158.783 120.093 158.555 119.52 158.046 119.562C157.474 119.593 157.381 120.176 157.412 120.749C157.443 121.322 157.672 121.895 158.181 121.853C158.69 121.812 158.845 121.176 158.814 120.666Z" fill="#676767"/>
<path d="M221.725 118.364L221.59 115.989L221.174 116.531L220.977 116.354L221.642 115.541L221.964 115.521L222.141 118.406L221.756 118.427V118.364L221.735 118.354L221.725 118.364Z" fill="#676767"/>
<path d="M222.67 116.885C222.629 116.177 222.899 115.396 223.667 115.344C224.436 115.291 224.8 116.052 224.841 116.75C224.883 117.458 224.613 118.239 223.844 118.291C223.075 118.343 222.712 117.52 222.67 116.885ZM224.519 116.781C224.488 116.208 224.26 115.635 223.75 115.677C223.241 115.718 223.086 116.291 223.117 116.864C223.148 117.437 223.377 118.01 223.886 117.968C224.395 117.927 224.55 117.291 224.519 116.781Z" fill="#676767"/>
<path d="M225.413 116.729C225.371 116.021 225.641 115.239 226.41 115.187C227.179 115.135 227.542 115.896 227.584 116.593C227.625 117.291 227.355 118.083 226.587 118.135C225.818 118.187 225.454 117.364 225.413 116.729ZM227.21 116.625C227.179 116.052 226.95 115.479 226.441 115.521C225.87 115.552 225.776 116.135 225.808 116.708C225.839 117.281 226.067 117.854 226.576 117.812C227.085 117.77 227.241 117.135 227.21 116.625Z" fill="#676767"/>
<path d="M190.155 103.022C192.594 103.022 194.57 101.04 194.57 98.5951C194.57 96.1503 192.594 94.1684 190.155 94.1684C187.717 94.1684 185.74 96.1503 185.74 98.5951C185.74 101.04 187.717 103.022 190.155 103.022Z" fill="#E9F0F5"/>
<path d="M190.155 102.324C192.209 102.324 193.874 100.654 193.874 98.5951C193.874 96.5357 192.209 94.8662 190.155 94.8662C188.102 94.8662 186.437 96.5357 186.437 98.5951C186.437 100.654 188.102 102.324 190.155 102.324Z" fill="white"/>
<path d="M190.155 99.6262C190.723 99.6262 191.184 99.1646 191.184 98.5951C191.184 98.0256 190.723 97.5639 190.155 97.5639C189.587 97.5639 189.127 98.0256 189.127 98.5951C189.127 99.1646 189.587 99.6262 190.155 99.6262Z" fill="#DD736B"/>
<path d="M280.418 66.2439L279.234 64.0045L278.559 62.7234L277.312 63.4421L276.845 63.7233C267.205 68.9936 260.099 78.1699 257.377 88.9189L257.273 89.3251L256.931 90.6791L258.281 91.0333L260.712 91.6582L262.062 92.0123L262.416 90.6583L262.52 90.2521C264.898 80.9404 271.048 72.9828 279.4 68.4103L279.411 68.3999L279.878 68.1187L281.042 67.4521L280.408 66.2647V66.2439H280.418Z" fill="#DF8149" stroke="#D7D7D7" stroke-width="1.54" stroke-miterlimit="10"/>
<path d="M309.287 61.3589L308.892 61.2131C303.916 59.4424 298.691 58.7133 293.362 59.0258C287.981 59.3487 282.839 60.7131 278.07 63.0983L277.707 63.2858L276.481 63.9003L277.083 65.1398L278.174 67.3896L278.787 68.6499L280.044 68.0354L280.418 67.8479C284.646 65.7752 289.134 64.5774 293.746 64.3066C298.348 64.0358 302.805 64.6815 307.157 66.2022L307.552 66.348L308.871 66.8167L309.339 65.494L310.159 63.1296L310.617 61.8172L309.308 61.3589H309.287Z" fill="#E3C76A" stroke="#D7D7D7" stroke-width="1.54" stroke-miterlimit="10"/>
<path d="M332.349 83.8256L332.183 83.4298C328.069 73.514 319.977 65.5981 310.004 61.6922L309.609 61.5464L308.311 61.036L307.802 62.338L306.887 64.7024L306.378 66.0043L307.677 66.5147L308.072 66.6605C316.85 70.0769 323.696 76.7429 327.331 85.44L327.498 85.8254L328.027 87.0857L329.295 86.5753L331.58 85.6587L332.889 85.1276L332.338 83.8256H332.349Z" fill="#AECE65" stroke="#D7D7D7" stroke-width="1.54" stroke-miterlimit="10"/>
<path d="M265.47 114.708L265.179 114.146C263.028 109.907 261.803 105.355 261.522 100.616C261.335 97.4597 261.574 94.3038 262.249 91.2207L262.343 90.8145L262.634 89.4501L261.273 89.1584L258.832 88.6272L257.481 88.3356L257.18 89.6896L257.086 90.0958C256.307 93.5643 256.027 97.1994 256.245 100.939C256.546 106.084 257.876 111.25 260.078 115.864L260.192 116.125L260.598 116.968L261.532 116.916L264.306 116.76L266.436 116.635L265.47 114.739V114.719V114.708Z" fill="#D85341" stroke="#D7D7D7" stroke-width="1.54" stroke-miterlimit="10"/>
<path d="M332.712 84.4818L332.557 84.086L332.058 82.7736L330.749 83.284L328.401 84.1901L327.113 84.6901L327.601 85.9816L327.747 86.367C330.666 94.1996 330.687 102.751 327.83 110.427L327.601 111.031L326.854 113.042L328.993 112.917L331.767 112.76L332.692 112.708L332.993 111.823L333.086 111.563C336.109 102.824 335.974 93.2101 332.702 84.5026L332.712 84.4818Z" fill="#82B955" stroke="#D7D7D7" stroke-width="1.54" stroke-miterlimit="10"/>
<path opacity="0.2" d="M299.958 96.8036L309.838 84.7734L299.439 96.6369L299.709 96.8765C299.771 96.8765 299.906 96.8765 299.958 96.7931V96.8036Z" fill="url(#paint4_linear_3416_8441)"/>
<path opacity="0.2" d="M308.415 83.3673L319.301 73.212C319.353 73.1495 319.353 73.087 319.301 73.0141L308.435 83.3673H308.415Z" fill="url(#paint5_linear_3416_8441)"/>
<path d="M315.239 77.0345L306.773 85.2838L297.486 94.3455C297.444 94.4079 297.444 94.4496 297.486 94.5017L299.522 96.1265C299.584 96.1682 299.626 96.1682 299.678 96.1265L307.853 86.3566L315.395 77.1491C315.437 77.0866 315.437 76.9929 315.385 76.9408C315.385 76.9929 315.281 77.0033 315.239 77.0554V77.0345Z" fill="#FB5F2F"/>
<path d="M262.571 120.77C262.53 120.062 262.8 119.281 263.569 119.229C264.337 119.176 264.701 119.937 264.743 120.635C264.784 121.333 264.514 122.124 263.745 122.176C262.977 122.228 262.613 121.405 262.571 120.77ZM264.358 120.666C264.327 120.093 264.099 119.52 263.59 119.562C263.018 119.593 262.925 120.176 262.956 120.749C262.987 121.322 263.216 121.895 263.725 121.853C264.234 121.812 264.389 121.176 264.358 120.666Z" fill="#676767"/>
<path d="M327.269 118.364L327.134 115.989L326.718 116.531L326.521 116.354L327.186 115.541L327.508 115.521L327.684 118.406L327.3 118.427V118.364L327.279 118.354L327.269 118.364Z" fill="#676767"/>
<path d="M328.214 116.885C328.173 116.177 328.443 115.396 329.211 115.344C329.98 115.291 330.344 116.052 330.385 116.75C330.427 117.458 330.157 118.239 329.388 118.291C328.619 118.343 328.256 117.52 328.214 116.885ZM330.063 116.781C330.032 116.208 329.803 115.635 329.294 115.677C328.785 115.718 328.63 116.291 328.661 116.864C328.692 117.437 328.92 118.01 329.429 117.968C329.938 117.927 330.094 117.291 330.063 116.781Z" fill="#676767"/>
<path d="M330.957 116.729C330.915 116.021 331.185 115.239 331.954 115.187C332.723 115.135 333.086 115.896 333.128 116.593C333.169 117.291 332.899 118.083 332.131 118.135C331.362 118.187 330.998 117.364 330.957 116.729ZM332.744 116.625C332.712 116.052 332.484 115.479 331.975 115.521C331.403 115.552 331.31 116.135 331.341 116.708C331.372 117.281 331.601 117.854 332.11 117.812C332.619 117.77 332.775 117.135 332.744 116.625Z" fill="#676767"/>
<path d="M295.699 103.022C298.137 103.022 300.114 101.04 300.114 98.5951C300.114 96.1503 298.137 94.1684 295.699 94.1684C293.261 94.1684 291.284 96.1503 291.284 98.5951C291.284 101.04 293.261 103.022 295.699 103.022Z" fill="#E9F0F5"/>
<path d="M295.699 102.324C297.753 102.324 299.418 100.654 299.418 98.5951C299.418 96.5357 297.753 94.8662 295.699 94.8662C293.645 94.8662 291.98 96.5357 291.98 98.5951C291.98 100.654 293.645 102.324 295.699 102.324Z" fill="white"/>
<path d="M295.699 99.6262C296.267 99.6262 296.728 99.1646 296.728 98.5951C296.728 98.0256 296.267 97.5639 295.699 97.5639C295.131 97.5639 294.671 98.0256 294.671 98.5951C294.671 99.1646 295.131 99.6262 295.699 99.6262Z" fill="#DD736B"/>
<path d="M228.072 398.578L228.353 402.296H227.677L227.459 399.244L226.743 402.296H225.963L225.257 399.244L225.049 402.296H224.374L224.665 398.578H225.735L226.369 401.473L227.002 398.578H228.072ZM230.233 399.411C231.106 399.411 231.656 400.057 231.656 400.89C231.656 401.765 231.126 402.369 230.233 402.369C229.34 402.369 228.82 401.744 228.82 400.89C228.82 400.036 229.35 399.411 230.233 399.411ZM230.233 399.973C229.807 399.973 229.527 400.286 229.527 400.88C229.527 401.473 229.786 401.817 230.233 401.817C230.68 401.817 230.939 401.484 230.939 400.88C230.939 400.276 230.659 399.973 230.233 399.973ZM232.944 398.578V399.786C233.152 399.536 233.453 399.411 233.744 399.411C234.471 399.411 234.97 400.005 234.97 400.89C234.97 401.723 234.482 402.359 233.755 402.359C233.37 402.359 233.11 402.223 232.934 401.984V402.286H232.269V398.567H232.944V398.578ZM233.599 399.973C233.183 399.973 232.903 400.276 232.903 400.9C232.903 401.525 233.204 401.817 233.578 401.817C233.983 401.817 234.253 401.484 234.253 400.9C234.253 400.317 234.004 399.973 233.599 399.973ZM235.926 398.244C236.144 398.244 236.341 398.422 236.341 398.64C236.341 398.859 236.144 399.046 235.926 399.046C235.708 399.046 235.51 398.869 235.51 398.64C235.51 398.411 235.708 398.244 235.926 398.244ZM236.258 399.494V402.296H235.583V399.494H236.258ZM237.681 398.578V401.484C237.681 401.734 237.692 401.796 237.92 401.796C237.951 401.796 237.983 401.796 238.034 401.796V402.307C237.941 402.338 237.827 402.348 237.681 402.348C237.245 402.348 236.996 402.109 236.996 401.598V398.578H237.671H237.681ZM239.78 399.411C240.621 399.411 241.089 400.036 241.089 400.9V401.036H239.115C239.136 401.546 239.395 401.817 239.842 401.817C240.174 401.817 240.382 401.65 240.507 401.421L241.057 401.702C240.808 402.119 240.393 402.359 239.811 402.359C238.928 402.359 238.419 401.723 238.419 400.88C238.419 400.036 238.897 399.411 239.769 399.411H239.78ZM239.78 399.932C239.406 399.932 239.167 400.151 239.136 400.578H240.403C240.372 400.14 240.143 399.932 239.78 399.932ZM245.046 402.296L244.859 401.671H243.384L243.197 402.296H242.481L243.696 398.578H244.589L245.805 402.296H245.046ZM244.122 399.13L243.551 401.098H244.693L244.122 399.13ZM247.706 399.411C248.443 399.411 248.932 400.015 248.932 400.88C248.932 401.744 248.454 402.369 247.695 402.369C247.363 402.369 247.083 402.244 246.916 402.015V403.171H246.241V399.494H246.906V399.796C247.114 399.526 247.415 399.421 247.706 399.421V399.411ZM247.55 399.973C247.166 399.973 246.875 400.276 246.875 400.89C246.875 401.536 247.166 401.817 247.54 401.817C247.945 401.817 248.225 401.484 248.225 400.88C248.225 400.307 247.986 399.973 247.55 399.973ZM251.009 399.411C251.747 399.411 252.235 400.015 252.235 400.88C252.235 401.744 251.757 402.369 250.999 402.369C250.666 402.369 250.386 402.244 250.22 402.015V403.171H249.545V399.494H250.209V399.796C250.417 399.526 250.718 399.421 251.009 399.421V399.411ZM250.853 399.973C250.469 399.973 250.178 400.276 250.178 400.89C250.178 401.536 250.469 401.817 250.843 401.817C251.248 401.817 251.529 401.484 251.529 400.88C251.529 400.307 251.279 399.973 250.853 399.973Z" fill="#3F4C59"/>
<path d="M215.741 402.119C216.998 402.119 218.016 401.098 218.016 399.838C218.016 398.578 216.998 397.557 215.741 397.557C214.485 397.557 213.466 398.578 213.466 399.838C213.466 401.098 214.485 402.119 215.741 402.119Z" fill="#DE648B"/>
<path d="M337.366 402.39C336.743 402.39 336.14 402.161 335.756 401.682L336.223 401.255C336.514 401.577 336.857 401.786 337.387 401.786C337.834 401.786 338.187 401.588 338.187 401.265C338.187 400.942 338.041 400.786 337.2 400.651C336.358 400.505 335.943 400.182 335.943 399.546C335.943 398.89 336.514 398.463 337.345 398.463C338.072 398.463 338.561 398.765 338.862 399.13L338.363 399.526C338.197 399.317 337.917 399.057 337.356 399.057C336.93 399.057 336.67 399.224 336.67 399.526C336.67 399.796 336.815 399.932 337.615 400.067C338.53 400.223 338.924 400.557 338.924 401.213C338.924 401.911 338.363 402.38 337.387 402.38L337.366 402.39ZM340.618 399.411C341.449 399.411 341.76 399.744 341.76 400.296V401.682C341.76 401.9 341.781 402.098 341.854 402.296H341.168C341.137 402.202 341.106 402.109 341.085 402.005C340.877 402.275 340.555 402.369 340.254 402.369C339.651 402.369 339.309 402.005 339.309 401.505C339.309 401.005 339.631 400.661 340.451 400.557L341.075 400.473V400.338C341.075 400.015 340.971 399.911 340.597 399.911C340.244 399.911 340.098 400.026 340.098 400.317H339.433C339.454 399.703 339.901 399.411 340.618 399.411ZM341.085 400.942L340.638 401.005C340.202 401.067 340.015 401.182 340.015 401.452C340.015 401.671 340.14 401.827 340.441 401.827C340.784 401.827 341.085 401.598 341.085 401.244V400.942ZM343.526 398.484C343.744 398.484 343.963 398.526 344.129 398.578V399.078C344.004 399.036 343.796 398.994 343.651 398.994C343.412 398.994 343.298 399.057 343.298 399.296V399.515H344.004V400.015H343.298V402.286H342.622V400.015H342.238V399.515H342.622V399.244C342.622 398.807 342.882 398.474 343.537 398.474L343.526 398.484ZM345.51 399.411C346.341 399.411 346.653 399.744 346.653 400.296V401.682C346.653 401.9 346.663 402.098 346.747 402.296H346.061C346.019 402.202 345.999 402.109 345.978 402.005C345.77 402.275 345.448 402.369 345.147 402.369C344.544 402.369 344.201 402.005 344.201 401.505C344.201 401.005 344.523 400.661 345.344 400.557L345.967 400.473V400.338C345.967 400.015 345.864 399.911 345.49 399.911C345.136 399.911 344.991 400.026 344.991 400.317H344.326C344.336 399.703 344.794 399.411 345.51 399.411ZM345.978 400.942L345.531 401.005C345.095 401.067 344.908 401.182 344.908 401.452C344.908 401.671 345.032 401.827 345.334 401.827C345.677 401.827 345.978 401.598 345.978 401.244V400.942ZM348.835 399.411C348.897 399.411 348.97 399.411 349.022 399.421V400.098C348.928 400.098 348.887 400.098 348.855 400.098C348.419 400.098 348.076 400.307 348.076 401.078V402.296H347.401V399.494H348.066V399.953C348.253 399.588 348.533 399.421 348.835 399.421V399.411ZM349.853 398.244C350.071 398.244 350.268 398.422 350.268 398.64C350.268 398.859 350.071 399.046 349.853 399.046C349.634 399.046 349.437 398.869 349.437 398.64C349.437 398.411 349.634 398.244 349.853 398.244ZM350.195 399.494V402.296H349.52V399.494H350.195Z" fill="#3F4C59"/>
<path d="M327.269 402.119C328.526 402.119 329.544 401.098 329.544 399.838C329.544 398.578 328.526 397.557 327.269 397.557C326.013 397.557 324.994 398.578 324.994 399.838C324.994 401.098 326.013 402.119 327.269 402.119Z" fill="#6C60A5"/>
<path d="M284.345 398.484C284.968 398.484 285.623 398.744 285.924 399.546L285.238 399.734C285.072 399.307 284.802 399.078 284.345 399.078C283.711 399.078 283.317 399.567 283.317 400.411C283.317 401.255 283.659 401.765 284.345 401.765C284.864 401.765 285.155 401.505 285.311 401.025L285.986 401.244C285.706 402.005 285.051 402.369 284.335 402.369C283.504 402.369 282.589 401.869 282.589 400.411C282.589 398.953 283.452 398.463 284.345 398.463V398.484ZM287.222 398.578V399.828C287.43 399.557 287.711 399.411 288.043 399.411C288.656 399.411 288.999 399.807 288.999 400.473V402.286H288.324V400.651C288.324 400.244 288.23 399.984 287.846 399.984C287.493 399.984 287.222 400.286 287.222 400.713V402.275H286.547V398.557H287.222V398.578ZM291.17 399.411C291.232 399.411 291.305 399.411 291.357 399.421V400.098C291.263 400.098 291.222 400.098 291.191 400.098C290.754 400.098 290.412 400.307 290.412 401.078V402.296H289.736V399.494H290.401V399.953C290.588 399.588 290.869 399.421 291.17 399.421V399.411ZM293.071 399.411C293.944 399.411 294.494 400.057 294.494 400.89C294.494 401.765 293.964 402.369 293.071 402.369C292.178 402.369 291.658 401.744 291.658 400.89C291.658 400.036 292.188 399.411 293.071 399.411ZM293.071 399.973C292.645 399.973 292.365 400.286 292.365 400.88C292.365 401.473 292.624 401.817 293.071 401.817C293.518 401.817 293.777 401.484 293.777 400.88C293.777 400.276 293.497 399.973 293.071 399.973ZM298.203 399.411C298.805 399.411 299.107 399.807 299.107 400.484V402.286H298.431V400.765C298.431 400.234 298.359 399.984 298.005 399.984C297.683 399.984 297.455 400.276 297.455 400.703V402.275H296.78V400.755C296.78 400.223 296.717 399.973 296.354 399.973C296.032 399.973 295.793 400.265 295.793 400.692V402.265H295.117V399.463H295.782V399.786C295.98 399.505 296.239 399.39 296.551 399.39C296.935 399.39 297.195 399.557 297.33 399.849C297.538 399.515 297.87 399.39 298.213 399.39L298.203 399.411ZM301.039 399.411C301.87 399.411 302.348 400.036 302.348 400.9V401.036H300.374C300.395 401.546 300.654 401.817 301.101 401.817C301.434 401.817 301.652 401.65 301.766 401.421L302.316 401.702C302.067 402.119 301.652 402.359 301.07 402.359C300.187 402.359 299.678 401.723 299.678 400.88C299.678 400.036 300.156 399.411 301.028 399.411H301.039ZM301.039 399.932C300.665 399.932 300.426 400.151 300.395 400.578H301.662C301.631 400.14 301.402 399.932 301.039 399.932Z" fill="#3F4C59"/>
<path d="M273.967 402.119C275.224 402.119 276.242 401.098 276.242 399.838C276.242 398.578 275.224 397.557 273.967 397.557C272.711 397.557 271.692 398.578 271.692 399.838C271.692 401.098 272.711 402.119 273.967 402.119Z" fill="#4B98D1"/>
<path d="M385.765 398.578V399.171H384.113V400.192H385.64V400.775H384.113V402.286H383.417V398.567H385.765V398.578ZM386.689 398.244C386.907 398.244 387.105 398.422 387.105 398.64C387.105 398.859 386.907 399.046 386.689 399.046C386.471 399.046 386.274 398.869 386.274 398.64C386.274 398.411 386.471 398.244 386.689 398.244ZM387.022 399.494V402.296H386.346V399.494H387.022ZM389.234 399.411C389.297 399.411 389.369 399.411 389.421 399.421V400.098C389.328 400.098 389.286 400.098 389.255 400.098C388.819 400.098 388.476 400.307 388.476 401.078V402.296H387.801V399.494H388.466V399.953C388.653 399.588 388.933 399.421 389.234 399.421V399.411ZM391.063 399.411C391.904 399.411 392.382 400.036 392.382 400.9V401.036H390.408C390.429 401.546 390.689 401.817 391.135 401.817C391.468 401.817 391.686 401.65 391.8 401.421L392.351 401.702C392.091 402.119 391.686 402.359 391.104 402.359C390.221 402.359 389.712 401.723 389.712 400.88C389.712 400.036 390.19 399.411 391.063 399.411ZM391.063 399.932C390.689 399.932 390.45 400.151 390.419 400.578H391.686C391.655 400.14 391.426 399.932 391.063 399.932ZM393.992 398.484C394.21 398.484 394.428 398.526 394.595 398.578V399.078C394.47 399.036 394.262 398.994 394.117 398.994C393.888 398.994 393.764 399.057 393.764 399.296V399.515H394.47V400.015H393.764V402.286H393.088V400.015H392.704V399.515H393.088V399.244C393.088 398.807 393.348 398.474 394.003 398.474L393.992 398.484ZM396.122 399.411C396.994 399.411 397.545 400.057 397.545 400.89C397.545 401.765 397.015 402.369 396.122 402.369C395.228 402.369 394.709 401.744 394.709 400.89C394.709 400.036 395.239 399.411 396.122 399.411ZM396.122 399.973C395.696 399.973 395.415 400.286 395.415 400.88C395.415 401.473 395.675 401.817 396.122 401.817C396.568 401.817 396.828 401.484 396.828 400.88C396.828 400.276 396.548 399.973 396.122 399.973ZM400.36 399.494L399.519 400.765L400.485 402.296H399.685L399.082 401.223L398.49 402.296H397.701L398.656 400.796L397.815 399.505H398.615L399.093 400.348L399.571 399.505H400.339L400.36 399.494Z" fill="#3F4C59"/>
<path d="M375.626 402.119C376.883 402.119 377.901 401.098 377.901 399.838C377.901 398.578 376.883 397.557 375.626 397.557C374.37 397.557 373.351 398.578 373.351 399.838C373.351 401.098 374.37 402.119 375.626 402.119Z" fill="#4CA49D"/>
<g filter="url(#filter1_d_3416_8441)">
<path d="M534.16 147.226H40.0672C38.4895 147.226 37.2104 148.508 37.2104 150.09V422.763C37.2104 424.345 38.4895 425.627 40.0672 425.627H534.16C535.737 425.627 537.017 424.345 537.017 422.763V150.09C537.017 148.508 535.737 147.226 534.16 147.226Z" fill="white"/>
</g>
<path d="M202.247 196.909H66.7338C64.8176 196.909 63.2642 198.466 63.2642 200.388V218.542C63.2642 220.464 64.8176 222.021 66.7338 222.021H202.247C204.164 222.021 205.717 220.464 205.717 218.542V200.388C205.717 198.466 204.164 196.909 202.247 196.909Z" fill="#F1F0F0"/>
<path fill-rule="evenodd" clip-rule="evenodd" d="M196.045 208.106L192.752 211.439L189.459 208.106L188.452 209.137L192.752 213.501L197.053 209.137L196.045 208.106Z" fill="#626262"/>
<path d="M76.374 213.772C75.1481 213.772 73.9639 213.324 73.2056 212.387L74.1301 211.553C74.7015 212.178 75.3767 212.595 76.4051 212.595C77.2881 212.595 77.9634 212.21 77.9634 211.574C77.9634 210.939 77.6725 210.637 76.0312 210.366C74.3898 210.074 73.5692 209.439 73.5692 208.21C73.5692 206.918 74.6807 206.096 76.3116 206.096C77.7452 206.096 78.7009 206.679 79.2826 207.408L78.3062 208.179C77.9737 207.762 77.4232 207.262 76.322 207.262C75.4806 207.262 74.9716 207.595 74.9716 208.179C74.9716 208.71 75.2624 208.97 76.8206 209.241C78.6074 209.543 79.3865 210.21 79.3865 211.491C79.3865 212.855 78.2958 213.772 76.374 213.772ZM81.2045 205.627C81.6408 205.627 82.0251 205.971 82.0251 206.408C82.0251 206.845 81.6408 207.2 81.2045 207.2C80.7682 207.2 80.3942 206.845 80.3942 206.408C80.3942 205.971 80.7785 205.627 81.2045 205.627ZM81.8693 208.085V213.574H80.5396V208.085H81.8693ZM88.4346 207.627V208.741C88.0606 208.741 87.8633 208.762 87.6451 208.856C87.8321 209.116 87.9152 209.439 87.9152 209.793C87.9152 210.824 87.0738 211.553 85.5779 211.553C85.2039 211.553 84.8403 211.491 84.5183 211.376C84.4248 211.48 84.3625 211.605 84.3625 211.72C84.3625 212.022 84.5391 212.168 85.0585 212.168H86.0661C87.6555 212.168 88.31 212.887 88.31 213.782C88.31 214.824 87.3543 215.501 85.5987 215.501C83.6665 215.501 83.0016 214.855 83.0016 214.043C83.0016 213.564 83.2821 213.199 83.7807 212.949C83.4171 212.72 83.2613 212.407 83.2613 212.022C83.2613 211.678 83.4587 211.335 83.8638 211.064C83.4379 210.772 83.1678 210.324 83.1678 209.772C83.1678 208.762 83.9469 207.929 85.5155 207.929C86.1077 207.929 86.5855 208.054 86.9491 208.241C87.2711 207.845 87.7594 207.627 88.4346 207.627ZM85.5571 208.856C84.8611 208.856 84.4871 209.199 84.4871 209.751C84.4871 210.262 84.8403 210.606 85.5363 210.606C86.2323 210.606 86.6167 210.283 86.6167 209.751C86.6167 209.189 86.2635 208.856 85.5571 208.856ZM85.7545 213.22H84.5702C84.2482 213.428 84.1651 213.616 84.1651 213.845C84.1651 214.272 84.4975 214.543 85.5779 214.543C86.544 214.543 86.9699 214.272 86.9699 213.855C86.9699 213.407 86.679 213.22 85.7545 213.22ZM92.3717 207.929C93.5664 207.929 94.2312 208.71 94.2312 210.022V213.574H92.9015V210.449C92.9015 209.574 92.7145 209.064 91.9666 209.064C91.2706 209.064 90.7512 209.647 90.7512 210.501V213.574H89.4215V208.085H90.7304V208.793C91.1459 208.189 91.7277 207.929 92.3717 207.929ZM98.0333 207.929C99.6746 207.929 100.61 209.158 100.61 210.856V211.126H96.7452C96.7867 212.137 97.3061 212.657 98.1787 212.657C98.8228 212.657 99.2487 212.335 99.4876 211.887L100.568 212.439C100.069 213.251 99.2591 213.72 98.1164 213.72C96.392 213.72 95.3843 212.47 95.3843 210.814C95.3843 209.158 96.3192 207.929 98.0333 207.929ZM98.0229 208.949C97.2957 208.949 96.8283 209.387 96.7555 210.22H99.2487C99.1864 209.366 98.7397 208.949 98.0229 208.949ZM106.78 206.283V213.584H105.482V212.97C105.066 213.522 104.453 213.73 103.892 213.73C102.427 213.73 101.493 212.543 101.493 210.845C101.493 209.147 102.5 207.939 103.923 207.939C104.609 207.939 105.108 208.189 105.45 208.616V206.293H106.78V206.283ZM104.225 209.012C103.373 209.012 102.885 209.658 102.885 210.824C102.885 211.991 103.352 212.626 104.225 212.626C105.004 212.626 105.523 212.053 105.523 210.824C105.523 209.595 104.962 209.012 104.225 209.012ZM115.195 208.085V213.574H113.886V212.939C113.48 213.459 112.909 213.72 112.286 213.72C111.205 213.72 110.447 213.105 110.447 211.814V208.085H111.777V211.512C111.777 212.272 112.047 212.574 112.67 212.574C113.366 212.574 113.865 212.053 113.865 211.21V208.085H115.195ZM119.568 207.929C121.012 207.929 121.978 209.116 121.978 210.803C121.978 212.491 121.043 213.72 119.547 213.72C118.893 213.72 118.353 213.47 118.02 213.022V215.293H116.69V208.075H117.989V208.658C118.404 208.127 118.986 207.918 119.568 207.918V207.929ZM119.267 209.022C118.508 209.022 117.947 209.616 117.947 210.814C117.947 212.074 118.519 212.637 119.256 212.637C120.046 212.637 120.596 211.991 120.596 210.803C120.596 209.689 120.119 209.022 119.267 209.022Z" fill="#626262"/>
<path d="M67.8556 176.619C69.1957 176.619 70.5877 177.192 71.2318 178.911L69.7566 179.317C69.4034 178.411 68.8217 177.921 67.8556 177.921C66.4947 177.921 65.6533 178.983 65.6533 180.775C65.6533 182.566 66.3909 183.671 67.866 183.671C68.9671 183.671 69.6008 183.098 69.9436 182.087L71.3876 182.556C70.7955 184.181 69.393 184.972 67.8452 184.972C66.0688 184.972 64.1055 183.889 64.1055 180.785C64.1055 177.682 65.9546 176.619 67.8556 176.619ZM75.1896 178.608C77.0595 178.608 78.2334 179.983 78.2334 181.775C78.2334 183.65 77.1011 184.941 75.1896 184.941C73.2782 184.941 72.1563 183.608 72.1563 181.775C72.1563 179.942 73.299 178.608 75.1896 178.608ZM75.1896 179.806C74.2755 179.806 73.6834 180.462 73.6834 181.754C73.6834 183.046 74.2443 183.754 75.1896 183.754C76.135 183.754 76.7063 183.046 76.7063 181.754C76.7063 180.462 76.1038 179.806 75.1896 179.806ZM86.1803 178.608C87.4685 178.608 88.1229 179.463 88.1229 180.921V184.775H86.6686V181.525C86.6686 180.4 86.5231 179.848 85.7544 179.848C85.0584 179.848 84.5598 180.473 84.5598 181.4V184.775H83.1054V181.525C83.1054 180.4 82.9808 179.848 82.2017 179.848C81.5056 179.848 80.9966 180.473 80.9966 181.4V184.775H79.5423V178.775H80.9759V179.463C81.4122 178.869 81.9523 178.608 82.6172 178.608C83.4482 178.608 83.9988 178.973 84.2897 179.598C84.7468 178.89 85.4532 178.608 86.1803 178.608ZM92.8288 178.608C94.4078 178.608 95.457 179.9 95.457 181.744C95.457 183.587 94.4389 184.931 92.7976 184.931C92.0808 184.931 91.4887 184.66 91.1251 184.17V186.649H89.6708V178.775H91.0939V179.411C91.551 178.827 92.1847 178.598 92.8184 178.598L92.8288 178.608ZM92.5067 179.806C91.6757 179.806 91.0628 180.452 91.0628 181.764C91.0628 183.139 91.6861 183.754 92.4963 183.754C93.3586 183.754 93.9611 183.046 93.9611 181.754C93.9611 180.535 93.4417 179.806 92.5067 179.806ZM99.1863 178.608C100.963 178.608 101.638 179.317 101.638 180.494V183.462C101.638 183.931 101.669 184.348 101.846 184.775H100.381C100.298 184.577 100.246 184.368 100.215 184.15C99.7577 184.743 99.072 184.931 98.4384 184.931C97.1606 184.931 96.4231 184.16 96.4231 183.087C96.4231 182.014 97.1087 181.275 98.8643 181.067L100.204 180.9V180.608C100.204 179.91 99.9862 179.692 99.1759 179.692C98.428 179.692 98.1059 179.931 98.0956 180.556H96.662C96.6932 179.233 97.6696 178.619 99.2071 178.619L99.1863 178.608ZM100.184 181.869L99.2175 182.004C98.2722 182.129 97.8878 182.389 97.8878 182.962C97.8878 183.441 98.1579 183.775 98.7916 183.775C99.5291 183.775 100.173 183.275 100.173 182.525V181.879L100.184 181.869ZM106.302 178.608C106.437 178.608 106.583 178.619 106.707 178.64V180.088C106.51 180.077 106.427 180.077 106.344 180.077C105.398 180.077 104.671 180.525 104.671 182.171V184.775H103.217V178.775H104.65V179.754C105.056 178.973 105.648 178.608 106.292 178.608H106.302ZM110.239 178.608C112.036 178.608 113.055 179.952 113.055 181.806V182.098H108.837C108.878 183.202 109.45 183.775 110.406 183.775C111.112 183.775 111.569 183.421 111.839 182.931L113.023 183.535C112.483 184.42 111.59 184.931 110.343 184.931C108.463 184.931 107.362 183.566 107.362 181.754C107.362 179.942 108.38 178.598 110.25 178.598L110.239 178.608ZM110.229 179.723C109.439 179.723 108.92 180.202 108.847 181.108H111.569C111.496 180.171 111.018 179.723 110.229 179.723ZM121.864 178.775V184.775H120.43V184.077C119.983 184.65 119.36 184.931 118.685 184.931C117.501 184.931 116.68 184.264 116.68 182.848V178.775H118.134V182.514C118.134 183.348 118.425 183.671 119.111 183.671C119.869 183.671 120.42 183.098 120.42 182.181V178.765H121.874L121.864 178.775ZM125.77 178.608C126.881 178.608 127.702 178.983 128.252 179.525L127.473 180.369C126.995 179.963 126.445 179.723 125.801 179.723C125.094 179.723 124.741 179.983 124.741 180.369C124.741 180.785 125.022 180.931 126.206 181.129C127.65 181.379 128.377 181.879 128.377 183.025C128.377 184.17 127.432 184.92 125.718 184.92C124.461 184.92 123.536 184.525 122.913 183.889L123.723 183.004C124.253 183.525 124.918 183.785 125.614 183.785C126.476 183.785 126.871 183.514 126.871 183.077C126.871 182.671 126.673 182.462 125.344 182.233C123.931 181.994 123.266 181.421 123.266 180.431C123.266 179.265 124.326 178.588 125.759 178.588L125.77 178.608ZM132.158 178.608C133.956 178.608 134.974 179.952 134.974 181.806V182.098H130.756C130.798 183.202 131.369 183.775 132.325 183.775C133.031 183.775 133.488 183.421 133.758 182.931L134.942 183.535C134.402 184.42 133.509 184.931 132.262 184.931C130.382 184.931 129.281 183.566 129.281 181.754C129.281 179.942 130.299 178.598 132.179 178.598L132.158 178.608ZM132.148 179.723C131.358 179.723 130.839 180.202 130.766 181.108H133.488C133.415 180.171 132.927 179.723 132.148 179.723ZM139.326 178.608C139.461 178.608 139.607 178.619 139.731 178.64V180.088C139.544 180.077 139.451 180.077 139.368 180.077C138.422 180.077 137.706 180.525 137.706 182.171V184.775H136.251V178.775H137.685V179.754C138.09 178.973 138.682 178.608 139.326 178.608ZM142.972 178.608C144.084 178.608 144.905 178.983 145.455 179.525L144.676 180.369C144.198 179.963 143.648 179.723 143.014 179.723C142.308 179.723 141.954 179.983 141.954 180.369C141.954 180.785 142.235 180.931 143.419 181.129C144.863 181.379 145.59 181.879 145.59 183.025C145.59 184.17 144.645 184.92 142.931 184.92C141.674 184.92 140.749 184.525 140.126 183.889L140.936 183.004C141.466 183.525 142.131 183.785 142.827 183.785C143.689 183.785 144.084 183.514 144.084 183.077C144.084 182.671 143.887 182.462 142.557 182.233C141.134 181.994 140.479 181.421 140.479 180.431C140.479 179.265 141.539 178.588 142.972 178.588V178.608Z" fill="#626262"/>
<path d="M342.082 196.805H226.369C224.452 196.805 222.899 198.362 222.899 200.284V219.219C222.899 221.141 224.452 222.698 226.369 222.698H342.082C343.999 222.698 345.552 221.141 345.552 219.219V200.284C345.552 198.362 343.999 196.805 342.082 196.805Z" fill="#F1F0F0"/>
<path d="M236.435 209.637C237.515 209.845 238.045 210.501 238.045 211.48C238.045 212.689 237.214 213.574 235.25 213.574H232.321V206.273H234.845C236.85 206.273 237.65 206.96 237.65 208.137C237.65 208.97 237.172 209.439 236.435 209.626V209.637ZM234.959 207.418H233.692V209.231H235.136C235.759 209.231 236.237 208.97 236.237 208.304C236.237 207.637 235.79 207.418 234.959 207.418ZM235.313 212.439C236.061 212.439 236.601 212.105 236.601 211.387C236.601 210.449 235.905 210.262 235.292 210.262H233.692V212.439H235.313ZM241.93 207.929C242.055 207.929 242.19 207.939 242.304 207.96V209.283C242.127 209.272 242.044 209.272 241.971 209.272C241.109 209.272 240.444 209.679 240.444 211.189V213.574H239.115V208.085H240.424V208.981C240.798 208.262 241.338 207.929 241.93 207.929ZM245.659 207.929C247.373 207.929 248.443 209.189 248.443 210.824C248.443 212.543 247.404 213.72 245.659 213.72C243.914 213.72 242.886 212.501 242.886 210.824C242.886 209.147 243.935 207.929 245.659 207.929ZM245.659 209.022C244.818 209.022 244.278 209.626 244.278 210.803C244.278 211.98 244.787 212.637 245.659 212.637C246.532 212.637 247.051 211.991 247.051 210.803C247.051 209.616 246.501 209.022 245.659 209.022ZM256.826 208.085L255.331 213.574H253.783L252.879 209.533L251.913 213.574H250.375L248.9 208.085H250.334L251.196 212.23L252.131 208.085H253.596L254.572 212.23L255.466 208.085H256.826ZM259.808 207.929C260.826 207.929 261.574 208.272 262.083 208.772L261.366 209.543C260.93 209.168 260.421 208.949 259.839 208.949C259.195 208.949 258.873 209.189 258.873 209.543C258.873 209.929 259.133 210.054 260.213 210.241C261.532 210.47 262.197 210.928 262.197 211.98C262.197 213.032 261.335 213.72 259.766 213.72C258.613 213.72 257.772 213.355 257.2 212.772L257.938 211.96C258.426 212.439 259.029 212.678 259.673 212.678C260.462 212.678 260.826 212.428 260.826 212.032C260.826 211.658 260.649 211.47 259.424 211.262C258.125 211.043 257.522 210.522 257.522 209.616C257.522 208.543 258.489 207.929 259.808 207.929ZM265.667 207.929C267.308 207.929 268.243 209.158 268.243 210.856V211.126H264.379C264.42 212.137 264.94 212.657 265.812 212.657C266.456 212.657 266.882 212.335 267.121 211.887L268.202 212.439C267.703 213.251 266.893 213.72 265.75 213.72C264.026 213.72 263.018 212.47 263.018 210.814C263.018 209.158 263.953 207.929 265.667 207.929ZM265.656 208.949C264.929 208.949 264.462 209.387 264.389 210.22H266.882C266.82 209.366 266.373 208.949 265.656 208.949ZM272.232 207.929C272.357 207.929 272.492 207.939 272.606 207.96V209.283C272.43 209.272 272.346 209.272 272.274 209.272C271.411 209.272 270.747 209.679 270.747 211.189V213.574H269.417V208.085H270.726V208.981C271.1 208.262 271.64 207.929 272.232 207.929Z" fill="#626262"/>
<path d="M225.641 176.609C227.033 176.609 228.342 177.213 228.986 178.723L227.625 179.233C227.262 178.359 226.649 177.869 225.631 177.869C224.187 177.869 223.439 178.994 223.439 180.817C223.439 182.639 224.156 183.712 225.641 183.712C226.763 183.712 227.594 183.087 227.594 181.983V181.629H225.787V180.442H229.1V184.764H227.688V184.025C227.148 184.65 226.389 184.983 225.454 184.983C223.771 184.983 221.891 183.91 221.891 180.827C221.891 177.744 223.719 176.598 225.652 176.598L225.641 176.609ZM233.723 178.608C233.858 178.608 234.004 178.619 234.128 178.64V180.088C233.931 180.077 233.848 180.077 233.765 180.077C232.819 180.077 232.103 180.525 232.103 182.171V184.775H230.648V178.775H232.082V179.754C232.487 178.973 233.079 178.608 233.723 178.608ZM237.785 178.608C239.655 178.608 240.829 179.983 240.829 181.775C240.829 183.65 239.696 184.941 237.785 184.941C235.874 184.941 234.752 183.608 234.752 181.775C234.752 179.942 235.894 178.608 237.785 178.608ZM237.785 179.806C236.871 179.806 236.279 180.462 236.279 181.754C236.279 183.046 236.84 183.754 237.785 183.754C238.73 183.754 239.302 183.046 239.302 181.754C239.302 180.462 238.699 179.806 237.785 179.806ZM247.269 178.775V184.775H245.836V184.077C245.389 184.65 244.766 184.931 244.091 184.931C242.917 184.931 242.086 184.264 242.086 182.848V178.775H243.54V182.514C243.54 183.348 243.831 183.671 244.517 183.671C245.275 183.671 245.825 183.098 245.825 182.181V178.765H247.28L247.269 178.775ZM252.048 178.608C253.627 178.608 254.676 179.9 254.676 181.744C254.676 183.587 253.658 184.931 252.017 184.931C251.3 184.931 250.708 184.66 250.355 184.17V186.649H248.9V178.775H250.313V179.411C250.77 178.827 251.404 178.598 252.038 178.598L252.048 178.608ZM251.716 179.806C250.884 179.806 250.272 180.452 250.272 181.764C250.272 183.139 250.895 183.754 251.705 183.754C252.567 183.754 253.17 183.046 253.17 181.754C253.17 180.535 252.65 179.806 251.716 179.806ZM258.561 178.608C260.358 178.608 261.377 179.952 261.377 181.806V182.098H257.159C257.201 183.202 257.772 183.775 258.728 183.775C259.434 183.775 259.891 183.421 260.161 182.931L261.345 183.535C260.795 184.42 259.912 184.931 258.665 184.931C256.785 184.931 255.684 183.566 255.684 181.754C255.684 179.942 256.702 178.598 258.582 178.598L258.561 178.608ZM258.551 179.723C257.761 179.723 257.242 180.202 257.169 181.108H259.891C259.818 180.171 259.33 179.723 258.551 179.723ZM268.108 176.807V184.764H266.685V184.098C266.228 184.702 265.563 184.931 264.95 184.931C263.35 184.931 262.332 183.629 262.332 181.775C262.332 179.921 263.433 178.598 264.992 178.598C265.74 178.598 266.28 178.869 266.654 179.338V176.796H268.108V176.807ZM265.314 179.785C264.379 179.785 263.849 180.494 263.849 181.764C263.849 183.035 264.358 183.733 265.314 183.733C266.165 183.733 266.737 183.108 266.737 181.764C266.737 180.421 266.124 179.785 265.314 179.785ZM273.614 176.807V179.4C274.071 178.858 274.694 178.608 275.328 178.608C276.896 178.608 277.946 179.879 277.946 181.785C277.946 183.566 276.886 184.941 275.338 184.941C274.518 184.941 273.957 184.66 273.593 184.15V184.785H272.159V176.827H273.614V176.807ZM275.016 179.806C274.133 179.806 273.531 180.442 273.531 181.796C273.531 183.15 274.164 183.754 274.975 183.754C275.847 183.754 276.429 183.035 276.429 181.796C276.429 180.556 275.91 179.806 275.027 179.806H275.016ZM284.168 178.775L282.246 185.056C281.914 186.16 281.446 186.879 280.003 186.879C279.712 186.879 279.431 186.847 279.223 186.795V185.733C279.483 185.754 279.577 185.754 279.743 185.754C280.584 185.754 280.771 185.514 280.948 184.764H280.418L278.424 178.765H280.034L281.384 183.702L282.631 178.765H284.179L284.168 178.775Z" fill="#626262"/>
<path fill-rule="evenodd" clip-rule="evenodd" d="M329.471 207.054L326.178 210.387L322.885 207.054L321.877 208.085L326.178 212.449L330.479 208.085L329.471 207.054Z" fill="#626262"/>
<path d="M147.928 376.538C148.156 376.538 148.343 376.621 148.468 376.778C148.593 376.934 148.665 377.215 148.665 377.601V380.371H147.969V377.705C147.969 377.496 147.949 377.351 147.917 377.267C147.886 377.184 147.824 377.142 147.72 377.142C147.523 377.142 147.336 377.267 147.169 377.517V380.361H146.525V377.694C146.525 377.486 146.505 377.34 146.473 377.257C146.442 377.174 146.38 377.132 146.276 377.132C146.079 377.132 145.892 377.257 145.725 377.507V380.35H145.019V376.611H145.611L145.663 377.017C145.777 376.851 145.902 376.726 146.027 376.642C146.151 376.559 146.297 376.517 146.463 376.517C146.795 376.517 147.003 376.674 147.097 376.996C147.211 376.84 147.336 376.726 147.46 376.653C147.595 376.569 147.741 376.528 147.917 376.528L147.928 376.538ZM151.086 376.538C151.626 376.538 152.041 376.715 152.332 377.069C152.623 377.413 152.769 377.892 152.769 378.496C152.769 379.1 152.623 379.58 152.322 379.934C152.021 380.288 151.616 380.465 151.075 380.465C150.535 380.465 150.12 380.288 149.829 379.944C149.538 379.6 149.392 379.111 149.392 378.496C149.392 377.882 149.538 377.423 149.839 377.069C150.14 376.705 150.556 376.528 151.086 376.528V376.538ZM151.086 377.153C150.795 377.153 150.577 377.267 150.442 377.486C150.296 377.705 150.234 378.048 150.234 378.507C150.234 378.965 150.307 379.309 150.442 379.538C150.587 379.757 150.795 379.861 151.086 379.861C151.377 379.861 151.584 379.746 151.73 379.527C151.875 379.309 151.938 378.965 151.938 378.507C151.938 378.048 151.865 377.715 151.73 377.496C151.584 377.278 151.377 377.163 151.096 377.163L151.086 377.153ZM153.828 376.632H154.514L154.566 377.121C154.722 376.934 154.898 376.788 155.106 376.694C155.314 376.59 155.542 376.538 155.771 376.538C156.114 376.538 156.373 376.632 156.55 376.83C156.727 377.028 156.81 377.298 156.81 377.653V380.382H156.02V378.048C156.02 377.819 156.01 377.642 155.979 377.517C155.958 377.392 155.906 377.298 155.833 377.246C155.76 377.184 155.646 377.153 155.49 377.153C155.324 377.153 155.158 377.205 155.002 377.309C154.846 377.413 154.722 377.538 154.618 377.694V380.382H153.828V376.642V376.632ZM161.173 380.173C161.027 380.267 160.871 380.329 160.674 380.382C160.487 380.434 160.29 380.465 160.082 380.465C159.656 380.465 159.334 380.35 159.095 380.142C158.866 379.923 158.752 379.621 158.752 379.246V377.226H157.932V376.642H158.752V375.809L159.542 375.715V376.642H160.809L160.716 377.226H159.542V379.246C159.542 379.455 159.594 379.6 159.698 379.705C159.801 379.798 159.968 379.85 160.196 379.85C160.445 379.85 160.674 379.788 160.892 379.673L161.173 380.194V380.173ZM163.084 377.09C163.23 376.903 163.406 376.767 163.603 376.674C163.811 376.58 164.019 376.528 164.237 376.528C164.58 376.528 164.84 376.621 165.016 376.819C165.193 377.007 165.276 377.278 165.276 377.642V380.371H164.486V377.767C164.486 377.548 164.445 377.392 164.362 377.288C164.279 377.184 164.144 377.142 163.957 377.142C163.79 377.142 163.635 377.194 163.479 377.309C163.323 377.413 163.198 377.538 163.094 377.694V380.371H162.305V375.142L163.094 375.059V377.101L163.084 377.09ZM172.049 375.382C172.371 375.382 172.641 375.444 172.88 375.569C173.119 375.694 173.296 375.861 173.42 376.069C173.545 376.278 173.607 376.507 173.607 376.767C173.607 377.059 173.545 377.34 173.41 377.611C173.275 377.882 173.067 378.184 172.766 378.507C172.465 378.83 172.049 379.246 171.509 379.736H173.722L173.638 380.371H170.605V379.767C171.218 379.173 171.675 378.715 171.976 378.392C172.278 378.059 172.485 377.767 172.61 377.538C172.735 377.298 172.797 377.059 172.797 376.819C172.797 376.58 172.724 376.382 172.589 376.236C172.444 376.09 172.257 376.028 172.008 376.028C171.8 376.028 171.613 376.069 171.467 376.153C171.322 376.226 171.176 376.361 171.021 376.538L170.512 376.142C170.709 375.892 170.927 375.705 171.176 375.58C171.426 375.455 171.717 375.392 172.07 375.392L172.049 375.382Z" fill="#3F4C59"/>
<path d="M80.6123 365.206C81.1525 365.206 81.568 365.425 81.8485 365.862C82.129 366.3 82.2744 366.924 82.2744 367.737C82.2744 368.549 82.129 369.185 81.8485 369.622C81.568 370.06 81.1525 370.278 80.6123 370.278C80.0721 370.278 79.6566 370.06 79.3761 369.622C79.0956 369.185 78.9502 368.56 78.9502 367.737C78.9502 366.914 79.0956 366.3 79.3761 365.862C79.6566 365.425 80.0721 365.206 80.6123 365.206ZM80.6123 365.82C80.3318 365.82 80.1137 365.977 79.9682 366.279C79.8228 366.581 79.7501 367.07 79.7501 367.747C79.7501 368.424 79.8228 368.924 79.9682 369.226C80.1137 369.528 80.3318 369.685 80.6123 369.685C80.8928 369.685 81.1109 369.528 81.2564 369.226C81.4018 368.914 81.4745 368.424 81.4745 367.747C81.4745 367.07 81.4018 366.581 81.2564 366.279C81.1109 365.977 80.8928 365.82 80.6123 365.82ZM80.6123 367.289C80.7473 367.289 80.8512 367.331 80.9447 367.424C81.0382 367.518 81.0798 367.622 81.0798 367.747C81.0798 367.872 81.0382 367.987 80.9447 368.081C80.8512 368.174 80.7473 368.216 80.6123 368.216C80.4773 368.216 80.3734 368.174 80.2799 368.081C80.1968 367.987 80.1552 367.883 80.1552 367.747C80.1552 367.612 80.1968 367.508 80.2799 367.424C80.3734 367.331 80.4773 367.289 80.6123 367.289ZM86.5336 365.414L83.5418 370.351L83.0847 370.101L86.0765 365.164L86.5336 365.414ZM83.843 365.206C84.1547 365.206 84.404 365.31 84.591 365.518C84.778 365.727 84.8714 365.997 84.8714 366.331C84.8714 366.664 84.778 366.924 84.591 367.143C84.404 367.351 84.1547 367.466 83.843 367.466C83.5314 367.466 83.2717 367.362 83.0847 367.143C82.8977 366.924 82.8146 366.654 82.8146 366.331C82.8146 366.008 82.9081 365.747 83.0847 365.529C83.2717 365.31 83.521 365.206 83.843 365.206ZM83.843 365.685C83.708 365.685 83.6041 365.737 83.5314 365.852C83.4587 365.956 83.4275 366.122 83.4275 366.331C83.4275 366.539 83.4587 366.706 83.5314 366.82C83.6041 366.935 83.708 366.997 83.843 366.997C83.9781 366.997 84.0716 366.945 84.1443 366.831C84.217 366.716 84.2482 366.549 84.2482 366.331C84.2482 365.893 84.1131 365.685 83.843 365.685ZM85.8479 367.976C86.1596 367.976 86.4089 368.081 86.5959 368.299C86.7829 368.508 86.866 368.778 86.866 369.101C86.866 369.424 86.7725 369.695 86.5959 369.914C86.4089 370.122 86.1596 370.237 85.8479 370.237C85.5363 370.237 85.2766 370.132 85.0896 369.914C84.9026 369.695 84.8195 369.424 84.8195 369.101C84.8195 368.778 84.913 368.518 85.0896 368.299C85.2766 368.081 85.5259 367.976 85.8479 367.976ZM85.8479 368.445C85.5675 368.445 85.4324 368.664 85.4324 369.091C85.4324 369.299 85.4636 369.466 85.5363 369.591C85.609 369.705 85.7129 369.758 85.8479 369.758C86.118 369.758 86.2531 369.539 86.2531 369.091C86.2531 368.643 86.118 368.445 85.8479 368.445Z" fill="#3F4C59"/>
<path d="M76.1766 332.219C76.4986 332.219 76.7687 332.282 77.0077 332.407C77.2466 332.532 77.4232 332.698 77.5479 332.896C77.6725 333.105 77.7348 333.334 77.7348 333.594C77.7348 333.886 77.6725 334.167 77.5375 334.438C77.4024 334.709 77.1946 335.011 76.8934 335.334C76.5921 335.657 76.1766 336.073 75.6364 336.563H77.8491L77.766 337.198H74.7327V336.594C75.3456 336 75.8026 335.542 76.1039 335.209C76.4052 334.875 76.6129 334.584 76.7376 334.355C76.8622 334.115 76.9246 333.875 76.9246 333.636C76.9246 333.396 76.8518 333.198 76.7168 333.053C76.5714 332.917 76.3844 332.844 76.1351 332.844C75.9273 332.844 75.7403 332.886 75.5949 332.959C75.4494 333.032 75.304 333.167 75.1482 333.344L74.6392 332.948C74.8365 332.698 75.0547 332.511 75.304 332.386C75.5533 332.261 75.8546 332.198 76.1974 332.198L76.1766 332.219ZM81.9005 332.917H80.0306V334.271C80.2799 334.146 80.55 334.084 80.8305 334.084C81.0902 334.084 81.3188 334.146 81.5265 334.271C81.7343 334.396 81.8901 334.573 82.0044 334.813C82.1186 335.042 82.181 335.323 82.181 335.646C82.181 335.969 82.1083 336.261 81.9628 336.521C81.8174 336.771 81.6096 336.969 81.3499 337.104C81.0902 337.24 80.7786 337.313 80.4358 337.313C79.8332 337.313 79.345 337.104 78.9503 336.677L79.4177 336.229C79.6982 336.531 80.0202 336.688 80.4046 336.688C80.7059 336.688 80.9448 336.594 81.111 336.417C81.2772 336.229 81.3603 335.979 81.3603 335.646C81.3603 335.313 81.2876 335.063 81.1422 334.907C80.9967 334.75 80.8097 334.677 80.5604 334.677C80.4462 334.677 80.3319 334.688 80.228 334.719C80.1241 334.74 79.9995 334.782 79.8644 334.834H79.2827V332.323H82.0148L81.9109 332.917H81.9005ZM86.5336 332.428L83.5418 337.365L83.0951 337.115L86.0869 332.178L86.544 332.428H86.5336ZM83.8431 332.219C84.1547 332.219 84.404 332.323 84.591 332.542C84.778 332.751 84.8611 333.021 84.8611 333.344C84.8611 333.667 84.7676 333.938 84.591 334.157C84.404 334.365 84.1547 334.48 83.8431 334.48C83.5314 334.48 83.2717 334.375 83.0847 334.157C82.8978 333.938 82.8043 333.667 82.8043 333.344C82.8043 333.021 82.8978 332.751 83.0847 332.542C83.2717 332.323 83.521 332.219 83.8431 332.219ZM83.8431 332.698C83.708 332.698 83.6042 332.751 83.5314 332.865C83.4587 332.969 83.4276 333.136 83.4276 333.344C83.4276 333.553 83.4587 333.709 83.5314 333.834C83.6042 333.948 83.708 334.011 83.8431 334.011C83.9781 334.011 84.0716 333.959 84.1443 333.844C84.2171 333.73 84.2482 333.563 84.2482 333.344C84.2482 332.907 84.1132 332.688 83.8431 332.688V332.698ZM85.8584 334.99C86.17 334.99 86.4193 335.094 86.6063 335.313C86.7933 335.521 86.8764 335.792 86.8764 336.115C86.8764 336.438 86.7829 336.709 86.6063 336.927C86.4193 337.136 86.17 337.25 85.8584 337.25C85.5467 337.25 85.287 337.146 85.1 336.927C84.9131 336.709 84.8196 336.438 84.8196 336.115C84.8196 335.792 84.9131 335.532 85.1 335.313C85.287 335.094 85.5364 334.99 85.8584 334.99ZM85.8584 335.459C85.5779 335.459 85.4429 335.677 85.4429 336.104C85.4429 336.313 85.474 336.479 85.5467 336.604C85.6195 336.719 85.7233 336.771 85.8584 336.771C86.1285 336.771 86.2635 336.552 86.2635 336.104C86.2635 335.657 86.1285 335.459 85.8584 335.459Z" fill="#3F4C59"/>
<path d="M77.6724 299.931H75.8025V301.295C76.0519 301.17 76.3219 301.108 76.6024 301.108C76.8621 301.108 77.0907 301.17 77.2984 301.295C77.5062 301.42 77.662 301.597 77.7763 301.837C77.8906 302.066 77.9529 302.347 77.9529 302.66C77.9529 302.972 77.8802 303.274 77.7347 303.534C77.5893 303.784 77.3815 303.982 77.1218 304.118C76.8621 304.253 76.5505 304.326 76.2077 304.326C75.6052 304.326 75.1169 304.118 74.7222 303.691L75.1896 303.243C75.4701 303.545 75.7922 303.701 76.1765 303.701C76.4778 303.701 76.7167 303.607 76.8829 303.43C77.0491 303.243 77.1322 302.993 77.1322 302.66C77.1322 302.326 77.0595 302.076 76.9141 301.92C76.7686 301.764 76.5817 301.68 76.3323 301.68C76.2181 301.68 76.1038 301.691 75.9999 301.722C75.896 301.743 75.7714 301.785 75.6363 301.847H75.0546V299.337H77.7867L77.6828 299.931H77.6724ZM80.6123 299.233C81.1524 299.233 81.568 299.452 81.8485 299.889C82.1289 300.326 82.2744 300.951 82.2744 301.764C82.2744 302.576 82.1289 303.212 81.8485 303.649C81.568 304.086 81.1524 304.305 80.6123 304.305C80.0721 304.305 79.6566 304.086 79.3761 303.649C79.0956 303.212 78.9502 302.587 78.9502 301.764C78.9502 300.941 79.0956 300.326 79.3761 299.889C79.6566 299.452 80.0721 299.233 80.6123 299.233ZM80.6123 299.847C80.3318 299.847 80.1136 300.004 79.9682 300.306C79.8228 300.608 79.75 301.097 79.75 301.774C79.75 302.451 79.8228 302.951 79.9682 303.253C80.1136 303.555 80.3318 303.712 80.6123 303.712C80.8927 303.712 81.1109 303.555 81.2563 303.253C81.4018 302.951 81.4745 302.451 81.4745 301.774C81.4745 301.097 81.4018 300.608 81.2563 300.306C81.1109 300.004 80.8927 299.847 80.6123 299.847ZM80.6123 301.316C80.7473 301.316 80.8512 301.358 80.9447 301.451C81.0382 301.545 81.0797 301.649 81.0797 301.774C81.0797 301.899 81.0382 302.014 80.9447 302.107C80.8512 302.201 80.7473 302.243 80.6123 302.243C80.4772 302.243 80.3733 302.201 80.2798 302.107C80.1967 302.014 80.1552 301.91 80.1552 301.774C80.1552 301.639 80.1967 301.535 80.2798 301.451C80.3733 301.358 80.4772 301.316 80.6123 301.316ZM86.5335 299.441L83.5417 304.378L83.095 304.128L86.0868 299.191L86.5439 299.441H86.5335ZM83.843 299.233C84.1546 299.233 84.4039 299.337 84.5909 299.556C84.7779 299.764 84.861 300.035 84.861 300.358C84.861 300.681 84.7675 300.951 84.5909 301.17C84.4039 301.378 84.1546 301.493 83.843 301.493C83.5313 301.493 83.2716 301.389 83.0846 301.17C82.8977 300.951 82.8042 300.681 82.8042 300.358C82.8042 300.035 82.8977 299.774 83.0846 299.556C83.2716 299.337 83.5209 299.233 83.843 299.233ZM83.843 299.712C83.7079 299.712 83.6041 299.764 83.5313 299.879C83.4586 299.983 83.4275 300.149 83.4275 300.358C83.4275 300.566 83.4586 300.733 83.5313 300.847C83.6041 300.962 83.7079 301.024 83.843 301.024C83.978 301.024 84.0715 300.972 84.1442 300.858C84.217 300.743 84.2481 300.576 84.2481 300.358C84.2481 299.92 84.1131 299.712 83.843 299.712ZM85.8583 302.003C86.1699 302.003 86.4193 302.108 86.6062 302.326C86.7932 302.535 86.8763 302.805 86.8763 303.139C86.8763 303.472 86.7828 303.732 86.6062 303.951C86.4193 304.159 86.1699 304.274 85.8583 304.274C85.5466 304.274 85.2869 304.17 85.0999 303.951C84.913 303.732 84.8195 303.462 84.8195 303.139C84.8195 302.816 84.913 302.555 85.0999 302.337C85.2869 302.118 85.5363 302.014 85.8583 302.014V302.003ZM85.8583 302.472C85.5778 302.472 85.4428 302.691 85.4428 303.128C85.4428 303.337 85.4739 303.503 85.5466 303.628C85.6194 303.743 85.7232 303.795 85.8583 303.795C86.1284 303.795 86.2634 303.576 86.2634 303.128C86.2634 302.68 86.1284 302.472 85.8583 302.472Z" fill="#3F4C59"/>
<path d="M75.2309 272.412L77.0904 268.288H74.8569V267.663H77.8903V268.225L75.9685 272.631L75.2309 272.402V272.412ZM81.9001 268.256H80.0302V269.621C80.2796 269.496 80.5497 269.433 80.8301 269.433C81.0898 269.433 81.3184 269.496 81.5261 269.621C81.7339 269.746 81.8897 269.923 82.004 270.163C82.1183 270.392 82.1806 270.673 82.1806 270.996C82.1806 271.319 82.1079 271.61 81.9624 271.871C81.817 272.121 81.6092 272.319 81.3495 272.454C81.0898 272.589 80.7782 272.662 80.4354 272.662C79.8329 272.662 79.3446 272.454 78.9499 272.027L79.4173 271.579C79.6978 271.881 80.0199 272.037 80.4042 272.037C80.7055 272.037 80.9444 271.944 81.1106 271.767C81.2768 271.579 81.3599 271.329 81.3599 270.996C81.3599 270.662 81.2872 270.413 81.1418 270.256C80.9963 270.1 80.8094 270.017 80.56 270.017C80.4458 270.017 80.3315 270.027 80.2276 270.058C80.1237 270.079 79.9991 270.121 79.864 270.183H79.2823V267.673H82.0144L81.9105 268.267L81.9001 268.256ZM86.5332 267.777L83.5414 272.714L83.0948 272.464L86.0865 267.527L86.5436 267.777H86.5332ZM83.8427 267.569C84.1543 267.569 84.4037 267.673 84.5907 267.892C84.7776 268.1 84.8607 268.371 84.8607 268.694C84.8607 269.017 84.7673 269.288 84.5907 269.506C84.4037 269.715 84.1543 269.829 83.8427 269.829C83.5311 269.829 83.2714 269.725 83.0844 269.506C82.8974 269.288 82.8039 269.017 82.8039 268.694C82.8039 268.371 82.8974 268.111 83.0844 267.892C83.2714 267.673 83.5207 267.569 83.8427 267.569ZM83.8427 268.038C83.7077 268.038 83.6038 268.09 83.5311 268.204C83.4583 268.309 83.4272 268.475 83.4272 268.684C83.4272 268.892 83.4583 269.058 83.5311 269.173C83.6038 269.288 83.7077 269.35 83.8427 269.35C83.9777 269.35 84.0712 269.298 84.144 269.183C84.2167 269.069 84.2478 268.902 84.2478 268.684C84.2478 268.246 84.1128 268.038 83.8427 268.038ZM85.858 270.34C86.1697 270.34 86.419 270.444 86.606 270.662C86.7929 270.871 86.876 271.142 86.876 271.475C86.876 271.808 86.7826 272.069 86.606 272.287C86.419 272.496 86.1697 272.61 85.858 272.61C85.5464 272.61 85.2867 272.506 85.0997 272.287C84.9127 272.069 84.8192 271.798 84.8192 271.475C84.8192 271.152 84.9127 270.892 85.0997 270.673C85.2867 270.454 85.536 270.35 85.858 270.35V270.34ZM85.858 270.808C85.5775 270.808 85.4425 271.027 85.4425 271.465C85.4425 271.673 85.4736 271.839 85.5464 271.964C85.6191 272.079 85.723 272.131 85.858 272.131C86.1281 272.131 86.2631 271.912 86.2631 271.465C86.2631 271.017 86.1281 270.808 85.858 270.808Z" fill="#3F4C59"/>
<path d="M73.7665 244.217V244.842H70.8267V244.217H72.0109V240.769L70.941 241.426L70.5981 240.874L72.094 239.957H72.79V244.217H73.7665ZM76.374 239.863C76.9141 239.863 77.3297 240.082 77.6102 240.519C77.8906 240.957 78.0361 241.582 78.0361 242.394C78.0361 243.207 77.8906 243.842 77.6102 244.28C77.3297 244.717 76.9141 244.936 76.374 244.936C75.8338 244.936 75.4183 244.717 75.1378 244.28C74.8573 243.842 74.7119 243.217 74.7119 242.394C74.7119 241.571 74.8573 240.957 75.1378 240.519C75.4183 240.082 75.8338 239.863 76.374 239.863ZM76.374 240.467C76.0935 240.467 75.8753 240.624 75.7299 240.926C75.5845 241.228 75.5118 241.717 75.5118 242.394C75.5118 243.071 75.5845 243.571 75.7299 243.873C75.8753 244.175 76.0935 244.332 76.374 244.332C76.6544 244.332 76.8726 244.175 77.018 243.873C77.1635 243.571 77.2362 243.071 77.2362 242.394C77.2362 241.717 77.1635 241.228 77.018 240.926C76.8726 240.613 76.6544 240.467 76.374 240.467ZM76.374 241.936C76.509 241.936 76.6129 241.978 76.7064 242.071C76.7999 242.165 76.8414 242.269 76.8414 242.394C76.8414 242.519 76.7999 242.634 76.7064 242.728C76.6129 242.821 76.509 242.863 76.374 242.863C76.2389 242.863 76.135 242.821 76.0415 242.728C75.9584 242.634 75.9169 242.53 75.9169 242.394C75.9169 242.259 75.9584 242.155 76.0415 242.071C76.135 241.978 76.2389 241.936 76.374 241.936ZM80.6123 239.863C81.1525 239.863 81.5681 240.082 81.8485 240.519C82.129 240.957 82.2744 241.582 82.2744 242.394C82.2744 243.207 82.129 243.842 81.8485 244.28C81.5681 244.717 81.1525 244.936 80.6123 244.936C80.0722 244.936 79.6566 244.717 79.3762 244.28C79.0957 243.842 78.9502 243.217 78.9502 242.394C78.9502 241.571 79.0957 240.957 79.3762 240.519C79.6566 240.082 80.0722 239.863 80.6123 239.863ZM80.6123 240.467C80.3319 240.467 80.1137 240.624 79.9683 240.926C79.8228 241.228 79.7501 241.717 79.7501 242.394C79.7501 243.071 79.8228 243.571 79.9683 243.873C80.1137 244.175 80.3319 244.332 80.6123 244.332C80.8928 244.332 81.111 244.175 81.2564 243.873C81.4018 243.571 81.4746 243.071 81.4746 242.394C81.4746 241.717 81.4018 241.228 81.2564 240.926C81.111 240.613 80.8928 240.467 80.6123 240.467ZM80.6123 241.936C80.7474 241.936 80.8513 241.978 80.9448 242.071C81.0383 242.165 81.0798 242.269 81.0798 242.394C81.0798 242.519 81.0383 242.634 80.9448 242.728C80.8513 242.821 80.7474 242.863 80.6123 242.863C80.4773 242.863 80.3734 242.821 80.2799 242.728C80.1968 242.634 80.1553 242.53 80.1553 242.394C80.1553 242.259 80.1968 242.155 80.2799 242.071C80.3734 241.978 80.4773 241.936 80.6123 241.936ZM86.5336 240.061L83.5418 244.998L83.0847 244.748L86.0765 239.811L86.5336 240.061ZM83.8431 239.863C84.1547 239.863 84.404 239.967 84.591 240.186C84.778 240.394 84.8715 240.665 84.8715 240.988C84.8715 241.311 84.778 241.582 84.591 241.801C84.404 242.009 84.1547 242.123 83.8431 242.123C83.5314 242.123 83.2717 242.019 83.0847 241.801C82.8977 241.582 82.8146 241.311 82.8146 240.988C82.8146 240.665 82.9081 240.405 83.0847 240.186C83.2717 239.967 83.521 239.863 83.8431 239.863ZM83.8431 240.332C83.708 240.332 83.6041 240.384 83.5314 240.499C83.4587 240.603 83.4275 240.769 83.4275 240.978C83.4275 241.186 83.4587 241.353 83.5314 241.467C83.6041 241.582 83.708 241.644 83.8431 241.644C83.9781 241.644 84.0716 241.592 84.1443 241.478C84.217 241.363 84.2482 241.196 84.2482 240.978C84.2482 240.54 84.1132 240.332 83.8431 240.332ZM85.848 242.623C86.1596 242.623 86.4089 242.728 86.5959 242.946C86.7829 243.155 86.866 243.425 86.866 243.759C86.866 244.092 86.7725 244.352 86.5959 244.571C86.4089 244.779 86.1596 244.894 85.848 244.894C85.5363 244.894 85.2766 244.79 85.0896 244.571C84.9027 244.352 84.8196 244.082 84.8196 243.759C84.8196 243.436 84.913 243.175 85.0896 242.957C85.2766 242.738 85.5259 242.634 85.848 242.634V242.623ZM85.848 243.103C85.5675 243.103 85.4324 243.321 85.4324 243.748C85.4324 243.957 85.4636 244.123 85.5363 244.248C85.609 244.363 85.7129 244.415 85.848 244.415C86.1181 244.415 86.2531 244.196 86.2531 243.748C86.2531 243.3 86.1181 243.103 85.848 243.103Z" fill="#3F4C59"/>
<path d="M288.739 376.538C288.968 376.538 289.155 376.621 289.279 376.778C289.414 376.934 289.477 377.215 289.477 377.601V380.371H288.781V377.705C288.781 377.496 288.76 377.351 288.729 377.267C288.698 377.184 288.635 377.142 288.531 377.142C288.334 377.142 288.147 377.267 287.981 377.517V380.361H287.337V377.694C287.337 377.486 287.316 377.34 287.285 377.257C287.254 377.174 287.191 377.132 287.088 377.132C286.89 377.132 286.703 377.257 286.537 377.507V380.35H285.831V376.611H286.423L286.475 377.017C286.589 376.851 286.714 376.726 286.838 376.642C286.963 376.559 287.108 376.517 287.275 376.517C287.607 376.517 287.815 376.674 287.908 376.996C288.022 376.84 288.147 376.726 288.272 376.653C288.407 376.569 288.552 376.528 288.718 376.528L288.739 376.538ZM291.897 376.538C292.437 376.538 292.853 376.715 293.144 377.069C293.435 377.413 293.58 377.892 293.58 378.496C293.58 379.1 293.435 379.58 293.133 379.934C292.832 380.288 292.427 380.465 291.887 380.465C291.347 380.465 290.931 380.288 290.64 379.944C290.349 379.6 290.204 379.111 290.204 378.496C290.204 377.882 290.349 377.423 290.651 377.069C290.952 376.705 291.367 376.528 291.897 376.528V376.538ZM291.897 377.153C291.606 377.153 291.388 377.267 291.253 377.486C291.108 377.705 291.045 378.048 291.045 378.507C291.045 378.965 291.118 379.309 291.253 379.538C291.388 379.757 291.606 379.861 291.897 379.861C292.188 379.861 292.396 379.746 292.541 379.527C292.687 379.309 292.749 378.965 292.749 378.507C292.749 378.048 292.676 377.715 292.541 377.496C292.396 377.278 292.188 377.163 291.908 377.163L291.897 377.153ZM294.64 376.632H295.325L295.377 377.121C295.533 376.934 295.71 376.788 295.917 376.694C296.125 376.59 296.354 376.538 296.582 376.538C296.925 376.538 297.185 376.632 297.361 376.83C297.538 377.028 297.621 377.298 297.621 377.653V380.382H296.832V378.048C296.832 377.819 296.821 377.642 296.79 377.517C296.769 377.392 296.717 377.298 296.645 377.246C296.572 377.184 296.458 377.153 296.302 377.153C296.136 377.153 295.969 377.205 295.814 377.309C295.668 377.413 295.533 377.538 295.429 377.694V380.382H294.64V376.642V376.632ZM301.984 380.173C301.839 380.267 301.673 380.329 301.486 380.382C301.299 380.434 301.101 380.465 300.893 380.465C300.467 380.465 300.145 380.35 299.917 380.142C299.688 379.923 299.574 379.621 299.574 379.246V377.226H298.743V376.642H299.574V375.809L300.364 375.715V376.642H301.631L301.537 377.226H300.364V379.246C300.364 379.455 300.416 379.6 300.519 379.705C300.623 379.798 300.79 379.85 301.018 379.85C301.267 379.85 301.496 379.788 301.714 379.673L301.995 380.194L301.984 380.173ZM303.896 377.09C304.041 376.903 304.218 376.767 304.415 376.674C304.623 376.58 304.831 376.528 305.049 376.528C305.391 376.528 305.651 376.621 305.828 376.819C306.004 377.007 306.087 377.278 306.087 377.642V380.371H305.298V377.767C305.298 377.548 305.256 377.392 305.173 377.288C305.09 377.184 304.955 377.142 304.768 377.142C304.602 377.142 304.446 377.194 304.29 377.309C304.145 377.413 304.01 377.538 303.906 377.694V380.371H303.116V375.142L303.906 375.059V377.101L303.896 377.09ZM314.741 379.246H314.159V380.371H313.401V379.246H311.385V378.694L312.788 375.392L313.453 375.653L312.217 378.632H313.411L313.494 377.33H314.169V378.632H314.751V379.246H314.741Z" fill="#3F4C59"/>
<path d="M424.273 376.538C424.502 376.538 424.689 376.621 424.814 376.778C424.949 376.934 425.011 377.215 425.011 377.601V380.371H424.315V377.705C424.315 377.496 424.294 377.351 424.263 377.267C424.232 377.184 424.17 377.142 424.066 377.142C423.868 377.142 423.681 377.267 423.515 377.517V380.361H422.871V377.694C422.871 377.486 422.85 377.34 422.819 377.257C422.788 377.174 422.726 377.132 422.622 377.132C422.424 377.132 422.237 377.257 422.071 377.507V380.35H421.365V376.611H421.957L422.009 377.017C422.123 376.851 422.248 376.726 422.372 376.642C422.497 376.559 422.643 376.517 422.809 376.517C423.141 376.517 423.349 376.674 423.442 376.996C423.557 376.84 423.681 376.726 423.806 376.653C423.941 376.569 424.086 376.528 424.253 376.528L424.273 376.538ZM427.442 376.538C427.982 376.538 428.398 376.715 428.688 377.069C428.979 377.413 429.125 377.892 429.125 378.496C429.125 379.1 428.979 379.58 428.678 379.934C428.377 380.288 427.972 380.465 427.431 380.465C426.891 380.465 426.476 380.288 426.185 379.944C425.894 379.6 425.749 379.111 425.749 378.496C425.749 377.882 425.894 377.423 426.195 377.069C426.496 376.705 426.912 376.528 427.442 376.528V376.538ZM427.442 377.153C427.151 377.153 426.943 377.267 426.798 377.486C426.652 377.705 426.59 378.048 426.59 378.507C426.59 378.965 426.663 379.309 426.798 379.538C426.943 379.757 427.151 379.861 427.442 379.861C427.733 379.861 427.94 379.746 428.086 379.527C428.231 379.309 428.294 378.965 428.294 378.507C428.294 378.048 428.221 377.715 428.086 377.496C427.94 377.278 427.733 377.163 427.452 377.163L427.442 377.153ZM430.174 376.632H430.86L430.911 377.121C431.067 376.934 431.244 376.788 431.452 376.694C431.659 376.59 431.888 376.538 432.117 376.538C432.459 376.538 432.719 376.632 432.896 376.83C433.072 377.028 433.155 377.298 433.155 377.653V380.382H432.366V378.048C432.366 377.819 432.355 377.642 432.324 377.517C432.304 377.392 432.252 377.298 432.179 377.246C432.106 377.184 431.992 377.153 431.836 377.153C431.67 377.153 431.504 377.205 431.348 377.309C431.192 377.413 431.067 377.538 430.963 377.694V380.382H430.174V376.642V376.632ZM437.518 380.173C437.373 380.267 437.217 380.329 437.02 380.382C436.833 380.434 436.635 380.465 436.428 380.465C436.002 380.465 435.68 380.35 435.441 380.142C435.212 379.923 435.098 379.621 435.098 379.246V377.226H434.267V376.642H435.098V375.809L435.887 375.715V376.642H437.155L437.061 377.226H435.887V379.246C435.887 379.455 435.939 379.6 436.043 379.705C436.147 379.798 436.313 379.85 436.542 379.85C436.791 379.85 437.02 379.788 437.238 379.673L437.518 380.194V380.173ZM439.43 377.09C439.586 376.903 439.752 376.767 439.949 376.674C440.147 376.58 440.365 376.528 440.583 376.528C440.926 376.528 441.185 376.621 441.362 376.819C441.539 377.007 441.622 377.278 441.622 377.642V380.371H440.832V377.767C440.832 377.548 440.791 377.392 440.708 377.288C440.624 377.184 440.489 377.142 440.302 377.142C440.136 377.142 439.98 377.194 439.825 377.309C439.679 377.413 439.544 377.538 439.44 377.694V380.371H438.651V375.142L439.44 375.059V377.101L439.43 377.09ZM448.893 377.153C449.153 377.153 449.382 377.215 449.589 377.33C449.797 377.444 449.963 377.621 450.088 377.861C450.213 378.101 450.275 378.382 450.275 378.715C450.275 379.048 450.202 379.361 450.067 379.632C449.932 379.892 449.735 380.1 449.496 380.246C449.257 380.392 448.977 380.454 448.665 380.454C448.083 380.454 447.657 380.246 447.377 379.819C447.107 379.392 446.972 378.819 446.972 378.08C446.972 377.538 447.044 377.059 447.2 376.653C447.356 376.247 447.574 375.924 447.875 375.705C448.166 375.476 448.509 375.361 448.904 375.361C449.278 375.361 449.61 375.465 449.901 375.663L449.6 376.174C449.382 376.038 449.153 375.965 448.904 375.965C448.571 375.965 448.312 376.122 448.114 376.434C447.917 376.736 447.813 377.163 447.792 377.705C448.083 377.319 448.447 377.132 448.904 377.132L448.893 377.153ZM448.665 379.861C448.925 379.861 449.132 379.757 449.267 379.559C449.402 379.361 449.475 379.09 449.475 378.757C449.475 378.08 449.226 377.746 448.738 377.746C448.551 377.746 448.374 377.798 448.208 377.903C448.052 378.007 447.907 378.142 447.792 378.319C447.803 378.85 447.875 379.246 448.01 379.496C448.145 379.746 448.374 379.861 448.675 379.861H448.665Z" fill="#3F4C59"/>
<path fill-rule="evenodd" clip-rule="evenodd" d="M159.105 238.832H91.1976V271.34H159.105V238.832ZM90.9587 238.353V238.593H90.7197V372.153H91.1976V372.101H159.105V372.153H159.583V372.101H227.542V372.153H228.02V372.101H295.969V372.153H296.447V372.101H364.396V372.153H364.874V372.101H432.833V372.153H433.311V372.101H504.844V371.622H433.311V337.792H504.844V337.313H433.311V304.805H504.844V304.326H433.311V271.819H504.803V271.34H433.311V238.832H504.844V238.353H90.9587ZM295.959 371.622H228.01V337.792H295.959V371.622ZM227.532 371.622V337.792H159.573V371.622H227.532ZM295.959 337.313H228.01V304.805H295.959V337.313ZM227.532 337.313V304.805H159.573V337.313H227.532ZM295.959 304.326H228.01V271.819H295.959V304.326ZM227.532 304.326V271.819H159.573V304.326H227.532ZM295.959 271.34H228.01V238.832H295.959V271.34ZM227.532 271.34V238.832H159.573V271.34H227.532ZM432.823 238.832H364.864V271.34H432.823V238.832ZM432.823 271.819H364.864V304.326H432.823V271.819ZM432.823 304.805H364.864V337.313H432.823V304.805ZM432.823 337.792H364.864V371.622H432.823V337.792ZM364.396 337.792V371.622H296.447V337.792H364.396ZM364.396 304.805V337.313H296.447V304.805H364.396ZM364.396 271.819V304.326H296.447V271.819H364.396ZM364.396 238.832V271.34H296.447V238.832H364.396ZM159.105 371.622H91.1976V337.792H159.105V371.622ZM159.105 337.313H91.1976V304.805H159.105V337.313ZM159.105 304.326H91.1976V271.819H159.105V304.326ZM505.208 238.593V372.153H505.686V238.593H505.208Z" fill="#CBD2D9"/>
<path d="M91.5508 239.582L159.656 273.225L218.671 284.151L277.499 273.266L327.757 300.753L395.727 268.684L505.395 257.226" stroke="#D95D35" stroke-width="2.55" stroke-linecap="round" stroke-linejoin="round"/>
<path d="M90.0757 284.12L133.488 332.657L220.406 321.533L262.945 309.471L307.365 346.437L345.697 324.762L402.105 338.667L444.177 297.879L504.74 239.467" stroke="#D95D35" stroke-width="2.55" stroke-linecap="round" stroke-linejoin="round"/>
<path d="M92.0391 305.378L206.652 265.121L312.341 330.49L504.512 275.1" stroke="#F8E0D7" stroke-width="2.55" stroke-linecap="round" stroke-linejoin="round"/>
<g filter="url(#filter2_d_3416_8441)">
<path d="M518.089 67.2021H365.04C360.852 67.2021 357.457 70.6063 357.457 74.8056V183.983C357.457 188.182 360.852 191.586 365.04 191.586H518.089C522.277 191.586 525.673 188.182 525.673 183.983V74.8056C525.673 70.6063 522.277 67.2021 518.089 67.2021Z" fill="#FFFFFA" stroke="#D2D2D1" stroke-miterlimit="10"/>
<path d="M367.305 76.5867L412.234 77.0137C412.899 77.0137 413.439 77.5657 413.429 78.2323C413.429 78.899 412.878 79.4406 412.203 79.4302L367.274 79.0031C366.609 79.0031 366.069 78.4511 366.079 77.7845C366.079 77.1179 366.63 76.5762 367.305 76.5867Z" fill="#F3D7B9"/>
<path d="M479.56 132.3L479.871 131.967C480.131 132.3 480.567 132.529 481.076 132.54C481.7 132.54 482.084 132.227 482.084 131.738C482.084 131.196 481.637 130.977 481.014 130.977C480.827 130.977 480.63 130.977 480.578 130.977V130.488C480.65 130.488 480.848 130.488 481.024 130.488C481.575 130.488 482.022 130.28 482.022 129.78C482.022 129.301 481.585 129.04 481.066 129.04C480.588 129.04 480.245 129.217 479.934 129.561L479.632 129.228C479.944 128.853 480.432 128.561 481.108 128.561C481.939 128.561 482.562 128.988 482.562 129.707C482.562 130.332 482.042 130.644 481.627 130.717C482.022 130.759 482.624 131.082 482.624 131.79C482.624 132.509 482.042 133.04 481.087 133.04C480.36 133.04 479.819 132.717 479.549 132.321V132.3H479.56Z" fill="#676767"/>
<path d="M483.32 130.78C483.32 129.717 483.788 128.551 484.972 128.551C486.146 128.551 486.624 129.728 486.613 130.79C486.613 131.842 486.135 133.019 484.962 133.019C483.777 133.019 483.32 131.832 483.32 130.78ZM486.063 130.78C486.063 129.915 485.782 129.03 484.962 129.03C484.131 129.03 483.86 129.915 483.86 130.78C483.86 131.644 484.141 132.529 484.962 132.54C485.793 132.54 486.063 131.655 486.063 130.79V130.78Z" fill="#676767"/>
<path d="M487.776 132.946L490.54 128.624H490.903L488.14 132.956H487.787H487.776V132.946ZM487.153 129.634C487.153 129.019 487.579 128.561 488.192 128.561C488.805 128.561 489.241 129.019 489.231 129.634C489.231 130.228 488.815 130.686 488.182 130.696C487.569 130.696 487.132 130.238 487.143 129.644L487.153 129.634ZM488.857 129.634C488.857 129.207 488.597 128.894 488.202 128.884C487.818 128.884 487.548 129.207 487.548 129.623C487.548 130.03 487.818 130.353 488.202 130.353C488.587 130.353 488.857 130.03 488.846 129.623L488.857 129.634ZM489.407 131.967C489.407 131.363 489.833 130.894 490.446 130.894C491.059 130.894 491.485 131.363 491.475 131.957C491.475 132.561 491.049 133.019 490.436 133.019C489.823 133.019 489.397 132.561 489.397 131.957L489.407 131.967ZM491.101 131.967C491.101 131.55 490.841 131.227 490.457 131.227C490.062 131.227 489.802 131.55 489.802 131.967C489.802 132.384 490.062 132.696 490.457 132.706C490.841 132.706 491.111 132.384 491.111 131.977H491.101V131.967Z" fill="#676767"/>
<path d="M406.177 166.62V165.526H404.131V165.079L405.98 162.298H406.718V165.058H407.32V165.537H406.718V166.63H406.177V166.62ZM406.177 162.797L404.661 165.047H406.177V162.797Z" fill="#676767"/>
<path d="M407.892 166.62V166.193C409.439 164.985 410.281 164.256 410.291 163.506C410.291 162.943 409.824 162.714 409.388 162.714C408.878 162.714 408.473 162.933 408.214 163.266L407.892 162.922C408.224 162.485 408.785 162.245 409.388 162.245C410.104 162.245 410.842 162.662 410.831 163.527C410.831 164.412 409.938 165.214 408.733 166.162H410.852V166.641H407.892V166.61V166.62Z" fill="#676767"/>
<path d="M412.171 166.63L414.935 162.308H415.298L412.535 166.641H412.171V166.63ZM411.548 163.318C411.548 162.704 411.974 162.245 412.587 162.245C413.2 162.245 413.636 162.704 413.626 163.318C413.626 163.912 413.21 164.37 412.577 164.381C411.964 164.381 411.527 163.922 411.538 163.329L411.548 163.318ZM413.241 163.329C413.241 162.902 412.982 162.589 412.587 162.579C412.203 162.579 411.933 162.902 411.933 163.318C411.933 163.724 412.203 164.047 412.587 164.047C412.971 164.047 413.241 163.724 413.241 163.318V163.329ZM413.792 165.651C413.792 165.047 414.218 164.589 414.831 164.579C415.444 164.579 415.87 165.047 415.859 165.641C415.859 166.245 415.444 166.703 414.82 166.703C414.197 166.703 413.771 166.245 413.782 165.641L413.792 165.651ZM415.496 165.662C415.496 165.245 415.236 164.922 414.852 164.922C414.457 164.922 414.197 165.235 414.197 165.662C414.197 166.078 414.457 166.391 414.852 166.391C415.236 166.391 415.506 166.078 415.506 165.662H415.496Z" fill="#676767"/>
<path d="M418.353 93.3976L418.664 93.0643C418.924 93.3976 419.36 93.6268 419.869 93.6372C420.493 93.6372 420.877 93.3247 420.877 92.8352C420.877 92.2936 420.43 92.0748 419.807 92.0748C419.62 92.0748 419.423 92.0748 419.371 92.0748V91.5853C419.443 91.5853 419.641 91.5853 419.817 91.5853C420.368 91.5853 420.815 91.377 420.815 90.877C420.815 90.3979 420.378 90.1375 419.859 90.1375C419.381 90.1375 419.038 90.3146 418.727 90.6583L418.436 90.3146C418.747 89.9396 419.236 89.648 419.911 89.648C420.742 89.648 421.365 90.075 421.365 90.7937C421.365 91.4186 420.835 91.7311 420.43 91.804C420.825 91.8457 421.428 92.179 421.428 92.8768C421.428 93.5955 420.846 94.1267 419.901 94.1163C419.173 94.1163 418.633 93.7934 418.363 93.3976L418.342 93.3768L418.353 93.3976Z" fill="#676767"/>
<path d="M422.103 91.8769C422.103 90.8145 422.57 89.648 423.754 89.648C424.928 89.648 425.406 90.8249 425.396 91.8873C425.396 92.9393 424.918 94.1163 423.744 94.1163C422.56 94.1163 422.103 92.9289 422.103 91.8769ZM424.855 91.8769C424.855 91.0124 424.575 90.1271 423.754 90.1271C422.923 90.1271 422.653 91.0124 422.653 91.8769C422.653 92.7414 422.934 93.6268 423.754 93.6372C424.575 93.6476 424.855 92.7518 424.855 91.8873V91.8769Z" fill="#676767"/>
<path d="M426.549 94.033L429.312 89.7105H429.676L426.902 94.0434H426.549V94.033ZM425.926 90.7104C425.926 90.0958 426.352 89.6375 426.964 89.6375C427.577 89.6375 428.014 90.0958 428.003 90.7104C428.003 91.3041 427.588 91.7623 426.954 91.7728C426.341 91.7728 425.905 91.3145 425.915 90.7208L425.926 90.7104ZM427.629 90.7208C427.629 90.2937 427.37 89.9813 426.975 89.9708C426.59 89.9708 426.32 90.2937 426.32 90.7104C426.32 91.1166 426.59 91.4395 426.975 91.4395C427.359 91.4395 427.629 91.1166 427.619 90.7104L427.629 90.7208ZM428.18 93.0539C428.18 92.4498 428.606 91.9811 429.219 91.9811C429.832 91.9811 430.257 92.4498 430.247 93.0539C430.247 93.658 429.821 94.1163 429.208 94.1163C428.595 94.1163 428.169 93.658 428.169 93.0539H428.18ZM429.884 93.0539C429.884 92.6373 429.624 92.3144 429.239 92.3144C428.845 92.3144 428.585 92.6268 428.585 93.0539C428.585 93.4705 428.845 93.783 429.239 93.7934C429.624 93.7934 429.894 93.4705 429.894 93.0643H429.884V93.0539Z" fill="#676767"/>
<path d="M464.954 151.184L454.535 141.956C452.821 143.903 450.307 145.143 447.502 145.132C442.318 145.132 438.132 140.914 438.142 135.727C438.142 135.071 438.204 134.446 438.34 133.831L424.721 131.009L416.098 129.217C415.662 131.311 415.444 133.488 415.434 135.696C415.413 153.455 429.769 167.87 447.481 167.891C457.059 167.891 465.66 163.693 471.54 157.027L464.944 151.184H464.954Z" fill="#F97149"/>
<path d="M458.492 115.156L451.938 127.447C454.888 129.03 456.893 132.154 456.882 135.737C456.882 138.123 455.989 140.289 454.524 141.945L464.944 151.174C468.579 147.059 470.782 141.664 470.782 135.737C470.792 126.822 465.806 119.072 458.492 115.135V115.156Z" fill="#F3DFCF"/>
<path d="M447.554 96.0745C428.45 96.0536 412.483 109.636 408.764 127.697L416.088 129.217L424.71 131.009L438.329 133.831C439.202 129.551 442.993 126.332 447.522 126.342C449.112 126.342 450.628 126.749 451.937 127.457L458.492 115.166L462.648 107.386L466.18 100.772C460.632 97.793 454.285 96.0849 447.543 96.0745H447.554Z" fill="#FB5F2F"/>
<path opacity="0.76" d="M453.558 135.737C453.558 137.279 452.976 138.675 452.042 139.737L454.535 141.945C455.999 140.289 456.893 138.112 456.893 135.737C456.893 132.144 454.898 129.03 451.948 127.447L450.379 130.394C452.28 131.415 453.569 133.425 453.569 135.748L453.558 135.737Z" fill="#D1D1CF"/>
<path opacity="0.76" d="M447.512 129.665C448.551 129.665 449.517 129.925 450.358 130.373L451.927 127.426C450.618 126.717 449.101 126.311 447.512 126.311C442.983 126.311 439.201 129.519 438.318 133.8L441.58 134.477C442.141 131.717 444.582 129.644 447.501 129.644L447.512 129.665Z" fill="#D1D1CF"/>
<path d="M447.501 145.132C450.306 145.132 452.799 143.903 454.534 141.956L452.041 139.748C450.93 140.997 449.319 141.799 447.512 141.799C444.167 141.799 441.466 139.081 441.466 135.737C441.466 135.321 441.507 134.915 441.591 134.508L438.329 133.831C438.204 134.446 438.142 135.071 438.131 135.727C438.131 140.924 442.318 145.132 447.491 145.132H447.501Z" fill="#D3753D"/>
<path opacity="0.76" d="M447.501 145.132C450.306 145.132 452.799 143.903 454.534 141.956L452.041 139.748C450.93 140.997 449.319 141.799 447.512 141.799C444.167 141.799 441.466 139.081 441.466 135.737C441.466 135.321 441.507 134.915 441.591 134.508L438.329 133.831C438.204 134.446 438.142 135.071 438.131 135.727C438.131 140.924 442.318 145.132 447.491 145.132H447.501Z" fill="#D1D1CF"/>
<path d="M450.369 130.394C449.527 129.946 448.551 129.676 447.522 129.686C444.603 129.686 442.162 131.759 441.601 134.519L447.522 135.748L450.369 130.405V130.394Z" fill="white"/>
<path d="M450.369 130.394L447.522 135.737L452.052 139.747C452.987 138.685 453.568 137.279 453.568 135.748C453.568 133.436 452.28 131.415 450.379 130.394H450.369Z" fill="white"/>
<path d="M398.958 181.108H396.257V183.816H398.958V181.108Z" fill="#B87F3C"/>
<path d="M429.904 181.119H427.203V183.827H429.904V181.119Z" fill="#3D2C1F"/>
<path d="M459.552 181.16H456.851V183.868H459.552V181.16Z" fill="#F3DFCF"/>
<path d="M400.38 181.978L400.368 183.551L417.976 183.68L417.987 182.108L400.38 181.978Z" fill="#EFE5DC"/>
<path d="M430.979 181.811L430.967 183.384L448.575 183.513L448.586 181.941L430.979 181.811Z" fill="#EFE5DC"/>
<path d="M460.521 181.864L460.51 183.437L478.117 183.567L478.129 181.994L460.521 181.864Z" fill="#EFE5DC"/>
</g>
<path d="M300.748 152.351H321.067" stroke="#45312A" stroke-miterlimit="10"/>
<path d="M310.908 156.933H331.237" stroke="#45312A" stroke-miterlimit="10"/>
<defs>
<filter id="filter0_d_3416_8441" x="6.32748" y="6.42981" width="383.007" height="273.396" filterUnits="userSpaceOnUse" color-interpolation-filters="sRGB">
<feFlood flood-opacity="0" result="BackgroundImageFix"/>
<feColorMatrix in="SourceAlpha" type="matrix" values="0 0 0 0 0 0 0 0 0 0 0 0 0 0 0 0 0 0 127 0" result="hardAlpha"/>
<feOffset dx="7" dy="7"/>
<feGaussianBlur stdDeviation="5.67"/>
<feColorMatrix type="matrix" values="0 0 0 0 0.133333 0 0 0 0 0.121569 0 0 0 0 0.12549 0 0 0 0.1 0"/>
<feBlend mode="normal" in2="BackgroundImageFix" result="effect1_dropShadow_3416_8441"/>
<feBlend mode="normal" in="SourceGraphic" in2="effect1_dropShadow_3416_8441" result="shape"/>
</filter>
<filter id="filter1_d_3416_8441" x="32.8704" y="142.886" width="522.486" height="301.081" filterUnits="userSpaceOnUse" color-interpolation-filters="sRGB">
<feFlood flood-opacity="0" result="BackgroundImageFix"/>
<feColorMatrix in="SourceAlpha" type="matrix" values="0 0 0 0 0 0 0 0 0 0 0 0 0 0 0 0 0 0 127 0" result="hardAlpha"/>
<feOffset dx="7" dy="7"/>
<feGaussianBlur stdDeviation="5.67"/>
<feColorMatrix type="matrix" values="0 0 0 0 0.133333 0 0 0 0 0.121569 0 0 0 0 0.12549 0 0 0 0.1 0"/>
<feBlend mode="normal" in2="BackgroundImageFix" result="effect1_dropShadow_3416_8441"/>
<feBlend mode="normal" in="SourceGraphic" in2="effect1_dropShadow_3416_8441" result="shape"/>
</filter>
<filter id="filter2_d_3416_8441" x="352.617" y="62.3621" width="191.896" height="148.064" filterUnits="userSpaceOnUse" color-interpolation-filters="sRGB">
<feFlood flood-opacity="0" result="BackgroundImageFix"/>
<feColorMatrix in="SourceAlpha" type="matrix" values="0 0 0 0 0 0 0 0 0 0 0 0 0 0 0 0 0 0 127 0" result="hardAlpha"/>
<feOffset dx="7" dy="7"/>
<feGaussianBlur stdDeviation="5.67"/>
<feColorMatrix type="matrix" values="0 0 0 0 0.133333 0 0 0 0 0.121569 0 0 0 0 0.12549 0 0 0 0.1 0"/>
<feBlend mode="normal" in2="BackgroundImageFix" result="effect1_dropShadow_3416_8441"/>
<feBlend mode="normal" in="SourceGraphic" in2="effect1_dropShadow_3416_8441" result="shape"/>
</filter>
<linearGradient id="paint0_linear_3416_8441" x1="88.3118" y1="93.5827" x2="99.3556" y2="88.3318" gradientUnits="userSpaceOnUse">
<stop offset="0.32" stop-color="#C8463A" stop-opacity="0"/>
<stop offset="0.54" stop-color="#CC5952" stop-opacity="0.35"/>
<stop offset="0.76" stop-color="#D2726E" stop-opacity="0.7"/>
<stop offset="0.92" stop-color="#D58481" stop-opacity="0.92"/>
<stop offset="1" stop-color="#D78988"/>
</linearGradient>
<linearGradient id="paint1_linear_3416_8441" x1="97.5232" y1="80.8626" x2="108.425" y2="75.6824" gradientUnits="userSpaceOnUse">
<stop offset="0.32" stop-color="#C8463A" stop-opacity="0"/>
<stop offset="0.54" stop-color="#CC5952" stop-opacity="0.35"/>
<stop offset="0.76" stop-color="#D2726E" stop-opacity="0.7"/>
<stop offset="0.92" stop-color="#D58481" stop-opacity="0.92"/>
<stop offset="1" stop-color="#D78988"/>
</linearGradient>
<linearGradient id="paint2_linear_3416_8441" x1="193.851" y1="93.5804" x2="204.905" y2="88.329" gradientUnits="userSpaceOnUse">
<stop offset="0.32" stop-color="#C8463A" stop-opacity="0"/>
<stop offset="0.54" stop-color="#CC5952" stop-opacity="0.35"/>
<stop offset="0.76" stop-color="#D2726E" stop-opacity="0.7"/>
<stop offset="0.92" stop-color="#D58481" stop-opacity="0.92"/>
<stop offset="1" stop-color="#D78988"/>
</linearGradient>
<linearGradient id="paint3_linear_3416_8441" x1="203.063" y1="80.8604" x2="213.965" y2="75.6905" gradientUnits="userSpaceOnUse">
<stop offset="0.32" stop-color="#C8463A" stop-opacity="0"/>
<stop offset="0.54" stop-color="#CC5952" stop-opacity="0.35"/>
<stop offset="0.76" stop-color="#D2726E" stop-opacity="0.7"/>
<stop offset="0.92" stop-color="#D58481" stop-opacity="0.92"/>
<stop offset="1" stop-color="#D78988"/>
</linearGradient>
<linearGradient id="paint4_linear_3416_8441" x1="299.401" y1="93.588" x2="310.445" y2="88.3371" gradientUnits="userSpaceOnUse">
<stop offset="0.32" stop-color="#C8463A" stop-opacity="0"/>
<stop offset="0.54" stop-color="#CC5952" stop-opacity="0.35"/>
<stop offset="0.76" stop-color="#D2726E" stop-opacity="0.7"/>
<stop offset="0.92" stop-color="#D58481" stop-opacity="0.92"/>
<stop offset="1" stop-color="#D78988"/>
</linearGradient>
<linearGradient id="paint5_linear_3416_8441" x1="308.613" y1="80.8679" x2="319.505" y2="75.6883" gradientUnits="userSpaceOnUse">
<stop offset="0.32" stop-color="#C8463A" stop-opacity="0"/>
<stop offset="0.54" stop-color="#CC5952" stop-opacity="0.35"/>
<stop offset="0.76" stop-color="#D2726E" stop-opacity="0.7"/>
<stop offset="0.92" stop-color="#D58481" stop-opacity="0.92"/>
<stop offset="1" stop-color="#D78988"/>
</linearGradient>
</defs>
</svg>
