<svg width="18" height="13" viewBox="0 0 18 13" fill="none" xmlns="http://www.w3.org/2000/svg">
<path d="M17.7011 2.8086C17.7011 2.8086 17.5306 1.6385 17.0058 1.1247C16.3413 0.448249 15.5987 0.445076 15.2578 0.405118C12.8181 0.23291 9.15455 0.23291 9.15455 0.23291H9.14803C9.14803 0.23291 5.48486 0.23291 3.04481 0.405118C2.70422 0.445076 1.96126 0.448249 1.29682 1.1247C0.771948 1.6385 0.60475 2.8086 0.60475 2.8086C0.60475 2.8086 0.427734 4.18449 0.427734 5.55685V6.84293C0.427734 8.21565 0.601489 9.59118 0.601489 9.59118C0.601489 9.59118 0.771945 10.7616 1.29318 11.2754C1.95762 11.9515 2.82998 11.9285 3.21854 12.0014C4.61576 12.1308 9.15129 12.1704 9.15129 12.1704C9.15129 12.1704 12.8181 12.1637 15.2578 11.9947C15.5987 11.9551 16.3413 11.9515 17.0058 11.2754C17.5306 10.7616 17.7011 9.59118 17.7011 9.59118C17.7011 9.59118 17.8748 8.21883 17.8748 6.84293V5.55685C17.8748 4.18449 17.7011 2.8086 17.7011 2.8086ZM7.34879 8.40446V3.63392L12.0613 6.0275L7.34879 8.40446Z" fill="white" fill-opacity="0.8"/>
</svg>
