<?xml version="1.0" encoding="UTF-8"?><svg id="a" xmlns="http://www.w3.org/2000/svg" width="91.47" height="110.12" viewBox="0 0 91.47 110.12"><path d="M69.11,64.48s0,0,0,0c.48-.6.94-1.22,1.37-1.85.05-.07.1-.14.15-.22,3.27-4.89,5.04-10.71,5.04-16.64,0-16.51-13.43-29.94-29.94-29.94s-29.94,13.43-29.94,29.94c0,5.93,1.78,11.75,5.04,16.64.05.07.1.15.15.22.43.63.89,1.25,1.37,1.85,0,0,0,0,0,0,2.97,4.18,6.34,10.05,6.33,12.95h0c.67,3.47,3.71,5.98,7.25,5.98h19.58c3.54,0,6.57-2.51,7.25-5.98h0" style="fill:none; stroke:#380000; stroke-linecap:round; stroke-linejoin:round; stroke-width:1.75px;"/><path d="M22.36,64.48s0,0,0,0c-.48-.6-.94-1.22-1.37-1.85-.05-.07-.1-.14-.15-.22-3.27-4.89-5.04-10.71-5.04-16.64,0-16.51,13.43-29.94,29.94-29.94s29.94,13.43,29.94,29.94c0,5.93-1.78,11.75-5.04,16.64-.05.07-.1.15-.15.22-.43.63-.89,1.25-1.37,1.85,0,0,0,0,0,0-2.97,4.18-6.34,10.05-6.33,12.95h0c-.67,3.47-3.71,5.98-7.25,5.98h-19.58c-3.54,0-6.57-2.51-7.25-5.98h0" style="fill:none; stroke:#380000; stroke-linecap:round; stroke-linejoin:round; stroke-width:1.75px;"/><path d="M35.29,89.04h20.9c1.82,0,3.29,1.47,3.29,3.29v2.91c0,7.73-6.17,14-13.75,14s-13.7-6.23-13.74-13.91c0-.03,0-.06,0-.09v-2.91c0-1.82,1.47-3.29,3.29-3.29" style="fill:none; stroke:#380000; stroke-linecap:round; stroke-linejoin:round; stroke-width:1.75px;"/><line x1="45.74" y1="6.98" x2="45.74" y2=".88" style="fill:none; stroke:#ff1300; stroke-linecap:round; stroke-linejoin:round; stroke-width:1.75px;"/><line x1="25.57" y1="12.38" x2="22.62" y2="7.28" style="fill:none; stroke:#ff1300; stroke-linecap:round; stroke-linejoin:round; stroke-width:1.75px;"/><line x1="10.8" y1="27.15" x2="6.2" y2="24.49" style="fill:none; stroke:#ff1300; stroke-linecap:round; stroke-linejoin:round; stroke-width:1.75px;"/><line x1="5.4" y1="47.32" x2=".88" y2="47.32" style="fill:none; stroke:#ff1300; stroke-linecap:round; stroke-linejoin:round; stroke-width:1.75px;"/><line x1="10.8" y1="67.49" x2="7.55" y2="69.36" style="fill:none; stroke:#ff1300; stroke-linecap:round; stroke-linejoin:round; stroke-width:1.75px;"/><line x1="83.92" y1="69.36" x2="80.67" y2="67.49" style="fill:none; stroke:#ff1300; stroke-linecap:round; stroke-linejoin:round; stroke-width:1.75px;"/><line x1="90.6" y1="47.32" x2="86.07" y2="47.32" style="fill:none; stroke:#ff1300; stroke-linecap:round; stroke-linejoin:round; stroke-width:1.75px;"/><line x1="85.27" y1="24.49" x2="80.67" y2="27.15" style="fill:none; stroke:#ff1300; stroke-linecap:round; stroke-linejoin:round; stroke-width:1.75px;"/><line x1="68.85" y1="7.28" x2="65.91" y2="12.38" style="fill:none; stroke:#ff1300; stroke-linecap:round; stroke-linejoin:round; stroke-width:1.75px;"/><path d="M47.8,40.61l-1.64,3.59h5.08c1.22,0,2.37.59,3.09,1.58.71.99.91,2.27.52,3.43l-5.5,16.39c-.53,1.59-2.01,2.59-3.6,2.59-.4,0-.81-.06-1.21-.2-1.99-.67-3.06-2.82-2.4-4.81l3.82-11.38h-5.71c-1.29,0-2.5-.66-3.2-1.75-.7-1.09-.8-2.46-.26-3.63l7.13-15.62c.87-1.91,3.13-2.75,5.04-1.88,1.91.87,2.75,3.13,1.88,5.04l-3.04,6.65Z" style="fill:none; stroke:#ff1300; stroke-linecap:round; stroke-linejoin:round; stroke-width:1.75px;"/></svg>