<?xml version="1.0" encoding="UTF-8"?><svg id="a" xmlns="http://www.w3.org/2000/svg" width="100.36" height="86.39" viewBox="0 0 100.36 86.39"><path d="M85.66,59.01h7.42c3.54,0,6.4-2.87,6.4-6.4V7.28c0-3.54-2.87-6.4-6.4-6.4H22.01c-3.54,0-6.4,2.87-6.4,6.4v7.2" style="fill:none; stroke:#ff1300; stroke-linecap:round; stroke-linejoin:round; stroke-width:1.75px;"/><path d="M23.17,14.48h55.18c3.54,0,6.4,2.87,6.4,6.4v45.33c0,3.54-2.87,6.4-6.4,6.4h-7.42l-19.21,12.91-.82-12.91H7.28c-3.54,0-6.4-2.87-6.4-6.4V20.88c0-3.54,2.87-6.4,6.4-6.4h15.89Z" style="fill:none; stroke:#380000; stroke-linecap:round; stroke-linejoin:round; stroke-width:1.75px;"/><line x1="66.83" y1="33.28" x2="18.51" y2="33.28" style="fill:none; stroke:#ff1300; stroke-linecap:round; stroke-linejoin:round; stroke-width:1.75px;"/><line x1="18.51" y1="43.95" x2="62.86" y2="43.95" style="fill:none; stroke:#ff1300; stroke-linecap:round; stroke-linejoin:round; stroke-width:1.75px;"/><line x1="45.15" y1="54.67" x2="18.51" y2="54.67" style="fill:none; stroke:#ff1300; stroke-linecap:round; stroke-linejoin:round; stroke-width:1.75px;"/></svg>