<?xml version="1.0" encoding="UTF-8"?><svg id="a" xmlns="http://www.w3.org/2000/svg" width="91.9" height="90.45" viewBox="0 0 91.9 90.45"><path d="M35,11.11c-3,1.11-6.19,2.46-8.89,4.64l-6.5-4.34c-1.38-.77-3.13-.64-4.14.54l-6.06,7.07c-1.01,1.18-.88,2.93.1,4.17l5.28,5.76c-2.15,3.47-3.23,6.63-3.87,9.76l-7.57,1.68c-.64.27-1.28.54-1.68,1.01-.61.71-.98,1.62-.71,2.25l.63,8.15c.11,1.47,1.25,2.65,2.71,2.83,1.79.21,4.92-.39,8.55.35,3.13.64,3.99,5.25,4.83,9.15l-7.87,8.05,10.56,9.38c1.18,1.01,2.93.88,4.17-.1l5.76-5.28c2.96,1.31,6.13,2.39,9.49,3.23l1.68,7.57c.34,1.51,1.75,2.73,3.5,2.59l9.22-.27c1.75-.13,2.76-1.31,2.86-2.86l.27-7.94c3-1.11,6.19-2.46,8.89-4.64l6.5,4.34c1.38.77,3.13.64,4.14-.54l6.06-7.07c1.01-1.18.88-2.93-.1-4.17l-5.28-5.76c1.31-2.96,2.39-6.13,3.23-9.49l7.81-1.48c1.51-.34,2.73-1.75,2.39-3.26l-.94-9.39c-.13-1.75-1.31-2.76-2.86-2.86l-7.2-.24" style="fill:none; stroke:#380000; stroke-linecap:round; stroke-linejoin:round; stroke-width:1.75px;"/><circle cx="46.41" cy="44.97" r="22.82" style="fill:none; stroke:#380000; stroke-linecap:round; stroke-linejoin:round; stroke-width:1.75px;"/><path d="M79.33,34.66c-2.21-2.66-2.42-6.21-4.59-8.91l4.38-6.47c.78-1.38.66-3.13-.52-4.14l-7.03-6.1c-1.17-1.02-2.92-.89-4.17.08l-5.79,5.25c-2.95-1.33-6.11-2.42-9.47-3.28l-1.64-7.58c-.33-1.52-1.73-2.74-3.49-2.61l-9.22.22c-1.75.12-2.77,1.3-2.88,2.84l-.31,7.94" style="fill:none; stroke:#380000; stroke-linecap:round; stroke-linejoin:round; stroke-width:1.75px;"/><path d="M45.95,59.64c-.6,0-1.16-.23-1.59-.65-.43-.43-.65-.99-.65-1.59,0-.29.07-.58.18-.85.11-.27.27-.52.47-.74.63-.63,1.61-.83,2.44-.47.29.11.51.27.74.47.4.42.65,1.01.65,1.59s-.22,1.16-.65,1.59c-.22.2-.47.36-.74.47s-.56.18-.85.18Z" style="fill:#ff1300;"/><path d="M48.14,33.07c0-1.25-.98-2.26-2.19-2.26s-2.13.96-2.17,2.17c0,.02-.02.03-.02.05l.96,19.71c0,.62.49,1.12,1.09,1.12s1.09-.5,1.09-1.12l1.25-19.62s0,0,0,0c0-.02,0-.03,0-.05Z" style="fill:#ff1300;"/></svg>