<?xml version="1.0" encoding="UTF-8"?><svg id="a" xmlns="http://www.w3.org/2000/svg" width="32" height="32" viewBox="0 0 32 32"><path d="M11.9,28.43h-7.05c-.87,0-1.58-.71-1.58-1.58V4.78c0-.87.71-1.58,1.58-1.58h22.07c.87,0,1.58.71,1.58,1.58v3.94" style="fill:none; stroke:#fff; stroke-linecap:round; stroke-linejoin:round; stroke-width:1.5px;"/><path d="M28.5,17.64v9.21c0,.87-.71,1.58-1.58,1.58h-6.04" style="fill:none; stroke:#fff; stroke-linecap:round; stroke-linejoin:round; stroke-width:1.5px;"/><path d="M7.83,17.18h7.41" style="fill:none; stroke:#ff3e00; stroke-linecap:round; stroke-miterlimit:10; stroke-width:1.5px;"/><path d="M7.83,10.88h12.81" style="fill:none; stroke:#ff3e00; stroke-linecap:round; stroke-miterlimit:10; stroke-width:1.5px;"/><path d="M18.06,27.96l-3.07.83v-3.31l10.2-13.65c.67-.89,1.91-1.05,2.77-.35h0c.86.7,1.01,1.98.34,2.87l-10.25,13.61Z" style="fill:none; stroke:#fff; stroke-linecap:round; stroke-linejoin:round; stroke-width:1.5px;"/><line x1="15.47" y1="25.1" x2="18.37" y2="27.33" style="fill:none; stroke:#fff; stroke-linecap:round; stroke-linejoin:round; stroke-width:1.5px;"/></svg>