<?xml version="1.0" encoding="UTF-8"?><svg id="a" xmlns="http://www.w3.org/2000/svg" width="32" height="32" viewBox="0 0 32 32"><path d="M22.13,23.55c-.5.4-1.59,1.04-3.36.82-1.7-.2-4.36-1.26-7.39-5.16-4.9-6.32-3.23-10.37-1.66-11.63.69-.55,1.3-.81,1.77-.75.41.05.7.34.88.88l1.11,3.38c.14.42.05.67-.34.91l-.82.57c-.66.47-.77,1.12-.32,1.95.23.43.87,1.56,1.8,2.75.92,1.19,1.85,2.08,2.21,2.41.7.64,1.35.68,1.94.13l.75-.68c.26-.26.45-.27.57-.26.11.01.24.06.37.15l2.98,1.89c.41.26.62.56.64.91.03.51-.38,1.13-1.14,1.74Z" style="fill:none; stroke:#ff3e00; stroke-linecap:round; stroke-miterlimit:10; stroke-width:1.5px;"/><path d="M2.88,27.32l-.42,3.35,6.19-1.33c2.18,1.2,4.68,1.89,7.35,1.89,8.41,0,15.23-6.82,15.23-15.23S24.41.77,16,.77.77,7.59.77,16c0,3.07.92,5.93,2.49,8.32l-.37,3Z" style="fill:none; stroke:#fff; stroke-linecap:round; stroke-linejoin:round; stroke-width:1.5px;"/></svg>